<svg width="60.000000" height="60.000000" viewBox="0 0 60 60" fill="none" xmlns="http://www.w3.org/2000/svg" xmlns:xlink="http://www.w3.org/1999/xlink">
	<desc>
			Created with Pixso.
	</desc>
	<defs>
		<clipPath id="clip9_4805">
			<rect id="android-logo 1" rx="0.000000" width="59.000000" height="59.000000" transform="translate(0.500000 0.500000)" fill="white" fill-opacity="0"/>
		</clipPath>
	</defs>
	<rect id="android-logo 1" rx="0.000000" width="59.000000" height="59.000000" transform="translate(0.500000 0.500000)" fill="#FFFFFF" fill-opacity="0"/>
	<g clip-path="url(#clip9_4805)">
		<path id="Vector" d="M8.32 19.43C7.29 19.43 6.41 19.79 5.69 20.51C4.97 21.23 4.61 22.1 4.61 23.11L4.61 38.61C4.61 39.65 4.97 40.52 5.69 41.25C6.41 41.97 7.29 42.33 8.32 42.33C9.36 42.33 10.23 41.97 10.94 41.25C11.65 40.52 12 39.65 12 38.61L12 23.11C12 22.1 11.64 21.23 10.92 20.51C10.2 19.79 9.33 19.43 8.32 19.43Z" fill="#FFFFFF" fill-opacity="1.000000" fill-rule="nonzero"/>
		<path id="Vector" d="M38.18 5.51L40.74 0.79C40.91 0.48 40.85 0.24 40.56 0.07C40.25 -0.08 40.01 0 39.84 0.28L37.24 5.04C34.96 4.03 32.54 3.53 30 3.53C27.45 3.53 25.03 4.03 22.75 5.04L20.15 0.28C19.98 0 19.74 -0.08 19.43 0.07C19.14 0.24 19.08 0.48 19.25 0.79L21.81 5.51C19.21 6.84 17.15 8.68 15.61 11.05C14.07 13.42 13.3 16 13.3 18.82L46.65 18.82C46.65 16.01 45.88 13.42 44.35 11.05C42.81 8.68 40.75 6.84 38.18 5.51ZM23.38 12.38C23.1 12.66 22.77 12.8 22.39 12.8C22 12.8 21.68 12.66 21.41 12.38C21.15 12.1 21.02 11.78 21.02 11.39C21.02 11.01 21.15 10.68 21.41 10.4C21.68 10.12 22 9.98 22.39 9.98C22.77 9.98 23.1 10.12 23.38 10.4C23.65 10.68 23.79 11.01 23.79 11.39C23.79 11.77 23.65 12.1 23.38 12.38ZM38.58 12.38C38.31 12.66 37.99 12.8 37.6 12.8C37.22 12.8 36.89 12.66 36.61 12.38C36.33 12.1 36.2 11.78 36.2 11.39C36.2 11.01 36.33 10.68 36.61 10.4C36.89 10.12 37.22 9.98 37.6 9.98C37.99 9.98 38.31 10.12 38.58 10.4C38.84 10.68 38.97 11.01 38.97 11.39C38.97 11.77 38.84 12.1 38.58 12.38Z" fill="#FFFFFF" fill-opacity="1.000000" fill-rule="nonzero"/>
		<path id="Vector" d="M13.44 44.13C13.44 45.24 13.83 46.17 14.6 46.94C15.37 47.71 16.3 48.09 17.41 48.09L20.08 48.09L20.11 56.28C20.11 57.31 20.48 58.19 21.2 58.91C21.92 59.63 22.78 60 23.79 60C24.83 60 25.7 59.63 26.42 58.91C27.15 58.19 27.51 57.31 27.51 56.28L27.51 48.1L32.48 48.1L32.48 56.28C32.48 57.31 32.84 58.19 33.56 58.91C34.28 59.63 35.16 60 36.2 60C37.23 60 38.11 59.63 38.83 58.91C39.55 58.19 39.91 57.31 39.91 56.28L39.91 48.1L42.61 48.1C43.69 48.1 44.62 47.71 45.39 46.94C46.16 46.17 46.54 45.24 46.54 44.13L46.54 20.11L13.44 20.11L13.44 44.13Z" fill="#FFFFFF" fill-opacity="1.000000" fill-rule="nonzero"/>
		<path id="Vector" d="M51.67 19.43C50.66 19.43 49.79 19.79 49.07 20.49C48.35 21.2 47.99 22.08 47.99 23.11L47.99 38.61C47.99 39.65 48.35 40.52 49.07 41.25C49.79 41.97 50.66 42.33 51.67 42.33C52.7 42.33 53.58 41.97 54.3 41.25C55.02 40.52 55.38 39.65 55.38 38.61L55.38 23.11C55.38 22.08 55.02 21.2 54.3 20.49C53.58 19.79 52.7 19.43 51.67 19.43Z" fill="#FFFFFF" fill-opacity="1.000000" fill-rule="nonzero"/>
	</g>
</svg>
