<svg width="582.000000" height="470.796387" viewBox="0 0 582 470.796" fill="none" xmlns="http://www.w3.org/2000/svg" xmlns:xlink="http://www.w3.org/1999/xlink">
	<desc>
			Created with Pixso.
	</desc>
	<defs>
		<clipPath id="clip9_2595">
			<rect id="slack 1" rx="0.000000" width="42.650002" height="42.650002" transform="translate(407.900330 161.588867)" fill="white" fill-opacity="0"/>
		</clipPath>
		<clipPath id="clip9_2608">
			<rect id="outlook 1" rx="0.000000" width="42.650002" height="42.650002" transform="translate(15.049988 292.539062)" fill="white" fill-opacity="0"/>
		</clipPath>
		<clipPath id="clip9_2614">
			<rect id="google-drive 1" rx="0.000000" width="42.650002" height="42.650002" transform="translate(524.299988 292.539062)" fill="white" fill-opacity="0"/>
		</clipPath>
		<clipPath id="clip9_2624">
			<rect id="dropbox 1" rx="0.000000" width="42.650002" height="42.650002" transform="translate(117.938904 161.588867)" fill="white" fill-opacity="0"/>
		</clipPath>
		<clipPath id="clip9_2634">
			<rect id="google-calendar 1" rx="0.000000" width="42.650002" height="42.650002" transform="translate(269.674988 395.428223)" fill="white" fill-opacity="0"/>
		</clipPath>
		<clipPath id="clip9_2656">
			<rect id="gmail 1" rx="0.000000" width="42.650002" height="42.650002" transform="translate(266.557312 15.049805)" fill="white" fill-opacity="0"/>
		</clipPath>
	</defs>
	<circle id="Ellipse 24" cx="284.764160" cy="179.796387" r="144.500000" stroke="#4F9CF9" stroke-opacity="1.000000" stroke-width="2.000000" stroke-dasharray="15 15"/>
	<circle id="Ellipse 25" cx="181.875000" cy="325.296387" r="144.500000" stroke="#4F9CF9" stroke-opacity="1.000000" stroke-width="2.000000" stroke-dasharray="15 15"/>
	<circle id="Ellipse 26" cx="400.125000" cy="325.296387" r="144.500000" stroke="#4F9CF9" stroke-opacity="1.000000" stroke-width="2.000000" stroke-dasharray="15 15"/>
	<circle id="Ellipse 19" cx="429.225342" cy="182.914062" r="36.375000" fill="#FFFFFF" fill-opacity="1.000000"/>
	<rect id="slack 1" rx="0.000000" width="42.650002" height="42.650002" transform="translate(407.900330 161.588867)" fill="#FFFFFF" fill-opacity="0"/>
	<g clip-path="url(#clip9_2595)">
		<path id="Vector" d="M423.37 184.19C420.86 184.19 418.81 186.24 418.81 188.76L418.81 200.17C418.81 202.69 420.86 204.73 423.37 204.73C425.89 204.73 427.94 202.69 427.94 200.17L427.94 188.76C427.94 186.24 425.89 184.19 423.37 184.19Z" fill="#FF4340" fill-opacity="1.000000" fill-rule="nonzero"/>
		<path id="Vector" d="M416.25 184.19L411.83 184.19C409.39 184.19 407.41 186.17 407.41 188.61C407.41 191.05 409.39 193.03 411.83 193.03C414.27 193.03 416.25 191.05 416.25 188.61L416.25 184.19Z" fill="#FF4340" fill-opacity="1.000000" fill-rule="nonzero"/>
		<path id="Vector" d="M407.4 177.06C407.4 179.58 409.44 181.63 411.96 181.63L423.38 181.63C425.89 181.63 427.94 179.58 427.94 177.06C427.94 174.55 425.89 172.5 423.38 172.5L411.96 172.5C409.44 172.5 407.4 174.55 407.4 177.06L407.4 177.06Z" fill="#36C6FF" fill-opacity="1.000000" fill-rule="nonzero"/>
		<path id="Vector" d="M423.52 169.94L427.94 169.94L427.94 165.52C427.94 163.08 425.96 161.1 423.52 161.1C421.08 161.1 419.1 163.08 419.1 165.52C419.1 167.96 421.08 169.94 423.52 169.94Z" fill="#36C6FF" fill-opacity="1.000000" fill-rule="nonzero"/>
		<path id="Vector" d="M435.07 181.63C437.58 181.63 439.63 179.58 439.63 177.06L439.63 165.65C439.63 163.13 437.58 161.08 435.07 161.08C432.55 161.08 430.5 163.13 430.5 165.65L430.5 177.06C430.5 179.58 432.55 181.63 435.07 181.63Z" fill="#0DC46E" fill-opacity="1.000000" fill-rule="nonzero"/>
		<path id="Vector" d="M442.19 181.63L446.61 181.63C449.05 181.63 451.03 179.65 451.03 177.21C451.03 174.77 449.05 172.79 446.61 172.79C444.17 172.79 442.19 174.77 442.19 177.21L442.19 181.63Z" fill="#0DC46E" fill-opacity="1.000000" fill-rule="nonzero"/>
		<path id="Vector" d="M451.05 188.76C451.05 186.24 449 184.19 446.48 184.19L435.07 184.19C432.55 184.19 430.5 186.24 430.5 188.76C430.5 191.27 432.55 193.32 435.07 193.32L446.48 193.32C449 193.32 451.05 191.27 451.05 188.76Z" fill="#FDCB02" fill-opacity="1.000000" fill-rule="nonzero"/>
		<path id="Vector" d="M434.92 195.88L430.5 195.88L430.5 200.3C430.5 202.74 432.48 204.72 434.92 204.72C437.36 204.72 439.34 202.74 439.34 200.3C439.34 197.86 437.36 195.88 434.92 195.88Z" fill="#FDCB02" fill-opacity="1.000000" fill-rule="nonzero"/>
	</g>
	<circle id="Ellipse 20" cx="36.375000" cy="313.864258" r="36.375000" fill="#FFFFFF" fill-opacity="1.000000"/>
	<rect id="outlook 1" rx="0.000000" width="42.650002" height="42.650002" transform="translate(15.049988 292.539062)" fill="#FFFFFF" fill-opacity="0"/>
	<g clip-path="url(#clip9_2608)">
		<path id="Vector" d="M56.83 301.58L37.73 301.58C36.98 301.58 36.37 302.19 36.37 302.95C36.37 303.7 36.98 304.31 37.73 304.31L52.86 304.31L44.47 310.83L38.46 307.01L37 309.31L43.82 313.65C44.04 313.79 44.3 313.86 44.55 313.86C44.85 313.86 45.15 313.76 45.39 313.57L55.47 305.74L55.47 323.41L37.73 323.41C36.98 323.41 36.37 324.02 36.37 324.77C36.37 325.53 36.98 326.14 37.73 326.14L56.83 326.14C57.58 326.14 58.19 325.53 58.19 324.77L58.19 302.95C58.19 302.19 57.58 301.58 56.83 301.58Z" fill="#1976D2" fill-opacity="1.000000" fill-rule="nonzero"/>
		<path id="Vector" d="M38.6 293.71C38.29 293.45 37.88 293.34 37.48 293.42L15.66 297.52C15.01 297.64 14.55 298.2 14.55 298.85L14.55 328.87C14.55 329.52 15.01 330.08 15.66 330.2L37.48 334.3C37.56 334.31 37.65 334.32 37.73 334.32C38.05 334.32 38.36 334.21 38.6 334.01C38.92 333.75 39.1 333.36 39.1 332.96L39.1 294.76C39.1 294.36 38.92 293.97 38.6 293.71Z" fill="#2196F3" fill-opacity="1.000000" fill-rule="nonzero"/>
		<path id="Vector" d="M26.82 323.41C23.06 323.41 20 319.74 20 315.22C20 310.71 23.06 307.04 26.82 307.04C30.58 307.04 33.64 310.71 33.64 315.22C33.64 319.74 30.58 323.41 26.82 323.41ZM26.82 309.77C24.57 309.77 22.73 312.21 22.73 315.22C22.73 318.23 24.57 320.68 26.82 320.68C29.08 320.68 30.91 318.23 30.91 315.22C30.91 312.21 29.08 309.77 26.82 309.77Z" fill="#FAFAFA" fill-opacity="1.000000" fill-rule="nonzero"/>
	</g>
	<circle id="Ellipse 21" cx="545.625000" cy="313.864258" r="36.375000" fill="#FFFFFF" fill-opacity="1.000000"/>
	<rect id="google-drive 1" rx="0.000000" width="42.650002" height="42.650002" transform="translate(524.299988 292.539062)" fill="#FFFFFF" fill-opacity="0"/>
	<g clip-path="url(#clip9_2614)">
		<path id="Vector" d="M545.58 305.82L536.52 321.54L536.5 321.54L541.74 327.93L529.97 332.87C529.74 332.75 529.56 332.57 529.46 332.39L523.93 322.15C523.65 321.59 523.88 321.15 523.96 320.9L538.77 295.31C538.88 295.15 539.03 295 539.24 294.87L539.26 294.87L546.86 297.22L545.58 305.82Z" fill="#59C36A" fill-opacity="1.000000" fill-rule="nonzero"/>
		<path id="Vector" d="M567.45 321.54L557.18 327.93L554.75 321.54L545.58 305.82L539.26 294.87C539.44 294.74 539.67 294.67 539.87 294.67L551.37 294.67C551.63 294.74 552.14 294.72 552.47 295.31L567.29 320.9C567.39 321.08 567.45 321.31 567.45 321.54Z" fill="#FFDA2D" fill-opacity="1.000000" fill-rule="nonzero"/>
		<path id="Vector" d="M552.48 295.31C552.14 294.72 551.63 294.74 551.37 294.67L545.58 294.67L545.58 305.82L554.75 321.54L557.18 327.94L567.45 321.54C567.45 321.31 567.4 321.08 567.29 320.9L552.48 295.31Z" fill="#FDBF00" fill-opacity="1.000000" fill-rule="nonzero"/>
		<path id="Vector" d="M567.45 321.54C567.45 321.77 567.39 322 567.32 322.15L561.79 332.39C561.58 332.72 561.1 333.05 560.66 333.05L530.59 333.05C530.38 333.05 530.15 332.98 529.97 332.87L536.5 321.54L567.45 321.54Z" fill="#4086F4" fill-opacity="1.000000" fill-rule="nonzero"/>
		<path id="Vector" d="M545.58 333.05L560.66 333.05C561.1 333.05 561.59 332.72 561.79 332.39L567.32 322.15C567.4 322 567.45 321.77 567.45 321.54L545.58 321.54L545.58 333.05L545.58 333.05Z" fill="#4175DF" fill-opacity="1.000000" fill-rule="nonzero"/>
	</g>
	<circle id="Ellipse 22" cx="139.263916" cy="182.914062" r="36.375000" fill="#FFFFFF" fill-opacity="1.000000"/>
	<rect id="dropbox 1" rx="0.000000" width="42.650002" height="42.650002" transform="translate(117.938904 161.588867)" fill="#FFFFFF" fill-opacity="0"/>
	<g clip-path="url(#clip9_2624)">
		<path id="Vector" d="M126.01 193.74L126.01 190.24L131.93 193.67L139.26 186.81L139.26 202.4L126.01 193.74Z" fill="#0093EB" fill-opacity="1.000000" fill-rule="nonzero"/>
		<path id="Vector" d="M118.92 184.47L126.63 177.45L139.26 185.25L131.93 192.11L118.92 184.47Z" fill="#0093EB" fill-opacity="1.000000" fill-rule="nonzero"/>
		<path id="Vector" d="M126.63 177.45L117.43 170.44L130.69 163.42L140.04 169.66L126.63 177.45Z" fill="#0093EB" fill-opacity="1.000000" fill-rule="nonzero"/>
		<path id="Vector" d="M152.51 193.82L139.26 202.4L139.26 186.81L146.82 193.35L152.51 189.77L152.51 193.82Z" fill="#0093EB" fill-opacity="1.000000" fill-rule="nonzero"/>
		<path id="Vector" d="M146.82 191.8L139.26 185.25L151.96 177.14L159.6 183.69L146.82 191.8Z" fill="#0093EB" fill-opacity="1.000000" fill-rule="nonzero"/>
		<path id="Vector" d="M151.96 177.14L140.04 169.66L149.39 163.42L161.08 170.44L151.96 177.14Z" fill="#0093EB" fill-opacity="1.000000" fill-rule="nonzero"/>
	</g>
	<circle id="Ellipse 23" cx="291.000000" cy="416.753418" r="36.375000" fill="#FFFFFF" fill-opacity="1.000000"/>
	<rect id="google-calendar 1" rx="0.000000" width="42.650002" height="42.650002" transform="translate(269.674988 395.428223)" fill="#FFFFFF" fill-opacity="0"/>
	<g clip-path="url(#clip9_2634)">
		<path id="Vector" d="M308.93 407.88L273.13 407.88C272.42 407.88 271.85 407.31 271.85 406.6L271.85 398.76C271.85 396.64 273.57 394.92 275.68 394.92L306.38 394.92C308.49 394.92 310.21 396.64 310.21 398.76L310.21 406.6C310.21 407.31 309.64 407.88 308.93 407.88Z" fill="#E3E7EA" fill-opacity="1.000000" fill-rule="nonzero"/>
		<path id="Vector" d="M306.38 394.92L291.03 394.92L291.03 407.88L308.93 407.88C309.64 407.88 310.21 407.31 310.21 406.6L310.21 398.76C310.21 396.64 308.49 394.92 306.38 394.92Z" fill="#BABAC0" fill-opacity="1.000000" fill-rule="nonzero"/>
		<path id="Vector" d="M271.8 421.95C271.8 421.95 271.8 421.95 271.8 421.95L269.26 409.83C269.08 408.68 269.38 407.52 270.1 406.68C270.84 405.81 271.92 405.32 273.04 405.32L308.95 405.32C310.07 405.32 311.15 405.81 311.89 406.68C312.61 407.52 312.91 408.68 312.74 409.77L310.19 421.95L312.74 434.07C312.91 435.22 312.61 436.37 311.89 437.22C311.15 438.09 310.07 438.57 308.95 438.57L273.04 438.57C271.92 438.57 270.84 438.09 270.1 437.22C269.38 436.37 269.08 435.22 269.26 434.12C269.26 434.12 271.76 422.16 271.8 421.95Z" fill="#4086F4" fill-opacity="1.000000" fill-rule="nonzero"/>
		<path id="Vector" d="M271.8 421.95C271.8 421.95 271.8 421.95 271.8 421.95L310.19 421.95L312.74 409.77C312.91 408.68 312.61 407.52 311.89 406.68C311.15 405.81 310.07 405.32 308.95 405.32L273.04 405.32C271.92 405.32 270.84 405.81 270.1 406.68C269.38 407.52 269.08 408.68 269.26 409.83L271.8 421.95Z" fill="#4175DF" fill-opacity="1.000000" fill-rule="nonzero"/>
		<path id="Vector" d="M279.49 401.32C279.49 402.02 278.91 402.6 278.21 402.6C277.5 402.6 276.93 402.02 276.93 401.32C276.93 400.61 277.5 400.04 278.21 400.04C278.91 400.04 279.49 400.61 279.49 401.32Z" fill="#FFF5F5" fill-opacity="1.000000" fill-rule="evenodd"/>
		<path id="Vector" d="M305.06 401.32C305.06 402.02 304.49 402.6 303.78 402.6C303.08 402.6 302.5 402.02 302.5 401.32C302.5 400.61 303.08 400.04 303.78 400.04C304.49 400.04 305.06 400.61 305.06 401.32Z" fill="#E3E7EA" fill-opacity="1.000000" fill-rule="evenodd"/>
		<path id="Vector" d="M285.88 430.9C283.72 430.9 281.78 429.53 281.06 427.49C280.82 426.82 281.17 426.09 281.84 425.86C282.5 425.62 283.23 425.97 283.47 426.64C283.83 427.66 284.8 428.34 285.88 428.34C287.29 428.34 288.44 427.2 288.44 425.79C288.44 424.38 287.29 423.23 285.88 423.23L284.29 423.23C283.58 423.23 283.01 422.66 283.01 421.95C283.01 421.24 283.58 420.67 284.29 420.67L285.88 420.67C287.29 420.67 288.44 419.52 288.44 418.11C288.44 416.7 287.29 415.56 285.88 415.56C284.8 415.56 283.83 416.24 283.47 417.26C283.23 417.93 282.5 418.28 281.84 418.04C281.17 417.8 280.82 417.07 281.06 416.41C281.78 414.37 283.72 413 285.88 413C288.7 413 291 415.29 291 418.11C291 419.64 290.32 421.01 289.26 421.95C290.32 422.89 291 424.26 291 425.79C291 428.61 288.7 430.9 285.88 430.9Z" fill="#FFF5F5" fill-opacity="1.000000" fill-rule="nonzero"/>
		<path id="Vector" d="M281.84 418.04C282.5 418.28 283.23 417.93 283.47 417.26C283.83 416.24 284.8 415.56 285.88 415.56C287.29 415.56 288.44 416.7 288.44 418.11C288.44 419.52 287.29 420.67 285.88 420.67L284.29 420.67C283.58 420.67 283.01 421.24 283.01 421.95L289.26 421.95C290.32 421.01 291 419.64 291 418.11C291 415.29 288.7 413 285.88 413C283.72 413 281.78 414.37 281.06 416.41C280.82 417.07 281.17 417.8 281.84 418.04Z" fill="#E3E7EA" fill-opacity="1.000000" fill-rule="nonzero"/>
		<path id="Vector" d="M298.67 430.9C297.96 430.9 297.39 430.33 297.39 429.62L297.39 416.67L295.54 417.9C294.95 418.29 294.16 418.13 293.77 417.54C293.38 416.95 293.54 416.16 294.12 415.77L297.96 413.21C298.35 412.95 298.86 412.93 299.27 413.15C299.69 413.37 299.95 413.8 299.95 414.28L299.95 429.62C299.95 430.33 299.38 430.9 298.67 430.9Z" fill="#FFF5F5" fill-opacity="1.000000" fill-rule="nonzero"/>
		<path id="Vector" d="M295.54 417.9L297.39 416.67L297.39 421.95L299.95 421.95L299.95 414.28C299.95 413.8 299.69 413.37 299.27 413.15C298.86 412.93 298.35 412.95 297.96 413.21L294.12 415.77C293.54 416.16 293.38 416.96 293.77 417.54C294.16 418.13 294.95 418.29 295.54 417.9Z" fill="#E3E7EA" fill-opacity="1.000000" fill-rule="nonzero"/>
	</g>
	<circle id="Ellipse 18" cx="287.882324" cy="36.375000" r="36.375000" fill="#FFFFFF" fill-opacity="1.000000"/>
	<rect id="gmail 1" rx="0.000000" width="42.650002" height="42.650002" transform="translate(266.557312 15.049805)" fill="#FFFFFF" fill-opacity="0"/>
	<g clip-path="url(#clip9_2656)">
		<path id="Vector" d="M271.51 20L304.25 20L304.25 52.74L271.51 52.74L271.51 20Z" fill="#ECEFF1" fill-opacity="1.000000" fill-rule="evenodd"/>
		<path id="Vector" d="M287.88 39.81L304.25 52.74L304.25 27.22L287.88 39.81Z" fill="#CFD8DC" fill-opacity="1.000000" fill-rule="nonzero"/>
		<path id="Vector" d="M305.61 20L304.25 20L287.88 32.93L271.51 20L270.15 20C267.89 20 266.05 21.83 266.05 24.09L266.05 48.65C266.05 50.91 267.89 52.74 270.15 52.74L271.51 52.74L271.51 27.22L287.88 39.81L304.25 27.22L304.25 52.74L305.61 52.74C307.87 52.74 309.7 50.91 309.7 48.65L309.7 24.09C309.7 21.83 307.87 20 305.61 20Z" fill="#F44336" fill-opacity="1.000000" fill-rule="nonzero"/>
	</g>
	<circle id="Ellipse 27" cx="289.960632" cy="278.528320" r="51.964287" fill="#FFFFFF" fill-opacity="1.000000"/>
	<path id="Vector" d="M265 266.18L265 275.26C265 278.02 268.45 279.5 270.56 277.56L280.64 268.48C282.84 266.5 281.4 263 278.38 263L268.31 263C266.48 263 265 264.42 265 266.18Z" fill="#5986EF" fill-opacity="1.000000" fill-rule="nonzero"/>
	<path id="Vector" d="M312.69 263L302.61 263C299.64 263 298.15 266.5 300.35 268.48L310.43 277.56C312.54 279.45 316 278.02 316 275.26L316 266.18C316 264.42 314.51 263 312.69 263Z" fill="#5986EF" fill-opacity="1.000000" fill-rule="nonzero"/>
	<path id="Vector" d="M292.77 285.17L310.43 301.12C312.54 303.01 316 301.58 316 298.81L316 289.64C316 288.76 315.61 287.94 314.94 287.34L292.77 267.28C291.48 266.13 289.51 266.13 288.22 267.28L266.05 287.34C265.38 287.94 265 288.76 265 289.64L265 298.81C265 301.58 268.45 303.06 270.56 301.12L288.22 285.17C289.51 284.02 291.48 284.02 292.77 285.17Z" fill="#5986EF" fill-opacity="1.000000" fill-rule="nonzero"/>
</svg>
