<svg width="843.971863" height="836.474243" viewBox="0 0 843.972 836.474" fill="none" xmlns="http://www.w3.org/2000/svg" xmlns:xlink="http://www.w3.org/1999/xlink">
	<desc>
			Created with Pixso.
	</desc>
	<defs/>
	<g opacity="0.200000">
		<path id="Vector" d="M752.67 316.8C754.27 322.78 754.13 330.48 752.02 341.23C746.15 369.86 715.14 405.91 682.33 443.98C664.33 464.93 645.7 486.57 631.2 507.18C603.56 539.02 590.66 583.89 578.14 627.32C569.01 659.06 560.35 689.03 546.48 714.16L546.45 714.21C535.53 733.23 522.97 744.12 508.09 747.5C479.05 754.12 445.41 731.01 406.47 704.2L402.72 701.64C373.74 681.79 335.53 657.37 278.87 622.36L274.19 619.36C224.86 587.68 163.45 548.22 116.6 488.36C13.72 370.86 33.57 238.59 79.45 186.22C134.36 129.7 204.64 114.48 348.21 127.97C497.92 142.25 633.28 226.49 684.51 262.04C702.39 277.42 716.93 286.17 727.54 292.53C740.96 300.63 749.74 305.89 752.67 316.8ZM541.51 711.71C555.08 687.13 563.63 657.45 572.71 626.03C585.37 582.08 598.46 536.6 626.73 504.08C641.21 483.43 659.95 461.68 678.02 440.66C710.34 403.11 740.87 367.62 746.48 340.39C751.67 313.59 744.8 309.45 724.41 297.15C713.63 290.67 698.83 281.77 680.83 266.3C630.17 231.19 495.83 147.54 347.45 133.37C205.96 120.06 136.9 134.83 83.55 189.76C39.05 240.61 20.02 369.69 120.95 484.96C167.37 544.21 228.34 583.39 277.31 614.87L281.97 617.83C338.69 652.87 376.95 677.32 406 697.23L409.74 699.8C447.59 725.87 480.29 748.33 506.83 742.29C520.1 739.25 531.41 729.26 541.51 711.71Z" fill="#A7CEFC" fill-opacity="1.000000" fill-rule="nonzero"/>
		<path id="Vector" d="M716.82 335.14C719.04 343.41 718.61 352.89 716.93 366.25L716.91 366.51C710.97 392.87 686.62 419.01 660.87 446.64C643.25 465.51 625.09 485.04 610.48 506.58C585.85 538.04 569.65 573.65 553.99 608.03C543.49 631.15 533.56 652.99 521.45 672.96L521.19 673.33C484.42 717.25 458.33 699.81 410.95 668.21C405.8 664.77 400.38 661.15 394.61 657.41C384.49 649.71 373.32 641.61 361.48 633C308.81 594.77 236.69 542.36 167.41 459.73C90.27 356.72 99.8 258.6 143.42 207.01C189.28 154.72 260.41 151.19 383.96 163.03C509.85 178.53 605.86 242.69 657.43 277.17L663.18 281C698.18 307.54 712.52 319.09 716.82 335.14ZM711.35 365.59C715.89 329.15 711.21 324.43 659.8 285.35L654.21 281.6C603.03 247.41 507.74 183.75 383.28 168.37C261.79 156.71 191.95 159.98 147.78 210.35C105.55 260.29 96.63 355.75 171.95 456.37C240.72 538.4 312.54 590.55 364.95 628.67C376.8 637.28 387.97 645.38 398.02 653.01C403.63 656.67 409.06 660.29 414.25 663.71C461.68 695.34 483.38 709.83 516.74 670.14C528.61 650.49 538.43 628.85 548.85 605.97C564.61 571.26 580.95 535.4 605.89 503.56C620.62 481.81 638.96 462.1 656.71 443.06C681.87 416.07 705.66 390.51 711.35 365.59Z" fill="#A7CEFC" fill-opacity="1.000000" fill-rule="nonzero"/>
		<path id="Vector" d="M686.99 350.7C689.81 361.26 688.49 372.1 685.04 386.1C677.66 409.93 655.48 433.42 632.04 458.27C618.09 473.02 603.7 488.32 591.15 504.76C570.87 528.47 555.05 554.38 539.71 579.39C527.12 599.92 515.27 619.31 502.05 635.63L501.84 635.86C465.75 671.42 439.21 651.78 391.01 616.1L390.45 615.69L382.2 608.91C335.36 570.28 271.21 517.37 213.41 436.83C149.77 340.52 167.7 263.55 202.32 226.88C239.24 187.7 300.43 178.48 413.51 195.06C492.69 207.99 570.13 242.98 643.67 299.01C670.38 321.14 682.94 335.62 686.99 350.7ZM497.69 632.28C510.62 616.26 522.4 597.06 534.81 576.75C550.24 551.54 566.23 525.45 586.68 501.52C599.29 484.94 613.84 469.56 627.89 454.7C650.92 430.34 672.64 407.31 679.61 384.8C687.53 352.92 683.53 339.16 640.02 303.21C567.23 247.79 490.66 213.18 412.47 200.41C301.54 184.16 241.83 192.85 206.39 230.47C170.47 268.52 160.14 346.13 218.05 433.82C275.4 513.71 339.22 566.37 385.86 604.79L394.45 611.82C442.99 647.75 465.22 664.21 497.69 632.28Z" fill="#A7CEFC" fill-opacity="1.000000" fill-rule="nonzero"/>
		<path id="Vector" d="M659.12 362.21C662.28 374.01 661 386.22 656.01 400.81L655.99 400.9C647.63 423.09 626.55 444.82 604.28 467.82C593.95 478.46 583.31 489.48 573.44 500.98C558.69 516.76 545.59 533.39 532.99 549.45C517.49 569.18 502.83 587.85 487.44 601.61C454.08 627.36 428.29 609.68 389.67 577.53C352.28 543.77 297.68 490.76 254.7 419.35C219 349.75 216.94 291 248.8 253.77C283.11 213.61 351.73 202.93 437.08 224.44C536.09 244.4 605.71 299.24 624.67 315.58C644.13 333.16 655.14 347.37 659.12 362.21ZM650.68 399.22C659.97 371.96 657.88 353.08 620.8 319.62C602.14 303.55 533.43 249.41 435.66 229.72C352.44 208.76 285.93 218.75 253.13 257.17C222.78 292.66 225.14 349.31 259.72 416.76C302.27 487.42 356.46 540.07 393.54 573.53C433.27 606.62 455.16 619.81 483.9 597.61C498.73 584.31 513.22 565.85 528.58 546.29C541.3 530.11 554.41 513.4 569.28 497.54C579.14 486 589.9 474.94 600.26 464.25C622.05 441.64 642.7 420.33 650.68 399.22Z" fill="#A7CEFC" fill-opacity="1.000000" fill-rule="nonzero"/>
		<path id="Vector" d="M633.33 371.4C636.68 383.92 635.28 396.64 629.5 411L629.29 411.4C593.08 470.18 496.57 554.05 477.61 570.27L477.15 570.57C448.18 587.02 424.97 573.62 392.3 543.2C362.85 514.19 321.58 466.98 292.04 406.6C266.67 350.52 267.91 303.1 295.52 272.99C326.2 239.57 384.32 231.69 455 251.33C522.34 267.26 577.2 302.62 606.06 330.41C620.86 345.03 629.77 358.12 633.33 371.4ZM624.36 408.94C635.3 381.45 629.24 361.19 602.02 334.29C573.7 307 519.77 272.3 453.43 256.57C385.82 237.79 328.4 245.26 299.7 276.52C273.62 304.92 272.69 350.33 297.18 404.28C326.39 463.92 367.24 510.61 396.35 539.32C427.59 568.45 448.25 580.59 474.19 566.07C528.65 519.48 596.62 453.83 624.36 408.94Z" fill="#A7CEFC" fill-opacity="1.000000" fill-rule="nonzero"/>
		<path id="Vector" d="M609.61 380.08C613.2 393.48 611.65 406.33 604.98 417.53C578.76 462.23 513.39 518.97 471.08 541.87C461.1 546.44 450.22 546.64 438.7 542.59C403.19 530.09 360.98 476.16 325.81 398.28C308.84 353.59 312.54 315.87 336.23 291.97C363.08 264.91 411.16 259.17 468.09 276.21C540.42 298.84 592.45 335.18 607.36 373.37C608.28 375.62 609.02 377.87 609.61 380.08ZM325.5 379.18C326.99 384.72 328.82 390.38 331.04 396.15C365.55 472.57 406.58 525.48 440.74 537.44C450.87 541.01 460.24 540.87 468.61 537.03C510.05 514.57 574.38 458.8 600.13 414.88C607 403.27 607.7 389.58 602.13 375.33C587.79 338.62 537.03 303.45 466.32 281.33C412.32 265.18 365.21 270.49 340.27 295.62C321.18 314.88 316.12 344.15 325.5 379.18Z" fill="#A7CEFC" fill-opacity="1.000000" fill-rule="nonzero"/>
		<path id="Vector" d="M586.19 385.02C589.52 397.46 588.26 409.54 582.41 420.27C561.66 458.51 508.06 503.11 467.74 515.63L467.65 515.65C430.14 525.92 383.29 474.48 356.34 393.37C346.05 358.5 351.33 329.17 371.3 310.7C394.19 289.52 432.72 285.39 477.04 299.36C531.03 316.84 570.92 346.15 583.76 377.8C584.73 380.25 585.55 382.66 586.19 385.02ZM466.17 510.46C505.28 498.26 557.3 454.99 577.43 417.82C583.62 406.48 583.98 393.4 578.52 379.9C566.24 349.68 527.6 321.5 475.14 304.51C432.88 291.19 396.39 294.86 375.09 314.59C356.75 331.59 351.93 358.94 361.66 391.73C387.26 468.64 432.22 519.73 466.17 510.46Z" fill="#A7CEFC" fill-opacity="1.000000" fill-rule="nonzero"/>
		<path id="Vector" d="M563.84 389.08C566.75 399.95 565.87 410.59 561.12 420.25C544.6 454.14 501.49 486.63 466.93 491.29C433.61 495.23 397.2 451.36 384.02 391.58C378.63 365.25 384.68 343.16 400.99 329.32C419.69 313.48 449.34 310.48 482.3 321.17C520.93 333.87 550.4 356.38 561.14 381.37C562.28 383.94 563.15 386.51 563.84 389.08ZM391.77 399.53C405.82 451.93 437.56 489.31 466.34 485.9C498.6 481.56 540.53 449.85 556.07 418.03C561.18 407.55 561.14 395.65 555.96 383.53C545.8 359.89 517.54 338.52 480.39 326.28C449.39 316.23 421.79 318.81 404.63 333.34C389.93 345.79 384.56 366.07 389.5 390.37C390.23 393.45 390.97 396.52 391.77 399.53Z" fill="#A7CEFC" fill-opacity="1.000000" fill-rule="nonzero"/>
		<path id="Vector" d="M542.38 392.59C544.72 401.34 544.2 409.99 540.83 418.04C529.09 445.91 496.5 468.53 468.19 468.46C440.14 468.2 414.33 434.68 409.44 392.26C407.4 373.41 413.25 357.61 425.91 347.76C440.24 336.61 461.62 334.5 484.58 341.93C510.81 350.52 530.82 366.1 539.45 384.69C540.68 387.28 541.67 389.94 542.38 392.59ZM468.36 463.04C494.06 463.12 524.88 441.62 535.63 416.12C539.46 407.05 539.01 396.98 534.34 386.96C526.41 369.95 507.11 354.99 482.7 347C461.62 340.17 442.21 341.98 429.4 351.9C418.3 360.51 413.21 374.6 415.05 391.53C419.52 430.71 443.46 462.79 468.36 463.04Z" fill="#A7CEFC" fill-opacity="1.000000" fill-rule="nonzero"/>
		<path id="Vector" d="M521.55 395.8C523.18 401.86 523.11 408.16 520.96 414.24C513.93 434.53 491.4 449.17 470.78 446.91C450.23 444.59 433.22 421.24 432.88 394.79C432.71 382.58 437.57 372.33 446.48 365.95C456.29 358.93 470.12 357.46 484.35 361.91C503.91 368.06 517.66 381.28 521.55 395.8ZM515.67 412.65C521.74 395.15 506.9 374.7 482.53 367.04C470.07 363.15 458.09 364.3 449.79 370.26C442.39 375.56 438.37 384.21 438.5 394.62C438.83 418.49 453.65 439.55 471.55 441.54C489.67 443.53 509.45 430.57 515.67 412.65Z" fill="#A7CEFC" fill-opacity="1.000000" fill-rule="nonzero"/>
		<path id="Vector" d="M501.2 399.28C502.09 402.57 502.15 405.99 501.25 409.37C498.19 420.94 486.06 428.54 474.16 426.27C462.4 424.04 453.72 411.61 454.83 398.63C455.36 392.38 458.35 387.11 463.33 383.84C468.56 380.37 475.52 379.5 482.4 381.48C492.12 384.34 499.06 391.29 501.2 399.28ZM461.14 406.57C463.09 413.84 468.58 419.72 475.41 421.03C484.36 422.71 493.53 416.99 495.81 408.21C498.15 399.45 491.33 389.8 480.65 386.72C475.34 385.18 470.32 385.75 466.42 388.34C462.91 390.66 460.77 394.46 460.38 399.04C460.22 401.62 460.5 404.17 461.14 406.57Z" fill="#A7CEFC" fill-opacity="1.000000" fill-rule="nonzero"/>
	</g>
</svg>
