<svg width="2041.062500" height="700.401855" viewBox="0 0 2041.06 700.402" fill="none" xmlns="http://www.w3.org/2000/svg" xmlns:xlink="http://www.w3.org/1999/xlink">
	<desc>
			Created with Pixso.
	</desc>
	<defs/>
	<g opacity="0.300000">
		<path id="Vector" d="M780.98 700.4C773.69 700.4 766.59 699.83 759.77 698.68C745.47 696.29 732.26 691.37 720.5 684.06C707.87 676.21 696.78 665.52 687.56 652.27C669.02 625.65 659.74 593.77 650.77 562.93C649.01 556.88 647.19 550.62 645.34 544.54C632.71 503.14 616.71 466.88 596.42 433.68C555.94 367.45 499.02 310.92 431.8 270.22C354.06 223.14 270.47 199.7 196.44 204.19C152.93 206.84 95.44 231.98 69.74 274.91C54.49 300.39 53.26 328.67 66.19 356.68L65.93 356.8C59.16 342.11 56.2 327.38 57.16 313.02C58.04 299.85 62.19 286.98 69.5 274.76C81.13 255.33 100.31 238.1 124.97 224.95C147.75 212.79 173.13 205.32 196.42 203.91C235.17 201.56 276.37 206.77 318.9 219.42C357.44 230.88 395.48 247.89 431.94 269.97C499.21 310.7 556.16 367.25 596.66 433.52C616.97 466.75 632.98 503.03 645.61 544.46C647.46 550.53 649.28 556.79 651.04 562.85C660.01 593.66 669.28 625.52 687.79 652.1C705.7 677.81 729.93 693.39 759.82 698.4C801.22 705.33 851.48 690.83 894.28 659.6C955.96 614.6 998.76 549.1 1040.16 485.76C1047.42 474.65 1054.92 463.17 1062.35 452.09C1081.64 423.3 1107.75 386 1138.79 352.77C1170.52 318.8 1202.76 293.84 1237.36 276.47C1258.53 265.83 1280.98 258.67 1304.06 255.17C1325.38 251.94 1347.95 251.74 1371.14 254.57C1410.92 259.43 1453.78 273.15 1502.16 296.51C1597.43 342.51 1692.59 398.35 1785.01 462.47C1872.85 523.42 1959 592.39 2041.06 667.46L2040.87 667.66C1870.75 512.06 1689.46 387.27 1502.04 296.76C1396.15 245.63 1312.08 239.26 1237.48 276.72C1161.59 314.82 1108.56 383.6 1062.59 452.24C1055.16 463.33 1047.66 474.81 1040.4 485.91C998.99 549.27 956.17 614.79 894.45 659.83C874.51 674.38 852.07 685.73 829.57 692.65C817.68 696.3 805.86 698.69 794.44 699.75C789.89 700.19 785.4 700.4 780.98 700.4Z" fill="#A1A1A1" fill-opacity="1.000000" fill-rule="nonzero"/>
		<path id="Vector" d="M788.11 684.61C769.52 684.61 752.3 681.07 736.91 674.09C719.75 666.31 704.94 654.24 692.89 638.24C691.82 636.82 690.77 635.35 689.74 633.88C671.4 607.37 661.72 575.9 652.35 545.47C650.45 539.32 648.5 532.96 646.51 526.78C634.69 490.03 620.45 457.63 602.98 427.75C600.83 424.07 598.6 420.39 596.35 416.8C555.28 351.13 497.89 295.33 430.39 255.41C352.09 209.14 268.27 186.66 194.37 192.11C151.17 195.33 93.95 220.88 68.14 263.49C52.69 289 50.94 317.33 63.08 345.43L62.82 345.54C56.46 330.82 53.84 316.06 55.05 301.69C56.16 288.49 60.48 275.59 67.9 263.34C79.65 243.94 98.77 226.7 123.2 213.47C145.77 201.25 171.04 193.57 194.34 191.83C233.04 188.97 274.29 193.69 316.95 205.85C355.59 216.87 393.8 233.46 430.53 255.16C498.07 295.11 555.49 350.95 596.59 416.65C598.83 420.24 601.06 423.93 603.22 427.61C620.7 457.51 634.95 489.92 646.78 526.7C648.77 532.87 650.72 539.23 652.62 545.39C661.98 575.8 671.66 607.25 689.98 633.71C690.99 635.19 692.05 636.65 693.11 638.07C718.01 671.15 752.22 684.61 788.19 684.61C788.39 684.61 788.59 684.61 788.78 684.61C788.56 684.61 788.33 684.61 788.11 684.61ZM795.78 684.41C829.22 682.7 863.73 669.85 893.34 650.74C957.2 609.36 1003.11 545.43 1047.5 483.62C1049.31 481.07 1051.15 478.53 1052.98 475.98C1056.99 470.4 1061.75 463.8 1066.6 457.14C1088.39 427.27 1114.76 392.51 1145.12 361.23C1177.43 327.94 1209.69 303.24 1243.79 285.71C1264.74 274.96 1286.87 267.38 1309.57 263.19C1330.63 259.31 1352.86 258.21 1375.67 259.93C1415.07 262.89 1457.43 274.15 1505.18 294.33C1551.74 313.97 1590.01 332.47 1625.62 352.53C1676.07 380.98 1724.12 413.75 1764.47 442.06C1858.29 508.06 1950.34 583.01 2038.07 664.82L2037.88 665.02C1950.16 583.22 1858.12 508.28 1764.31 442.29C1723.96 413.98 1675.92 381.21 1625.48 352.78C1589.88 332.72 1551.62 314.23 1505.08 294.59C1401.06 250.63 1318.07 247.88 1243.92 285.97C1166.97 325.54 1112.16 395.16 1066.82 457.31C1061.97 463.97 1057.22 470.57 1053.21 476.15C1051.38 478.69 1049.55 481.24 1047.72 483.79C1003.32 545.62 957.4 609.57 893.49 650.99C877.65 661.21 860.78 669.34 843.37 675.13C827.17 680.51 811.19 683.63 795.78 684.41Z" fill="#A1A1A1" fill-opacity="1.000000" fill-rule="nonzero"/>
		<path id="Vector" d="M795.96 669.18C793.73 669.18 791.51 669.14 789.3 669.04C770.73 668.22 753.54 663.96 738.21 656.37C721.45 648.08 706.93 635.79 695.06 619.85C694 618.43 692.95 616.96 691.93 615.49C673.8 589.11 663.71 558.06 653.95 528.04C651.92 521.78 649.82 515.31 647.68 509.03C635.27 472.4 620.66 440.26 603 410.78C600.82 407.14 598.55 403.48 596.27 399.92C554.6 334.83 496.75 279.74 428.98 240.6C350.12 195.14 266.06 173.62 192.29 180.04C150.76 183.7 93.7 207.8 66.57 252.03C50.89 277.58 48.61 305.99 59.97 334.19L59.7 334.29C53.75 319.52 51.48 304.73 52.95 290.33C54.3 277.09 58.8 264.15 66.33 251.88C78.2 232.53 97.26 215.28 121.45 201.99C143.82 189.71 168.97 181.82 192.27 179.76C230.92 176.4 272.21 180.62 315 192.29C353.74 202.86 392.13 219.03 429.12 240.36C496.93 279.52 554.82 334.64 596.51 399.77C598.79 403.34 601.05 406.99 603.24 410.64C620.91 440.14 635.53 472.29 647.95 508.94C650.08 515.23 652.18 521.7 654.21 527.96C663.97 557.96 674.05 588.99 692.16 615.33C693.18 616.81 694.22 618.28 695.28 619.69C743.53 684.46 829.05 677.5 892.4 641.89C958.92 604.15 1008.37 541.42 1056.18 480.76L1056.67 480.14C1061.3 474.26 1066.09 468.18 1070.86 462.18C1121.15 398.87 1176.43 333.81 1250.23 294.96C1270.94 284.07 1292.78 276.08 1315.11 271.2C1335.88 266.66 1357.78 264.67 1380.2 265.28C1419.28 266.34 1461.16 275.13 1508.21 292.14C1557.67 309.97 1594.88 326.35 1628.88 345.27C1677.33 372.27 1724.25 406.4 1765.65 436.51C1857.83 503.9 1948.48 579.83 2035.08 662.17L2034.88 662.37C1948.29 580.04 1857.65 504.12 1765.48 436.73C1724.09 406.63 1677.17 372.51 1628.75 345.51C1594.76 326.6 1557.56 310.22 1508.12 292.41C1406.12 255.52 1324.21 256.4 1250.36 295.2C1176.61 334.03 1121.35 399.07 1071.07 462.35C1066.31 468.35 1061.52 474.43 1056.89 480.31L1056.4 480.93C1032.56 511.16 1007.94 542.42 981.33 570.34C951.43 601.71 922.38 625.19 892.53 642.12C861.3 659.68 827.28 669.18 795.96 669.18Z" fill="#A1A1A1" fill-opacity="1.000000" fill-rule="nonzero"/>
		<path id="Vector" d="M2031.9 659.71C1946.43 576.85 1857.19 499.96 1766.66 431.17C1762.83 428.28 1758.99 425.38 1755.13 422.46C1715.92 392.8 1675.38 362.14 1632.02 338.24C1589.96 315.13 1547.33 301 1511.17 290.22C1411.38 260.29 1330.55 264.81 1256.81 304.44C1181.12 345.23 1122.46 412.97 1075.34 467.4C1072.51 470.67 1069.68 473.94 1066.86 477.21C1064.77 479.63 1062.68 482.05 1060.59 484.47C1033.76 515.49 1009.35 543.22 982.37 568.53C951.56 597.45 921.87 618.62 891.58 633.27C863.2 647 832.88 654.26 804.68 654.26C799.54 654.26 794.48 654.03 789.5 653.54C771.34 651.76 754.53 646.76 739.53 638.68C723.16 629.87 708.93 617.35 697.22 601.47C696.17 600.04 695.13 598.57 694.12 597.09C676.2 570.85 665.71 540.24 655.58 510.64C653.4 504.27 651.14 497.67 648.85 491.27C635.85 454.75 620.86 422.87 603.03 393.81C600.81 390.19 598.51 386.57 596.19 383.04C553.93 318.52 495.62 264.14 427.57 225.79C348.15 181.12 263.86 160.58 190.22 167.95C139.88 173.08 88.4 202.92 65.03 240.51C49.11 266.11 46.29 294.61 56.86 322.92L56.6 323.02C51.06 308.2 49.13 293.36 50.86 278.93C52.46 265.64 57.14 252.66 64.79 240.36C76.79 221.06 95.79 203.81 119.74 190.47C141.89 178.14 166.91 170.04 190.19 167.67C228.8 163.81 270.14 167.52 313.06 178.71C351.89 188.84 390.46 204.59 427.71 225.54C495.8 263.92 554.14 318.32 596.43 382.88C598.75 386.42 601.05 390.04 603.27 393.66C621.11 422.74 636.11 454.64 649.12 491.17C651.4 497.57 653.66 504.17 655.85 510.55C665.98 540.13 676.45 570.72 694.35 596.93C695.36 598.41 696.4 599.88 697.45 601.3C747.82 669.6 833.45 661.07 891.46 633.01C960.68 599.53 1013.65 538.3 1060.38 484.28C1062.47 481.86 1064.55 479.44 1066.64 477.03C1069.47 473.75 1072.3 470.48 1075.12 467.21C1102.03 436.15 1128.59 405.95 1157.8 378.13C1191.38 346.14 1223.73 321.95 1256.68 304.19C1277.18 293.17 1298.71 284.76 1320.65 279.2C1341.16 274 1362.72 271.11 1384.74 270.62C1423.58 269.74 1464.96 276.07 1511.26 289.95C1547.42 300.73 1590.07 314.87 1632.16 338C1675.53 361.9 1716.09 392.57 1755.31 422.24C1759.16 425.15 1763 428.06 1766.84 430.95C1857.37 499.74 1946.62 576.64 2032.1 659.51L2031.9 659.71Z" fill="#A1A1A1" fill-opacity="1.000000" fill-rule="nonzero"/>
		<path id="Vector" d="M2028.91 657.06C1942.95 572.08 1855.12 494.21 1767.84 425.62C1762.62 421.51 1757.28 417.28 1752.11 413.19C1715.11 383.9 1676.84 353.61 1635.29 330.98C1593.79 308.46 1550.8 296.63 1514.22 288.03C1416.85 264.93 1337.11 273.08 1263.26 313.67C1192.81 352.53 1137.64 410.97 1084.28 467.48L1078.42 473.68C1073.79 478.59 1069 483.65 1064.28 488.62C1010.86 544.81 957.38 597.47 890.63 624.41C874.43 630.94 857.79 635.47 841.18 637.88C823.35 640.46 806.02 640.49 789.68 637.98C771.94 635.26 755.51 629.53 740.84 620.97C724.88 611.65 710.93 598.9 699.39 583.08C698.35 581.65 697.31 580.17 696.31 578.7C678.61 552.61 667.75 522.45 657.24 493.28C654.9 486.78 652.48 480.04 650.03 473.51C636.42 437.1 621.06 405.48 603.06 376.83C600.81 373.25 598.47 369.66 596.12 366.15C553.26 302.21 494.49 248.55 426.17 210.97C346.19 167.12 261.66 147.55 188.15 155.87C138.26 161.63 87.02 191.68 63.53 228.94C47.35 254.61 43.96 283.22 53.75 311.68L53.48 311.77C48.36 296.88 46.78 281.99 48.78 267.51C50.62 254.17 55.5 241.14 63.29 228.79C75.41 209.56 94.35 192.32 118.04 178.95C139.97 166.57 164.86 158.28 188.11 155.59C226.67 151.23 268.05 154.44 311.11 165.15C350.03 174.83 388.79 190.16 426.3 210.73C494.67 248.33 553.47 302.02 596.35 366C598.7 369.51 601.04 373.1 603.29 376.68C621.3 405.35 636.68 436.99 650.29 473.41C652.74 479.95 655.16 486.68 657.5 493.19C668 522.34 678.86 552.48 696.54 578.54C697.54 580.01 698.57 581.48 699.61 582.91C748.77 650.27 830.46 648.38 890.52 624.15C957.22 597.23 1010.68 544.59 1064.06 488.43C1068.79 483.46 1073.57 478.4 1078.21 473.49L1084.06 467.29C1110.26 439.55 1137.35 410.86 1166.76 384.18C1200.07 353.96 1231.6 330.81 1263.12 313.42C1283.41 302.27 1304.63 293.44 1326.17 287.2C1346.43 281.33 1367.66 277.55 1389.27 275.96C1427.93 273.11 1468.82 276.97 1514.28 287.76C1550.88 296.36 1593.89 308.19 1635.42 330.73C1677 353.37 1715.27 383.67 1752.28 412.97C1757.45 417.06 1762.79 421.29 1768.01 425.39C1855.3 494 1943.14 571.87 2029.1 656.85L2028.91 657.06Z" fill="#A1A1A1" fill-opacity="1.000000" fill-rule="nonzero"/>
		<path id="Vector" d="M2025.92 654.4C1940.7 568.48 1854.27 489.64 1769.02 420.06C1762.61 414.83 1756.04 409.39 1749.69 404.14C1714.68 375.16 1678.48 345.2 1638.55 323.72C1597.25 301.58 1554.07 292.16 1517.27 285.85C1422.6 269.39 1343.93 281.17 1269.69 322.91C1204.92 359.49 1151.74 411.34 1100.3 461.48C1094.89 466.76 1089.29 472.21 1083.84 477.5C1077.43 483.7 1072.54 488.42 1067.97 492.78C1043.52 516.14 1014.41 543.03 983.85 565.4C951.47 589.1 920.66 605.51 889.67 615.55C873.37 620.83 856.81 624.17 840.44 625.45C822.86 626.83 805.84 625.82 789.86 622.43C772.54 618.77 756.49 612.31 742.15 603.26C726.6 593.44 712.94 580.46 701.55 564.69C700.53 563.26 699.5 561.78 698.5 560.3C681.03 534.39 669.81 504.7 658.95 475.98C656.43 469.32 653.83 462.44 651.2 455.75C636.99 419.44 621.25 388.08 603.08 359.86C600.8 356.31 598.43 352.75 596.05 349.27C552.59 285.9 493.36 232.96 424.76 196.16C344.22 153.11 259.46 134.51 186.07 143.78C144.32 149.17 89.78 174 62.07 217.31C45.59 243.06 41.64 271.8 50.64 300.42L50.37 300.5C45.66 285.54 44.43 270.58 46.71 256.05C48.82 242.64 53.9 229.55 61.83 217.16C74.09 198 92.95 180.8 116.38 167.4C138.09 154.98 162.83 146.5 186.04 143.5C224.55 138.64 265.98 141.35 309.17 151.57C348.18 160.81 387.12 175.72 424.89 195.91C493.53 232.73 552.8 285.7 596.28 349.11C598.66 352.59 601.03 356.15 603.32 359.71C621.49 387.94 637.24 419.32 651.46 455.64C654.09 462.33 656.69 469.22 659.21 475.88C670.06 504.58 681.28 534.26 698.73 560.14C699.73 561.62 700.75 563.1 701.78 564.52C742.68 621.16 812.89 640.14 889.58 615.28C959.04 592.77 1015.7 542.32 1067.78 492.57C1072.35 488.21 1077.24 483.49 1083.64 477.29C1089.1 472 1094.68 466.55 1100.1 461.27C1125.43 436.59 1151.61 411.06 1179.54 387.16C1211.12 360.14 1240.56 339.04 1269.56 322.66C1289.67 311.36 1310.56 302.12 1331.71 295.21C1351.73 288.66 1372.62 283.98 1393.8 281.3C1432.37 276.43 1472.78 277.82 1517.32 285.57C1554.13 291.88 1597.35 301.31 1638.69 323.46C1678.64 344.95 1714.85 374.93 1749.87 403.91C1756.22 409.17 1762.79 414.6 1769.19 419.83C1854.45 489.42 1940.89 568.27 2026.12 654.19L2025.92 654.4Z" fill="#A1A1A1" fill-opacity="1.000000" fill-rule="nonzero"/>
		<path id="Vector" d="M2022.93 651.74C1938.45 564.88 1853.42 485.06 1770.19 414.5C1763.11 408.5 1755.84 402.2 1748.8 396.11C1715.3 367.09 1680.66 337.09 1641.82 316.45C1600.49 294.58 1557.2 287.61 1520.32 283.67C1429.94 273.75 1350.07 289.61 1276.15 332.14C1217.29 366.17 1166.82 411.68 1118.04 455.7C1108.18 464.59 1097.99 473.78 1088.09 482.54C1082.02 487.91 1076.66 492.62 1071.66 496.94C1048.44 517.03 1017.57 542.78 984.57 563.83C951.42 584.98 920.06 599 888.71 606.7C854.51 615.09 820.39 615.15 790.02 606.88C773.14 602.28 757.47 595.1 743.45 585.55C728.31 575.23 714.95 562.03 703.71 546.31C702.69 544.88 701.67 543.4 700.68 541.92C683.46 516.21 671.89 487 660.7 458.75C657.99 451.92 655.19 444.86 652.37 438C637.53 401.79 621.41 370.68 603.1 342.89C600.78 339.37 598.39 335.85 595.97 332.4C551.92 269.6 492.23 217.37 423.35 181.36C342.26 139.12 257.25 121.49 184 131.71C134.35 138.78 84.78 168.49 60.65 205.63C43.86 231.48 39.32 260.37 47.53 289.18L47.26 289.25C42.97 274.2 42.09 259.16 44.66 244.57C47.03 231.08 52.33 217.93 60.41 205.48C72.8 186.41 91.59 169.25 114.75 155.84C136.23 143.4 160.81 134.73 183.96 131.43C222.43 126.06 263.9 128.28 307.22 138.01C346.33 146.8 385.45 161.3 423.48 181.11C492.4 217.14 552.12 269.4 596.2 332.24C598.62 335.68 601.02 339.21 603.34 342.73C621.66 370.54 637.78 401.66 652.63 437.89C655.45 444.75 658.25 451.82 660.96 458.65C672.14 486.88 683.71 516.07 700.91 541.76C701.9 543.24 702.92 544.71 703.94 546.15C744.14 602.42 813.19 624.95 888.64 606.42C957.43 589.53 1017.17 543.72 1071.48 496.73C1076.47 492.41 1081.84 487.7 1087.9 482.34C1097.8 473.57 1107.99 464.38 1117.85 455.49C1166.65 411.47 1217.12 365.94 1276 331.91C1295.93 320.44 1316.53 310.79 1337.23 303.22C1357.04 295.98 1377.6 290.41 1398.33 286.66C1436.89 279.68 1476.8 278.61 1520.34 283.39C1557.26 287.33 1600.57 294.31 1641.95 316.2C1680.82 336.86 1715.47 366.87 1748.99 395.9C1756.02 401.99 1763.29 408.29 1770.37 414.29C1853.61 484.85 1938.65 564.68 2023.13 651.55L2022.93 651.74Z" fill="#A1A1A1" fill-opacity="1.000000" fill-rule="nonzero"/>
		<path id="Vector" d="M2019.94 649.09C1936.21 561.26 1852.58 480.47 1771.36 408.95C1763.9 402.37 1756.22 395.41 1748.8 388.68C1716.52 359.42 1683.14 329.16 1645.08 309.19C1603.58 287.5 1560.26 283.01 1523.36 281.48C1436.4 277.6 1357.64 297.2 1282.59 341.38C1229.96 372.52 1183.04 411.92 1137.66 450.03C1122.06 463.13 1107.31 475.51 1092.32 487.59C1086.24 492.51 1080.68 496.93 1075.35 501.1C1040.96 527.98 1012.35 547.41 985.3 562.25C951.37 580.87 919.46 592.52 887.75 597.84C875.45 599.9 863.2 600.93 851.16 600.93C829.83 600.93 809.19 597.7 790.19 591.32C755.8 579.76 727.43 558.43 705.88 527.92C704.86 526.48 703.85 525 702.87 523.52C685.91 498.03 674.01 469.34 662.51 441.59C659.59 434.56 656.58 427.3 653.54 420.23C638.07 384.11 621.58 353.26 603.13 325.91C600.78 322.43 598.34 318.93 595.89 315.52C551.25 253.29 491.09 201.77 421.94 166.55C340.29 125.12 255.06 108.46 181.93 119.62C132.07 127.39 83.93 156.54 59.29 193.88C42.16 219.83 37.02 248.89 44.42 277.92L44.15 277.99C40.28 262.83 39.77 247.7 42.63 233.03C45.27 219.45 50.8 206.23 59.05 193.72C71.57 174.76 90.28 157.65 113.15 144.24C134.4 131.78 158.81 122.94 181.88 119.34C220.31 113.48 261.82 115.19 305.27 124.44C344.48 132.78 383.78 146.87 422.07 166.29C491.26 201.54 551.45 253.09 596.13 315.35C598.58 318.77 601.01 322.26 603.37 325.75C621.82 353.11 638.32 383.98 653.8 420.12C656.84 427.18 659.85 434.45 662.77 441.48C674.27 469.21 686.16 497.89 703.1 523.36C704.08 524.83 705.09 526.31 706.11 527.76C746.36 584.73 812.55 610.17 887.71 597.56C959.25 585.55 1022.62 541.95 1075.18 500.87C1080.51 496.7 1086.06 492.29 1092.16 487.37C1107.14 475.29 1121.88 462.91 1137.48 449.81C1182.86 411.69 1229.8 372.28 1282.44 341.14C1302.22 329.49 1322.51 319.43 1342.77 311.22C1362.39 303.28 1382.61 296.81 1402.87 292C1441.5 282.84 1480.92 279.3 1523.37 281.2C1560.3 282.73 1603.66 287.23 1645.21 308.93C1683.31 328.92 1716.7 359.2 1748.99 388.47C1756.41 395.2 1764.09 402.16 1771.55 408.73C1852.77 480.26 1936.41 561.06 2020.14 648.89L2019.94 649.09Z" fill="#A1A1A1" fill-opacity="1.000000" fill-rule="nonzero"/>
		<path id="Vector" d="M2016.95 646.43C1932.81 556.39 1852.86 476.89 1772.54 403.39C1764.88 396.37 1757.33 389.21 1749.34 381.63C1718.12 351.99 1685.82 321.34 1648.35 301.92C1606.32 280.25 1561.11 278.45 1526.41 279.3C1443.41 281.07 1365.76 304.4 1289.04 350.62C1243 378.49 1200.5 411.96 1159.4 444.32C1137.79 461.33 1117.39 477.4 1096.57 492.64C1090.41 497.17 1084.67 501.3 1079.04 505.26C1044.18 529.77 1014.63 547.38 986.02 560.67C951.31 576.8 918.85 586.06 886.8 588.98C870.33 590.47 853.97 590.19 838.18 588.14C821.46 585.97 805.37 581.8 790.35 575.75C757.06 562.35 729.37 540.07 708.04 509.54C707.04 508.09 706.03 506.61 705.06 505.13C688.39 479.9 676.19 451.76 664.39 424.55C661.24 417.29 657.99 409.78 654.71 402.48C638.59 366.43 621.73 335.84 603.16 308.95C600.77 305.49 598.3 302.02 595.82 298.64C550.58 236.99 489.97 186.19 420.54 151.74C356.45 120.08 290.36 103.56 229.76 103.56C212.63 103.56 195.95 104.88 179.86 107.55C130.61 115.88 82.77 145.13 57.98 182.06C40.48 208.14 34.72 237.39 41.32 266.67L41.04 266.73C37.6 251.46 37.45 236.23 40.61 221.47C43.54 207.79 49.3 194.48 57.74 181.91C70.39 163.06 89.01 146.02 111.59 132.63C132.91 119.98 156.5 111.21 179.81 107.27C218.19 100.9 259.75 102.11 303.33 110.87C342.63 118.77 382.11 132.43 420.66 151.48C490.13 185.95 550.78 236.78 596.05 298.47C598.53 301.85 601 305.32 603.39 308.78C621.97 335.69 638.84 366.3 654.98 402.36C658.25 409.66 661.51 417.16 664.65 424.43C676.44 451.63 688.64 479.76 705.3 504.97C706.27 506.44 707.27 507.93 708.28 509.37C748.16 566.47 813.22 595.38 886.77 588.69C961.2 581.93 1028.54 540.42 1078.89 505.02C1084.51 501.06 1090.25 496.94 1096.42 492.41C1117.23 477.17 1137.63 461.1 1159.23 444.09C1200.34 411.72 1242.84 378.25 1288.9 350.37C1328.4 326.57 1367.16 309.23 1407.4 297.35C1446.22 285.89 1485.14 279.89 1526.41 279.01C1549.95 278.43 1569.16 279.43 1586.86 282.16C1609.71 285.69 1629.87 292.07 1648.49 301.67C1685.99 321.1 1718.3 351.77 1749.54 381.42C1757.53 389 1765.08 396.16 1772.74 403.18C1853.06 476.68 1933.01 556.19 2017.16 646.24L2016.95 646.43Z" fill="#A1A1A1" fill-opacity="1.000000" fill-rule="nonzero"/>
		<path id="Vector" d="M2013.96 643.78C1930.59 552.75 1852 472.3 1773.71 397.83C1765.97 390.46 1758.33 382.87 1750.25 374.83C1719.95 344.72 1688.63 313.59 1651.62 294.66C1609.24 273.08 1564.08 273.95 1529.46 277.11C1451.13 284.01 1374.59 311.08 1295.48 359.85C1256.5 384 1219.39 411.63 1183.49 438.36C1155.12 459.49 1128.31 479.44 1100.82 497.68C1094.62 501.81 1088.53 505.76 1082.73 509.41C1047.81 531.4 1016.41 547.65 986.74 559.07C951.23 572.75 918.22 579.63 885.84 580.11C869.36 580.35 853.07 578.86 837.42 575.68C821.02 572.34 805.24 567.13 790.51 560.17C758.37 544.99 731.35 521.76 710.21 491.14C709.22 489.7 708.22 488.21 707.24 486.73C690.88 461.81 678.42 434.26 666.37 407.62C662.96 400.08 659.43 392.29 655.89 384.71C639.1 348.73 621.86 318.4 603.18 291.96C600.76 288.54 598.26 285.1 595.75 281.75C549.91 220.67 488.83 170.59 419.13 136.92C336.37 97.12 250.66 82.39 177.78 95.46C129.17 104.32 81.65 133.65 56.72 170.16C38.83 196.37 32.43 225.85 38.2 255.41L37.93 255.47C34.91 240.06 35.15 224.71 38.62 209.85C41.84 196.06 47.85 182.65 56.49 170C69.26 151.29 87.78 134.34 110.06 120.97C131.13 108.33 154.53 99.41 177.73 95.18C216.07 88.31 257.67 89.02 301.38 97.29C340.78 104.75 380.44 118 419.25 136.66C489 170.35 550.11 220.46 595.97 281.58C598.48 284.93 600.99 288.37 603.41 291.8C622.1 318.25 639.35 348.59 656.14 384.58C659.69 392.16 663.21 399.96 666.63 407.5C678.67 434.13 691.13 461.66 707.48 486.57C708.45 488.05 709.45 489.53 710.44 490.98C750.74 549.35 813.03 580.9 885.83 579.82C944.9 578.95 1007.42 556.5 1082.57 509.16C1088.37 505.51 1094.46 501.57 1100.67 497.44C1128.16 479.2 1154.94 459.25 1183.31 438.13C1219.22 411.4 1256.34 383.76 1295.32 359.6C1335.22 335.01 1373.36 316.4 1411.93 302.69C1451.01 288.8 1489.44 280.34 1529.44 276.82C1564.09 273.65 1609.31 272.79 1651.75 294.4C1688.8 313.35 1720.14 344.5 1750.45 374.62C1758.53 382.66 1766.17 390.25 1773.91 397.61C1852.2 472.09 1930.79 552.55 2014.16 643.58L2013.96 643.78Z" fill="#A1A1A1" fill-opacity="1.000000" fill-rule="nonzero"/>
		<path id="Vector" d="M2010.97 641.12C1928.37 549.11 1851.16 467.71 1774.89 392.27C1767.15 384.61 1759.51 376.66 1751.42 368.23C1721.98 337.58 1691.54 305.89 1654.89 287.39C1612.11 265.9 1567.02 269.44 1532.51 274.92C1458.81 286.41 1385.54 316.33 1301.93 369.09C1270.56 388.97 1239.92 410.77 1210.28 431.86C1174.29 457.47 1140.29 481.66 1105.07 502.73C1098.74 506.53 1092.46 510.18 1086.42 513.57C1050.87 533.51 1018.5 547.87 987.47 557.48C970.09 562.86 952.93 566.76 936.47 569.06C918.92 571.52 901.56 572.26 884.88 571.25C851.04 569.2 819.35 560.23 790.68 544.59C759.73 527.71 733.38 503.54 712.38 472.76C711.39 471.3 710.4 469.81 709.43 468.34C693.42 443.78 680.74 416.89 668.47 390.88C664.76 383.01 660.92 374.87 657.06 366.95C639.6 331.03 621.99 300.96 603.21 274.99C600.75 271.6 598.22 268.19 595.67 264.87C549.24 204.36 487.71 154.99 417.72 122.11C334.41 83.13 248.47 69.37 175.71 83.38C97.81 98.61 21.9 164.41 35.1 244.16L34.82 244.21C31.52 224.26 33.45 204.6 40.57 185.79C47.06 168.6 57.73 152.43 72.26 137.72C85.77 124.04 101.98 112.24 120.44 102.62C137.99 93.48 157.08 86.73 175.65 83.1C213.95 75.73 255.59 75.94 299.44 83.73C338.93 90.75 378.77 103.57 417.84 121.86C487.86 154.76 549.44 204.16 595.9 264.7C598.44 268.02 600.98 271.43 603.44 274.83C622.22 300.8 639.85 330.9 657.32 366.83C661.18 374.75 665.01 382.89 668.73 390.76C680.99 416.76 693.67 443.64 709.67 468.18C710.64 469.66 711.62 471.15 712.61 472.6C752.98 531.76 814.16 566.69 884.9 570.97C944.78 574.59 1010.66 555.74 1086.29 513.32C1092.31 509.94 1098.6 506.29 1104.93 502.49C1140.13 481.43 1174.13 457.24 1210.12 431.63C1239.76 410.54 1270.41 388.73 1301.77 368.85C1385.43 316.07 1458.73 286.13 1532.47 274.64C1555.65 270.96 1574.85 269.78 1592.89 270.94C1615.94 272.42 1636.26 277.72 1655.01 287.14C1691.7 305.66 1722.16 337.37 1751.62 368.03C1759.71 376.46 1767.35 384.41 1775.09 392.07C1851.36 467.51 1928.58 548.91 2011.17 640.93L2010.97 641.12Z" fill="#A1A1A1" fill-opacity="1.000000" fill-rule="nonzero"/>
		<path id="Vector" d="M2007.98 638.47C1926.17 545.45 1850.31 463.1 1776.07 386.71C1768.39 378.81 1760.8 370.53 1752.76 361.76C1724.12 330.53 1694.5 298.23 1658.15 280.13C1614.45 258.45 1567.26 265.52 1535.56 272.73C1449.53 292.04 1372.44 336.94 1308.37 378.33C1285.35 393.26 1262.38 409.08 1240.17 424.37C1195.6 455.06 1153.52 484.05 1109.34 507.78C1102.84 511.27 1096.37 514.62 1090.12 517.73C1053.87 535.71 1020.53 548.19 988.2 555.88C951.55 564.6 916.47 566.79 883.93 562.39C850.5 557.87 819.18 546.64 790.86 529.01C761.15 510.52 735.47 485.41 714.55 454.37C713.57 452.92 712.59 451.43 711.63 449.94C696.01 425.84 683.17 399.69 670.75 374.39C666.68 366.1 662.47 357.53 658.24 349.19C639.84 312.82 622.36 283.86 603.24 258.02C600.75 254.66 598.18 251.28 595.6 248C548.57 188.06 486.57 139.41 416.31 107.3C332.45 69.13 246.27 56.35 173.64 71.3C95.45 87.6 21.1 152.51 31.99 232.92L31.71 232.95C29.01 213 31.34 193.37 38.65 174.59C45.35 157.39 56.08 141.2 70.54 126.48C84.02 112.74 100.14 100.85 118.47 91.11C135.92 81.85 154.97 74.9 173.58 71.02C211.83 63.14 253.52 62.86 297.49 70.16C337.08 76.73 377.1 89.14 416.43 107.05C486.73 139.17 548.77 187.84 595.82 247.82C598.4 251.11 600.97 254.49 603.46 257.85C622.59 283.7 640.08 312.68 658.49 349.07C662.72 357.41 666.93 365.98 671 374.27C683.42 399.55 696.26 425.7 711.86 449.79C712.82 451.27 713.8 452.76 714.78 454.22C755.45 514.55 815.54 552.87 883.96 562.11C945.33 570.4 1012.72 555.8 1089.99 517.47C1096.24 514.37 1102.71 511.02 1109.19 507.53C1153.37 483.8 1195.44 454.83 1240 424.14C1262.22 408.84 1285.18 393.02 1308.22 378.09C1351.3 350.26 1387.14 329.71 1421 313.39C1460.86 294.19 1498.31 280.8 1535.5 272.45C1558.16 267.3 1577.92 264.97 1595.9 265.32C1619.05 265.78 1639.45 270.54 1658.28 279.87C1694.68 298 1724.31 330.32 1752.96 361.57C1761 370.34 1768.59 378.62 1776.27 386.51C1850.52 462.9 1926.38 545.26 2008.19 638.28L2007.98 638.47Z" fill="#A1A1A1" fill-opacity="1.000000" fill-rule="nonzero"/>
		<path id="Vector" d="M2004.99 635.81C1923.97 541.78 1849.48 458.49 1777.25 381.15C1769.67 373.04 1762.17 364.48 1754.24 355.41C1726.36 323.54 1697.53 290.6 1661.42 272.86C1617.24 251.24 1570.17 261.18 1538.61 270.54C1460.67 293.46 1391.15 337.1 1314.82 387.56C1301.06 396.69 1287.13 406.12 1273.67 415.24C1221.88 450.32 1168.32 486.59 1113.59 512.82C1106.93 516.02 1100.28 519.06 1093.81 521.88C1057.31 537.76 1022.03 548.65 988.92 554.27C951.43 560.64 915.78 560.38 882.97 553.53C850 546.64 819.07 533.15 791.02 513.43C762.63 493.46 737.63 467.41 716.71 435.99C715.74 434.53 714.76 433.04 713.81 431.55C698.67 408.01 685.74 382.71 673.24 358.24C668.74 349.43 664.08 340.31 659.4 331.44C640.28 295.11 622.44 266.39 603.26 241.06C600.74 237.73 598.13 234.39 595.52 231.12C547.9 171.75 485.44 123.81 414.9 92.49C330.49 55.14 244.07 43.32 171.56 59.22C95.86 75.99 20.13 138.62 28.87 221.66L28.59 221.69C26.49 201.74 29.23 182.13 36.74 163.4C43.64 146.17 54.43 129.97 68.81 115.23C95.33 88.03 132.76 67.52 171.5 58.94C209.7 50.56 251.44 49.78 295.54 56.59C335.23 62.72 375.42 74.72 415.01 92.23C485.6 123.57 548.09 171.53 595.74 230.94C598.36 234.21 600.96 237.55 603.48 240.88C622.68 266.23 640.52 294.96 659.65 331.3C664.33 340.17 668.99 349.29 673.49 358.11C685.99 382.57 698.91 407.87 714.04 431.4C715 432.88 715.97 434.37 716.94 435.83C758.8 498.69 816.23 539.3 883.02 553.25C944.86 566.17 1015.74 555.53 1093.68 521.62C1100.16 518.8 1106.81 515.76 1113.46 512.57C1168.18 486.34 1221.72 450.08 1273.5 415.01C1286.97 405.89 1300.89 396.46 1314.66 387.33C1348.07 365.24 1386.94 339.9 1425.53 318.74C1465.89 296.62 1502.85 280.76 1538.52 270.27C1560.98 263.61 1580.74 260.15 1598.91 259.71C1621.83 259.15 1642.9 263.49 1661.54 272.61C1677.71 280.55 1693.99 292.41 1711.3 308.86C1726.59 323.39 1740.75 339.57 1754.44 355.22C1762.38 364.29 1769.87 372.85 1777.45 380.96C1849.68 458.3 1924.18 541.6 2005.2 635.63L2004.99 635.81Z" fill="#A1A1A1" fill-opacity="1.000000" fill-rule="nonzero"/>
		<path id="Vector" d="M2002 633.15C1921.77 538.11 1848.64 453.87 1778.42 375.6C1770.98 367.31 1763.62 358.48 1755.82 349.14C1728.66 316.62 1700.59 282.99 1664.69 265.6C1631.14 249.4 1590.9 250.3 1541.66 268.35C1472.81 293.45 1411.27 335.44 1346.11 379.89C1338 385.43 1329.61 391.15 1321.27 396.8C1318 399.02 1314.73 401.24 1311.46 403.47C1249.37 445.66 1185.18 489.29 1117.84 517.88C1111.03 520.77 1104.18 523.52 1097.5 526.04C1060.21 540.12 1023.92 549.07 989.66 552.66C951.3 556.68 915.08 553.99 882.02 544.67C849.57 535.52 819.01 519.76 791.2 497.84C764.25 476.59 739.92 449.6 718.88 417.61C717.92 416.14 716.95 414.65 716 413.16C701.44 390.36 688.56 366.08 676.09 342.6C671.05 333.09 665.83 323.25 660.58 313.68C640.73 277.37 622.52 248.9 603.3 224.08C600.74 220.78 598.1 217.47 595.45 214.24C547.23 155.44 484.31 108.22 413.49 77.68C328.54 41.15 241.88 30.3 169.49 47.13C95.18 64.56 19.55 127.7 25.77 210.41L25.48 210.44C23.99 190.49 27.13 170.9 34.83 152.21C41.93 134.97 52.78 118.74 67.08 103.99C93.5 76.74 130.8 55.92 169.42 46.86C207.59 37.99 249.36 36.7 293.6 43.03C333.38 48.72 373.76 60.29 413.61 77.42C484.47 107.98 547.42 155.23 595.66 214.06C598.32 217.29 600.96 220.61 603.51 223.9C622.75 248.74 640.96 277.22 660.83 313.54C666.07 323.11 671.29 332.95 676.34 342.46C688.79 365.93 701.68 390.21 716.24 413C717.19 414.49 718.15 415.98 719.11 417.45C761.89 482.49 818.24 526.39 882.09 544.39C945.12 562.17 1017.56 555.9 1097.4 525.77C1104.07 523.25 1110.92 520.5 1117.72 517.61C1185.04 489.04 1249.23 445.41 1311.3 403.23C1314.57 401 1317.84 398.78 1321.1 396.56C1329.45 390.91 1337.84 385.19 1345.95 379.66C1411.12 335.19 1472.68 293.2 1541.56 268.09C1563.8 259.93 1583.55 255.35 1601.93 254.09C1624.94 252.52 1646.09 256.3 1664.81 265.34C1680.89 273.13 1696.96 285.04 1713.95 301.76C1728.94 316.51 1742.72 333.01 1756.04 348.96C1763.83 358.3 1771.2 367.12 1778.63 375.41C1848.86 453.68 1921.99 537.93 2002.21 632.97L2002 633.15Z" fill="#A1A1A1" fill-opacity="1.000000" fill-rule="nonzero"/>
		<path id="Vector" d="M1999.01 630.5C1925.79 541.94 1851.97 454.3 1779.6 370.04C1772.23 361.51 1764.93 352.35 1757.2 342.65C1732.05 311.09 1703.56 275.33 1667.95 258.33C1634.02 242.16 1593.7 244.73 1544.7 266.16C1486.45 291.57 1434.89 328.93 1380.31 368.48C1363.21 380.87 1345.54 393.68 1327.71 406.04C1296.59 427.65 1262.92 450.53 1227.63 471.36C1189.84 493.67 1155.31 510.54 1122.07 522.92C1115.1 525.52 1108.06 527.97 1101.18 530.2C1063.1 542.49 1025.82 549.49 990.41 551C951.2 552.66 914.41 547.55 881.05 535.81C819.45 513.84 765.62 467.89 721.04 399.22C720.09 397.75 719.13 396.26 718.18 394.77C704.36 372.98 691.7 349.98 679.46 327.75C673.7 317.28 667.74 306.46 661.75 295.92C641.13 259.63 622.57 231.41 603.32 207.11C600.72 203.84 598.05 200.56 595.37 197.37C546.56 139.13 483.18 92.63 412.09 62.87C326.58 27.16 239.69 17.28 167.42 35.05C92.66 53.54 18.93 115.85 22.66 199.16L22.37 199.18C21.48 179.22 25.03 159.65 32.92 141.01C40.23 123.75 51.14 107.51 65.36 92.74C78.75 78.83 94.63 66.67 112.55 56.59C129.94 46.81 148.38 39.47 167.34 34.78C205.46 25.41 247.29 23.61 291.65 29.46C331.53 34.71 372.09 45.86 412.19 62.61C483.33 92.38 546.75 138.91 595.59 197.18C598.27 200.38 600.94 203.66 603.54 206.93C622.8 231.24 641.37 259.47 662 295.78C667.99 306.31 673.94 317.14 679.71 327.61C691.95 349.84 704.6 372.83 718.42 394.61C719.36 396.1 720.32 397.6 721.27 399.07C765.82 467.68 819.61 513.6 881.14 535.54C944.53 557.86 1020.59 555.92 1101.1 529.93C1107.97 527.7 1115 525.26 1121.98 522.66C1196.29 494.97 1264.28 449.75 1327.54 405.8C1345.37 393.45 1363.05 380.64 1380.14 368.25C1434.74 328.69 1486.3 291.32 1544.59 265.9C1593.66 244.43 1634.06 241.87 1668.07 258.08C1684.02 265.69 1699.85 277.63 1716.47 294.56C1731.13 309.49 1744.49 326.26 1757.42 342.47C1765.15 352.17 1772.44 361.33 1779.81 369.85C1852.18 454.12 1926 541.75 1999.22 630.32L1999.01 630.5Z" fill="#A1A1A1" fill-opacity="1.000000" fill-rule="nonzero"/>
		<path id="Vector" d="M1996.02 627.84C1923.92 538.79 1851.5 450.18 1780.77 364.48C1773.63 355.86 1766.55 346.53 1759.05 336.66C1734.53 304.37 1706.73 267.78 1671.22 251.06C1636.88 234.92 1596.49 239.14 1547.75 263.97C1496.69 289.94 1449.77 326.61 1404.4 362.08C1381.65 379.86 1358.12 398.25 1334.15 415.27C1296.31 442.15 1264.48 462.66 1233.96 479.81C1196.34 500.96 1161.13 516.71 1126.32 527.96C1119.18 530.28 1111.96 532.42 1104.87 534.35C1067.92 544.37 1031.63 549.45 996.91 549.45C994.98 549.45 993.06 549.43 991.14 549.4C951 548.75 913.64 541.19 880.09 526.94C863.9 520.02 848.04 511.24 832.96 500.84C818.79 491.06 804.86 479.55 791.56 466.62C767.64 443.35 745.28 415.29 723.2 380.83C722.25 379.35 721.31 377.86 720.37 376.37C707.56 356.04 695.44 334.79 683.72 314.23C676.96 302.37 669.96 290.1 662.92 278.16C641.23 241.36 622.86 214.21 603.34 190.13C600.71 186.89 598.01 183.65 595.29 180.48C545.89 122.82 482.05 77.04 410.68 48.06C324.62 13.17 237.5 4.26 165.34 22.97C91.98 42.05 18.35 104.83 19.55 187.91L19.27 187.91C18.71 149.21 34.05 112.42 63.64 81.5C77.01 67.52 92.8 55.27 110.58 45.08C127.88 35.16 146.28 27.63 165.27 22.69C203.35 12.82 245.21 10.53 289.71 15.88C329.68 20.7 370.42 31.43 410.78 47.8C482.2 76.79 546.08 122.61 595.51 180.3C598.23 183.47 600.94 186.72 603.56 189.96C623.09 214.05 641.47 241.21 663.17 278.02C670.21 289.96 677.21 302.23 683.97 314.1C695.69 334.65 707.8 355.9 720.61 376.22C721.55 377.71 722.49 379.2 723.44 380.68C770.35 453.9 821.63 501.66 880.2 526.68C961.34 561.15 1047.12 549.73 1104.8 534.08C1111.89 532.15 1119.1 530.01 1126.24 527.7C1206.27 501.82 1279.3 453.89 1333.99 415.04C1357.96 398.03 1381.48 379.64 1404.23 361.86C1449.61 326.39 1496.53 289.7 1547.62 263.72C1569.43 252.61 1589.17 245.79 1607.96 242.87C1631.14 239.27 1652.46 241.94 1671.34 250.81C1687.24 258.3 1702.92 270.33 1719.27 287.59C1733.68 302.8 1746.7 319.93 1759.28 336.5C1766.77 346.36 1773.85 355.69 1780.99 364.3C1851.71 450 1924.13 538.61 1996.24 627.67L1996.02 627.84Z" fill="#A1A1A1" fill-opacity="1.000000" fill-rule="nonzero"/>
		<path id="Vector" d="M1993.03 625.19L1781.95 358.92C1775.06 350.23 1768.21 340.77 1760.96 330.75C1737.04 297.7 1709.93 260.24 1674.49 243.8C1640.21 227.91 1598.6 233.96 1550.8 261.78C1504.85 288.53 1462.94 324.1 1422.41 358.5C1395.99 380.92 1368.67 404.11 1340.6 424.51C1256.23 485.84 1182.5 522.06 1108.56 538.51C1077.89 545.33 1047.64 548.76 1018.29 548.76C1009.4 548.76 1000.59 548.45 991.88 547.82C950.79 544.84 912.86 534.83 879.14 518.08C847.89 502.55 819.3 480.62 791.75 451.05C769.74 427.44 748.65 399.28 725.37 362.45C713.08 343.01 701.18 322.82 689.68 303.29C663.64 259.09 636.71 213.39 603.37 173.16C552.24 111.47 485.12 63.09 409.27 33.25C322.67 -0.82 235.31 -8.76 163.27 10.89C93.53 29.91 17.83 89.9 16.44 176.66L16.16 176.65C16.78 137.87 32.6 101.08 61.92 70.25C88.42 42.38 124.39 21.2 163.2 10.62C201.23 0.24 243.14 -2.55 287.76 2.32C327.83 6.69 368.75 17.01 409.37 32.99C446.9 47.75 482.55 67.19 515.32 90.76C548.36 114.52 578.06 142.18 603.59 172.98C636.94 213.22 663.87 258.93 689.92 303.14C701.43 322.66 713.33 342.86 725.61 362.29C759.58 416.03 807.74 482.28 879.27 517.82C961.3 558.58 1049.21 551.42 1108.5 538.23C1182.4 521.79 1256.1 485.58 1340.43 424.28C1368.49 403.88 1395.81 380.7 1422.22 358.28C1462.76 323.87 1504.68 288.3 1550.66 261.54C1598.54 233.66 1640.24 227.61 1674.61 243.54C1690.48 250.9 1706.01 263.04 1722.1 280.65C1736.27 296.15 1748.94 313.65 1761.19 330.58C1768.44 340.6 1775.28 350.05 1782.17 358.75L1993.25 625.01L1993.03 625.19Z" fill="#A1A1A1" fill-opacity="1.000000" fill-rule="nonzero"/>
		<path id="Vector" d="M1991.33 604.72C1937.58 530.58 1891.46 470.42 1846.2 415.4C1824.22 388.67 1801.78 362.36 1779.5 337.2C1772.76 329.59 1766.08 321.5 1759.01 312.92C1741.24 291.38 1722.87 269.1 1701.73 252.57C1690.38 243.68 1679.45 237.31 1668.32 233.11C1634.16 220.07 1594.08 228.69 1549.2 258.73C1525.97 274.25 1504.81 291.92 1487.19 307.15C1468.53 323.27 1450.12 341.06 1432.32 358.25C1406.73 382.97 1380.27 408.53 1351.83 430.49C1334.52 443.88 1316.98 455.85 1299.68 466.07C1265.07 486.5 1227.93 503.34 1189.29 516.12C1165.41 523.92 1141.41 529.82 1117.98 533.65C1097.78 536.94 1077.54 538.83 1057.81 539.29C1028.31 539.97 999.56 537.37 972.37 531.55C943.46 525.36 916.1 515.48 891.05 502.18C868.71 490.32 847.61 475.39 826.55 456.53C787.3 421.42 755.99 380.81 733.1 349.36C721.86 333.84 710.88 318.01 700.26 302.7C669.69 258.61 640.81 216.97 604.67 179.88C575.2 149.83 541.57 123.89 504.72 102.79C476.39 86.58 445.59 73.31 413.16 63.37C405.44 61.01 397.56 58.8 389.77 56.83C356.22 48.34 318.46 42.81 277.52 40.39C236.25 37.9 200.55 40.05 168.37 46.99C150.18 50.88 132.56 56.98 115.98 65.12C57.47 93.87 19.9 142.14 15.47 194.23L15.12 194.2C16.3 180.32 19.76 166.64 25.4 153.54C30.77 141.1 38.13 129.11 47.29 117.88C64.6 96.69 88.3 78.33 115.83 64.81C132.43 56.65 150.08 50.54 168.3 46.64C200.51 39.7 236.24 37.54 277.54 40.04C318.5 42.45 356.29 47.99 389.86 56.49C397.66 58.47 405.53 60.67 413.26 63.04C445.72 72.99 476.55 86.26 504.89 102.49C541.78 123.6 575.43 149.56 604.92 179.63C641.08 216.75 669.96 258.4 700.55 302.5C711.16 317.81 722.14 333.63 733.38 349.15C756.26 380.59 787.55 421.17 826.78 456.27C847.82 475.11 868.9 490.02 891.21 501.87C940.23 527.89 996.28 540.36 1057.81 538.93C1077.51 538.48 1097.73 536.58 1117.92 533.3C1141.34 529.47 1165.31 523.58 1189.17 515.78C1227.8 503.01 1264.92 486.19 1299.5 465.76C1316.78 455.56 1334.32 443.59 1351.61 430.2C1380.04 408.26 1406.49 382.71 1432.07 358C1449.88 340.8 1468.29 323.01 1486.95 306.88C1504.59 291.64 1525.75 273.97 1549 258.43C1568.98 245.06 1588.33 235.82 1606.51 230.97C1628.85 225.01 1649.68 225.62 1668.44 232.78C1679.61 237 1690.56 243.38 1701.94 252.29C1723.12 268.85 1741.5 291.14 1759.28 312.7C1766.35 321.27 1773.03 329.36 1779.76 336.97C1802.05 362.13 1824.5 388.44 1846.47 415.18C1891.74 470.21 1937.86 530.37 1991.61 604.51L1991.33 604.72Z" fill="#A1A1A1" fill-opacity="1.000000" fill-rule="nonzero"/>
		<path id="Vector" d="M1989.63 584.25C1939.79 508.85 1893.02 445.77 1846.64 391.38C1824.01 364.81 1800.6 339.28 1777.05 315.48C1770.8 309.16 1764.64 302.6 1758.1 295.66C1738.54 274.86 1718.32 253.35 1695.66 238.47C1684.23 230.93 1673.27 225.67 1662.15 222.41C1619.6 209.9 1576.37 233.59 1547.59 255.66C1527.21 271.26 1508.59 288.89 1489.73 307.09C1473.22 323.02 1457.69 340.16 1441.25 358.3C1416.85 385.23 1391.61 413.07 1363.06 436.46C1346.11 450.41 1328.43 462.47 1310.49 472.3C1277.09 490.63 1240.51 504.86 1198.66 515.82C1175.24 521.94 1151.26 526.31 1127.38 528.79C1107.23 530.85 1087.12 531.59 1067.59 530.97C1038.55 530.07 1010.16 525.99 983.21 518.85C954.91 511.35 927.9 500.39 902.95 486.27C881.08 473.91 859.97 458.57 838.4 439.38C799.24 404.58 765.69 366 740.83 336.27C731.64 325.27 722.58 314.19 713.83 303.48C678.95 260.83 646.02 220.54 605.98 186.6C576.05 161.23 542.46 139.78 506.13 122.85C478.64 110.03 449.5 100.43 417.06 93.49C409.57 91.9 401.96 90.46 394.42 89.21C361.34 83.78 326.03 81.73 283.3 79.6C252.51 77.99 212.19 76.93 173.46 83.08C155.12 85.94 137.39 90.9 120.76 97.83C62.21 122.22 22.49 164.83 14.51 211.81L14.09 211.74C16.21 199.28 20.49 187.06 26.82 175.42C32.86 164.32 40.79 153.68 50.39 143.79C68.64 125 92.92 108.97 120.6 97.44C137.26 90.5 155.02 85.53 173.4 82.66C212.16 76.5 252.51 77.57 283.32 79.17C326.06 81.3 361.38 83.35 394.49 88.79C402.03 90.04 409.65 91.48 417.15 93.07C449.62 100.02 478.79 109.63 506.3 122.46C542.67 139.41 576.3 160.88 606.25 186.27C646.32 220.24 679.27 260.54 714.15 303.21C722.91 313.92 731.96 324.99 741.16 335.99C766 365.7 799.54 404.27 838.69 439.06C860.23 458.23 881.32 473.55 903.15 485.9C952.23 513.65 1007.56 528.67 1067.61 530.55C1087.11 531.16 1107.21 530.43 1127.34 528.36C1151.19 525.88 1175.16 521.52 1198.55 515.4C1240.37 504.46 1276.91 490.24 1310.29 471.93C1328.2 462.1 1345.86 450.06 1362.79 436.12C1391.32 412.76 1416.55 384.92 1440.94 358.01C1457.39 339.86 1472.92 322.72 1489.44 306.78C1508.31 288.57 1526.93 270.93 1547.34 255.32C1565.99 241.01 1584.39 230.72 1602.03 224.72C1623.41 217.45 1643.68 216.53 1662.28 221.99C1673.43 225.27 1684.43 230.54 1695.9 238.11C1718.59 253.02 1738.84 274.54 1758.42 295.36C1764.94 302.3 1771.11 308.86 1777.36 315.17C1800.92 338.98 1824.33 364.53 1846.96 391.1C1893.35 445.5 1940.14 508.6 1989.98 584.01L1989.63 584.25Z" fill="#A1A1A1" fill-opacity="1.000000" fill-rule="nonzero"/>
		<path id="Vector" d="M1987.92 563.77C1941.28 486.1 1895.21 421.85 1847.08 367.36C1823.8 340.96 1799.42 316.2 1774.61 293.76C1769.31 288.96 1763.85 283.87 1758.57 278.95C1736.76 258.61 1714.22 237.59 1689.61 224.37C1678.05 218.13 1667.06 213.98 1655.99 211.71C1613.53 202.97 1572.74 229.12 1546 252.6C1527.87 268.44 1511.3 286.4 1495.28 303.78L1492.28 307.03C1477.73 322.79 1464.08 340.07 1449.63 358.37C1426.62 387.52 1402.83 417.65 1374.29 442.43C1357.68 456.95 1339.85 469.1 1321.3 478.54C1288.96 495.01 1252.96 506.75 1208.03 515.51C1184.79 520.04 1160.81 522.87 1136.78 523.92C1116.68 524.77 1096.68 524.34 1077.36 522.66C1018.84 517.59 964.16 499.99 914.84 470.37C893.52 457.56 872.39 441.82 850.26 422.23C812.8 389.16 779.48 355.17 748.57 323.18C744.42 318.9 740.32 314.64 736.25 310.41C694.03 266.58 654.15 225.19 607.29 193.32C576.69 172.52 543.13 155.56 507.54 142.9C481.41 133.61 453.09 127.3 420.96 123.62C413.72 122.79 406.36 122.11 399.08 121.6C380.75 120.33 361.31 120.12 340.74 119.91C324.21 119.73 307.12 119.55 289.08 118.82C254.25 117.28 214.77 115.53 178.55 119.18C159.86 121.07 142.02 124.89 125.53 130.55C67 150.61 25.13 187.57 13.54 229.4L13.06 229.27C16.12 218.24 21.23 207.48 28.25 197.29C34.96 187.55 43.45 178.26 53.49 169.7C72.69 153.31 97.55 139.62 125.37 130.08C141.9 124.41 159.77 120.58 178.5 118.69C214.76 115.03 254.25 116.78 289.1 118.32C307.12 119.06 324.21 119.24 340.74 119.41C361.32 119.63 380.77 119.84 399.11 121.11C406.4 121.62 413.77 122.3 421.01 123.13C453.18 126.82 481.53 133.14 507.7 142.44C543.33 155.11 576.93 172.09 607.56 192.92C654.47 224.81 694.37 266.23 736.6 310.07C740.67 314.3 744.78 318.56 748.92 322.85C779.83 354.82 813.13 388.81 850.58 421.87C872.69 441.43 893.8 457.16 915.09 469.95C964.35 499.54 1018.96 517.11 1077.4 522.17C1096.71 523.85 1116.68 524.28 1136.75 523.43C1160.77 522.39 1184.72 519.56 1207.93 515.03C1252.81 506.28 1288.77 494.55 1321.08 478.11C1339.59 468.68 1357.38 456.56 1373.96 442.06C1402.47 417.31 1426.24 387.2 1449.24 358.07C1463.69 339.76 1477.35 322.47 1491.91 306.7L1494.91 303.45C1510.94 286.07 1527.52 268.09 1545.67 252.23C1572.49 228.68 1613.43 202.45 1656.09 211.23C1667.2 213.51 1678.24 217.67 1689.84 223.94C1714.51 237.19 1737.08 258.24 1758.9 278.59C1764.18 283.51 1769.64 288.6 1774.94 293.4C1799.76 315.85 1824.15 340.63 1847.44 367.04C1895.6 421.56 1941.68 485.83 1988.34 563.52L1987.92 563.77Z" fill="#A1A1A1" fill-opacity="1.000000" fill-rule="nonzero"/>
		<path id="Vector" d="M1986.22 543.29C1943.4 464.45 1896.73 397.18 1847.52 343.35C1823.59 317.11 1798.24 293.12 1772.17 272.04C1768.41 269 1764.55 265.84 1760.82 262.78C1736.18 242.6 1710.7 221.72 1683.56 210.28C1671.91 205.31 1660.89 202.28 1649.84 201.01C1607.5 196.13 1569.13 224.7 1544.4 249.53C1529.05 264.87 1515.18 281.93 1501.78 298.43C1499.46 301.28 1497.14 304.13 1494.82 306.97C1482.07 322.56 1470.15 339.98 1457.53 358.42C1436.08 389.77 1413.89 422.19 1385.52 448.4C1368.86 463.79 1351.39 475.69 1332.11 484.79C1291.79 503.81 1251.49 510.84 1217.39 515.22C1194.32 518.18 1170.37 519.48 1146.17 519.07C1126.14 518.69 1106.27 517.1 1087.12 514.36C1030.36 506.23 976.4 486.09 926.74 454.47C906.07 441.32 884.94 425.17 862.11 405.09C839.06 384.87 817.57 365.4 796.8 346.58C782.67 333.79 769.34 321.7 756.31 310.11C707.07 266.29 661.97 227.75 608.61 200.06C577.36 183.84 543.83 171.35 508.96 162.96C483.96 156.95 457.24 154.02 424.88 153.74C417.89 153.69 410.78 153.77 403.74 153.99C393.04 154.33 381.98 155.06 370.26 155.83C347.79 157.3 322.31 158.97 294.86 158.04C284.41 157.68 273.75 157.17 263.43 156.68C236.91 155.42 209.48 154.12 183.64 155.28C164.66 156.14 146.71 158.83 130.3 163.26C71.87 179.06 27.85 210.37 12.56 247.01L12.03 246.79C16.04 237.2 21.97 227.9 29.67 219.16C37.06 210.77 46.12 202.84 56.59 195.6C76.76 181.64 102.2 170.27 130.15 162.72C146.6 158.27 164.59 155.58 183.6 154.72C209.47 153.55 236.91 154.86 263.46 156.12C273.76 156.61 284.43 157.11 294.88 157.47C322.3 158.41 347.76 156.74 370.22 155.27C381.94 154.5 393.01 153.77 403.72 153.42C410.77 153.21 417.89 153.13 424.88 153.18C457.29 153.46 484.05 156.39 509.09 162.42C544 170.82 577.58 183.31 608.87 199.56C632.97 212.07 657.39 227.92 683.53 248.01C706.93 265.99 729.7 285.67 756.68 309.69C769.71 321.29 783.05 333.37 797.17 346.16C817.95 364.98 839.43 384.45 862.48 404.67C885.28 424.72 906.4 440.86 927.03 454C976.63 485.57 1030.51 505.69 1087.19 513.8C1106.31 516.54 1126.16 518.13 1146.18 518.51C1170.34 518.92 1194.28 517.63 1217.31 514.67C1251.37 510.29 1291.61 503.26 1331.87 484.28C1351.09 475.21 1368.51 463.34 1385.13 447.99C1413.45 421.82 1435.62 389.43 1457.06 358.11C1469.69 339.66 1481.62 322.23 1494.38 306.62C1496.7 303.78 1499.02 300.93 1501.34 298.08C1514.75 281.57 1528.62 264.5 1543.99 249.14C1560.08 232.99 1576.59 220.56 1593.05 212.2C1612.55 202.31 1631.68 198.35 1649.9 200.46C1660.99 201.74 1672.07 204.78 1683.77 209.76C1710.98 221.24 1736.49 242.14 1761.16 262.35C1764.9 265.41 1768.75 268.57 1772.51 271.61C1798.6 292.7 1823.97 316.71 1847.92 342.97C1874.05 371.55 1899.64 404.12 1923.98 439.77C1945.49 471.27 1966.59 506.01 1986.7 543.03L1986.22 543.29Z" fill="#A1A1A1" fill-opacity="1.000000" fill-rule="nonzero"/>
		<path id="Vector" d="M1984.52 522.81C1944.89 441.71 1898.94 373.25 1847.96 319.33C1823.38 293.26 1797.06 270.04 1769.74 250.32C1768.44 249.38 1767.14 248.45 1765.84 247.5C1737.42 226.97 1708.04 205.74 1677.53 196.18C1665.71 192.48 1654.64 190.56 1643.71 190.31C1601.53 189.36 1565.56 220.32 1542.82 246.46C1529.43 261.75 1517.55 278.51 1506.06 294.72C1503.22 298.73 1500.28 302.87 1497.38 306.91C1486.34 322.28 1476.07 339.76 1465.2 358.27C1445.43 391.93 1424.99 426.74 1396.76 454.37C1380.43 470.36 1362.82 482.35 1342.93 491.03C1303.73 508.13 1263.93 512.62 1226.76 514.93C1203.84 516.35 1179.89 516.11 1155.56 514.21C1135.6 512.6 1115.86 509.85 1096.89 506.04C1042.06 495.05 988.81 472.35 938.64 438.57C918.55 425.04 898 408.96 873.98 387.95C828.33 348.14 794.43 320.1 764.07 297.03C703.68 251.16 657.59 224.17 609.96 206.79C578.07 195.16 544.58 187.16 510.4 183.02C486.69 180.15 461.52 180.41 428.81 183.86C422.11 184.58 415.25 185.42 408.42 186.37C401.98 187.28 395.43 188.32 388.49 189.43C362.89 193.5 333.87 198.12 300.65 197.25C283.14 196.8 265.26 195.56 247.97 194.36C228.31 192.99 207.99 191.58 188.72 191.39C169.41 191.2 151.35 192.74 135.07 195.98C76.83 207.57 30.67 233.23 11.58 264.63L11.03 264.3C15.99 256.14 22.75 248.31 31.12 241.02C39.19 233.98 48.81 227.41 59.7 221.49C80.86 209.98 106.88 200.94 134.94 195.36C151.27 192.11 169.37 190.56 188.73 190.75C208.01 190.94 228.35 192.36 248.01 193.72C265.3 194.92 283.17 196.17 300.66 196.62C333.82 197.48 362.81 192.87 388.39 188.8C395.33 187.7 401.88 186.66 408.33 185.74C415.16 184.79 422.03 183.95 428.74 183.23C461.5 179.78 486.71 179.52 510.47 182.4C544.7 186.54 578.24 194.55 610.17 206.2C657.87 223.6 704 250.62 764.45 296.53C794.82 319.61 828.73 347.66 874.39 387.48C898.39 408.47 918.92 424.53 938.99 438.05C989.09 471.78 1042.26 494.45 1097.01 505.43C1115.94 509.23 1135.67 511.97 1155.62 513.58C1179.91 515.47 1203.82 515.72 1226.72 514.3C1263.82 512 1303.56 507.52 1342.67 490.46C1362.49 481.81 1380.04 469.86 1396.31 453.93C1424.48 426.35 1444.9 391.58 1464.65 357.95C1475.53 339.43 1485.8 321.94 1496.86 306.54C1499.76 302.51 1502.7 298.37 1505.54 294.36C1517.04 278.14 1528.93 261.37 1542.34 246.05C1557.18 228.99 1572.74 215.5 1588.59 205.94C1607.15 194.75 1625.7 189.28 1643.72 189.69C1654.72 189.94 1665.84 191.87 1677.71 195.59C1708.33 205.18 1737.75 226.44 1766.21 247C1767.51 247.94 1768.81 248.88 1770.11 249.82C1797.46 269.56 1823.81 292.8 1848.42 318.9C1899.44 372.87 1945.42 441.38 1985.08 522.54L1984.52 522.81Z" fill="#A1A1A1" fill-opacity="1.000000" fill-rule="nonzero"/>
		<path id="Vector" d="M1240.79 514.63C1239.21 514.63 1237.65 514.63 1236.12 514.62C1213.31 514.53 1189.37 512.75 1164.96 509.34C1145.06 506.51 1125.43 502.6 1106.65 497.73C1079.8 490.77 1052.86 480.79 1026.56 468.04C1001.17 455.72 975.58 440.46 950.54 422.66C925.99 405.22 903.07 385.79 885.84 370.81C845.52 335.85 807.16 306.63 771.82 283.96C714.59 247.24 663.59 224.86 611.31 213.52C579.77 206.68 545.94 203.07 513.36 203.07C512.85 203.07 512.35 203.07 511.85 203.07C483.86 203.17 457.29 208.37 432.75 213.97C426.36 215.44 419.75 217.04 413.11 218.74C409.47 219.68 405.82 220.65 401.96 221.68C374.75 228.93 343.91 237.14 306.43 236.46C283.61 236.05 260.3 233.69 237.76 231.4C223.21 229.93 208.16 228.4 193.81 227.48C174.07 226.21 155.91 226.62 139.83 228.69C81.9 236.15 33.58 256.17 10.57 282.26L10.04 281.79C21.85 268.41 39.6 256.83 62.81 247.36C84.97 238.32 111.58 231.62 139.74 228C155.87 225.92 174.07 225.51 193.85 226.78C208.22 227.7 223.28 229.23 237.84 230.71C260.36 232.99 283.66 235.36 306.45 235.76C343.82 236.44 374.61 228.24 401.78 221.01C405.64 219.98 409.29 219.01 412.93 218.07C419.58 216.37 426.19 214.76 432.59 213.29C457.17 207.68 483.79 202.47 511.84 202.37C544.94 202.26 579.38 205.88 611.46 212.84C638.44 218.69 664.6 227.31 691.42 239.18C717.25 250.62 743.68 265.07 772.2 283.37C807.57 306.06 845.95 335.3 886.3 370.28C903.51 385.25 926.42 404.67 950.94 422.09C1001.77 458.21 1054.22 483.43 1106.82 497.05C1125.59 501.92 1145.18 505.82 1165.05 508.65C1189.43 512.06 1213.35 513.83 1236.12 513.93C1271.75 514.07 1313.12 512.87 1353.47 496.62C1373.89 488.4 1391.56 476.37 1407.49 459.86C1435.45 430.85 1453.99 393.63 1471.93 357.62C1481.15 339.1 1489.86 321.61 1499.34 306.47C1502.37 301.62 1505.43 296.62 1508.39 291.79C1518.4 275.45 1528.74 258.57 1540.66 242.96C1554.28 225.01 1568.9 210.44 1584.1 199.68C1601.73 187.19 1619.7 180.21 1637.52 178.92C1648.51 178.12 1659.67 178.93 1671.64 181.41C1703.62 188.02 1735.32 207.23 1767.68 228.03C1795.9 246.16 1823.99 269.26 1848.91 294.83C1876.58 323.16 1902.58 356.38 1926.19 393.59C1947.22 426.75 1966.49 463.24 1983.45 502.05L1982.81 502.34C1946.38 418.97 1901.16 349.32 1848.4 295.32C1823.52 269.79 1795.48 246.72 1767.3 228.62C1735 207.87 1703.36 188.69 1671.49 182.1C1659.59 179.64 1648.5 178.83 1637.57 179.62C1604.83 182 1570.62 204.64 1541.22 243.39C1529.33 258.97 1518.99 275.84 1508.99 292.16C1506.03 296.99 1502.97 301.99 1499.93 306.84C1490.48 321.96 1481.77 339.44 1472.56 357.94C1463.76 375.6 1454.66 393.87 1444.22 411.43C1432.38 431.34 1420.54 447.34 1408 460.35C1392 476.93 1374.25 489.02 1353.73 497.28C1335.64 504.57 1316.19 509.39 1294.27 512.01C1275.71 514.23 1257.06 514.63 1240.79 514.63Z" fill="#A1A1A1" fill-opacity="1.000000" fill-rule="nonzero"/>
		<path id="Vector" d="M1286.02 516.05C1271.64 516.05 1257.81 515.19 1245.47 514.32C1222.74 512.73 1198.81 509.41 1174.34 504.48C1154.52 500.42 1135.03 495.35 1116.4 489.41C1065.39 473.16 1015.02 446.12 962.42 406.75C939.49 389.58 917.87 371.11 897.69 353.66C857.86 319.31 818.12 291.46 779.58 270.88C722.89 240.61 669.86 224.52 612.67 220.24C580.09 217.8 545.73 218.8 513.3 223.12C486.16 226.73 460.57 235.45 436.68 244.07C430.71 246.24 424.35 248.61 417.79 251.11C416.16 251.74 414.5 252.38 412.83 253.02C385.32 263.65 354.19 275.68 314.24 275.68C313.56 275.68 312.89 275.68 312.21 275.67C285.18 275.4 257.59 271.54 230.9 267.81C220.32 266.33 209.38 264.8 198.88 263.57C178.37 261.15 160.61 260.44 144.57 261.39C86.26 264.86 37.04 278.89 9.54 299.88L9.07 299.26C22.66 288.89 42.32 279.87 65.91 273.21C89.12 266.65 116.3 262.29 144.53 260.62C160.6 259.66 178.41 260.37 198.96 262.79C209.47 264.03 220.42 265.56 231 267.04C257.67 270.76 285.24 274.62 312.22 274.89C353 275.31 384.64 263.08 412.54 252.29C414.22 251.65 415.87 251.01 417.51 250.37C424.07 247.87 430.43 245.5 436.41 243.34C460.34 234.7 485.97 225.97 513.19 222.34C545.67 218.02 580.08 217.02 612.72 219.46C641.06 221.58 668.08 226.59 695.32 234.76C723.38 243.18 751.06 254.77 779.94 270.19C818.53 290.8 858.31 318.68 898.19 353.06C918.36 370.51 939.96 388.97 962.88 406.12C1015.41 445.44 1065.69 472.44 1116.63 488.66C1135.23 494.59 1154.69 499.66 1174.48 503.71C1198.92 508.64 1222.81 511.95 1245.51 513.54C1283.68 516.22 1324.31 517.59 1364.26 502.77C1385.29 494.97 1403.08 482.87 1418.65 465.77C1446.4 435.31 1463.66 393.76 1478.9 357.1C1486.57 338.65 1493.81 321.23 1501.8 306.38C1504.68 301.02 1507.58 295.48 1510.39 290.13C1519.16 273.37 1528.24 256.04 1538.98 239.86C1551.41 221.01 1565.08 205.37 1579.62 193.39C1596.31 179.62 1613.7 171.12 1631.31 168.13C1642.31 166.25 1653.51 165.95 1665.54 167.21C1699.18 170.71 1733.34 188.02 1765.25 206.21C1794.72 223 1823.81 245.32 1849.39 270.74C1877.83 298.93 1904.04 332.49 1927.29 370.48C1948.07 404.46 1966.42 441.83 1981.82 481.55L1981.1 481.83C1948.36 397.39 1902.63 324.59 1848.84 271.28C1823.32 245.91 1794.28 223.64 1764.87 206.88C1733.04 188.73 1698.96 171.46 1665.47 167.98C1653.5 166.73 1642.37 167.03 1631.44 168.89C1598.94 174.42 1566.34 199.78 1539.63 240.28C1528.91 256.43 1519.85 273.74 1511.08 290.48C1508.27 295.84 1505.37 301.38 1502.49 306.74C1494.51 321.56 1487.28 338.97 1479.62 357.39C1464.36 394.11 1447.06 435.73 1419.23 466.29C1403.57 483.48 1385.68 495.65 1364.53 503.5C1346.18 510.3 1326.39 514.24 1304.02 515.54C1297.97 515.9 1291.94 516.05 1286.02 516.05Z" fill="#A1A1A1" fill-opacity="1.000000" fill-rule="nonzero"/>
		<path id="Vector" d="M1314.4 519.1C1314.2 519.1 1313.99 519.1 1313.79 519.1C1293.46 519.05 1273.51 516.56 1254.81 514.02C1232.13 510.94 1208.21 506.09 1183.72 499.61C1164 494.33 1144.63 488.1 1126.16 481.09C1077.18 462.52 1028.93 433.85 974.32 390.84C954.65 375.36 935.3 358.69 916.58 342.57C914.24 340.55 911.89 338.53 909.55 336.52C869.51 302.18 828.4 275.7 787.35 257.81C731.14 233.32 674.45 223.23 614.04 226.96C580.92 229.01 546.59 234.61 514.77 243.16C489.65 249.91 467.28 260.73 440.63 274.17C435.23 276.91 429.47 279.86 422.49 283.47L422.1 283.67C408.64 290.68 393.38 298.62 376.27 304.66C356.62 311.59 337.55 314.93 318 314.89C287.51 314.81 256.39 309.14 226.31 303.66C218.93 302.31 211.31 300.92 203.95 299.66C182.84 296.06 164.97 294.25 149.32 294.11C91.7 293.6 40.37 302.14 8.49 317.52L8.12 316.76C23.74 309.22 44.8 303.1 69.03 299.07C93.31 295.02 121.08 293.02 149.33 293.26C165.02 293.4 182.94 295.22 204.09 298.83C211.46 300.09 219.08 301.48 226.46 302.82C256.51 308.3 287.58 313.97 318 314.04C318.14 314.04 318.27 314.04 318.41 314.04C361.92 314.04 395.06 296.79 421.71 282.92L422.1 282.72C429.08 279.11 434.85 276.16 440.25 273.42C466.94 259.95 489.36 249.11 514.55 242.35C546.43 233.78 580.81 228.17 613.99 226.12C643.55 224.3 671.44 225.69 699.24 230.38C729.2 235.44 758.13 244.16 787.69 257.04C828.81 274.96 870 301.49 910.1 335.88C912.44 337.89 914.79 339.91 917.13 341.93C935.84 358.04 955.19 374.71 974.84 390.18C1029.39 433.13 1077.56 461.77 1126.44 480.31C1144.9 487.31 1164.24 493.53 1183.93 498.8C1208.39 505.27 1232.28 510.11 1254.93 513.19C1295.5 518.71 1335.22 522.53 1375.07 508.96C1396.7 501.59 1414.61 489.41 1429.83 471.72C1457.33 439.77 1472.35 395.49 1485.6 356.42C1491.81 338.13 1497.67 320.85 1504.28 306.33C1506.82 300.74 1509.37 294.97 1511.84 289.38C1519.56 271.9 1527.53 253.83 1537.32 236.8C1548.58 217.04 1561.31 200.33 1575.14 187.13C1590.92 172.09 1607.72 162.08 1625.1 157.38C1635.88 154.46 1646.87 153.04 1658.69 153.04C1658.95 153.04 1659.2 153.04 1659.46 153.05C1696.2 153.24 1734 169.92 1762.83 184.43C1793.55 199.89 1823.65 221.41 1849.88 246.68C1879.1 274.74 1905.52 308.63 1928.4 347.41C1948.92 382.22 1966.35 420.46 1980.2 461.08L1979.4 461.35C1958.8 400.91 1919.5 314.71 1849.29 247.29C1823.12 222.08 1793.09 200.61 1762.45 185.19C1733.71 170.71 1696.02 154.08 1659.46 153.89C1647.42 153.82 1636.26 155.24 1625.32 158.2C1593.13 166.91 1562.13 194.97 1538.05 237.22C1528.29 254.21 1520.32 272.26 1512.61 289.72C1510.15 295.31 1507.59 301.09 1505.05 306.68C1498.45 321.16 1492.6 338.42 1486.4 356.69C1473.13 395.83 1458.08 440.19 1430.47 472.27C1415.15 490.08 1397.12 502.34 1375.34 509.76C1356.89 516.04 1336.95 519.1 1314.4 519.1Z" fill="#A1A1A1" fill-opacity="1.000000" fill-rule="nonzero"/>
		<path id="Vector" d="M1336.97 523.07C1332.59 523.07 1328.12 522.93 1323.54 522.65C1303.5 521.41 1284.01 517.72 1264.16 513.72C1241.14 509.08 1217.9 502.87 1193.1 494.74C1173.48 488.25 1154.24 480.86 1135.91 472.77C1089.41 452.27 1043.25 422.1 986.21 374.94C972.05 363.22 957.89 350.94 944.2 339.06C936.75 332.59 929.04 325.9 921.41 319.37C880.9 284.8 838.41 259.7 795.12 244.74C737.93 224.98 679.16 221.36 615.43 233.68C581.76 240.18 547.46 250.39 516.24 263.19C491.16 273.47 469.32 287.91 446.19 303.2L444.59 304.26C440.98 306.66 437.33 309.08 433.63 311.54C431.5 312.96 429.36 314.39 427.19 315.82C413.71 324.84 399.14 334.24 382.44 341.47C363.04 349.87 343.86 354 323.79 354.1C290.37 354.27 256.28 346.51 223.32 338.99C218.61 337.92 213.75 336.81 209.02 335.76C186.88 330.83 169.42 327.99 154.07 326.82C97.43 322.52 43.99 325.55 7.43 335.14L7.19 334.26C43.85 324.64 97.41 321.59 154.14 325.91C169.53 327.08 187.03 329.92 209.22 334.86C213.95 335.92 218.82 337.03 223.52 338.1C256.08 345.52 289.74 353.19 322.71 353.19C323.07 353.19 323.43 353.19 323.78 353.19C366.44 352.97 396.8 335.03 426.69 315.06C428.85 313.63 431 312.2 433.12 310.78C436.82 308.32 440.47 305.89 444.09 303.5L445.69 302.44C468.85 287.12 490.73 272.66 515.89 262.34C547.17 249.52 581.52 239.29 615.25 232.77C679.14 220.43 738.08 224.06 795.42 243.87C838.82 258.87 881.4 284.03 922.01 318.68C929.64 325.21 937.35 331.9 944.8 338.37C958.49 350.24 972.64 362.52 986.8 374.23C1043.76 421.34 1089.86 451.47 1136.28 471.93C1154.57 480.01 1173.79 487.39 1193.39 493.87C1218.15 501.99 1241.36 508.19 1264.34 512.82C1299.23 519.85 1342.64 528.6 1385.88 515.12C1408.11 508.19 1426.14 495.93 1441.01 477.65C1468.24 444.16 1480.86 397.07 1492.01 355.52C1496.85 337.47 1501.42 320.42 1506.75 306.27C1508.83 300.75 1510.92 295.05 1512.93 289.53C1519.69 271.04 1526.67 251.91 1535.65 233.72C1545.77 213.04 1557.55 195.26 1570.66 180.86C1585.52 164.55 1601.74 153.03 1618.89 146.62C1629.9 142.5 1641.17 139.97 1653.37 138.87C1669.7 137.39 1687.09 138.97 1706.52 143.68C1722.96 147.67 1740.59 153.87 1760.41 162.63C1792.37 176.75 1823.48 197.49 1850.37 222.6C1880.37 250.53 1906.99 284.75 1929.5 324.32C1949.77 359.95 1966.28 399.07 1978.57 440.59L1977.69 440.85C1951.73 353.19 1906.29 275.92 1849.74 223.27C1822.93 198.23 1791.91 177.55 1760.04 163.47C1717.33 144.6 1683.47 137.07 1653.45 139.78C1641.34 140.88 1630.14 143.39 1619.21 147.48C1578.42 162.72 1551.7 203.01 1536.47 234.12C1527.52 252.27 1520.54 271.37 1513.79 289.85C1511.77 295.37 1509.69 301.07 1507.61 306.59C1502.29 320.69 1497.73 337.73 1492.89 355.75C1481.73 397.39 1469.07 444.59 1441.72 478.23C1426.73 496.65 1408.56 509.01 1386.15 516C1370.96 520.73 1354.77 523.07 1336.97 523.07Z" fill="#A1A1A1" fill-opacity="1.000000" fill-rule="nonzero"/>
		<path id="Vector" d="M1356.53 527.62C1326.7 527.62 1298.03 519.96 1273.5 513.41C1250.42 507.25 1227.18 499.55 1202.47 489.87C1182.96 482.17 1163.84 473.62 1145.65 464.45C1091.13 436.98 1042.52 397.55 998.1 359.03C989.04 351.16 979.88 343.06 971.02 335.22C958.73 324.33 946.01 313.07 933.27 302.23C892.15 267.32 848.29 243.58 802.9 231.66C744.2 216.25 683.32 219.1 616.81 240.38C582.56 251.33 548.29 266.14 517.71 283.21C494.13 296.38 474.18 313 453.05 330.59C451.55 331.84 450.05 333.09 448.54 334.34L447.72 335.02C442.59 339.3 437.28 343.73 431.9 348.17C419 358.86 404.79 369.92 388.36 378.37C369.29 388.17 350.06 393.06 329.57 393.32C293.61 393.77 256.96 383.66 221.51 373.89C219.03 373.2 216.55 372.52 214.09 371.85C190.72 365.44 173.67 361.64 158.81 359.53C103.6 351.67 48.03 349.2 6.35 352.75L6.27 351.77C48.01 348.21 103.66 350.68 158.95 358.55C173.85 360.67 190.94 364.47 214.35 370.9C216.81 371.57 219.29 372.25 221.77 372.94C257.15 382.69 293.73 392.77 329.56 392.33C374.05 391.78 405.39 368.85 431.26 347.41C436.65 342.97 441.96 338.54 447.09 334.26L447.91 333.58C449.42 332.33 450.92 331.08 452.42 329.83C473.58 312.21 493.57 295.56 517.23 282.35C547.87 265.25 582.2 250.41 616.51 239.44C648.04 229.35 677.66 223.53 707.06 221.64C739.85 219.53 772.18 222.58 803.15 230.71C848.68 242.66 892.67 266.47 933.91 301.48C946.66 312.33 959.38 323.59 971.67 334.48C980.53 342.31 989.68 350.42 998.75 358.28C1043.11 396.76 1091.67 436.15 1146.09 463.57C1164.26 472.73 1183.35 481.27 1202.82 488.95C1227.51 498.61 1250.71 506.3 1273.75 512.46C1309.13 521.9 1353.17 533.66 1396.68 521.29C1419.51 514.8 1437.66 502.46 1452.17 483.59C1479.12 448.53 1489.2 398.53 1498.1 354.42C1501.68 336.7 1505.05 319.96 1509.22 306.21C1510.76 301.12 1512.3 295.87 1513.8 290.79C1519.64 270.91 1525.69 250.35 1533.97 230.64C1542.96 209.03 1553.8 190.17 1566.16 174.59C1580.11 157 1595.75 143.97 1612.66 135.86C1623.65 130.6 1634.96 126.95 1647.26 124.7C1663.83 121.68 1682.22 121.78 1701.91 125C1719.16 127.83 1738.02 133.15 1757.96 140.83C1791.17 153.62 1823.29 173.57 1850.84 198.52C1881.62 226.32 1908.45 260.88 1930.59 301.23C1950.59 337.69 1966.19 377.69 1976.94 420.11L1975.98 420.36C1953.2 330.47 1908.52 251.94 1850.18 199.25C1822.72 174.38 1790.71 154.5 1757.61 141.75C1714.71 125.23 1678.67 119.97 1647.44 125.67C1635.23 127.9 1623.99 131.53 1613.09 136.75C1572.86 156.05 1548.35 198.66 1534.88 231.02C1526.62 250.68 1520.58 271.21 1514.74 291.06C1513.25 296.15 1511.7 301.4 1510.16 306.49C1506.01 320.2 1502.64 336.91 1499.07 354.61C1494.79 375.84 1489.94 399.89 1482.89 422.44C1474.83 448.27 1465.03 468.47 1452.95 484.19C1445.97 493.28 1437.94 501.01 1429.09 507.18C1419.58 513.81 1408.76 518.88 1396.95 522.24C1383.43 526.09 1369.86 527.62 1356.53 527.62Z" fill="#A1A1A1" fill-opacity="1.000000" fill-rule="nonzero"/>
		<path id="Vector" d="M1374.15 532.61C1364.29 532.61 1353.96 531.65 1343.05 529.74C1321.56 525.97 1300.99 519.13 1282.84 513.1C1259.96 505.5 1236.07 496.04 1211.85 485C1192.46 476.11 1173.47 466.39 1155.4 456.12C1103.55 426.67 1058.87 387.52 1010 343.11C1005.66 339.17 1001.24 335.14 996.98 331.25C980.18 315.92 962.82 300.06 945.13 285.09C903.32 249.77 858.09 227.4 810.68 218.59C750.89 207.48 686.12 217.07 618.19 247.08C583.33 262.48 549.1 281.9 519.19 303.23C496.67 319.29 478.13 338.23 458.51 358.28C456.51 360.32 454.51 362.37 452.5 364.42C447.49 369.53 442.09 375.02 436.6 380.51C425.08 392.07 411.05 405.24 394.29 415.26C375.52 426.47 356.24 432.12 335.36 432.53C297.14 433.28 258.23 420.63 220.6 408.4L219.16 407.94C200.74 401.95 181.25 395.9 163.56 392.23C109.62 381.03 53.41 373.26 5.29 370.35L5.35 369.29C53.53 372.21 109.79 379.99 163.77 391.19C181.52 394.88 201.04 400.93 219.49 406.93L220.92 407.39C258.47 419.6 297.3 432.22 335.34 431.47C379.27 430.61 409.61 406.11 435.85 379.76C441.34 374.27 446.73 368.78 451.75 363.67C453.76 361.62 455.76 359.58 457.76 357.54C477.42 337.45 495.99 318.48 518.58 302.36C548.54 280.99 582.84 261.54 617.76 246.11C649.63 232.03 681 222.33 710.98 217.27C745.23 211.5 778.84 211.59 810.88 217.54C858.47 226.38 903.87 248.83 945.81 284.27C963.52 299.27 980.89 315.12 997.69 330.46C1001.96 334.36 1006.37 338.38 1010.71 342.33C1059.54 386.69 1104.17 425.8 1155.93 455.2C1173.97 465.45 1192.93 475.15 1212.29 484.03C1236.49 495.06 1260.34 504.5 1283.18 512.09C1318.99 524 1363.55 538.8 1407.49 527.46C1430.93 521.4 1449.2 509 1463.35 489.53C1490 452.84 1497.71 397.55 1503.91 353.12C1506.33 335.81 1508.61 319.47 1511.7 306.16C1512.67 301.97 1513.65 297.65 1514.6 293.47C1519.54 271.75 1524.65 249.29 1532.3 227.58C1544.13 193.79 1566.59 148.58 1606.45 125.12C1617.46 118.64 1628.82 113.87 1641.17 110.54C1673.49 101.7 1711.97 104.56 1755.54 119.04C1790 130.49 1823.12 149.65 1851.33 174.45C1882.89 202.11 1909.93 237 1931.7 278.15C1941.69 297.03 1950.51 317.19 1957.93 338.07C1965.02 358.02 1970.87 378.73 1975.32 399.64L1974.28 399.86C1954.69 307.74 1910.78 227.97 1850.63 175.24C1822.53 150.53 1789.53 131.45 1755.2 120.04C1711.84 105.63 1673.56 102.77 1641.45 111.56C1629.18 114.87 1617.92 119.6 1606.99 126.03C1567.4 149.32 1545.07 194.3 1533.3 227.93C1525.66 249.58 1520.57 272.01 1515.63 293.7C1514.68 297.88 1513.7 302.2 1512.73 306.4C1509.65 319.66 1507.37 335.98 1504.96 353.26C1501.84 375.62 1498.31 400.96 1492.27 424.88C1485.33 452.36 1476.15 473.71 1464.2 490.15C1457.39 499.53 1449.42 507.44 1440.52 513.65C1430.93 520.35 1419.91 525.34 1407.76 528.48C1397.09 531.23 1385.96 532.61 1374.15 532.61Z" fill="#A1A1A1" fill-opacity="1.000000" fill-rule="nonzero"/>
		<path id="Vector" d="M1390.39 537.88C1378.58 537.88 1366.12 536.35 1352.8 533.28C1331.24 528.31 1310.49 520.06 1292.18 512.79C1269.13 503.63 1245.26 492.64 1221.22 480.12C1201.96 470.04 1183.09 459.17 1165.15 447.79C1115.76 416.52 1073.4 376.21 1028.55 333.54C1026.32 331.43 1024.11 329.32 1021.89 327.2C1001.03 307.38 979.47 286.88 956.99 267.94C914.46 232.18 867.85 211.17 818.47 205.51C756.45 198.4 689.53 214.64 619.57 253.77C584.58 273.34 549.45 298.01 520.66 323.24C498.93 342.29 481.49 363.72 463.03 386.41C460.85 389.09 458.66 391.79 456.45 394.49C452.04 399.89 446.79 406.3 441.3 412.85C431.12 425.02 417.26 440.48 400.21 452.12C381.74 464.72 362.42 471.14 341.15 471.75C323.66 472.19 304.37 469.49 282.15 463.5C263.08 458.36 244.64 451.64 224.23 444.03C205.59 436.99 185.93 429.73 168.28 424.93C116.02 410.72 60.82 398.28 4.22 387.94L4.42 386.83C61.06 397.17 116.29 409.63 168.58 423.84C186.27 428.66 205.97 435.93 224.62 442.97C258.83 455.73 301.42 471.62 341.12 470.62C386.5 469.32 415.67 441.74 440.43 412.12C445.92 405.58 451.17 399.17 455.57 393.77C457.78 391.07 459.97 388.38 462.16 385.69C480.65 362.97 498.11 341.5 519.92 322.39C548.77 297.12 583.96 272.4 619.02 252.79C689.19 213.54 756.34 197.26 818.6 204.39C842.48 207.13 865.92 213.49 888.29 223.28C912.3 233.79 935.65 248.53 957.72 267.08C980.22 286.04 1001.8 306.55 1022.67 326.39C1024.89 328.51 1027.12 330.62 1029.34 332.73C1074.14 375.36 1116.46 415.63 1165.75 446.84C1183.67 458.2 1202.51 469.06 1221.75 479.12C1245.75 491.62 1269.57 502.59 1292.6 511.74C1328.77 526.12 1373.79 544.01 1418.3 533.63C1442.41 528.01 1460.8 515.53 1474.51 495.48C1500.93 457.18 1505.63 398.67 1509.42 351.66C1510.77 334.84 1512.05 318.96 1514.17 306.12C1514.6 303.47 1515.04 300.81 1515.48 298.13C1519.43 273.94 1523.52 248.93 1530.63 224.52C1540.78 189.41 1561.09 141.8 1600.23 114.38C1611.15 106.73 1622.54 100.85 1635.07 96.39C1652.47 90.13 1671.86 87.19 1692.71 87.64C1711.74 88.06 1732.06 91.29 1753.1 97.25C1788.8 107.36 1822.93 125.73 1851.81 150.37C1884.15 177.91 1911.4 213.13 1932.8 255.07C1942.62 274.32 1951.12 294.89 1958.07 316.22C1964.72 336.65 1969.98 357.83 1973.69 379.17L1972.57 379.36C1956.43 286.37 1912.14 203.22 1851.08 151.23C1822.32 126.7 1788.33 108.4 1752.79 98.33C1708.96 85.91 1668.38 85.61 1635.44 97.45C1623.02 101.87 1611.71 107.71 1600.87 115.3C1562 142.53 1541.81 189.9 1531.71 224.83C1524.62 249.18 1520.54 274.15 1516.59 298.31C1516.15 300.99 1515.71 303.65 1515.28 306.3C1513.16 319.1 1511.89 334.96 1510.54 351.75C1506.75 398.89 1502.03 457.57 1475.44 496.11C1468.83 505.78 1460.93 513.87 1451.95 520.15C1442.29 526.91 1431.06 531.81 1418.56 534.73C1409.53 536.83 1400.19 537.88 1390.39 537.88Z" fill="#A1A1A1" fill-opacity="1.000000" fill-rule="nonzero"/>
		<path id="Vector" d="M1405.66 543.37C1392.19 543.37 1377.93 541.19 1362.56 536.82C1340.81 530.64 1319.93 520.99 1301.51 512.47C1278.23 501.71 1254.37 489.18 1230.59 475.24C1211.46 463.99 1192.72 451.96 1174.88 439.47C1130.94 408.72 1093.41 371.05 1053.66 331.17C1047.16 324.66 1040.43 317.92 1033.77 311.29C1010.34 288.01 990.32 268.81 968.84 250.8C925.55 214.56 877.58 194.92 826.26 192.43C761.77 189.3 692.69 212.19 620.94 260.46C585.3 284.44 550.21 313.84 522.13 343.24C500.97 365.39 484.43 389.51 466.93 415.04C464.76 418.2 462.58 421.37 460.39 424.55C456.49 430.22 451.32 437.69 445.99 445.18C423.54 476.77 394.22 509.29 346.93 510.96C345.45 511 343.97 511.03 342.49 511.03C305.56 511.03 267.85 496.42 229.28 480.11L226.87 479.08C207.77 470.93 189.72 463.23 173.01 457.63C110.05 436.51 49.16 418.68 3.15 405.52L3.47 404.36C49.5 417.54 110.41 435.37 173.39 456.49C190.14 462.11 208.21 469.82 227.34 477.98L229.75 479C269.74 495.91 308.79 511 346.88 509.76C393.66 508.12 422.73 475.84 445.01 444.49C450.34 437 455.5 429.54 459.4 423.87C461.59 420.69 463.77 417.52 465.94 414.36C483.47 388.79 500.04 364.64 521.26 342.42C549.39 312.95 584.56 283.49 620.27 259.46C653.42 237.16 686.57 220.04 718.82 208.56C755.82 195.4 791.98 189.57 826.31 191.23C877.9 193.74 926.12 213.47 969.61 249.88C991.12 267.91 1011.16 287.13 1034.62 310.43C1041.28 317.06 1048.01 323.8 1054.51 330.32C1094.22 370.16 1131.72 407.79 1175.56 438.48C1193.38 450.95 1212.1 462.97 1231.18 474.2C1254.93 488.13 1278.77 500.63 1302.01 511.38C1338.5 528.25 1383.91 549.24 1429.1 539.79C1453.81 534.63 1472.31 522.07 1485.67 501.41C1511.76 461.37 1513.33 399.57 1514.59 349.91C1515 333.71 1515.39 318.4 1516.63 306.07L1516.66 305.79C1519.45 278.17 1522.33 249.62 1528.95 221.45C1534.67 196.88 1542.65 174.78 1552.66 155.78C1563.94 134.35 1577.85 116.81 1594 103.63C1604.81 94.82 1616.24 87.81 1628.95 82.22C1663.29 67.03 1705.37 64.69 1750.65 75.45C1768.87 79.78 1786.84 86.33 1804.07 94.94C1821.4 103.59 1837.62 114.14 1852.29 126.29C1885.41 153.69 1912.87 189.25 1933.89 231.99C1952.79 270.4 1965.99 314.21 1972.05 358.69L1970.87 358.85C1957.89 263.65 1914.39 179.22 1851.52 127.21C1822.12 102.85 1787.14 85.35 1750.38 76.62C1705.36 65.92 1663.54 68.24 1629.44 83.33C1616.83 88.87 1605.49 95.82 1594.76 104.57C1564.6 129.17 1542.25 169.69 1530.12 221.73C1523.52 249.83 1520.64 278.34 1517.86 305.92L1517.83 306.2C1516.59 318.49 1516.2 333.77 1515.79 349.95C1514.52 399.76 1512.95 461.74 1486.68 502.07C1480.24 512.03 1472.39 520.3 1463.36 526.63C1453.62 533.46 1442.18 538.29 1429.35 540.97C1421.7 542.57 1413.83 543.37 1405.66 543.37Z" fill="#A1A1A1" fill-opacity="1.000000" fill-rule="nonzero"/>
		<path id="Vector" d="M347.8 550.27C331.29 550.27 313.3 547.06 293.01 540.49C272.84 533.96 252.9 524.95 234.35 516.19C230.99 514.6 227.65 513.01 224.34 511.42C207.86 503.55 192.29 496.12 177.75 490.32C119.73 467.24 64.43 446.48 10.95 426.42L2.09 423.1L2.54 421.91L11.4 425.23C64.88 445.3 120.19 466.05 178.21 489.15C192.8 494.95 208.39 502.4 224.89 510.28C228.2 511.86 231.53 513.46 234.89 515.05C272.97 533.03 313.43 550.46 352.67 548.91C400.9 546.9 429.81 509.34 449.6 476.85C454.67 468.54 459.56 460.26 463.24 453.98C465.28 450.51 467.3 447.05 469.32 443.6C486.04 414.97 501.84 387.94 522.61 362.45C550.03 328.8 585.16 294.6 621.54 266.14C655.28 239.75 689.34 218.89 722.76 204.15C761.09 187.25 798.53 178.47 834.04 178.08C887.47 177.28 937.09 195.65 981.52 232.68C1006.15 253.23 1028.23 275.45 1046.57 294.49C1056.56 304.85 1066.55 315.47 1076.21 325.73C1110.4 362.09 1145.75 399.67 1185.4 430.12C1203.11 443.72 1221.69 456.9 1240.65 469.29C1264.1 484.59 1287.91 498.63 1311.43 511.03C1348.2 530.4 1393.95 554.52 1439.92 545.96C1465.21 541.25 1483.84 528.62 1496.85 507.35C1522.58 465.49 1520.85 400.31 1519.45 347.93C1519.03 332.44 1518.64 317.81 1519.11 306.03C1520.17 279.48 1521.76 248.62 1527.28 218.39C1531.93 192.77 1538.96 169.6 1548.16 149.52C1558.56 126.79 1571.9 107.75 1587.78 92.9C1598.31 83.06 1610.11 74.7 1622.85 68.07C1641.03 58.57 1661.43 52.6 1683.48 50.32C1704.14 48.19 1725.92 49.31 1748.21 53.65C1767.01 57.32 1785.54 63.34 1803.29 71.57C1821.15 79.84 1837.8 90.15 1852.77 102.21C1870.04 116.1 1885.91 132.49 1899.95 150.95C1913.26 168.43 1925.05 187.93 1935 208.9C1953.62 248.14 1965.87 292.86 1970.43 338.22L1969.17 338.35C1959.38 240.93 1916.66 155.22 1851.98 103.2C1822.35 79.35 1785.42 62.2 1747.97 54.9C1701.66 45.87 1658.6 50.82 1623.44 69.19C1610.8 75.78 1599.1 84.06 1588.65 93.82C1558.71 121.8 1538.48 163.79 1528.53 218.62C1523.02 248.76 1521.43 279.57 1520.38 306.08C1519.91 317.82 1520.3 332.43 1520.72 347.9C1521.4 373.74 1522.18 403.03 1519.57 431.34C1516.53 464.19 1509.45 489.28 1497.93 508.02C1491.66 518.27 1483.87 526.71 1474.78 533.11C1464.97 540.01 1453.31 544.76 1440.15 547.2C1433.51 548.44 1426.87 549 1420.28 549C1380.77 549 1342.5 528.83 1310.84 512.15C1287.29 499.73 1263.43 485.67 1239.96 470.35C1220.98 457.94 1202.37 444.74 1184.63 431.12C1144.9 400.61 1109.51 362.99 1075.29 326.6C1065.63 316.33 1055.65 305.72 1045.67 295.37C1027.34 276.35 1005.29 254.16 980.71 233.65C936.52 196.82 887.19 178.56 834.06 179.34C750.62 180.28 672.86 227.6 622.32 267.14C586.02 295.54 550.96 329.66 523.6 363.24C502.89 388.66 487.11 415.65 470.42 444.23C468.4 447.68 466.37 451.14 464.34 454.61C460.65 460.9 455.76 469.19 450.69 477.5C442.38 491.14 429.33 511 412.06 525.88C403.67 533.11 394.74 538.79 385.52 542.77C375.24 547.2 364.2 549.69 352.72 550.17C351.09 550.24 349.45 550.27 347.8 550.27Z" fill="#A1A1A1" fill-opacity="1.000000" fill-rule="nonzero"/>
		<path id="Vector" d="M353.11 589.51C336.57 589.51 318.62 586.05 298.43 578.98C277.53 571.66 256.86 561.37 239.41 552.27C234.04 549.47 228.69 546.63 223.51 543.88C209.04 536.2 195.37 528.94 182.48 523.02C136.18 501.74 90.19 480.96 45.71 460.87C31 454.22 15.79 447.35 1.04 440.67L1.6 439.45C16.34 446.13 31.55 453 46.27 459.64C90.75 479.74 136.74 500.52 183.04 521.8C195.96 527.74 209.65 535.01 224.14 542.7C229.32 545.45 234.67 548.29 240.03 551.09C276.23 569.96 318.23 589.93 358.44 588.05C407.81 585.69 435.54 544.68 454.19 509.22C458.97 500.13 463.59 491.01 467.08 484.08C468.88 480.52 470.66 476.97 472.44 473.42C488.44 441.53 503.54 411.41 523.97 382.48C550.53 344.85 585.63 305.91 622.8 272.83C674.57 226.96 754.57 171 841.75 164.93C897.2 160.97 948.23 177.98 993.42 215.49C1013.73 232.35 1033.81 251.8 1058.54 278.56C1071.04 292.08 1083.43 306.09 1095.43 319.64C1126.63 354.89 1158.88 391.35 1195.23 421.78C1212.84 436.52 1231.3 450.86 1250.11 464.39C1272.88 480.77 1296.68 496.34 1320.86 510.69C1357.99 532.59 1404.21 559.86 1450.72 552.14C1476.23 548 1495.5 534.93 1508.01 513.32C1533.4 469.56 1527.95 397.98 1523.97 345.71C1522.85 331.04 1521.8 317.19 1521.59 306.01C1521.13 281.17 1521.17 248.42 1525.62 215.35C1533.29 158.03 1552.12 113.22 1581.57 82.18C1591.89 71.24 1603.73 61.74 1616.75 53.94C1635.27 42.82 1656.17 35.34 1678.87 31.71C1700.26 28.3 1722.76 28.35 1745.77 31.87C1765.18 34.91 1784.27 40.42 1802.5 48.24C1820.91 56.14 1837.99 66.2 1853.26 78.15C1870.91 91.95 1887.03 108.41 1901.18 127.05C1914.59 144.72 1926.34 164.5 1936.11 185.84C1954.44 225.9 1965.75 271.52 1968.81 317.77L1967.47 317.86C1960.88 218.22 1918.95 131.23 1852.43 79.21C1822.28 55.6 1784.32 39.26 1745.57 33.2C1697.79 25.88 1653.49 33.45 1617.44 55.09C1604.53 62.83 1592.79 72.25 1582.55 83.1C1553.29 113.94 1534.58 158.49 1526.95 215.53C1522.51 248.51 1522.48 281.2 1522.94 305.99C1523.14 317.13 1524.2 330.96 1525.31 345.61C1527.37 372.63 1529.7 403.25 1528.36 433.15C1526.81 467.97 1520.53 494.41 1509.18 513.99C1503.06 524.55 1495.34 533.18 1486.2 539.63C1476.3 546.62 1464.44 551.27 1450.95 553.47C1430.02 556.94 1407.5 553.82 1382.09 543.93C1360.01 535.34 1338.85 522.86 1320.18 511.85C1295.97 497.48 1272.14 481.88 1249.32 465.49C1230.5 451.93 1212.01 437.57 1194.38 422.81C1157.94 392.32 1125.66 355.83 1094.43 320.54C1082.43 306.99 1070.04 292.98 1057.56 279.47C1032.87 252.76 1012.83 233.35 992.57 216.53C947.64 179.23 896.94 162.33 841.84 166.26C755.04 172.31 675.3 228.1 623.69 273.83C586.59 306.85 551.56 345.7 525.06 383.25C504.69 412.1 489.6 442.18 473.63 474.02C471.85 477.57 470.07 481.13 468.28 484.68C464.78 491.62 460.16 500.75 455.37 509.84C436.56 545.62 408.55 587 358.5 589.39C356.72 589.47 354.92 589.51 353.11 589.51Z" fill="#A1A1A1" fill-opacity="1.000000" fill-rule="nonzero"/>
		<path id="Vector" d="M358.51 628.76C313.34 628.76 265.93 601.03 223.91 576.44C210.99 568.88 198.8 561.75 187.21 555.71L0 458.25L0.65 457L187.86 554.46C199.48 560.51 211.69 567.66 224.62 575.22C268.27 600.76 317.74 629.71 364.22 627.2C414.68 624.48 441.26 580.01 458.78 541.59C464.51 529.02 470.05 516.23 475.4 503.86C490.04 470.04 505.17 435.06 525.32 402.51C541.31 376.66 561.18 349.55 582.78 324.12C606.47 296.22 631.84 270.62 658.17 248.04C687.21 223.14 716.73 202.54 745.91 186.82C778.2 169.44 810 158.08 840.45 153.08C901.44 143.06 956.91 158.27 1005.32 198.29C1045.55 231.54 1079.74 272.66 1112.81 312.42C1141.59 347.04 1171.35 382.82 1205.05 413.42C1243.98 448.75 1286.11 481.36 1330.28 510.34C1367.49 534.75 1413.8 565.13 1461.53 558.31C1501.85 552.54 1525.15 525.58 1532.79 475.89C1539.28 433.62 1533.1 383.48 1528.14 343.19C1526.45 329.46 1524.85 316.49 1524.07 305.97C1519.74 248 1522.5 200.14 1532.5 159.67C1538.74 134.41 1547.94 111.9 1559.86 92.76C1573.16 71.38 1590.25 53.55 1610.64 39.78C1628.28 27.87 1648.16 19.21 1669.73 14.06C1690.27 9.16 1711.89 7.51 1733.99 9.18C1777.46 12.45 1819.99 28.39 1853.73 54.06C1871.77 67.79 1888.14 84.3 1902.4 103.14C1915.92 120.99 1927.62 141.05 1937.2 162.75C1955.24 203.63 1965.6 250.16 1967.16 297.3L1965.75 297.35C1962.43 196.97 1920.23 106.44 1852.87 55.19C1781.34 0.76 1679.8 -5.23 1611.43 40.95C1543.7 86.7 1515.58 173.35 1525.47 305.87C1526.25 316.35 1527.85 329.3 1529.54 343.02C1534.51 383.39 1540.7 433.64 1534.18 476.1C1530.62 499.23 1523.48 517.81 1512.95 531.35C1507.03 538.95 1499.89 545.17 1491.73 549.82C1483.05 554.77 1472.96 558.1 1461.73 559.7C1457.14 560.36 1452.48 560.69 1447.73 560.69C1430.43 560.69 1412.01 556.32 1391.82 547.46C1369.08 537.48 1347.13 523.09 1329.5 511.52C1285.27 482.5 1243.07 449.85 1204.1 414.46C1170.31 383.81 1140.53 347.97 1111.72 313.32C1078.68 273.61 1044.55 232.54 1004.42 199.37C956.33 159.63 901.24 144.52 840.67 154.47C718.14 174.61 591.93 297.54 526.51 403.25C506.42 435.71 491.3 470.64 476.68 504.42C471.33 516.8 465.79 529.59 460.05 542.17C448.42 567.69 436.93 585.95 423.9 599.66C415.76 608.21 406.93 614.95 397.66 619.7C387.35 624.97 376.12 627.97 364.28 628.61C362.37 628.71 360.44 628.76 358.51 628.76Z" fill="#A1A1A1" fill-opacity="1.000000" fill-rule="nonzero"/>
	</g>
</svg>
