<svg width="1368.934082" height="700.379883" viewBox="0 0 1368.93 700.38" fill="none" xmlns="http://www.w3.org/2000/svg" xmlns:xlink="http://www.w3.org/1999/xlink">
	<desc>
			Created with Pixso.
	</desc>
	<defs/>
	<g opacity="0.300000">
		<path id="Vector" d="M523.8 700.38C518.91 700.38 514.15 699.8 509.58 698.66C499.99 696.27 491.12 691.35 483.24 684.04C474.76 676.19 467.33 665.5 461.14 652.25C448.71 625.63 442.49 593.75 436.47 562.91C435.29 556.86 434.07 550.6 432.83 544.53C424.36 503.13 413.63 466.86 400.02 433.66C372.87 367.43 334.69 310.91 289.6 270.21C237.46 223.14 181.4 199.69 131.75 204.19C102.57 206.83 64.01 231.97 46.78 274.9C36.55 300.38 35.72 328.66 44.39 356.67L44.22 356.79C39.67 342.1 37.69 327.37 38.34 313.01C38.92 299.85 41.71 286.97 46.61 274.76C54.41 255.32 67.28 238.1 83.81 224.94C99.1 212.79 116.12 205.32 131.74 203.9C157.73 201.55 185.36 206.77 213.88 219.41C239.73 230.87 265.24 247.88 289.7 269.96C334.81 310.69 373.02 367.24 400.18 433.51C413.8 466.73 424.53 503.02 433.01 544.44C434.25 550.51 435.47 556.78 436.65 562.83C442.66 593.64 448.88 625.5 461.3 652.08C473.31 677.79 489.56 693.37 509.61 698.37C537.37 705.31 571.09 690.81 599.79 659.58C641.16 614.58 669.87 549.08 697.63 485.74C702.5 474.64 707.53 463.16 712.51 452.07C725.45 423.29 742.96 385.99 763.78 352.75C785.06 318.79 806.68 293.83 829.89 276.46C844.09 265.82 859.14 258.66 874.63 255.16C888.93 251.93 904.06 251.73 919.62 254.56C946.3 259.42 975.04 273.14 1007.49 296.5C1071.39 342.5 1135.21 398.34 1197.19 462.46C1256.11 523.41 1313.89 592.37 1368.93 667.43L1368.81 667.64C1254.71 512.04 1133.12 387.26 1007.41 296.75C936.39 245.62 880 239.25 829.97 276.71C779.07 314.82 743.51 383.59 712.67 452.23C707.69 463.31 702.66 474.79 697.79 485.89C670.02 549.26 641.3 614.77 599.9 659.8C586.53 674.36 571.48 685.71 556.39 692.63C548.41 696.28 540.49 698.67 532.83 699.73C529.78 700.16 526.76 700.38 523.8 700.38Z" fill="#A1A1A1" fill-opacity="1.000000" fill-rule="nonzero"/>
		<path id="Vector" d="M528.58 684.59C516.11 684.59 504.56 681.05 494.24 674.07C482.73 666.28 472.8 654.22 464.72 638.22C464 636.8 463.29 635.33 462.61 633.86C450.31 607.35 443.81 575.88 437.53 545.45C436.26 539.3 434.94 532.94 433.61 526.77C425.68 490.01 416.13 457.62 404.41 427.74C402.97 424.06 401.48 420.37 399.97 416.78C372.42 351.12 333.93 295.32 288.66 255.4C236.14 209.13 179.93 186.65 130.36 192.1C101.39 195.33 63.01 220.88 45.7 263.48C35.34 288.99 34.16 317.32 42.31 345.42L42.13 345.53C37.86 330.81 36.11 316.05 36.92 301.68C37.67 288.48 40.57 275.58 45.54 263.33C53.42 243.93 66.24 226.69 82.63 213.47C97.77 201.25 114.71 193.56 130.34 191.82C156.3 188.97 183.96 193.69 212.57 205.85C238.49 216.86 264.12 233.45 288.76 255.15C334.05 295.1 372.56 350.94 400.13 416.63C401.63 420.23 403.13 423.92 404.57 427.6C416.3 457.5 425.85 489.91 433.79 526.68C435.12 532.85 436.44 539.21 437.71 545.37C443.99 575.78 450.48 607.23 462.76 633.7C463.45 635.17 464.16 636.63 464.87 638.05C481.57 671.13 504.51 684.59 528.64 684.59C528.77 684.59 528.9 684.59 529.03 684.59C528.88 684.59 528.73 684.59 528.58 684.59ZM533.72 684.39C556.16 682.67 579.3 669.83 599.16 650.72C641.99 609.34 672.77 545.42 702.55 483.6C703.77 481.05 705 478.51 706.22 475.97C708.92 470.39 712.11 463.78 715.36 457.12C729.97 427.25 747.66 392.5 768.02 361.22C789.69 327.93 811.34 303.23 834.2 285.71C848.25 274.95 863.1 267.37 878.33 263.18C892.44 259.3 907.35 258.2 922.65 259.92C949.08 262.89 977.49 274.14 1009.52 294.32C1040.75 313.96 1066.41 332.46 1090.3 352.52C1124.13 380.96 1156.36 413.74 1183.43 442.04C1246.35 508.04 1308.07 582.99 1366.92 664.8L1366.8 665C1307.96 583.21 1246.23 508.27 1183.31 442.28C1156.26 413.97 1124.03 381.2 1090.21 352.77C1066.32 332.71 1040.67 314.22 1009.45 294.58C939.68 250.62 884.02 247.88 834.29 285.96C782.68 325.53 745.92 395.14 715.52 457.29C712.26 463.95 709.07 470.55 706.38 476.14C705.15 478.68 703.93 481.22 702.7 483.77C672.92 545.61 642.12 609.55 599.26 650.96C588.63 661.19 577.32 669.31 565.65 675.11C554.78 680.49 544.06 683.61 533.72 684.39Z" fill="#A1A1A1" fill-opacity="1.000000" fill-rule="nonzero"/>
		<path id="Vector" d="M533.85 669.16C532.35 669.16 530.86 669.12 529.38 669.02C516.93 668.2 505.4 663.94 495.12 656.35C483.88 648.06 474.14 635.77 466.17 619.83C465.47 618.41 464.76 616.94 464.08 615.47C451.92 589.09 445.15 558.04 438.61 528.02C437.24 521.77 435.83 515.29 434.4 509.01C426.08 472.38 416.28 440.25 404.43 410.77C402.97 407.13 401.45 403.47 399.92 399.91C371.97 334.82 333.17 279.73 287.72 240.6C234.83 195.13 178.45 173.62 128.97 180.03C101.11 183.7 62.84 207.79 44.65 252.02C34.13 277.57 32.6 305.98 40.22 334.18L40.05 334.28C36.05 319.51 34.53 304.72 35.52 290.32C36.42 277.08 39.44 264.15 44.49 251.88C52.45 232.52 65.23 215.27 81.46 201.99C96.46 189.71 113.33 181.81 128.95 179.75C154.88 176.4 182.57 180.61 211.27 192.29C237.25 202.86 263 219.03 287.81 240.35C333.29 279.51 372.11 334.64 400.08 399.76C401.61 403.32 403.13 406.98 404.59 410.63C416.44 440.12 426.25 472.28 434.58 508.93C436.01 515.21 437.42 521.68 438.78 527.94C445.32 557.94 452.08 588.97 464.23 615.31C464.91 616.79 465.62 618.26 466.32 619.67C498.69 684.44 556.04 677.48 598.53 641.87C643.15 604.13 676.31 541.4 708.38 480.75L708.71 480.13C711.81 474.25 715.02 468.17 718.22 462.17C751.95 398.86 789.02 333.8 838.52 294.95C852.42 284.06 867.06 276.07 882.04 271.19C895.97 266.65 910.66 264.66 925.69 265.27C951.91 266.33 979.99 275.12 1011.56 292.14C1044.73 309.96 1069.68 326.34 1092.49 345.26C1124.98 372.26 1156.44 406.39 1184.22 436.49C1246.04 503.89 1306.84 579.81 1364.92 662.15L1364.79 662.35C1306.71 580.02 1245.92 504.11 1184.11 436.72C1156.34 406.62 1124.88 372.5 1092.4 345.5C1069.6 326.59 1044.65 310.22 1011.49 292.4C943.08 255.51 888.14 256.4 838.61 295.19C789.14 334.02 752.08 399.05 718.37 462.34C715.17 468.34 711.96 474.42 708.85 480.3L708.52 480.92C692.54 511.14 676.02 542.4 658.17 570.32C638.12 601.69 618.64 625.17 598.62 642.11C577.67 659.67 554.86 669.16 533.85 669.16Z" fill="#A1A1A1" fill-opacity="1.000000" fill-rule="nonzero"/>
		<path id="Vector" d="M1362.79 659.69C1305.46 576.83 1245.61 499.94 1184.9 431.16C1182.31 428.27 1179.75 425.36 1177.16 422.45C1150.86 392.79 1123.67 362.12 1094.59 338.23C1066.38 315.12 1037.79 300.99 1013.54 290.21C946.6 260.28 892.39 264.8 842.94 304.43C792.17 345.22 752.83 412.96 721.22 467.38C719.32 470.65 717.43 473.92 715.53 477.2C714.13 479.62 712.73 482.04 711.33 484.45C693.33 515.47 676.96 543.21 658.87 568.52C638.21 597.43 618.29 618.6 597.98 633.25C578.94 646.98 558.61 654.24 539.69 654.24C536.25 654.24 532.85 654 529.52 653.52C517.33 651.74 506.06 646.74 496 638.66C485.02 629.85 475.48 617.33 467.62 601.45C466.92 600.02 466.22 598.55 465.54 597.07C453.52 570.83 446.49 540.22 439.69 510.62C438.23 504.25 436.71 497.65 435.18 491.25C426.46 454.74 416.41 422.86 404.45 393.79C402.96 390.18 401.42 386.56 399.87 383.02C371.52 318.51 332.41 264.13 286.77 225.78C233.5 181.12 176.97 160.58 127.58 167.94C93.81 173.07 59.29 202.91 43.62 240.5C32.94 266.1 31.04 294.6 38.14 322.91L37.96 323.01C34.25 308.19 32.95 293.35 34.11 278.92C35.18 265.63 38.33 252.65 43.45 240.35C51.5 221.05 64.24 203.8 80.31 190.47C95.16 178.14 111.94 170.04 127.56 167.66C153.45 163.8 181.18 167.52 209.97 178.71C236.01 188.83 261.88 204.59 286.86 225.53C332.53 263.91 371.66 318.31 400.03 382.87C401.58 386.4 403.12 390.03 404.61 393.64C416.58 422.73 426.64 454.62 435.36 491.15C436.89 497.56 438.41 504.15 439.87 510.53C446.67 540.11 453.69 570.7 465.7 596.91C466.38 598.39 467.07 599.86 467.77 601.28C501.56 669.58 558.99 661.05 597.9 632.99C644.32 599.51 679.84 538.29 711.19 484.26C712.59 481.85 713.99 479.43 715.39 477.01C717.29 473.74 719.18 470.46 721.08 467.2C739.12 436.13 756.94 405.94 776.53 378.12C799.05 346.13 820.75 321.94 842.85 304.18C856.6 293.16 871.03 284.75 885.75 279.19C899.51 273.99 913.97 271.1 928.74 270.61C954.78 269.74 982.54 276.06 1013.6 289.94C1037.85 300.72 1066.46 314.86 1094.68 337.99C1123.78 361.89 1150.97 392.56 1177.28 422.22C1179.86 425.14 1182.43 428.04 1185.01 430.94C1245.73 499.73 1305.59 576.62 1362.92 659.49L1362.79 659.69Z" fill="#A1A1A1" fill-opacity="1.000000" fill-rule="nonzero"/>
		<path id="Vector" d="M1360.78 657.03C1303.13 572.06 1244.22 494.2 1185.68 425.6C1182.18 421.5 1178.6 417.27 1175.13 413.18C1150.31 383.89 1124.65 353.6 1096.78 330.97C1068.94 308.45 1040.12 296.62 1015.58 288.03C950.27 264.92 896.79 273.07 847.26 313.66C800.02 352.52 763.01 410.96 727.21 467.47L723.28 473.67C720.18 478.57 716.97 483.64 713.81 488.61C677.98 544.79 642.11 597.45 597.34 624.39C586.47 630.92 575.32 635.45 564.18 637.86C552.21 640.43 540.59 640.47 529.64 637.96C517.73 635.24 506.71 629.51 496.88 620.95C486.17 611.63 476.82 598.88 469.07 583.06C468.38 581.63 467.68 580.15 467.01 578.68C455.14 552.59 447.85 522.43 440.81 493.27C439.24 486.76 437.61 480.03 435.97 473.49C426.85 437.09 416.54 405.47 404.47 376.82C402.96 373.24 401.39 369.65 399.82 366.14C371.07 302.2 331.65 248.54 285.83 210.97C232.18 167.12 175.49 147.54 126.19 155.86C92.73 161.62 58.36 191.67 42.61 228.93C31.75 254.6 29.48 283.21 36.05 311.66L35.87 311.76C32.43 296.87 31.37 281.98 32.71 267.5C33.95 254.16 37.22 241.13 42.45 228.78C50.58 209.55 63.28 192.32 79.17 178.95C93.88 166.57 110.57 158.27 126.16 155.58C152.03 151.22 179.78 154.44 208.66 165.14C234.76 174.82 260.76 190.15 285.92 210.72C331.77 248.32 371.21 302.01 399.97 365.99C401.55 369.49 403.11 373.09 404.62 376.67C416.71 405.33 427.02 436.97 436.14 473.39C437.79 479.93 439.41 486.66 440.98 493.17C448.02 522.32 455.3 552.47 467.16 578.52C467.83 579.99 468.53 581.46 469.22 582.89C502.2 650.25 556.99 648.36 597.27 624.13C642 597.21 677.85 544.57 713.67 488.41C716.83 483.44 720.04 478.38 723.14 473.48L727.07 467.27C744.64 439.54 762.81 410.85 782.54 384.17C804.89 353.95 826.03 330.8 847.16 313.41C860.78 302.26 875 293.43 889.46 287.19C903.04 281.32 917.28 277.54 931.77 275.95C957.7 273.1 985.13 276.96 1015.62 287.75C1040.17 296.35 1069.02 308.18 1096.87 330.72C1124.76 353.36 1150.42 383.65 1175.25 412.95C1178.71 417.04 1182.3 421.27 1185.8 425.38C1244.34 493.98 1303.26 571.85 1360.91 656.83L1360.78 657.03Z" fill="#A1A1A1" fill-opacity="1.000000" fill-rule="nonzero"/>
		<path id="Vector" d="M1358.78 654.38C1301.62 568.46 1243.65 489.62 1186.47 420.05C1182.18 414.82 1177.77 409.38 1173.51 404.12C1150.03 375.15 1125.75 345.19 1098.97 323.71C1071.27 301.57 1042.31 292.15 1017.63 285.84C954.13 269.38 901.37 281.16 851.58 322.9C808.14 359.48 772.46 411.33 737.97 461.46C734.34 466.74 730.58 472.2 726.92 477.48C722.63 483.69 719.35 488.4 716.28 492.77C699.88 516.12 680.35 543.01 659.86 565.38C638.15 589.08 617.49 605.49 596.7 615.53C585.77 620.81 574.66 624.15 563.68 625.43C551.89 626.81 540.47 625.8 529.75 622.41C518.14 618.75 507.37 612.29 497.76 603.24C487.33 593.42 478.17 580.44 470.53 564.67C469.84 563.24 469.15 561.77 468.48 560.28C456.76 534.38 449.24 504.68 441.95 475.97C440.27 469.31 438.52 462.42 436.76 455.73C427.22 419.43 416.67 388.07 404.48 359.85C402.95 356.3 401.36 352.74 399.77 349.26C370.62 285.89 330.89 232.95 284.88 196.16C230.87 153.11 174.02 134.51 124.8 143.78C96.79 149.17 60.21 173.99 41.63 217.3C30.58 243.05 27.93 271.79 33.96 300.41L33.78 300.49C30.63 285.53 29.8 270.57 31.33 256.04C32.74 242.63 36.15 229.54 41.47 217.15C49.69 198 62.34 180.79 78.06 167.39C92.62 154.98 109.21 146.49 124.77 143.5C150.61 138.63 178.39 141.35 207.36 151.57C233.53 160.8 259.64 175.72 284.97 195.91C331.01 232.72 370.76 285.69 399.92 349.1C401.52 352.58 403.11 356.14 404.64 359.69C416.83 387.93 427.39 419.31 436.93 455.63C438.69 462.32 440.44 469.2 442.13 475.86C449.41 504.57 456.93 534.24 468.64 560.12C469.3 561.6 469.99 563.08 470.68 564.5C498.11 621.14 545.2 640.12 596.64 615.26C643.22 592.75 681.22 542.3 716.15 492.56C719.22 488.19 722.5 483.48 726.79 477.27C730.45 471.99 734.2 466.53 737.83 461.26C754.82 436.57 772.38 411.05 791.11 387.15C812.29 360.12 832.04 339.02 851.49 322.65C864.97 311.35 878.99 302.11 893.17 295.2C906.6 288.65 920.61 283.97 934.82 281.29C960.68 276.42 987.78 277.81 1017.66 285.56C1042.35 291.87 1071.34 301.3 1099.06 323.45C1125.86 344.94 1150.14 374.91 1173.63 403.9C1177.89 409.15 1182.3 414.59 1186.59 419.82C1243.77 489.41 1301.75 568.25 1358.91 654.17L1358.78 654.38Z" fill="#A1A1A1" fill-opacity="1.000000" fill-rule="nonzero"/>
		<path id="Vector" d="M1356.77 651.72C1300.11 564.86 1243.07 485.04 1187.26 414.49C1182.51 408.49 1177.63 402.19 1172.92 396.1C1150.44 367.08 1127.21 337.08 1101.16 316.44C1073.43 294.57 1044.41 287.6 1019.67 283.66C959.05 273.74 905.48 289.6 855.9 332.13C816.43 366.15 782.59 411.67 749.86 455.68C743.25 464.57 736.41 473.77 729.77 482.53C725.7 487.89 722.1 492.6 718.76 496.93C703.19 517.01 682.48 542.76 660.35 563.81C638.11 584.96 617.08 598.98 596.05 606.68C573.12 615.07 550.23 615.14 529.86 606.86C518.54 602.26 508.03 595.08 498.63 585.53C488.47 575.21 479.51 562.01 471.98 546.29C471.29 544.86 470.61 543.38 469.94 541.9C458.39 516.19 450.63 486.98 443.12 458.74C441.31 451.91 439.43 444.84 437.54 437.98C427.59 401.78 416.78 370.67 404.5 342.88C402.94 339.36 401.33 335.83 399.71 332.39C370.17 269.59 330.13 217.36 283.93 181.35C229.55 139.12 172.54 121.49 123.4 131.71C90.11 138.78 56.86 168.49 40.68 205.63C29.41 231.47 26.37 260.36 31.87 289.17L31.69 289.24C28.82 274.19 28.23 259.15 29.95 244.56C31.54 231.07 35.09 217.92 40.52 205.47C48.82 186.41 61.43 169.24 76.96 155.83C91.37 143.39 107.85 134.72 123.38 131.42C149.18 126.06 176.99 128.27 206.05 138C232.28 146.79 258.51 161.29 284.02 181.1C330.25 217.13 370.3 269.39 399.87 332.23C401.49 335.67 403.1 339.2 404.65 342.72C416.94 370.53 427.75 401.65 437.71 437.87C439.61 444.73 441.48 451.8 443.3 458.63C450.8 486.86 458.56 516.05 470.1 541.74C470.76 543.22 471.45 544.7 472.13 546.13C499.09 602.4 545.4 624.93 596.01 606.4C642.14 589.51 682.21 543.7 718.63 496.71C721.98 492.39 725.58 487.68 729.64 482.32C736.29 473.56 743.12 464.37 749.73 455.48C782.46 411.45 816.31 365.93 855.81 331.89C869.17 320.43 882.98 310.78 896.87 303.21C910.16 295.97 923.94 290.4 937.85 286.65C963.71 279.67 990.48 278.6 1019.69 283.38C1044.44 287.32 1073.5 294.3 1101.25 316.19C1127.31 336.85 1150.56 366.86 1173.04 395.89C1177.76 401.98 1182.63 408.27 1187.38 414.28C1243.21 484.83 1300.24 564.66 1356.9 651.53L1356.77 651.72Z" fill="#A1A1A1" fill-opacity="1.000000" fill-rule="nonzero"/>
		<path id="Vector" d="M1354.77 649.07C1298.61 561.25 1242.52 480.45 1188.05 408.93C1183.04 402.36 1177.89 395.4 1172.92 388.67C1151.27 359.41 1128.88 329.15 1103.35 309.18C1075.51 287.5 1046.46 283.01 1021.71 281.47C963.39 277.59 910.56 297.19 860.23 341.37C824.93 372.5 793.46 411.91 763.02 450.01C752.56 463.12 742.67 475.49 732.62 487.58C728.53 492.5 724.81 496.91 721.23 501.08C698.17 527.96 678.98 547.39 660.84 562.23C638.08 580.86 616.68 592.5 595.41 597.82C587.16 599.88 578.94 600.91 570.87 600.91C556.56 600.91 542.72 597.68 529.97 591.3C506.91 579.74 487.89 558.41 473.43 527.9C472.75 526.46 472.07 524.98 471.41 523.5C460.04 498.01 452.06 469.33 444.34 441.58C442.38 434.55 440.36 427.28 438.33 420.22C427.95 384.1 416.89 353.25 404.52 325.9C402.94 322.42 401.31 318.92 399.66 315.51C369.72 253.28 329.37 201.77 282.99 166.54C228.23 125.12 171.06 108.45 122.02 119.62C88.58 127.39 56.29 156.53 39.76 193.87C28.27 219.82 24.83 248.88 29.79 277.91L29.61 277.98C27.02 262.82 26.67 247.7 28.59 233.03C30.36 219.45 34.07 206.22 39.61 193.71C48 174.75 60.55 157.64 75.89 144.23C90.14 131.78 106.51 122.94 121.99 119.34C147.76 113.47 175.6 115.19 204.75 124.43C231.04 132.78 257.4 146.86 283.08 166.29C329.49 201.54 369.86 253.08 399.82 315.34C401.46 318.76 403.1 322.25 404.67 325.74C417.05 353.1 428.12 383.97 438.5 420.1C440.54 427.17 442.56 434.44 444.51 441.47C452.23 469.2 460.2 497.88 471.57 523.34C472.23 524.82 472.9 526.3 473.58 527.74C500.58 584.71 544.97 610.15 595.38 597.54C643.37 585.53 685.87 541.93 721.12 500.86C724.69 496.69 728.41 492.27 732.5 487.35C742.55 475.27 752.44 462.9 762.9 449.79C793.34 411.68 824.82 372.27 860.13 341.12C873.39 329.48 887 319.42 900.59 311.21C913.74 303.26 927.31 296.8 940.89 291.99C966.81 282.83 993.25 279.29 1021.72 281.19C1046.49 282.72 1075.56 287.22 1103.43 308.92C1128.99 328.91 1151.38 359.18 1173.04 388.45C1178.02 395.19 1183.17 402.14 1188.17 408.71C1242.65 480.24 1298.74 561.04 1354.9 648.87L1354.77 649.07Z" fill="#A1A1A1" fill-opacity="1.000000" fill-rule="nonzero"/>
		<path id="Vector" d="M1352.76 646.41C1296.32 556.38 1242.71 476.88 1188.84 403.37C1183.69 396.36 1178.64 389.2 1173.28 381.62C1152.32 351.98 1130.68 321.33 1105.54 301.91C1077.35 280.24 1047.03 278.44 1023.76 279.29C968.08 281.06 916.01 304.39 864.55 350.61C833.67 378.48 805.17 411.94 777.6 444.31C763.11 461.32 749.42 477.38 735.47 492.63C731.33 497.16 727.48 501.28 723.71 505.24C700.33 529.76 680.5 547.36 661.32 560.65C638.03 576.79 616.27 586.05 594.77 588.96C583.72 590.46 572.75 590.17 562.16 588.12C550.95 585.95 540.15 581.78 530.08 575.74C507.76 562.33 489.19 540.06 474.88 509.52C474.21 508.07 473.53 506.59 472.88 505.12C461.7 479.89 453.52 451.75 445.6 424.53C443.49 417.27 441.31 409.76 439.11 402.46C428.3 366.42 416.99 335.83 404.53 308.94C402.93 305.48 401.28 302.01 399.61 298.63C369.27 236.98 328.62 186.18 282.05 151.74C239.07 120.07 194.74 103.55 154.1 103.55C142.61 103.55 131.42 104.87 120.63 107.54C87.59 115.87 55.51 145.12 38.88 182.06C27.15 208.13 23.28 237.39 27.71 266.66L27.52 266.73C25.21 251.45 25.12 236.22 27.24 221.47C29.2 207.79 33.06 194.47 38.72 181.9C47.21 163.06 59.69 146.02 74.84 132.62C89.14 119.98 104.96 111.21 120.59 107.27C146.33 100.9 174.21 102.11 203.44 110.87C229.8 118.77 256.28 132.43 282.13 151.48C328.73 185.95 369.41 236.77 399.77 298.46C401.43 301.84 403.09 305.31 404.69 308.77C417.15 335.68 428.47 366.29 439.29 402.34C441.48 409.64 443.67 417.15 445.78 424.42C453.69 451.62 461.86 479.75 473.04 504.95C473.69 506.43 474.36 507.91 475.04 509.36C501.79 566.45 545.42 595.36 594.75 588.68C644.67 581.91 689.83 540.41 723.6 505.01C727.37 501.05 731.22 496.92 735.36 492.39C749.31 477.15 763 461.09 777.48 444.08C805.06 411.71 833.57 378.24 864.45 350.36C890.95 326.57 916.94 309.22 943.94 297.34C969.97 285.88 996.08 279.88 1023.76 279C1039.55 278.42 1052.43 279.43 1064.3 282.16C1079.63 285.68 1093.15 292.06 1105.63 301.66C1130.79 321.09 1152.46 351.75 1173.41 381.41C1178.77 388.99 1183.82 396.15 1188.97 403.16C1242.84 476.67 1296.46 556.17 1352.9 646.22L1352.76 646.41Z" fill="#A1A1A1" fill-opacity="1.000000" fill-rule="nonzero"/>
		<path id="Vector" d="M1350.75 643.76C1294.84 552.73 1242.13 472.29 1189.62 397.82C1184.43 390.45 1179.31 382.86 1173.88 374.82C1153.56 344.71 1132.56 313.57 1107.73 294.65C1079.31 273.07 1049.02 273.94 1025.8 277.1C973.26 284 921.93 311.07 868.87 359.84C842.73 383.99 817.83 411.62 793.76 438.35C774.73 459.47 756.76 479.43 738.32 497.67C734.15 501.79 730.07 505.74 726.18 509.39C702.75 531.39 681.7 547.63 661.8 559.05C637.99 572.73 615.85 579.61 594.13 580.09C583.07 580.33 572.15 578.84 561.65 575.66C550.65 572.33 540.07 567.11 530.19 560.15C508.64 544.97 490.51 521.75 476.33 491.13C475.67 489.68 475 488.2 474.34 486.71C463.37 461.79 455.01 434.25 446.93 407.61C444.64 400.07 442.28 392.27 439.9 384.69C428.64 348.72 417.08 318.39 404.55 291.95C402.93 288.53 401.25 285.09 399.56 281.74C368.82 220.66 327.86 170.58 281.1 136.91C225.6 97.12 168.11 82.39 119.24 95.45C86.63 104.32 54.76 133.64 38.04 170.16C26.04 196.37 21.75 225.84 25.62 255.41L25.44 255.46C23.42 240.05 23.57 224.7 25.9 209.85C28.06 196.05 32.09 182.65 37.88 170C46.45 151.29 58.87 134.34 73.82 120.97C87.95 108.32 103.64 99.4 119.2 95.17C144.91 88.3 172.82 89.01 202.14 97.29C228.56 104.75 255.16 117.99 281.19 136.66C327.97 170.34 368.95 220.45 399.71 281.57C401.4 284.92 403.08 288.36 404.7 291.79C417.24 318.23 428.81 348.58 440.07 384.57C442.45 392.15 444.81 399.95 447.1 407.49C455.18 434.11 463.54 461.65 474.5 486.55C475.15 488.03 475.82 489.52 476.49 490.96C503.52 549.33 545.3 580.89 594.12 579.8C633.74 578.93 675.67 556.48 726.08 509.15C729.96 505.49 734.05 501.55 738.21 497.42C756.65 479.19 774.62 459.24 793.65 438.11C817.72 411.38 842.62 383.75 868.77 359.59C895.52 335 921.1 316.39 946.97 302.68C973.18 288.79 998.96 280.33 1025.79 276.81C1049.03 273.64 1079.36 272.78 1107.81 294.39C1132.67 313.34 1153.68 344.49 1174.02 374.61C1179.43 382.65 1184.56 390.24 1189.75 397.6C1242.27 472.08 1294.97 552.53 1350.89 643.56L1350.75 643.76Z" fill="#A1A1A1" fill-opacity="1.000000" fill-rule="nonzero"/>
		<path id="Vector" d="M1348.75 641.1C1293.35 549.09 1241.56 467.69 1190.41 392.26C1185.22 384.6 1180.09 376.64 1174.67 368.22C1154.92 337.57 1134.51 305.88 1109.93 287.38C1081.24 265.89 1050.99 269.43 1027.85 274.91C978.42 286.4 929.27 316.32 873.19 369.08C852.16 388.95 831.6 410.76 811.73 431.84C787.58 457.45 764.78 481.65 741.17 502.72C736.92 506.52 732.71 510.16 728.66 513.55C704.81 533.49 683.1 547.85 662.29 557.46C650.63 562.84 639.12 566.74 628.09 569.05C616.31 571.51 604.67 572.24 593.48 571.23C570.79 569.18 549.53 560.21 530.31 544.58C509.54 527.69 491.87 503.52 477.79 472.74C477.13 471.29 476.46 469.8 475.81 468.32C465.08 443.77 456.57 416.87 448.34 390.87C445.85 383 443.28 374.86 440.69 366.94C428.98 331.02 417.16 300.95 404.57 274.98C402.92 271.59 401.22 268.18 399.51 264.87C368.37 204.35 327.1 154.99 280.16 122.11C224.29 83.12 166.64 69.37 117.85 83.37C65.6 98.6 14.69 164.4 23.54 244.16L23.35 244.2C21.14 224.25 22.43 204.6 27.21 185.78C31.56 168.6 38.71 152.42 48.46 137.72C57.52 124.04 68.4 112.23 80.77 102.62C92.55 93.48 105.35 86.73 117.81 83.1C143.49 75.73 171.42 75.94 200.83 83.73C227.32 90.74 254.04 103.57 280.24 121.85C327.21 154.76 368.5 204.15 399.66 264.7C401.37 268.02 403.07 271.42 404.72 274.82C417.32 300.79 429.14 330.89 440.86 366.82C443.45 374.74 446.02 382.88 448.51 390.75C456.74 416.75 465.24 443.63 475.97 468.17C476.62 469.64 477.28 471.13 477.94 472.59C505.02 531.74 546.05 566.67 593.5 570.95C633.66 574.58 677.84 555.72 728.56 513.31C732.61 509.92 736.82 506.28 741.07 502.48C764.68 481.41 787.48 457.22 811.62 431.62C831.5 410.53 852.05 388.72 873.09 368.84C929.2 316.06 978.36 286.13 1027.81 274.63C1043.37 270.95 1056.25 269.77 1068.34 270.93C1083.8 272.41 1097.43 277.71 1110.01 287.13C1134.62 305.65 1155.05 337.36 1174.8 368.02C1180.23 376.45 1185.35 384.4 1190.54 392.06C1241.69 467.49 1293.49 548.9 1348.89 640.91L1348.75 641.1Z" fill="#A1A1A1" fill-opacity="1.000000" fill-rule="nonzero"/>
		<path id="Vector" d="M1346.74 638.45C1291.87 545.43 1241 463.09 1191.19 386.7C1186.05 378.8 1180.96 370.52 1175.56 361.75C1156.36 330.52 1136.5 298.22 1112.12 280.12C1082.8 258.44 1051.15 265.52 1029.89 272.72C972.19 292.03 920.48 336.93 877.52 378.31C862.07 393.25 846.67 409.06 831.77 424.36C801.88 455.05 773.65 484.03 744.02 507.76C739.66 511.26 735.33 514.6 731.13 517.71C706.82 535.69 684.46 548.17 662.78 555.86C638.2 564.58 614.67 566.77 592.84 562.37C570.42 557.86 549.42 546.63 530.42 529C510.5 510.51 493.28 485.39 479.24 454.36C478.59 452.9 477.93 451.41 477.28 449.93C466.81 425.83 458.2 399.67 449.87 374.38C447.14 366.09 444.31 357.52 441.47 349.18C429.13 312.81 417.41 283.85 404.59 258.01C402.92 254.65 401.2 251.28 399.47 247.99C367.92 188.05 326.34 139.4 279.22 107.3C222.97 69.13 165.17 56.34 116.45 71.29C64.02 87.6 14.15 152.51 21.45 232.91L21.26 232.94C19.45 213 21.02 193.36 25.92 174.59C30.42 157.39 37.61 141.2 47.31 126.47C56.35 112.74 67.16 100.84 79.45 91.11C91.16 81.84 103.94 74.9 116.42 71.01C142.07 63.14 170.03 62.85 199.53 70.16C226.08 76.73 252.92 89.14 279.29 107.04C326.45 139.16 368.05 187.84 399.61 247.81C401.34 251.1 403.07 254.48 404.74 257.84C417.57 283.69 429.29 312.67 441.64 349.05C444.48 357.39 447.3 365.97 450.03 374.25C458.36 399.54 466.97 425.69 477.44 449.78C478.08 451.26 478.74 452.75 479.4 454.2C506.68 514.53 546.98 552.85 592.87 562.09C634.03 570.39 679.22 555.78 731.05 517.46C735.24 514.35 739.58 511.01 743.93 507.52C773.56 483.79 801.78 454.81 831.66 424.13C846.56 408.83 861.97 393.01 877.41 378.07C906.31 350.25 930.34 329.7 953.05 313.38C979.79 294.18 1004.91 280.79 1029.85 272.44C1045.05 267.29 1058.31 264.96 1070.36 265.31C1085.89 265.77 1099.56 270.53 1112.19 279.86C1136.61 297.99 1156.49 330.31 1175.71 361.56C1181.1 370.33 1186.18 378.6 1191.34 386.5C1241.13 462.89 1292.01 545.24 1346.88 638.26L1346.74 638.45Z" fill="#A1A1A1" fill-opacity="1.000000" fill-rule="nonzero"/>
		<path id="Vector" d="M1344.74 635.79C1290.4 541.77 1240.43 458.47 1191.99 381.14C1186.91 373.03 1181.88 364.47 1176.56 355.4C1157.86 323.53 1138.52 290.59 1114.31 272.85C1084.68 251.23 1053.11 261.17 1031.93 270.53C979.66 293.45 933.03 337.09 881.84 387.55C872.61 396.68 863.27 406.11 854.24 415.23C819.5 450.31 783.59 486.57 746.87 512.81C742.41 516 737.95 519.05 733.61 521.87C709.13 537.74 685.47 548.64 663.27 554.25C638.12 560.62 614.21 560.37 592.2 553.51C570.09 546.63 549.34 533.13 530.53 513.41C511.5 493.45 494.73 467.4 480.69 435.98C480.04 434.52 479.39 433.02 478.75 431.54C468.59 408 459.92 382.7 451.54 358.23C448.52 349.41 445.4 340.3 442.26 331.43C429.43 295.1 417.47 266.38 404.6 241.05C402.91 237.72 401.17 234.38 399.41 231.12C367.47 171.74 325.58 123.81 278.27 92.49C221.66 55.14 163.7 43.32 115.06 59.21C64.29 75.98 13.5 138.61 19.36 221.66L19.18 221.68C17.77 201.74 19.61 182.13 24.64 163.39C29.27 146.17 36.5 129.97 46.15 115.23C63.94 88.03 89.04 67.51 115.02 58.93C140.64 50.56 168.64 49.77 198.22 56.59C224.84 62.72 251.79 74.71 278.35 92.23C325.69 123.57 367.6 171.53 399.56 230.93C401.31 234.2 403.06 237.54 404.75 240.87C417.63 266.22 429.6 294.95 442.42 331.29C445.56 340.16 448.69 349.28 451.71 358.1C460.09 382.56 468.76 407.86 478.91 431.38C479.54 432.87 480.2 434.36 480.85 435.82C508.93 498.68 547.44 539.28 592.24 553.23C633.71 566.15 681.25 555.51 733.53 521.61C737.87 518.79 742.33 515.74 746.79 512.56C783.49 486.33 819.4 450.07 854.13 415C863.16 405.88 872.5 396.45 881.73 387.31C904.14 365.22 930.21 339.89 956.09 318.73C983.16 296.61 1007.95 280.75 1031.88 270.26C1046.94 263.6 1060.19 260.15 1072.39 259.7C1087.76 259.14 1101.89 263.48 1114.39 272.6C1125.23 280.54 1136.15 292.4 1147.76 308.85C1158.02 323.38 1167.51 339.56 1176.69 355.21C1182.02 364.28 1187.05 372.84 1192.13 380.95C1240.56 458.28 1290.54 541.58 1344.88 635.61L1344.74 635.79Z" fill="#A1A1A1" fill-opacity="1.000000" fill-rule="nonzero"/>
		<path id="Vector" d="M1342.73 633.14C1288.93 538.1 1239.88 453.85 1192.78 375.59C1187.79 367.3 1182.85 358.47 1177.62 349.13C1159.41 316.61 1140.57 282.98 1116.5 265.59C1094 249.39 1067.01 250.29 1033.98 268.35C987.81 293.45 946.53 335.43 902.83 379.88C897.39 385.42 891.76 391.14 886.16 396.79C883.97 399.01 881.78 401.23 879.58 403.45C837.95 445.65 794.89 489.27 749.72 517.86C745.16 520.75 740.57 523.5 736.08 526.03C711.07 540.1 686.74 549.06 663.76 552.65C638.03 556.67 613.74 553.98 591.56 544.65C569.8 535.5 549.31 519.75 530.65 497.82C512.58 476.57 496.26 449.58 482.15 417.59C481.51 416.13 480.86 414.64 480.22 413.15C470.45 390.35 461.81 366.07 453.45 342.59C450.07 333.08 446.57 323.24 443.05 313.67C429.73 277.37 417.52 248.9 404.63 224.08C402.91 220.78 401.14 217.47 399.37 214.24C367.02 155.44 324.82 108.22 277.33 77.68C220.35 41.15 162.22 30.3 113.67 47.13C63.83 64.56 13.11 127.7 17.28 210.41L17.09 210.43C16.09 190.48 18.19 170.89 23.36 152.21C28.12 134.97 35.4 118.74 44.99 103.99C62.71 76.74 87.72 55.92 113.63 46.86C139.22 37.99 167.25 36.7 196.91 43.03C223.6 48.72 250.68 60.29 277.4 77.42C324.93 107.98 367.15 155.22 399.51 214.05C401.29 217.29 403.06 220.6 404.77 223.9C417.67 248.73 429.89 277.21 443.21 313.53C446.73 323.1 450.23 332.94 453.62 342.45C461.97 365.92 470.61 390.2 480.38 412.99C481.01 414.48 481.66 415.97 482.3 417.43C510.99 482.48 548.79 526.37 591.61 544.38C633.88 562.15 682.47 555.88 736.02 525.76C740.5 523.23 745.08 520.48 749.65 517.6C794.8 489.02 837.85 445.4 879.48 403.21C881.67 400.99 883.86 398.77 886.06 396.55C891.65 390.9 897.28 385.18 902.72 379.64C946.43 335.18 987.72 293.19 1033.92 268.08C1048.84 259.92 1062.07 255.35 1074.41 254.09C1089.84 252.51 1104.03 256.3 1116.57 265.33C1127.36 273.12 1138.15 285.03 1149.54 301.75C1159.59 316.5 1168.82 333 1177.77 348.95C1183 358.29 1187.93 367.11 1192.92 375.39C1240.02 453.66 1289.06 537.91 1342.88 632.95L1342.73 633.14Z" fill="#A1A1A1" fill-opacity="1.000000" fill-rule="nonzero"/>
		<path id="Vector" d="M1340.73 630.48C1291.62 541.92 1242.11 454.29 1193.56 370.03C1188.62 361.5 1183.73 352.33 1178.54 342.64C1161.68 311.08 1142.56 275.32 1118.68 258.33C1095.93 242.16 1068.89 244.72 1036.03 266.16C996.95 291.56 962.37 328.92 925.76 368.47C914.3 380.86 902.44 393.67 890.48 406.02C869.61 427.64 847.03 450.51 823.36 471.34C798.02 493.66 774.86 510.52 752.57 522.9C747.89 525.51 743.17 527.96 738.55 530.18C713.01 542.48 688.02 549.48 664.26 550.98C637.96 552.64 613.29 547.54 590.92 535.79C549.6 513.83 513.49 467.87 483.6 399.21C482.96 397.74 482.31 396.24 481.68 394.76C472.41 372.96 463.92 349.97 455.71 327.74C451.85 317.27 447.85 306.45 443.83 295.91C430 259.62 417.55 231.4 404.64 207.11C402.9 203.84 401.11 200.56 399.31 197.36C366.58 139.13 324.07 92.63 276.38 62.87C219.03 27.16 160.75 17.28 112.28 35.05C62.14 53.54 12.69 115.85 15.19 199.16L15 199.17C14.4 179.21 16.78 159.65 22.07 141.01C26.98 123.75 34.3 107.51 43.83 92.74C52.82 78.83 63.47 66.67 75.48 56.59C87.15 46.81 99.51 39.47 112.24 34.78C137.8 25.4 165.85 23.61 195.61 29.46C222.35 34.71 249.55 45.86 276.45 62.61C324.17 92.38 366.7 138.91 399.45 197.17C401.25 200.37 403.05 203.65 404.79 206.92C417.7 231.23 430.16 259.46 444 295.77C448.02 306.3 452.01 317.13 455.87 327.6C464.08 349.83 472.57 372.82 481.84 394.6C482.47 396.09 483.12 397.59 483.75 399.05C513.63 467.67 549.7 513.58 590.98 535.52C633.49 557.84 684.5 555.9 738.5 529.91C743.11 527.69 747.82 525.24 752.5 522.64C802.34 494.95 847.94 449.73 890.37 405.79C902.33 393.43 914.18 380.62 925.65 368.24C962.27 328.68 996.85 291.31 1035.94 265.9C1068.86 244.42 1095.94 241.86 1118.77 258.07C1129.46 265.68 1140.07 277.62 1151.23 294.55C1161.06 309.48 1170.02 326.25 1178.68 342.46C1183.88 352.16 1188.77 361.32 1193.71 369.84C1242.25 454.11 1291.76 541.74 1340.87 630.3L1340.73 630.48Z" fill="#A1A1A1" fill-opacity="1.000000" fill-rule="nonzero"/>
		<path id="Vector" d="M1338.72 627.82C1290.36 538.77 1241.79 450.17 1194.36 364.47C1189.56 355.85 1184.81 346.52 1179.79 336.65C1163.34 304.36 1144.69 267.77 1120.88 251.06C1097.85 234.91 1070.76 239.14 1038.06 263.96C1003.82 289.93 972.35 326.6 941.92 362.07C926.66 379.85 910.88 398.24 894.8 415.25C869.43 442.14 848.08 462.65 827.61 479.8C802.37 500.95 778.76 516.7 755.42 527.95C750.63 530.26 745.79 532.41 741.03 534.33C716.24 544.36 691.9 549.43 668.62 549.43C667.33 549.43 666.04 549.42 664.75 549.39C637.83 548.73 612.77 541.17 590.27 526.92C579.41 520 568.78 511.22 558.66 500.82C549.16 491.05 539.82 479.54 530.9 466.6C514.85 443.34 499.85 415.28 485.05 380.82C484.41 379.34 483.78 377.85 483.15 376.36C474.56 356.03 466.43 334.78 458.57 314.22C454.03 302.36 449.34 290.09 444.62 278.15C430.07 241.35 417.75 214.21 404.65 190.13C402.89 186.89 401.08 183.64 399.26 180.47C366.13 122.82 323.31 77.03 275.44 48.06C217.72 13.17 159.28 4.26 110.89 22.97C61.69 42.05 12.3 104.82 13.11 187.9L12.92 187.91C12.54 149.21 22.84 112.41 42.68 81.49C51.65 67.52 62.24 55.27 74.16 45.08C85.77 35.16 98.11 27.63 110.84 22.69C136.38 12.82 164.46 10.53 194.31 15.88C221.12 20.69 248.44 31.43 275.51 47.8C323.41 76.79 366.25 122.6 399.4 180.29C401.22 183.46 403.04 186.71 404.8 189.95C417.9 214.04 430.23 241.2 444.78 278.01C449.51 289.95 454.2 302.22 458.73 314.09C466.59 334.64 474.72 355.89 483.31 376.21C483.94 377.7 484.57 379.19 485.2 380.67C516.67 453.89 551.06 501.64 590.35 526.66C644.76 561.13 702.3 549.71 740.98 534.06C745.73 532.14 750.57 529.99 755.36 527.68C809.04 501.8 858.02 453.88 894.69 415.03C910.77 398.02 926.55 379.63 941.8 361.85C972.24 326.37 1003.72 289.69 1037.98 263.71C1052.61 252.6 1065.85 245.78 1078.44 242.86C1094 239.26 1108.3 241.93 1120.96 250.81C1131.62 258.29 1142.14 270.32 1153.11 287.58C1162.77 302.79 1171.5 319.92 1179.93 336.49C1184.97 346.35 1189.72 355.67 1194.5 364.29C1241.93 449.99 1290.51 538.6 1338.87 627.65L1338.72 627.82Z" fill="#A1A1A1" fill-opacity="1.000000" fill-rule="nonzero"/>
		<path id="Vector" d="M1336.72 625.17L1195.15 358.91C1190.52 350.22 1185.93 340.76 1181.06 330.74C1165.03 297.69 1146.85 260.23 1123.06 243.8C1100.07 227.9 1072.17 233.95 1040.12 261.78C1009.3 288.52 981.18 324.09 954 358.49C936.28 380.91 917.96 404.09 899.13 424.5C842.55 485.82 793.1 522.05 743.51 538.49C722.94 545.31 702.64 548.75 682.96 548.75C677 548.75 671.09 548.43 665.25 547.8C637.69 544.82 612.25 534.82 589.64 518.06C568.68 502.53 549.5 480.61 531.02 451.04C516.26 427.42 502.12 399.27 486.5 362.44C478.26 343 470.28 322.81 462.56 303.28C445.1 259.08 427.04 213.38 404.68 173.16C370.38 111.47 325.37 63.09 274.5 33.25C216.41 -0.82 157.82 -8.76 109.5 10.89C62.73 29.91 11.96 89.9 11.02 176.65L10.83 176.65C11.25 137.87 21.87 101.08 41.53 70.25C59.3 42.38 83.43 21.2 109.45 10.62C134.96 0.24 163.07 -2.55 193 2.32C219.88 6.69 247.32 17.01 274.56 32.99C299.74 47.75 323.64 67.19 345.62 90.75C367.78 114.52 387.7 142.18 404.82 172.97C427.19 213.21 445.26 258.92 462.73 303.13C470.44 322.65 478.42 342.85 486.66 362.28C509.44 416.02 541.75 482.26 589.72 517.8C644.74 558.56 703.7 551.4 743.47 538.21C793.03 521.77 842.46 485.57 899.02 424.26C917.84 403.87 936.16 380.68 953.88 358.27C981.07 323.86 1009.19 288.29 1040.02 261.53C1072.13 233.66 1100.11 227.6 1123.15 243.54C1133.8 250.9 1144.22 263.03 1155.01 280.64C1164.51 296.14 1173.01 313.64 1181.22 330.57C1186.07 340.59 1190.68 350.04 1195.3 358.74L1336.87 624.99L1336.72 625.17Z" fill="#A1A1A1" fill-opacity="1.000000" fill-rule="nonzero"/>
		<path id="Vector" d="M1335.57 604.7C1299.52 530.57 1268.59 470.41 1238.24 415.39C1223.5 388.66 1208.44 362.35 1193.5 337.19C1188.98 329.58 1184.5 321.49 1179.76 312.91C1167.84 291.37 1155.52 269.1 1141.34 252.57C1133.73 243.67 1126.4 237.31 1118.93 233.1C1096.02 220.06 1069.14 228.68 1039.04 258.72C1023.46 274.24 1009.27 291.91 997.45 307.14C984.93 323.26 972.58 341.05 960.64 358.24C943.48 382.96 925.74 408.52 906.66 430.47C895.05 443.87 883.29 455.84 871.68 466.05C848.48 486.49 823.57 503.33 797.64 516.1C781.63 523.91 765.54 529.81 749.82 533.63C736.27 536.92 722.7 538.82 709.47 539.27C689.68 539.95 670.4 537.35 652.16 531.53C632.77 525.34 614.42 515.46 597.62 502.16C582.64 490.31 568.49 475.38 554.36 456.52C528.04 421.4 507.04 380.8 491.69 349.35C484.15 333.83 476.78 318 469.66 302.69C449.16 258.6 429.79 216.97 405.55 179.88C385.78 149.82 363.23 123.89 338.51 102.79C319.51 86.57 298.85 73.31 277.1 63.37C271.92 61.01 266.64 58.8 261.42 56.83C238.92 48.33 213.58 42.8 186.13 40.39C158.45 37.9 134.5 40.05 112.92 46.99C100.72 50.88 88.9 56.98 77.79 65.12C38.54 93.87 13.34 142.14 10.38 194.23L10.14 194.2C10.93 180.31 13.25 166.63 17.04 153.54C20.63 141.1 25.57 129.1 31.71 117.88C43.32 96.68 59.22 78.33 77.68 64.8C88.82 56.65 100.65 50.54 112.87 46.64C134.48 39.7 158.44 37.54 186.15 40.04C213.62 42.45 238.96 47.99 261.47 56.49C266.71 58.46 271.99 60.67 277.17 63.04C298.94 72.98 319.62 86.26 338.63 102.49C363.36 123.6 385.94 149.56 405.71 179.63C429.97 216.74 449.34 258.39 469.85 302.49C476.97 317.8 484.34 333.62 491.87 349.14C507.22 380.58 528.21 421.16 554.52 456.25C568.63 475.09 582.76 490.01 597.73 501.85C630.61 527.87 668.2 540.35 709.46 538.92C722.68 538.46 736.24 536.57 749.78 533.28C765.49 529.46 781.57 523.56 797.57 515.76C823.47 503 848.37 486.17 871.56 465.75C883.16 455.54 894.92 443.58 906.51 430.19C925.58 408.25 943.32 382.7 960.48 357.99C972.42 340.79 984.77 323 997.29 306.87C1009.12 291.63 1023.31 273.96 1038.91 258.43C1052.31 245.05 1065.29 235.81 1077.48 230.96C1092.46 225 1106.43 225.61 1119.02 232.77C1126.5 236.99 1133.85 243.37 1141.49 252.29C1155.68 268.84 1168.02 291.13 1179.93 312.69C1184.68 321.26 1189.16 329.35 1193.68 336.96C1208.63 362.12 1223.68 388.43 1238.42 415.16C1268.78 470.19 1299.71 530.36 1335.77 604.5L1335.57 604.7Z" fill="#A1A1A1" fill-opacity="1.000000" fill-rule="nonzero"/>
		<path id="Vector" d="M1334.43 584.23C1301.01 508.84 1269.64 445.75 1238.53 391.37C1223.36 364.8 1207.66 339.27 1191.86 315.47C1187.67 309.15 1183.54 302.59 1179.15 295.65C1166.04 274.85 1152.47 253.34 1137.27 238.46C1129.6 230.92 1122.25 225.66 1114.8 222.4C1086.26 209.9 1057.26 233.58 1037.97 255.66C1024.29 271.25 1011.8 288.88 999.15 307.08C988.08 323.01 977.66 340.15 966.64 358.29C950.27 385.22 933.35 413.06 914.19 436.44C902.83 450.39 890.97 462.45 878.94 472.29C856.53 490.62 832 504.85 803.93 515.8C788.23 521.93 772.14 526.29 756.12 528.77C742.61 530.84 729.12 531.58 716.03 530.96C696.55 530.05 677.51 525.97 659.43 518.83C640.45 511.33 622.34 500.37 605.6 486.26C590.94 473.9 576.78 458.56 562.31 439.37C536.04 404.57 513.54 365.99 496.87 336.26C490.7 325.26 484.63 314.19 478.76 303.47C455.37 260.82 433.28 220.53 406.43 186.59C386.35 161.23 363.82 139.78 339.46 122.84C321.02 110.03 301.48 100.43 279.72 93.49C274.7 91.89 269.59 90.45 264.54 89.21C242.35 83.78 218.66 81.72 190.01 79.6C169.35 77.99 142.31 76.93 116.34 83.08C104.04 85.94 92.14 90.9 80.99 97.83C41.72 122.22 15.08 164.82 9.73 211.8L9.45 211.73C10.87 199.27 13.74 187.06 17.99 175.41C22.04 164.32 27.35 153.68 33.8 143.79C46.04 124.99 62.32 108.96 80.88 97.43C92.06 90.5 103.97 85.52 116.29 82.66C142.29 76.5 169.35 77.56 190.02 79.17C218.68 81.3 242.38 83.35 264.58 88.79C269.64 90.03 274.75 91.47 279.78 93.07C301.56 100.02 321.12 109.63 339.57 122.45C363.97 139.4 386.52 160.87 406.61 186.26C433.48 220.23 455.58 260.53 478.98 303.2C484.85 313.91 490.92 324.98 497.09 335.98C513.75 365.69 536.25 404.26 562.5 439.04C576.95 458.21 591.09 473.54 605.74 485.88C638.65 513.63 675.76 528.65 716.04 530.53C729.12 531.14 742.59 530.41 756.1 528.34C772.1 525.87 788.17 521.51 803.86 515.38C831.9 504.44 856.42 490.22 878.8 471.91C890.82 462.09 902.66 450.04 914.01 436.11C933.15 412.75 950.07 384.91 966.43 358C977.46 339.85 987.88 322.71 998.96 306.77C1011.62 288.56 1024.11 270.92 1037.79 255.31C1050.31 241 1062.65 230.71 1074.47 224.71C1088.81 217.44 1102.41 216.52 1114.88 221.99C1122.36 225.26 1129.74 230.54 1137.43 238.1C1152.65 253.01 1166.23 274.54 1179.36 295.35C1183.74 302.29 1187.88 308.85 1192.06 315.16C1207.87 338.97 1223.56 364.51 1238.75 391.09C1269.87 445.49 1301.24 508.58 1334.67 583.99L1334.43 584.23Z" fill="#A1A1A1" fill-opacity="1.000000" fill-rule="nonzero"/>
		<path id="Vector" d="M1333.29 563.75C1302.01 486.09 1271.11 421.84 1238.82 367.35C1223.22 340.95 1206.87 316.19 1190.22 293.75C1186.67 288.95 1183.01 283.86 1179.46 278.94C1164.84 258.6 1149.72 237.58 1133.21 224.36C1125.46 218.12 1118.09 213.97 1110.67 211.7C1082.18 202.97 1054.82 229.12 1036.89 252.59C1024.74 268.44 1013.62 286.4 1002.88 303.77L1000.86 307.02C991.1 322.78 981.95 340.06 972.26 358.36C956.83 387.5 940.87 417.64 921.72 442.41C910.59 456.93 898.63 469.08 886.19 478.53C864.49 494.99 840.35 506.74 810.22 515.5C794.63 520.03 778.55 522.86 762.43 523.9C748.95 524.75 735.54 524.33 722.58 522.64C683.33 517.57 646.65 499.98 613.58 470.35C599.28 457.54 585.11 441.8 570.26 422.22C545.14 389.15 522.79 355.16 502.06 323.17C499.28 318.89 496.53 314.63 493.8 310.4C465.48 266.57 438.74 225.18 407.31 193.32C386.78 172.52 364.27 155.55 340.4 142.9C322.88 133.61 303.88 127.3 282.34 123.61C277.48 122.79 272.54 122.11 267.66 121.6C255.37 120.33 242.33 120.12 228.53 119.9C217.44 119.73 205.98 119.55 193.89 118.81C170.52 117.27 144.05 115.53 119.75 119.18C107.22 121.06 95.25 124.89 84.19 130.54C44.94 150.61 16.86 187.56 9.08 229.39L8.76 229.26C10.81 218.23 14.23 207.47 18.94 197.29C23.44 187.54 29.14 178.26 35.87 169.69C48.75 153.31 65.43 139.61 84.08 130.07C95.17 124.41 107.16 120.57 119.72 118.69C144.03 115.03 170.53 116.78 193.9 118.32C205.98 119.05 217.45 119.24 228.53 119.41C242.34 119.63 255.38 119.83 267.68 121.1C272.57 121.62 277.51 122.3 282.37 123.13C303.94 126.81 322.96 133.13 340.51 142.44C364.41 155.11 386.95 172.09 407.49 192.91C438.95 224.8 465.71 266.22 494.04 310.06C496.77 314.29 499.52 318.54 502.3 322.83C523.03 354.81 545.36 388.8 570.48 421.85C585.31 441.42 599.46 457.14 613.75 469.93C646.78 499.52 683.41 517.09 722.6 522.16C735.55 523.84 748.95 524.26 762.41 523.42C778.52 522.37 794.58 519.54 810.15 515.02C840.26 506.27 864.37 494.53 886.04 478.09C898.45 468.67 910.39 456.54 921.51 442.04C940.62 417.3 956.57 387.19 971.99 358.06C981.69 339.75 990.85 322.46 1000.62 306.69L1002.63 303.44C1013.38 286.06 1024.5 268.09 1036.67 252.22C1054.66 228.67 1082.12 202.45 1110.73 211.22C1118.18 213.51 1125.59 217.66 1133.37 223.94C1149.91 237.18 1165.05 258.23 1179.68 278.58C1183.23 283.5 1186.89 288.59 1190.43 293.39C1207.09 315.84 1223.44 340.61 1239.06 367.03C1271.37 421.54 1302.28 485.81 1333.57 563.5L1333.29 563.75Z" fill="#A1A1A1" fill-opacity="1.000000" fill-rule="nonzero"/>
		<path id="Vector" d="M1332.15 543.27C1303.43 464.43 1272.13 397.16 1239.12 343.33C1223.07 317.1 1206.06 293.11 1188.59 272.03C1186.06 268.99 1183.48 265.83 1180.98 262.77C1164.44 242.59 1147.36 221.71 1129.16 210.27C1121.35 205.31 1113.94 202.28 1106.54 201C1078.14 196.12 1052.41 224.69 1035.81 249.52C1025.52 264.86 1016.23 281.92 1007.24 298.42C1005.68 301.27 1004.13 304.12 1002.57 306.96C994.02 322.55 986.02 339.97 977.56 358.41C963.17 389.76 948.29 422.17 929.26 448.39C918.08 463.78 906.37 475.68 893.44 484.77C866.39 503.79 839.37 510.83 816.5 515.21C801.03 518.17 784.96 519.46 768.73 519.05C755.29 518.67 741.96 517.08 729.12 514.34C691.06 506.22 654.86 486.07 621.56 454.45C607.7 441.3 593.52 425.15 578.21 405.08C562.75 384.85 548.34 365.39 534.4 346.57C524.93 333.78 515.99 321.69 507.25 310.1C474.23 266.28 443.98 227.75 408.19 200.05C387.23 183.83 364.74 171.35 341.35 162.96C324.59 156.94 306.67 154.01 284.96 153.74C280.28 153.68 275.51 153.77 270.78 153.98C263.61 154.33 256.19 155.05 248.33 155.82C233.26 157.29 216.17 158.97 197.76 158.03C190.75 157.67 183.6 157.17 176.68 156.68C158.89 155.42 140.49 154.12 123.16 155.28C110.43 156.14 98.4 158.82 87.39 163.26C48.2 179.05 18.68 210.36 8.42 247L8.07 246.78C10.76 237.19 14.73 227.89 19.9 219.15C24.85 210.76 30.93 202.83 37.95 195.59C51.48 181.64 68.54 170.27 87.29 162.71C98.32 158.26 110.39 155.57 123.14 154.72C140.49 153.55 158.89 154.85 176.7 156.11C183.61 156.6 190.76 157.11 197.77 157.47C216.16 158.4 233.24 156.73 248.31 155.26C256.16 154.49 263.59 153.77 270.77 153.42C275.5 153.2 280.27 153.12 284.96 153.17C306.7 153.45 324.65 156.39 341.44 162.41C364.86 170.81 387.38 183.31 408.36 199.55C424.53 212.06 440.91 227.91 458.44 248C474.14 265.99 489.4 285.67 507.5 309.68C516.24 321.28 525.18 333.36 534.66 346.15C548.59 364.97 563 384.43 578.46 404.66C593.75 424.71 607.91 440.84 621.76 453.98C655.02 485.56 691.16 505.67 729.17 513.78C742 516.53 755.31 518.11 768.73 518.49C784.94 518.9 800.99 517.61 816.44 514.65C839.28 510.28 866.28 503.25 893.27 484.26C906.17 475.2 917.85 463.33 929 447.97C947.99 421.81 962.86 389.42 977.24 358.1C985.71 339.64 993.71 322.22 1002.27 306.61C1003.83 303.77 1005.38 300.92 1006.94 298.07C1015.94 281.56 1025.24 264.49 1035.55 249.13C1046.34 232.98 1057.41 220.55 1068.44 212.2C1081.53 202.3 1094.36 198.35 1106.57 200.45C1114.02 201.73 1121.44 204.77 1129.3 209.76C1147.55 221.23 1164.66 242.13 1181.21 262.34C1183.71 265.4 1186.29 268.56 1188.81 271.6C1206.31 292.69 1223.32 316.7 1239.39 342.96C1256.92 371.54 1274.07 404.11 1290.41 439.75C1304.82 471.26 1318.99 506 1332.47 543.01L1332.15 543.27Z" fill="#A1A1A1" fill-opacity="1.000000" fill-rule="nonzero"/>
		<path id="Vector" d="M1331.01 522.79C1304.43 441.69 1273.61 373.23 1239.42 319.32C1222.93 293.25 1205.28 270.03 1186.96 250.32C1186.07 249.38 1185.21 248.44 1184.34 247.5C1165.28 226.97 1145.57 205.74 1125.11 196.18C1117.18 192.47 1109.76 190.56 1102.43 190.31C1074.14 189.35 1050.02 220.31 1034.76 246.45C1025.78 261.74 1017.81 278.5 1010.11 294.71C1008.2 298.72 1006.23 302.86 1004.29 306.9C996.88 322.27 989.99 339.75 982.7 358.25C969.44 391.92 955.73 426.72 936.8 454.36C925.85 470.34 914.04 482.33 900.69 491.02C874.4 508.12 847.71 512.61 822.78 514.91C807.41 516.33 791.34 516.09 775.03 514.19C761.64 512.59 748.39 509.84 735.67 506.03C698.9 495.03 663.19 472.33 629.54 438.55C616.06 425.03 602.28 408.94 586.17 387.94C555.55 348.13 532.82 320.09 512.45 297.03C471.95 251.15 441.04 224.16 409.1 206.78C387.71 195.15 365.24 187.15 342.32 183.02C326.42 180.15 309.54 180.4 287.6 183.86C283.1 184.57 278.5 185.41 273.93 186.36C269.6 187.27 265.21 188.32 260.56 189.42C243.39 193.49 223.92 198.11 201.64 197.25C189.9 196.79 177.91 195.55 166.31 194.35C153.13 192.98 139.5 191.57 126.57 191.38C113.62 191.19 101.51 192.73 90.59 195.98C51.53 207.56 20.56 233.23 7.76 264.62L7.4 264.29C10.72 256.14 15.25 248.3 20.87 241.01C26.28 233.97 32.73 227.4 40.04 221.48C54.23 209.97 71.68 200.94 90.5 195.35C101.45 192.11 113.59 190.56 126.58 190.75C139.51 190.94 153.15 192.35 166.34 193.72C177.93 194.92 189.92 196.16 201.65 196.62C223.89 197.47 243.33 192.86 260.49 188.8C265.14 187.69 269.54 186.65 273.86 185.74C278.45 184.79 283.05 183.95 287.55 183.23C309.52 179.77 326.43 179.51 342.37 182.39C365.32 186.53 387.82 194.54 409.24 206.19C441.23 223.59 472.17 250.61 512.71 296.52C533.08 319.6 555.82 347.64 586.45 387.47C602.55 408.45 616.31 424.52 629.77 438.03C663.38 471.76 699.04 494.43 735.76 505.41C748.46 509.22 761.68 511.96 775.06 513.56C791.35 515.46 807.4 515.7 822.75 514.28C847.64 511.98 874.29 507.5 900.52 490.44C913.81 481.79 925.58 469.84 936.5 453.91C955.38 426.34 969.08 391.57 982.33 357.94C989.62 339.42 996.51 321.93 1003.94 306.54C1005.88 302.5 1007.85 298.36 1009.76 294.35C1017.47 278.13 1025.44 261.36 1034.43 246.04C1044.39 228.98 1054.82 215.49 1065.46 205.94C1077.91 194.74 1090.35 189.28 1102.43 189.68C1109.81 189.93 1117.27 191.86 1125.24 195.58C1145.77 205.17 1165.5 226.43 1184.59 246.99C1185.46 247.93 1186.32 248.87 1187.19 249.81C1205.55 269.55 1223.22 292.79 1239.73 318.89C1273.94 372.86 1304.79 441.37 1331.39 522.52L1331.01 522.79Z" fill="#A1A1A1" fill-opacity="1.000000" fill-rule="nonzero"/>
		<path id="Vector" d="M832.19 514.62C831.13 514.62 830.08 514.62 829.05 514.61C813.76 514.51 797.7 512.74 781.33 509.33C767.98 506.49 754.82 502.58 742.22 497.71C724.21 490.76 706.14 480.77 688.51 468.02C671.47 455.71 654.32 440.44 637.52 422.64C621.06 405.21 605.68 385.77 594.12 370.79C567.08 335.84 541.36 306.62 517.66 283.95C479.27 247.23 445.06 224.85 410 213.51C388.85 206.67 366.15 203.06 344.3 203.06C343.97 203.06 343.63 203.06 343.29 203.07C324.52 203.16 306.7 208.36 290.24 213.96C285.95 215.43 281.52 217.04 277.07 218.74C274.62 219.68 272.18 220.65 269.59 221.67C251.34 228.92 230.65 237.13 205.52 236.46C190.22 236.04 174.58 233.68 159.46 231.4C149.7 229.92 139.61 228.4 129.98 227.47C116.75 226.21 104.57 226.61 93.78 228.69C54.93 236.14 22.52 256.16 7.09 282.25L6.73 281.79C14.65 268.41 26.56 256.82 42.12 247.35C56.99 238.31 74.83 231.61 93.72 227.99C104.54 225.91 116.75 225.5 130.01 226.77C139.65 227.7 149.75 229.22 159.51 230.7C174.62 232.99 190.25 235.35 205.53 235.76C230.6 236.43 251.25 228.23 269.47 221C272.06 219.97 274.51 219 276.95 218.06C281.41 216.36 285.85 214.75 290.13 213.28C306.62 207.67 324.47 202.47 343.29 202.37C365.49 202.25 388.59 205.87 410.1 212.83C428.2 218.68 445.74 227.3 463.73 239.17C481.06 250.61 498.78 265.06 517.91 283.36C541.63 306.05 567.38 335.29 594.43 370.27C605.98 385.24 621.34 404.66 637.79 422.08C671.88 458.2 707.05 483.41 742.34 497.04C754.92 501.9 768.06 505.81 781.39 508.64C797.75 512.04 813.78 513.82 829.05 513.91C852.95 514.06 880.7 512.86 907.76 496.61C921.46 488.38 933.31 476.36 943.99 459.84C962.75 430.84 975.18 393.61 987.21 357.61C993.4 339.09 999.24 321.6 1005.6 306.46C1007.63 301.61 1009.69 296.61 1011.67 291.78C1018.38 275.45 1025.31 258.56 1033.31 242.96C1042.44 225 1052.25 210.44 1062.44 199.67C1074.28 187.19 1086.32 180.2 1098.28 178.91C1105.65 178.11 1113.14 178.93 1121.16 181.4C1142.61 188.02 1163.87 207.23 1185.57 228.02C1204.5 246.15 1223.34 269.25 1240.05 294.82C1258.61 323.15 1276.06 356.37 1291.89 393.58C1306 426.73 1318.92 463.22 1330.29 502.04L1329.86 502.32C1305.43 418.96 1275.1 349.31 1239.71 295.31C1223.03 269.78 1204.22 246.71 1185.31 228.62C1163.65 207.86 1142.43 188.68 1121.06 182.09C1113.07 179.63 1105.64 178.82 1098.31 179.62C1076.36 181.99 1053.41 204.64 1033.68 243.38C1025.71 258.96 1018.78 275.83 1012.08 292.15C1010.09 296.98 1008.03 301.98 1006 306.83C999.65 321.95 993.81 339.43 987.63 357.93C981.73 375.59 975.63 393.86 968.63 411.42C960.69 431.33 952.74 447.32 944.33 460.33C933.6 476.92 921.7 489 907.94 497.26C895.8 504.55 882.76 509.37 868.06 512C855.61 514.21 843.11 514.62 832.19 514.62Z" fill="#A1A1A1" fill-opacity="1.000000" fill-rule="nonzero"/>
		<path id="Vector" d="M862.52 516.03C852.88 516.03 843.61 515.17 835.32 514.31C820.08 512.71 804.03 509.4 787.62 504.46C774.33 500.4 761.26 495.34 748.76 489.39C714.55 473.15 680.77 446.11 645.49 406.74C630.11 389.57 615.61 371.1 602.07 353.65C575.36 319.3 548.71 291.46 522.86 270.87C484.84 240.61 449.27 224.51 410.91 220.24C389.06 217.8 366.01 218.79 344.27 223.11C326.06 226.72 308.9 235.44 292.88 244.06C288.87 246.23 284.61 248.6 280.21 251.1C279.11 251.73 278 252.37 276.88 253.01C258.43 263.64 237.55 275.67 210.76 275.67C210.3 275.67 209.85 275.67 209.4 275.66C191.27 275.39 172.76 271.53 154.86 267.8C147.76 266.32 140.42 264.79 133.38 263.56C119.63 261.14 107.72 260.43 96.96 261.38C57.85 264.85 24.84 278.88 6.39 299.87L6.08 299.26C15.2 288.88 28.38 279.87 44.21 273.2C59.77 266.64 78 262.29 96.93 260.61C107.71 259.65 119.66 260.37 133.44 262.79C140.49 264.02 147.83 265.55 154.93 267.03C172.81 270.76 191.31 274.61 209.4 274.88C236.75 275.3 257.97 263.07 276.69 252.28C277.81 251.64 278.92 251 280.02 250.37C284.42 247.86 288.69 245.5 292.7 243.33C308.75 234.69 325.94 225.96 344.19 222.34C365.97 218.01 389.06 217.01 410.95 219.45C429.95 221.57 448.08 226.58 466.35 234.75C485.17 243.17 503.73 254.76 523.1 270.18C548.98 290.79 575.67 318.68 602.41 353.05C615.93 370.5 630.43 388.96 645.8 406.11C681.02 445.43 714.75 472.43 748.91 488.65C761.39 494.58 774.45 499.64 787.72 503.69C804.11 508.62 820.14 511.93 835.35 513.52C860.96 516.2 888.2 517.58 915 502.76C929.1 494.96 941.03 482.86 951.48 465.76C970.09 435.29 981.67 393.75 991.89 357.09C997.03 338.64 1001.89 321.22 1007.25 306.37C1009.18 301.01 1011.13 295.47 1013.01 290.12C1018.9 273.36 1024.98 256.03 1032.18 239.85C1040.52 221 1049.68 205.37 1059.43 193.38C1070.64 179.62 1082.3 171.12 1094.11 168.12C1101.49 166.25 1109 165.95 1117.06 167.2C1139.63 170.7 1162.54 188.02 1183.94 206.2C1203.71 223 1223.22 245.31 1240.38 270.73C1259.44 298.92 1277.03 332.48 1292.62 370.47C1306.56 404.45 1318.87 441.81 1329.2 481.53L1328.71 481.81C1306.76 397.38 1276.07 324.58 1240.01 271.27C1222.89 245.9 1203.42 223.63 1183.68 206.88C1162.34 188.73 1139.48 171.46 1117.02 167.97C1109 166.72 1101.53 167.02 1094.19 168.88C1072.4 174.42 1050.54 199.77 1032.62 240.28C1025.43 256.42 1019.35 273.73 1013.47 290.47C1011.59 295.83 1009.65 301.37 1007.71 306.73C1002.36 321.55 997.51 338.95 992.37 357.38C982.13 394.1 970.53 435.71 951.86 466.27C941.36 483.47 929.36 495.64 915.18 503.48C902.88 510.29 889.6 514.23 874.6 515.52C870.54 515.89 866.5 516.03 862.52 516.03Z" fill="#A1A1A1" fill-opacity="1.000000" fill-rule="nonzero"/>
		<path id="Vector" d="M881.56 519.08C881.42 519.08 881.29 519.08 881.15 519.08C867.52 519.03 854.13 516.55 841.59 514C826.38 510.92 810.34 506.07 793.91 499.59C780.68 494.32 767.69 488.09 755.3 481.07C722.46 462.51 690.1 433.83 653.47 390.83C640.28 375.35 627.3 358.68 614.74 342.56C613.17 340.54 611.6 338.52 610.03 336.51C583.18 302.17 555.6 275.69 528.07 257.8C490.37 233.31 452.35 223.22 411.83 226.96C389.62 229.01 366.59 234.61 345.25 243.15C328.41 249.9 313.4 260.72 295.53 274.16C291.91 276.9 288.04 279.85 283.36 283.46L283.1 283.66C274.07 290.67 263.84 298.61 252.36 304.65C239.18 311.58 226.39 314.92 213.28 314.88C192.83 314.8 171.96 309.13 151.78 303.64C146.84 302.3 141.72 300.91 136.78 299.65C122.63 296.05 110.64 294.24 100.15 294.1C61.5 293.59 27.07 302.13 5.69 317.51L5.44 316.75C15.92 309.21 30.04 303.1 46.3 299.06C62.58 295.01 81.21 293.01 100.15 293.26C110.68 293.39 122.69 295.21 136.88 298.82C141.82 300.08 146.94 301.47 151.88 302.81C172.04 308.29 192.88 313.96 213.28 314.03C213.37 314.03 213.46 314.03 213.55 314.03C242.73 314.03 264.96 296.78 282.84 282.91L283.1 282.71C287.78 279.1 291.65 276.15 295.27 273.41C313.18 259.94 328.21 249.1 345.1 242.34C366.49 233.77 389.55 228.17 411.8 226.11C431.63 224.29 450.33 225.68 468.98 230.38C489.07 235.43 508.48 244.15 528.3 257.03C555.88 274.95 583.5 301.47 610.4 335.87C611.97 337.88 613.54 339.9 615.11 341.92C627.66 358.03 640.64 374.7 653.82 390.17C690.4 433.12 722.71 461.75 755.5 480.29C767.88 487.29 780.85 493.51 794.06 498.78C810.46 505.25 826.48 510.09 841.67 513.17C868.88 518.69 895.52 522.52 922.25 508.94C936.75 501.58 948.77 489.4 958.98 471.71C977.42 439.75 987.49 395.47 996.38 356.41C1000.55 338.12 1004.48 320.84 1008.91 306.32C1010.62 300.73 1012.33 294.95 1013.99 289.37C1019.16 271.89 1024.51 253.82 1031.06 236.79C1038.63 217.03 1047.16 200.32 1056.43 187.13C1067.02 172.09 1078.29 162.08 1089.94 157.37C1097.18 154.46 1104.55 153.04 1112.48 153.04C1112.65 153.04 1112.81 153.04 1112.99 153.04C1137.63 153.23 1162.99 169.91 1182.32 184.42C1202.93 199.88 1223.11 221.41 1240.71 246.67C1260.31 274.73 1278.02 308.62 1293.37 347.4C1307.14 382.2 1318.83 420.44 1328.11 461.06L1327.57 461.34C1313.76 400.89 1287.4 314.7 1240.31 247.28C1222.76 222.07 1202.62 200.6 1182.06 185.18C1162.79 170.71 1137.51 154.08 1112.99 153.89C1104.92 153.82 1097.43 155.23 1090.1 158.19C1068.5 166.9 1047.72 194.97 1031.56 237.21C1025.02 254.2 1019.67 272.25 1014.5 289.71C1012.85 295.3 1011.14 301.08 1009.43 306.67C1005.01 321.15 1001.08 338.41 996.92 356.68C988.02 395.82 977.92 440.18 959.41 472.26C949.13 490.06 937.04 502.33 922.43 509.74C910.06 516.02 896.68 519.08 881.56 519.08Z" fill="#A1A1A1" fill-opacity="1.000000" fill-rule="nonzero"/>
		<path id="Vector" d="M896.7 523.05C893.76 523.05 890.76 522.91 887.69 522.63C874.25 521.4 861.18 517.7 847.86 513.7C832.43 509.06 816.84 502.85 800.2 494.73C787.04 488.24 774.14 480.85 761.85 472.75C730.66 452.26 699.7 422.08 661.45 374.92C651.95 363.21 642.46 350.93 633.27 339.05C628.27 332.58 623.11 325.89 617.99 319.36C590.81 284.8 562.32 259.69 533.28 244.73C494.93 224.97 455.51 221.35 412.76 233.67C390.18 240.18 367.18 250.38 346.24 263.18C329.42 273.47 314.77 287.91 299.26 303.19L298.18 304.25C295.76 306.65 293.31 309.07 290.83 311.53C289.41 312.95 287.97 314.38 286.52 315.81C277.47 324.83 267.7 334.23 256.5 341.46C243.49 349.86 230.63 353.99 217.16 354.09C194.75 354.26 171.89 346.5 149.78 338.98C146.62 337.91 143.36 336.8 140.19 335.75C125.34 330.82 113.63 327.98 103.33 326.81C65.35 322.51 29.5 325.54 4.98 335.13L4.82 334.25C29.41 324.63 65.33 321.58 103.38 325.9C113.7 327.07 125.44 329.91 140.33 334.85C143.5 335.91 146.76 337.02 149.92 338.09C171.75 345.51 194.33 353.18 216.44 353.18C216.68 353.18 216.92 353.18 217.16 353.18C245.77 352.96 266.13 335.02 286.18 315.05C287.63 313.62 289.07 312.19 290.49 310.77C292.97 308.31 295.42 305.88 297.85 303.49L298.92 302.43C314.46 287.12 329.13 272.65 346.01 262.33C366.98 249.51 390.03 239.29 412.65 232.77C455.5 220.42 495.03 224.05 533.49 243.86C562.59 258.86 591.15 284.02 618.39 318.67C623.51 325.2 628.68 331.89 633.68 338.36C642.85 350.23 652.35 362.51 661.84 374.22C700.04 421.32 730.96 451.45 762.09 471.92C774.37 480 787.26 487.38 800.4 493.85C817.01 501.97 832.57 508.17 847.99 512.8C871.38 519.83 900.5 528.59 929.5 515.1C944.41 508.17 956.5 495.92 966.47 477.64C984.74 444.15 993.21 397.06 1000.68 355.51C1003.93 337.46 1007 320.41 1010.57 306.26C1011.97 300.74 1013.37 295.04 1014.72 289.53C1019.25 271.03 1023.94 251.9 1029.94 233.71C1036.74 213.03 1044.64 195.25 1053.43 180.85C1063.4 164.54 1074.29 153.02 1085.79 146.61C1093.17 142.5 1100.73 139.97 1108.91 138.87C1119.87 137.39 1131.53 138.97 1144.56 143.68C1155.59 147.67 1167.41 153.87 1180.69 162.62C1202.14 176.75 1223 197.48 1241.04 222.59C1261.16 250.52 1279.01 284.75 1294.11 324.31C1307.69 359.94 1318.78 399.06 1327.02 440.58L1326.43 440.84C1309.02 353.18 1278.54 275.91 1240.62 223.26C1222.63 198.22 1201.82 177.55 1180.44 163.46C1151.81 144.6 1129.1 137.07 1108.97 139.78C1100.84 140.87 1093.32 143.39 1086 147.47C1058.64 162.71 1040.72 203 1030.51 234.11C1024.5 252.26 1019.82 271.36 1015.29 289.84C1013.94 295.36 1012.54 301.06 1011.15 306.58C1007.58 320.69 1004.52 337.72 1001.28 355.74C993.79 397.38 985.3 444.58 966.95 478.21C956.9 496.64 944.71 508.99 929.68 515.98C919.5 520.71 908.64 523.05 896.7 523.05Z" fill="#A1A1A1" fill-opacity="1.000000" fill-rule="nonzero"/>
		<path id="Vector" d="M909.81 527.6C889.81 527.6 870.58 519.94 854.13 513.39C838.65 507.23 823.07 499.53 806.49 489.85C793.4 482.16 780.58 473.61 768.38 464.43C731.81 436.96 699.21 397.53 669.42 359.02C663.34 351.15 657.2 343.04 651.26 335.21C643.01 324.32 634.48 313.07 625.94 302.22C598.36 267.31 568.94 243.57 538.5 231.66C499.13 216.25 458.3 219.1 413.69 240.37C390.72 251.32 367.74 266.14 347.23 283.21C331.41 296.37 318.03 312.99 303.86 330.58C302.85 331.83 301.85 333.08 300.83 334.33L300.29 335.01C296.84 339.29 293.28 343.72 289.67 348.16C281.02 358.85 271.49 369.91 260.47 378.36C247.68 388.16 234.78 393.05 221.04 393.31C196.92 393.75 172.34 383.65 148.57 373.88C146.9 373.19 145.24 372.51 143.59 371.84C127.91 365.43 116.48 361.63 106.51 359.51C69.48 351.66 32.21 349.19 4.26 352.74L4.2 351.76C32.2 348.2 69.52 350.67 106.6 358.54C116.6 360.66 128.06 364.46 143.76 370.88C145.41 371.56 147.07 372.24 148.74 372.93C172.47 382.68 197 392.76 221.03 392.32C250.87 391.77 271.89 368.84 289.25 347.4C292.86 342.96 296.42 338.53 299.86 334.25L300.41 333.57C301.42 332.32 302.43 331.07 303.43 329.82C317.63 312.2 331.03 295.55 346.91 282.34C367.45 265.24 390.48 250.41 413.49 239.43C434.64 229.35 454.5 223.52 474.22 221.63C496.21 219.52 517.89 222.57 538.67 230.7C569.2 242.65 598.71 266.46 626.37 301.47C634.92 312.32 643.45 323.58 651.7 334.47C657.64 342.3 663.78 350.41 669.85 358.27C699.61 396.75 732.17 436.13 768.68 463.55C780.86 472.71 793.66 481.25 806.73 488.94C823.28 498.6 838.84 506.29 854.3 512.44C878.03 521.89 907.56 533.65 936.74 521.27C952.05 514.78 964.23 502.45 973.96 483.57C992.03 448.51 998.8 398.52 1004.77 354.41C1007.17 336.69 1009.43 319.95 1012.23 306.2C1013.26 301.12 1014.29 295.86 1015.3 290.78C1019.22 270.9 1023.28 250.35 1028.81 230.64C1034.86 209.03 1042.13 190.16 1050.42 174.58C1059.77 156.99 1070.27 143.97 1081.61 135.86C1088.97 130.59 1096.56 126.94 1104.81 124.7C1115.93 121.67 1128.26 121.77 1141.47 125C1153.03 127.82 1165.68 133.15 1179.06 140.83C1201.32 153.62 1222.87 173.56 1241.35 198.51C1262 226.31 1279.99 260.87 1294.84 301.23C1308.25 337.68 1318.71 377.68 1325.93 420.1L1325.28 420.34C1310 330.46 1280.04 251.94 1240.91 199.25C1222.49 174.38 1201.02 154.49 1178.81 141.75C1150.05 125.23 1125.88 119.97 1104.93 125.67C1096.74 127.9 1089.21 131.52 1081.89 136.75C1054.91 156.04 1038.47 198.66 1029.43 231.02C1023.9 250.68 1019.85 271.2 1015.93 291.06C1014.93 296.14 1013.89 301.39 1012.86 306.48C1010.08 320.19 1007.81 336.9 1005.42 354.6C1002.55 375.83 999.29 399.88 994.57 422.43C989.16 448.26 982.59 468.46 974.49 484.18C969.8 493.26 964.42 501 958.48 507.16C952.1 513.8 944.85 518.86 936.92 522.22C927.86 526.07 918.76 527.6 909.81 527.6Z" fill="#A1A1A1" fill-opacity="1.000000" fill-rule="nonzero"/>
		<path id="Vector" d="M921.63 532.59C915.02 532.59 908.09 531.63 900.77 529.72C886.36 525.95 872.57 519.11 860.39 513.08C845.05 505.48 829.03 496.03 812.78 484.98C799.77 476.09 787.04 466.38 774.92 456.11C740.14 426.66 710.18 387.51 677.4 343.1C674.49 339.16 671.53 335.13 668.67 331.24C657.4 315.91 645.76 300.06 633.89 285.08C605.85 249.76 575.52 227.39 543.72 218.58C503.62 207.47 460.18 217.06 414.62 247.07C391.24 262.47 368.28 281.89 348.22 303.22C333.11 319.28 320.68 338.22 307.52 358.27C306.18 360.31 304.84 362.35 303.49 364.41C300.13 369.52 296.51 375.01 292.82 380.5C285.1 392.06 275.69 405.23 264.44 415.25C251.86 426.46 238.93 432.11 224.92 432.52C199.29 433.27 173.19 420.62 147.95 408.39L146.99 407.92C134.63 401.94 121.56 395.89 109.7 392.21C73.52 381.02 35.82 373.25 3.55 370.33L3.59 369.28C35.9 372.2 73.63 379.98 109.84 391.18C121.74 394.86 134.84 400.92 147.21 406.92L148.17 407.38C173.35 419.59 199.4 432.2 224.91 431.46C254.37 430.6 274.72 406.1 292.32 379.75C296.01 374.26 299.62 368.77 302.98 363.66C304.33 361.61 305.68 359.56 307.01 357.53C320.2 337.44 332.65 318.47 347.81 302.35C367.9 280.98 390.91 261.53 414.33 246.1C435.71 232.02 456.74 222.32 476.85 217.27C499.82 211.5 522.37 211.59 543.85 217.54C575.77 226.38 606.22 248.83 634.35 284.26C646.23 299.26 657.88 315.11 669.15 330.45C672.01 334.35 674.97 338.37 677.88 342.32C710.63 386.68 740.56 425.79 775.27 455.18C787.37 465.44 800.09 475.14 813.08 484.02C829.3 495.05 845.3 504.49 860.62 512.08C884.64 523.98 914.52 538.78 944 527.44C959.72 521.39 971.97 508.98 981.46 489.51C999.33 452.83 1004.51 397.54 1008.67 353.11C1010.29 335.8 1011.82 319.46 1013.89 306.15C1014.54 301.96 1015.2 297.64 1015.84 293.46C1019.15 271.74 1022.58 249.29 1027.71 227.57C1035.64 193.78 1050.71 148.57 1077.43 125.12C1084.82 118.64 1092.43 113.87 1100.73 110.54C1122.4 101.7 1148.21 104.56 1177.43 119.04C1200.54 130.49 1222.76 149.64 1241.68 174.44C1262.85 202.11 1280.98 237 1295.57 278.15C1302.28 297.02 1308.19 317.18 1313.18 338.06C1317.93 358.01 1321.86 378.72 1324.84 399.63L1324.15 399.85C1311.01 307.73 1281.55 227.96 1241.21 175.23C1222.36 150.53 1200.23 131.45 1177.21 120.04C1148.12 105.62 1122.44 102.77 1100.91 111.56C1092.68 114.86 1085.13 119.59 1077.8 126.02C1051.25 149.32 1036.27 194.29 1028.38 227.92C1023.26 249.58 1019.84 272 1016.53 293.69C1015.89 297.87 1015.23 302.19 1014.58 306.39C1012.51 319.65 1010.99 335.97 1009.37 353.25C1007.28 375.61 1004.91 400.95 1000.86 424.86C996.2 452.34 990.04 473.69 982.03 490.13C977.46 499.51 972.12 507.42 966.15 513.64C959.72 520.34 952.32 525.33 944.17 528.46C937.02 531.22 929.55 532.59 921.63 532.59Z" fill="#A1A1A1" fill-opacity="1.000000" fill-rule="nonzero"/>
		<path id="Vector" d="M932.53 537.86C924.6 537.86 916.24 536.33 907.32 533.26C892.85 528.29 878.93 520.05 866.65 512.77C851.19 503.61 835.18 492.62 819.06 480.1C806.14 470.02 793.49 459.15 781.45 447.78C748.33 416.51 719.92 376.2 689.84 333.53C688.35 331.42 686.86 329.31 685.37 327.19C671.39 307.37 656.92 286.87 641.85 267.93C613.32 232.17 582.06 211.16 548.94 205.5C507.34 198.39 462.46 214.63 415.54 253.76C392.07 273.33 368.51 298.01 349.2 323.23C334.63 342.27 322.93 363.7 310.55 386.39C309.09 389.08 307.62 391.77 306.14 394.47C303.18 399.88 299.66 406.29 295.97 412.84C289.15 425.01 279.85 440.47 268.41 452.1C256.03 464.7 243.07 471.13 228.8 471.73C217.08 472.17 204.13 469.47 189.24 463.48C176.45 458.34 164.08 451.62 150.39 444.01C137.89 436.98 124.7 429.72 112.87 424.92C77.81 410.71 40.79 398.26 2.83 387.92L2.96 386.82C40.95 397.16 77.99 409.61 113.06 423.83C124.93 428.64 138.14 435.92 150.65 442.95C173.6 455.71 202.16 471.6 228.78 470.61C259.22 469.31 278.79 441.73 295.39 412.11C299.07 405.56 302.59 399.16 305.55 393.76C307.03 391.06 308.5 388.36 309.96 385.68C322.37 362.95 334.08 341.49 348.71 322.38C368.05 297.11 391.66 272.39 415.17 252.78C462.23 213.53 507.27 197.25 549.03 204.39C565.04 207.12 580.77 213.48 595.77 223.28C611.87 233.79 627.54 248.52 642.33 267.07C657.43 286.04 671.9 306.54 685.89 326.38C687.39 328.49 688.88 330.61 690.37 332.72C720.42 375.35 748.8 415.61 781.86 446.83C793.88 458.18 806.52 469.04 819.42 479.1C835.51 491.6 851.5 502.58 866.93 511.72C891.19 526.1 921.39 543.99 951.24 533.61C967.42 527.99 979.75 515.51 988.95 495.46C1006.67 457.16 1009.82 398.66 1012.36 351.65C1013.27 334.83 1014.12 318.95 1015.54 306.11C1015.84 303.46 1016.13 300.8 1016.42 298.12C1019.08 273.93 1021.82 248.92 1026.59 224.51C1033.39 189.4 1047.01 141.8 1073.27 114.38C1080.59 106.73 1088.23 100.84 1096.63 96.38C1108.3 90.13 1121.31 87.19 1135.29 87.64C1148.06 88.05 1161.68 91.29 1175.8 97.25C1199.74 107.36 1222.63 125.73 1242 150.37C1263.68 177.9 1281.97 213.13 1296.31 255.06C1302.9 274.31 1308.61 294.88 1313.27 316.21C1317.73 336.64 1321.26 357.82 1323.74 379.16L1323 379.35C1312.17 286.36 1282.47 203.21 1241.51 151.22C1222.22 126.69 1199.43 108.4 1175.59 98.33C1146.18 85.91 1118.98 85.6 1096.88 97.44C1088.55 101.87 1080.97 107.71 1073.69 115.3C1047.63 142.53 1034.07 189.89 1027.31 224.82C1022.56 249.17 1019.82 274.14 1017.17 298.3C1016.88 300.98 1016.58 303.64 1016.29 306.29C1014.87 319.09 1014.02 334.95 1013.11 351.73C1010.57 398.88 1007.4 457.55 989.57 496.1C985.13 505.76 979.83 513.85 973.81 520.13C967.33 526.89 959.8 531.8 951.42 534.71C945.36 536.81 939.09 537.86 932.53 537.86Z" fill="#A1A1A1" fill-opacity="1.000000" fill-rule="nonzero"/>
		<path id="Vector" d="M942.77 543.35C933.74 543.35 924.17 541.17 913.86 536.81C899.27 530.62 885.27 520.97 872.91 512.46C857.3 501.69 841.3 489.17 825.35 475.22C812.52 463.98 799.95 451.94 787.99 439.45C758.52 408.71 733.34 371.04 706.68 331.16C702.32 324.64 697.82 317.9 693.35 311.28C677.63 288 664.2 268.8 649.8 250.79C620.76 214.55 588.59 194.92 554.17 192.42C510.91 189.29 464.58 212.18 416.46 260.45C392.56 284.43 369.02 313.83 350.19 343.23C336 365.38 324.91 389.49 313.16 415.02C311.71 418.18 310.25 421.36 308.78 424.54C306.16 430.2 302.7 437.67 299.12 445.16C284.07 476.75 264.4 509.28 232.68 510.94C231.69 510.99 230.7 511.01 229.71 511.01C204.94 511.01 179.65 496.4 153.78 480.09L152.16 479.06C139.35 470.91 127.24 463.22 116.04 457.61C73.81 436.49 32.97 418.67 2.11 405.5L2.33 404.35C33.2 417.52 74.05 435.35 116.29 456.48C127.53 462.09 139.64 469.8 152.48 477.96L154.09 478.99C180.91 495.9 207.1 510.98 232.65 509.74C264.02 508.1 283.52 475.83 298.46 444.47C302.04 436.99 305.5 429.52 308.12 423.86C309.59 420.68 311.05 417.51 312.5 414.35C324.26 388.78 335.37 364.63 349.6 342.4C368.48 312.94 392.06 283.48 416.01 259.45C438.24 237.15 460.48 220.03 482.11 208.55C506.92 195.39 531.18 189.56 554.2 191.23C588.81 193.73 621.14 213.46 650.31 249.87C664.74 267.91 678.18 287.12 693.91 310.42C698.38 317.05 702.89 323.79 707.25 330.31C733.88 370.15 759.04 407.78 788.45 438.46C800.39 450.94 812.94 462.96 825.75 474.18C841.68 488.11 857.66 500.62 873.25 511.36C897.72 528.23 928.18 549.22 958.49 539.77C975.06 534.61 987.47 522.05 996.43 501.4C1013.93 461.35 1014.98 399.55 1015.83 349.9C1016.1 333.7 1016.37 318.39 1017.2 306.06L1017.22 305.78C1019.09 278.17 1021.02 249.61 1025.46 221.44C1029.3 196.87 1034.65 174.78 1041.36 155.77C1048.93 134.35 1058.26 116.81 1069.09 103.63C1076.34 94.81 1084.01 87.81 1092.53 82.22C1115.56 67.03 1143.79 64.68 1174.15 75.44C1186.38 79.77 1198.43 86.33 1209.99 94.93C1221.61 103.59 1232.49 114.14 1242.31 126.29C1264.54 153.68 1282.94 189.24 1297.06 231.98C1309.73 270.39 1318.58 314.2 1322.65 358.68L1321.85 358.84C1313.15 263.64 1283.98 179.21 1241.81 127.21C1222.09 102.85 1198.63 85.35 1173.97 76.62C1143.78 65.92 1115.73 68.24 1092.86 83.32C1084.4 88.87 1076.79 95.82 1069.6 104.56C1049.37 129.17 1034.38 169.68 1026.24 221.72C1021.82 249.82 1019.89 278.33 1018.02 305.91L1018 306.19C1017.17 318.47 1016.91 333.76 1016.63 349.94C1015.78 399.74 1014.73 461.73 997.11 502.05C992.79 512.01 987.52 520.28 981.47 526.61C974.93 533.45 967.26 538.27 958.65 540.95C953.53 542.55 948.25 543.35 942.77 543.35Z" fill="#A1A1A1" fill-opacity="1.000000" fill-rule="nonzero"/>
		<path id="Vector" d="M233.27 550.25C222.19 550.25 210.13 547.04 196.52 540.47C182.99 533.95 169.61 524.94 157.17 516.18C154.92 514.58 152.68 512.99 150.46 511.41C139.41 503.54 128.97 496.1 119.21 490.31C80.3 467.22 43.21 446.47 7.34 426.41L1.4 423.08L1.7 421.9L7.64 425.22C43.51 445.29 80.61 466.04 119.52 489.13C129.31 494.94 139.76 502.38 150.83 510.27C153.05 511.85 155.28 513.44 157.53 515.03C183.08 533.02 210.21 550.44 236.53 548.89C268.88 546.88 288.27 509.33 301.54 476.84C304.94 468.53 308.22 460.25 310.69 453.96C312.06 450.5 313.41 447.04 314.77 443.58C325.98 414.96 336.58 387.93 350.51 362.43C368.9 328.79 392.46 294.59 416.86 266.14C439.49 239.74 462.33 218.88 484.75 204.14C510.46 187.24 535.57 178.47 559.38 178.07C595.22 177.28 628.5 195.65 658.3 232.67C674.81 253.22 689.62 275.45 701.93 294.48C708.63 304.84 715.33 315.46 721.8 325.72C744.73 362.08 768.45 399.66 795.04 430.11C806.92 443.71 819.39 456.89 832.09 469.28C847.82 484.57 863.79 498.61 879.57 511.01C904.23 530.39 934.91 554.5 965.74 545.94C982.71 541.23 995.2 528.6 1003.93 507.34C1021.19 465.48 1020.02 400.3 1019.09 347.92C1018.81 332.43 1018.55 317.8 1018.86 306.02C1019.57 279.47 1020.64 248.61 1024.34 218.38C1027.46 192.77 1032.17 169.6 1038.34 149.51C1045.31 126.79 1054.26 107.74 1064.92 92.89C1071.98 83.05 1079.89 74.7 1088.43 68.07C1100.63 58.57 1114.31 52.6 1129.1 50.32C1142.96 48.18 1157.56 49.31 1172.52 53.65C1185.13 57.31 1197.56 63.34 1209.46 71.57C1221.43 79.84 1232.6 90.15 1242.65 102.21C1254.23 116.09 1264.87 132.49 1274.29 150.94C1283.21 168.43 1291.12 187.93 1297.8 208.9C1310.29 248.13 1318.5 292.85 1321.56 338.21L1320.71 338.34C1314.15 240.92 1285.5 155.22 1242.11 103.2C1222.24 79.35 1197.47 62.19 1172.35 54.9C1141.3 45.87 1112.42 50.82 1088.82 69.19C1080.36 75.77 1072.51 84.06 1065.5 93.82C1045.42 121.8 1031.85 163.78 1025.18 218.61C1021.48 248.75 1020.42 279.56 1019.71 306.07C1019.4 317.81 1019.66 332.42 1019.94 347.89C1020.4 373.73 1020.92 403.01 1019.17 431.33C1017.13 464.18 1012.38 489.26 1004.65 508C1000.45 518.25 995.22 526.7 989.12 533.09C982.54 539.99 974.73 544.74 965.9 547.19C961.44 548.43 956.99 548.99 952.57 548.99C926.07 548.99 900.4 528.81 879.17 512.13C863.38 499.71 847.38 485.65 831.63 470.33C818.9 457.93 806.42 444.73 794.52 431.11C767.87 400.6 744.14 362.97 721.19 326.59C714.71 316.32 708.01 305.71 701.32 295.36C689.03 276.35 674.24 254.15 657.75 233.64C628.12 196.82 595.03 178.55 559.4 179.33C503.43 180.27 451.28 227.59 417.39 267.13C393.04 295.53 369.52 329.65 351.17 363.23C337.28 388.64 326.7 415.64 315.5 444.22C314.15 447.67 312.79 451.13 311.43 454.6C308.95 460.89 305.67 469.17 302.27 477.49C296.7 491.13 287.95 510.98 276.36 525.87C270.74 533.09 264.75 538.77 258.56 542.75C251.67 547.18 244.27 549.67 236.56 550.15C235.47 550.22 234.37 550.25 233.27 550.25Z" fill="#A1A1A1" fill-opacity="1.000000" fill-rule="nonzero"/>
		<path id="Vector" d="M236.82 589.5C225.73 589.5 213.7 586.03 200.16 578.96C186.14 571.64 172.28 561.36 160.57 552.26C156.97 549.45 153.38 546.61 149.91 543.86C140.2 536.18 131.03 528.93 122.38 523C91.34 501.72 60.49 480.94 30.66 460.85C20.79 454.2 10.59 447.33 0.7 440.66L1.07 439.44C10.96 446.11 21.16 452.98 31.03 459.63C60.86 479.72 91.71 500.5 122.76 521.79C131.43 527.73 140.61 534.99 150.33 542.68C153.8 545.43 157.39 548.27 160.98 551.07C185.27 569.94 213.43 589.91 240.4 588.03C273.52 585.67 292.12 544.66 304.62 509.2C307.83 500.12 310.93 491 313.27 484.07C314.47 480.51 315.67 476.95 316.86 473.41C327.59 441.52 337.72 411.39 351.42 382.47C369.24 344.84 392.78 305.9 417.71 272.82C452.43 226.95 506.09 170.99 564.56 164.93C601.75 160.96 635.97 177.97 666.28 215.48C679.9 232.34 693.37 251.79 709.95 278.55C718.33 292.07 726.65 306.08 734.69 319.63C755.62 354.88 777.25 391.34 801.63 421.76C813.44 436.51 825.83 450.85 838.44 464.38C853.71 480.75 869.68 496.33 885.89 510.68C910.8 532.58 941.79 559.84 972.99 552.13C990.1 547.98 1003.03 534.92 1011.42 513.3C1028.43 469.55 1024.79 397.97 1022.12 345.7C1021.37 331.03 1020.66 317.18 1020.53 306C1020.22 281.17 1020.24 248.42 1023.23 215.34C1028.37 158.02 1041 113.22 1060.75 82.18C1067.67 71.24 1075.62 61.74 1084.35 53.93C1096.77 42.82 1110.79 35.34 1126.01 31.71C1140.36 28.3 1155.44 28.35 1170.88 31.87C1183.9 34.91 1196.69 40.42 1208.93 48.24C1221.28 56.14 1232.73 66.2 1242.97 78.15C1254.81 91.95 1265.63 108.4 1275.12 127.05C1284.11 144.72 1291.99 164.5 1298.54 185.83C1310.83 225.89 1318.42 271.51 1320.47 317.76L1319.57 317.85C1315.15 218.21 1287.03 131.22 1242.42 79.2C1222.18 55.6 1196.74 39.26 1170.74 33.2C1138.69 25.88 1108.99 33.45 1084.81 55.08C1076.15 62.82 1068.28 72.25 1061.41 83.1C1041.79 113.93 1029.24 158.49 1024.12 215.52C1021.14 248.51 1021.12 281.19 1021.43 305.98C1021.57 317.12 1022.27 330.95 1023.02 345.6C1024.4 372.62 1025.96 403.24 1025.06 433.14C1024.03 467.95 1019.82 494.39 1012.2 513.97C1008.1 524.53 1002.92 533.16 996.79 539.61C990.14 546.6 982.19 551.26 973.14 553.45C959.11 556.92 944 553.8 926.96 543.92C912.15 535.32 897.96 522.84 885.44 511.83C869.2 497.47 853.21 481.87 837.92 465.47C825.29 451.92 812.89 437.56 801.06 422.8C776.63 392.31 754.97 355.82 734.02 320.53C725.98 306.98 717.67 292.97 709.29 279.47C692.74 252.76 679.3 233.35 665.71 216.52C635.58 179.23 601.57 162.32 564.62 166.26C506.4 172.31 452.92 228.09 418.3 273.82C393.42 306.84 369.93 345.69 352.15 383.24C338.49 412.08 328.37 442.16 317.66 474.01C316.47 477.56 315.27 481.11 314.07 484.67C311.73 491.6 308.62 500.73 305.41 509.83C292.8 545.6 274.01 586.98 240.44 589.37C239.25 589.45 238.04 589.5 236.82 589.5Z" fill="#A1A1A1" fill-opacity="1.000000" fill-rule="nonzero"/>
		<path id="Vector" d="M240.45 628.74C210.15 628.74 178.36 601 150.17 576.42C141.51 568.86 133.33 561.73 125.56 555.69L0 458.23L0.43 456.99L125.99 554.44C133.79 560.49 141.98 567.64 150.65 575.2C179.93 600.74 213.11 629.68 244.28 627.18C278.12 624.46 295.95 579.99 307.7 541.57C311.54 529 315.26 516.21 318.85 503.84C328.66 470.02 338.82 435.05 352.33 402.49C363.06 376.65 376.38 349.54 390.87 324.11C406.76 296.21 423.77 270.61 441.43 248.03C460.91 223.13 480.71 202.53 500.28 186.81C521.93 169.43 543.26 158.08 563.68 153.08C604.59 143.06 641.79 158.26 674.26 198.28C701.24 231.53 724.18 272.65 746.35 312.41C765.66 347.02 785.62 382.81 808.22 413.4C834.33 448.74 862.59 481.35 892.21 510.32C917.17 534.73 948.23 565.12 980.24 558.29C1007.28 552.52 1022.92 525.56 1028.03 475.87C1032.39 433.6 1028.25 383.46 1024.92 343.18C1023.78 329.45 1022.71 316.48 1022.19 305.96C1019.29 247.99 1021.14 200.13 1027.84 159.66C1032.02 134.41 1038.19 111.9 1046.18 92.76C1055.12 71.37 1066.57 53.55 1080.25 39.78C1092.07 27.86 1105.42 19.21 1119.88 14.06C1133.66 9.15 1148.16 7.51 1162.98 9.17C1192.14 12.44 1220.66 28.39 1243.29 54.06C1255.39 67.78 1266.37 84.3 1275.93 103.13C1285 120.99 1292.85 141.04 1299.27 162.74C1311.37 203.63 1318.32 250.15 1319.37 297.29L1318.42 297.34C1316.19 196.96 1287.89 106.44 1242.71 55.18C1194.74 0.76 1126.63 -5.23 1080.78 40.95C1035.35 86.69 1016.49 173.35 1023.13 305.86C1023.65 316.34 1024.72 329.29 1025.85 343C1029.18 383.38 1033.34 433.62 1028.97 476.08C1026.57 499.21 1021.79 517.8 1014.73 531.33C1010.76 538.94 1005.97 545.15 1000.5 549.8C994.67 554.75 987.9 558.08 980.37 559.68C977.3 560.34 974.17 560.67 970.98 560.67C959.38 560.67 947.02 556.3 933.49 547.44C918.23 537.46 903.51 523.07 891.69 511.5C862.02 482.49 833.73 449.83 807.58 414.45C784.93 383.79 764.95 347.96 745.62 313.31C723.47 273.6 700.57 232.53 673.65 199.37C641.4 159.62 604.45 144.52 563.83 154.47C481.65 174.6 397 297.53 353.13 403.24C339.65 435.7 329.51 470.63 319.71 504.41C316.12 516.78 312.4 529.58 308.56 542.15C300.75 567.67 293.05 585.93 284.3 599.64C278.85 608.19 272.93 614.93 266.71 619.68C259.79 624.95 252.26 627.95 244.32 628.59C243.04 628.69 241.75 628.74 240.45 628.74Z" fill="#A1A1A1" fill-opacity="1.000000" fill-rule="nonzero"/>
	</g>
</svg>
