<svg width="304.000000" height="109.561523" viewBox="0 0 304 109.562" fill="none" xmlns="http://www.w3.org/2000/svg" xmlns:xlink="http://www.w3.org/1999/xlink">
	<desc>
			Created with Pixso.
	</desc>
	<defs/>
	<path id="Vector" d="M286.02 89.75C285.6 89.79 285.18 89.81 284.77 89.86C284.5 89.9 284.39 89.8 284.21 89.75C284.15 89.73 284.09 89.7 284.04 89.7C283.62 89.74 283.21 89.78 282.8 89.82C282.67 89.9 282.59 90.02 282.4 90.06C282.21 90.1 281.99 90.1 281.77 90.12C281.5 90.14 281.22 90.16 280.94 90.19C280.8 90.2 280.69 90.24 280.64 90.32C280.63 90.33 280.73 90.36 280.78 90.38C280.95 90.45 281.11 90.52 281.29 90.58C281.47 90.62 281.69 90.54 281.88 90.61C282.31 90.74 282.31 90.74 282.63 90.72C282.91 90.69 283.19 90.67 283.47 90.65C283.52 90.64 283.59 90.68 283.64 90.69C283.82 90.74 283.94 90.85 284.2 90.81C284.39 90.78 284.61 90.77 284.82 90.75C284.99 90.82 285.15 90.89 285.34 90.94C285.51 90.99 285.56 91.03 285.47 91.09C285.38 91.15 285.27 91.17 285.11 91.18C284.97 91.18 284.83 91.2 284.69 91.21C284.62 91.22 284.55 91.22 284.49 91.23C284.22 91.25 284.22 91.25 283.74 91.11C283.55 91.06 283.33 91.13 283.15 91.08C283.03 91.05 282.92 90.99 282.81 90.96C282.76 90.94 282.68 90.94 282.61 90.94C282.4 90.96 282.19 90.97 281.99 91C281.85 91.02 281.76 91.08 281.78 91.14C281.78 91.16 281.88 91.2 281.94 91.2C282.08 91.21 282.22 91.17 282.35 91.19C282.48 91.21 282.61 91.25 282.7 91.3C282.89 91.4 283.1 91.31 283.29 91.34C283.48 91.36 283.63 91.45 283.81 91.5C283.86 91.52 283.95 91.5 284.02 91.49C284.23 91.47 284.43 91.46 284.64 91.45C284.81 91.51 285 91.57 285.15 91.64C285.43 91.77 285.74 91.82 286.1 91.76C286.31 91.72 286.51 91.74 286.68 91.82C286.85 91.91 287.04 91.9 287.25 91.88C287.45 91.86 287.65 91.82 287.86 91.88C288.29 92.01 288.3 92.02 288.82 91.97C288.97 91.95 289.09 91.95 289.21 92C289.32 92.04 289.44 92.08 289.55 92.13C289.76 92.11 289.97 92.1 290.17 92.08C290.44 92.06 290.59 92.09 290.65 92.21C290.69 92.28 290.7 92.35 290.8 92.4C290.91 92.46 291.02 92.46 291.18 92.44C291.34 92.43 291.44 92.41 291.51 92.33C291.53 92.29 291.58 92.26 291.63 92.24C291.67 92.22 291.73 92.19 291.76 92.19C291.82 92.2 291.91 92.22 291.93 92.25C292.14 92.52 292.14 92.52 292.35 92.6C292.58 92.68 292.82 92.76 293.03 92.86C293.22 92.94 293.41 92.9 293.61 92.9C293.77 92.9 293.87 92.96 293.86 93.02C293.85 93.05 293.79 93.1 293.74 93.1C293.33 93.15 292.91 93.18 292.49 93.22C292.44 93.22 292.38 93.18 292.32 93.16C292.2 93.12 292.1 93.06 291.97 93.05C291.84 93.03 291.7 93.07 291.56 93.08C291.42 93.09 291.27 93.12 291.15 93.1C291.02 93.08 290.92 93.02 290.8 92.98C290.75 92.96 290.67 92.93 290.62 92.93C290.32 92.99 290.09 92.91 289.87 92.82C289.82 92.8 289.74 92.79 289.68 92.79C289.2 92.83 288.71 92.87 288.22 92.91C288.03 92.93 287.86 92.85 287.82 92.72C287.8 92.65 287.76 92.58 287.76 92.51C287.76 92.37 287.53 92.3 287.36 92.32C287.08 92.34 286.8 92.36 286.53 92.39C286.3 92.42 286.11 92.39 285.96 92.31C285.78 92.22 285.58 92.24 285.38 92.26C285.23 92.28 285.19 92.35 285.19 92.53C285.2 92.68 285.13 92.73 284.86 92.75C284.51 92.78 284.16 92.81 283.81 92.84C283.76 92.84 283.7 92.8 283.64 92.79C283.52 92.75 283.42 92.68 283.29 92.67C283.16 92.65 283.02 92.69 282.88 92.7C282.74 92.71 282.59 92.74 282.47 92.73C282.34 92.71 282.23 92.64 282.12 92.6C282.07 92.58 282 92.55 281.94 92.56C281.67 92.58 281.39 92.6 281.11 92.63C280.8 92.65 280.8 92.65 280.35 92.52C280.15 92.46 279.95 92.5 279.75 92.52C279.54 92.54 279.34 92.55 279.18 92.46C279.07 92.4 278.95 92.37 278.82 92.38C278.47 92.41 278.12 92.44 277.77 92.46C277.71 92.47 277.63 92.46 277.59 92.44C277.37 92.35 277.15 92.27 276.83 92.32C276.57 92.36 276.27 92.36 276.01 92.4C275.86 92.42 275.79 92.49 275.82 92.54C275.84 92.57 275.92 92.6 275.98 92.6C276.12 92.61 276.27 92.57 276.39 92.59C276.65 92.61 276.78 92.8 277.13 92.75C277.33 92.72 277.54 92.71 277.75 92.7C277.8 92.7 277.86 92.74 277.92 92.76C278.09 92.82 278.24 92.89 278.48 92.86C278.68 92.82 278.9 92.82 279.1 92.8C279.43 92.77 279.43 92.77 279.86 92.91C280.06 92.97 280.26 92.92 280.46 92.9C280.61 92.89 280.75 92.87 280.87 92.9C281.05 92.95 281.18 93.05 281.4 93.05C281.61 93.04 281.82 93.01 282.03 93C282.16 92.99 282.28 93.03 282.39 93.09C282.5 93.15 282.61 93.17 282.76 93.16C282.96 93.14 283.17 93.12 283.38 93.11C283.44 93.11 283.51 93.13 283.56 93.14C283.68 93.18 283.8 93.23 283.91 93.27C284.12 93.26 284.33 93.25 284.53 93.23C284.69 93.21 284.79 93.22 284.92 93.26C285.08 93.32 285.21 93.42 285.47 93.37C285.6 93.35 285.76 93.36 285.89 93.33C286.04 93.31 286.15 93.32 286.27 93.38C286.48 93.51 286.75 93.51 287.03 93.46C287.33 93.41 287.56 93.47 287.79 93.57C288.03 93.67 288.03 93.67 288.21 93.91C288.27 93.98 288.42 94.01 288.56 94C288.77 93.98 288.96 93.99 289.12 94.07C289.29 94.16 289.49 94.15 289.7 94.13C289.97 94.09 290.25 94.07 290.47 94.19C290.58 94.25 290.7 94.27 290.85 94.25C291.26 94.22 291.68 94.19 292.09 94.14C292.34 94.11 292.49 94.18 292.65 94.24C292.88 94.32 293.13 94.4 293.13 94.57C293.13 94.6 293.19 94.63 293.24 94.65C293.35 94.7 293.47 94.74 293.58 94.78C293.75 94.85 293.91 94.9 294.14 94.87C294.35 94.84 294.56 94.83 294.77 94.81C294.97 94.79 295.16 94.78 295.35 94.86C295.56 94.96 295.79 95.05 296.04 95.12C296.21 95.17 296.44 95.08 296.62 95.15C296.73 95.19 296.84 95.24 296.97 95.28C297.02 95.29 297.1 95.28 297.16 95.28C297.3 95.27 297.45 95.26 297.58 95.24C297.74 95.21 297.85 95.22 297.97 95.27C298.08 95.32 298.19 95.38 298.32 95.39C298.51 95.41 298.72 95.32 298.91 95.43C299 95.48 299.13 95.52 299.25 95.54C299.38 95.56 299.53 95.52 299.66 95.52C299.72 95.52 299.79 95.56 299.82 95.59C299.85 95.6 299.82 95.65 299.79 95.67C299.75 95.69 299.7 95.73 299.64 95.73C299.22 95.77 298.81 95.81 298.39 95.84C298.14 95.86 298.14 95.86 297.64 95.73C297.52 95.69 297.39 95.7 297.24 95.72C297.05 95.74 296.84 95.77 296.64 95.73C296.37 95.58 296.04 95.57 295.68 95.63C295.53 95.65 295.4 95.65 295.29 95.61C295.06 95.53 294.81 95.45 294.61 95.35C294.45 95.27 294.37 95.27 294.3 95.37C294.28 95.41 294.26 95.44 294.27 95.47C294.29 95.58 294.34 95.69 294.36 95.8C294.37 95.83 294.34 95.86 294.32 95.9C294.25 95.99 294.16 95.98 294.01 95.91C293.87 95.83 293.69 95.78 293.45 95.81C293.25 95.84 293.03 95.84 292.83 95.87C292.52 95.92 292.3 95.85 292.08 95.76C292.03 95.74 291.95 95.73 291.89 95.73C291.26 95.78 290.64 95.84 290.01 95.89C289.88 95.9 289.76 95.87 289.65 95.81C289.54 95.75 289.42 95.72 289.28 95.73C288.73 95.77 288.17 95.82 287.62 95.87C287.39 95.9 287.21 95.87 287.05 95.79C286.93 95.74 286.82 95.72 286.68 95.72C286.52 95.73 286.4 95.75 286.32 95.82C286.25 95.88 286.3 95.92 286.47 95.96C286.65 96.02 286.82 96.08 286.99 96.15C287.13 96.14 287.27 96.12 287.41 96.12C287.46 96.12 287.52 96.16 287.58 96.18C287.75 96.25 287.9 96.31 288.14 96.28C288.35 96.24 288.56 96.24 288.77 96.22C289.05 96.19 289.05 96.19 289.51 96.33C289.63 96.37 289.76 96.37 289.91 96.35C290.04 96.33 290.18 96.36 290.27 96.43C290.31 96.45 290.29 96.5 290.21 96.64C290.21 96.75 290.3 96.7 290.33 96.63C290.38 96.53 290.29 96.5 290.12 96.55C290 96.59 289.95 96.65 289.97 96.7C289.99 96.72 290.07 96.75 290.21 96.64C290.59 96.51 290.87 96.5 291.14 96.46C291.3 96.44 291.4 96.45 291.52 96.51C291.68 96.57 291.83 96.65 292.08 96.61C292.35 96.57 292.63 96.57 292.91 96.53C293.16 96.5 293.29 96.6 293.45 96.66C293.64 96.73 293.86 96.65 294.04 96.69C294.22 96.73 294.35 96.82 294.57 96.84C294.88 96.78 295.07 96.89 295.31 96.97C295.5 97.02 295.72 96.97 295.91 96.95C296.14 96.92 296.32 96.95 296.48 97.02C296.65 97.11 296.85 97.09 297.05 97.08C297.53 97.03 297.54 97.02 297.82 97.15C298.01 97.23 298.2 97.19 298.4 97.18C298.57 97.24 298.74 97.31 298.92 97.36C298.97 97.37 299.06 97.35 299.13 97.34C299.34 97.33 299.55 97.31 299.75 97.29C299.89 97.28 300.04 97.25 300.17 97.26C300.29 97.28 300.4 97.34 300.51 97.38C300.63 97.42 300.74 97.46 300.85 97.51C301.02 97.57 301.18 97.63 301.42 97.6C301.62 97.57 301.83 97.56 302.04 97.54C302.31 97.51 302.3 97.52 302.79 97.65C303.06 97.73 303.33 97.64 303.6 97.63C303.73 97.62 303.86 97.65 303.96 97.71C304 97.74 303.98 97.78 304 97.82C303.3 97.88 302.6 97.93 301.91 98C301.65 98.03 301.51 97.95 301.37 97.89C301.13 97.78 300.82 97.93 300.6 97.8C300.46 97.72 300.27 97.67 300.04 97.71C299.9 97.73 299.76 97.73 299.62 97.75C299.26 97.8 298.94 97.8 298.66 97.65C298.56 97.6 298.42 97.57 298.32 97.52C298.2 97.46 298.09 97.43 297.95 97.44C297.32 97.49 296.7 97.55 296.08 97.6C296.02 97.61 295.97 97.64 295.92 97.67C295.8 97.73 295.84 97.78 296.03 97.82C296.09 97.83 296.14 97.86 296.2 97.88C296.32 97.92 296.42 97.99 296.55 98C296.68 98.02 296.82 97.99 296.96 97.98C297.1 97.96 297.25 97.93 297.37 97.94C297.5 97.96 297.61 98.02 297.72 98.06C297.78 98.08 297.85 98.12 297.9 98.11C298.18 98.1 298.45 98.08 298.73 98.06C298.9 98.12 299.05 98.2 299.26 98.22C299.39 98.23 299.53 98.21 299.66 98.22C299.72 98.22 299.8 98.25 299.82 98.28C299.84 98.3 299.79 98.34 299.75 98.36C299.59 98.45 299.37 98.43 299.17 98.46C298.95 98.49 298.76 98.48 298.6 98.39C298.49 98.33 298.36 98.3 298.23 98.31C297.88 98.34 297.53 98.38 297.19 98.4C297.13 98.4 297.05 98.38 297 98.37C296.56 98.23 296.56 98.23 296.25 98.26C295.79 98.3 295.79 98.3 295.48 98.18C295.42 98.16 295.36 98.12 295.31 98.12C294.82 98.16 294.33 98.19 293.85 98.24C293.69 98.26 293.58 98.26 293.46 98.2C293.36 98.15 293.24 98.1 293.12 98.09C292.99 98.07 292.84 98.11 292.7 98.12C292.57 98.13 292.42 98.16 292.29 98.14C292.17 98.12 292.06 98.06 291.95 98.02C291.84 97.97 291.71 97.97 291.56 97.99C291.08 98.04 291.07 98.03 290.6 97.9C290.54 97.88 290.47 97.86 290.41 97.87C290.06 97.89 289.72 97.93 289.37 97.95C289.23 97.96 289.1 97.94 289.01 97.87C288.97 97.85 288.99 97.8 288.96 97.72C288.93 97.7 288.96 97.73 288.97 97.76C289.04 97.76 289.11 97.76 289.16 97.75C289.28 97.71 289.33 97.65 289.31 97.6C289.29 97.58 289.21 97.55 289.16 97.55C289.07 97.55 288.99 97.6 288.96 97.72C288.69 97.79 288.41 97.8 288.14 97.84C287.98 97.86 287.88 97.85 287.75 97.79C287.6 97.72 287.44 97.66 287.2 97.69C286.93 97.73 286.64 97.74 286.36 97.77C286.04 97.8 285.9 97.6 285.63 97.61C285.35 97.61 285.08 97.65 284.8 97.68C284.55 97.7 284.55 97.7 284.05 97.56C283.86 97.5 283.64 97.58 283.46 97.53C283.34 97.49 283.24 97.44 283.12 97.4C283.07 97.38 282.99 97.38 282.92 97.39C282.57 97.42 282.22 97.43 281.88 97.48C281.5 97.54 281.21 97.48 280.94 97.35C280.59 97.37 280.24 97.38 279.9 97.43C279.65 97.46 279.51 97.38 279.34 97.33C279.28 97.31 279.23 97.27 279.17 97.26C279.1 97.26 279.03 97.27 278.96 97.28C278.68 97.3 278.4 97.31 278.13 97.35C277.79 97.4 277.67 97.22 277.41 97.2C277.24 97.31 277.15 97.46 276.81 97.47C276.53 97.48 276.25 97.51 275.97 97.54C275.83 97.55 275.69 97.56 275.55 97.57C275.33 97.59 275.23 97.68 275.27 97.81C275.3 97.88 275.32 97.95 275.34 98.03C275.38 98.16 275.28 98.27 275.1 98.28C274.61 98.32 274.13 98.37 273.64 98.4C273.51 98.42 273.38 98.38 273.28 98.32C273.17 98.26 273.04 98.23 272.91 98.24C272.42 98.29 271.94 98.33 271.45 98.37C271.39 98.37 271.32 98.35 271.27 98.33C271.15 98.29 271.04 98.25 270.92 98.2C270.64 98.22 270.37 98.24 270.1 98.26C269.65 98.3 269.65 98.31 269.33 98.18C269.27 98.16 269.21 98.12 269.16 98.12C268.95 98.13 268.74 98.15 268.53 98.17C267.91 98.23 267.91 98.23 267.73 98.16C267.56 98.1 267.42 98.03 267.17 98.06C266.9 98.1 266.61 98.12 266.33 98.14C266.13 98.15 265.92 98.17 265.72 98.18C265.66 98.18 265.6 98.14 265.54 98.11C265.37 98.05 265.21 97.99 264.98 98.03C264.84 98.05 264.7 98.05 264.56 98.07C264.2 98.1 264.2 98.1 263.6 97.96C263.55 97.95 263.48 97.94 263.42 97.94C262.93 97.98 262.44 98.03 261.95 98.06C261.9 98.07 261.82 98.05 261.76 98.04C261.1 97.92 261.1 97.92 260.39 97.98C260.12 98 260.11 98.01 259.83 97.89C259.71 97.84 259.6 97.82 259.45 97.83C258.9 97.89 258.34 97.92 257.79 97.98C257.54 98.01 257.39 97.94 257.23 97.88C257.17 97.86 257.1 97.82 257.05 97.82C256.5 97.86 255.94 97.91 255.38 97.96C255.33 97.96 255.27 97.92 255.21 97.9C255.1 97.86 254.99 97.8 254.86 97.78C254.73 97.77 254.59 97.8 254.45 97.82C254.1 97.84 254.1 97.84 253.69 97.71C253.64 97.69 253.57 97.67 253.51 97.67C252.95 97.72 252.39 97.76 251.84 97.82C251.53 97.85 251.31 97.79 251.09 97.7C251.04 97.68 250.96 97.67 250.9 97.67C250.28 97.73 249.65 97.78 249.03 97.83C248.89 97.84 248.77 97.81 248.66 97.75C248.49 97.66 248.3 97.67 248.09 97.69C247.6 97.74 247.6 97.73 247.31 97.63C247.25 97.61 247.2 97.58 247.14 97.57C247.08 97.56 247 97.56 246.94 97.57C246.66 97.59 246.38 97.61 246.11 97.64C245.83 97.66 245.55 97.67 245.27 97.71C244.94 97.76 244.78 97.62 244.54 97.55C244.19 97.58 243.84 97.6 243.5 97.64C243.24 97.68 243.12 97.58 242.94 97.53C242.88 97.51 242.82 97.47 242.77 97.48C242.14 97.53 241.51 97.58 240.89 97.64C240.74 97.65 240.64 97.64 240.51 97.58C240.23 97.46 240.21 97.47 239.74 97.51C239.54 97.53 239.34 97.55 239.16 97.46C239.01 97.38 238.82 97.36 238.59 97.38C238.32 97.42 238.04 97.44 237.76 97.46C237.48 97.48 237.2 97.51 236.93 97.53C236.7 97.54 236.57 97.43 236.39 97.38C236.34 97.37 236.26 97.36 236.2 97.37C235.92 97.39 235.63 97.4 235.36 97.44C235.03 97.49 234.85 97.37 234.62 97.29C234.57 97.28 234.49 97.29 234.42 97.29C233.93 97.33 233.45 97.38 232.96 97.42C232.79 97.36 232.61 97.3 232.44 97.24C232.16 97.27 231.88 97.29 231.61 97.31C231.4 97.33 231.18 97.34 230.98 97.37C230.73 97.41 230.6 97.31 230.43 97.26C230.37 97.24 230.3 97.2 230.25 97.21C229.9 97.23 229.55 97.26 229.21 97.3C228.88 97.33 228.75 97.14 228.48 97.14C228.2 97.14 227.91 97.17 227.64 97.21C227.33 97.26 227.11 97.18 226.89 97.09C226.84 97.07 226.76 97.06 226.7 97.06C226.35 97.09 226.01 97.12 225.66 97.15C225.6 97.15 225.53 97.14 225.47 97.13C224.8 97 224.8 97 224.51 97.02C224.31 97.04 224.1 97.06 223.89 97.08C223.83 97.08 223.76 97.06 223.7 97.04C223.26 96.91 223.26 96.91 222.95 96.93C222.67 96.96 222.39 96.98 222.11 97C221.94 96.95 221.76 96.89 221.59 96.83C221.25 96.86 220.89 96.88 220.55 96.92C220.39 96.94 220.29 96.93 220.16 96.88C220.01 96.81 219.86 96.73 219.61 96.77C219.34 96.81 219.05 96.81 218.78 96.85C218.45 96.89 218.31 96.69 218.05 96.69C217.77 96.69 217.48 96.72 217.21 96.76C216.9 96.8 216.68 96.73 216.46 96.64C216.41 96.62 216.33 96.61 216.28 96.61C215.51 96.68 214.75 96.74 213.98 96.81C213.51 96.85 213.51 96.85 212.61 96.73C212.55 96.72 212.48 96.71 212.42 96.72C212.14 96.74 211.85 96.75 211.58 96.79C211.26 96.84 211.07 96.72 210.84 96.65C210.79 96.63 210.71 96.64 210.64 96.64C210.43 96.66 210.23 96.68 210.02 96.7C209.74 96.72 209.46 96.75 209.18 96.77C209.01 96.71 208.83 96.65 208.66 96.6C208.32 96.62 207.96 96.64 207.62 96.69C207.36 96.72 207.24 96.63 207.06 96.58C207.01 96.56 206.94 96.52 206.89 96.52C206.26 96.57 205.63 96.62 205.01 96.68C204.75 96.71 204.63 96.61 204.46 96.56C204.4 96.55 204.34 96.52 204.28 96.52C203.86 96.55 203.45 96.59 203.03 96.63C202.79 96.65 202.79 96.65 202.28 96.51C202.22 96.5 202.15 96.48 202.1 96.49C200.77 96.6 199.45 96.71 198.13 96.82C198 96.83 197.87 96.8 197.77 96.74C197.66 96.68 197.54 96.65 197.4 96.66C196.85 96.71 196.29 96.75 195.74 96.81C195.51 96.83 195.33 96.8 195.17 96.73C195.05 96.67 194.94 96.65 194.8 96.66C194.52 96.69 194.24 96.71 193.96 96.73C193.68 96.76 193.41 96.78 193.13 96.8C192.85 96.83 192.57 96.84 192.29 96.88C191.96 96.93 191.79 96.79 191.56 96.72C191.14 96.75 190.73 96.79 190.32 96.82C189.76 96.87 189.2 96.92 188.65 96.96C188.6 96.97 188.53 96.93 188.47 96.91C188.3 96.85 188.18 96.78 187.92 96.8C186.67 96.92 185.42 97.02 184.17 97.13C183.9 97.15 183.79 97.06 183.61 97.01C183.56 96.99 183.49 96.96 183.43 96.97C182.74 97.02 182.04 97.08 181.35 97.14C181.07 97.17 181.07 97.17 180.59 97.03C180.54 97.02 180.47 97 180.41 97C179.5 97.08 178.6 97.15 177.7 97.23C177.56 97.24 177.44 97.21 177.33 97.15C177.23 97.09 177.1 97.06 176.97 97.07C176.13 97.14 175.3 97.21 174.47 97.29C174.24 97.31 174.06 97.29 173.9 97.21C173.78 97.15 173.67 97.13 173.53 97.14C172.28 97.25 171.03 97.35 169.77 97.47C169.53 97.49 169.37 97.45 169.21 97.37C169.09 97.32 168.99 97.31 168.84 97.31C168.68 97.33 168.58 97.35 168.49 97.42C168.38 97.5 168.31 97.61 168.04 97.62C167.76 97.62 167.48 97.65 167.2 97.69C166.94 97.72 166.82 97.62 166.65 97.56C166.53 97.52 166.42 97.52 166.26 97.54C166.12 97.55 166.03 97.59 165.95 97.66C165.76 97.81 165.74 97.81 165.52 97.72C165.39 97.67 165.29 97.63 165.15 97.64C164.59 97.68 164.04 97.73 163.48 97.78C163.16 97.81 163.16 97.81 162.92 97.7C162.8 97.65 162.69 97.62 162.55 97.63C161.02 97.76 159.49 97.89 157.96 98.03C157.73 98.05 157.57 98.01 157.4 97.94C157.34 97.92 157.29 97.89 157.22 97.88C157.16 97.87 157.09 97.88 157.02 97.88C155.91 97.98 154.79 98.07 153.69 98.17C153.43 98.2 153.3 98.13 153.13 98.07C153.07 98.05 153.02 98.02 152.95 98.01C152.89 98 152.81 98.02 152.75 98.03C151.64 98.12 150.52 98.21 149.41 98.32C149.15 98.34 149.03 98.25 148.86 98.2C148.8 98.18 148.74 98.15 148.68 98.15C148.33 98.18 147.99 98.21 147.64 98.24C146.8 98.31 145.97 98.38 145.14 98.45C144.82 98.48 144.68 98.29 144.41 98.3C144.06 98.31 143.71 98.35 143.36 98.38C143.09 98.41 142.81 98.43 142.53 98.45C142.25 98.48 142.25 98.48 141.57 98.35C141.51 98.34 141.44 98.33 141.38 98.33C140.41 98.41 139.43 98.49 138.47 98.58C138.24 98.6 138.06 98.59 137.9 98.51C137.78 98.45 137.67 98.42 137.53 98.43C136.07 98.56 134.61 98.69 133.15 98.81C133.09 98.81 133.02 98.79 132.97 98.77C132.85 98.73 132.73 98.69 132.62 98.65C132.53 98.7 132.43 98.74 132.37 98.8C132.3 98.88 132.19 98.9 132.03 98.91C131.87 98.92 131.77 98.92 131.65 98.86C131.5 98.79 131.34 98.74 131.09 98.76C129.56 98.9 128.03 99.02 126.5 99.16C126.25 99.18 126.13 99.09 125.96 99.03C125.9 99.02 125.83 98.99 125.78 99C125.15 99.05 124.53 99.1 123.9 99.16C122.16 99.31 120.42 99.45 118.68 99.61C118.37 99.64 118.15 99.58 117.93 99.49C117.88 99.47 117.8 99.46 117.74 99.46C115.31 99.67 112.88 99.88 110.45 100.08C110.32 100.1 110.19 100.06 110.08 100C109.97 99.94 109.85 99.92 109.72 99.93C108.61 100.02 107.49 100.12 106.38 100.21C106.1 100.24 106.1 100.24 105.81 100.13C105.75 100.11 105.69 100.07 105.64 100.07C105.55 100.08 105.45 100.14 105.39 100.21C105.32 100.29 105.21 100.32 105.06 100.33C104.9 100.35 104.79 100.34 104.67 100.29C104.52 100.22 104.37 100.16 104.12 100.18C100.92 100.46 97.73 100.73 94.53 101.01C94.27 101.03 94.15 100.94 93.98 100.89C93.92 100.87 93.86 100.85 93.8 100.85C93.73 100.84 93.66 100.86 93.59 100.86C88.38 101.31 83.16 101.76 77.95 102.2C77.64 102.23 77.64 102.23 77.3 102.43C77.26 102.46 77.2 102.49 77.14 102.49C75.55 102.63 73.95 102.77 72.35 102.91C71.65 102.96 70.96 103.03 70.26 103.08C70.01 103.1 70.01 103.1 69.42 103.34C69.37 103.36 69.31 103.39 69.25 103.39C66.47 103.63 63.69 103.87 60.91 104.1C60.69 104.12 60.51 104.16 60.41 104.27C60.34 104.34 60.25 104.39 60.11 104.4C58.16 104.57 56.22 104.74 54.27 104.9C54.03 104.92 53.9 104.98 53.78 105.07C53.74 105.1 53.71 105.14 53.66 105.16C53.6 105.18 53.53 105.19 53.47 105.19C51.8 105.33 50.13 105.48 48.46 105.62C48.21 105.64 48.11 105.72 47.99 105.81C47.94 105.83 47.91 105.87 47.86 105.89C47.81 105.91 47.73 105.91 47.66 105.91C46.27 106.03 44.88 106.15 43.49 106.27C43.22 106.26 43.16 106.39 43.03 106.47C42.98 106.49 42.95 106.53 42.89 106.55C42.84 106.56 42.76 106.56 42.69 106.57C41.58 106.66 40.46 106.76 39.35 106.85C39.09 106.87 39.04 106.98 38.9 107.06C38.86 107.08 38.81 107.12 38.75 107.13C38.06 107.19 37.36 107.25 36.67 107.31C36.44 107.33 36.44 107.32 36.03 107.54C35.98 107.56 35.93 107.59 35.87 107.6C34.83 107.69 33.79 107.78 32.74 107.87C32.61 107.88 32.51 107.93 32.45 108.01C32.38 108.08 32.28 108.13 32.15 108.14C31.31 108.21 30.48 108.29 29.64 108.35C29.41 108.37 29.26 108.43 29.16 108.52C29.08 108.6 28.99 108.64 28.84 108.65C28.01 108.72 27.18 108.8 26.34 108.86C26.09 108.88 25.97 108.95 25.87 109.04C25.79 109.12 25.69 109.14 25.54 109.16C24.01 109.28 22.48 109.41 20.95 109.55C20.7 109.58 20.56 109.5 20.4 109.44C20.16 109.37 19.93 109.28 19.93 109.11C19.93 109.09 19.86 109.06 19.81 109.03C19.44 108.87 19.44 108.87 19.38 108.69C19.34 108.59 19.31 108.48 19.28 108.37C19.22 108.19 19.09 108.14 18.7 108.17C18.56 108.18 18.42 108.2 18.28 108.21C18.08 108.22 17.92 108.15 17.88 108.02C17.86 107.95 17.84 107.87 17.81 107.8C18.03 107.78 18.02 107.78 18.39 107.52C18.55 107.4 18.55 107.4 18.25 107.29C18.13 107.25 18.03 107.2 17.9 107.16C17.85 107.15 17.78 107.14 17.72 107.14C17.37 107.17 17.02 107.2 16.68 107.23C16.12 107.28 16.12 107.28 15.56 107.05C15.51 107.04 15.44 107 15.45 106.98C15.49 106.9 15.61 106.87 15.75 106.86C15.96 106.85 16.17 106.82 16.37 106.81C16.51 106.8 16.65 106.78 16.79 106.77C16.92 106.69 17.06 106.61 17.18 106.52C17.37 106.39 17.37 106.38 17.11 106.29C16.94 106.23 16.76 106.18 16.58 106.12C16.38 106.14 16.17 106.16 15.96 106.17C15.7 106.19 15.59 106.15 15.53 106.01C15.47 105.88 15.54 105.77 15.74 105.75C15.95 105.72 16.14 105.7 16.25 105.59C16.35 105.48 16.53 105.44 16.74 105.43C16.88 105.43 17.02 105.41 17.16 105.4C17.34 105.38 17.44 105.27 17.4 105.14C17.38 105.06 17.34 104.99 17.17 104.98C16.45 104.9 16.44 104.9 16.08 104.75C16.04 104.74 16.02 104.7 16.03 104.68C16.05 104.65 16.1 104.6 16.15 104.59C16.63 104.54 17.12 104.5 17.6 104.47C17.76 104.46 17.88 104.44 17.93 104.36C18.01 104.25 17.97 104.14 17.83 104.07C17.78 104.04 17.7 104.01 17.65 104.01C17.1 104.05 16.55 104.1 15.99 104.14C15.94 104.15 15.85 104.11 15.83 104.08C15.78 104.03 15.85 103.96 16 103.94C16.19 103.9 16.39 103.9 16.52 103.79C16.7 103.63 16.92 103.49 17.12 103.34C17.16 103.32 17.21 103.27 17.2 103.26C17.09 103.21 16.97 103.18 16.86 103.13C16.68 103.05 16.68 102.94 16.72 102.84C16.75 102.76 16.88 102.73 17.04 102.73C17.1 102.73 17.19 102.73 17.24 102.71C17.38 102.66 17.43 102.6 17.36 102.55C17.32 102.52 17.24 102.49 17.19 102.49C16.29 102.56 15.38 102.63 14.49 102.72C14.22 102.75 14.1 102.67 13.94 102.61C13.82 102.56 13.7 102.54 13.55 102.58C13.41 102.61 13.27 102.59 13.18 102.52C13.11 102.46 13.24 102.41 13.58 102.35C13.64 102.34 13.71 102.33 13.76 102.31C14.25 102.07 14.25 102.07 14.58 102.04C14.91 102.01 14.91 102.01 15.09 101.88C15.17 101.82 15.25 101.76 15.33 101.7C15.36 101.68 15.41 101.63 15.39 101.62C15.3 101.55 15.17 101.54 15.03 101.55C14.7 101.59 14.31 101.56 14.14 101.77C14.07 101.85 13.97 101.87 13.81 101.88C12.29 102.01 10.76 102.15 9.24 102.27C8.99 102.29 8.87 102.37 8.78 102.46C8.69 102.53 8.6 102.56 8.44 102.57C8.28 102.58 8.15 102.59 8.06 102.52C8.01 102.47 8.05 102.41 8.18 102.35C8.36 102.26 8.33 102.15 8.27 102.05C8.22 101.98 8.09 101.93 7.95 101.94C7.75 101.95 7.55 101.97 7.38 101.88C7.28 101.83 7.15 101.8 7.04 101.75C6.82 101.66 6.6 101.57 6.29 101.63C6.08 101.61 5.93 101.53 5.77 101.47C5.48 101.37 5.46 101.35 5.66 101.24C5.89 101.12 5.71 100.96 5.84 100.84C5.97 100.72 6.16 100.61 6.32 100.49C6.36 100.46 6.4 100.43 6.44 100.4C6.35 100.35 6.26 100.3 6.14 100.27C6 100.23 5.92 100.18 5.93 100.04C5.9 100.02 5.91 100.07 5.95 100.09C5.98 100.1 6.08 100.09 6.12 100.07C6.24 100.03 6.3 99.98 6.27 99.93C6.25 99.91 6.17 99.88 6.12 99.88C6.03 99.88 5.95 99.92 5.92 100.04C5.45 100.13 4.96 100.18 4.48 100.21C4.43 100.22 4.36 100.17 4.3 100.15C4.11 100.08 4.11 100.08 3.54 100.06C3.48 100.05 3.4 100.02 3.37 99.99C3.25 99.86 3.25 99.71 3.2 99.57C3.31 99.48 3.41 99.39 3.53 99.3C3.76 99.11 4.05 98.95 4.23 98.75C4.19 98.65 4.14 98.54 4.32 98.45C4.85 98.34 4.85 98.34 4.99 98.23C5.4 97.94 5.8 97.64 6.23 97.34C6.34 97.26 6.34 97.22 6.14 97.19C6.08 97.18 6.01 97.18 5.94 97.18C5.73 97.2 5.52 97.24 5.31 97.23C5.11 97.22 4.96 97.13 4.79 97.07C4.62 97 4.44 96.94 4.27 96.88C4.07 96.88 3.87 96.95 3.68 96.85C3.52 96.77 3.33 96.71 3.16 96.65C3.29 96.48 3.54 96.36 3.73 96.21C3.9 96.08 3.9 96.08 4.37 95.97C4.59 95.93 4.66 95.68 4.48 95.61C4.25 95.52 4.02 95.44 3.79 95.35C3.59 95.36 3.39 95.42 3.2 95.32C3.05 95.25 2.88 95.19 2.64 95.22C2.23 95.27 1.81 95.3 1.39 95.34C1.25 95.35 1.09 95.34 1.03 95.27C0.98 95.21 1.11 95.14 1.25 95.12C1.46 95.1 1.65 95.08 1.75 94.97C1.85 94.86 2.04 94.82 2.26 94.81C2.32 94.8 2.38 94.78 2.41 94.75C2.56 94.62 2.73 94.51 3.06 94.52C3.19 94.47 3.26 94.42 3.22 94.37C3.2 94.34 3.11 94.3 3.06 94.31C2.71 94.33 2.36 94.35 2.02 94.39C1.86 94.41 1.73 94.41 1.63 94.34C1.56 94.3 1.6 94.24 1.73 94.18C1.85 94.12 1.89 94.06 1.88 93.98C1.86 93.81 1.73 93.76 1.33 93.77C1.04 93.78 0.96 93.75 0.9 93.6C0.88 93.57 0.84 93.52 0.87 93.49C1.05 93.35 1.17 93.16 1.51 93.09C1.65 93.06 1.79 93.06 1.87 93.01C1.96 92.95 2.03 92.88 2.12 92.83C2.23 92.76 2.31 92.7 2.26 92.66C2.17 92.59 2.04 92.58 1.88 92.6C1.75 92.63 1.6 92.63 1.46 92.64C1.22 92.67 1.01 92.61 0.98 92.51C0.9 92.26 0.82 92.01 0.75 91.75C0.74 91.72 0.76 91.68 0.8 91.65C0.91 91.56 1.04 91.47 1.16 91.38C1.3 91.28 1.53 91.3 1.73 91.28C2 91.25 2 91.25 2.37 91.04C2.51 90.96 2.76 90.99 2.91 90.92C2.95 90.89 3.02 90.85 3.01 90.83C2.99 90.8 2.91 90.78 2.85 90.77C2.79 90.76 2.72 90.75 2.65 90.76C1.89 90.82 1.12 90.89 0.36 90.95C0.23 90.96 0.08 90.91 0.04 90.84C-0.01 90.78 0 90.7 0 90.63C0.12 90.54 0.26 90.46 0.36 90.36C0.44 90.29 0.53 90.25 0.69 90.25C0.9 90.24 1.11 90.22 1.35 90.2C1.79 89.87 2.21 89.54 2.69 89.22C2.88 89.09 2.83 88.96 2.87 88.82C2.91 88.69 3.19 88.71 3.38 88.67C3.53 88.64 3.58 88.57 3.52 88.52C3.49 88.5 3.41 88.46 3.35 88.46C3.21 88.46 3.07 88.48 2.93 88.49C2.8 88.5 2.64 88.5 2.52 88.53C2.41 88.57 2.34 88.64 2.27 88.71C2.19 88.78 2.08 88.8 1.92 88.81C1.72 88.81 1.51 88.83 1.3 88.85C1.08 88.76 0.84 88.68 0.62 88.59C0.58 88.57 0.57 88.52 0.58 88.49C0.58 88.4 0.52 88.35 0.38 88.31C0.26 88.27 0.17 88.22 0.06 88.18C0.14 88.12 0.23 88.06 0.3 88C0.45 87.86 0.64 87.77 0.96 87.77C1.08 87.68 1.18 87.58 1.35 87.52C1.5 87.46 1.77 87.52 1.89 87.39C1.94 87.33 2.03 87.25 2.15 87.23C2.33 87.19 2.56 87.21 2.67 87.08C2.73 87.01 2.83 86.95 2.95 86.93C3.09 86.91 3.23 86.91 3.33 86.87C3.39 86.85 3.44 86.81 3.44 86.78C3.44 86.76 3.36 86.73 3.3 86.72C3.25 86.7 3.17 86.69 3.11 86.69C2.9 86.71 2.69 86.73 2.48 86.74C2.43 86.75 2.36 86.73 2.29 86.72C2.11 86.68 2.12 86.64 2.27 86.56C2.42 86.49 2.52 86.39 2.64 86.3C2.78 86.28 2.95 86.29 3.04 86.25C3.2 86.18 3.31 86.08 3.43 85.99C3.57 85.98 3.71 85.98 3.84 85.95C3.9 85.94 3.92 85.89 3.97 85.87C4.06 85.81 4.13 85.73 4.24 85.71C4.43 85.67 4.65 85.68 4.76 85.56C4.83 85.49 4.92 85.42 5.04 85.41C5.37 85.4 5.51 85.28 5.68 85.17C5.8 85.08 6.07 85.13 6.21 85.04C6.3 84.98 6.37 84.92 6.46 84.86C6.5 84.84 6.58 84.83 6.65 84.82C6.99 84.79 7.34 84.77 7.69 84.73C7.74 84.73 7.79 84.69 7.83 84.67C7.92 84.61 7.98 84.53 8.09 84.49C8.19 84.46 8.35 84.46 8.49 84.44C8.92 84.41 8.95 84.42 9.15 84.23C9.31 84.08 9.7 84.19 9.83 84.02C9.91 83.93 10.05 83.85 10.3 83.84C10.65 83.82 10.99 83.78 11.34 83.75C11.65 83.72 11.65 83.72 11.99 83.52C12.14 83.43 12.36 83.44 12.56 83.42C12.77 83.41 12.96 83.38 13.06 83.27C13.16 83.16 13.35 83.13 13.56 83.11C13.76 83.1 13.99 83.11 14.14 83.02C14.52 82.81 14.52 82.81 14.78 82.78C15.2 82.75 15.62 82.71 16.03 82.68C16.31 82.65 16.6 82.65 16.86 82.6C17.05 82.56 17.14 82.44 17.26 82.36C17.6 82.32 17.95 82.29 18.29 82.26C18.78 82.21 19.27 82.18 19.76 82.13C19.97 82.05 20 81.87 20.35 81.86C20.56 81.85 20.77 81.82 20.98 81.81C21.33 81.78 21.67 81.74 22.02 81.72C22.29 81.71 22.33 81.59 22.47 81.52C22.52 81.49 22.56 81.45 22.62 81.45C23.16 81.38 23.73 81.37 24.26 81.28C24.32 81.27 24.37 81.23 24.38 81.19C24.39 81.18 24.32 81.14 24.27 81.13C24.22 81.11 24.14 81.09 24.09 81.1C22.35 81.24 20.61 81.39 18.87 81.54C18.62 81.56 18.62 81.56 18.03 81.8C17.98 81.82 17.92 81.84 17.86 81.85C17.58 81.88 17.3 81.89 17.02 81.92C16.8 81.95 16.61 81.92 16.45 81.85C16.34 81.79 16.22 81.77 16.08 81.78C15.92 81.78 15.81 81.81 15.72 81.87C15.6 81.95 15.54 82.05 15.28 82.07C14.1 82.17 12.91 82.27 11.73 82.38C11.57 82.34 11.49 82.3 11.53 82.24C11.56 82.21 11.61 82.17 11.66 82.16C12.14 82.12 12.63 82.08 13.11 82.03C13.18 82.03 13.27 82.03 13.31 82.01C13.5 81.91 13.56 81.75 13.91 81.74C14.12 81.73 14.32 81.7 14.52 81.67C14.57 81.66 14.62 81.61 14.63 81.58C14.64 81.56 14.57 81.53 14.52 81.51C14.34 81.45 14.12 81.53 13.94 81.48C13.87 81.47 13.78 81.45 13.77 81.42C13.76 81.4 13.83 81.36 13.88 81.33C13.93 81.31 13.99 81.29 14.06 81.28C14.61 81.23 15.17 81.18 15.73 81.14C15.95 81.13 16.11 81.07 16.21 80.97C16.29 80.89 16.38 80.86 16.53 80.84C17.5 80.76 18.47 80.67 19.45 80.6C19.69 80.58 19.82 80.51 19.92 80.41C20 80.34 20.09 80.31 20.25 80.3C21.64 80.19 23.03 80.06 24.42 79.95C24.68 79.93 24.76 79.83 24.89 79.75C24.93 79.72 24.96 79.69 25.02 79.67C25.08 79.65 25.16 79.66 25.23 79.65C26.34 79.56 27.45 79.46 28.57 79.37C28.83 79.35 28.88 79.24 29.01 79.16C29.06 79.14 29.1 79.1 29.16 79.09C29.99 79.02 30.82 78.95 31.66 78.87C32.21 78.83 32.77 78.78 33.33 78.73C33.6 78.71 33.6 78.71 33.97 78.5C34.01 78.47 34.07 78.45 34.13 78.44C35.73 78.3 37.32 78.16 38.92 78.03C39.06 78.01 39.15 77.96 39.22 77.89C39.29 77.81 39.39 77.76 39.52 77.75C40.77 77.64 42.02 77.54 43.27 77.43C43.5 77.42 43.66 77.36 43.76 77.26C43.84 77.19 43.93 77.15 44.07 77.14C45.32 77.03 46.58 76.92 47.83 76.82C48.07 76.8 48.19 76.73 48.31 76.64C48.35 76.61 48.38 76.56 48.43 76.55C49.06 76.49 49.68 76.43 50.3 76.38C50.56 76.37 50.65 76.28 50.76 76.19C50.84 76.12 50.94 76.09 51.1 76.08C51.45 76.06 51.79 76.03 52.14 75.99C52.19 75.98 52.25 75.93 52.25 75.9C52.26 75.85 52.16 75.81 52 75.79C50.34 75.93 48.66 76.07 47 76.22C46.72 76.24 46.72 76.24 46.35 76.45C46.31 76.47 46.25 76.5 46.19 76.51C44.59 76.65 43 76.78 41.4 76.92C41.26 76.93 41.16 76.98 41.1 77.06C41.03 77.13 40.93 77.18 40.8 77.19C39.27 77.33 37.74 77.46 36.21 77.58C35.98 77.6 35.82 77.65 35.72 77.75C35.65 77.83 35.55 77.87 35.41 77.88C33.95 78 32.49 78.13 31.03 78.25C30.88 78.26 30.77 78.2 30.78 78.14C30.78 78.11 30.85 78.06 30.9 78.05C31.66 77.98 32.42 77.91 33.18 77.85C33.44 77.83 33.52 77.74 33.65 77.65C33.69 77.63 33.72 77.59 33.78 77.57C33.84 77.56 33.91 77.56 33.98 77.55C35.79 77.4 37.6 77.24 39.41 77.09C39.67 77.07 39.72 76.96 39.85 76.89C39.9 76.86 39.94 76.82 40 76.82C40.55 76.76 41.11 76.72 41.66 76.67C42.64 76.59 43.61 76.5 44.59 76.42C44.87 76.4 44.87 76.4 45.23 76.19C45.27 76.17 45.33 76.13 45.39 76.13C47.96 75.91 50.53 75.69 53.11 75.47C53.24 75.46 53.34 75.41 53.41 75.33C53.47 75.26 53.57 75.21 53.7 75.19C57.18 74.89 60.66 74.59 64.13 74.3C64.36 74.28 64.52 74.23 64.62 74.13C64.69 74.06 64.79 74.02 64.93 74C68.76 73.68 72.58 73.35 76.41 73.02C78.98 72.8 81.56 72.58 84.13 72.36C84.37 72.34 84.49 72.27 84.61 72.18C84.65 72.15 84.69 72.1 84.74 72.1C85.29 72.04 85.84 71.99 86.39 71.94C86.57 72 86.74 72.06 86.91 72.12C87.04 72.03 87.17 71.95 87.3 71.86C88.13 71.8 88.95 71.7 89.8 71.67C89.85 71.67 89.91 71.71 89.97 71.73C90.36 71.87 90.58 71.86 90.83 71.68C90.92 71.61 91 71.55 91.13 71.54C91.55 71.5 91.97 71.47 92.38 71.43C92.6 71.4 92.79 71.42 92.95 71.5C93.06 71.56 93.18 71.59 93.32 71.57C94.09 71.51 94.85 71.44 95.62 71.37C95.67 71.37 95.72 71.33 95.76 71.3C95.85 71.25 95.93 71.19 96.01 71.13C96.13 71.16 96.25 71.19 96.34 71.24C96.46 71.3 96.57 71.3 96.73 71.28C99.79 71.02 102.85 70.76 105.91 70.49C106.17 70.47 106.28 70.56 106.46 70.61C106.52 70.63 106.58 70.65 106.64 70.65C106.71 70.66 106.78 70.64 106.85 70.64C109.14 70.44 111.44 70.24 113.74 70.05C114.04 70.02 114.04 70.02 114.49 70.16C114.54 70.17 114.62 70.19 114.67 70.19C115.72 70.1 116.76 70.01 117.8 69.92C117.94 69.91 118.05 69.94 118.17 69.99C118.41 70.09 118.43 70.09 118.61 69.95C118.69 69.88 118.78 69.84 118.92 69.82C119.07 69.8 119.19 69.8 119.31 69.84C119.48 69.9 119.6 69.99 119.86 69.97C120.97 69.86 122.09 69.78 123.19 69.67C123.45 69.65 123.58 69.72 123.75 69.78C123.81 69.8 123.86 69.83 123.93 69.83C123.99 69.84 124.07 69.83 124.13 69.82C125.52 69.7 126.92 69.58 128.3 69.46C128.56 69.43 128.68 69.53 128.85 69.58C128.91 69.59 128.98 69.62 129.03 69.62C129.87 69.55 130.71 69.48 131.54 69.41C131.84 69.38 131.84 69.38 132.3 69.52C132.35 69.53 132.42 69.55 132.48 69.55C133.45 69.47 134.43 69.38 135.4 69.3C135.7 69.27 135.7 69.27 136.57 69.39C136.63 69.4 136.7 69.41 136.76 69.4C137.87 69.31 138.99 69.22 140.1 69.12C140.32 69.1 140.51 69.11 140.67 69.19C140.78 69.25 140.9 69.27 141.04 69.26C142.29 69.15 143.54 69.05 144.79 68.94C145.03 68.91 145.19 68.96 145.36 69.03C145.41 69.05 145.47 69.08 145.53 69.09C145.59 69.1 145.66 69.09 145.73 69.08C146.98 68.97 148.24 68.87 149.48 68.76C149.74 68.73 149.87 68.81 150.04 68.86C150.1 68.88 150.16 68.92 150.21 68.92C150.7 68.88 151.19 68.85 151.67 68.79C151.93 68.76 152.05 68.86 152.22 68.91C152.28 68.93 152.35 68.96 152.41 68.96C153.45 68.87 154.5 68.78 155.53 68.69C155.68 68.67 155.79 68.69 155.91 68.75C156.07 68.83 156.25 68.86 156.47 68.83C156.96 68.78 157.45 68.75 157.94 68.71C158.22 68.68 158.22 68.68 159.1 68.8C159.16 68.81 159.23 68.82 159.29 68.82C160.13 68.75 160.96 68.68 161.79 68.6C162.02 68.58 162.2 68.6 162.36 68.68C162.48 68.73 162.59 68.76 162.73 68.75C163.5 68.68 164.26 68.61 165.03 68.55C165.31 68.52 165.58 68.48 165.86 68.48C166.06 68.48 166.21 68.59 166.39 68.64C166.44 68.66 166.53 68.64 166.6 68.64C167.57 68.55 168.55 68.47 169.51 68.38C169.77 68.36 169.9 68.43 170.07 68.49C170.13 68.51 170.19 68.55 170.24 68.54C170.59 68.52 170.94 68.49 171.29 68.46C171.7 68.42 172.12 68.4 172.54 68.35C172.87 68.31 173 68.5 173.27 68.51C173.48 68.51 173.69 68.47 173.89 68.46C174.31 68.42 174.73 68.38 175.14 68.35C175.29 68.34 175.41 68.31 175.45 68.23C175.46 68.21 175.39 68.18 175.34 68.16C174.78 67.93 174.78 67.93 174.22 67.98C173.87 68.01 173.52 68.04 173.17 68.07C173.11 68.08 173.05 68.06 172.99 68.04C172.82 68.01 172.84 67.96 172.98 67.88C173.12 67.8 173.23 67.71 173.35 67.62C173.53 67.68 173.7 67.73 173.87 67.79C174.01 67.78 174.15 67.77 174.29 67.75C174.98 67.7 175.68 67.64 176.37 67.59C176.42 67.58 176.48 67.62 176.54 67.65C176.71 67.71 176.86 67.77 177.11 67.74C177.73 67.68 178.36 67.63 178.98 67.58C179.26 67.55 179.26 67.55 179.74 67.69C179.79 67.7 179.86 67.72 179.92 67.72C180.55 67.67 181.17 67.61 181.8 67.56C181.93 67.55 182.06 67.58 182.16 67.64C182.2 67.67 182.19 67.71 182.35 68.07C182.85 68.36 183.19 68.33 183.53 68.31C183.68 68.29 183.81 68.28 183.91 68.24C183.96 68.22 184.02 68.18 184.02 68.15C184.02 68.13 183.93 68.09 183.87 68.09C183.45 68.05 183.06 68.14 182.65 68.16C182.46 68.17 182.3 68.09 182.26 67.97C182.25 67.93 182.24 67.89 182.23 67.86C182.22 67.82 182.21 67.79 182.19 67.75C182.03 67.74 181.93 67.78 181.86 67.85C181.8 67.91 181.72 67.99 181.61 68.02C181.49 68.05 181.34 68.05 181.2 68.06C181.06 68.07 180.91 68.1 180.79 68.08C180.66 68.06 180.56 68 180.44 67.96C180.39 67.94 180.32 67.91 180.27 67.92C179.78 67.95 179.3 67.99 178.82 68.04C178.57 68.07 178.44 67.97 178.28 67.92C178.16 67.87 178.03 67.88 178.01 67.98C177.95 68.23 178.15 68.33 178.58 68.28C178.93 68.24 179.25 68.24 179.53 68.38C179.57 68.4 179.66 68.41 179.71 68.41C180.06 68.38 180.4 68.35 180.74 68.32C180.81 68.32 180.87 68.33 180.93 68.34C181.79 68.46 181.79 68.46 182.08 68.43C182.22 68.42 182.36 68.41 182.34 68.07C182.61 67.71 183.03 67.69 183.44 67.64C183.7 67.6 183.82 67.7 183.99 67.75C184.05 67.77 184.11 67.8 184.17 67.8C185.07 67.73 185.97 67.65 186.87 67.57C187.03 67.56 187.14 67.57 187.25 67.63C187.4 67.7 187.57 67.75 187.81 67.72C188.29 67.67 188.78 67.63 189.27 67.59C189.52 67.57 189.52 67.57 190.02 67.7C190.07 67.72 190.15 67.74 190.21 67.73C190.69 67.69 191.18 67.65 191.66 67.61C191.8 67.6 191.92 67.63 192.03 67.69C192.13 67.75 192.26 67.78 192.39 67.77C192.88 67.73 193.36 67.68 193.84 67.64C193.9 67.64 193.97 67.66 194.03 67.67C194.54 67.81 194.54 67.81 194.78 67.79C195.12 67.75 195.48 67.74 195.82 67.69C196.15 67.65 196.33 67.78 196.55 67.85C197.18 67.8 197.8 67.75 198.42 67.69C198.68 67.67 198.81 67.74 198.98 67.8C199.04 67.82 199.1 67.86 199.15 67.86C199.36 67.85 199.57 67.82 199.77 67.8C199.98 67.79 200.19 67.77 200.4 67.75C200.63 67.82 200.79 67.97 201.13 67.91C201.33 67.88 201.54 67.88 201.75 67.86C201.96 67.84 202.17 67.82 202.37 67.81C202.51 67.8 202.66 67.79 202.79 67.77C203.04 67.74 203.16 67.84 203.34 67.89C203.4 67.91 203.46 67.93 203.52 67.93C203.94 67.9 204.36 67.87 204.77 67.82C205.08 67.78 205.3 67.85 205.52 67.94C205.57 67.96 205.65 67.97 205.7 67.97C206.19 67.93 206.68 67.88 207.16 67.84C207.29 67.83 207.42 67.87 207.52 67.93C207.63 67.98 207.76 68.01 207.89 68C208.37 67.96 208.86 67.92 209.35 67.88C209.41 67.88 209.48 67.89 209.53 67.91C210 68.05 210 68.05 210.28 68.02C210.35 68.02 210.42 68.01 210.49 68C210.83 67.97 211.19 67.96 211.53 67.91C211.92 67.85 212.2 67.93 212.47 68.05C212.82 68.02 213.17 68.01 213.51 67.97C213.76 67.93 213.9 68.02 214.06 68.07C214.12 68.09 214.19 68.13 214.24 68.13C214.73 68.09 215.21 68.06 215.69 68C215.96 67.97 216.07 68.07 216.25 68.12C216.31 68.14 216.37 68.17 216.42 68.16C216.7 68.15 216.98 68.12 217.26 68.09C217.58 68.07 217.58 68.07 218.01 68.2C218.21 68.27 218.42 68.22 218.61 68.2C218.82 68.18 219.02 68.17 219.19 68.26C219.3 68.32 219.42 68.35 219.55 68.34C219.83 68.32 220.11 68.3 220.39 68.27C220.61 68.24 220.79 68.26 220.95 68.34C221.07 68.4 221.19 68.43 221.33 68.42C221.95 68.36 222.58 68.31 223.2 68.26C223.25 68.25 223.33 68.27 223.38 68.29C223.5 68.33 223.61 68.38 223.73 68.42C224 68.4 224.28 68.39 224.55 68.36C224.84 68.33 225.1 68.32 225.32 68.44C225.37 68.47 225.44 68.5 225.49 68.5C225.7 68.49 225.91 68.47 226.11 68.45C226.32 68.44 226.53 68.42 226.74 68.4C226.98 68.46 227.13 68.61 227.47 68.56C227.67 68.53 227.88 68.53 228.09 68.51C228.3 68.49 228.51 68.47 228.71 68.46C228.78 68.45 228.86 68.44 228.91 68.45C228.98 68.46 229.03 68.49 229.09 68.51C229.26 68.57 229.41 68.64 229.65 68.6C229.85 68.57 230.07 68.56 230.28 68.54C230.56 68.52 230.56 68.52 231.02 68.66C231.21 68.71 231.43 68.64 231.61 68.69C231.73 68.72 231.84 68.78 231.96 68.81C232.01 68.83 232.09 68.83 232.14 68.83C232.42 68.81 232.71 68.79 232.98 68.76C233.2 68.73 233.39 68.76 233.54 68.84C233.66 68.89 233.77 68.92 233.91 68.91C234.61 68.84 235.3 68.79 235.99 68.72C236.23 68.7 236.42 68.74 236.55 68.82C236.77 68.95 237.09 68.79 237.32 68.9C237.46 68.97 237.61 69.05 237.87 69.02C238.35 68.96 238.84 68.93 239.32 68.89C239.49 68.95 239.67 69.01 239.84 69.07C240.12 69.04 240.4 69.02 240.68 69C240.88 68.98 241.09 68.96 241.3 68.94C241.37 68.94 241.44 68.93 241.5 68.94C241.57 68.95 241.62 68.98 241.68 69C241.97 69.11 241.97 69.11 242.45 69.07C242.65 69.05 242.85 69.04 243.02 69.12C243.18 69.2 243.37 69.22 243.59 69.2C244 69.15 244.42 69.12 244.84 69.09C244.97 69.08 245.1 69.11 245.21 69.17C245.37 69.26 245.57 69.25 245.78 69.23C246.05 69.2 246.32 69.17 246.55 69.29C246.6 69.32 246.67 69.35 246.72 69.35C247.07 69.33 247.42 69.32 247.75 69.28C248.09 69.24 248.25 69.37 248.49 69.44C248.83 69.41 249.18 69.38 249.53 69.35C249.59 69.35 249.67 69.33 249.73 69.34C249.98 69.38 250.12 69.55 250.47 69.5C250.66 69.47 250.88 69.46 251.08 69.45C251.14 69.45 251.21 69.49 251.25 69.52C251.27 69.53 251.25 69.58 251.22 69.6C251.15 69.66 251.06 69.72 250.99 69.78C250.98 69.79 251.06 69.83 251.11 69.85C251.22 69.89 251.35 69.88 251.5 69.86C251.63 69.85 251.77 69.88 251.86 69.94C251.9 69.97 251.88 70.01 251.8 70.16C251.8 70.27 251.89 70.22 251.92 70.15C251.97 70.05 251.88 70.01 251.71 70.07C251.59 70.11 251.54 70.16 251.56 70.21C251.58 70.23 251.66 70.27 251.8 70.16C252.18 70.03 252.45 70 252.73 69.98C252.8 69.97 252.89 69.95 252.94 69.96C253.12 70.01 253.29 70.08 253.46 70.14C253.67 70.12 253.86 70.09 254.05 70.18C254.33 70.3 254.34 70.29 254.61 70.26C254.75 70.25 254.89 70.24 255.03 70.23C255.17 70.22 255.28 70.25 255.4 70.3C255.65 70.4 255.67 70.4 255.84 70.26C255.93 70.18 256 70.15 256.12 70.19C256.53 70.32 256.53 70.33 256.88 70.29C257.16 70.26 257.43 70.25 257.64 70.37C257.79 70.46 257.83 70.44 257.95 70.35C258.25 70.11 258.39 70.11 258.96 70.29C259.22 70.37 259.5 70.28 259.76 70.27C259.99 70.26 260.15 70.31 260.17 70.45C260.18 70.54 260.22 70.6 260.37 70.63C260.43 70.64 260.5 70.65 260.56 70.65C260.91 70.62 261.26 70.59 261.6 70.56C261.78 70.55 261.88 70.44 261.85 70.31C261.81 70.16 261.87 70.11 262.13 70.07C262.28 70.04 262.4 70.05 262.52 70.09C262.66 70.13 262.62 70.17 262.5 70.25C262.22 70.44 262.25 70.56 262.62 70.7C262.74 70.74 262.84 70.78 262.87 70.85C262.89 70.89 262.87 70.93 262.91 70.96C263.12 71.11 263.4 71.2 263.72 71.27C264.03 71.21 264.24 71.31 264.48 71.39C264.66 71.45 264.88 71.4 265.08 71.38C265.3 71.35 265.49 71.37 265.65 71.45C265.76 71.51 265.88 71.53 266.02 71.52C266.3 71.5 266.58 71.48 266.85 71.45C267.09 71.42 267.26 71.46 267.41 71.54C267.6 71.63 267.8 71.57 268 71.58C268.26 71.6 268.39 71.79 268.73 71.74C268.93 71.71 269.14 71.7 269.35 71.69C269.41 71.69 269.48 71.72 269.52 71.75C269.75 71.87 270.01 71.86 270.29 71.83C270.49 71.8 270.69 71.78 270.88 71.87C271.2 72.01 271.55 72.13 271.89 72.26C271.94 72.36 271.9 72.48 272.14 72.54C272.27 72.57 272.39 72.62 272.48 72.67C272.6 72.73 272.71 72.74 272.86 72.73C273.14 72.69 273.42 72.69 273.69 72.65C273.94 72.61 274.1 72.69 274.25 72.75C274.37 72.81 274.48 72.84 274.63 72.8C274.78 72.76 274.89 72.78 275.01 72.84C275.19 72.92 275.2 72.91 275.77 72.94C275.83 72.94 275.9 72.97 275.94 73C275.95 73.02 275.92 73.06 275.89 73.08C275.85 73.11 275.79 73.14 275.74 73.15C275.11 73.2 274.48 73.25 273.86 73.31C273.8 73.32 273.73 73.33 273.68 73.36C273.63 73.38 273.57 73.41 273.57 73.44C273.57 73.47 273.65 73.49 273.71 73.51C273.9 73.56 274.12 73.48 274.3 73.54C274.42 73.58 274.52 73.63 274.64 73.66C274.7 73.68 274.78 73.68 274.84 73.67C275.05 73.66 275.26 73.63 275.47 73.62C275.52 73.62 275.59 73.64 275.65 73.66C276.05 73.79 276.05 73.79 276.4 73.76C276.54 73.75 276.69 73.72 276.82 73.73C276.94 73.74 277.05 73.8 277.17 73.84C277.4 73.92 277.63 74 277.64 74.17C277.65 74.23 277.79 74.29 277.93 74.3C278.06 74.3 278.21 74.28 278.35 74.26C278.68 74.24 278.68 74.24 279.1 74.37C279.22 74.41 279.34 74.41 279.5 74.39C279.56 74.38 279.63 74.39 279.69 74.4C279.9 74.43 279.9 74.48 279.76 74.56C279.57 74.67 279.59 74.68 280.12 74.78C280.32 74.82 280.48 74.89 280.65 74.95C280.92 75.05 280.92 75.05 280.73 75.18C280.69 75.21 280.65 75.24 280.61 75.27C280.49 75.35 280.39 75.45 280.14 75.46C279.86 75.46 279.58 75.5 279.31 75.52C279.04 75.55 278.97 75.6 278.99 75.75C279.02 75.93 279.07 75.95 279.56 75.95C279.7 75.95 279.82 75.97 279.93 76.02C279.88 76.09 279.78 76.15 279.65 76.16C279.3 76.2 278.95 76.22 278.61 76.25C278.33 76.28 278.05 76.3 277.77 76.33C277.6 76.34 277.49 76.46 277.54 76.58C277.56 76.66 277.58 76.73 277.6 76.8C277.65 76.95 277.74 76.98 278.02 76.98C278.09 76.97 278.16 76.96 278.23 76.96C278.5 76.98 278.63 77.16 278.96 77.12C279.24 77.09 279.52 77.08 279.79 77.04C280.04 77.01 280.18 77.09 280.35 77.15C280.41 77.17 280.47 77.21 280.52 77.21C280.87 77.18 281.22 77.16 281.56 77.12C281.72 77.1 281.82 77.11 281.95 77.16C282.25 77.29 282.26 77.29 282.71 77.25C283.04 77.22 283.04 77.22 283.46 77.35C283.58 77.39 283.71 77.39 283.86 77.37C284.06 77.35 284.26 77.32 284.47 77.35C284.53 77.36 284.61 77.38 284.63 77.41C284.65 77.43 284.59 77.48 284.54 77.5C284.17 77.61 283.73 77.59 283.33 77.64C283.2 77.65 283.08 77.61 282.97 77.55C282.86 77.49 282.74 77.47 282.6 77.48C282.32 77.5 282.04 77.52 281.77 77.55C281.53 77.58 281.37 77.53 281.2 77.46C281.15 77.44 281.08 77.4 281.03 77.4C280.41 77.45 279.78 77.49 279.16 77.55C278.91 77.58 278.77 77.51 278.6 77.45C278.54 77.43 278.48 77.39 278.43 77.39C278.22 77.4 278.01 77.42 277.8 77.44C277.03 77.51 276.27 77.57 275.5 77.63C275.45 77.64 275.39 77.59 275.33 77.57C275.22 77.53 275.1 77.49 274.98 77.46C274.77 77.47 274.56 77.5 274.35 77.51C274.2 77.52 274.07 77.55 274.05 77.63C274.03 77.69 274.17 77.74 274.32 77.73C274.46 77.73 274.61 77.7 274.72 77.73C275.31 77.87 275.31 77.87 275.68 77.85C276 77.82 275.96 77.8 276.25 77.92C276.37 77.97 276.48 78 276.62 77.99C276.96 77.96 277.31 77.93 277.66 77.9C277.71 77.9 277.79 77.92 277.84 77.94C278.25 78.07 278.25 78.07 278.6 78.04C279.04 78 279.06 77.99 279.36 78.12C279.56 78.21 279.75 78.15 279.95 78.15C280.18 78.23 280.43 78.31 280.63 78.41C280.88 78.52 281.13 78.5 281.41 78.47C281.62 78.44 281.82 78.43 281.99 78.52C282.15 78.61 282.34 78.62 282.56 78.59C282.76 78.58 282.96 78.53 283.17 78.58C283.22 78.59 283.31 78.63 283.3 78.65C283.3 78.68 283.24 78.72 283.19 78.74C282.8 78.83 282.38 78.82 281.97 78.86C281.91 78.87 281.84 78.85 281.79 78.83C281.67 78.79 281.56 78.74 281.44 78.7C281.24 78.72 281.03 78.72 280.82 78.75C280.67 78.77 280.55 78.76 280.44 78.71C280.33 78.66 280.22 78.6 280.09 78.59C279.96 78.57 279.82 78.61 279.68 78.62C279.54 78.63 279.38 78.63 279.27 78.66C279.16 78.7 279.09 78.77 279.02 78.83C278.94 78.9 278.83 78.92 278.67 78.93C278.52 78.94 278.41 78.93 278.3 78.87C278.25 78.84 278.19 78.82 278.12 78.8C278.06 78.79 278 78.76 277.94 78.77C277.31 78.82 276.69 78.87 276.06 78.93C275.75 78.95 275.76 78.95 275.11 78.82C275.05 78.81 274.98 78.8 274.92 78.8C274.57 78.83 274.22 78.86 273.87 78.89C273.52 78.92 273.52 78.92 272.92 78.78C272.81 78.75 272.65 78.79 272.52 78.78C272.25 78.77 272.11 78.59 271.79 78.62C271.52 78.65 271.23 78.66 270.96 78.7C270.71 78.73 270.57 78.66 270.4 78.6C270.34 78.58 270.28 78.53 270.23 78.54C269.6 78.59 268.98 78.64 268.14 78.65C267.94 78.65 268.03 78.69 268.16 78.71C268.36 78.73 268.42 78.69 268.31 78.6C268.24 78.54 268.13 78.51 268.04 78.52C267.99 78.53 267.94 78.57 268.14 78.65C268.36 78.73 268.35 78.78 268.39 78.8C268.48 78.87 268.61 78.89 268.74 78.88C268.95 78.87 269.16 78.85 269.37 78.83C269.43 78.83 269.5 78.85 269.56 78.86C270.02 79 270.02 79.01 270.52 78.96C270.67 78.94 270.79 78.94 270.91 78.98C271.08 79.04 271.2 79.14 271.46 79.1C271.8 79.06 272.15 79.04 272.5 79.01C272.55 79.01 272.61 79.05 272.67 79.07C272.85 79.12 272.97 79.22 273.23 79.18C273.43 79.14 273.64 79.14 273.85 79.13C273.91 79.13 273.99 79.16 274.02 79.19C274.07 79.24 274 79.3 273.86 79.34C273.8 79.36 273.72 79.35 273.65 79.36C273.38 79.39 273.1 79.41 272.82 79.43C272.67 79.44 272.53 79.48 272.52 79.56C272.51 79.61 272.66 79.66 272.8 79.66C273.01 79.65 273.22 79.63 273.42 79.6C273.78 79.55 274.09 79.57 274.38 79.71C274.59 79.8 274.58 79.77 274.8 80.05C274.85 80.13 275.01 80.13 275.16 80.13C275.5 80.12 275.66 80.15 275.63 80.22C275.6 80.3 275.47 80.33 275.32 80.34C275.04 80.36 274.76 80.39 274.48 80.41C274.42 80.42 274.34 80.43 274.28 80.42C274.21 80.42 274.16 80.39 274.1 80.37C273.98 80.33 273.88 80.27 273.76 80.25C273.63 80.24 273.48 80.27 273.34 80.28C273.2 80.29 273.06 80.33 272.93 80.31C272.8 80.3 272.7 80.23 272.59 80.19C272.53 80.17 272.46 80.14 272.41 80.14C272.13 80.16 271.85 80.19 271.57 80.21C271.23 80.24 271.23 80.24 270.82 80.1C270.7 80.06 270.58 80.07 270.42 80.08C270.09 80.12 270.08 80.11 269.47 79.99C269.41 79.97 269.34 79.96 269.28 79.96C268.65 80.01 268.03 80.07 267.4 80.12C266.87 80.17 266.87 80.17 266.57 80.39C266.36 80.55 266.35 80.55 266.57 80.62C266.74 80.69 266.9 80.78 267.08 80.81C267.26 80.84 267.48 80.74 267.67 80.84C267.77 80.89 267.9 80.95 268.02 80.96C268.21 80.97 268.42 80.9 268.6 81C268.7 81.05 268.84 81.1 268.95 81.1C269.16 81.11 269.37 81.07 269.58 81.05C269.64 81.05 269.71 81.05 269.77 81.06C269.83 81.07 269.89 81.1 269.94 81.12C270.11 81.2 270.29 81.23 270.51 81.2C270.87 81.13 271.19 81.16 271.47 81.31C271.51 81.33 271.6 81.33 271.66 81.32C271.81 81.3 271.94 81.29 272.05 81.34C272.1 81.35 272.17 81.38 272.16 81.4C272.15 81.44 272.1 81.48 272.04 81.49C271.65 81.57 271.22 81.58 270.81 81.62C270.76 81.62 270.69 81.59 270.64 81.57C270.52 81.53 270.42 81.47 270.29 81.45C270.16 81.44 270.02 81.46 269.88 81.47C269.74 81.49 269.59 81.52 269.46 81.51C269.34 81.49 269.22 81.44 269.12 81.39C269 81.33 268.89 81.33 268.73 81.35C268.53 81.38 268.32 81.38 268.11 81.4C268 81.35 267.88 81.31 267.77 81.27C267.71 81.25 267.64 81.22 267.59 81.23C267.31 81.24 267.03 81.27 266.75 81.29C266.47 81.32 266.47 81.32 266 81.18C265.95 81.17 265.88 81.15 265.82 81.15C265.47 81.18 265.12 81.21 264.77 81.24C264.64 81.25 264.51 81.22 264.41 81.16C264.3 81.1 264.17 81.07 264.04 81.08C263.49 81.13 262.93 81.17 262.38 81.22C262.15 81.25 261.96 81.23 261.81 81.15C261.63 81.06 261.44 81.08 261.23 81.1C260.76 81.14 260.76 81.14 260.46 81.03C260.4 81 260.34 80.96 260.29 80.96C259.8 81 259.31 81.03 258.83 81.08C258.58 81.11 258.45 81.03 258.28 80.98C258.22 80.96 258.16 80.91 258.1 80.92C257.76 80.94 257.41 80.96 257.07 81.01C256.72 81.05 256.59 80.85 256.34 80.85C255.99 80.85 255.64 80.9 255.3 80.93C255.02 80.96 254.74 80.98 254.46 81.01C254.18 81.03 253.91 81.05 253.63 81.08C253.48 81.09 253.37 81.07 253.25 81.02C253.09 80.95 252.91 80.89 252.74 80.82C252.48 80.73 252.48 80.73 252.17 80.76C252.1 80.76 252.03 80.77 251.96 80.77C251.46 80.82 251.46 80.82 250.81 80.68C250.78 80.67 250.7 80.7 250.67 80.71C250.58 80.77 250.5 80.83 250.42 80.89C250.31 80.86 250.17 80.84 250.1 80.79C249.88 80.64 249.54 80.84 249.32 80.7C249.24 80.65 249.11 80.6 248.98 80.59C248.85 80.57 248.7 80.6 248.57 80.62C248.22 80.65 248.22 80.65 247.92 80.84C247.77 80.94 247.55 80.92 247.35 80.95C247.14 80.97 246.94 80.98 246.77 80.89C246.62 80.81 246.43 80.79 246.2 80.82C245.93 80.85 245.65 80.87 245.37 80.89C245.31 80.89 245.24 80.88 245.18 80.87C244.54 80.74 244.54 80.74 244.22 80.77C244.08 80.78 243.94 80.78 243.81 80.8C243.58 80.84 243.41 80.79 243.24 80.72C243.19 80.7 243.12 80.66 243.07 80.66C242.79 80.67 242.52 80.69 242.24 80.71C242.03 80.73 241.82 80.74 241.62 80.77C241.28 80.82 241.12 80.67 240.89 80.61C240.54 80.64 240.19 80.66 239.85 80.7C239.69 80.71 239.58 80.71 239.46 80.66C239.3 80.59 239.16 80.51 238.91 80.55C238.57 80.59 238.22 80.61 237.87 80.63C237.64 80.57 237.47 80.43 237.14 80.48C236.94 80.51 236.72 80.51 236.52 80.53C236.24 80.56 235.96 80.58 235.68 80.6C235.38 80.63 235.39 80.62 234.93 80.49C234.66 80.42 234.39 80.5 234.12 80.52C233.91 80.53 233.8 80.63 233.85 80.76C233.91 80.89 233.79 80.99 233.6 81.01C233.11 81.05 232.63 81.09 232.14 81.13C232.08 81.13 232.01 81.12 231.96 81.1C231.44 80.96 231.44 80.97 231.21 80.99C230.86 81.02 230.51 81.04 230.17 81.08C229.93 81.11 229.76 81.06 229.61 80.99C229.49 80.93 229.38 80.92 229.23 80.93C227.56 81.08 225.89 81.21 224.23 81.36C223.98 81.39 223.84 81.32 223.67 81.26C223.61 81.24 223.55 81.2 223.49 81.2C223.36 81.2 223.22 81.22 223.08 81.24C222.45 81.29 221.83 81.35 221.2 81.39C220.94 81.41 220.87 81.51 220.75 81.59C220.66 81.66 220.56 81.68 220.41 81.69C220.26 81.7 220.15 81.69 220.03 81.63C219.88 81.56 219.7 81.51 219.47 81.54C219.19 81.58 218.92 81.59 218.63 81.62C218.49 81.63 218.38 81.67 218.34 81.75C218.33 81.76 218.42 81.79 218.47 81.81C218.63 81.88 218.79 81.96 218.98 82C219.18 82.05 219.39 82 219.59 81.98C219.66 81.98 219.73 81.96 219.8 81.97C219.86 81.97 219.94 81.98 219.98 82C220.2 82.1 220.43 82.17 220.74 82.11C221 82.14 221.13 82.32 221.46 82.27C221.67 82.24 221.88 82.23 222.09 82.22C222.14 82.21 222.2 82.25 222.26 82.27C222.43 82.33 222.56 82.42 222.82 82.38C223.09 82.34 223.37 82.33 223.65 82.3C223.8 82.29 223.91 82.3 224.03 82.36C224.18 82.43 224.35 82.49 224.59 82.45C224.79 82.42 225 82.41 225.21 82.39C225.48 82.37 225.48 82.37 225.96 82.51C226.01 82.52 226.08 82.54 226.14 82.54C226.49 82.51 226.84 82.48 227.19 82.45C227.32 82.44 227.45 82.47 227.55 82.53C227.58 82.56 227.57 82.6 227.58 82.64C226.89 82.7 226.19 82.75 225.5 82.82C225.24 82.85 225.12 82.76 224.95 82.71C224.89 82.69 224.83 82.65 224.77 82.66C224.29 82.7 223.8 82.74 223.32 82.78C223.17 82.8 223.05 82.79 222.94 82.73C222.65 82.56 222.29 82.65 221.97 82.67C221.71 82.69 221.63 82.76 221.66 82.9C221.7 83.08 221.85 83.13 222.24 83.1C222.38 83.09 222.52 83.07 222.66 83.06C222.79 83.05 222.91 83.08 223.02 83.14C223.13 83.2 223.25 83.23 223.38 83.22C223.66 83.2 223.94 83.18 224.21 83.15C224.44 83.12 224.62 83.15 224.78 83.23C224.95 83.32 225.15 83.3 225.36 83.28C225.83 83.23 225.83 83.24 226.13 83.35C226.19 83.37 226.24 83.41 226.3 83.41C226.78 83.37 227.27 83.35 227.75 83.29C228 83.27 228.14 83.34 228.3 83.39C228.36 83.41 228.42 83.46 228.48 83.45C228.83 83.43 229.18 83.41 229.52 83.36C229.68 83.34 229.77 83.36 229.9 83.41C230.22 83.54 230.22 83.54 230.67 83.49C230.8 83.48 230.95 83.46 231.08 83.47C231.2 83.49 231.3 83.55 231.42 83.59C231.48 83.61 231.54 83.64 231.6 83.63C231.88 83.61 232.16 83.59 232.44 83.56C232.7 83.54 232.7 83.54 233.19 83.68C233.38 83.73 233.59 83.69 233.79 83.67C234 83.65 234.2 83.65 234.36 83.73C234.52 83.82 234.72 83.82 234.93 83.8C235.13 83.78 235.33 83.73 235.54 83.79C236 83.93 236 83.93 236.29 83.9C236.7 83.87 237.11 83.83 237.54 83.8C237.59 83.79 237.66 83.82 237.72 83.84C237.83 83.88 237.94 83.94 238.06 83.96C238.19 83.98 238.34 83.95 238.47 83.94C238.9 83.9 238.93 83.88 239.22 84.02C239.47 84.14 239.77 83.97 240 84.11C240.13 84.19 240.31 84.25 240.55 84.21C240.75 84.18 240.96 84.17 241.17 84.15C241.51 84.12 241.51 84.13 241.93 84.26C241.98 84.28 242.05 84.3 242.11 84.29C242.39 84.28 242.67 84.26 242.94 84.22C243.26 84.17 243.46 84.26 243.69 84.34C243.88 84.4 244.1 84.35 244.3 84.33C244.51 84.31 244.7 84.31 244.86 84.4C245.03 84.49 245.23 84.48 245.44 84.46C245.64 84.44 245.84 84.39 246.04 84.45C246.48 84.59 246.48 84.59 246.79 84.56C247.07 84.54 247.35 84.51 247.63 84.49C247.68 84.49 247.75 84.52 247.8 84.54C247.92 84.58 248.02 84.64 248.15 84.66C248.28 84.68 248.42 84.65 248.56 84.64C248.7 84.62 248.85 84.59 248.97 84.6C249.1 84.62 249.22 84.67 249.32 84.72C249.44 84.78 249.55 84.78 249.71 84.76C249.91 84.73 250.12 84.73 250.33 84.71C250.44 84.75 250.56 84.8 250.67 84.84C250.78 84.89 250.9 84.89 251.06 84.87C251.58 84.82 251.58 84.82 252.02 84.96C252.21 85.02 252.42 84.97 252.62 84.96C252.83 84.94 253.03 84.93 253.19 85.02C253.35 85.1 253.55 85.11 253.76 85.09C253.89 85.07 254.04 85.06 254.18 85.05C254.24 85.05 254.32 85.06 254.36 85.07C254.58 85.17 254.8 85.25 255.11 85.19C255.38 85.21 255.52 85.39 255.84 85.35C256.11 85.32 256.4 85.32 256.67 85.28C256.92 85.24 257.09 85.3 257.22 85.38C257.45 85.52 257.77 85.33 258 85.47C258.13 85.54 258.29 85.6 258.55 85.57C258.82 85.54 258.91 85.58 258.99 85.72C259.04 85.8 259.03 85.86 258.95 85.92C258.86 85.99 258.77 85.98 258.64 85.91C258.48 85.82 258.29 85.81 258.07 85.83C257.85 85.84 257.72 85.73 257.54 85.69C257.35 85.64 257.14 85.72 256.95 85.66C256.51 85.52 256.51 85.52 256.2 85.54C256 85.56 255.78 85.57 255.58 85.6C255.34 85.64 255.18 85.57 255.02 85.51C254.96 85.49 254.9 85.45 254.85 85.45C254.37 85.48 253.88 85.51 253.4 85.57C253.14 85.6 253.01 85.52 252.84 85.46C252.78 85.44 252.72 85.4 252.67 85.41C252.25 85.44 251.84 85.48 251.42 85.51C251.34 85.57 251.25 85.63 251.18 85.69C251.1 85.76 250.99 85.79 250.83 85.79C250.56 85.79 250.3 85.88 250.04 85.76C249.76 85.64 249.74 85.65 249.48 85.68C249.14 85.72 248.78 85.71 248.46 85.79C248.41 85.81 248.35 85.85 248.35 85.88C248.35 85.9 248.44 85.93 248.49 85.95C248.68 86 248.89 85.92 249.08 85.98C249.2 86.01 249.3 86.07 249.42 86.1C249.47 86.12 249.55 86.12 249.61 86.11C249.69 86.11 249.75 86.1 249.82 86.1C249.88 86.1 249.95 86.11 250 86.13C250.23 86.22 250.48 86.29 250.68 86.39C250.89 86.49 251.08 86.42 251.28 86.42C252.09 86.57 252.09 86.58 252.63 86.53C252.77 86.52 252.9 86.5 253.04 86.5C253.1 86.5 253.16 86.54 253.22 86.57C253.38 86.63 253.54 86.69 253.78 86.66C253.98 86.63 254.2 86.62 254.4 86.6C254.68 86.58 254.68 86.58 255.15 86.71C255.27 86.75 255.4 86.74 255.55 86.73C255.68 86.71 255.81 86.74 255.91 86.81C255.94 86.83 255.93 86.88 255.94 86.92C255.53 86.95 255.11 86.97 254.7 87.03C254.44 87.06 254.32 86.97 254.15 86.92C254.09 86.9 254.03 86.86 253.97 86.87C253.56 86.9 253.15 86.94 252.74 86.98C252.69 86.98 252.62 87.03 252.62 87.06C252.61 87.12 252.71 87.18 252.87 87.17C253.07 87.17 253.27 87.14 253.45 87.23C253.6 87.3 253.79 87.34 254.01 87.3C254.15 87.28 254.29 87.28 254.42 87.27C254.78 87.21 255.11 87.23 255.38 87.37C255.58 87.41 255.79 87.38 255.98 87.36C256.13 87.34 256.27 87.33 256.38 87.37C256.6 87.46 256.82 87.54 257.13 87.48C257.46 87.55 257.71 87.68 257.99 87.78C258.12 87.83 258.22 87.86 258.38 87.83C258.44 87.81 258.51 87.81 258.58 87.81C258.72 87.8 258.87 87.76 258.99 87.78C259.12 87.79 259.23 87.86 259.34 87.9C259.39 87.92 259.46 87.95 259.51 87.95C259.72 87.93 259.93 87.91 260.14 87.9C260.34 87.88 260.55 87.86 260.75 87.85C260.93 87.91 261.1 87.96 261.28 88.02C261.55 88 261.83 87.97 262.11 87.95C262.41 87.92 262.41 87.93 262.86 88.06C263.05 88.12 263.26 88.08 263.45 88.06C263.77 88.01 263.98 88.09 264.2 88.18C264.25 88.2 264.33 88.21 264.39 88.2C264.61 88.17 264.8 88.19 264.96 88.28C265.07 88.33 265.19 88.36 265.32 88.35C265.81 88.31 266.29 88.26 266.78 88.22C266.84 88.22 266.9 88.24 266.96 88.26C267.39 88.39 267.39 88.4 267.71 88.36C267.99 88.33 268.25 88.32 268.47 88.44C268.52 88.47 268.59 88.5 268.64 88.5C268.99 88.48 269.34 88.46 269.68 88.42C269.83 88.4 269.94 88.41 270.07 88.46C270.22 88.52 270.36 88.6 270.62 88.57C271.33 88.49 271.33 88.5 272.18 88.65C272.24 88.66 272.32 88.65 272.38 88.64C272.53 88.62 272.63 88.65 272.76 88.7C273.04 88.81 273.05 88.8 273.32 88.78C273.52 88.76 273.74 88.76 273.94 88.72C274.25 88.68 274.46 88.76 274.69 88.84C274.88 88.91 275.09 88.85 275.29 88.83C275.5 88.81 275.7 88.82 275.86 88.9C275.97 88.96 276.08 88.99 276.22 88.98C276.71 88.94 277.19 88.89 277.68 88.86C277.74 88.85 277.81 88.87 277.86 88.88C278.34 89.02 278.34 89.03 278.82 88.98C278.97 88.96 279.1 88.96 279.21 89C279.32 89.05 279.44 89.09 279.55 89.13C279.76 89.11 279.97 89.11 280.17 89.08C280.33 89.06 280.44 89.07 280.56 89.12C280.72 89.18 280.85 89.28 281.1 89.23C281.24 89.21 281.39 89.21 281.52 89.19C281.67 89.16 281.78 89.18 281.9 89.24C282.05 89.31 282.21 89.38 282.45 89.34C282.72 89.3 283.01 89.29 283.28 89.26C283.43 89.25 283.54 89.26 283.66 89.32C283.81 89.39 283.99 89.44 284.22 89.41C284.7 89.36 284.71 89.37 285.17 89.51C285.29 89.54 285.42 89.54 285.57 89.52C285.7 89.5 285.83 89.54 285.93 89.6C286.02 89.67 286.01 89.71 286.02 89.75ZM248.49 69.94C248.35 69.95 248.21 69.96 248.01 69.77C247.99 69.74 248 69.7 247.97 69.67C247.9 69.61 247.8 69.57 247.67 69.56C247.45 69.56 247.17 69.63 247.18 69.69C247.18 69.74 247.25 69.78 247.39 69.82C247.45 69.83 247.5 69.86 247.55 69.88C247.71 69.93 247.84 70.03 248.07 69.98C248.05 70.06 248.11 70.12 248.26 70.14C248.31 70.15 248.37 70.14 248.4 70.13C248.53 70.08 248.55 70.02 248.46 69.84C248.44 69.87 248.45 69.92 248.49 69.94C248.53 69.95 248.62 69.94 248.67 69.92C248.79 69.88 248.84 69.83 248.81 69.78C248.8 69.76 248.72 69.72 248.67 69.72C248.58 69.72 248.5 69.77 248.49 69.94ZM282.54 95.41C282.23 95.46 281.88 95.44 281.57 95.53C281.52 95.54 281.46 95.58 281.46 95.61C281.45 95.63 281.54 95.66 281.59 95.68C281.7 95.71 281.83 95.7 281.98 95.69C282.2 95.67 282.33 95.77 282.5 95.83C282.56 95.84 282.63 95.85 282.69 95.85C283.03 95.82 283.37 95.79 283.71 95.76C283.77 95.75 283.83 95.74 283.88 95.72C284.05 95.66 284.03 95.61 283.87 95.57C283.69 95.51 283.54 95.43 283.36 95.38C283.09 95.32 282.82 95.4 282.54 95.41ZM258.62 97.02C258.42 97.04 258.21 97.05 258.01 97.07C257.94 97.08 257.87 97.08 257.81 97.09C257.68 97.1 257.58 97.15 257.51 97.22C257.61 97.28 257.73 97.31 257.86 97.31C258.07 97.29 258.27 97.26 258.48 97.26C258.7 97.25 258.83 97.35 259 97.4C259.06 97.41 259.12 97.42 259.19 97.42C259.5 97.43 259.69 97.31 259.63 97.15C259.59 97.03 259.43 96.95 259.23 96.97C259.03 96.98 258.82 97 258.62 97.02ZM283.98 92.17C284.03 92.13 284.09 92.1 284.11 92.07C284.19 91.96 284.16 91.88 284.02 91.79C283.85 91.68 283.64 91.75 283.46 91.76C283.41 91.77 283.36 91.81 283.33 91.84C283.32 91.86 283.32 91.9 283.34 91.91C283.55 92 283.77 92.08 283.98 92.17ZM247.45 85.68C247.24 85.7 247.04 85.71 246.84 85.73C246.78 85.74 246.74 85.78 246.71 85.81C246.65 85.86 246.71 85.94 246.89 85.94C247.08 85.95 247.29 85.91 247.5 85.9C247.76 85.87 247.91 85.79 247.82 85.72C247.72 85.65 247.6 85.64 247.45 85.68ZM25.75 80.98C25.88 80.97 26.02 80.96 26.16 80.95C26.28 80.93 26.38 80.89 26.44 80.81C26.34 80.76 26.22 80.73 26.09 80.73C25.88 80.75 25.68 80.76 25.48 80.78C25.35 80.8 25.23 80.85 25.2 80.92C25.17 80.98 25.45 81.01 25.75 80.98ZM229.63 80.65C229.69 80.67 229.74 80.71 229.8 80.71C229.93 80.71 230.07 80.69 230.2 80.67C230.25 80.66 230.3 80.62 230.32 80.59C230.34 80.57 230.33 80.54 230.31 80.52C230.19 80.41 229.7 80.45 229.62 80.57C229.61 80.59 229.63 80.62 229.63 80.65ZM216.35 68.62C216.36 68.65 216.36 68.69 216.38 68.72C216.41 68.79 216.51 68.84 216.64 68.87C216.75 68.82 216.8 68.75 216.8 68.69C216.79 68.65 216.78 68.62 216.76 68.58C216.73 68.52 216.64 68.47 216.5 68.44C216.4 68.49 216.35 68.55 216.35 68.62ZM293.71 97.4C293.68 97.43 293.64 97.46 293.6 97.48C293.71 97.55 293.82 97.57 293.9 97.53C293.95 97.51 293.98 97.48 294.01 97.45C293.9 97.38 293.8 97.37 293.71 97.4ZM291.1 97.7C291.15 97.72 291.2 97.75 291.26 97.76C291.36 97.78 291.44 97.74 291.51 97.66C291.46 97.64 291.41 97.62 291.35 97.6C291.25 97.58 291.16 97.62 291.1 97.7ZM292.75 97.3C292.72 97.35 292.78 97.39 292.94 97.43C292.98 97.4 293.03 97.38 293.05 97.35C293.1 97.29 293.02 97.25 292.87 97.21C292.83 97.24 292.79 97.27 292.75 97.3ZM283.86 94.93C283.83 94.98 283.89 95.03 284.05 95.06C284.09 95.03 284.14 95.01 284.16 94.98C284.2 94.93 284.13 94.88 283.98 94.85C283.94 94.87 283.9 94.9 283.86 94.93ZM271.75 79.39C271.71 79.41 271.68 79.44 271.63 79.47C271.75 79.53 271.85 79.55 271.93 79.52C271.98 79.5 272.01 79.46 272.05 79.43C271.94 79.37 271.84 79.35 271.75 79.39ZM260.15 71.14C260.25 71.15 260.33 71.12 260.41 71.04C260.35 71.02 260.3 71 260.24 70.98C260.14 70.96 260.06 71 259.99 71.08C260.04 71.1 260.1 71.12 260.15 71.14ZM253.99 70.62C253.95 70.65 253.91 70.68 253.87 70.71C253.98 70.77 254.09 70.79 254.17 70.75C254.22 70.73 254.25 70.7 254.29 70.67C254.17 70.61 254.07 70.59 253.99 70.62ZM212.2 68.62C212.16 68.64 212.13 68.67 212.09 68.7C212.2 68.76 212.3 68.78 212.38 68.75C212.43 68.73 212.46 68.69 212.5 68.66C212.39 68.6 212.29 68.58 212.2 68.62ZM4.15 86.49C4.1 86.47 4.04 86.45 3.99 86.43C3.87 86.49 3.83 86.54 3.9 86.58C3.94 86.61 4 86.62 4.06 86.64C4.19 86.58 4.21 86.53 4.15 86.49Z" fill="#4F9CF9" fill-opacity="1.000000" fill-rule="nonzero"/>
	<path id="Vector" d="M126.35 10.85C126.05 10.89 125.75 10.94 125.45 10.97C125.28 10.98 125.23 11.08 125.16 11.17C125.11 11.24 125.05 11.26 124.95 11.27C124.12 11.38 123.3 11.49 122.48 11.6C122.38 11.57 122.33 11.53 122.35 11.47C122.36 11.44 122.4 11.39 122.43 11.39C122.99 11.31 123.55 11.23 124.12 11.16C124.28 11.15 124.32 11.05 124.4 10.97C124.43 10.94 124.45 10.91 124.49 10.89C124.52 10.87 124.57 10.87 124.62 10.87C125.52 10.75 126.43 10.62 127.34 10.5C127.45 10.53 127.5 10.57 127.47 10.63C127.46 10.66 127.43 10.71 127.4 10.71C127.05 10.76 126.7 10.8 126.35 10.85Z" fill="#4F9CF9" fill-opacity="1.000000" fill-rule="nonzero"/>
	<path id="Vector" d="M292.75 22.48C292.61 22.5 292.43 22.54 292.29 22.42C292.22 22.35 292.15 22.33 292.06 22.35C291.93 22.37 291.8 22.39 291.66 22.4C291.63 22.4 291.59 22.38 291.55 22.36C291.48 22.32 291.41 22.25 291.33 22.24C291.26 22.22 291.16 22.27 291.08 22.26C290.97 22.24 290.92 22.18 290.95 22.13C290.97 22.1 291 22.05 291.04 22.05C291.52 21.97 291.53 21.97 291.66 22.04C291.77 22.11 291.87 22.17 292.02 22.14C292.15 22.11 292.28 22.1 292.41 22.08C292.59 22.05 292.59 22.05 292.88 22.19C292.95 22.23 293.03 22.23 293.13 22.21C293.21 22.19 293.29 22.23 293.36 22.28C293.31 22.36 293.25 22.41 293.17 22.42C293.04 22.44 292.91 22.46 292.75 22.48Z" fill="#4F9CF9" fill-opacity="1.000000" fill-rule="nonzero"/>
	<path id="Vector" d="M287.88 21.81C288.21 21.76 288.55 21.72 288.88 21.67C289.02 21.65 289.13 21.67 289.22 21.74C289.33 21.83 289.44 21.82 289.57 21.8C289.65 21.79 289.73 21.83 289.78 21.89C289.8 21.92 289.79 21.96 289.8 21.99C289.51 22.03 289.22 22.07 288.93 22.11C288.89 22.11 288.85 22.09 288.82 22.07C288.75 22.04 288.68 21.97 288.61 21.96C288.44 21.93 288.28 21.99 288.11 22C288.03 22 287.96 21.97 287.91 21.91C287.88 21.88 287.89 21.84 287.88 21.81Z" fill="#4F9CF9" fill-opacity="1.000000" fill-rule="nonzero"/>
	<path id="Vector" d="M167.55 3.03C167.9 2.98 168.24 2.94 168.59 2.89C168.69 2.92 168.74 2.96 168.72 3.02C168.71 3.05 168.68 3.1 168.64 3.1C167.95 3.2 167.26 3.29 166.57 3.39C166.47 3.36 166.42 3.31 166.44 3.26C166.45 3.23 166.48 3.18 166.52 3.18C166.86 3.13 167.21 3.08 167.55 3.03Z" fill="#4F9CF9" fill-opacity="1.000000" fill-rule="nonzero"/>
	<path id="Vector" d="M114.21 15.17C114.05 15.17 113.89 15.25 113.72 15.19C113.68 15.18 113.63 15.14 113.64 15.13C113.64 15.09 113.67 15.05 113.71 15.04C113.86 14.98 114.05 14.98 114.12 14.82C114.16 14.75 114.23 14.72 114.32 14.7C114.42 14.69 114.49 14.69 114.56 14.74C114.66 14.8 114.75 14.91 114.91 14.85C114.91 14.88 114.93 14.92 114.93 14.96C114.92 14.99 114.88 15.02 114.85 15.04C114.82 15.07 114.78 15.09 114.75 15.09C114.57 15.12 114.4 15.14 114.21 15.17Z" fill="#4F9CF9" fill-opacity="1.000000" fill-rule="nonzero"/>
	<path id="Vector" d="M251.64 14.73C251.77 14.71 251.91 14.7 252.03 14.67C252.14 14.65 252.2 14.66 252.28 14.71C252.41 14.81 252.42 14.8 252.75 14.81C252.79 14.81 252.83 14.84 252.85 14.87C252.87 14.89 252.85 14.93 252.83 14.95C252.81 14.98 252.77 15.02 252.74 15.02C252.53 15.02 252.32 15.15 252.12 15C252.02 14.93 251.9 14.9 251.76 14.93C251.68 14.95 251.59 14.96 251.5 14.96C251.42 14.97 251.33 14.95 251.28 14.88C251.2 14.79 251.24 14.75 251.38 14.76C251.47 14.76 251.56 14.74 251.64 14.73Z" fill="#4F9CF9" fill-opacity="1.000000" fill-rule="nonzero"/>
	<path id="Vector" d="M299.54 29.78C299.7 29.76 299.87 29.73 300.04 29.71C300.07 29.71 300.11 29.73 300.15 29.75C300.27 29.81 300.26 29.92 300.26 30.02C300.26 30.13 299.97 30.21 299.85 30.14C299.71 30.06 299.58 29.97 299.39 30.02C299.32 30.04 299.23 30 299.18 29.93C299.11 29.84 299.15 29.8 299.29 29.81C299.37 29.82 299.45 29.79 299.54 29.78Z" fill="#4F9CF9" fill-opacity="1.000000" fill-rule="nonzero"/>
	<path id="Vector" d="M215.64 0.06C215.81 0.03 215.98 0 216.16 6.1e-5C216.26 -0.01 216.31 0.06 216.28 0.12C216.27 0.15 216.24 0.2 216.21 0.2C215.86 0.25 215.52 0.3 215.18 0.34C215.08 0.31 215.03 0.27 215.05 0.22C215.06 0.18 215.09 0.14 215.13 0.13C215.3 0.1 215.47 0.08 215.64 0.06Z" fill="#4F9CF9" fill-opacity="1.000000" fill-rule="nonzero"/>
	<path id="Vector" d="M296.24 22.67C296.41 22.65 296.58 22.62 296.74 22.61C296.83 22.6 296.9 22.65 296.91 22.71C296.92 22.73 296.87 22.78 296.84 22.79C296.6 22.87 296.34 22.87 296.1 22.91C296.02 22.92 295.93 22.89 295.88 22.83C295.81 22.73 295.85 22.7 295.99 22.7C296.07 22.71 296.16 22.68 296.24 22.67Z" fill="#4F9CF9" fill-opacity="1.000000" fill-rule="nonzero"/>
	<path id="Vector" d="M256.01 15.02C256.09 15.01 256.18 14.98 256.26 14.99C256.35 15 256.4 15.07 256.43 15.13C256.46 15.2 256.46 15.27 256.43 15.33C256.39 15.43 256.35 15.43 256.25 15.36C256.1 15.25 256.09 15.26 255.79 15.27C255.75 15.27 255.71 15.24 255.69 15.21C255.65 15.16 255.67 15.1 255.76 15.06C255.83 15.03 255.92 15.03 256.01 15.02Z" fill="#4F9CF9" fill-opacity="1.000000" fill-rule="nonzero"/>
	<path id="Vector" d="M290.05 21.95C290.17 21.94 290.3 21.91 290.42 21.91C290.51 21.91 290.58 21.96 290.59 22.01C290.59 22.04 290.55 22.08 290.52 22.09C290.37 22.15 290.2 22.16 290.03 22.18C289.96 22.19 289.87 22.15 289.82 22.09C289.75 22 289.79 21.96 289.93 21.97C289.96 21.97 290.01 21.96 290.05 21.95Z" fill="#4F9CF9" fill-opacity="1.000000" fill-rule="nonzero"/>
	<path id="Vector" d="M270.5 19.28C270.32 19.3 270.14 19.27 270.16 19.21C270.17 19.14 270.25 19.09 270.33 19.08C270.46 19.05 270.58 19.04 270.71 19.02C270.79 19.02 270.87 19.05 270.94 19.11C270.9 19.17 270.84 19.23 270.76 19.24C270.67 19.26 270.59 19.26 270.5 19.28Z" fill="#4F9CF9" fill-opacity="1.000000" fill-rule="nonzero"/>
	<path id="Vector" d="M269.29 19C269.41 18.98 269.54 18.95 269.66 18.95C269.75 18.95 269.82 19 269.83 19.05C269.83 19.08 269.79 19.12 269.76 19.14C269.61 19.19 269.44 19.2 269.27 19.22C269.2 19.23 269.11 19.19 269.07 19.13C268.99 19.04 269.04 19 269.17 19.01C269.21 19.02 269.25 19 269.29 19Z" fill="#4F9CF9" fill-opacity="1.000000" fill-rule="nonzero"/>
	<path id="Vector" d="M254.51 15C254.63 14.99 254.76 14.96 254.88 14.96C254.97 14.95 255.04 15 255.05 15.06C255.05 15.09 255.01 15.13 254.98 15.14C254.83 15.2 254.66 15.21 254.49 15.23C254.42 15.23 254.33 15.2 254.29 15.14C254.21 15.05 254.26 15 254.39 15.02C254.43 15.02 254.47 15.01 254.51 15Z" fill="#4F9CF9" fill-opacity="1.000000" fill-rule="nonzero"/>
	<path id="Vector" d="M253.82 14.88C253.95 14.86 253.99 14.85 254.03 14.85C254.11 14.85 254.19 14.87 254.24 14.94C254.31 15.03 254.27 15.06 254.14 15.06C253.97 15.06 253.81 15.11 253.64 15.12C253.56 15.12 253.49 15.07 253.48 15.02C253.48 14.99 253.52 14.94 253.55 14.93C253.66 14.9 253.78 14.88 253.82 14.88Z" fill="#4F9CF9" fill-opacity="1.000000" fill-rule="nonzero"/>
	<path id="Vector" d="M268.21 2.03C268.13 2.04 268.04 2.07 267.96 2.06C267.85 2.05 267.81 1.99 267.84 1.93C267.85 1.9 267.88 1.86 267.92 1.85C268.08 1.82 268.26 1.8 268.43 1.78C268.53 1.81 268.57 1.86 268.54 1.91C268.53 1.94 268.5 1.98 268.47 1.99C268.39 2.01 268.3 2.02 268.21 2.03Z" fill="#4F9CF9" fill-opacity="1.000000" fill-rule="nonzero"/>
	<path id="Vector" d="M165.66 3.29C165.74 3.29 165.81 3.32 165.88 3.37C165.84 3.44 165.78 3.49 165.7 3.51C165.66 3.51 165.61 3.52 165.57 3.52C165.49 3.53 165.42 3.5 165.35 3.44C165.39 3.37 165.45 3.33 165.53 3.31C165.57 3.3 165.61 3.3 165.66 3.29Z" fill="#4F9CF9" fill-opacity="1.000000" fill-rule="nonzero"/>
	<path id="Vector" d="M295.34 22.66C295.34 22.6 295.5 22.53 295.64 22.53C295.72 22.53 295.8 22.56 295.84 22.62C295.91 22.71 295.87 22.75 295.74 22.74C295.66 22.73 295.58 22.77 295.5 22.77C295.41 22.76 295.36 22.71 295.34 22.66Z" fill="#4F9CF9" fill-opacity="1.000000" fill-rule="nonzero"/>
	<path id="Vector" d="M256.77 15.29C256.77 15.26 256.76 15.23 256.77 15.21C256.82 15.09 257.12 15.05 257.2 15.16C257.21 15.18 257.22 15.21 257.21 15.23C257.19 15.26 257.16 15.3 257.13 15.31C257.05 15.33 256.96 15.34 256.88 15.35C256.84 15.35 256.81 15.31 256.77 15.29Z" fill="#4F9CF9" fill-opacity="1.000000" fill-rule="nonzero"/>
	<path id="Vector" d="M115.15 14.82C114.84 14.86 114.83 14.86 114.89 14.75C114.94 14.65 115.03 14.59 115.17 14.59C115.21 14.59 115.25 14.59 115.28 14.6C115.32 14.61 115.37 14.63 115.38 14.66C115.4 14.71 115.35 14.76 115.27 14.8C115.24 14.81 115.19 14.81 115.15 14.82Z" fill="#4F9CF9" fill-opacity="1.000000" fill-rule="nonzero"/>
	<path id="Vector" d="M169.56 2.98C169.47 3.02 169.39 3.01 169.33 2.94C169.27 2.87 169.36 2.78 169.53 2.76C169.57 2.76 169.61 2.74 169.65 2.75C169.69 2.76 169.73 2.78 169.76 2.81C169.8 2.85 169.77 2.91 169.69 2.96C169.65 2.98 169.6 2.98 169.56 2.98Z" fill="#4F9CF9" fill-opacity="1.000000" fill-rule="nonzero"/>
	<path id="Vector" d="M294.79 22.5C294.81 22.47 294.84 22.44 294.86 22.41C294.96 22.45 295 22.5 294.98 22.55C294.96 22.58 294.93 22.6 294.9 22.63C294.81 22.59 294.77 22.55 294.79 22.5Z" fill="#4F9CF9" fill-opacity="1.000000" fill-rule="nonzero"/>
	<path id="Vector" d="M119.34 39.67C119.34 39.65 119.37 39.61 119.4 39.6C119.46 39.58 119.53 39.61 119.57 39.67C119.64 39.76 119.6 39.81 119.48 39.78C119.39 39.77 119.34 39.72 119.34 39.67Z" fill="#4F9CF9" fill-opacity="1.000000" fill-rule="nonzero"/>
	<path id="Vector" d="M257.85 13.25C257.88 13.27 257.92 13.29 257.95 13.31C257.91 13.4 257.85 13.43 257.79 13.41C257.76 13.4 257.72 13.37 257.69 13.35C257.73 13.27 257.79 13.24 257.85 13.25Z" fill="#4F9CF9" fill-opacity="1.000000" fill-rule="nonzero"/>
	<path id="Vector" d="M256.94 13.15C256.99 13.12 257.05 13.14 257.13 13.2C257.1 13.23 257.08 13.26 257.05 13.29C257 13.32 256.94 13.3 256.87 13.24C256.89 13.21 256.91 13.18 256.94 13.15Z" fill="#4F9CF9" fill-opacity="1.000000" fill-rule="nonzero"/>
	<path id="Vector" d="M256.24 13.25C256.27 13.27 256.3 13.29 256.34 13.31C256.29 13.39 256.24 13.43 256.18 13.41C256.14 13.39 256.11 13.37 256.07 13.35C256.12 13.27 256.17 13.23 256.24 13.25Z" fill="#4F9CF9" fill-opacity="1.000000" fill-rule="nonzero"/>
	<path id="Vector" d="M255.72 13.14C255.76 13.18 255.74 13.23 255.66 13.29C255.63 13.27 255.59 13.26 255.56 13.23C255.52 13.19 255.54 13.13 255.62 13.07C255.65 13.1 255.69 13.12 255.72 13.14Z" fill="#4F9CF9" fill-opacity="1.000000" fill-rule="nonzero"/>
</svg>
