<svg width="106.000000" height="29.000000" viewBox="0 0 106 29" fill="none" xmlns="http://www.w3.org/2000/svg" xmlns:xlink="http://www.w3.org/1999/xlink">
	<desc>
			Created with Pixso.
	</desc>
	<defs/>
	<path id="Vector" d="M99.73 15.32C99.58 15.34 99.43 15.36 99.29 15.4C99.2 15.42 99.16 15.35 99.1 15.32C99.08 15.31 99.05 15.28 99.04 15.29C98.89 15.31 98.75 15.34 98.6 15.36C98.56 15.42 98.53 15.5 98.46 15.53C98.4 15.56 98.32 15.56 98.25 15.57C98.15 15.59 98.05 15.61 97.96 15.62C97.91 15.63 97.87 15.66 97.85 15.71C97.85 15.72 97.88 15.74 97.9 15.76C97.96 15.8 98.02 15.85 98.08 15.89C98.14 15.92 98.22 15.87 98.28 15.91C98.43 16.01 98.43 16 98.55 15.99C98.64 15.97 98.74 15.95 98.84 15.94C98.86 15.94 98.88 15.96 98.9 15.97C98.96 16 99 16.08 99.09 16.05C99.16 16.03 99.24 16.02 99.31 16.01C99.37 16.06 99.42 16.11 99.49 16.14C99.55 16.17 99.57 16.2 99.54 16.24C99.51 16.28 99.46 16.3 99.41 16.3C99.36 16.31 99.31 16.32 99.26 16.33C99.24 16.33 99.22 16.33 99.19 16.34C99.1 16.36 99.1 16.36 98.93 16.26C98.87 16.22 98.79 16.27 98.73 16.24C98.68 16.21 98.65 16.18 98.61 16.15C98.59 16.14 98.56 16.14 98.54 16.14C98.47 16.15 98.39 16.16 98.32 16.18C98.27 16.19 98.24 16.24 98.25 16.28C98.25 16.3 98.29 16.32 98.31 16.32C98.35 16.32 98.4 16.3 98.45 16.31C98.49 16.32 98.54 16.35 98.57 16.39C98.64 16.46 98.71 16.4 98.77 16.41C98.84 16.43 98.89 16.49 98.96 16.53C98.97 16.54 99 16.52 99.03 16.52C99.1 16.51 99.17 16.5 99.25 16.49C99.31 16.53 99.37 16.57 99.42 16.62C99.52 16.71 99.63 16.75 99.76 16.7C99.83 16.68 99.9 16.69 99.96 16.75C100.02 16.81 100.08 16.8 100.16 16.79C100.23 16.78 100.3 16.75 100.37 16.79C100.52 16.88 100.52 16.89 100.7 16.85C100.76 16.84 100.8 16.84 100.84 16.87C100.88 16.9 100.92 16.93 100.96 16.96C101.03 16.95 101.1 16.94 101.18 16.93C101.27 16.91 101.32 16.93 101.34 17.02C101.35 17.07 101.36 17.12 101.39 17.15C101.43 17.19 101.47 17.19 101.53 17.18C101.58 17.17 101.62 17.15 101.64 17.1C101.65 17.07 101.67 17.05 101.68 17.04C101.7 17.02 101.72 17 101.73 17C101.75 17.01 101.78 17.03 101.79 17.05C101.86 17.23 101.86 17.23 101.93 17.28C102.01 17.34 102.1 17.4 102.17 17.46C102.24 17.52 102.3 17.5 102.38 17.5C102.43 17.5 102.47 17.54 102.46 17.58C102.46 17.6 102.44 17.63 102.42 17.63C102.28 17.66 102.13 17.69 101.98 17.71C101.97 17.71 101.95 17.69 101.92 17.67C101.88 17.65 101.85 17.6 101.8 17.6C101.76 17.59 101.71 17.61 101.66 17.62C101.61 17.62 101.56 17.64 101.52 17.63C101.47 17.62 101.44 17.58 101.39 17.55C101.38 17.53 101.35 17.51 101.33 17.52C101.23 17.55 101.15 17.5 101.07 17.44C101.05 17.42 101.03 17.41 101.01 17.42C100.83 17.44 100.67 17.47 100.5 17.5C100.43 17.51 100.37 17.46 100.36 17.37C100.35 17.32 100.33 17.27 100.33 17.22C100.33 17.13 100.25 17.08 100.19 17.09C100.1 17.11 100 17.12 99.9 17.14C99.83 17.16 99.76 17.14 99.71 17.09C99.64 17.02 99.57 17.04 99.5 17.05C99.45 17.07 99.44 17.12 99.44 17.24C99.44 17.34 99.42 17.38 99.32 17.39C99.2 17.41 99.08 17.43 98.96 17.45C98.94 17.45 98.92 17.43 98.9 17.41C98.86 17.39 98.82 17.34 98.78 17.33C98.73 17.32 98.68 17.35 98.63 17.36C98.58 17.36 98.53 17.38 98.49 17.37C98.44 17.36 98.41 17.32 98.37 17.29C98.35 17.28 98.33 17.26 98.31 17.26C98.21 17.27 98.11 17.29 98.02 17.31C97.91 17.32 97.91 17.32 97.75 17.23C97.68 17.19 97.61 17.22 97.54 17.23C97.47 17.24 97.4 17.25 97.34 17.19C97.3 17.15 97.26 17.13 97.22 17.13C97.09 17.15 96.97 17.18 96.85 17.19C96.83 17.2 96.8 17.19 96.79 17.18C96.71 17.11 96.63 17.06 96.52 17.09C96.43 17.12 96.33 17.12 96.24 17.15C96.18 17.16 96.16 17.21 96.17 17.25C96.18 17.27 96.21 17.29 96.23 17.29C96.27 17.29 96.33 17.27 96.37 17.28C96.46 17.3 96.51 17.42 96.63 17.39C96.7 17.37 96.77 17.36 96.84 17.35C96.86 17.35 96.88 17.38 96.9 17.4C96.96 17.44 97.01 17.49 97.1 17.46C97.17 17.44 97.24 17.44 97.32 17.42C97.43 17.4 97.43 17.41 97.58 17.5C97.65 17.54 97.72 17.51 97.79 17.5C97.84 17.49 97.89 17.47 97.93 17.5C97.99 17.53 98.04 17.6 98.12 17.6C98.19 17.59 98.26 17.57 98.34 17.56C98.38 17.56 98.42 17.58 98.46 17.62C98.5 17.66 98.54 17.68 98.59 17.67C98.66 17.66 98.73 17.65 98.81 17.64C98.83 17.64 98.85 17.65 98.87 17.66C98.91 17.69 98.95 17.72 98.99 17.75C99.06 17.74 99.14 17.74 99.21 17.72C99.26 17.71 99.3 17.71 99.34 17.74C99.4 17.78 99.45 17.86 99.54 17.82C99.58 17.8 99.63 17.81 99.68 17.79C99.74 17.77 99.77 17.78 99.81 17.83C99.89 17.91 99.98 17.92 100.08 17.88C100.19 17.85 100.27 17.89 100.34 17.95C100.43 18.02 100.43 18.02 100.49 18.19C100.51 18.24 100.57 18.26 100.61 18.25C100.69 18.24 100.75 18.25 100.81 18.3C100.87 18.37 100.94 18.36 101.01 18.34C101.11 18.32 101.2 18.3 101.28 18.39C101.32 18.43 101.36 18.44 101.41 18.43C101.56 18.4 101.7 18.39 101.85 18.35C101.93 18.33 101.98 18.38 102.04 18.42C102.12 18.48 102.21 18.53 102.21 18.65C102.21 18.67 102.23 18.69 102.25 18.7C102.28 18.74 102.32 18.76 102.36 18.79C102.42 18.84 102.48 18.88 102.56 18.85C102.63 18.83 102.71 18.83 102.78 18.81C102.85 18.8 102.92 18.79 102.98 18.85C103.06 18.91 103.13 18.98 103.22 19.03C103.28 19.06 103.36 19 103.42 19.05C103.46 19.08 103.5 19.11 103.54 19.13C103.56 19.15 103.59 19.14 103.61 19.13C103.66 19.13 103.71 19.12 103.76 19.11C103.81 19.09 103.85 19.1 103.9 19.13C103.93 19.16 103.97 19.21 104.02 19.21C104.08 19.23 104.16 19.17 104.22 19.24C104.26 19.27 104.3 19.31 104.34 19.32C104.39 19.33 104.44 19.3 104.48 19.31C104.5 19.31 104.53 19.33 104.54 19.35C104.55 19.36 104.54 19.39 104.53 19.4C104.52 19.42 104.5 19.45 104.48 19.45C104.33 19.48 104.19 19.5 104.04 19.53C103.95 19.54 103.95 19.54 103.78 19.45C103.74 19.42 103.69 19.43 103.64 19.44C103.57 19.45 103.5 19.48 103.43 19.45C103.34 19.35 103.22 19.34 103.1 19.38C103.05 19.39 103 19.39 102.96 19.37C102.88 19.31 102.79 19.25 102.72 19.19C102.67 19.13 102.64 19.13 102.62 19.2C102.61 19.22 102.6 19.25 102.6 19.27C102.61 19.35 102.63 19.42 102.64 19.5C102.64 19.52 102.63 19.54 102.62 19.56C102.6 19.63 102.57 19.62 102.52 19.57C102.46 19.52 102.4 19.48 102.32 19.51C102.25 19.53 102.17 19.52 102.1 19.55C101.99 19.58 101.92 19.53 101.84 19.47C101.82 19.45 101.8 19.45 101.77 19.45C101.56 19.48 101.34 19.52 101.12 19.56C101.07 19.57 101.03 19.54 100.99 19.5C100.96 19.46 100.91 19.44 100.87 19.45C100.67 19.48 100.48 19.51 100.28 19.55C100.2 19.56 100.14 19.54 100.09 19.49C100.05 19.45 100.01 19.44 99.96 19.44C99.9 19.45 99.86 19.46 99.83 19.51C99.81 19.55 99.83 19.58 99.88 19.61C99.95 19.65 100.01 19.69 100.07 19.74C100.12 19.73 100.16 19.72 100.21 19.72C100.23 19.72 100.25 19.75 100.27 19.76C100.33 19.81 100.38 19.85 100.47 19.82C100.54 19.8 100.61 19.8 100.69 19.79C100.79 19.77 100.79 19.77 100.95 19.86C100.99 19.89 101.03 19.89 101.08 19.87C101.13 19.86 101.18 19.88 101.21 19.93C101.22 19.95 101.22 19.98 101.19 20.08C101.19 20.15 101.22 20.12 101.23 20.07C101.25 20 101.22 19.98 101.16 20.02C101.12 20.04 101.1 20.08 101.11 20.11C101.11 20.13 101.14 20.15 101.19 20.08C101.32 19.99 101.42 19.98 101.51 19.95C101.57 19.94 101.6 19.94 101.65 19.98C101.7 20.03 101.75 20.08 101.84 20.06C101.93 20.03 102.03 20.03 102.13 20C102.22 19.98 102.26 20.05 102.32 20.09C102.39 20.14 102.46 20.08 102.52 20.11C102.59 20.14 102.63 20.2 102.71 20.22C102.82 20.18 102.89 20.25 102.97 20.3C103.03 20.34 103.11 20.31 103.18 20.29C103.26 20.27 103.32 20.29 103.37 20.34C103.44 20.4 103.5 20.39 103.58 20.38C103.74 20.35 103.75 20.34 103.84 20.43C103.91 20.49 103.98 20.46 104.05 20.45C104.11 20.49 104.16 20.54 104.23 20.57C104.24 20.58 104.27 20.57 104.3 20.56C104.37 20.55 104.44 20.54 104.52 20.53C104.57 20.52 104.62 20.5 104.66 20.5C104.7 20.51 104.74 20.56 104.78 20.59C104.82 20.62 104.86 20.65 104.9 20.68C104.96 20.72 105.01 20.76 105.1 20.74C105.17 20.72 105.24 20.71 105.31 20.7C105.41 20.68 105.4 20.68 105.58 20.78C105.67 20.83 105.76 20.77 105.86 20.76C105.9 20.76 105.95 20.77 105.98 20.82C106 20.83 105.99 20.87 106 20.89C105.75 20.93 105.51 20.97 105.27 21.02C105.18 21.04 105.13 20.98 105.08 20.94C105 20.86 104.89 20.97 104.81 20.88C104.76 20.82 104.7 20.79 104.62 20.82C104.57 20.83 104.52 20.83 104.47 20.84C104.35 20.88 104.23 20.88 104.13 20.77C104.1 20.74 104.05 20.72 104.02 20.68C103.98 20.64 103.94 20.62 103.89 20.63C103.67 20.67 103.45 20.7 103.23 20.74C103.22 20.75 103.2 20.77 103.18 20.78C103.14 20.83 103.15 20.86 103.22 20.89C103.24 20.9 103.26 20.92 103.28 20.93C103.32 20.96 103.35 21.01 103.4 21.02C103.44 21.03 103.49 21.01 103.54 21C103.59 20.99 103.64 20.97 103.69 20.98C103.73 20.99 103.77 21.03 103.81 21.06C103.83 21.07 103.85 21.1 103.87 21.09C103.97 21.09 104.06 21.07 104.16 21.05C104.22 21.1 104.27 21.15 104.34 21.17C104.39 21.18 104.44 21.16 104.48 21.16C104.5 21.17 104.53 21.19 104.54 21.21C104.55 21.22 104.53 21.25 104.51 21.27C104.46 21.32 104.38 21.31 104.31 21.33C104.24 21.35 104.17 21.34 104.11 21.29C104.07 21.25 104.03 21.22 103.99 21.23C103.86 21.25 103.74 21.27 103.62 21.29C103.6 21.29 103.58 21.28 103.56 21.27C103.4 21.18 103.4 21.17 103.29 21.19C103.13 21.22 103.13 21.22 103.03 21.14C103.01 21.13 102.98 21.1 102.97 21.1C102.8 21.12 102.63 21.15 102.46 21.18C102.4 21.19 102.36 21.19 102.32 21.15C102.29 21.12 102.25 21.08 102.2 21.07C102.16 21.07 102.11 21.09 102.06 21.1C102.01 21.1 101.96 21.12 101.92 21.11C101.87 21.1 101.83 21.06 101.8 21.03C101.76 20.99 101.71 21 101.66 21.01C101.49 21.04 101.49 21.04 101.32 20.94C101.31 20.93 101.28 20.92 101.26 20.92C101.14 20.94 101.02 20.97 100.9 20.98C100.85 20.99 100.8 20.97 100.77 20.93C100.76 20.91 100.76 20.88 100.75 20.82C100.74 20.81 100.75 20.83 100.76 20.85C100.78 20.85 100.81 20.85 100.82 20.84C100.86 20.81 100.88 20.77 100.87 20.74C100.87 20.73 100.84 20.7 100.82 20.7C100.79 20.7 100.76 20.74 100.75 20.82C100.66 20.87 100.56 20.88 100.47 20.9C100.41 20.92 100.38 20.91 100.33 20.87C100.28 20.82 100.22 20.78 100.14 20.8C100.04 20.83 99.94 20.83 99.85 20.85C99.73 20.88 99.69 20.74 99.59 20.75C99.5 20.75 99.4 20.77 99.3 20.79C99.22 20.81 99.22 20.81 99.04 20.71C98.98 20.67 98.9 20.73 98.84 20.69C98.79 20.66 98.76 20.63 98.72 20.6C98.7 20.59 98.67 20.59 98.65 20.59C98.53 20.61 98.4 20.62 98.29 20.66C98.15 20.7 98.05 20.65 97.96 20.56C97.83 20.58 97.71 20.59 97.59 20.62C97.51 20.64 97.46 20.59 97.4 20.55C97.38 20.54 97.36 20.51 97.34 20.51C97.32 20.5 97.29 20.51 97.27 20.52C97.17 20.53 97.07 20.54 96.98 20.57C96.86 20.6 96.82 20.48 96.73 20.46C96.67 20.54 96.63 20.64 96.51 20.65C96.42 20.65 96.32 20.68 96.22 20.7C96.17 20.7 96.13 20.71 96.08 20.72C96 20.73 95.96 20.79 95.98 20.88C95.99 20.93 96 20.98 96 21.03C96.02 21.12 95.98 21.2 95.92 21.21C95.75 21.24 95.58 21.27 95.41 21.29C95.36 21.3 95.32 21.28 95.28 21.24C95.25 21.19 95.2 21.18 95.16 21.18C94.99 21.21 94.82 21.24 94.65 21.27C94.63 21.27 94.6 21.26 94.58 21.24C94.54 21.22 94.5 21.19 94.46 21.16C94.37 21.17 94.27 21.18 94.17 21.2C94.02 21.22 94.02 21.23 93.91 21.14C93.89 21.13 93.87 21.1 93.85 21.1C93.77 21.11 93.7 21.12 93.63 21.14C93.41 21.17 93.41 21.17 93.35 21.13C93.29 21.09 93.24 21.04 93.15 21.06C93.06 21.09 92.96 21.1 92.86 21.11C92.79 21.12 92.72 21.13 92.65 21.14C92.63 21.14 92.61 21.11 92.59 21.09C92.53 21.05 92.47 21.01 92.39 21.04C92.34 21.05 92.29 21.05 92.25 21.06C92.12 21.08 92.12 21.08 91.91 20.99C91.89 20.98 91.87 20.97 91.85 20.98C91.68 21 91.51 21.03 91.34 21.06C91.32 21.06 91.29 21.05 91.27 21.05C91.04 20.96 91.04 20.96 90.79 21C90.7 21.02 90.69 21.02 90.6 20.94C90.55 20.91 90.52 20.89 90.46 20.9C90.27 20.94 90.07 20.96 89.88 21C89.8 21.02 89.75 20.98 89.69 20.94C89.67 20.92 89.64 20.89 89.63 20.89C89.43 20.92 89.24 20.96 89.05 20.99C89.03 20.99 89.01 20.96 88.99 20.94C88.95 20.92 88.91 20.88 88.86 20.87C88.82 20.86 88.77 20.88 88.72 20.89C88.6 20.91 88.6 20.91 88.46 20.82C88.44 20.8 88.41 20.79 88.39 20.79C88.2 20.82 88 20.85 87.81 20.89C87.7 20.92 87.63 20.87 87.55 20.81C87.53 20.79 87.5 20.79 87.48 20.79C87.26 20.83 87.05 20.87 86.83 20.9C86.78 20.91 86.74 20.88 86.7 20.84C86.64 20.78 86.57 20.79 86.5 20.8C86.33 20.83 86.33 20.83 86.23 20.76C86.21 20.74 86.19 20.72 86.17 20.72C86.15 20.71 86.12 20.71 86.1 20.72C86 20.73 85.91 20.75 85.81 20.77C85.71 20.78 85.61 20.79 85.52 20.82C85.4 20.85 85.35 20.75 85.26 20.7C85.14 20.72 85.02 20.74 84.9 20.77C84.81 20.79 84.77 20.73 84.71 20.69C84.69 20.68 84.66 20.65 84.65 20.66C84.43 20.69 84.21 20.73 83.99 20.77C83.94 20.78 83.9 20.76 83.86 20.73C83.76 20.65 83.76 20.65 83.59 20.68C83.52 20.69 83.45 20.7 83.39 20.64C83.33 20.59 83.27 20.57 83.19 20.59C83.09 20.61 83 20.63 82.9 20.64C82.8 20.66 82.71 20.68 82.61 20.69C82.53 20.7 82.48 20.62 82.42 20.59C82.4 20.58 82.38 20.58 82.35 20.58C82.26 20.59 82.16 20.6 82.06 20.63C81.95 20.66 81.89 20.58 81.81 20.53C81.79 20.52 81.76 20.52 81.74 20.53C81.57 20.56 81.4 20.59 81.23 20.62C81.17 20.57 81.1 20.53 81.04 20.49C80.95 20.51 80.85 20.53 80.75 20.54C80.68 20.55 80.61 20.56 80.54 20.58C80.45 20.61 80.4 20.54 80.34 20.5C80.32 20.49 80.3 20.47 80.28 20.47C80.16 20.49 80.04 20.5 79.92 20.53C79.8 20.56 79.76 20.42 79.66 20.42C79.57 20.42 79.47 20.44 79.37 20.47C79.26 20.5 79.19 20.45 79.11 20.39C79.09 20.37 79.07 20.37 79.04 20.37C78.92 20.39 78.8 20.41 78.68 20.43C78.66 20.43 78.63 20.42 78.61 20.41C78.38 20.33 78.38 20.32 78.28 20.34C78.21 20.35 78.14 20.37 78.06 20.38C78.04 20.38 78.02 20.37 78 20.35C77.84 20.26 77.84 20.26 77.73 20.28C77.64 20.29 77.54 20.31 77.44 20.33C77.38 20.29 77.32 20.25 77.26 20.21C77.14 20.23 77.02 20.24 76.9 20.27C76.84 20.28 76.81 20.28 76.76 20.24C76.71 20.19 76.66 20.14 76.57 20.17C76.48 20.19 76.38 20.2 76.28 20.22C76.17 20.25 76.12 20.11 76.03 20.11C75.93 20.11 75.83 20.13 75.74 20.16C75.63 20.19 75.55 20.14 75.47 20.08C75.46 20.06 75.43 20.06 75.41 20.06C75.14 20.1 74.88 20.15 74.61 20.19C74.44 20.22 74.44 20.22 74.13 20.14C74.11 20.13 74.09 20.13 74.06 20.13C73.97 20.14 73.87 20.16 73.77 20.18C73.66 20.21 73.59 20.13 73.51 20.08C73.5 20.07 73.47 20.08 73.45 20.08C73.37 20.09 73.3 20.1 73.23 20.12C73.13 20.13 73.03 20.15 72.94 20.17C72.88 20.13 72.81 20.09 72.75 20.05C72.63 20.07 72.51 20.08 72.39 20.11C72.3 20.13 72.26 20.07 72.2 20.03C72.18 20.02 72.15 19.99 72.14 20C71.92 20.03 71.7 20.06 71.48 20.11C71.39 20.13 71.35 20.06 71.29 20.02C71.27 20.01 71.25 19.99 71.23 19.99C71.08 20.02 70.94 20.04 70.79 20.07C70.71 20.08 70.71 20.08 70.53 19.99C70.51 19.98 70.48 19.97 70.46 19.97C70 20.05 69.54 20.13 69.08 20.2C69.04 20.21 68.99 20.19 68.96 20.15C68.92 20.11 68.87 20.08 68.83 20.09C68.63 20.12 68.44 20.15 68.25 20.19C68.17 20.21 68.1 20.19 68.05 20.14C68.01 20.1 67.97 20.08 67.92 20.09C67.82 20.11 67.73 20.12 67.63 20.14C67.53 20.16 67.43 20.17 67.34 20.19C67.24 20.21 67.14 20.22 67.05 20.24C66.93 20.27 66.87 20.18 66.79 20.13C66.65 20.16 66.5 20.18 66.36 20.2C66.16 20.23 65.97 20.27 65.77 20.3C65.76 20.3 65.74 20.28 65.71 20.26C65.65 20.22 65.61 20.17 65.52 20.19C65.09 20.27 64.65 20.34 64.21 20.41C64.12 20.43 64.08 20.37 64.02 20.33C64 20.32 63.98 20.3 63.96 20.3C63.71 20.34 63.47 20.38 63.23 20.42C63.13 20.44 63.13 20.44 62.97 20.35C62.95 20.34 62.92 20.32 62.9 20.33C62.59 20.38 62.27 20.43 61.96 20.48C61.91 20.49 61.87 20.47 61.83 20.43C61.79 20.39 61.75 20.37 61.7 20.37C61.41 20.42 61.12 20.47 60.83 20.52C60.75 20.54 60.69 20.52 60.63 20.47C60.59 20.43 60.55 20.41 60.5 20.42C60.07 20.5 59.63 20.57 59.19 20.65C59.11 20.66 59.05 20.63 59 20.58C58.96 20.54 58.92 20.54 58.87 20.54C58.81 20.55 58.78 20.57 58.75 20.61C58.71 20.67 58.68 20.75 58.59 20.75C58.49 20.75 58.39 20.77 58.3 20.8C58.21 20.82 58.16 20.76 58.11 20.72C58.06 20.69 58.02 20.68 57.97 20.7C57.92 20.71 57.89 20.73 57.86 20.78C57.79 20.88 57.79 20.88 57.71 20.82C57.67 20.78 57.63 20.76 57.58 20.76C57.39 20.79 57.19 20.83 57 20.86C56.89 20.88 56.89 20.88 56.8 20.81C56.76 20.77 56.72 20.75 56.67 20.76C56.14 20.85 55.61 20.94 55.08 21.04C54.99 21.05 54.94 21.02 54.88 20.97C54.86 20.96 54.84 20.94 54.82 20.93C54.8 20.93 54.77 20.93 54.75 20.94C54.36 21 53.97 21.06 53.58 21.14C53.5 21.15 53.45 21.1 53.39 21.06C53.37 21.05 53.35 21.03 53.33 21.02C53.31 21.02 53.28 21.03 53.26 21.03C52.87 21.1 52.48 21.16 52.09 21.23C52 21.25 51.96 21.19 51.9 21.15C51.88 21.14 51.86 21.12 51.84 21.12C51.72 21.14 51.6 21.16 51.48 21.18C51.18 21.23 50.89 21.28 50.6 21.33C50.49 21.35 50.44 21.21 50.35 21.22C50.23 21.23 50.11 21.26 49.99 21.28C49.89 21.3 49.79 21.31 49.69 21.33C49.6 21.35 49.6 21.35 49.36 21.26C49.34 21.25 49.32 21.24 49.29 21.24C48.96 21.3 48.62 21.36 48.28 21.42C48.2 21.43 48.13 21.42 48.08 21.37C48.04 21.33 48 21.31 47.95 21.32C47.44 21.4 46.93 21.49 46.42 21.57C46.4 21.58 46.38 21.56 46.36 21.55C46.32 21.52 46.28 21.49 46.24 21.46C46.21 21.5 46.17 21.53 46.15 21.57C46.13 21.62 46.09 21.64 46.04 21.64C45.98 21.65 45.94 21.65 45.9 21.61C45.85 21.56 45.79 21.53 45.71 21.54C45.17 21.64 44.64 21.72 44.11 21.82C44.02 21.83 43.98 21.76 43.92 21.73C43.9 21.72 43.87 21.7 43.85 21.71C43.63 21.74 43.42 21.78 43.2 21.81C42.59 21.92 41.98 22.02 41.38 22.13C41.27 22.15 41.19 22.11 41.12 22.04C41.1 22.03 41.07 22.02 41.05 22.02C40.2 22.17 39.35 22.31 38.51 22.45C38.46 22.46 38.42 22.44 38.38 22.4C38.34 22.36 38.3 22.34 38.25 22.35C37.87 22.41 37.48 22.48 37.09 22.54C36.99 22.56 36.99 22.56 36.89 22.49C36.87 22.47 36.85 22.44 36.83 22.45C36.8 22.45 36.77 22.49 36.74 22.54C36.72 22.6 36.68 22.61 36.63 22.62C36.57 22.64 36.54 22.63 36.49 22.59C36.44 22.55 36.39 22.5 36.3 22.52C35.19 22.71 34.07 22.9 32.96 23.09C32.87 23.11 32.83 23.04 32.77 23.01C32.74 23 32.72 22.98 32.7 22.98C32.68 22.98 32.65 22.99 32.63 22.99C30.81 23.3 28.99 23.61 27.18 23.92C27.07 23.94 27.07 23.94 26.95 24.07C26.94 24.09 26.92 24.11 26.9 24.12C26.34 24.21 25.78 24.31 25.22 24.4C24.98 24.44 24.74 24.49 24.5 24.53C24.41 24.54 24.41 24.54 24.2 24.7C24.18 24.72 24.16 24.73 24.14 24.74C23.17 24.9 22.21 25.07 21.23 25.23C21.16 25.24 21.1 25.27 21.06 25.34C21.04 25.39 21 25.42 20.96 25.43C20.28 25.55 19.6 25.67 18.92 25.78C18.84 25.79 18.79 25.83 18.75 25.9C18.74 25.92 18.72 25.94 18.71 25.96C18.69 25.97 18.66 25.98 18.64 25.98C18.06 26.08 17.48 26.18 16.89 26.28C16.81 26.29 16.77 26.35 16.73 26.4C16.71 26.42 16.7 26.45 16.68 26.47C16.67 26.48 16.64 26.48 16.61 26.48C16.13 26.56 15.64 26.65 15.16 26.73C15.07 26.72 15.05 26.81 15 26.86C14.98 26.88 14.97 26.9 14.95 26.92C14.93 26.93 14.91 26.93 14.88 26.93C14.49 26.99 14.11 27.06 13.72 27.12C13.63 27.14 13.61 27.22 13.56 27.27C13.55 27.29 13.53 27.31 13.51 27.32C13.27 27.36 13.03 27.4 12.78 27.44C12.7 27.45 12.7 27.45 12.56 27.6C12.54 27.62 12.52 27.64 12.5 27.64C12.14 27.71 11.78 27.77 11.41 27.83C11.37 27.84 11.33 27.87 11.31 27.92C11.29 27.98 11.25 28.01 11.21 28.02C10.91 28.07 10.62 28.12 10.33 28.16C10.25 28.18 10.2 28.21 10.16 28.28C10.14 28.33 10.11 28.36 10.05 28.37C9.76 28.42 9.47 28.47 9.18 28.51C9.1 28.52 9.05 28.58 9.02 28.64C8.99 28.69 8.96 28.71 8.9 28.72C8.37 28.81 7.83 28.89 7.3 28.99C7.21 29.01 7.17 28.96 7.11 28.92C7.02 28.86 6.95 28.81 6.95 28.69C6.95 28.67 6.92 28.65 6.9 28.63C6.77 28.52 6.77 28.52 6.75 28.4C6.74 28.32 6.73 28.25 6.72 28.17C6.7 28.05 6.65 28.02 6.52 28.04C6.47 28.05 6.42 28.06 6.37 28.06C6.3 28.07 6.25 28.02 6.23 27.93C6.22 27.88 6.22 27.83 6.21 27.78C6.28 27.77 6.28 27.77 6.41 27.59C6.46 27.51 6.46 27.51 6.36 27.43C6.32 27.4 6.28 27.37 6.24 27.34C6.22 27.33 6.2 27.32 6.17 27.33C6.05 27.34 5.93 27.37 5.81 27.39C5.62 27.42 5.62 27.42 5.42 27.27C5.41 27.25 5.38 27.23 5.38 27.22C5.4 27.16 5.44 27.14 5.49 27.13C5.56 27.12 5.63 27.11 5.71 27.1C5.75 27.09 5.8 27.08 5.85 27.07C5.9 27.01 5.94 26.96 5.99 26.9C6.05 26.81 6.05 26.8 5.96 26.74C5.9 26.7 5.84 26.66 5.78 26.62C5.71 26.63 5.63 26.65 5.56 26.66C5.47 26.67 5.43 26.64 5.41 26.54C5.39 26.46 5.42 26.38 5.49 26.36C5.56 26.35 5.63 26.33 5.66 26.26C5.7 26.18 5.76 26.15 5.84 26.15C5.88 26.14 5.93 26.13 5.98 26.12C6.04 26.11 6.08 26.03 6.06 25.95C6.06 25.89 6.04 25.84 5.99 25.83C5.73 25.78 5.73 25.78 5.6 25.68C5.59 25.67 5.58 25.64 5.59 25.63C5.59 25.61 5.61 25.57 5.63 25.57C5.8 25.53 5.96 25.5 6.13 25.48C6.19 25.47 6.23 25.46 6.25 25.41C6.28 25.33 6.26 25.26 6.21 25.2C6.2 25.19 6.17 25.17 6.15 25.17C5.96 25.2 5.77 25.23 5.57 25.26C5.56 25.26 5.52 25.23 5.52 25.22C5.5 25.18 5.52 25.13 5.57 25.11C5.64 25.09 5.71 25.09 5.76 25.01C5.82 24.91 5.9 24.81 5.97 24.7C5.98 24.69 6 24.65 5.99 24.65C5.96 24.61 5.91 24.59 5.88 24.56C5.81 24.5 5.81 24.43 5.83 24.36C5.84 24.3 5.88 24.28 5.94 24.28C5.96 24.28 5.99 24.28 6.01 24.26C6.06 24.23 6.07 24.19 6.05 24.16C6.04 24.14 6.01 24.11 5.99 24.12C5.68 24.17 5.36 24.21 5.05 24.28C4.96 24.29 4.91 24.24 4.86 24.2C4.81 24.16 4.78 24.15 4.72 24.17C4.67 24.2 4.62 24.18 4.59 24.13C4.57 24.09 4.61 24.06 4.73 24.02C4.75 24.01 4.78 24.01 4.79 23.99C4.96 23.83 4.96 23.83 5.08 23.8C5.2 23.78 5.2 23.78 5.26 23.7C5.28 23.65 5.32 23.61 5.34 23.57C5.35 23.55 5.37 23.52 5.36 23.51C5.33 23.47 5.29 23.46 5.24 23.47C5.12 23.49 4.99 23.47 4.93 23.62C4.9 23.67 4.87 23.69 4.81 23.7C4.28 23.78 3.75 23.88 3.22 23.96C3.13 23.98 3.09 24.03 3.06 24.09C3.03 24.15 3 24.16 2.94 24.17C2.88 24.18 2.84 24.18 2.81 24.13C2.79 24.1 2.8 24.06 2.85 24.02C2.91 23.96 2.9 23.88 2.88 23.81C2.86 23.76 2.82 23.73 2.77 23.73C2.7 23.74 2.63 23.76 2.57 23.7C2.53 23.66 2.49 23.64 2.45 23.61C2.37 23.54 2.3 23.48 2.19 23.52C2.12 23.51 2.07 23.45 2.01 23.41C1.91 23.34 1.9 23.33 1.97 23.25C2.05 23.17 1.99 23.06 2.03 22.98C2.08 22.89 2.14 22.81 2.2 22.73C2.22 22.71 2.23 22.69 2.24 22.67C2.21 22.64 2.18 22.6 2.14 22.58C2.09 22.55 2.06 22.52 2.06 22.43C2.05 22.41 2.06 22.45 2.07 22.46C2.08 22.47 2.12 22.46 2.13 22.45C2.17 22.42 2.19 22.38 2.18 22.35C2.18 22.33 2.15 22.31 2.13 22.31C2.1 22.31 2.07 22.34 2.06 22.43C1.9 22.49 1.73 22.52 1.56 22.54C1.54 22.55 1.52 22.52 1.5 22.5C1.43 22.45 1.43 22.45 1.23 22.44C1.21 22.43 1.18 22.41 1.17 22.39C1.13 22.3 1.13 22.2 1.11 22.1C1.15 22.03 1.19 21.97 1.23 21.91C1.31 21.78 1.41 21.67 1.47 21.54C1.46 21.46 1.44 21.39 1.5 21.33C1.69 21.25 1.69 21.25 1.74 21.18C1.88 20.97 2.02 20.76 2.17 20.56C2.21 20.51 2.21 20.48 2.14 20.46C2.12 20.45 2.09 20.45 2.07 20.45C2 20.46 1.92 20.49 1.85 20.48C1.78 20.48 1.72 20.41 1.67 20.37C1.61 20.33 1.55 20.28 1.49 20.24C1.42 20.24 1.35 20.29 1.28 20.22C1.23 20.17 1.16 20.13 1.1 20.08C1.14 19.97 1.23 19.88 1.3 19.78C1.36 19.69 1.36 19.69 1.52 19.62C1.6 19.58 1.62 19.41 1.56 19.36C1.48 19.3 1.4 19.25 1.32 19.19C1.25 19.19 1.18 19.23 1.11 19.17C1.06 19.11 1 19.08 0.92 19.1C0.77 19.13 0.63 19.15 0.48 19.18C0.43 19.18 0.38 19.18 0.35 19.13C0.34 19.09 0.38 19.04 0.43 19.03C0.5 19.01 0.57 19 0.61 18.92C0.64 18.85 0.71 18.82 0.78 18.81C0.8 18.81 0.83 18.79 0.84 18.77C0.89 18.68 0.95 18.61 1.06 18.61C1.11 18.58 1.13 18.54 1.12 18.51C1.11 18.49 1.08 18.46 1.06 18.46C0.94 18.48 0.82 18.49 0.7 18.52C0.64 18.53 0.6 18.54 0.57 18.49C0.54 18.46 0.55 18.42 0.6 18.38C0.64 18.34 0.65 18.29 0.65 18.24C0.64 18.12 0.6 18.09 0.46 18.1C0.36 18.1 0.33 18.08 0.31 17.98C0.31 17.95 0.29 17.92 0.3 17.9C0.36 17.8 0.4 17.67 0.52 17.63C0.57 17.61 0.62 17.61 0.65 17.57C0.68 17.53 0.71 17.48 0.74 17.45C0.77 17.4 0.8 17.36 0.78 17.33C0.75 17.28 0.71 17.27 0.65 17.29C0.61 17.31 0.56 17.31 0.51 17.32C0.42 17.33 0.35 17.29 0.34 17.23C0.31 17.05 0.28 16.88 0.26 16.7C0.25 16.68 0.26 16.65 0.27 16.63C0.32 16.57 0.36 16.51 0.4 16.45C0.45 16.38 0.53 16.39 0.6 16.38C0.69 16.36 0.69 16.36 0.82 16.21C0.87 16.15 0.96 16.18 1.01 16.13C1.03 16.11 1.05 16.08 1.05 16.07C1.04 16.05 1.01 16.03 0.99 16.02C0.97 16.01 0.94 16.01 0.92 16.01C0.65 16.06 0.39 16.1 0.12 16.15C0.08 16.15 0.03 16.12 0.01 16.07C-0.01 16.03 0 15.98 0 15.93C0.04 15.86 0.09 15.81 0.12 15.74C0.15 15.69 0.18 15.67 0.24 15.66C0.31 15.66 0.38 15.64 0.47 15.63C0.62 15.41 0.77 15.17 0.93 14.95C1 14.86 0.98 14.77 1 14.68C1.01 14.59 1.11 14.6 1.17 14.58C1.23 14.55 1.24 14.51 1.22 14.47C1.21 14.45 1.19 14.43 1.17 14.43C1.12 14.43 1.07 14.44 1.02 14.45C0.97 14.46 0.92 14.45 0.88 14.48C0.84 14.5 0.81 14.56 0.79 14.6C0.76 14.65 0.72 14.66 0.67 14.67C0.6 14.67 0.52 14.68 0.45 14.7C0.37 14.64 0.29 14.58 0.21 14.52C0.2 14.5 0.2 14.47 0.2 14.45C0.2 14.39 0.18 14.35 0.13 14.32C0.09 14.3 0.06 14.26 0.02 14.23C0.05 14.19 0.08 14.15 0.1 14.11C0.15 14.02 0.22 13.95 0.33 13.95C0.37 13.89 0.41 13.82 0.47 13.78C0.52 13.74 0.61 13.78 0.65 13.69C0.67 13.65 0.71 13.6 0.75 13.58C0.81 13.55 0.89 13.56 0.93 13.48C0.95 13.43 0.98 13.39 1.02 13.37C1.07 13.36 1.12 13.36 1.16 13.33C1.18 13.31 1.2 13.29 1.2 13.27C1.2 13.25 1.17 13.23 1.15 13.22C1.13 13.21 1.1 13.21 1.08 13.21C1.01 13.22 0.94 13.23 0.86 13.24C0.84 13.25 0.82 13.24 0.8 13.23C0.73 13.2 0.74 13.17 0.79 13.12C0.84 13.06 0.88 13 0.92 12.93C0.97 12.92 1.02 12.93 1.06 12.9C1.11 12.85 1.15 12.78 1.19 12.72C1.24 12.72 1.29 12.71 1.34 12.7C1.36 12.69 1.37 12.66 1.38 12.64C1.41 12.6 1.44 12.54 1.48 12.53C1.54 12.5 1.62 12.51 1.66 12.43C1.68 12.38 1.71 12.33 1.75 12.32C1.87 12.32 1.92 12.23 1.98 12.15C2.02 12.1 2.11 12.13 2.16 12.07C2.19 12.03 2.22 11.98 2.25 11.95C2.26 11.93 2.29 11.92 2.31 11.92C2.43 11.9 2.56 11.88 2.68 11.85C2.7 11.85 2.71 11.83 2.73 11.81C2.76 11.77 2.78 11.71 2.82 11.69C2.85 11.66 2.91 11.66 2.96 11.66C3.11 11.63 3.12 11.64 3.19 11.51C3.24 11.41 3.38 11.48 3.43 11.36C3.45 11.3 3.5 11.24 3.59 11.24C3.71 11.22 3.83 11.2 3.95 11.18C4.06 11.16 4.06 11.16 4.18 11.02C4.23 10.95 4.31 10.96 4.38 10.95C4.45 10.94 4.52 10.92 4.55 10.84C4.59 10.77 4.65 10.75 4.73 10.74C4.8 10.72 4.87 10.73 4.93 10.67C5.06 10.53 5.06 10.52 5.15 10.51C5.3 10.48 5.44 10.46 5.59 10.43C5.68 10.42 5.79 10.42 5.88 10.38C5.94 10.36 5.97 10.27 6.01 10.21C6.14 10.19 6.26 10.17 6.38 10.15C6.54 10.12 6.72 10.09 6.89 10.06C6.96 10 6.97 9.88 7.09 9.87C7.17 9.87 7.24 9.85 7.31 9.83C7.43 9.81 7.55 9.79 7.68 9.77C7.77 9.77 7.78 9.69 7.83 9.63C7.85 9.62 7.86 9.59 7.88 9.59C8.07 9.54 8.27 9.53 8.46 9.47C8.48 9.47 8.49 9.43 8.5 9.41C8.5 9.4 8.48 9.38 8.46 9.37C8.44 9.35 8.42 9.34 8.39 9.34C7.79 9.45 7.18 9.55 6.58 9.65C6.49 9.67 6.49 9.66 6.28 9.83C6.27 9.84 6.25 9.86 6.22 9.86C6.13 9.88 6.03 9.89 5.93 9.92C5.85 9.93 5.79 9.92 5.73 9.86C5.69 9.82 5.65 9.81 5.6 9.81C5.55 9.82 5.51 9.83 5.48 9.88C5.44 9.93 5.41 10 5.32 10.02C4.91 10.08 4.5 10.16 4.09 10.23C4.03 10.21 4 10.17 4.02 10.14C4.03 10.11 4.04 10.08 4.06 10.08C4.23 10.05 4.4 10.02 4.57 9.99C4.59 9.99 4.63 9.99 4.64 9.97C4.7 9.91 4.73 9.79 4.85 9.79C4.92 9.78 4.99 9.76 5.06 9.74C5.08 9.73 5.1 9.7 5.1 9.68C5.1 9.67 5.08 9.64 5.06 9.63C5 9.59 4.92 9.64 4.86 9.61C4.83 9.6 4.8 9.59 4.8 9.57C4.8 9.55 4.82 9.52 4.84 9.51C4.85 9.49 4.88 9.48 4.9 9.47C5.09 9.44 5.29 9.4 5.48 9.37C5.56 9.36 5.62 9.33 5.65 9.26C5.68 9.2 5.71 9.18 5.76 9.17C6.1 9.11 6.44 9.05 6.78 9C6.86 8.99 6.91 8.94 6.94 8.87C6.97 8.82 7 8.8 7.06 8.79C7.54 8.71 8.03 8.63 8.51 8.55C8.6 8.54 8.63 8.47 8.67 8.42C8.69 8.4 8.7 8.37 8.72 8.36C8.74 8.35 8.77 8.35 8.79 8.35C9.18 8.28 9.57 8.21 9.96 8.15C10.05 8.14 10.07 8.06 10.11 8.01C10.13 7.99 10.14 7.96 10.16 7.96C10.45 7.91 10.74 7.86 11.04 7.81C11.23 7.78 11.42 7.74 11.62 7.71C11.71 7.7 11.71 7.69 11.84 7.55C11.86 7.53 11.88 7.51 11.9 7.51C12.45 7.41 13.01 7.32 13.57 7.22C13.62 7.22 13.65 7.18 13.67 7.13C13.7 7.08 13.73 7.04 13.78 7.04C14.21 6.96 14.65 6.89 15.09 6.81C15.16 6.8 15.22 6.77 15.26 6.7C15.28 6.65 15.31 6.62 15.36 6.61C15.8 6.54 16.24 6.46 16.67 6.39C16.76 6.38 16.8 6.33 16.84 6.27C16.86 6.24 16.87 6.21 16.88 6.21C17.1 6.16 17.32 6.12 17.54 6.09C17.63 6.08 17.66 6.01 17.7 5.95C17.72 5.91 17.76 5.89 17.81 5.88C17.94 5.87 18.06 5.84 18.18 5.82C18.19 5.81 18.22 5.78 18.22 5.76C18.22 5.72 18.19 5.69 18.13 5.68C17.55 5.78 16.97 5.88 16.38 5.97C16.29 5.99 16.29 5.99 16.16 6.13C16.14 6.15 16.12 6.17 16.1 6.18C15.55 6.27 14.99 6.37 14.43 6.46C14.38 6.47 14.35 6.5 14.33 6.55C14.3 6.61 14.27 6.64 14.22 6.65C13.69 6.74 13.16 6.83 12.62 6.92C12.54 6.93 12.49 6.97 12.45 7.04C12.43 7.09 12.39 7.11 12.34 7.12C11.83 7.21 11.33 7.3 10.82 7.38C10.76 7.39 10.73 7.34 10.73 7.3C10.73 7.28 10.75 7.25 10.77 7.24C11.04 7.19 11.3 7.14 11.57 7.1C11.66 7.09 11.68 7.02 11.73 6.97C11.74 6.95 11.75 6.92 11.77 6.91C11.79 6.9 11.82 6.9 11.85 6.9C12.48 6.79 13.11 6.68 13.74 6.58C13.83 6.56 13.85 6.49 13.89 6.44C13.91 6.42 13.92 6.39 13.94 6.39C14.14 6.35 14.33 6.32 14.52 6.29C14.86 6.23 15.2 6.17 15.54 6.12C15.64 6.1 15.64 6.1 15.77 5.96C15.78 5.94 15.8 5.92 15.82 5.91C16.72 5.76 17.62 5.61 18.51 5.46C18.56 5.45 18.6 5.41 18.62 5.36C18.64 5.31 18.68 5.28 18.72 5.27C19.93 5.06 21.15 4.85 22.36 4.65C22.44 4.64 22.49 4.61 22.53 4.53C22.55 4.48 22.59 4.46 22.64 4.45C23.97 4.22 25.31 3.99 26.64 3.77C27.54 3.62 28.43 3.46 29.33 3.31C29.41 3.3 29.46 3.25 29.5 3.19C29.51 3.17 29.53 3.13 29.54 3.13C29.74 3.09 29.93 3.06 30.12 3.02C30.18 3.06 30.24 3.1 30.3 3.14C30.35 3.09 30.39 3.03 30.44 2.97C30.73 2.93 31.01 2.86 31.31 2.84C31.33 2.83 31.35 2.86 31.37 2.88C31.5 2.97 31.58 2.97 31.67 2.84C31.7 2.79 31.73 2.75 31.77 2.74C31.92 2.72 32.06 2.7 32.21 2.67C32.29 2.65 32.35 2.67 32.41 2.72C32.45 2.76 32.49 2.78 32.54 2.77C32.8 2.72 33.07 2.68 33.34 2.63C33.36 2.63 33.37 2.6 33.39 2.58C33.42 2.54 33.45 2.5 33.47 2.46C33.51 2.49 33.56 2.51 33.59 2.54C33.63 2.58 33.67 2.58 33.73 2.57C34.79 2.38 35.86 2.2 36.93 2.02C37.02 2 37.06 2.07 37.12 2.1C37.14 2.11 37.16 2.13 37.18 2.13C37.2 2.14 37.23 2.13 37.25 2.12C38.05 1.99 38.85 1.85 39.65 1.71C39.76 1.7 39.76 1.7 39.92 1.79C39.94 1.8 39.96 1.82 39.98 1.81C40.35 1.75 40.71 1.69 41.07 1.63C41.12 1.62 41.16 1.64 41.2 1.68C41.29 1.75 41.29 1.75 41.35 1.65C41.38 1.6 41.41 1.57 41.46 1.56C41.51 1.54 41.56 1.55 41.6 1.57C41.66 1.61 41.7 1.68 41.79 1.66C42.18 1.59 42.57 1.53 42.95 1.46C43.04 1.44 43.09 1.49 43.15 1.53C43.17 1.54 43.19 1.56 43.21 1.57C43.23 1.57 43.26 1.56 43.28 1.56C43.76 1.48 44.25 1.4 44.73 1.31C44.82 1.29 44.86 1.36 44.93 1.39C44.95 1.4 44.97 1.42 44.99 1.42C45.28 1.37 45.57 1.32 45.86 1.27C45.97 1.25 45.97 1.26 46.13 1.35C46.14 1.36 46.17 1.37 46.19 1.37C46.53 1.31 46.87 1.26 47.21 1.2C47.31 1.18 47.31 1.18 47.62 1.26C47.64 1.26 47.66 1.27 47.68 1.27C48.07 1.21 48.46 1.14 48.85 1.07C48.93 1.06 48.99 1.07 49.05 1.13C49.08 1.16 49.13 1.18 49.17 1.17C49.61 1.1 50.05 1.03 50.48 0.95C50.57 0.93 50.62 0.97 50.68 1.01C50.7 1.02 50.72 1.05 50.74 1.05C50.76 1.06 50.79 1.05 50.81 1.05C51.25 0.97 51.68 0.9 52.12 0.82C52.21 0.81 52.25 0.86 52.31 0.9C52.33 0.91 52.36 0.94 52.37 0.94C52.54 0.91 52.71 0.89 52.88 0.85C52.97 0.83 53.01 0.9 53.08 0.93C53.1 0.94 53.12 0.96 53.14 0.96C53.5 0.9 53.87 0.84 54.23 0.78C54.28 0.77 54.32 0.78 54.36 0.82C54.41 0.87 54.48 0.89 54.56 0.88C54.73 0.84 54.9 0.82 55.07 0.79C55.17 0.77 55.17 0.77 55.47 0.85C55.49 0.86 55.52 0.87 55.54 0.86C55.83 0.82 56.12 0.77 56.41 0.72C56.49 0.7 56.55 0.71 56.61 0.77C56.65 0.81 56.69 0.82 56.74 0.82C57.01 0.77 57.27 0.72 57.54 0.68C57.64 0.66 57.73 0.63 57.83 0.63C57.9 0.64 57.95 0.71 58.02 0.74C58.03 0.75 58.06 0.74 58.09 0.74C58.42 0.68 58.77 0.63 59.1 0.56C59.19 0.55 59.24 0.6 59.3 0.64C59.32 0.65 59.34 0.68 59.36 0.68C59.48 0.66 59.6 0.64 59.72 0.62C59.87 0.59 60.01 0.57 60.16 0.54C60.28 0.51 60.32 0.65 60.41 0.65C60.49 0.65 60.56 0.63 60.63 0.62C60.78 0.59 60.92 0.57 61.07 0.54C61.12 0.54 61.16 0.51 61.17 0.46C61.18 0.45 61.15 0.42 61.14 0.41C60.94 0.26 60.94 0.26 60.74 0.29C60.62 0.31 60.5 0.33 60.38 0.35C60.36 0.35 60.34 0.34 60.31 0.33C60.26 0.31 60.26 0.28 60.31 0.22C60.36 0.17 60.4 0.1 60.44 0.04C60.5 0.08 60.56 0.12 60.62 0.16C60.67 0.15 60.72 0.14 60.77 0.13C61.01 0.09 61.25 0.05 61.49 0.01C61.51 0.01 61.53 0.04 61.55 0.06C61.61 0.1 61.67 0.14 61.75 0.12C61.97 0.08 62.19 0.05 62.4 0.01C62.5 -0.01 62.5 -0.01 62.67 0.09C62.69 0.1 62.71 0.11 62.73 0.11C62.95 0.07 63.17 0.03 63.39 0C63.43 -0.01 63.48 0.01 63.51 0.05C63.53 0.07 63.52 0.1 63.58 0.35C63.75 0.55 63.87 0.53 63.99 0.51C64.04 0.5 64.09 0.5 64.12 0.47C64.14 0.45 64.16 0.43 64.16 0.41C64.16 0.39 64.13 0.37 64.11 0.36C63.96 0.33 63.83 0.4 63.68 0.41C63.62 0.42 63.56 0.36 63.55 0.28C63.55 0.25 63.54 0.23 63.54 0.2C63.53 0.18 63.53 0.15 63.53 0.13C63.47 0.12 63.43 0.15 63.41 0.2C63.39 0.24 63.36 0.29 63.32 0.31C63.28 0.34 63.23 0.33 63.18 0.34C63.13 0.35 63.08 0.37 63.03 0.36C62.99 0.35 62.96 0.3 62.91 0.27C62.89 0.26 62.87 0.24 62.85 0.24C62.68 0.27 62.52 0.3 62.35 0.33C62.26 0.35 62.22 0.28 62.16 0.24C62.12 0.21 62.07 0.22 62.07 0.29C62.05 0.46 62.11 0.53 62.26 0.5C62.39 0.47 62.5 0.46 62.6 0.57C62.61 0.58 62.64 0.59 62.66 0.58C62.78 0.57 62.9 0.54 63.02 0.52C63.04 0.52 63.06 0.53 63.08 0.53C63.38 0.62 63.38 0.62 63.49 0.6C63.53 0.59 63.58 0.58 63.58 0.35C63.67 0.1 63.82 0.09 63.96 0.05C64.05 0.03 64.09 0.1 64.15 0.13C64.17 0.14 64.19 0.17 64.21 0.16C64.53 0.11 64.84 0.06 65.16 0C65.21 6.1e-5 65.25 0 65.29 0.04C65.34 0.09 65.4 0.13 65.48 0.11C65.65 0.07 65.82 0.05 65.99 0.02C66.08 0 66.08 0 66.25 0.1C66.27 0.11 66.3 0.12 66.32 0.12C66.49 0.09 66.66 0.06 66.83 0.03C66.87 0.02 66.92 0.05 66.95 0.09C66.99 0.13 67.03 0.15 67.08 0.14C67.25 0.11 67.42 0.08 67.59 0.06C67.61 0.05 67.63 0.06 67.65 0.07C67.83 0.17 67.83 0.17 67.91 0.15C68.03 0.13 68.16 0.12 68.28 0.09C68.39 0.06 68.45 0.15 68.53 0.2C68.75 0.16 68.97 0.13 69.18 0.09C69.27 0.07 69.32 0.12 69.38 0.16C69.4 0.17 69.42 0.2 69.44 0.2C69.51 0.2 69.58 0.18 69.65 0.17C69.73 0.15 69.8 0.14 69.87 0.13C69.95 0.17 70.01 0.28 70.13 0.24C70.2 0.22 70.27 0.22 70.34 0.2C70.42 0.19 70.49 0.18 70.56 0.17C70.61 0.16 70.66 0.16 70.71 0.14C70.79 0.12 70.84 0.19 70.9 0.23C70.92 0.24 70.94 0.26 70.96 0.25C71.11 0.23 71.25 0.21 71.39 0.18C71.51 0.15 71.58 0.2 71.66 0.26C71.67 0.27 71.7 0.28 71.72 0.28C71.89 0.25 72.06 0.22 72.23 0.19C72.28 0.19 72.32 0.21 72.36 0.25C72.39 0.29 72.44 0.31 72.48 0.3C72.65 0.28 72.82 0.25 72.99 0.22C73.01 0.21 73.04 0.23 73.06 0.24C73.22 0.33 73.22 0.33 73.32 0.32C73.34 0.31 73.37 0.31 73.39 0.3C73.51 0.28 73.64 0.28 73.75 0.24C73.89 0.2 73.99 0.25 74.08 0.34C74.2 0.32 74.33 0.31 74.44 0.28C74.53 0.25 74.58 0.31 74.64 0.35C74.66 0.36 74.68 0.39 74.7 0.39C74.87 0.36 75.04 0.34 75.21 0.3C75.3 0.28 75.34 0.35 75.4 0.38C75.42 0.4 75.44 0.42 75.46 0.41C75.56 0.4 75.65 0.38 75.75 0.37C75.86 0.35 75.86 0.35 76.01 0.44C76.08 0.48 76.15 0.45 76.22 0.44C76.3 0.43 76.37 0.42 76.42 0.48C76.46 0.52 76.51 0.54 76.55 0.54C76.65 0.52 76.75 0.51 76.84 0.49C76.92 0.47 76.98 0.48 77.04 0.54C77.08 0.58 77.12 0.6 77.17 0.59C77.39 0.55 77.61 0.51 77.82 0.48C77.84 0.48 77.87 0.49 77.89 0.5C77.93 0.53 77.97 0.56 78.01 0.59C78.1 0.58 78.2 0.57 78.29 0.55C78.39 0.53 78.49 0.52 78.56 0.6C78.58 0.62 78.6 0.65 78.62 0.65C78.7 0.64 78.77 0.63 78.84 0.61C78.91 0.6 78.98 0.59 79.06 0.58C79.14 0.62 79.19 0.72 79.31 0.69C79.38 0.67 79.46 0.66 79.53 0.65C79.6 0.64 79.67 0.63 79.75 0.62C79.77 0.61 79.79 0.6 79.82 0.61C79.84 0.62 79.86 0.64 79.88 0.65C79.93 0.7 79.99 0.74 80.07 0.72C80.14 0.69 80.22 0.69 80.29 0.68C80.39 0.66 80.39 0.66 80.55 0.75C80.62 0.79 80.69 0.74 80.76 0.78C80.8 0.8 80.83 0.84 80.88 0.86C80.89 0.87 80.92 0.88 80.94 0.87C81.04 0.86 81.14 0.85 81.23 0.82C81.31 0.81 81.37 0.82 81.43 0.88C81.47 0.92 81.51 0.94 81.56 0.93C81.8 0.88 82.04 0.85 82.28 0.8C82.37 0.78 82.43 0.81 82.48 0.86C82.56 0.96 82.67 0.85 82.75 0.92C82.8 0.97 82.85 1.02 82.94 1C83.1 0.96 83.28 0.94 83.44 0.91C83.5 0.96 83.56 1 83.63 1.04C83.72 1.02 83.82 1 83.92 0.99C83.99 0.98 84.06 0.96 84.13 0.95C84.16 0.95 84.18 0.94 84.21 0.95C84.23 0.96 84.24 0.98 84.27 0.99C84.37 1.07 84.37 1.07 84.53 1.04C84.61 1.02 84.67 1.02 84.74 1.08C84.79 1.13 84.86 1.14 84.93 1.13C85.08 1.1 85.22 1.07 85.37 1.05C85.41 1.04 85.46 1.07 85.5 1.11C85.55 1.17 85.62 1.17 85.7 1.15C85.79 1.13 85.89 1.11 85.97 1.19C85.98 1.21 86.01 1.24 86.02 1.23C86.14 1.22 86.27 1.21 86.38 1.18C86.5 1.16 86.56 1.25 86.64 1.29C86.76 1.28 86.88 1.26 87 1.24C87.03 1.23 87.05 1.22 87.07 1.23C87.16 1.26 87.21 1.37 87.33 1.34C87.4 1.32 87.47 1.31 87.55 1.31C87.56 1.3 87.59 1.33 87.6 1.35C87.61 1.36 87.6 1.39 87.59 1.4C87.57 1.45 87.54 1.49 87.51 1.53C87.51 1.54 87.54 1.56 87.55 1.58C87.59 1.6 87.64 1.6 87.69 1.59C87.74 1.58 87.78 1.6 87.82 1.64C87.83 1.66 87.83 1.69 87.8 1.79C87.8 1.87 87.83 1.83 87.84 1.78C87.85 1.71 87.82 1.69 87.76 1.73C87.72 1.76 87.7 1.8 87.71 1.83C87.72 1.84 87.75 1.87 87.8 1.79C87.93 1.7 88.02 1.68 88.12 1.67C88.14 1.66 88.17 1.65 88.19 1.66C88.26 1.69 88.31 1.74 88.38 1.78C88.45 1.77 88.51 1.75 88.58 1.8C88.68 1.89 88.68 1.88 88.78 1.86C88.83 1.85 88.87 1.85 88.92 1.84C88.97 1.83 89.01 1.85 89.05 1.89C89.14 1.96 89.14 1.96 89.2 1.86C89.24 1.8 89.26 1.78 89.3 1.81C89.44 1.9 89.44 1.91 89.57 1.88C89.66 1.86 89.76 1.85 89.83 1.94C89.88 2 89.9 1.99 89.94 1.92C90.04 1.76 90.09 1.76 90.29 1.88C90.38 1.94 90.48 1.88 90.57 1.87C90.65 1.86 90.71 1.9 90.71 1.99C90.72 2.05 90.73 2.1 90.78 2.12C90.8 2.12 90.83 2.13 90.85 2.13C90.97 2.11 91.09 2.09 91.21 2.07C91.28 2.06 91.31 1.99 91.3 1.89C91.28 1.79 91.31 1.76 91.4 1.73C91.45 1.71 91.49 1.72 91.53 1.74C91.58 1.77 91.57 1.8 91.53 1.85C91.43 1.99 91.44 2.07 91.57 2.16C91.61 2.19 91.65 2.22 91.66 2.27C91.66 2.29 91.66 2.33 91.67 2.34C91.74 2.45 91.84 2.51 91.95 2.56C92.06 2.52 92.13 2.59 92.22 2.64C92.28 2.68 92.36 2.65 92.43 2.63C92.5 2.62 92.57 2.63 92.62 2.68C92.66 2.72 92.71 2.74 92.75 2.73C92.85 2.72 92.95 2.71 93.04 2.68C93.13 2.66 93.19 2.69 93.24 2.74C93.3 2.81 93.38 2.76 93.44 2.77C93.53 2.78 93.58 2.92 93.7 2.88C93.77 2.86 93.84 2.85 93.92 2.85C93.94 2.85 93.96 2.87 93.98 2.89C94.05 2.97 94.14 2.97 94.24 2.95C94.31 2.93 94.38 2.91 94.45 2.97C94.56 3.07 94.68 3.15 94.8 3.24C94.82 3.31 94.8 3.39 94.89 3.43C94.93 3.46 94.97 3.49 95.01 3.52C95.05 3.56 95.09 3.57 95.14 3.56C95.24 3.54 95.33 3.54 95.43 3.51C95.52 3.49 95.57 3.54 95.62 3.58C95.67 3.62 95.71 3.64 95.76 3.61C95.81 3.59 95.85 3.6 95.89 3.64C95.95 3.7 95.95 3.69 96.15 3.71C96.18 3.71 96.2 3.74 96.21 3.76C96.22 3.77 96.2 3.8 96.19 3.81C96.18 3.83 96.16 3.85 96.14 3.86C95.92 3.89 95.71 3.93 95.49 3.97C95.47 3.97 95.44 3.98 95.43 4C95.41 4.02 95.39 4.04 95.39 4.06C95.39 4.08 95.42 4.09 95.44 4.1C95.5 4.14 95.58 4.09 95.64 4.13C95.68 4.15 95.72 4.19 95.76 4.21C95.78 4.22 95.81 4.22 95.83 4.22C95.9 4.21 95.97 4.19 96.05 4.18C96.07 4.18 96.09 4.2 96.11 4.21C96.25 4.3 96.25 4.3 96.37 4.28C96.42 4.27 96.47 4.25 96.52 4.26C96.56 4.27 96.6 4.31 96.64 4.33C96.72 4.39 96.8 4.44 96.81 4.56C96.81 4.61 96.86 4.65 96.91 4.65C96.95 4.65 97 4.63 97.05 4.63C97.17 4.61 97.17 4.61 97.31 4.7C97.36 4.73 97.4 4.73 97.45 4.71C97.47 4.71 97.5 4.71 97.52 4.72C97.59 4.74 97.59 4.77 97.55 4.83C97.48 4.91 97.48 4.92 97.67 4.98C97.74 5.01 97.79 5.06 97.85 5.1C97.95 5.17 97.95 5.17 97.88 5.26C97.87 5.28 97.86 5.3 97.84 5.32C97.8 5.38 97.77 5.44 97.68 5.45C97.58 5.46 97.48 5.48 97.39 5.5C97.29 5.51 97.27 5.55 97.28 5.65C97.29 5.78 97.31 5.79 97.47 5.79C97.52 5.79 97.57 5.8 97.6 5.84C97.58 5.89 97.55 5.93 97.51 5.94C97.39 5.96 97.26 5.98 97.14 6C97.05 6.02 96.95 6.03 96.85 6.05C96.79 6.06 96.75 6.14 96.77 6.23C96.78 6.28 96.79 6.33 96.79 6.38C96.81 6.48 96.84 6.5 96.94 6.5C96.96 6.5 96.99 6.49 97.01 6.49C97.11 6.5 97.15 6.62 97.27 6.6C97.36 6.58 97.46 6.57 97.56 6.55C97.64 6.52 97.69 6.58 97.75 6.62C97.77 6.63 97.79 6.66 97.81 6.66C97.93 6.64 98.05 6.62 98.17 6.6C98.23 6.58 98.26 6.59 98.31 6.63C98.41 6.72 98.42 6.71 98.57 6.69C98.69 6.66 98.69 6.67 98.84 6.76C98.88 6.79 98.92 6.79 98.97 6.77C99.04 6.76 99.12 6.73 99.19 6.76C99.21 6.76 99.24 6.78 99.24 6.8C99.25 6.81 99.23 6.85 99.21 6.86C99.08 6.94 98.93 6.92 98.79 6.96C98.75 6.96 98.7 6.94 98.66 6.89C98.63 6.85 98.58 6.84 98.54 6.84C98.44 6.86 98.34 6.87 98.24 6.9C98.16 6.92 98.1 6.88 98.05 6.84C98.03 6.82 98.01 6.79 97.99 6.79C97.77 6.82 97.55 6.85 97.33 6.9C97.25 6.91 97.2 6.87 97.14 6.82C97.12 6.81 97.1 6.78 97.08 6.78C97.01 6.79 96.93 6.81 96.86 6.82C96.59 6.86 96.33 6.91 96.06 6.95C96.04 6.96 96.02 6.92 96 6.91C95.96 6.88 95.92 6.86 95.88 6.83C95.81 6.84 95.73 6.86 95.66 6.87C95.61 6.87 95.56 6.89 95.55 6.95C95.55 6.99 95.6 7.03 95.65 7.02C95.7 7.02 95.75 7 95.79 7.02C95.99 7.12 95.99 7.12 96.12 7.1C96.23 7.08 96.22 7.07 96.32 7.15C96.36 7.19 96.4 7.21 96.45 7.2C96.57 7.18 96.69 7.16 96.81 7.14C96.83 7.13 96.86 7.15 96.88 7.16C97.02 7.25 97.02 7.26 97.14 7.23C97.29 7.21 97.3 7.2 97.4 7.29C97.48 7.35 97.54 7.31 97.61 7.31C97.69 7.37 97.78 7.42 97.85 7.49C97.93 7.57 98.02 7.55 98.12 7.53C98.19 7.51 98.26 7.51 98.32 7.57C98.38 7.63 98.45 7.63 98.52 7.62C98.59 7.6 98.66 7.57 98.73 7.61C98.75 7.62 98.78 7.64 98.78 7.65C98.78 7.67 98.76 7.7 98.74 7.71C98.61 7.78 98.46 7.77 98.31 7.8C98.3 7.81 98.27 7.79 98.25 7.78C98.21 7.75 98.17 7.72 98.13 7.69C98.06 7.7 97.99 7.7 97.91 7.72C97.86 7.73 97.82 7.73 97.78 7.7C97.74 7.66 97.7 7.62 97.66 7.61C97.62 7.6 97.56 7.62 97.52 7.63C97.47 7.64 97.41 7.64 97.37 7.66C97.33 7.69 97.31 7.74 97.29 7.78C97.26 7.83 97.22 7.84 97.16 7.85C97.11 7.85 97.07 7.85 97.03 7.8C97.02 7.79 97 7.77 96.97 7.76C96.95 7.75 96.93 7.73 96.91 7.74C96.69 7.77 96.47 7.81 96.26 7.85C96.15 7.86 96.15 7.86 95.92 7.77C95.9 7.77 95.88 7.76 95.86 7.76C95.73 7.78 95.61 7.8 95.49 7.82C95.37 7.84 95.37 7.84 95.16 7.74C95.12 7.72 95.07 7.75 95.02 7.75C94.93 7.74 94.88 7.61 94.77 7.63C94.67 7.66 94.57 7.66 94.48 7.69C94.39 7.71 94.34 7.66 94.28 7.62C94.26 7.6 94.24 7.57 94.22 7.58C94 7.61 93.78 7.65 93.49 7.65C93.42 7.65 93.45 7.68 93.5 7.7C93.57 7.71 93.59 7.68 93.55 7.62C93.53 7.58 93.49 7.56 93.46 7.57C93.44 7.57 93.42 7.6 93.49 7.65C93.57 7.71 93.57 7.74 93.58 7.76C93.61 7.8 93.66 7.82 93.7 7.82C93.78 7.81 93.85 7.79 93.92 7.78C93.94 7.78 93.97 7.79 93.99 7.8C94.15 7.9 94.15 7.9 94.32 7.87C94.38 7.85 94.42 7.85 94.46 7.88C94.52 7.92 94.56 7.99 94.65 7.97C94.77 7.94 94.89 7.92 95.01 7.91C95.03 7.9 95.05 7.93 95.07 7.94C95.13 7.98 95.18 8.05 95.27 8.02C95.34 8 95.41 7.99 95.48 7.99C95.5 7.98 95.53 8.01 95.54 8.03C95.56 8.06 95.54 8.1 95.49 8.13C95.47 8.14 95.44 8.14 95.42 8.15C95.32 8.16 95.22 8.18 95.12 8.19C95.07 8.2 95.03 8.22 95.02 8.28C95.02 8.32 95.07 8.35 95.12 8.35C95.19 8.34 95.26 8.33 95.33 8.31C95.46 8.28 95.57 8.29 95.67 8.38C95.74 8.45 95.74 8.43 95.81 8.62C95.83 8.67 95.89 8.68 95.94 8.68C96.06 8.67 96.12 8.69 96.11 8.74C96.09 8.8 96.05 8.81 96 8.82C95.9 8.83 95.8 8.85 95.71 8.87C95.68 8.87 95.66 8.88 95.63 8.88C95.61 8.88 95.59 8.86 95.57 8.85C95.53 8.82 95.5 8.77 95.45 8.76C95.41 8.75 95.36 8.77 95.31 8.78C95.26 8.79 95.21 8.81 95.16 8.8C95.12 8.79 95.08 8.75 95.04 8.72C95.02 8.71 95 8.68 94.98 8.69C94.88 8.7 94.79 8.72 94.69 8.73C94.57 8.75 94.57 8.75 94.43 8.66C94.39 8.63 94.34 8.63 94.29 8.64C94.17 8.67 94.17 8.66 93.96 8.58C93.94 8.57 93.91 8.56 93.89 8.56C93.67 8.6 93.45 8.63 93.24 8.67C93.05 8.7 93.05 8.7 92.95 8.85C92.87 8.97 92.87 8.97 92.94 9.02C93 9.06 93.06 9.12 93.12 9.15C93.19 9.17 93.26 9.1 93.33 9.17C93.36 9.2 93.41 9.24 93.45 9.25C93.52 9.25 93.59 9.21 93.66 9.28C93.69 9.31 93.74 9.35 93.78 9.35C93.85 9.35 93.92 9.33 93.99 9.32C94.02 9.31 94.04 9.31 94.06 9.32C94.08 9.33 94.1 9.35 94.12 9.36C94.18 9.41 94.24 9.44 94.32 9.41C94.45 9.37 94.56 9.39 94.65 9.49C94.67 9.5 94.7 9.5 94.72 9.5C94.77 9.48 94.82 9.48 94.86 9.51C94.87 9.52 94.9 9.54 94.89 9.56C94.89 9.58 94.87 9.61 94.85 9.62C94.72 9.67 94.57 9.67 94.42 9.7C94.41 9.71 94.38 9.69 94.36 9.67C94.32 9.64 94.29 9.6 94.24 9.59C94.2 9.58 94.15 9.6 94.1 9.61C94.05 9.61 94 9.64 93.95 9.63C93.91 9.62 93.87 9.58 93.83 9.54C93.79 9.51 93.75 9.5 93.7 9.52C93.63 9.54 93.56 9.54 93.48 9.55C93.44 9.52 93.4 9.49 93.36 9.46C93.34 9.45 93.32 9.43 93.3 9.43C93.2 9.45 93.11 9.46 93.01 9.48C92.91 9.5 92.91 9.5 92.75 9.4C92.73 9.39 92.7 9.38 92.68 9.38C92.56 9.4 92.44 9.42 92.32 9.44C92.27 9.45 92.23 9.43 92.19 9.39C92.15 9.35 92.11 9.32 92.06 9.33C91.87 9.36 91.68 9.39 91.48 9.43C91.41 9.45 91.34 9.43 91.29 9.38C91.22 9.32 91.16 9.33 91.08 9.34C90.92 9.37 90.92 9.37 90.81 9.3C90.79 9.28 90.77 9.25 90.75 9.25C90.59 9.28 90.42 9.3 90.25 9.33C90.16 9.35 90.11 9.3 90.05 9.26C90.03 9.25 90.01 9.22 89.99 9.22C89.87 9.24 89.75 9.25 89.63 9.28C89.51 9.31 89.47 9.17 89.38 9.17C89.26 9.18 89.13 9.21 89.01 9.23C88.92 9.25 88.82 9.27 88.72 9.28C88.63 9.3 88.53 9.31 88.43 9.33C88.38 9.34 88.34 9.33 88.3 9.29C88.25 9.24 88.18 9.2 88.12 9.16C88.03 9.09 88.03 9.09 87.92 9.11C87.9 9.11 87.88 9.12 87.85 9.12C87.68 9.15 87.68 9.15 87.45 9.06C87.44 9.05 87.41 9.07 87.4 9.08C87.37 9.12 87.34 9.16 87.32 9.2C87.28 9.18 87.23 9.17 87.2 9.13C87.13 9.03 87.01 9.17 86.93 9.07C86.9 9.03 86.86 9 86.81 8.99C86.77 8.98 86.71 9 86.67 9.01C86.55 9.04 86.55 9.03 86.44 9.17C86.39 9.24 86.31 9.22 86.24 9.24C86.17 9.26 86.1 9.27 86.04 9.2C85.99 9.15 85.92 9.13 85.84 9.15C85.75 9.17 85.65 9.19 85.55 9.2C85.53 9.2 85.51 9.2 85.49 9.19C85.26 9.1 85.26 9.1 85.15 9.12C85.11 9.13 85.06 9.13 85.01 9.14C84.93 9.17 84.87 9.13 84.81 9.09C84.79 9.07 84.77 9.04 84.75 9.04C84.65 9.05 84.56 9.07 84.46 9.08C84.39 9.09 84.32 9.1 84.25 9.12C84.13 9.15 84.07 9.05 83.99 9.01C83.87 9.03 83.75 9.04 83.63 9.07C83.57 9.08 83.54 9.08 83.49 9.04C83.44 8.99 83.39 8.94 83.3 8.96C83.18 9 83.06 9.01 82.94 9.02C82.86 8.98 82.8 8.88 82.68 8.92C82.61 8.94 82.54 8.94 82.47 8.95C82.37 8.97 82.27 8.99 82.18 9C82.07 9.02 82.07 9.02 81.91 8.93C81.82 8.88 81.72 8.93 81.63 8.94C81.56 8.95 81.52 9.02 81.54 9.11C81.56 9.2 81.52 9.27 81.45 9.28C81.28 9.31 81.11 9.34 80.94 9.37C80.92 9.37 80.89 9.36 80.88 9.35C80.7 9.25 80.7 9.25 80.61 9.27C80.49 9.29 80.37 9.3 80.25 9.33C80.17 9.35 80.11 9.32 80.06 9.27C80.01 9.23 79.98 9.22 79.92 9.23C79.34 9.33 78.76 9.42 78.18 9.53C78.09 9.54 78.04 9.5 77.99 9.46C77.97 9.45 77.95 9.42 77.93 9.42C77.88 9.42 77.83 9.43 77.78 9.44C77.56 9.48 77.35 9.52 77.13 9.55C77.03 9.56 77.01 9.63 76.97 9.69C76.94 9.73 76.9 9.75 76.85 9.76C76.8 9.76 76.76 9.75 76.72 9.71C76.66 9.66 76.6 9.63 76.52 9.65C76.43 9.68 76.33 9.69 76.23 9.7C76.18 9.71 76.14 9.74 76.13 9.79C76.12 9.8 76.15 9.82 76.17 9.84C76.23 9.88 76.29 9.94 76.35 9.97C76.42 10 76.49 9.96 76.56 9.96C76.59 9.95 76.61 9.94 76.64 9.94C76.66 9.95 76.68 9.95 76.7 9.97C76.78 10.04 76.86 10.08 76.96 10.04C77.05 10.06 77.1 10.19 77.22 10.15C77.29 10.13 77.36 10.13 77.43 10.12C77.45 10.12 77.47 10.14 77.5 10.16C77.55 10.2 77.6 10.26 77.69 10.23C77.78 10.2 77.88 10.2 77.98 10.18C78.03 10.16 78.07 10.18 78.11 10.21C78.16 10.26 78.22 10.3 78.31 10.28C78.38 10.26 78.45 10.25 78.52 10.24C78.62 10.22 78.62 10.22 78.78 10.32C78.8 10.33 78.83 10.34 78.85 10.34C78.97 10.32 79.09 10.3 79.21 10.28C79.26 10.27 79.31 10.29 79.34 10.33C79.35 10.35 79.35 10.38 79.35 10.41C79.11 10.45 78.87 10.48 78.63 10.53C78.54 10.55 78.49 10.49 78.43 10.46C78.41 10.45 78.39 10.42 78.37 10.42C78.2 10.45 78.03 10.48 77.86 10.51C77.81 10.52 77.77 10.51 77.73 10.47C77.63 10.35 77.51 10.42 77.39 10.43C77.3 10.45 77.28 10.49 77.29 10.59C77.3 10.71 77.35 10.75 77.49 10.73C77.54 10.72 77.58 10.71 77.63 10.7C77.68 10.7 77.72 10.72 77.76 10.76C77.8 10.8 77.84 10.82 77.89 10.81C77.98 10.8 78.08 10.79 78.18 10.76C78.25 10.74 78.32 10.76 78.37 10.82C78.43 10.88 78.5 10.86 78.57 10.85C78.74 10.82 78.74 10.82 78.84 10.9C78.86 10.91 78.88 10.94 78.9 10.94C79.07 10.92 79.24 10.9 79.41 10.86C79.5 10.84 79.55 10.89 79.6 10.93C79.62 10.94 79.64 10.97 79.66 10.97C79.78 10.95 79.91 10.94 80.03 10.91C80.08 10.9 80.12 10.9 80.16 10.94C80.27 11.03 80.27 11.03 80.43 11C80.47 10.99 80.52 10.97 80.57 10.99C80.61 11 80.65 11.04 80.69 11.07C80.71 11.08 80.73 11.1 80.75 11.09C80.85 11.08 80.95 11.06 81.04 11.05C81.13 11.03 81.13 11.03 81.3 11.13C81.37 11.17 81.45 11.13 81.51 11.12C81.59 11.11 81.66 11.11 81.71 11.17C81.77 11.22 81.84 11.22 81.91 11.21C81.98 11.2 82.05 11.16 82.12 11.21C82.29 11.3 82.29 11.3 82.39 11.28C82.53 11.26 82.67 11.23 82.82 11.21C82.84 11.21 82.87 11.22 82.88 11.24C82.93 11.26 82.96 11.31 83.01 11.32C83.05 11.33 83.1 11.31 83.15 11.31C83.3 11.28 83.31 11.27 83.41 11.37C83.5 11.45 83.6 11.33 83.68 11.42C83.73 11.48 83.79 11.52 83.87 11.49C83.94 11.47 84.02 11.47 84.09 11.45C84.21 11.43 84.21 11.44 84.35 11.53C84.37 11.54 84.4 11.55 84.42 11.55C84.51 11.54 84.61 11.53 84.71 11.5C84.82 11.47 84.89 11.53 84.97 11.58C85.03 11.63 85.11 11.59 85.18 11.58C85.25 11.56 85.32 11.56 85.38 11.62C85.44 11.68 85.5 11.68 85.58 11.66C85.65 11.65 85.72 11.62 85.79 11.66C85.94 11.76 85.94 11.76 86.05 11.74C86.15 11.72 86.24 11.7 86.34 11.69C86.36 11.69 86.38 11.71 86.4 11.72C86.44 11.75 86.48 11.79 86.52 11.8C86.57 11.81 86.62 11.8 86.67 11.79C86.71 11.78 86.77 11.76 86.81 11.77C86.85 11.78 86.9 11.81 86.93 11.85C86.97 11.89 87.01 11.89 87.07 11.88C87.14 11.86 87.21 11.85 87.28 11.84C87.32 11.87 87.36 11.9 87.4 11.93C87.44 11.96 87.48 11.96 87.54 11.95C87.72 11.91 87.72 11.92 87.87 12.01C87.94 12.05 88.01 12.02 88.08 12.01C88.15 12 88.22 11.99 88.28 12.05C88.34 12.11 88.41 12.12 88.48 12.1C88.53 12.09 88.58 12.08 88.62 12.07C88.65 12.07 88.67 12.08 88.69 12.09C88.77 12.15 88.84 12.21 88.95 12.17C89.04 12.18 89.09 12.31 89.2 12.28C89.3 12.26 89.4 12.26 89.49 12.23C89.58 12.21 89.64 12.25 89.69 12.3C89.77 12.4 89.88 12.27 89.96 12.36C90 12.41 90.06 12.46 90.15 12.43C90.25 12.41 90.28 12.44 90.3 12.54C90.32 12.59 90.32 12.64 90.29 12.68C90.26 12.72 90.23 12.71 90.18 12.66C90.12 12.61 90.06 12.6 89.98 12.61C89.91 12.62 89.86 12.54 89.8 12.51C89.73 12.48 89.66 12.53 89.59 12.49C89.44 12.4 89.44 12.4 89.33 12.42C89.26 12.43 89.18 12.43 89.11 12.46C89.03 12.48 88.97 12.43 88.92 12.39C88.9 12.38 88.88 12.35 88.86 12.35C88.69 12.37 88.52 12.39 88.35 12.43C88.26 12.45 88.22 12.4 88.16 12.36C88.14 12.34 88.12 12.32 88.1 12.32C87.95 12.34 87.81 12.37 87.66 12.39C87.64 12.44 87.6 12.47 87.58 12.52C87.55 12.56 87.51 12.58 87.46 12.58C87.36 12.58 87.27 12.65 87.18 12.57C87.08 12.48 87.08 12.49 86.98 12.51C86.87 12.53 86.74 12.53 86.63 12.59C86.61 12.6 86.59 12.63 86.59 12.65C86.59 12.66 86.62 12.68 86.64 12.69C86.71 12.73 86.78 12.68 86.85 12.71C86.89 12.74 86.92 12.78 86.97 12.8C86.98 12.81 87.01 12.81 87.03 12.81C87.06 12.81 87.08 12.8 87.11 12.8C87.13 12.8 87.15 12.81 87.17 12.82C87.25 12.88 87.33 12.93 87.41 13C87.48 13.07 87.54 13.02 87.61 13.02C87.9 13.13 87.9 13.13 88.08 13.09C88.13 13.09 88.18 13.08 88.23 13.08C88.25 13.08 88.27 13.11 88.29 13.12C88.35 13.17 88.4 13.21 88.49 13.18C88.56 13.16 88.63 13.16 88.7 13.14C88.8 13.13 88.8 13.13 88.96 13.22C89.01 13.25 89.05 13.24 89.1 13.23C89.15 13.22 89.2 13.24 89.23 13.29C89.24 13.31 89.24 13.34 89.24 13.36C89.1 13.39 88.95 13.4 88.81 13.44C88.72 13.46 88.68 13.4 88.62 13.36C88.59 13.35 88.57 13.32 88.55 13.33C88.41 13.35 88.27 13.38 88.12 13.41C88.1 13.41 88.08 13.44 88.08 13.47C88.08 13.5 88.11 13.54 88.17 13.54C88.24 13.54 88.31 13.51 88.37 13.58C88.42 13.63 88.49 13.65 88.57 13.63C88.61 13.62 88.66 13.62 88.71 13.6C88.84 13.57 88.95 13.58 89.04 13.68C89.11 13.71 89.18 13.68 89.25 13.67C89.31 13.66 89.35 13.65 89.39 13.67C89.47 13.74 89.55 13.8 89.65 13.75C89.77 13.8 89.86 13.89 89.95 13.96C90 13.99 90.04 14.01 90.09 13.99C90.11 13.98 90.14 13.98 90.16 13.98C90.21 13.97 90.26 13.95 90.3 13.96C90.35 13.97 90.38 14.01 90.42 14.04C90.44 14.05 90.47 14.07 90.48 14.07C90.56 14.07 90.63 14.05 90.7 14.04C90.77 14.03 90.85 14.02 90.92 14.01C90.98 14.05 91.04 14.09 91.1 14.12C91.2 14.11 91.29 14.09 91.39 14.08C91.5 14.06 91.5 14.06 91.65 14.15C91.72 14.2 91.79 14.17 91.86 14.15C91.97 14.12 92.04 14.18 92.12 14.24C92.14 14.25 92.17 14.26 92.18 14.25C92.26 14.23 92.33 14.24 92.38 14.3C92.42 14.34 92.46 14.36 92.51 14.35C92.68 14.32 92.85 14.29 93.02 14.27C93.04 14.26 93.06 14.28 93.08 14.29C93.23 14.38 93.23 14.39 93.34 14.36C93.44 14.34 93.53 14.33 93.61 14.41C93.63 14.43 93.65 14.46 93.67 14.46C93.79 14.44 93.91 14.43 94.03 14.4C94.08 14.39 94.12 14.39 94.16 14.43C94.22 14.47 94.27 14.52 94.36 14.5C94.6 14.45 94.61 14.46 94.9 14.56C94.92 14.57 94.95 14.56 94.97 14.55C95.02 14.54 95.06 14.56 95.1 14.59C95.2 14.67 95.2 14.67 95.3 14.65C95.37 14.64 95.45 14.63 95.52 14.61C95.62 14.58 95.7 14.64 95.78 14.69C95.84 14.74 95.92 14.7 95.99 14.69C96.06 14.67 96.13 14.68 96.18 14.73C96.22 14.77 96.26 14.79 96.31 14.79C96.48 14.76 96.65 14.73 96.82 14.7C96.84 14.7 96.86 14.71 96.88 14.72C97.05 14.82 97.05 14.82 97.22 14.78C97.27 14.77 97.31 14.77 97.35 14.8C97.39 14.83 97.43 14.86 97.47 14.89C97.54 14.88 97.62 14.88 97.69 14.86C97.74 14.85 97.78 14.85 97.82 14.88C97.88 14.92 97.93 15 98.01 14.96C98.06 14.94 98.11 14.95 98.16 14.93C98.21 14.91 98.25 14.93 98.29 14.97C98.34 15.01 98.4 15.06 98.48 15.04C98.58 15.01 98.68 15 98.77 14.98C98.83 14.97 98.86 14.98 98.91 15.02C98.96 15.07 99.02 15.1 99.1 15.09C99.27 15.05 99.27 15.05 99.43 15.15C99.47 15.17 99.52 15.17 99.57 15.16C99.62 15.15 99.66 15.17 99.7 15.22C99.73 15.26 99.72 15.29 99.73 15.32ZM86.64 1.64C86.59 1.65 86.54 1.66 86.47 1.53C86.47 1.5 86.47 1.48 86.46 1.46C86.44 1.41 86.4 1.39 86.36 1.38C86.28 1.38 86.18 1.43 86.18 1.47C86.18 1.5 86.21 1.53 86.26 1.56C86.28 1.57 86.29 1.58 86.31 1.6C86.37 1.63 86.41 1.7 86.49 1.66C86.49 1.72 86.51 1.76 86.56 1.78C86.58 1.78 86.6 1.78 86.61 1.77C86.66 1.74 86.66 1.69 86.63 1.57C86.62 1.59 86.63 1.63 86.64 1.64C86.65 1.65 86.69 1.64 86.7 1.63C86.74 1.6 86.76 1.56 86.75 1.53C86.75 1.51 86.72 1.49 86.7 1.49C86.67 1.49 86.64 1.53 86.64 1.64ZM98.51 19.23C98.41 19.26 98.28 19.25 98.18 19.31C98.16 19.32 98.14 19.35 98.14 19.37C98.14 19.38 98.16 19.4 98.18 19.41C98.22 19.44 98.27 19.43 98.32 19.42C98.4 19.41 98.44 19.48 98.5 19.51C98.52 19.52 98.55 19.53 98.57 19.53C98.68 19.51 98.8 19.49 98.92 19.47C98.94 19.47 98.96 19.45 98.98 19.44C99.04 19.4 99.03 19.37 98.98 19.33C98.91 19.3 98.86 19.24 98.8 19.21C98.71 19.17 98.61 19.22 98.51 19.23ZM90.17 20.34C90.1 20.35 90.03 20.36 89.96 20.37C89.94 20.38 89.91 20.38 89.89 20.39C89.84 20.4 89.81 20.43 89.79 20.48C89.82 20.52 89.86 20.54 89.91 20.54C89.98 20.53 90.05 20.51 90.12 20.5C90.2 20.5 90.25 20.56 90.31 20.6C90.33 20.61 90.35 20.61 90.37 20.61C90.48 20.62 90.55 20.54 90.53 20.43C90.51 20.34 90.46 20.29 90.39 20.3C90.32 20.31 90.25 20.33 90.17 20.34ZM99.02 16.99C99.03 16.96 99.05 16.94 99.06 16.92C99.09 16.84 99.08 16.79 99.03 16.73C98.97 16.65 98.9 16.7 98.83 16.71C98.82 16.71 98.8 16.74 98.79 16.76C98.78 16.78 98.78 16.81 98.79 16.81C98.87 16.87 98.94 16.93 99.02 16.99ZM86.28 12.51C86.21 12.52 86.13 12.53 86.06 12.55C86.05 12.55 86.03 12.58 86.02 12.6C86 12.64 86.02 12.69 86.08 12.69C86.15 12.7 86.22 12.67 86.29 12.66C86.39 12.64 86.44 12.59 86.41 12.54C86.37 12.49 86.33 12.48 86.28 12.51ZM8.97 9.27C9.02 9.26 9.07 9.25 9.12 9.24C9.16 9.23 9.2 9.2 9.22 9.15C9.18 9.11 9.14 9.09 9.09 9.09C9.02 9.1 8.95 9.11 8.88 9.13C8.84 9.14 8.79 9.17 8.78 9.22C8.77 9.26 8.87 9.29 8.97 9.27ZM80.07 9.03C80.09 9.05 80.1 9.07 80.12 9.07C80.17 9.07 80.22 9.07 80.26 9.05C80.28 9.04 80.3 9.02 80.31 9C80.31 8.98 80.31 8.96 80.3 8.95C80.26 8.87 80.09 8.9 80.06 8.98C80.06 9 80.07 9.02 80.07 9.03ZM75.43 0.73C75.44 0.75 75.44 0.78 75.45 0.8C75.46 0.85 75.49 0.88 75.54 0.9C75.57 0.86 75.59 0.82 75.59 0.78C75.59 0.75 75.58 0.73 75.58 0.7C75.57 0.66 75.53 0.62 75.49 0.6C75.45 0.64 75.43 0.68 75.43 0.73ZM102.41 20.6C102.4 20.62 102.38 20.64 102.37 20.66C102.41 20.7 102.45 20.72 102.47 20.69C102.49 20.68 102.5 20.65 102.52 20.63C102.48 20.59 102.44 20.58 102.41 20.6ZM101.5 20.81C101.52 20.82 101.53 20.84 101.55 20.85C101.59 20.86 101.62 20.84 101.64 20.78C101.62 20.77 101.61 20.75 101.59 20.74C101.55 20.73 101.52 20.75 101.5 20.81ZM102.08 20.53C102.07 20.57 102.09 20.6 102.14 20.62C102.15 20.6 102.17 20.58 102.18 20.56C102.19 20.53 102.17 20.5 102.12 20.47C102.1 20.49 102.09 20.51 102.08 20.53ZM98.98 18.9C98.97 18.93 98.99 18.96 99.04 18.99C99.05 18.97 99.07 18.95 99.08 18.93C99.09 18.89 99.07 18.86 99.02 18.84C99 18.86 98.99 18.88 98.98 18.9ZM94.75 8.16C94.74 8.18 94.73 8.2 94.71 8.22C94.75 8.26 94.79 8.28 94.81 8.25C94.83 8.24 94.84 8.22 94.86 8.2C94.82 8.15 94.78 8.14 94.75 8.16ZM90.71 2.47C90.74 2.48 90.77 2.46 90.8 2.4C90.78 2.39 90.76 2.37 90.74 2.36C90.7 2.35 90.67 2.37 90.65 2.43C90.67 2.44 90.69 2.46 90.71 2.47ZM88.56 2.11C88.54 2.13 88.53 2.15 88.52 2.17C88.56 2.21 88.59 2.23 88.62 2.2C88.64 2.19 88.65 2.17 88.66 2.15C88.62 2.1 88.59 2.09 88.56 2.11ZM73.99 0.73C73.98 0.75 73.96 0.77 73.95 0.78C73.99 0.83 74.02 0.84 74.05 0.82C74.07 0.8 74.08 0.78 74.09 0.76C74.05 0.72 74.02 0.7 73.99 0.73ZM1.44 13.07C1.43 13.05 1.41 13.04 1.39 13.02C1.35 13.06 1.33 13.1 1.36 13.13C1.37 13.15 1.39 13.16 1.41 13.17C1.46 13.13 1.47 13.1 1.44 13.07Z" fill="#FFE492" fill-opacity="1.000000" fill-rule="nonzero"/>
</svg>
