<svg width="314.028687" height="23.956665" viewBox="0 0 314.029 23.9567" fill="none" xmlns="http://www.w3.org/2000/svg" xmlns:xlink="http://www.w3.org/1999/xlink">
	<desc>
			Created with Pixso.
	</desc>
	<defs/>
	<path id="Vector" d="M293.76 12.65C293.33 12.67 292.9 12.69 292.48 12.72C292.21 12.74 292.09 12.68 291.91 12.65C291.85 12.64 291.78 12.62 291.73 12.63C291.3 12.65 290.88 12.67 290.45 12.69C290.32 12.74 290.24 12.81 290.04 12.83C289.85 12.85 289.62 12.85 289.4 12.86C289.12 12.88 288.83 12.89 288.55 12.9C288.4 12.91 288.29 12.93 288.24 12.98C288.23 12.99 288.33 13 288.38 13.02C288.55 13.05 288.72 13.1 288.91 13.12C289.09 13.15 289.32 13.11 289.51 13.14C289.95 13.22 289.95 13.22 290.29 13.21C290.57 13.19 290.86 13.18 291.14 13.17C291.2 13.16 291.26 13.18 291.32 13.19C291.51 13.22 291.62 13.28 291.89 13.26C292.09 13.24 292.32 13.24 292.53 13.23C292.71 13.26 292.87 13.3 293.06 13.33C293.24 13.36 293.29 13.38 293.2 13.42C293.11 13.45 292.99 13.47 292.83 13.47C292.69 13.47 292.54 13.48 292.4 13.49C292.33 13.49 292.26 13.49 292.19 13.5C291.92 13.51 291.92 13.51 291.42 13.43C291.22 13.4 291 13.44 290.82 13.41C290.69 13.39 290.58 13.36 290.46 13.34C290.41 13.33 290.33 13.33 290.26 13.33C290.05 13.34 289.83 13.35 289.62 13.37C289.48 13.38 289.39 13.41 289.41 13.45C289.41 13.46 289.52 13.48 289.58 13.48C289.72 13.48 289.86 13.47 290 13.48C290.13 13.48 290.26 13.51 290.35 13.54C290.55 13.59 290.77 13.54 290.96 13.56C291.15 13.57 291.31 13.62 291.5 13.65C291.54 13.66 291.64 13.65 291.71 13.65C291.92 13.64 292.13 13.63 292.35 13.62C292.52 13.66 292.71 13.69 292.87 13.73C293.16 13.81 293.47 13.84 293.85 13.8C294.06 13.78 294.27 13.79 294.44 13.84C294.61 13.89 294.81 13.88 295.03 13.87C295.23 13.86 295.44 13.83 295.65 13.87C296.1 13.95 296.1 13.95 296.64 13.92C296.8 13.91 296.92 13.91 297.04 13.94C297.15 13.96 297.27 13.99 297.39 14.01C297.6 14 297.82 13.99 298.03 13.98C298.3 13.97 298.45 13.99 298.52 14.06C298.56 14.1 298.57 14.14 298.67 14.17C298.78 14.2 298.9 14.2 299.07 14.19C299.22 14.18 299.34 14.17 299.4 14.12C299.43 14.1 299.48 14.09 299.53 14.07C299.56 14.06 299.63 14.04 299.66 14.05C299.72 14.05 299.81 14.06 299.83 14.08C300.04 14.23 300.04 14.23 300.26 14.28C300.5 14.33 300.75 14.37 300.96 14.43C301.16 14.47 301.35 14.45 301.56 14.45C301.72 14.45 301.83 14.49 301.81 14.52C301.81 14.54 301.74 14.56 301.69 14.57C301.27 14.59 300.84 14.61 300.41 14.63C300.36 14.63 300.29 14.61 300.24 14.6C300.11 14.58 300.01 14.54 299.88 14.53C299.75 14.53 299.59 14.55 299.45 14.55C299.31 14.56 299.16 14.57 299.03 14.56C298.9 14.55 298.79 14.52 298.67 14.49C298.62 14.48 298.54 14.47 298.49 14.47C298.18 14.5 297.94 14.46 297.72 14.4C297.67 14.39 297.59 14.39 297.53 14.39C297.03 14.41 296.53 14.43 296.03 14.46C295.82 14.47 295.66 14.42 295.62 14.35C295.59 14.31 295.55 14.27 295.55 14.23C295.55 14.15 295.31 14.11 295.14 14.12C294.85 14.13 294.56 14.14 294.28 14.16C294.05 14.17 293.86 14.16 293.7 14.11C293.52 14.06 293.31 14.07 293.11 14.09C292.95 14.1 292.91 14.14 292.92 14.24C292.92 14.33 292.85 14.35 292.57 14.37C292.22 14.38 291.86 14.4 291.5 14.42C291.44 14.42 291.38 14.4 291.32 14.39C291.2 14.36 291.09 14.33 290.96 14.32C290.83 14.31 290.68 14.33 290.54 14.34C290.39 14.34 290.24 14.36 290.11 14.35C289.98 14.34 289.88 14.31 289.76 14.28C289.7 14.27 289.63 14.25 289.58 14.26C289.29 14.27 289.01 14.28 288.72 14.3C288.4 14.31 288.4 14.31 287.95 14.23C287.74 14.2 287.53 14.22 287.33 14.23C287.11 14.24 286.91 14.25 286.74 14.2C286.63 14.17 286.5 14.15 286.37 14.15C286.01 14.17 285.65 14.19 285.29 14.2C285.23 14.2 285.15 14.2 285.1 14.19C284.87 14.13 284.65 14.09 284.33 14.12C284.05 14.14 283.75 14.14 283.48 14.16C283.33 14.18 283.26 14.22 283.29 14.25C283.3 14.26 283.4 14.28 283.46 14.28C283.59 14.28 283.75 14.26 283.88 14.27C284.14 14.29 284.28 14.39 284.63 14.36C284.84 14.35 285.05 14.34 285.27 14.34C285.32 14.33 285.39 14.36 285.45 14.37C285.62 14.4 285.77 14.45 286.02 14.43C286.23 14.41 286.45 14.4 286.66 14.39C287 14.38 287 14.38 287.44 14.45C287.64 14.49 287.85 14.46 288.05 14.45C288.21 14.45 288.35 14.43 288.47 14.45C288.66 14.48 288.79 14.54 289.02 14.53C289.24 14.53 289.45 14.51 289.66 14.51C289.8 14.5 289.92 14.52 290.03 14.56C290.14 14.59 290.26 14.61 290.41 14.6C290.62 14.59 290.84 14.58 291.06 14.57C291.12 14.57 291.19 14.58 291.24 14.59C291.36 14.61 291.48 14.64 291.6 14.66C291.81 14.65 292.03 14.65 292.23 14.64C292.39 14.63 292.51 14.63 292.64 14.66C292.8 14.69 292.93 14.75 293.2 14.72C293.34 14.71 293.49 14.71 293.63 14.7C293.79 14.68 293.9 14.69 294.02 14.73C294.24 14.8 294.52 14.8 294.8 14.77C295.11 14.74 295.35 14.78 295.58 14.83C295.83 14.89 295.83 14.89 296.02 15.03C296.07 15.07 296.23 15.09 296.37 15.08C296.59 15.07 296.79 15.07 296.95 15.12C297.13 15.17 297.33 15.16 297.54 15.15C297.82 15.13 298.11 15.12 298.34 15.19C298.45 15.22 298.57 15.23 298.72 15.22C299.15 15.2 299.58 15.19 300 15.16C300.26 15.14 300.4 15.18 300.58 15.22C300.81 15.26 301.07 15.3 301.07 15.4C301.07 15.42 301.13 15.44 301.18 15.45C301.29 15.48 301.41 15.5 301.53 15.52C301.7 15.56 301.87 15.59 302.11 15.57C302.32 15.56 302.54 15.55 302.75 15.54C302.96 15.53 303.16 15.52 303.35 15.57C303.57 15.62 303.8 15.68 304.05 15.72C304.23 15.74 304.46 15.7 304.65 15.73C304.77 15.76 304.88 15.79 305.01 15.81C305.06 15.81 305.14 15.81 305.21 15.81C305.35 15.8 305.5 15.8 305.64 15.78C305.8 15.77 305.92 15.77 306.04 15.8C306.15 15.83 306.26 15.87 306.39 15.87C306.59 15.88 306.81 15.83 307 15.89C307.1 15.92 307.23 15.95 307.35 15.96C307.49 15.97 307.64 15.95 307.77 15.95C307.84 15.95 307.91 15.97 307.94 15.98C307.97 15.99 307.93 16.02 307.9 16.03C307.87 16.04 307.81 16.06 307.75 16.07C307.32 16.09 306.9 16.11 306.47 16.13C306.21 16.14 306.21 16.14 305.7 16.06C305.58 16.04 305.44 16.05 305.29 16.06C305.09 16.07 304.88 16.09 304.67 16.07C304.39 15.98 304.05 15.97 303.69 16.01C303.54 16.02 303.4 16.02 303.28 16C303.05 15.95 302.79 15.91 302.58 15.85C302.42 15.8 302.34 15.8 302.27 15.86C302.25 15.88 302.23 15.9 302.23 15.92C302.26 15.98 302.31 16.04 302.33 16.1C302.34 16.12 302.31 16.14 302.29 16.16C302.22 16.21 302.13 16.21 301.97 16.17C301.82 16.12 301.64 16.09 301.4 16.11C301.19 16.13 300.97 16.13 300.76 16.15C300.44 16.17 300.21 16.13 299.98 16.08C299.94 16.07 299.85 16.06 299.79 16.07C299.15 16.09 298.51 16.13 297.86 16.16C297.73 16.16 297.6 16.14 297.49 16.11C297.38 16.08 297.25 16.06 297.12 16.06C296.54 16.09 295.97 16.11 295.4 16.15C295.17 16.16 294.98 16.14 294.82 16.1C294.7 16.07 294.59 16.06 294.44 16.06C294.27 16.07 294.16 16.08 294.07 16.11C294 16.15 294.05 16.17 294.23 16.2C294.41 16.23 294.59 16.27 294.76 16.3C294.91 16.3 295.05 16.29 295.19 16.29C295.25 16.29 295.3 16.31 295.36 16.32C295.54 16.36 295.7 16.4 295.94 16.38C296.15 16.36 296.37 16.35 296.58 16.34C296.88 16.33 296.88 16.33 297.35 16.41C297.48 16.43 297.6 16.43 297.76 16.42C297.89 16.41 298.03 16.43 298.13 16.46C298.17 16.48 298.15 16.5 298.07 16.59C298.07 16.65 298.16 16.62 298.19 16.58C298.24 16.52 298.15 16.5 297.98 16.53C297.85 16.56 297.79 16.59 297.82 16.62C297.84 16.63 297.93 16.65 298.07 16.59C298.45 16.51 298.74 16.5 299.02 16.48C299.18 16.47 299.29 16.48 299.42 16.51C299.57 16.55 299.73 16.59 299.98 16.57C300.26 16.55 300.56 16.54 300.84 16.52C301.1 16.51 301.23 16.56 301.39 16.59C301.59 16.63 301.81 16.59 302 16.61C302.19 16.63 302.32 16.69 302.54 16.7C302.86 16.67 303.06 16.73 303.31 16.77C303.5 16.8 303.72 16.77 303.92 16.76C304.15 16.74 304.34 16.76 304.5 16.8C304.69 16.85 304.89 16.84 305.1 16.83C305.58 16.81 305.6 16.8 305.88 16.87C306.08 16.92 306.28 16.9 306.48 16.89C306.66 16.93 306.83 16.96 307.02 16.99C307.07 17 307.16 16.99 307.23 16.99C307.44 16.98 307.66 16.97 307.87 16.96C308.01 16.95 308.16 16.93 308.29 16.94C308.42 16.95 308.53 16.98 308.65 17.01C308.76 17.03 308.89 17.05 309 17.08C309.17 17.12 309.34 17.15 309.58 17.13C309.79 17.11 310 17.11 310.22 17.1C310.49 17.08 310.48 17.09 310.99 17.16C311.26 17.2 311.54 17.15 311.82 17.15C311.96 17.15 312.09 17.16 312.19 17.2C312.23 17.21 312.21 17.24 312.23 17.26C311.51 17.29 310.79 17.32 310.09 17.36C309.82 17.38 309.67 17.33 309.53 17.29C309.28 17.23 308.96 17.32 308.74 17.24C308.6 17.2 308.4 17.17 308.16 17.19C308.02 17.21 307.87 17.21 307.73 17.22C307.37 17.24 307.04 17.25 306.75 17.16C306.65 17.13 306.5 17.11 306.4 17.08C306.28 17.05 306.16 17.04 306.02 17.04C305.37 17.07 304.73 17.1 304.09 17.13C304.04 17.14 303.98 17.16 303.93 17.17C303.81 17.2 303.85 17.23 304.05 17.25C304.11 17.26 304.16 17.28 304.22 17.29C304.34 17.31 304.45 17.35 304.58 17.36C304.71 17.37 304.86 17.35 305 17.35C305.14 17.34 305.3 17.32 305.43 17.33C305.56 17.34 305.66 17.37 305.78 17.4C305.84 17.41 305.91 17.43 305.97 17.42C306.25 17.42 306.53 17.4 306.82 17.39C307 17.43 307.15 17.48 307.36 17.49C307.49 17.49 307.64 17.48 307.77 17.48C307.84 17.48 307.91 17.5 307.94 17.52C307.96 17.53 307.9 17.55 307.86 17.57C307.7 17.61 307.47 17.61 307.27 17.62C307.05 17.64 306.85 17.63 306.68 17.58C306.57 17.55 306.44 17.53 306.3 17.54C305.94 17.56 305.59 17.57 305.23 17.59C305.17 17.59 305.1 17.58 305.04 17.57C304.59 17.49 304.59 17.49 304.27 17.51C303.79 17.53 303.79 17.53 303.48 17.46C303.42 17.45 303.35 17.43 303.3 17.43C302.8 17.45 302.3 17.47 301.81 17.5C301.64 17.51 301.53 17.51 301.41 17.48C301.3 17.45 301.18 17.42 301.05 17.41C300.92 17.4 300.77 17.42 300.63 17.43C300.49 17.43 300.33 17.45 300.21 17.44C300.08 17.43 299.97 17.39 299.85 17.37C299.74 17.34 299.61 17.34 299.45 17.35C298.96 17.38 298.95 17.38 298.47 17.3C298.41 17.29 298.34 17.28 298.28 17.28C297.92 17.3 297.56 17.32 297.2 17.33C297.06 17.34 296.93 17.32 296.84 17.29C296.8 17.27 296.81 17.25 296.78 17.2C296.75 17.19 296.79 17.21 296.8 17.23C296.86 17.22 296.94 17.23 296.99 17.22C297.11 17.19 297.17 17.16 297.14 17.13C297.12 17.12 297.04 17.1 296.99 17.1C296.89 17.1 296.81 17.13 296.78 17.2C296.51 17.24 296.22 17.25 295.94 17.27C295.78 17.28 295.67 17.27 295.54 17.24C295.39 17.2 295.23 17.16 294.97 17.18C294.69 17.21 294.4 17.21 294.11 17.23C293.79 17.25 293.64 17.13 293.37 17.14C293.08 17.14 292.79 17.16 292.51 17.18C292.26 17.19 292.26 17.19 291.74 17.11C291.55 17.08 291.32 17.12 291.14 17.09C291.01 17.07 290.9 17.04 290.78 17.02C290.73 17.01 290.65 17.01 290.58 17.01C290.23 17.03 289.86 17.04 289.52 17.06C289.12 17.1 288.82 17.06 288.54 16.99C288.19 17 287.83 17.01 287.48 17.03C287.22 17.05 287.08 17.01 286.9 16.98C286.84 16.96 286.79 16.95 286.73 16.94C286.66 16.93 286.58 16.95 286.51 16.95C286.23 16.96 285.93 16.97 285.66 16.99C285.32 17.02 285.19 16.92 284.92 16.9C284.75 16.97 284.65 17.05 284.3 17.06C284.01 17.06 283.73 17.08 283.44 17.1C283.3 17.1 283.16 17.11 283.01 17.12C282.79 17.13 282.68 17.18 282.72 17.25C282.75 17.29 282.77 17.33 282.79 17.37C282.84 17.45 282.73 17.51 282.55 17.52C282.04 17.54 281.55 17.57 281.05 17.59C280.91 17.6 280.78 17.58 280.67 17.54C280.56 17.51 280.44 17.49 280.3 17.5C279.8 17.52 279.3 17.55 278.8 17.57C278.74 17.57 278.67 17.56 278.61 17.55C278.49 17.53 278.37 17.5 278.26 17.48C277.97 17.49 277.69 17.5 277.41 17.51C276.95 17.53 276.95 17.53 276.62 17.46C276.56 17.45 276.5 17.43 276.44 17.43C276.23 17.43 276.01 17.45 275.8 17.46C275.16 17.49 275.16 17.49 274.98 17.45C274.81 17.42 274.66 17.38 274.4 17.4C274.13 17.42 273.83 17.43 273.54 17.44C273.33 17.45 273.12 17.46 272.91 17.46C272.85 17.46 272.79 17.44 272.73 17.42C272.56 17.39 272.39 17.35 272.15 17.38C272.01 17.39 271.87 17.39 271.72 17.4C271.35 17.41 271.35 17.41 270.74 17.34C270.68 17.33 270.61 17.32 270.55 17.33C270.05 17.35 269.55 17.37 269.05 17.4C268.99 17.4 268.91 17.39 268.85 17.38C268.17 17.31 268.17 17.31 267.44 17.35C267.17 17.36 267.16 17.36 266.87 17.3C266.74 17.27 266.63 17.26 266.48 17.26C265.91 17.29 265.33 17.31 264.76 17.35C264.51 17.36 264.36 17.33 264.19 17.29C264.13 17.28 264.06 17.26 264.01 17.26C263.44 17.28 262.87 17.31 262.3 17.33C262.25 17.34 262.18 17.31 262.12 17.3C262 17.28 261.89 17.24 261.76 17.24C261.63 17.23 261.48 17.25 261.33 17.25C260.98 17.27 260.98 17.27 260.56 17.2C260.5 17.19 260.43 17.17 260.37 17.17C259.8 17.2 259.23 17.22 258.66 17.26C258.34 17.28 258.12 17.24 257.89 17.19C257.84 17.18 257.76 17.17 257.7 17.17C257.05 17.2 256.41 17.24 255.77 17.26C255.63 17.27 255.5 17.25 255.4 17.22C255.22 17.17 255.02 17.17 254.8 17.18C254.31 17.21 254.3 17.21 254.01 17.15C253.95 17.14 253.89 17.12 253.83 17.11C253.77 17.11 253.69 17.11 253.63 17.11C253.34 17.13 253.06 17.14 252.77 17.15C252.48 17.17 252.19 17.17 251.91 17.2C251.57 17.22 251.4 17.14 251.16 17.1C250.81 17.12 250.44 17.13 250.09 17.16C249.82 17.18 249.7 17.12 249.52 17.09C249.46 17.08 249.4 17.06 249.34 17.06C248.69 17.09 248.05 17.12 247.41 17.15C247.25 17.16 247.15 17.15 247.02 17.12C246.73 17.05 246.72 17.06 246.23 17.08C246.02 17.09 245.82 17.1 245.64 17.05C245.48 17.01 245.28 16.99 245.05 17.01C244.77 17.03 244.48 17.04 244.2 17.05C243.91 17.06 243.63 17.08 243.34 17.09C243.11 17.1 242.97 17.04 242.79 17.01C242.73 17 242.66 17 242.59 17C242.31 17.01 242.01 17.02 241.74 17.04C241.4 17.07 241.21 17 240.97 16.96C240.92 16.95 240.84 16.95 240.77 16.96C240.27 16.98 239.77 17.01 239.27 17.03C239.09 17 238.91 16.96 238.73 16.93C238.45 16.94 238.16 16.95 237.88 16.97C237.66 16.98 237.44 16.98 237.24 17C236.97 17.03 236.84 16.97 236.67 16.94C236.6 16.93 236.54 16.91 236.48 16.91C236.12 16.92 235.77 16.94 235.41 16.96C235.07 16.98 234.94 16.87 234.66 16.87C234.38 16.87 234.08 16.89 233.81 16.91C233.49 16.93 233.26 16.89 233.03 16.84C232.98 16.83 232.9 16.82 232.84 16.83C232.48 16.84 232.13 16.86 231.77 16.87C231.71 16.88 231.63 16.87 231.57 16.86C230.89 16.79 230.89 16.79 230.59 16.8C230.38 16.81 230.16 16.83 229.95 16.83C229.89 16.83 229.81 16.82 229.76 16.81C229.31 16.74 229.31 16.74 228.98 16.75C228.7 16.76 228.41 16.78 228.13 16.79C227.95 16.76 227.77 16.73 227.59 16.69C227.24 16.71 226.87 16.72 226.52 16.74C226.36 16.75 226.25 16.75 226.12 16.72C225.97 16.68 225.81 16.64 225.55 16.66C225.28 16.68 224.98 16.68 224.7 16.7C224.36 16.72 224.22 16.61 223.95 16.61C223.67 16.61 223.37 16.63 223.1 16.65C222.78 16.68 222.55 16.64 222.32 16.58C222.27 16.57 222.19 16.57 222.13 16.57C221.34 16.61 220.56 16.64 219.77 16.68C219.29 16.7 219.29 16.71 218.37 16.64C218.3 16.63 218.23 16.63 218.17 16.63C217.88 16.64 217.59 16.65 217.31 16.67C216.97 16.7 216.79 16.63 216.55 16.59C216.5 16.58 216.42 16.58 216.35 16.59C216.13 16.6 215.92 16.61 215.7 16.62C215.42 16.63 215.13 16.64 214.85 16.66C214.67 16.63 214.49 16.59 214.31 16.56C213.96 16.58 213.59 16.58 213.24 16.61C212.97 16.63 212.85 16.58 212.67 16.55C212.61 16.54 212.55 16.52 212.49 16.52C211.84 16.55 211.2 16.57 210.56 16.61C210.3 16.62 210.17 16.57 210 16.54C209.94 16.53 209.87 16.51 209.81 16.52C209.38 16.53 208.96 16.56 208.53 16.58C208.28 16.59 208.28 16.59 207.76 16.51C207.7 16.5 207.63 16.49 207.57 16.5C206.21 16.56 204.85 16.63 203.5 16.69C203.36 16.69 203.23 16.68 203.12 16.64C203.01 16.61 202.89 16.59 202.75 16.6C202.18 16.62 201.6 16.65 201.03 16.68C200.8 16.69 200.62 16.68 200.46 16.63C200.33 16.6 200.22 16.59 200.07 16.6C199.78 16.61 199.5 16.62 199.21 16.64C198.93 16.65 198.64 16.66 198.36 16.68C198.07 16.69 197.78 16.7 197.5 16.72C197.15 16.75 196.99 16.67 196.75 16.63C196.32 16.65 195.89 16.67 195.47 16.69C194.9 16.71 194.33 16.74 193.75 16.77C193.7 16.77 193.64 16.75 193.58 16.74C193.4 16.71 193.27 16.66 193.01 16.68C191.73 16.74 190.44 16.8 189.15 16.86C188.88 16.88 188.77 16.82 188.59 16.79C188.53 16.79 188.46 16.77 188.4 16.77C187.69 16.8 186.97 16.84 186.26 16.87C185.97 16.88 185.97 16.88 185.48 16.81C185.43 16.8 185.35 16.79 185.29 16.79C184.36 16.83 183.44 16.88 182.51 16.92C182.37 16.93 182.24 16.91 182.13 16.88C182.02 16.84 181.89 16.82 181.76 16.83C180.9 16.87 180.04 16.91 179.19 16.95C178.96 16.97 178.77 16.95 178.61 16.91C178.49 16.88 178.37 16.86 178.23 16.87C176.94 16.93 175.66 16.99 174.37 17.06C174.12 17.07 173.95 17.04 173.8 17C173.67 16.97 173.56 16.96 173.41 16.97C173.24 16.98 173.14 16.99 173.05 17.03C172.94 17.08 172.86 17.14 172.58 17.14C172.3 17.14 172.01 17.16 171.73 17.18C171.46 17.2 171.33 17.15 171.17 17.11C171.04 17.09 170.92 17.08 170.76 17.1C170.62 17.11 170.53 17.13 170.44 17.17C170.25 17.25 170.23 17.25 170 17.2C169.87 17.17 169.76 17.15 169.62 17.15C169.05 17.18 168.48 17.2 167.91 17.23C167.58 17.25 167.58 17.25 167.33 17.19C167.21 17.16 167.09 17.14 166.95 17.15C165.38 17.23 163.81 17.3 162.24 17.38C162 17.39 161.83 17.36 161.66 17.33C161.6 17.31 161.55 17.3 161.48 17.29C161.42 17.29 161.34 17.29 161.27 17.29C160.13 17.35 158.99 17.4 157.85 17.46C157.59 17.47 157.45 17.43 157.27 17.4C157.21 17.39 157.16 17.37 157.09 17.37C157.03 17.36 156.95 17.37 156.88 17.37C155.74 17.43 154.59 17.48 153.46 17.54C153.18 17.55 153.07 17.5 152.89 17.47C152.83 17.46 152.76 17.45 152.71 17.45C152.35 17.46 151.99 17.48 151.64 17.5C150.78 17.54 149.92 17.58 149.07 17.62C148.74 17.64 148.59 17.52 148.32 17.53C147.96 17.54 147.6 17.56 147.25 17.58C146.96 17.59 146.67 17.6 146.39 17.62C146.11 17.63 146.11 17.63 145.41 17.56C145.35 17.55 145.27 17.55 145.21 17.55C144.21 17.59 143.21 17.64 142.21 17.69C141.99 17.7 141.79 17.7 141.63 17.65C141.51 17.62 141.39 17.6 141.25 17.61C139.75 17.68 138.25 17.75 136.75 17.82C136.69 17.82 136.62 17.81 136.57 17.8C136.44 17.78 136.33 17.75 136.21 17.73C136.12 17.76 136.01 17.78 135.96 17.82C135.88 17.86 135.77 17.87 135.61 17.88C135.44 17.89 135.34 17.88 135.21 17.85C135.06 17.81 134.89 17.78 134.64 17.79C133.07 17.87 131.5 17.94 129.93 18.02C129.67 18.03 129.55 17.98 129.37 17.95C129.31 17.94 129.24 17.93 129.18 17.93C128.54 17.96 127.9 17.99 127.25 18.02C125.47 18.11 123.68 18.19 121.9 18.28C121.57 18.29 121.35 18.26 121.12 18.21C121.08 18.2 120.99 18.19 120.93 18.19C118.43 18.31 115.93 18.43 113.44 18.55C113.3 18.56 113.17 18.54 113.06 18.5C112.95 18.47 112.83 18.45 112.69 18.46C111.55 18.51 110.4 18.57 109.26 18.62C108.98 18.64 108.97 18.64 108.68 18.58C108.62 18.56 108.55 18.54 108.5 18.54C108.41 18.55 108.31 18.58 108.24 18.62C108.17 18.67 108.06 18.68 107.9 18.69C107.74 18.7 107.63 18.69 107.51 18.66C107.35 18.63 107.2 18.59 106.94 18.6C103.66 18.76 100.37 18.92 97.09 19.08C96.82 19.09 96.7 19.04 96.52 19.01C96.46 19 96.4 18.99 96.34 18.98C96.27 18.98 96.19 18.99 96.12 18.99C90.77 19.25 85.41 19.5 80.06 19.76C79.74 19.77 79.74 19.77 79.39 19.89C79.35 19.9 79.29 19.92 79.23 19.92C77.59 20 75.95 20.08 74.31 20.16C73.59 20.19 72.88 20.23 72.16 20.26C71.91 20.27 71.91 20.27 71.3 20.41C71.25 20.42 71.19 20.43 71.13 20.43C68.27 20.57 65.42 20.71 62.56 20.84C62.33 20.85 62.15 20.87 62.05 20.93C61.97 20.98 61.88 21 61.74 21.01C59.74 21.1 57.74 21.2 55.74 21.29C55.5 21.31 55.35 21.34 55.24 21.39C55.2 21.41 55.16 21.43 55.11 21.44C55.06 21.45 54.98 21.46 54.91 21.46C53.2 21.54 51.49 21.63 49.77 21.71C49.52 21.72 49.41 21.76 49.29 21.81C49.24 21.83 49.21 21.85 49.16 21.86C49.1 21.87 49.02 21.87 48.95 21.87C47.52 21.94 46.09 22.01 44.67 22.08C44.39 22.07 44.33 22.14 44.19 22.19C44.15 22.2 44.11 22.22 44.06 22.23C44 22.24 43.92 22.24 43.84 22.25C42.7 22.3 41.56 22.36 40.41 22.41C40.15 22.42 40.1 22.48 39.96 22.53C39.91 22.54 39.86 22.56 39.8 22.56C39.09 22.6 38.38 22.63 37.66 22.67C37.43 22.68 37.43 22.68 37.01 22.8C36.96 22.82 36.9 22.83 36.84 22.83C35.77 22.89 34.7 22.94 33.63 22.99C33.49 22.99 33.39 23.02 33.32 23.07C33.25 23.11 33.16 23.14 33.02 23.14C32.16 23.18 31.3 23.23 30.45 23.26C30.21 23.27 30.05 23.31 29.95 23.36C29.87 23.41 29.78 23.43 29.63 23.43C28.77 23.47 27.91 23.52 27.05 23.55C26.8 23.56 26.67 23.61 26.57 23.66C26.49 23.7 26.39 23.72 26.23 23.72C24.66 23.8 23.09 23.87 21.52 23.95C21.26 23.96 21.12 23.92 20.95 23.89C20.7 23.84 20.47 23.8 20.47 23.7C20.47 23.68 20.4 23.67 20.35 23.65C19.96 23.56 19.96 23.56 19.9 23.46C19.87 23.4 19.83 23.34 19.8 23.27C19.74 23.17 19.6 23.14 19.21 23.16C19.06 23.17 18.92 23.18 18.78 23.18C18.57 23.19 18.41 23.15 18.37 23.07C18.34 23.03 18.32 22.99 18.3 22.95C18.51 22.94 18.51 22.94 18.89 22.79C19.05 22.72 19.05 22.72 18.74 22.66C18.63 22.64 18.51 22.61 18.39 22.59C18.33 22.58 18.26 22.57 18.2 22.57C17.84 22.59 17.48 22.61 17.13 22.62C16.56 22.65 16.56 22.65 15.98 22.52C15.93 22.51 15.86 22.49 15.87 22.48C15.91 22.44 16.03 22.42 16.18 22.41C16.39 22.41 16.61 22.39 16.82 22.38C16.96 22.38 17.1 22.37 17.25 22.36C17.38 22.32 17.52 22.27 17.64 22.22C17.84 22.14 17.84 22.14 17.57 22.09C17.4 22.05 17.21 22.02 17.03 21.99C16.82 22 16.61 22.01 16.39 22.02C16.13 22.03 16.02 22.01 15.95 21.93C15.89 21.86 15.96 21.79 16.17 21.78C16.38 21.76 16.58 21.75 16.69 21.69C16.79 21.63 16.97 21.6 17.2 21.6C17.34 21.6 17.48 21.59 17.63 21.58C17.81 21.57 17.91 21.51 17.87 21.43C17.85 21.39 17.81 21.35 17.64 21.34C16.89 21.3 16.88 21.3 16.51 21.21C16.48 21.2 16.45 21.18 16.46 21.17C16.48 21.15 16.53 21.12 16.58 21.12C17.08 21.09 17.58 21.07 18.08 21.05C18.24 21.04 18.36 21.03 18.42 20.99C18.5 20.92 18.46 20.86 18.31 20.82C18.26 20.81 18.18 20.79 18.13 20.79C17.56 20.81 16.99 20.84 16.42 20.86C16.37 20.87 16.28 20.85 16.26 20.83C16.21 20.8 16.28 20.76 16.43 20.75C16.63 20.73 16.83 20.73 16.96 20.66C17.15 20.57 17.38 20.49 17.59 20.41C17.62 20.39 17.68 20.36 17.67 20.36C17.56 20.33 17.43 20.31 17.32 20.29C17.13 20.24 17.13 20.18 17.17 20.12C17.21 20.07 17.34 20.05 17.5 20.05C17.57 20.05 17.65 20.05 17.71 20.04C17.86 20.02 17.9 19.98 17.83 19.95C17.79 19.94 17.71 19.92 17.66 19.92C16.73 19.96 15.8 20 14.88 20.05C14.61 20.07 14.48 20.02 14.32 19.99C14.19 19.96 14.08 19.95 13.92 19.97C13.77 19.99 13.63 19.98 13.54 19.94C13.47 19.9 13.59 19.87 13.95 19.84C14.01 19.83 14.08 19.83 14.13 19.82C14.63 19.68 14.63 19.68 14.98 19.66C15.32 19.65 15.32 19.65 15.49 19.57C15.58 19.54 15.67 19.51 15.74 19.47C15.78 19.46 15.83 19.43 15.81 19.42C15.71 19.39 15.58 19.38 15.43 19.39C15.1 19.41 14.7 19.39 14.52 19.51C14.45 19.55 14.34 19.57 14.19 19.57C12.62 19.65 11.06 19.72 9.49 19.79C9.23 19.81 9.11 19.85 9.01 19.9C8.93 19.95 8.83 19.96 8.67 19.97C8.5 19.97 8.37 19.98 8.28 19.94C8.22 19.91 8.27 19.88 8.4 19.84C8.59 19.79 8.55 19.73 8.49 19.67C8.45 19.63 8.31 19.6 8.17 19.61C7.96 19.61 7.76 19.62 7.58 19.57C7.47 19.54 7.34 19.52 7.23 19.5C7 19.45 6.78 19.4 6.46 19.43C6.25 19.42 6.09 19.37 5.92 19.34C5.63 19.28 5.61 19.27 5.81 19.21C6.05 19.14 5.86 19.05 5.99 18.98C6.13 18.91 6.32 18.85 6.49 18.78C6.54 18.76 6.57 18.74 6.62 18.73C6.52 18.7 6.43 18.67 6.31 18.65C6.16 18.63 6.08 18.6 6.09 18.53C6.06 18.51 6.07 18.54 6.11 18.55C6.15 18.56 6.24 18.55 6.29 18.54C6.41 18.52 6.47 18.49 6.44 18.46C6.42 18.45 6.34 18.43 6.29 18.43C6.19 18.43 6.11 18.46 6.09 18.53C5.6 18.58 5.1 18.6 4.6 18.62C4.55 18.62 4.48 18.6 4.42 18.59C4.22 18.54 4.22 18.54 3.64 18.53C3.58 18.53 3.49 18.51 3.46 18.5C3.34 18.42 3.34 18.34 3.28 18.25C3.4 18.2 3.51 18.15 3.62 18.1C3.86 18 4.16 17.9 4.34 17.79C4.3 17.73 4.25 17.67 4.44 17.62C4.98 17.55 4.98 17.55 5.13 17.49C5.54 17.32 5.96 17.15 6.4 16.98C6.51 16.94 6.51 16.92 6.31 16.9C6.24 16.89 6.17 16.89 6.1 16.89C5.89 16.9 5.67 16.92 5.46 16.92C5.25 16.92 5.09 16.86 4.92 16.83C4.74 16.79 4.56 16.76 4.39 16.72C4.18 16.72 3.98 16.76 3.78 16.7C3.62 16.66 3.43 16.63 3.25 16.59C3.38 16.5 3.63 16.42 3.83 16.34C4 16.26 4.01 16.26 4.48 16.2C4.71 16.18 4.79 16.04 4.6 15.99C4.37 15.94 4.13 15.9 3.89 15.85C3.69 15.85 3.48 15.89 3.29 15.83C3.14 15.79 2.96 15.76 2.71 15.78C2.29 15.8 1.86 15.82 1.43 15.84C1.28 15.85 1.12 15.84 1.05 15.8C1.01 15.77 1.14 15.73 1.28 15.72C1.5 15.71 1.69 15.69 1.8 15.63C1.9 15.57 2.09 15.55 2.32 15.54C2.38 15.54 2.45 15.52 2.48 15.51C2.63 15.43 2.81 15.37 3.14 15.37C3.28 15.35 3.35 15.32 3.31 15.29C3.28 15.27 3.19 15.25 3.14 15.25C2.78 15.26 2.42 15.28 2.07 15.3C1.91 15.31 1.78 15.31 1.68 15.27C1.6 15.25 1.64 15.22 1.78 15.18C1.9 15.15 1.94 15.11 1.93 15.07C1.91 14.97 1.78 14.94 1.36 14.95C1.06 14.95 0.99 14.94 0.92 14.85C0.91 14.83 0.86 14.8 0.89 14.79C1.08 14.7 1.2 14.6 1.55 14.56C1.69 14.54 1.84 14.54 1.92 14.51C2.01 14.48 2.09 14.44 2.18 14.41C2.29 14.37 2.37 14.34 2.32 14.31C2.23 14.27 2.09 14.27 1.93 14.28C1.79 14.3 1.65 14.3 1.5 14.3C1.25 14.32 1.04 14.29 1.01 14.23C0.93 14.08 0.84 13.94 0.77 13.8C0.76 13.78 0.78 13.76 0.82 13.74C0.94 13.69 1.07 13.64 1.19 13.59C1.34 13.53 1.57 13.54 1.77 13.53C2.05 13.51 2.05 13.51 2.43 13.39C2.58 13.34 2.83 13.36 2.98 13.32C3.03 13.31 3.11 13.28 3.09 13.27C3.07 13.26 2.99 13.24 2.92 13.24C2.86 13.23 2.79 13.22 2.72 13.23C1.94 13.26 1.15 13.3 0.37 13.34C0.23 13.34 0.09 13.32 0.04 13.28C-0.01 13.24 0 13.2 0 13.16C0.12 13.1 0.26 13.06 0.37 13C0.45 12.96 0.55 12.94 0.71 12.94C0.93 12.93 1.14 12.92 1.38 12.91C1.83 12.73 2.27 12.53 2.76 12.35C2.95 12.28 2.91 12.2 2.95 12.12C2.98 12.05 3.27 12.06 3.47 12.04C3.62 12.02 3.68 11.98 3.62 11.95C3.58 11.94 3.5 11.92 3.44 11.92C3.3 11.92 3.16 11.93 3.01 11.94C2.87 11.94 2.71 11.94 2.59 11.96C2.48 11.98 2.4 12.02 2.33 12.06C2.25 12.1 2.14 12.11 1.98 12.12C1.76 12.12 1.55 12.13 1.34 12.14C1.11 12.09 0.86 12.04 0.64 11.99C0.6 11.98 0.59 11.95 0.59 11.93C0.6 11.88 0.54 11.85 0.39 11.83C0.27 11.81 0.17 11.78 0.06 11.76C0.15 11.72 0.24 11.69 0.31 11.65C0.46 11.58 0.65 11.52 0.98 11.52C1.11 11.48 1.21 11.42 1.38 11.38C1.54 11.35 1.82 11.38 1.94 11.31C2 11.27 2.09 11.23 2.21 11.22C2.39 11.19 2.63 11.2 2.74 11.13C2.81 11.09 2.9 11.06 3.03 11.05C3.17 11.04 3.32 11.03 3.42 11.01C3.48 11 3.54 10.98 3.54 10.96C3.54 10.95 3.45 10.93 3.39 10.92C3.33 10.91 3.26 10.91 3.2 10.91C2.98 10.92 2.77 10.93 2.55 10.94C2.49 10.94 2.42 10.93 2.36 10.93C2.17 10.91 2.18 10.88 2.33 10.84C2.48 10.79 2.59 10.74 2.72 10.68C2.85 10.68 3.03 10.68 3.12 10.66C3.28 10.62 3.39 10.56 3.52 10.51C3.67 10.5 3.81 10.5 3.95 10.49C4 10.48 4.03 10.45 4.08 10.44C4.16 10.41 4.24 10.36 4.36 10.35C4.55 10.32 4.78 10.33 4.89 10.26C4.96 10.22 5.06 10.18 5.18 10.18C5.51 10.17 5.66 10.11 5.83 10.04C5.96 9.99 6.24 10.02 6.38 9.97C6.47 9.94 6.54 9.9 6.64 9.87C6.68 9.85 6.76 9.85 6.83 9.84C7.18 9.83 7.54 9.81 7.89 9.79C7.95 9.79 8 9.77 8.05 9.75C8.14 9.72 8.19 9.68 8.3 9.66C8.42 9.63 8.58 9.63 8.72 9.63C9.16 9.61 9.2 9.61 9.4 9.51C9.56 9.42 9.97 9.48 10.1 9.39C10.18 9.33 10.32 9.29 10.58 9.28C10.93 9.27 11.29 9.25 11.65 9.23C11.97 9.22 11.96 9.22 12.31 9.1C12.47 9.05 12.7 9.06 12.9 9.05C13.11 9.04 13.31 9.02 13.42 8.96C13.52 8.9 13.71 8.88 13.93 8.87C14.14 8.86 14.36 8.86 14.52 8.81C14.91 8.69 14.91 8.69 15.18 8.68C15.61 8.66 16.04 8.64 16.47 8.62C16.75 8.61 17.05 8.6 17.32 8.58C17.51 8.56 17.6 8.49 17.73 8.44C18.08 8.42 18.44 8.4 18.79 8.38C19.29 8.36 19.79 8.33 20.29 8.31C20.51 8.26 20.54 8.16 20.9 8.15C21.12 8.15 21.33 8.13 21.55 8.12C21.9 8.11 22.26 8.08 22.62 8.07C22.89 8.07 22.94 8 23.08 7.96C23.13 7.94 23.17 7.92 23.23 7.92C23.79 7.88 24.37 7.87 24.92 7.82C24.98 7.82 25.03 7.79 25.04 7.77C25.05 7.76 24.98 7.74 24.93 7.74C24.87 7.73 24.8 7.72 24.74 7.72C22.95 7.8 21.16 7.89 19.38 7.97C19.13 7.98 19.13 7.98 18.52 8.12C18.47 8.13 18.41 8.14 18.34 8.15C18.05 8.16 17.76 8.17 17.48 8.19C17.25 8.21 17.06 8.19 16.9 8.15C16.78 8.11 16.66 8.1 16.51 8.11C16.35 8.11 16.24 8.12 16.15 8.16C16.02 8.2 15.96 8.26 15.69 8.28C14.48 8.33 13.26 8.39 12.05 8.45C11.88 8.43 11.8 8.4 11.84 8.37C11.87 8.35 11.92 8.33 11.97 8.33C12.47 8.3 12.97 8.28 13.47 8.25C13.54 8.25 13.63 8.25 13.67 8.24C13.86 8.18 13.93 8.09 14.29 8.08C14.5 8.08 14.71 8.06 14.91 8.04C14.97 8.04 15.02 8.01 15.03 7.99C15.04 7.98 14.97 7.97 14.91 7.96C14.72 7.92 14.5 7.96 14.31 7.94C14.25 7.93 14.16 7.92 14.14 7.9C14.14 7.89 14.21 7.87 14.26 7.85C14.31 7.84 14.37 7.83 14.44 7.82C15.01 7.8 15.58 7.77 16.15 7.74C16.39 7.73 16.55 7.7 16.65 7.65C16.73 7.6 16.83 7.58 16.97 7.57C17.97 7.53 18.97 7.48 19.98 7.43C20.23 7.42 20.36 7.38 20.46 7.33C20.54 7.29 20.64 7.27 20.8 7.26C22.23 7.2 23.65 7.13 25.08 7.06C25.35 7.05 25.43 7 25.56 6.95C25.61 6.94 25.64 6.92 25.7 6.91C25.76 6.9 25.84 6.9 25.91 6.89C27.05 6.84 28.19 6.78 29.34 6.73C29.61 6.72 29.66 6.66 29.8 6.61C29.85 6.6 29.89 6.58 29.95 6.57C30.8 6.53 31.66 6.49 32.52 6.45C33.09 6.42 33.66 6.4 34.23 6.37C34.51 6.36 34.51 6.35 34.89 6.24C34.93 6.22 34.99 6.21 35.05 6.2C36.69 6.12 38.33 6.05 39.98 5.97C40.12 5.96 40.21 5.93 40.28 5.89C40.35 5.85 40.45 5.82 40.59 5.81C41.87 5.75 43.16 5.69 44.45 5.63C44.68 5.62 44.84 5.59 44.95 5.53C45.03 5.49 45.12 5.47 45.27 5.46C46.55 5.4 47.84 5.34 49.13 5.28C49.37 5.27 49.49 5.22 49.61 5.17C49.66 5.16 49.69 5.13 49.74 5.13C50.38 5.09 51.02 5.05 51.67 5.03C51.93 5.02 52.02 4.97 52.13 4.92C52.22 4.88 52.32 4.86 52.48 4.86C52.84 4.85 53.2 4.83 53.55 4.81C53.6 4.8 53.66 4.77 53.67 4.76C53.68 4.72 53.58 4.7 53.41 4.69C51.7 4.77 49.98 4.85 48.27 4.93C47.99 4.95 47.99 4.95 47.61 5.07C47.56 5.08 47.5 5.1 47.44 5.1C45.8 5.18 44.16 5.26 42.52 5.34C42.38 5.34 42.28 5.37 42.21 5.41C42.14 5.46 42.04 5.49 41.91 5.49C40.34 5.57 38.77 5.64 37.19 5.71C36.96 5.72 36.79 5.75 36.69 5.81C36.61 5.85 36.52 5.88 36.37 5.88C34.87 5.95 33.37 6.03 31.87 6.09C31.72 6.1 31.6 6.06 31.61 6.03C31.62 6.01 31.68 5.98 31.73 5.98C32.52 5.94 33.29 5.9 34.08 5.87C34.35 5.86 34.42 5.8 34.56 5.75C34.6 5.74 34.63 5.72 34.69 5.71C34.75 5.7 34.83 5.7 34.9 5.7C36.76 5.61 38.61 5.52 40.47 5.43C40.74 5.42 40.79 5.36 40.93 5.32C40.98 5.3 41.02 5.28 41.08 5.28C41.65 5.25 42.22 5.22 42.79 5.19C43.79 5.15 44.79 5.1 45.8 5.05C46.08 5.04 46.08 5.04 46.46 4.92C46.5 4.91 46.56 4.89 46.62 4.89C49.26 4.76 51.9 4.63 54.55 4.51C54.68 4.5 54.78 4.47 54.85 4.43C54.92 4.39 55.02 4.36 55.16 4.35C58.73 4.18 62.3 4.01 65.87 3.84C66.1 3.83 66.27 3.8 66.37 3.75C66.45 3.7 66.55 3.68 66.69 3.67C70.62 3.49 74.55 3.3 78.48 3.11C81.12 2.99 83.77 2.86 86.41 2.74C86.65 2.72 86.78 2.69 86.9 2.63C86.94 2.62 86.98 2.59 87.03 2.58C87.6 2.55 88.16 2.52 88.73 2.5C88.91 2.53 89.09 2.56 89.26 2.6C89.4 2.55 89.53 2.5 89.66 2.45C90.52 2.42 91.36 2.36 92.23 2.34C92.28 2.34 92.34 2.36 92.4 2.38C92.81 2.46 93.04 2.45 93.29 2.34C93.38 2.31 93.46 2.27 93.6 2.27C94.03 2.24 94.46 2.23 94.88 2.2C95.11 2.19 95.3 2.2 95.47 2.25C95.58 2.28 95.7 2.29 95.85 2.29C96.63 2.25 97.42 2.21 98.2 2.17C98.26 2.17 98.31 2.15 98.36 2.13C98.45 2.1 98.52 2.06 98.61 2.03C98.73 2.05 98.86 2.07 98.95 2.1C99.07 2.13 99.19 2.13 99.35 2.12C102.49 1.97 105.64 1.82 108.78 1.67C109.05 1.66 109.16 1.71 109.34 1.74C109.4 1.75 109.46 1.76 109.53 1.76C109.6 1.76 109.67 1.76 109.74 1.75C112.1 1.64 114.46 1.53 116.81 1.41C117.13 1.4 117.13 1.4 117.59 1.48C117.64 1.49 117.72 1.5 117.78 1.49C118.85 1.45 119.92 1.39 120.99 1.34C121.13 1.34 121.25 1.36 121.37 1.39C121.62 1.44 121.64 1.44 121.82 1.36C121.91 1.32 122 1.3 122.14 1.29C122.29 1.27 122.42 1.28 122.54 1.3C122.71 1.33 122.84 1.38 123.1 1.37C124.25 1.31 125.39 1.26 126.53 1.2C126.79 1.19 126.93 1.23 127.1 1.26C127.16 1.27 127.22 1.29 127.28 1.29C127.35 1.3 127.43 1.29 127.49 1.29C128.92 1.22 130.35 1.15 131.78 1.08C132.04 1.07 132.16 1.12 132.34 1.15C132.4 1.16 132.47 1.17 132.53 1.17C133.39 1.13 134.25 1.09 135.1 1.05C135.41 1.04 135.41 1.04 135.88 1.11C135.93 1.12 136.01 1.13 136.07 1.13C137.07 1.08 138.07 1.04 139.07 0.99C139.38 0.97 139.38 0.97 140.26 1.04C140.33 1.04 140.4 1.05 140.46 1.05C141.6 0.99 142.75 0.94 143.89 0.88C144.12 0.87 144.31 0.88 144.48 0.93C144.59 0.96 144.71 0.97 144.86 0.97C146.14 0.91 147.43 0.85 148.71 0.78C148.96 0.77 149.12 0.8 149.29 0.83C149.35 0.85 149.4 0.86 149.47 0.87C149.53 0.87 149.61 0.87 149.68 0.86C150.96 0.8 152.25 0.75 153.53 0.68C153.79 0.67 153.93 0.71 154.1 0.74C154.16 0.75 154.23 0.77 154.28 0.77C154.78 0.75 155.28 0.73 155.78 0.7C156.05 0.68 156.16 0.74 156.35 0.77C156.41 0.78 156.48 0.8 156.53 0.79C157.61 0.74 158.68 0.69 159.75 0.64C159.9 0.63 160.01 0.64 160.13 0.68C160.29 0.72 160.48 0.74 160.71 0.72C161.21 0.7 161.71 0.68 162.21 0.65C162.51 0.64 162.51 0.64 163.41 0.7C163.47 0.71 163.54 0.72 163.6 0.71C164.46 0.67 165.32 0.63 166.17 0.59C166.4 0.58 166.59 0.59 166.76 0.63C166.88 0.67 166.99 0.68 167.14 0.67C167.93 0.64 168.71 0.6 169.5 0.56C169.78 0.55 170.07 0.52 170.35 0.52C170.56 0.52 170.71 0.58 170.9 0.61C170.95 0.62 171.04 0.61 171.11 0.61C172.1 0.56 173.11 0.52 174.1 0.46C174.36 0.45 174.5 0.49 174.67 0.53C174.73 0.54 174.8 0.56 174.85 0.56C175.21 0.54 175.57 0.53 175.92 0.51C176.35 0.49 176.79 0.47 177.21 0.45C177.56 0.42 177.68 0.53 177.96 0.54C178.17 0.54 178.39 0.52 178.6 0.51C179.03 0.49 179.46 0.47 179.89 0.45C180.04 0.44 180.15 0.42 180.2 0.38C180.21 0.37 180.14 0.35 180.09 0.34C179.51 0.21 179.51 0.21 178.94 0.24C178.58 0.26 178.22 0.27 177.86 0.29C177.8 0.29 177.73 0.28 177.67 0.27C177.5 0.25 177.52 0.23 177.66 0.18C177.81 0.14 177.92 0.08 178.05 0.03C178.23 0.06 178.4 0.1 178.58 0.13C178.72 0.12 178.86 0.11 179 0.11C179.72 0.08 180.43 0.04 181.15 0.01C181.2 0.01 181.26 0.03 181.32 0.05C181.5 0.08 181.65 0.11 181.9 0.1C182.54 0.06 183.19 0.04 183.83 0.01C184.11 -0.01 184.11 -0.01 184.6 0.07C184.66 0.08 184.73 0.09 184.79 0.09C185.44 0.06 186.08 0.03 186.72 0C186.86 -0.01 186.99 0.01 187.09 0.04C187.13 0.06 187.12 0.08 187.29 0.29C187.8 0.45 188.15 0.44 188.5 0.42C188.65 0.42 188.79 0.41 188.89 0.38C188.94 0.37 189.01 0.35 189.01 0.33C189.01 0.32 188.91 0.3 188.85 0.3C188.42 0.27 188.01 0.33 187.59 0.34C187.4 0.34 187.23 0.3 187.2 0.23C187.19 0.21 187.18 0.19 187.16 0.17C187.15 0.15 187.14 0.13 187.13 0.11C186.96 0.1 186.86 0.12 186.79 0.16C186.73 0.2 186.64 0.24 186.52 0.26C186.41 0.28 186.25 0.27 186.1 0.28C185.96 0.29 185.81 0.3 185.68 0.29C185.55 0.28 185.45 0.25 185.33 0.23C185.27 0.21 185.2 0.2 185.15 0.2C184.65 0.22 184.16 0.24 183.66 0.27C183.4 0.29 183.27 0.23 183.11 0.2C182.98 0.18 182.85 0.18 182.83 0.24C182.77 0.38 182.97 0.43 183.41 0.41C183.78 0.39 184.1 0.38 184.39 0.47C184.43 0.48 184.52 0.48 184.58 0.48C184.93 0.47 185.28 0.45 185.64 0.43C185.7 0.43 185.77 0.43 185.83 0.44C186.71 0.51 186.71 0.51 187.01 0.49C187.15 0.49 187.29 0.48 187.28 0.29C187.55 0.09 187.98 0.07 188.4 0.04C188.68 0.02 188.79 0.08 188.97 0.11C189.03 0.12 189.1 0.14 189.15 0.13C190.08 0.09 191.01 0.05 191.93 0C192.09 0 192.2 0 192.32 0.04C192.48 0.08 192.65 0.1 192.9 0.09C193.39 0.06 193.89 0.04 194.39 0.01C194.65 0 194.65 0 195.16 0.08C195.22 0.09 195.29 0.1 195.36 0.1C195.86 0.07 196.35 0.05 196.85 0.03C196.99 0.02 197.12 0.04 197.22 0.07C197.33 0.1 197.46 0.12 197.6 0.12C198.1 0.09 198.6 0.07 199.09 0.05C199.15 0.04 199.23 0.05 199.28 0.06C199.81 0.14 199.81 0.14 200.05 0.13C200.41 0.11 200.77 0.1 201.12 0.07C201.46 0.05 201.64 0.12 201.87 0.16C202.51 0.13 203.16 0.11 203.79 0.07C204.05 0.06 204.19 0.1 204.37 0.13C204.43 0.14 204.49 0.17 204.54 0.17C204.76 0.16 204.97 0.15 205.18 0.14C205.4 0.13 205.61 0.12 205.82 0.11C206.07 0.14 206.23 0.23 206.57 0.2C206.78 0.18 207 0.18 207.21 0.17C207.42 0.16 207.64 0.15 207.85 0.14C207.99 0.13 208.14 0.13 208.28 0.12C208.54 0.1 208.66 0.16 208.84 0.19C208.9 0.2 208.97 0.21 209.03 0.21C209.46 0.19 209.89 0.18 210.31 0.15C210.63 0.12 210.85 0.16 211.08 0.21C211.13 0.23 211.21 0.23 211.27 0.23C211.78 0.21 212.27 0.18 212.77 0.16C212.9 0.15 213.03 0.17 213.14 0.21C213.25 0.24 213.38 0.26 213.52 0.25C214.02 0.23 214.52 0.2 215.02 0.18C215.08 0.18 215.15 0.19 215.21 0.2C215.69 0.27 215.69 0.28 215.98 0.26C216.04 0.26 216.12 0.25 216.19 0.25C216.54 0.23 216.91 0.23 217.26 0.2C217.65 0.16 217.94 0.21 218.23 0.28C218.58 0.26 218.94 0.25 219.29 0.23C219.55 0.21 219.69 0.26 219.86 0.29C219.92 0.3 219.99 0.32 220.04 0.32C220.54 0.3 221.04 0.28 221.53 0.25C221.8 0.23 221.92 0.29 222.1 0.32C222.16 0.33 222.23 0.34 222.28 0.34C222.57 0.33 222.85 0.32 223.14 0.3C223.47 0.29 223.47 0.29 223.91 0.36C224.12 0.4 224.33 0.37 224.53 0.36C224.75 0.35 224.95 0.34 225.12 0.4C225.23 0.43 225.36 0.45 225.5 0.44C225.78 0.43 226.07 0.42 226.35 0.4C226.58 0.39 226.77 0.4 226.94 0.44C227.05 0.48 227.17 0.49 227.32 0.48C227.96 0.45 228.6 0.42 229.24 0.39C229.3 0.39 229.38 0.4 229.43 0.41C229.55 0.44 229.67 0.46 229.78 0.49C230.06 0.48 230.35 0.47 230.63 0.45C230.93 0.44 231.19 0.43 231.42 0.5C231.47 0.51 231.54 0.54 231.6 0.53C231.81 0.53 232.02 0.52 232.24 0.51C232.45 0.5 232.66 0.49 232.88 0.48C233.12 0.51 233.28 0.6 233.62 0.57C233.83 0.55 234.05 0.55 234.26 0.54C234.48 0.53 234.69 0.52 234.9 0.51C234.97 0.51 235.05 0.5 235.11 0.5C235.18 0.51 235.23 0.53 235.29 0.54C235.46 0.58 235.62 0.61 235.87 0.59C236.08 0.57 236.3 0.57 236.51 0.56C236.8 0.54 236.8 0.54 237.28 0.62C237.47 0.66 237.69 0.61 237.88 0.64C238.01 0.66 238.11 0.69 238.24 0.71C238.29 0.72 238.37 0.72 238.43 0.72C238.72 0.71 239.01 0.7 239.29 0.68C239.52 0.67 239.71 0.68 239.87 0.73C239.98 0.76 240.1 0.77 240.25 0.76C240.96 0.73 241.67 0.7 242.38 0.66C242.63 0.65 242.82 0.67 242.95 0.71C243.18 0.79 243.51 0.7 243.75 0.76C243.89 0.8 244.04 0.85 244.31 0.83C244.8 0.79 245.3 0.78 245.8 0.75C245.98 0.79 246.16 0.82 246.34 0.86C246.62 0.84 246.91 0.83 247.19 0.82C247.41 0.81 247.62 0.79 247.83 0.79C247.9 0.78 247.98 0.78 248.04 0.78C248.11 0.79 248.16 0.81 248.22 0.82C248.52 0.88 248.52 0.88 249.01 0.86C249.22 0.85 249.43 0.84 249.6 0.89C249.77 0.93 249.96 0.94 250.19 0.93C250.61 0.9 251.04 0.89 251.47 0.87C251.61 0.86 251.73 0.88 251.84 0.92C252.01 0.97 252.22 0.96 252.43 0.95C252.71 0.93 252.99 0.91 253.23 0.98C253.28 1 253.35 1.02 253.4 1.02C253.76 1.01 254.12 1 254.46 0.98C254.81 0.95 254.98 1.03 255.21 1.07C255.57 1.05 255.93 1.04 256.28 1.02C256.35 1.02 256.43 1 256.49 1.01C256.75 1.04 256.9 1.13 257.25 1.1C257.45 1.09 257.67 1.08 257.88 1.08C257.94 1.08 258.01 1.1 258.05 1.11C258.07 1.12 258.05 1.15 258.03 1.16C257.95 1.19 257.85 1.23 257.78 1.26C257.77 1.27 257.86 1.29 257.9 1.3C258.02 1.32 258.16 1.32 258.31 1.31C258.44 1.3 258.58 1.32 258.68 1.36C258.72 1.37 258.7 1.4 258.62 1.48C258.62 1.54 258.71 1.51 258.74 1.47C258.79 1.41 258.7 1.4 258.53 1.43C258.41 1.45 258.35 1.48 258.38 1.51C258.39 1.52 258.48 1.54 258.62 1.48C259 1.4 259.29 1.39 259.57 1.38C259.65 1.37 259.73 1.36 259.79 1.37C259.97 1.4 260.15 1.43 260.33 1.47C260.53 1.46 260.73 1.44 260.93 1.49C261.22 1.56 261.23 1.55 261.51 1.54C261.65 1.53 261.79 1.52 261.94 1.52C262.08 1.51 262.19 1.53 262.32 1.56C262.57 1.62 262.59 1.62 262.76 1.54C262.86 1.49 262.93 1.47 263.06 1.5C263.47 1.57 263.48 1.58 263.83 1.55C264.12 1.54 264.4 1.53 264.62 1.6C264.76 1.65 264.81 1.64 264.93 1.59C265.24 1.45 265.38 1.45 265.97 1.55C266.24 1.6 266.52 1.55 266.8 1.54C267.03 1.54 267.2 1.57 267.21 1.65C267.23 1.7 267.26 1.73 267.42 1.75C267.48 1.75 267.55 1.76 267.62 1.76C267.97 1.74 268.33 1.73 268.69 1.71C268.87 1.7 268.97 1.64 268.93 1.56C268.9 1.48 268.96 1.45 269.22 1.43C269.38 1.41 269.51 1.42 269.63 1.44C269.77 1.46 269.73 1.49 269.61 1.53C269.32 1.64 269.35 1.71 269.73 1.79C269.86 1.81 269.96 1.84 269.99 1.87C270.01 1.89 269.99 1.92 270.03 1.94C270.24 2.02 270.54 2.07 270.86 2.11C271.18 2.08 271.4 2.14 271.64 2.18C271.83 2.22 272.05 2.19 272.26 2.17C272.49 2.16 272.68 2.17 272.84 2.22C272.96 2.25 273.08 2.26 273.22 2.26C273.51 2.24 273.8 2.24 274.08 2.22C274.32 2.2 274.5 2.22 274.65 2.27C274.84 2.32 275.06 2.28 275.25 2.29C275.52 2.3 275.66 2.41 276.01 2.38C276.21 2.36 276.43 2.36 276.65 2.35C276.7 2.35 276.77 2.37 276.82 2.39C277.05 2.46 277.32 2.45 277.61 2.43C277.82 2.42 278.01 2.41 278.21 2.45C278.54 2.53 278.91 2.6 279.25 2.68C279.3 2.74 279.26 2.8 279.51 2.84C279.64 2.85 279.76 2.88 279.86 2.91C279.98 2.94 280.09 2.95 280.25 2.94C280.53 2.93 280.83 2.92 281.1 2.9C281.36 2.88 281.52 2.92 281.67 2.96C281.8 2.99 281.92 3.01 282.07 2.98C282.22 2.96 282.34 2.98 282.46 3.01C282.64 3.06 282.65 3.05 283.24 3.06C283.3 3.07 283.37 3.08 283.41 3.1C283.43 3.11 283.39 3.14 283.36 3.15C283.32 3.16 283.26 3.18 283.2 3.18C282.56 3.22 281.92 3.25 281.28 3.28C281.21 3.28 281.14 3.29 281.09 3.3C281.04 3.32 280.98 3.34 280.98 3.35C280.98 3.37 281.06 3.38 281.12 3.39C281.31 3.42 281.54 3.37 281.73 3.41C281.85 3.43 281.95 3.46 282.08 3.48C282.13 3.49 282.21 3.49 282.28 3.48C282.5 3.47 282.71 3.46 282.92 3.45C282.98 3.45 283.05 3.47 283.11 3.48C283.53 3.55 283.53 3.55 283.88 3.53C284.03 3.53 284.18 3.51 284.31 3.52C284.44 3.52 284.55 3.56 284.67 3.58C284.91 3.62 285.14 3.67 285.16 3.77C285.17 3.8 285.31 3.84 285.45 3.84C285.59 3.84 285.74 3.83 285.88 3.82C286.22 3.81 286.22 3.81 286.66 3.88C286.78 3.9 286.91 3.91 287.06 3.89C287.12 3.89 287.2 3.89 287.26 3.9C287.47 3.92 287.47 3.94 287.34 3.99C287.14 4.05 287.16 4.06 287.7 4.12C287.91 4.14 288.07 4.18 288.24 4.21C288.53 4.27 288.52 4.27 288.34 4.34C288.29 4.36 288.25 4.38 288.21 4.39C288.08 4.44 287.98 4.5 287.73 4.5C287.44 4.51 287.15 4.53 286.87 4.54C286.59 4.55 286.52 4.58 286.54 4.67C286.57 4.77 286.63 4.78 287.13 4.78C287.27 4.78 287.4 4.79 287.5 4.83C287.45 4.87 287.36 4.9 287.22 4.9C286.86 4.92 286.51 4.94 286.15 4.96C285.87 4.97 285.58 4.98 285.29 5C285.12 5.01 285 5.07 285.05 5.14C285.08 5.18 285.1 5.23 285.12 5.27C285.17 5.35 285.26 5.37 285.55 5.37C285.62 5.37 285.69 5.36 285.76 5.36C286.04 5.37 286.18 5.47 286.51 5.45C286.79 5.43 287.09 5.43 287.37 5.41C287.62 5.39 287.76 5.43 287.94 5.47C288 5.48 288.07 5.5 288.12 5.5C288.48 5.49 288.84 5.47 289.19 5.45C289.35 5.44 289.45 5.45 289.58 5.48C289.89 5.55 289.9 5.54 290.36 5.52C290.7 5.5 290.71 5.51 291.14 5.58C291.26 5.6 291.39 5.6 291.54 5.59C291.75 5.58 291.96 5.56 292.17 5.58C292.24 5.59 292.32 5.6 292.34 5.62C292.35 5.63 292.29 5.66 292.24 5.66C291.86 5.73 291.42 5.72 291 5.74C290.87 5.75 290.74 5.73 290.63 5.69C290.52 5.66 290.4 5.65 290.25 5.65C289.97 5.67 289.68 5.68 289.4 5.7C289.15 5.71 288.98 5.68 288.82 5.65C288.76 5.63 288.69 5.61 288.64 5.61C288 5.64 287.35 5.66 286.72 5.7C286.46 5.71 286.32 5.67 286.14 5.64C286.08 5.63 286.02 5.6 285.96 5.6C285.75 5.61 285.54 5.62 285.32 5.63C284.53 5.67 283.75 5.71 282.96 5.74C282.91 5.74 282.85 5.72 282.79 5.71C282.67 5.68 282.55 5.66 282.43 5.64C282.21 5.65 282 5.66 281.78 5.67C281.63 5.68 281.49 5.69 281.47 5.74C281.45 5.77 281.6 5.8 281.75 5.8C281.89 5.8 282.04 5.78 282.16 5.8C282.76 5.88 282.76 5.88 283.14 5.86C283.47 5.85 283.43 5.84 283.72 5.91C283.85 5.94 283.96 5.95 284.1 5.95C284.46 5.93 284.82 5.91 285.18 5.9C285.23 5.89 285.31 5.91 285.36 5.92C285.79 5.99 285.79 5.99 286.14 5.97C286.6 5.95 286.61 5.95 286.92 6.02C287.13 6.07 287.33 6.04 287.53 6.04C287.76 6.08 288.02 6.13 288.23 6.18C288.48 6.25 288.75 6.24 289.03 6.22C289.24 6.2 289.45 6.2 289.62 6.25C289.79 6.3 289.99 6.3 290.21 6.29C290.42 6.28 290.62 6.26 290.84 6.28C290.89 6.29 290.98 6.31 290.97 6.32C290.97 6.34 290.91 6.36 290.86 6.37C290.46 6.42 290.02 6.42 289.6 6.45C289.55 6.45 289.47 6.44 289.42 6.43C289.29 6.4 289.18 6.38 289.06 6.35C288.85 6.36 288.63 6.36 288.43 6.38C288.27 6.39 288.14 6.39 288.03 6.36C287.92 6.33 287.8 6.3 287.67 6.29C287.54 6.28 287.39 6.3 287.25 6.3C287.11 6.31 286.94 6.31 286.83 6.33C286.72 6.35 286.65 6.39 286.57 6.43C286.49 6.47 286.38 6.48 286.22 6.48C286.06 6.49 285.94 6.48 285.83 6.45C285.78 6.43 285.72 6.42 285.65 6.41C285.59 6.4 285.52 6.39 285.47 6.39C284.82 6.42 284.18 6.45 283.54 6.48C283.22 6.5 283.22 6.5 282.56 6.42C282.5 6.42 282.42 6.41 282.36 6.41C282 6.42 281.65 6.44 281.29 6.46C280.93 6.48 280.93 6.47 280.31 6.4C280.2 6.38 280.03 6.4 279.9 6.4C279.62 6.39 279.48 6.29 279.15 6.31C278.87 6.32 278.58 6.33 278.29 6.35C278.04 6.37 277.89 6.33 277.72 6.29C277.66 6.28 277.59 6.26 277.54 6.26C276.9 6.29 276.26 6.32 275.4 6.32C275.19 6.32 275.28 6.35 275.42 6.36C275.62 6.37 275.69 6.34 275.58 6.29C275.5 6.26 275.39 6.24 275.3 6.25C275.25 6.25 275.19 6.28 275.4 6.32C275.63 6.37 275.61 6.4 275.65 6.41C275.75 6.45 275.88 6.46 276.02 6.46C276.24 6.45 276.45 6.44 276.66 6.43C276.73 6.43 276.8 6.43 276.85 6.44C277.33 6.52 277.34 6.53 277.84 6.5C278 6.49 278.12 6.49 278.24 6.51C278.42 6.54 278.54 6.6 278.81 6.58C279.16 6.56 279.51 6.54 279.87 6.53C279.93 6.53 279.99 6.55 280.06 6.56C280.23 6.59 280.36 6.65 280.63 6.62C280.83 6.6 281.05 6.6 281.27 6.6C281.32 6.59 281.41 6.61 281.44 6.63C281.49 6.66 281.42 6.69 281.28 6.72C281.22 6.73 281.13 6.72 281.06 6.73C280.78 6.74 280.49 6.76 280.21 6.77C280.06 6.77 279.91 6.79 279.9 6.84C279.88 6.87 280.04 6.9 280.19 6.9C280.4 6.89 280.62 6.88 280.82 6.87C281.19 6.84 281.51 6.85 281.81 6.93C282.02 6.98 282.01 6.96 282.24 7.12C282.29 7.16 282.46 7.17 282.61 7.17C282.96 7.16 283.13 7.18 283.1 7.22C283.06 7.26 282.93 7.28 282.77 7.29C282.49 7.3 282.2 7.31 281.92 7.33C281.85 7.33 281.77 7.34 281.7 7.33C281.64 7.33 281.58 7.32 281.52 7.31C281.4 7.28 281.3 7.25 281.17 7.24C281.04 7.23 280.89 7.25 280.74 7.25C280.6 7.26 280.45 7.28 280.32 7.27C280.19 7.26 280.08 7.22 279.97 7.2C279.91 7.19 279.84 7.17 279.78 7.17C279.5 7.18 279.21 7.2 278.93 7.21C278.58 7.23 278.58 7.23 278.15 7.15C278.03 7.13 277.91 7.13 277.75 7.14C277.4 7.16 277.4 7.16 276.76 7.08C276.7 7.08 276.63 7.07 276.57 7.07C275.92 7.1 275.28 7.13 274.64 7.16C274.1 7.19 274.1 7.19 273.79 7.31C273.57 7.41 273.56 7.41 273.78 7.45C273.96 7.48 274.12 7.54 274.32 7.55C274.5 7.57 274.72 7.52 274.92 7.57C275.02 7.6 275.15 7.63 275.28 7.64C275.48 7.64 275.69 7.61 275.88 7.66C275.97 7.69 276.12 7.72 276.24 7.72C276.45 7.72 276.66 7.7 276.88 7.69C276.94 7.69 277.01 7.69 277.07 7.7C277.14 7.71 277.2 7.72 277.25 7.73C277.43 7.78 277.61 7.8 277.84 7.77C278.2 7.74 278.53 7.76 278.82 7.84C278.86 7.85 278.95 7.85 279.01 7.84C279.17 7.83 279.3 7.83 279.42 7.85C279.47 7.86 279.54 7.88 279.53 7.89C279.51 7.91 279.46 7.94 279.41 7.94C279 7.99 278.56 7.99 278.14 8.01C278.09 8.02 278.02 8 277.96 7.99C277.84 7.97 277.74 7.93 277.61 7.92C277.48 7.91 277.33 7.93 277.18 7.93C277.04 7.94 276.89 7.96 276.76 7.95C276.63 7.94 276.51 7.91 276.41 7.88C276.28 7.85 276.17 7.85 276.01 7.86C275.8 7.88 275.58 7.88 275.37 7.89C275.25 7.86 275.14 7.84 275.02 7.82C274.96 7.8 274.89 7.79 274.83 7.79C274.54 7.8 274.26 7.82 273.97 7.83C273.69 7.84 273.69 7.84 273.2 7.77C273.15 7.76 273.07 7.75 273.01 7.75C272.65 7.77 272.3 7.78 271.94 7.8C271.8 7.81 271.68 7.79 271.56 7.75C271.46 7.72 271.33 7.7 271.19 7.71C270.62 7.73 270.05 7.76 269.48 7.79C269.25 7.8 269.06 7.79 268.9 7.75C268.72 7.7 268.51 7.71 268.3 7.72C267.82 7.74 267.82 7.74 267.51 7.68C267.45 7.67 267.39 7.64 267.33 7.64C266.84 7.66 266.34 7.68 265.84 7.71C265.58 7.73 265.44 7.68 265.27 7.65C265.21 7.64 265.15 7.61 265.09 7.62C264.73 7.63 264.38 7.64 264.03 7.67C263.67 7.69 263.54 7.58 263.28 7.58C262.92 7.58 262.56 7.61 262.21 7.63C261.92 7.64 261.64 7.65 261.35 7.67C261.07 7.68 260.78 7.69 260.5 7.71C260.34 7.72 260.23 7.71 260.11 7.67C259.95 7.63 259.76 7.6 259.58 7.56C259.32 7.51 259.32 7.51 259 7.52C258.93 7.53 258.85 7.53 258.79 7.53C258.26 7.56 258.26 7.56 257.6 7.48C257.57 7.48 257.49 7.49 257.46 7.5C257.37 7.53 257.29 7.57 257.2 7.6C257.09 7.58 256.94 7.57 256.87 7.54C256.65 7.46 256.3 7.57 256.07 7.49C255.99 7.46 255.85 7.44 255.72 7.43C255.59 7.42 255.43 7.44 255.3 7.45C254.94 7.46 254.94 7.46 254.63 7.57C254.47 7.63 254.25 7.62 254.05 7.63C253.83 7.65 253.63 7.65 253.45 7.6C253.29 7.56 253.1 7.54 252.87 7.56C252.59 7.58 252.3 7.59 252.01 7.6C251.95 7.6 251.88 7.6 251.82 7.59C251.16 7.52 251.16 7.51 250.84 7.53C250.69 7.54 250.55 7.54 250.41 7.55C250.17 7.57 250 7.55 249.83 7.51C249.77 7.49 249.71 7.47 249.65 7.47C249.37 7.48 249.08 7.49 248.8 7.5C248.59 7.51 248.37 7.51 248.16 7.53C247.82 7.56 247.65 7.48 247.41 7.44C247.06 7.46 246.7 7.47 246.34 7.49C246.18 7.5 246.07 7.5 245.94 7.47C245.78 7.43 245.64 7.39 245.38 7.41C245.03 7.43 244.67 7.44 244.31 7.45C244.08 7.42 243.9 7.34 243.56 7.36C243.35 7.38 243.13 7.39 242.92 7.4C242.63 7.41 242.35 7.42 242.06 7.44C241.76 7.45 241.76 7.45 241.29 7.38C241.02 7.33 240.74 7.38 240.46 7.39C240.24 7.39 240.13 7.45 240.19 7.53C240.24 7.6 240.12 7.66 239.92 7.67C239.43 7.69 238.92 7.72 238.43 7.74C238.37 7.74 238.29 7.73 238.24 7.72C237.7 7.64 237.7 7.64 237.47 7.66C237.11 7.67 236.75 7.68 236.4 7.71C236.15 7.72 235.98 7.7 235.82 7.66C235.7 7.62 235.59 7.62 235.43 7.62C233.72 7.71 232.01 7.78 230.3 7.87C230.04 7.88 229.9 7.85 229.72 7.81C229.66 7.8 229.61 7.78 229.55 7.78C229.4 7.78 229.26 7.79 229.12 7.8C228.48 7.83 227.84 7.86 227.19 7.89C226.92 7.9 226.85 7.95 226.73 8C226.64 8.04 226.53 8.05 226.37 8.06C226.22 8.06 226.11 8.06 225.99 8.02C225.83 7.98 225.65 7.96 225.41 7.97C225.13 7.99 224.84 8 224.55 8.02C224.41 8.02 224.29 8.04 224.25 8.09C224.24 8.1 224.33 8.12 224.38 8.13C224.55 8.16 224.72 8.21 224.91 8.23C225.11 8.26 225.33 8.23 225.54 8.22C225.61 8.22 225.68 8.21 225.75 8.21C225.81 8.22 225.89 8.22 225.94 8.23C226.16 8.29 226.4 8.33 226.71 8.29C226.98 8.31 227.12 8.41 227.46 8.39C227.67 8.37 227.88 8.36 228.1 8.36C228.16 8.36 228.22 8.38 228.28 8.39C228.45 8.42 228.59 8.47 228.85 8.45C229.13 8.43 229.42 8.42 229.7 8.41C229.86 8.4 229.97 8.4 230.09 8.44C230.25 8.48 230.42 8.51 230.67 8.49C230.87 8.47 231.09 8.47 231.31 8.46C231.58 8.44 231.58 8.44 232.08 8.52C232.13 8.53 232.21 8.54 232.27 8.54C232.63 8.52 232.98 8.51 233.34 8.49C233.48 8.48 233.61 8.5 233.71 8.54C233.75 8.55 233.73 8.58 233.75 8.6C233.03 8.63 232.32 8.66 231.61 8.7C231.34 8.72 231.22 8.67 231.04 8.64C230.98 8.63 230.92 8.61 230.86 8.61C230.36 8.63 229.86 8.65 229.36 8.68C229.21 8.69 229.09 8.68 228.97 8.65C228.68 8.55 228.31 8.6 227.98 8.62C227.72 8.63 227.63 8.67 227.66 8.75C227.7 8.85 227.86 8.88 228.26 8.86C228.4 8.85 228.54 8.84 228.68 8.84C228.82 8.83 228.95 8.85 229.06 8.88C229.17 8.92 229.3 8.94 229.43 8.93C229.72 8.92 230.01 8.91 230.28 8.89C230.51 8.87 230.7 8.89 230.86 8.93C231.04 8.98 231.25 8.97 231.46 8.96C231.94 8.94 231.95 8.94 232.25 9C232.31 9.01 232.37 9.04 232.43 9.04C232.92 9.02 233.43 9 233.91 8.97C234.17 8.96 234.32 9 234.49 9.03C234.55 9.04 234.61 9.07 234.66 9.06C235.02 9.05 235.38 9.04 235.73 9.01C235.9 9 235.99 9.01 236.13 9.04C236.45 9.11 236.46 9.11 236.91 9.09C237.05 9.08 237.2 9.06 237.33 9.07C237.46 9.08 237.57 9.12 237.69 9.14C237.74 9.15 237.81 9.17 237.87 9.16C238.16 9.15 238.44 9.14 238.73 9.13C239 9.11 239 9.11 239.5 9.19C239.7 9.22 239.91 9.2 240.12 9.19C240.34 9.17 240.54 9.17 240.71 9.22C240.87 9.27 241.08 9.27 241.29 9.26C241.5 9.25 241.7 9.22 241.91 9.26C242.39 9.33 242.39 9.33 242.68 9.32C243.11 9.3 243.53 9.28 243.97 9.26C244.02 9.26 244.1 9.27 244.15 9.28C244.27 9.3 244.38 9.34 244.51 9.35C244.64 9.36 244.79 9.35 244.93 9.34C245.37 9.31 245.4 9.31 245.7 9.39C245.95 9.46 246.26 9.36 246.5 9.44C246.63 9.48 246.81 9.52 247.06 9.49C247.27 9.48 247.49 9.47 247.7 9.46C248.05 9.44 248.05 9.45 248.48 9.52C248.53 9.53 248.61 9.54 248.66 9.54C248.95 9.53 249.24 9.52 249.52 9.5C249.84 9.47 250.05 9.52 250.29 9.57C250.48 9.6 250.71 9.57 250.91 9.56C251.13 9.55 251.33 9.55 251.49 9.6C251.67 9.65 251.87 9.65 252.09 9.64C252.29 9.63 252.5 9.6 252.7 9.63C253.15 9.71 253.15 9.71 253.47 9.7C253.76 9.68 254.05 9.67 254.33 9.66C254.39 9.65 254.46 9.67 254.51 9.68C254.63 9.7 254.74 9.74 254.87 9.75C255 9.76 255.15 9.74 255.29 9.74C255.43 9.73 255.59 9.71 255.72 9.72C255.85 9.73 255.97 9.76 256.07 9.79C256.19 9.82 256.3 9.82 256.47 9.81C256.68 9.79 256.89 9.79 257.1 9.78C257.22 9.8 257.34 9.83 257.45 9.85C257.57 9.88 257.7 9.88 257.86 9.87C258.39 9.84 258.39 9.84 258.84 9.92C259.04 9.96 259.25 9.93 259.46 9.92C259.67 9.91 259.88 9.9 260.04 9.95C260.21 10 260.41 10.01 260.63 9.99C260.77 9.98 260.91 9.98 261.06 9.97C261.12 9.97 261.2 9.98 261.25 9.99C261.48 10.04 261.7 10.09 262.02 10.05C262.29 10.06 262.43 10.17 262.77 10.15C263.05 10.13 263.34 10.13 263.62 10.1C263.87 10.08 264.06 10.12 264.19 10.16C264.42 10.24 264.75 10.13 264.98 10.21C265.12 10.25 265.29 10.29 265.55 10.27C265.83 10.25 265.92 10.28 266.01 10.36C266.05 10.4 266.04 10.44 265.96 10.47C265.87 10.51 265.78 10.5 265.64 10.46C265.48 10.41 265.29 10.41 265.06 10.42C264.83 10.43 264.7 10.36 264.51 10.34C264.32 10.31 264.1 10.35 263.91 10.32C263.45 10.24 263.45 10.24 263.14 10.26C262.93 10.27 262.71 10.27 262.5 10.29C262.25 10.31 262.09 10.27 261.92 10.24C261.86 10.22 261.8 10.2 261.75 10.2C261.25 10.22 260.75 10.24 260.26 10.27C260 10.28 259.86 10.24 259.69 10.21C259.63 10.2 259.56 10.17 259.51 10.18C259.08 10.19 258.66 10.22 258.23 10.24C258.15 10.27 258.06 10.3 257.98 10.34C257.9 10.38 257.78 10.39 257.62 10.39C257.35 10.39 257.08 10.45 256.81 10.38C256.52 10.31 256.5 10.32 256.23 10.33C255.88 10.35 255.52 10.35 255.19 10.4C255.14 10.41 255.08 10.43 255.08 10.45C255.07 10.46 255.16 10.47 255.22 10.48C255.41 10.51 255.63 10.47 255.82 10.5C255.94 10.52 256.05 10.55 256.17 10.57C256.23 10.58 256.3 10.58 256.37 10.58C256.45 10.58 256.51 10.57 256.58 10.57C256.65 10.57 256.72 10.58 256.77 10.59C257.01 10.64 257.26 10.68 257.47 10.74C257.68 10.79 257.87 10.76 258.08 10.75C258.91 10.84 258.91 10.84 259.47 10.82C259.61 10.81 259.75 10.8 259.89 10.8C259.95 10.8 260.01 10.83 260.07 10.84C260.24 10.88 260.41 10.91 260.65 10.89C260.86 10.87 261.08 10.87 261.29 10.86C261.58 10.84 261.58 10.84 262.06 10.92C262.18 10.94 262.31 10.94 262.47 10.93C262.6 10.92 262.74 10.94 262.84 10.98C262.87 10.99 262.86 11.02 262.87 11.04C262.45 11.06 262.01 11.07 261.6 11.1C261.33 11.12 261.21 11.07 261.03 11.04C260.97 11.03 260.91 11.01 260.85 11.01C260.43 11.03 260 11.05 259.58 11.07C259.53 11.08 259.46 11.11 259.46 11.12C259.45 11.16 259.56 11.19 259.71 11.19C259.92 11.18 260.12 11.16 260.31 11.21C260.47 11.26 260.66 11.28 260.89 11.26C261.03 11.25 261.17 11.25 261.31 11.24C261.68 11.21 262.01 11.21 262.29 11.3C262.5 11.32 262.71 11.3 262.91 11.29C263.06 11.28 263.21 11.27 263.32 11.3C263.55 11.35 263.77 11.4 264.09 11.36C264.43 11.4 264.69 11.47 264.98 11.53C265.11 11.56 265.21 11.58 265.37 11.56C265.44 11.55 265.51 11.55 265.58 11.55C265.73 11.54 265.88 11.52 266.01 11.53C266.14 11.54 266.24 11.57 266.36 11.6C266.42 11.61 266.48 11.63 266.54 11.63C266.75 11.62 266.97 11.61 267.18 11.6C267.39 11.59 267.6 11.58 267.81 11.57C267.99 11.6 268.17 11.64 268.35 11.67C268.64 11.65 268.92 11.64 269.2 11.63C269.52 11.61 269.52 11.61 269.97 11.69C270.18 11.73 270.39 11.7 270.59 11.69C270.91 11.66 271.13 11.71 271.36 11.76C271.4 11.77 271.49 11.78 271.55 11.77C271.77 11.75 271.97 11.77 272.13 11.81C272.25 11.85 272.36 11.86 272.51 11.85C273.01 11.83 273.5 11.81 274 11.78C274.06 11.78 274.13 11.79 274.19 11.8C274.63 11.88 274.63 11.88 274.96 11.86C275.25 11.85 275.51 11.84 275.74 11.91C275.79 11.92 275.86 11.94 275.92 11.94C276.27 11.93 276.63 11.92 276.98 11.89C277.14 11.88 277.25 11.89 277.38 11.92C277.54 11.95 277.68 12 277.95 11.98C278.68 11.93 278.68 11.94 279.54 12.03C279.61 12.03 279.69 12.02 279.76 12.02C279.9 12.01 280.01 12.02 280.14 12.05C280.43 12.12 280.44 12.11 280.72 12.1C280.93 12.09 281.15 12.09 281.36 12.07C281.68 12.04 281.89 12.09 282.13 12.14C282.32 12.17 282.54 12.14 282.74 12.13C282.96 12.12 283.16 12.12 283.33 12.17C283.44 12.2 283.56 12.22 283.7 12.21C284.2 12.19 284.7 12.17 285.19 12.14C285.26 12.14 285.33 12.15 285.39 12.16C285.88 12.24 285.88 12.24 286.37 12.21C286.52 12.2 286.65 12.2 286.77 12.23C286.88 12.25 287 12.28 287.12 12.3C287.33 12.29 287.55 12.29 287.76 12.27C287.92 12.26 288.03 12.27 288.15 12.29C288.32 12.33 288.46 12.39 288.72 12.36C288.85 12.34 289.01 12.35 289.14 12.34C289.3 12.32 289.41 12.33 289.53 12.36C289.69 12.4 289.85 12.44 290.1 12.42C290.38 12.4 290.67 12.39 290.95 12.38C291.11 12.37 291.22 12.38 291.34 12.41C291.5 12.45 291.67 12.48 291.92 12.46C292.41 12.43 292.41 12.44 292.89 12.51C293.01 12.53 293.15 12.53 293.3 12.52C293.44 12.51 293.57 12.53 293.67 12.57C293.76 12.61 293.75 12.63 293.76 12.65ZM255.21 1.35C255.07 1.36 254.93 1.37 254.72 1.26C254.71 1.24 254.72 1.22 254.69 1.2C254.62 1.17 254.51 1.14 254.38 1.14C254.15 1.14 253.86 1.18 253.87 1.21C253.87 1.24 253.95 1.26 254.09 1.28C254.15 1.29 254.2 1.31 254.25 1.32C254.42 1.35 254.55 1.4 254.79 1.37C254.76 1.42 254.83 1.46 254.98 1.47C255.03 1.47 255.09 1.47 255.13 1.46C255.26 1.44 255.28 1.4 255.18 1.3C255.17 1.32 255.18 1.34 255.22 1.35C255.26 1.36 255.35 1.35 255.4 1.34C255.52 1.32 255.58 1.29 255.55 1.26C255.53 1.25 255.45 1.23 255.4 1.23C255.31 1.23 255.23 1.26 255.21 1.35ZM290.19 15.89C289.88 15.91 289.51 15.9 289.2 15.95C289.14 15.96 289.08 15.98 289.08 16C289.07 16.01 289.16 16.03 289.21 16.03C289.33 16.05 289.46 16.05 289.61 16.04C289.84 16.03 289.97 16.09 290.15 16.12C290.21 16.13 290.28 16.13 290.34 16.13C290.69 16.12 291.04 16.1 291.39 16.08C291.45 16.08 291.51 16.07 291.57 16.06C291.74 16.02 291.72 16 291.55 15.97C291.37 15.94 291.22 15.89 291.03 15.87C290.76 15.83 290.48 15.88 290.19 15.89ZM265.63 16.8C265.41 16.81 265.21 16.82 264.99 16.83C264.92 16.83 264.85 16.83 264.79 16.84C264.65 16.85 264.55 16.87 264.49 16.92C264.59 16.95 264.71 16.97 264.84 16.96C265.05 16.96 265.26 16.94 265.47 16.94C265.7 16.93 265.84 16.99 266.01 17.02C266.07 17.03 266.14 17.03 266.21 17.03C266.53 17.03 266.72 16.97 266.66 16.88C266.62 16.8 266.45 16.76 266.25 16.77C266.04 16.78 265.83 16.79 265.63 16.8ZM291.67 14.03C291.72 14.01 291.78 14 291.8 13.98C291.88 13.91 291.85 13.87 291.71 13.82C291.54 13.76 291.32 13.8 291.13 13.8C291.08 13.8 291.03 13.83 291 13.85C290.99 13.86 290.99 13.88 291.01 13.89C291.22 13.94 291.45 13.98 291.67 14.03ZM254.15 10.33C253.94 10.34 253.73 10.35 253.52 10.36C253.47 10.37 253.42 10.39 253.39 10.41C253.33 10.44 253.39 10.48 253.57 10.48C253.77 10.49 253.99 10.47 254.2 10.46C254.47 10.44 254.63 10.4 254.53 10.36C254.43 10.32 254.3 10.31 254.15 10.33ZM26.45 7.65C26.58 7.65 26.73 7.64 26.87 7.63C27 7.63 27.1 7.6 27.16 7.56C27.05 7.52 26.93 7.51 26.8 7.51C26.58 7.52 26.38 7.53 26.17 7.54C26.04 7.55 25.91 7.58 25.88 7.62C25.85 7.65 26.14 7.67 26.45 7.65ZM235.85 7.46C235.91 7.47 235.96 7.5 236.02 7.5C236.16 7.5 236.3 7.49 236.43 7.48C236.49 7.47 236.53 7.45 236.56 7.43C236.57 7.42 236.57 7.4 236.54 7.39C236.42 7.33 235.92 7.35 235.83 7.42C235.83 7.43 235.85 7.45 235.85 7.46ZM222.2 0.6C222.22 0.62 222.22 0.64 222.24 0.66C222.27 0.7 222.37 0.73 222.51 0.74C222.62 0.71 222.67 0.68 222.67 0.64C222.66 0.62 222.65 0.6 222.63 0.58C222.6 0.54 222.5 0.52 222.36 0.5C222.26 0.53 222.2 0.56 222.2 0.6ZM301.67 17.02C301.63 17.03 301.59 17.05 301.54 17.07C301.66 17.1 301.77 17.11 301.85 17.09C301.9 17.08 301.94 17.06 301.97 17.05C301.86 17.01 301.75 17 301.67 17.02ZM298.98 17.19C299.03 17.2 299.08 17.21 299.15 17.22C299.24 17.23 299.34 17.21 299.4 17.17C299.35 17.16 299.3 17.14 299.24 17.13C299.14 17.12 299.04 17.14 298.98 17.19ZM300.68 16.96C300.65 16.99 300.71 17.01 300.87 17.04C300.91 17.02 300.96 17 300.99 16.99C301.03 16.96 300.96 16.93 300.8 16.91C300.76 16.93 300.72 16.94 300.68 16.96ZM291.55 15.61C291.52 15.64 291.58 15.66 291.74 15.68C291.78 15.67 291.83 15.65 291.86 15.64C291.9 15.61 291.83 15.58 291.67 15.56C291.63 15.58 291.59 15.59 291.55 15.61ZM279.11 6.74C279.07 6.76 279.03 6.77 278.99 6.79C279.1 6.83 279.21 6.84 279.29 6.82C279.35 6.8 279.38 6.79 279.42 6.77C279.3 6.73 279.2 6.72 279.11 6.74ZM267.19 2.04C267.29 2.05 267.38 2.03 267.46 1.98C267.4 1.97 267.35 1.96 267.29 1.95C267.19 1.94 267.1 1.96 267.03 2C267.08 2.02 267.14 2.03 267.19 2.04ZM260.86 1.74C260.82 1.76 260.79 1.78 260.74 1.79C260.86 1.83 260.97 1.84 261.05 1.82C261.1 1.81 261.13 1.79 261.17 1.77C261.05 1.74 260.95 1.73 260.86 1.74ZM217.95 0.6C217.91 0.62 217.87 0.63 217.83 0.65C217.94 0.68 218.05 0.69 218.13 0.67C218.19 0.66 218.22 0.64 218.26 0.63C218.14 0.59 218.03 0.58 217.95 0.6ZM4.26 10.79C4.21 10.78 4.15 10.77 4.1 10.76C3.97 10.79 3.94 10.82 4 10.85C4.05 10.86 4.11 10.87 4.17 10.88C4.3 10.85 4.33 10.82 4.26 10.79Z" fill="#4F9CF9" fill-opacity="1.000000" fill-rule="nonzero"/>
	<path id="Vector" d="M29.35 6.37C28.86 6.39 28.36 6.42 27.86 6.44C27.6 6.45 27.51 6.5 27.4 6.55C27.31 6.59 27.21 6.6 27.05 6.61C25.7 6.67 24.36 6.74 23.01 6.8C22.84 6.78 22.76 6.76 22.8 6.73C22.82 6.71 22.87 6.68 22.92 6.68C23.85 6.63 24.76 6.58 25.69 6.55C25.95 6.54 26.03 6.48 26.16 6.44C26.2 6.42 26.24 6.4 26.29 6.39C26.35 6.38 26.43 6.38 26.51 6.38C27.99 6.31 29.48 6.24 30.97 6.17C31.14 6.18 31.22 6.21 31.18 6.24C31.16 6.26 31.11 6.29 31.06 6.29C30.49 6.31 29.92 6.34 29.35 6.37Z" fill="#4F9CF9" fill-opacity="1.000000" fill-rule="nonzero"/>
	<path id="Vector" d="M301.72 13.04C301.5 13.06 301.21 13.08 300.98 13C300.87 12.97 300.75 12.96 300.6 12.97C300.39 12.98 300.17 12.99 299.95 13C299.9 13 299.82 12.98 299.77 12.97C299.65 12.95 299.54 12.91 299.41 12.9C299.28 12.89 299.13 12.92 298.99 12.91C298.82 12.9 298.74 12.87 298.79 12.84C298.82 12.82 298.87 12.8 298.93 12.79C299.73 12.75 299.73 12.75 299.95 12.79C300.13 12.83 300.29 12.87 300.53 12.84C300.74 12.83 300.96 12.82 301.17 12.81C301.47 12.8 301.47 12.8 301.94 12.88C302.07 12.9 302.2 12.9 302.35 12.88C302.49 12.88 302.61 12.9 302.72 12.93C302.65 12.97 302.55 13 302.42 13.01C302.2 13.02 301.99 13.03 301.72 13.04Z" fill="#4F9CF9" fill-opacity="1.000000" fill-rule="nonzero"/>
	<path id="Vector" d="M293.76 12.66C294.31 12.63 294.85 12.61 295.4 12.58C295.63 12.56 295.8 12.58 295.96 12.62C296.13 12.67 296.32 12.66 296.53 12.65C296.66 12.65 296.78 12.67 296.87 12.7C296.9 12.72 296.89 12.74 296.91 12.76C296.43 12.79 295.95 12.81 295.47 12.83C295.41 12.83 295.34 12.82 295.29 12.81C295.18 12.79 295.08 12.75 294.95 12.74C294.68 12.73 294.41 12.76 294.14 12.77C294.01 12.77 293.89 12.75 293.8 12.72C293.76 12.7 293.77 12.68 293.76 12.66Z" fill="#4F9CF9" fill-opacity="1.000000" fill-rule="nonzero"/>
	<path id="Vector" d="M96.79 1.88C97.36 1.85 97.92 1.83 98.49 1.8C98.66 1.82 98.74 1.84 98.7 1.87C98.68 1.89 98.63 1.92 98.58 1.92C97.44 1.98 96.31 2.03 95.18 2.09C95.01 2.07 94.94 2.04 94.97 2.01C94.99 1.99 95.04 1.97 95.1 1.96C95.66 1.94 96.22 1.91 96.79 1.88Z" fill="#4F9CF9" fill-opacity="1.000000" fill-rule="nonzero"/>
	<path id="Vector" d="M9.47 8.84C9.22 8.85 8.95 8.89 8.66 8.86C8.61 8.85 8.53 8.83 8.53 8.82C8.54 8.8 8.59 8.78 8.65 8.77C8.9 8.74 9.2 8.74 9.33 8.65C9.39 8.6 9.5 8.59 9.65 8.58C9.81 8.57 9.93 8.57 10.05 8.6C10.22 8.63 10.36 8.7 10.61 8.66C10.63 8.68 10.66 8.71 10.65 8.72C10.63 8.74 10.58 8.76 10.52 8.77C10.48 8.79 10.41 8.8 10.35 8.8C10.07 8.82 9.78 8.83 9.47 8.84Z" fill="#4F9CF9" fill-opacity="1.000000" fill-rule="nonzero"/>
	<path id="Vector" d="M234.44 8.59C234.65 8.58 234.88 8.58 235.08 8.56C235.25 8.55 235.35 8.56 235.48 8.59C235.7 8.64 235.71 8.63 236.26 8.64C236.32 8.64 236.39 8.66 236.42 8.68C236.45 8.69 236.42 8.71 236.39 8.72C236.35 8.74 236.29 8.76 236.24 8.76C235.9 8.76 235.55 8.84 235.22 8.75C235.05 8.71 234.87 8.69 234.64 8.71C234.5 8.72 234.35 8.72 234.21 8.73C234.07 8.73 233.93 8.72 233.84 8.68C233.72 8.63 233.79 8.61 234.01 8.61C234.16 8.61 234.3 8.6 234.44 8.59Z" fill="#4F9CF9" fill-opacity="1.000000" fill-rule="nonzero"/>
	<path id="Vector" d="M312.84 17.23C313.11 17.22 313.38 17.2 313.66 17.19C313.72 17.19 313.79 17.2 313.84 17.21C314.04 17.25 314.01 17.31 314.02 17.37C314.03 17.43 313.55 17.48 313.35 17.44C313.12 17.39 312.92 17.34 312.6 17.37C312.48 17.38 312.34 17.36 312.26 17.32C312.15 17.27 312.21 17.24 312.43 17.25C312.56 17.25 312.7 17.24 312.84 17.23Z" fill="#4F9CF9" fill-opacity="1.000000" fill-rule="nonzero"/>
	<path id="Vector" d="M175.51 0.18C175.79 0.16 176.07 0.14 176.35 0.14C176.52 0.14 176.6 0.18 176.56 0.21C176.54 0.23 176.49 0.25 176.43 0.26C175.87 0.29 175.31 0.31 174.75 0.34C174.58 0.32 174.5 0.3 174.54 0.27C174.56 0.25 174.61 0.22 174.67 0.22C174.95 0.2 175.23 0.19 175.51 0.18Z" fill="#4F9CF9" fill-opacity="1.000000" fill-rule="nonzero"/>
	<path id="Vector" d="M307.45 13.15C307.72 13.14 307.99 13.12 308.27 13.11C308.41 13.11 308.52 13.14 308.54 13.17C308.55 13.19 308.48 13.21 308.42 13.22C308.03 13.26 307.61 13.27 307.21 13.29C307.08 13.3 306.94 13.28 306.86 13.24C306.74 13.19 306.81 13.17 307.03 13.17C307.17 13.17 307.31 13.16 307.45 13.15Z" fill="#4F9CF9" fill-opacity="1.000000" fill-rule="nonzero"/>
	<path id="Vector" d="M241.59 8.76C241.73 8.76 241.87 8.74 242 8.74C242.15 8.75 242.24 8.79 242.28 8.82C242.33 8.86 242.32 8.9 242.28 8.94C242.21 9 242.14 9 241.98 8.96C241.73 8.89 241.72 8.9 241.23 8.9C241.17 8.9 241.1 8.88 241.06 8.87C240.99 8.84 241.03 8.8 241.18 8.78C241.29 8.77 241.45 8.77 241.59 8.76Z" fill="#4F9CF9" fill-opacity="1.000000" fill-rule="nonzero"/>
	<path id="Vector" d="M297.31 12.74C297.51 12.73 297.72 12.71 297.92 12.71C298.06 12.71 298.18 12.74 298.19 12.77C298.19 12.79 298.13 12.81 298.07 12.82C297.83 12.85 297.55 12.86 297.28 12.87C297.16 12.87 297.02 12.85 296.94 12.82C296.82 12.77 296.89 12.74 297.11 12.75C297.17 12.75 297.24 12.74 297.31 12.74Z" fill="#4F9CF9" fill-opacity="1.000000" fill-rule="nonzero"/>
	<path id="Vector" d="M265.31 11.2C265.01 11.22 264.73 11.2 264.75 11.17C264.78 11.12 264.9 11.1 265.03 11.09C265.24 11.08 265.45 11.07 265.66 11.06C265.79 11.05 265.91 11.07 266.02 11.11C265.96 11.15 265.86 11.17 265.73 11.18C265.59 11.19 265.45 11.2 265.31 11.2Z" fill="#4F9CF9" fill-opacity="1.000000" fill-rule="nonzero"/>
	<path id="Vector" d="M263.33 11.04C263.53 11.03 263.74 11.02 263.94 11.02C264.08 11.01 264.19 11.04 264.21 11.08C264.21 11.09 264.15 11.12 264.1 11.12C263.85 11.16 263.57 11.16 263.3 11.17C263.18 11.18 263.04 11.16 262.96 11.12C262.85 11.07 262.91 11.04 263.13 11.05C263.19 11.05 263.26 11.05 263.33 11.04Z" fill="#4F9CF9" fill-opacity="1.000000" fill-rule="nonzero"/>
	<path id="Vector" d="M239.13 8.75C239.34 8.74 239.54 8.73 239.74 8.72C239.89 8.72 240 8.75 240.01 8.78C240.02 8.8 239.95 8.82 239.9 8.83C239.65 8.86 239.38 8.87 239.11 8.88C238.98 8.88 238.84 8.86 238.77 8.83C238.65 8.78 238.72 8.75 238.93 8.76C239 8.76 239.07 8.75 239.13 8.75Z" fill="#4F9CF9" fill-opacity="1.000000" fill-rule="nonzero"/>
	<path id="Vector" d="M238 8.68C238.21 8.67 238.28 8.66 238.35 8.66C238.48 8.66 238.62 8.68 238.69 8.71C238.81 8.77 238.74 8.78 238.53 8.78C238.26 8.79 237.99 8.81 237.72 8.82C237.57 8.82 237.46 8.79 237.45 8.76C237.45 8.74 237.51 8.72 237.57 8.71C237.75 8.69 237.95 8.68 238 8.68Z" fill="#4F9CF9" fill-opacity="1.000000" fill-rule="nonzero"/>
	<path id="Vector" d="M261.57 1.31C261.43 1.31 261.28 1.33 261.15 1.32C260.98 1.32 260.91 1.28 260.95 1.25C260.98 1.23 261.03 1.21 261.08 1.2C261.35 1.19 261.64 1.18 261.91 1.16C262.08 1.18 262.15 1.21 262.11 1.24C262.08 1.26 262.03 1.28 261.98 1.29C261.85 1.3 261.71 1.3 261.57 1.31Z" fill="#4F9CF9" fill-opacity="1.000000" fill-rule="nonzero"/>
	<path id="Vector" d="M93.69 2.03C93.82 2.03 93.94 2.04 94.05 2.08C93.98 2.12 93.89 2.14 93.76 2.15C93.69 2.16 93.62 2.16 93.55 2.16C93.42 2.17 93.29 2.15 93.19 2.12C93.26 2.08 93.35 2.05 93.48 2.04C93.55 2.03 93.62 2.03 93.69 2.03Z" fill="#4F9CF9" fill-opacity="1.000000" fill-rule="nonzero"/>
	<path id="Vector" d="M305.97 13.15C305.96 13.11 306.23 13.07 306.47 13.07C306.59 13.07 306.72 13.09 306.79 13.12C306.91 13.17 306.84 13.19 306.63 13.19C306.5 13.19 306.36 13.21 306.23 13.21C306.08 13.2 306 13.18 305.97 13.15Z" fill="#4F9CF9" fill-opacity="1.000000" fill-rule="nonzero"/>
	<path id="Vector" d="M242.84 8.91C242.84 8.9 242.81 8.88 242.83 8.87C242.91 8.8 243.41 8.78 243.54 8.84C243.56 8.85 243.57 8.87 243.55 8.88C243.52 8.9 243.48 8.92 243.42 8.93C243.29 8.94 243.15 8.95 243.01 8.95C242.95 8.95 242.9 8.93 242.84 8.91Z" fill="#4F9CF9" fill-opacity="1.000000" fill-rule="nonzero"/>
	<path id="Vector" d="M11.01 8.64C10.5 8.67 10.49 8.67 10.58 8.61C10.67 8.55 10.82 8.52 11.04 8.52C11.1 8.52 11.17 8.51 11.23 8.52C11.29 8.52 11.38 8.54 11.39 8.55C11.41 8.58 11.34 8.61 11.21 8.63C11.16 8.64 11.08 8.64 11.01 8.64Z" fill="#4F9CF9" fill-opacity="1.000000" fill-rule="nonzero"/>
	<path id="Vector" d="M100.08 1.85C99.93 1.87 99.8 1.87 99.7 1.83C99.61 1.79 99.76 1.74 100.02 1.73C100.09 1.73 100.16 1.72 100.23 1.72C100.29 1.72 100.36 1.74 100.4 1.75C100.47 1.78 100.42 1.81 100.29 1.84C100.23 1.85 100.15 1.85 100.08 1.85Z" fill="#4F9CF9" fill-opacity="1.000000" fill-rule="nonzero"/>
	<path id="Vector" d="M305.07 13.05C305.1 13.04 305.14 13.02 305.19 13C305.35 13.03 305.42 13.05 305.37 13.08C305.35 13.1 305.3 13.11 305.26 13.13C305.1 13.11 305.03 13.08 305.07 13.05Z" fill="#4F9CF9" fill-opacity="1.000000" fill-rule="nonzero"/>
	<path id="Vector" d="M17.86 22.91C17.86 22.89 17.92 22.87 17.97 22.86C18.06 22.86 18.18 22.87 18.25 22.91C18.36 22.96 18.3 22.98 18.1 22.97C17.96 22.96 17.86 22.94 17.86 22.91Z" fill="#4F9CF9" fill-opacity="1.000000" fill-rule="nonzero"/>
	<path id="Vector" d="M244.6 7.75C244.66 7.76 244.72 7.77 244.77 7.78C244.69 7.83 244.6 7.85 244.51 7.84C244.45 7.83 244.4 7.81 244.34 7.8C244.41 7.76 244.5 7.74 244.6 7.75Z" fill="#4F9CF9" fill-opacity="1.000000" fill-rule="nonzero"/>
	<path id="Vector" d="M243.11 7.69C243.19 7.67 243.3 7.68 243.42 7.72C243.38 7.73 243.34 7.75 243.3 7.77C243.21 7.79 243.11 7.78 242.99 7.74C243.02 7.72 243.06 7.71 243.11 7.69Z" fill="#4F9CF9" fill-opacity="1.000000" fill-rule="nonzero"/>
	<path id="Vector" d="M241.96 7.75C242.01 7.76 242.07 7.77 242.12 7.78C242.05 7.83 241.96 7.85 241.86 7.83C241.8 7.83 241.75 7.81 241.69 7.8C241.77 7.75 241.85 7.74 241.96 7.75Z" fill="#4F9CF9" fill-opacity="1.000000" fill-rule="nonzero"/>
	<path id="Vector" d="M241.12 7.68C241.18 7.7 241.15 7.73 241.02 7.77C240.96 7.76 240.9 7.75 240.86 7.73C240.79 7.71 240.82 7.68 240.95 7.64C241 7.66 241.06 7.67 241.12 7.68Z" fill="#4F9CF9" fill-opacity="1.000000" fill-rule="nonzero"/>
</svg>
