<svg width="274.000000" height="52.289062" viewBox="0 0 274 52.2891" fill="none" xmlns="http://www.w3.org/2000/svg" xmlns:xlink="http://www.w3.org/1999/xlink">
	<desc>
			Created with Pixso.
	</desc>
	<defs/>
	<path id="Vector" d="M257.79 16.38C257.41 16.4 257.04 16.42 256.67 16.46C256.43 16.48 256.32 16.41 256.17 16.38C256.11 16.36 256.06 16.34 256.01 16.34C255.63 16.37 255.26 16.39 254.89 16.42C254.78 16.49 254.7 16.57 254.53 16.6C254.36 16.63 254.16 16.63 253.97 16.65C253.72 16.66 253.47 16.68 253.22 16.7C253.09 16.71 252.99 16.74 252.95 16.8C252.94 16.81 253.02 16.83 253.07 16.84C253.22 16.89 253.37 16.95 253.54 16.99C253.69 17.02 253.89 16.96 254.06 17.01C254.45 17.11 254.45 17.11 254.74 17.09C254.99 17.07 255.24 17.05 255.49 17.04C255.54 17.04 255.6 17.06 255.65 17.07C255.81 17.11 255.91 17.19 256.15 17.16C256.33 17.13 256.53 17.13 256.71 17.12C256.87 17.16 257.01 17.22 257.18 17.25C257.33 17.29 257.38 17.32 257.3 17.36C257.22 17.41 257.11 17.43 256.97 17.43C256.85 17.43 256.72 17.45 256.6 17.45C256.53 17.46 256.47 17.46 256.41 17.47C256.17 17.48 256.17 17.48 255.74 17.38C255.57 17.34 255.37 17.4 255.21 17.36C255.1 17.33 255 17.29 254.9 17.27C254.85 17.25 254.78 17.25 254.72 17.26C254.53 17.27 254.34 17.28 254.16 17.3C254.03 17.31 253.96 17.36 253.97 17.4C253.98 17.42 254.07 17.45 254.12 17.45C254.24 17.45 254.37 17.43 254.49 17.44C254.6 17.45 254.72 17.48 254.8 17.52C254.97 17.59 255.17 17.53 255.33 17.55C255.5 17.57 255.64 17.63 255.81 17.67C255.85 17.68 255.93 17.66 255.99 17.66C256.18 17.65 256.36 17.64 256.55 17.63C256.7 17.67 256.87 17.72 257.01 17.77C257.27 17.87 257.54 17.9 257.87 17.86C258.06 17.83 258.24 17.84 258.39 17.9C258.54 17.97 258.71 17.96 258.91 17.95C259.08 17.94 259.27 17.9 259.45 17.95C259.84 18.05 259.85 18.05 260.31 18.01C260.45 18 260.56 18 260.67 18.04C260.77 18.07 260.87 18.1 260.97 18.13C261.16 18.12 261.35 18.11 261.54 18.1C261.78 18.08 261.91 18.1 261.97 18.19C262 18.25 262.01 18.3 262.1 18.33C262.2 18.38 262.3 18.38 262.45 18.36C262.58 18.35 262.68 18.34 262.74 18.28C262.76 18.25 262.81 18.23 262.85 18.21C262.88 18.2 262.94 18.17 262.97 18.18C263.02 18.18 263.1 18.2 263.12 18.22C263.31 18.42 263.31 18.42 263.5 18.48C263.7 18.54 263.92 18.6 264.11 18.67C264.28 18.73 264.45 18.7 264.64 18.7C264.78 18.7 264.87 18.75 264.86 18.79C264.85 18.81 264.8 18.85 264.75 18.85C264.38 18.88 264 18.91 263.63 18.93C263.58 18.94 263.53 18.91 263.47 18.89C263.37 18.86 263.27 18.82 263.16 18.81C263.04 18.8 262.91 18.82 262.79 18.83C262.66 18.84 262.53 18.86 262.41 18.85C262.3 18.84 262.21 18.79 262.1 18.76C262.05 18.74 261.98 18.72 261.94 18.73C261.67 18.77 261.46 18.71 261.26 18.64C261.22 18.63 261.15 18.62 261.1 18.62C260.66 18.65 260.22 18.68 259.78 18.71C259.6 18.72 259.46 18.67 259.42 18.57C259.4 18.52 259.36 18.46 259.36 18.41C259.36 18.31 259.15 18.26 259 18.27C258.75 18.29 258.5 18.3 258.25 18.32C258.05 18.34 257.88 18.32 257.74 18.27C257.58 18.2 257.4 18.21 257.22 18.23C257.08 18.24 257.04 18.3 257.05 18.43C257.06 18.54 256.99 18.57 256.75 18.59C256.43 18.61 256.12 18.64 255.81 18.65C255.76 18.66 255.7 18.63 255.65 18.62C255.54 18.59 255.45 18.54 255.33 18.53C255.22 18.52 255.09 18.54 254.96 18.55C254.84 18.56 254.7 18.58 254.59 18.57C254.48 18.56 254.38 18.51 254.28 18.48C254.23 18.47 254.17 18.45 254.12 18.45C253.87 18.46 253.62 18.48 253.37 18.5C253.09 18.52 253.09 18.52 252.69 18.42C252.51 18.37 252.32 18.41 252.15 18.42C251.96 18.43 251.78 18.44 251.63 18.38C251.53 18.33 251.42 18.31 251.3 18.32C250.99 18.34 250.68 18.36 250.36 18.38C250.31 18.38 250.24 18.37 250.19 18.36C249.99 18.29 249.8 18.24 249.52 18.27C249.27 18.3 249.01 18.3 248.77 18.33C248.63 18.35 248.57 18.4 248.6 18.44C248.62 18.46 248.7 18.48 248.75 18.48C248.87 18.48 249 18.46 249.12 18.47C249.35 18.49 249.47 18.63 249.78 18.59C249.96 18.57 250.15 18.56 250.34 18.55C250.39 18.55 250.44 18.58 250.49 18.6C250.65 18.64 250.78 18.7 251 18.67C251.18 18.65 251.37 18.64 251.56 18.63C251.86 18.6 251.86 18.61 252.24 18.71C252.42 18.75 252.6 18.71 252.78 18.7C252.92 18.7 253.04 18.68 253.15 18.7C253.31 18.74 253.43 18.81 253.63 18.81C253.82 18.8 254.01 18.78 254.2 18.77C254.31 18.77 254.42 18.79 254.52 18.84C254.62 18.88 254.72 18.9 254.85 18.89C255.04 18.88 255.23 18.86 255.42 18.85C255.47 18.85 255.53 18.87 255.58 18.88C255.69 18.91 255.79 18.94 255.89 18.97C256.08 18.96 256.27 18.96 256.45 18.94C256.59 18.93 256.69 18.93 256.8 18.97C256.95 19.01 257.07 19.09 257.3 19.05C257.42 19.03 257.56 19.04 257.67 19.02C257.82 19 257.92 19.01 258.02 19.06C258.21 19.15 258.45 19.15 258.7 19.12C258.98 19.08 259.18 19.12 259.39 19.19C259.6 19.27 259.6 19.27 259.77 19.45C259.82 19.5 259.96 19.52 260.08 19.51C260.28 19.5 260.45 19.5 260.59 19.57C260.74 19.63 260.93 19.62 261.11 19.61C261.36 19.58 261.6 19.56 261.81 19.66C261.91 19.7 262.01 19.71 262.14 19.7C262.52 19.67 262.9 19.65 263.27 19.62C263.49 19.6 263.62 19.65 263.77 19.69C263.98 19.75 264.2 19.8 264.2 19.93C264.2 19.95 264.25 19.98 264.3 19.99C264.4 20.03 264.51 20.06 264.61 20.09C264.76 20.14 264.91 20.18 265.12 20.15C265.3 20.13 265.49 20.13 265.68 20.11C265.86 20.1 266.04 20.09 266.2 20.15C266.4 20.22 266.6 20.29 266.82 20.34C266.98 20.38 267.18 20.31 267.35 20.36C267.45 20.39 267.55 20.43 267.66 20.45C267.71 20.47 267.78 20.46 267.84 20.45C267.96 20.45 268.09 20.44 268.21 20.43C268.35 20.41 268.46 20.41 268.57 20.45C268.67 20.48 268.76 20.53 268.88 20.54C269.05 20.56 269.24 20.49 269.41 20.56C269.5 20.6 269.61 20.64 269.72 20.65C269.83 20.66 269.97 20.64 270.09 20.64C270.14 20.64 270.21 20.66 270.24 20.68C270.26 20.7 270.23 20.73 270.2 20.74C270.17 20.76 270.12 20.79 270.07 20.79C269.69 20.82 269.32 20.85 268.94 20.87C268.72 20.89 268.72 20.89 268.27 20.79C268.16 20.76 268.04 20.77 267.91 20.78C267.73 20.79 267.55 20.82 267.36 20.79C267.12 20.68 266.82 20.67 266.5 20.71C266.37 20.73 266.25 20.73 266.15 20.7C265.94 20.64 265.72 20.58 265.53 20.51C265.39 20.45 265.32 20.45 265.26 20.53C265.24 20.55 265.22 20.58 265.23 20.6C265.25 20.68 265.29 20.76 265.31 20.84C265.32 20.86 265.29 20.89 265.27 20.91C265.21 20.98 265.13 20.98 265 20.92C264.87 20.86 264.71 20.83 264.49 20.85C264.31 20.87 264.11 20.87 263.93 20.9C263.65 20.93 263.45 20.88 263.25 20.81C263.21 20.8 263.14 20.79 263.09 20.79C262.52 20.83 261.96 20.87 261.39 20.91C261.27 20.92 261.16 20.89 261.07 20.85C260.97 20.8 260.86 20.78 260.74 20.79C260.23 20.82 259.73 20.85 259.23 20.9C259.03 20.91 258.86 20.89 258.72 20.84C258.62 20.79 258.52 20.78 258.39 20.79C258.24 20.79 258.14 20.81 258.07 20.85C258 20.9 258.05 20.93 258.2 20.96C258.36 21 258.51 21.05 258.67 21.1C258.8 21.09 258.92 21.08 259.04 21.08C259.1 21.08 259.15 21.11 259.2 21.12C259.35 21.17 259.49 21.22 259.71 21.19C259.89 21.17 260.08 21.16 260.27 21.15C260.53 21.13 260.53 21.13 260.94 21.23C261.05 21.26 261.16 21.26 261.3 21.24C261.42 21.23 261.54 21.26 261.62 21.3C261.66 21.32 261.65 21.36 261.57 21.46C261.57 21.54 261.65 21.51 261.68 21.46C261.72 21.38 261.64 21.36 261.49 21.4C261.39 21.43 261.33 21.47 261.36 21.5C261.37 21.52 261.45 21.54 261.57 21.46C261.91 21.37 262.16 21.35 262.41 21.33C262.55 21.31 262.64 21.32 262.76 21.36C262.89 21.41 263.03 21.47 263.25 21.44C263.5 21.41 263.75 21.41 264 21.38C264.23 21.36 264.35 21.43 264.49 21.47C264.66 21.52 264.86 21.47 265.02 21.5C265.18 21.53 265.3 21.6 265.5 21.61C265.78 21.57 265.96 21.65 266.17 21.7C266.34 21.74 266.53 21.71 266.71 21.69C266.91 21.67 267.08 21.69 267.22 21.75C267.38 21.81 267.56 21.8 267.74 21.78C268.16 21.75 268.18 21.75 268.43 21.83C268.6 21.9 268.78 21.87 268.95 21.86C269.11 21.91 269.26 21.95 269.43 21.99C269.47 22 269.55 21.99 269.61 21.98C269.8 21.97 269.99 21.95 270.17 21.94C270.3 21.93 270.43 21.91 270.54 21.92C270.66 21.93 270.75 21.98 270.86 22.01C270.96 22.04 271.06 22.07 271.16 22.1C271.32 22.15 271.46 22.19 271.67 22.17C271.85 22.15 272.04 22.14 272.23 22.12C272.47 22.11 272.47 22.11 272.91 22.21C273.15 22.26 273.4 22.2 273.64 22.19C273.76 22.19 273.88 22.21 273.96 22.25C274 22.27 273.98 22.3 274 22.33C273.37 22.38 272.74 22.41 272.12 22.47C271.88 22.49 271.76 22.43 271.63 22.38C271.41 22.3 271.13 22.42 270.93 22.32C270.81 22.26 270.64 22.22 270.43 22.25C270.31 22.27 270.18 22.27 270.05 22.28C269.73 22.32 269.44 22.32 269.19 22.21C269.1 22.17 268.97 22.15 268.88 22.11C268.78 22.07 268.67 22.05 268.55 22.05C267.98 22.09 267.42 22.13 266.86 22.17C266.81 22.18 266.76 22.2 266.72 22.22C266.61 22.26 266.65 22.3 266.82 22.33C266.87 22.34 266.92 22.36 266.97 22.38C267.07 22.41 267.17 22.46 267.28 22.47C267.4 22.48 267.53 22.46 267.66 22.45C267.78 22.44 267.91 22.41 268.03 22.42C268.14 22.44 268.24 22.48 268.34 22.51C268.39 22.53 268.45 22.55 268.5 22.55C268.75 22.54 269 22.52 269.25 22.51C269.41 22.55 269.54 22.61 269.72 22.63C269.84 22.64 269.97 22.62 270.09 22.62C270.14 22.63 270.21 22.65 270.24 22.67C270.25 22.68 270.2 22.72 270.17 22.73C270.02 22.79 269.82 22.78 269.65 22.8C269.45 22.82 269.28 22.82 269.13 22.75C269.03 22.71 268.92 22.69 268.8 22.7C268.48 22.72 268.17 22.74 267.86 22.76C267.8 22.76 267.74 22.75 267.69 22.74C267.29 22.64 267.29 22.64 267.01 22.66C266.6 22.69 266.6 22.69 266.32 22.6C266.27 22.59 266.21 22.55 266.16 22.56C265.72 22.58 265.29 22.61 264.85 22.65C264.71 22.66 264.61 22.66 264.5 22.61C264.41 22.58 264.3 22.54 264.19 22.53C264.07 22.52 263.94 22.54 263.82 22.55C263.69 22.56 263.56 22.58 263.45 22.57C263.34 22.55 263.24 22.51 263.14 22.48C263.04 22.44 262.93 22.44 262.79 22.46C262.35 22.49 262.35 22.49 261.92 22.39C261.87 22.38 261.81 22.36 261.75 22.37C261.44 22.39 261.13 22.41 260.81 22.43C260.69 22.44 260.57 22.42 260.49 22.37C260.45 22.35 260.47 22.32 260.44 22.26C260.42 22.24 260.45 22.27 260.45 22.29C260.51 22.29 260.58 22.29 260.62 22.28C260.73 22.25 260.78 22.21 260.75 22.17C260.74 22.16 260.67 22.13 260.62 22.13C260.54 22.13 260.47 22.17 260.44 22.26C260.2 22.31 259.95 22.32 259.7 22.35C259.56 22.36 259.47 22.35 259.35 22.31C259.22 22.26 259.08 22.21 258.85 22.24C258.61 22.27 258.35 22.27 258.1 22.29C257.81 22.32 257.69 22.17 257.44 22.18C257.19 22.18 256.94 22.21 256.69 22.23C256.47 22.24 256.47 22.24 256.02 22.14C255.85 22.1 255.65 22.16 255.49 22.11C255.38 22.09 255.29 22.05 255.18 22.02C255.13 22.01 255.06 22.01 255 22.01C254.69 22.03 254.37 22.05 254.07 22.08C253.72 22.12 253.46 22.08 253.21 21.98C252.9 22 252.59 22.01 252.28 22.04C252.05 22.06 251.93 22.01 251.77 21.97C251.72 21.95 251.68 21.93 251.62 21.92C251.56 21.92 251.49 21.93 251.43 21.93C251.18 21.95 250.92 21.96 250.68 21.99C250.38 22.03 250.27 21.89 250.04 21.88C249.88 21.96 249.8 22.06 249.49 22.07C249.24 22.08 248.99 22.11 248.74 22.12C248.61 22.13 248.49 22.14 248.36 22.15C248.16 22.16 248.06 22.23 248.11 22.32C248.13 22.38 248.15 22.43 248.17 22.48C248.21 22.58 248.11 22.66 247.95 22.67C247.51 22.7 247.07 22.74 246.63 22.76C246.52 22.77 246.4 22.74 246.31 22.7C246.21 22.66 246.1 22.64 245.98 22.65C245.54 22.68 245.1 22.71 244.66 22.74C244.61 22.74 244.55 22.72 244.5 22.71C244.39 22.68 244.29 22.65 244.19 22.62C243.93 22.63 243.69 22.64 243.44 22.66C243.04 22.69 243.04 22.69 242.75 22.6C242.7 22.59 242.64 22.55 242.6 22.56C242.41 22.56 242.22 22.58 242.03 22.59C241.47 22.64 241.47 22.64 241.31 22.59C241.16 22.54 241.03 22.49 240.8 22.51C240.56 22.54 240.3 22.55 240.05 22.57C239.87 22.58 239.68 22.59 239.49 22.59C239.44 22.6 239.39 22.57 239.34 22.55C239.19 22.5 239.04 22.46 238.83 22.49C238.71 22.5 238.58 22.51 238.45 22.51C238.13 22.54 238.13 22.54 237.59 22.44C237.54 22.43 237.47 22.42 237.42 22.42C236.98 22.45 236.54 22.48 236.1 22.51C236.05 22.52 235.99 22.51 235.93 22.5C235.33 22.4 235.33 22.4 234.7 22.45C234.45 22.47 234.44 22.47 234.19 22.39C234.08 22.35 233.98 22.33 233.85 22.34C233.35 22.38 232.84 22.41 232.35 22.45C232.12 22.47 231.99 22.42 231.84 22.38C231.79 22.36 231.73 22.33 231.68 22.33C231.18 22.36 230.68 22.4 230.18 22.43C230.14 22.44 230.08 22.4 230.03 22.39C229.92 22.36 229.83 22.32 229.71 22.31C229.59 22.3 229.46 22.32 229.34 22.33C229.02 22.35 229.02 22.35 228.66 22.25C228.61 22.24 228.54 22.22 228.49 22.23C227.99 22.26 227.49 22.29 226.99 22.33C226.7 22.36 226.51 22.31 226.31 22.24C226.27 22.23 226.2 22.22 226.14 22.23C225.58 22.26 225.02 22.3 224.45 22.34C224.33 22.35 224.22 22.32 224.12 22.28C223.97 22.21 223.79 22.22 223.6 22.24C223.17 22.27 223.16 22.27 222.91 22.19C222.85 22.17 222.81 22.15 222.75 22.15C222.7 22.14 222.63 22.14 222.57 22.15C222.32 22.16 222.07 22.18 221.82 22.2C221.57 22.22 221.31 22.23 221.07 22.25C220.76 22.29 220.62 22.18 220.41 22.13C220.1 22.15 219.78 22.17 219.47 22.2C219.23 22.23 219.12 22.16 218.97 22.12C218.92 22.11 218.86 22.08 218.81 22.08C218.24 22.12 217.68 22.16 217.12 22.2C216.98 22.21 216.89 22.2 216.77 22.16C216.52 22.07 216.51 22.07 216.08 22.11C215.9 22.12 215.72 22.13 215.56 22.07C215.42 22.01 215.25 21.99 215.05 22.01C214.8 22.04 214.55 22.05 214.3 22.06C214.05 22.08 213.79 22.11 213.54 22.11C213.34 22.12 213.22 22.05 213.06 22.01C213.01 22 212.94 21.99 212.89 22C212.64 22.01 212.38 22.02 212.14 22.05C211.84 22.09 211.68 22 211.47 21.94C211.42 21.93 211.35 21.94 211.29 21.94C210.85 21.97 210.41 22.01 209.97 22.04C209.82 21.99 209.66 21.95 209.5 21.91C209.25 21.92 209 21.94 208.75 21.96C208.56 21.97 208.37 21.98 208.19 22C207.96 22.03 207.84 21.96 207.69 21.92C207.63 21.91 207.58 21.88 207.53 21.88C207.21 21.9 206.9 21.92 206.59 21.95C206.29 21.97 206.17 21.83 205.93 21.83C205.68 21.83 205.42 21.85 205.18 21.88C204.9 21.92 204.7 21.86 204.5 21.79C204.46 21.78 204.38 21.77 204.33 21.77C204.02 21.79 203.7 21.82 203.39 21.84C203.34 21.84 203.27 21.83 203.22 21.82C202.62 21.73 202.62 21.73 202.36 21.75C202.17 21.76 201.98 21.77 201.79 21.78C201.74 21.79 201.67 21.77 201.62 21.76C201.23 21.66 201.23 21.66 200.94 21.68C200.69 21.7 200.44 21.71 200.19 21.73C200.04 21.69 199.88 21.64 199.72 21.6C199.41 21.62 199.09 21.64 198.79 21.67C198.64 21.68 198.55 21.68 198.44 21.63C198.3 21.59 198.16 21.53 197.93 21.56C197.69 21.59 197.43 21.59 197.19 21.61C196.89 21.64 196.77 21.5 196.53 21.5C196.28 21.5 196.02 21.52 195.78 21.55C195.5 21.58 195.3 21.53 195.1 21.46C195.06 21.45 194.99 21.44 194.93 21.44C194.24 21.49 193.55 21.54 192.86 21.59C192.44 21.62 192.44 21.62 191.63 21.53C191.57 21.52 191.51 21.52 191.45 21.52C191.2 21.53 190.95 21.55 190.7 21.57C190.41 21.61 190.24 21.52 190.04 21.47C189.99 21.46 189.92 21.46 189.86 21.46C189.67 21.48 189.48 21.49 189.29 21.5C189.04 21.52 188.79 21.54 188.54 21.56C188.38 21.52 188.22 21.47 188.07 21.43C187.76 21.45 187.44 21.46 187.13 21.5C186.9 21.52 186.79 21.45 186.63 21.41C186.58 21.4 186.52 21.37 186.47 21.38C185.91 21.41 185.34 21.45 184.78 21.49C184.55 21.51 184.44 21.44 184.28 21.4C184.23 21.39 184.17 21.37 184.12 21.37C183.75 21.4 183.37 21.42 182.99 21.45C182.78 21.47 182.78 21.47 182.32 21.37C182.27 21.36 182.2 21.34 182.15 21.35C180.96 21.43 179.77 21.52 178.58 21.6C178.46 21.6 178.35 21.58 178.25 21.54C178.15 21.49 178.04 21.47 177.92 21.48C177.42 21.51 176.92 21.54 176.42 21.58C176.21 21.6 176.05 21.58 175.91 21.52C175.8 21.48 175.71 21.47 175.57 21.48C175.32 21.5 175.07 21.51 174.82 21.53C174.57 21.55 174.32 21.57 174.07 21.58C173.82 21.6 173.56 21.61 173.32 21.64C173.01 21.67 172.87 21.57 172.66 21.52C172.28 21.55 171.91 21.57 171.53 21.6C171.03 21.63 170.53 21.67 170.03 21.7C169.98 21.7 169.93 21.67 169.87 21.66C169.72 21.62 169.6 21.56 169.37 21.58C168.25 21.67 167.12 21.74 165.99 21.82C165.76 21.84 165.65 21.77 165.49 21.73C165.44 21.72 165.38 21.7 165.33 21.7C164.7 21.74 164.08 21.79 163.45 21.83C163.2 21.85 163.2 21.85 162.77 21.75C162.72 21.74 162.66 21.72 162.61 21.73C161.79 21.78 160.98 21.84 160.16 21.9C160.04 21.91 159.93 21.88 159.83 21.84C159.74 21.8 159.62 21.77 159.5 21.78C158.75 21.83 158 21.88 157.25 21.94C157.05 21.95 156.88 21.94 156.74 21.88C156.63 21.84 156.53 21.82 156.4 21.83C155.28 21.91 154.15 21.99 153.02 22.07C152.8 22.09 152.65 22.06 152.52 22C152.41 21.96 152.31 21.95 152.17 21.96C152.03 21.97 151.94 21.99 151.86 22.03C151.76 22.1 151.7 22.18 151.45 22.18C151.2 22.19 150.95 22.21 150.7 22.23C150.47 22.26 150.36 22.19 150.21 22.14C150.1 22.11 150 22.11 149.85 22.12C149.73 22.14 149.64 22.16 149.57 22.22C149.4 22.33 149.39 22.33 149.18 22.26C149.07 22.22 148.97 22.19 148.85 22.2C148.35 22.23 147.85 22.26 147.35 22.3C147.06 22.32 147.06 22.33 146.84 22.24C146.73 22.2 146.63 22.18 146.51 22.19C145.13 22.29 143.75 22.39 142.37 22.49C142.16 22.5 142.02 22.47 141.86 22.42C141.81 22.41 141.77 22.38 141.71 22.38C141.65 22.37 141.59 22.38 141.53 22.38C140.52 22.45 139.52 22.52 138.52 22.59C138.29 22.61 138.17 22.56 138.01 22.52C137.96 22.5 137.92 22.48 137.86 22.47C137.8 22.47 137.73 22.48 137.67 22.48C136.67 22.55 135.66 22.62 134.67 22.7C134.43 22.72 134.33 22.65 134.17 22.61C134.12 22.6 134.06 22.58 134.01 22.58C133.69 22.6 133.38 22.62 133.07 22.64C132.32 22.7 131.57 22.75 130.81 22.8C130.53 22.82 130.4 22.68 130.16 22.68C129.84 22.69 129.53 22.72 129.22 22.75C128.97 22.77 128.71 22.78 128.46 22.8C128.22 22.82 128.22 22.82 127.6 22.72C127.55 22.72 127.48 22.71 127.43 22.71C126.55 22.77 125.67 22.83 124.8 22.89C124.6 22.91 124.43 22.9 124.29 22.84C124.19 22.8 124.08 22.78 123.95 22.79C122.64 22.88 121.32 22.97 120.01 23.06C119.96 23.06 119.89 23.05 119.84 23.04C119.74 23.01 119.63 22.97 119.53 22.94C119.46 22.98 119.36 23.01 119.31 23.06C119.24 23.11 119.15 23.13 119 23.14C118.86 23.15 118.77 23.14 118.66 23.1C118.52 23.05 118.38 23.01 118.15 23.03C116.78 23.13 115.4 23.22 114.02 23.32C113.79 23.34 113.69 23.27 113.53 23.23C113.47 23.22 113.41 23.2 113.36 23.2C112.8 23.24 112.24 23.28 111.67 23.32C110.1 23.43 108.54 23.54 106.97 23.65C106.69 23.67 106.49 23.63 106.29 23.56C106.25 23.55 106.18 23.54 106.12 23.54C103.93 23.7 101.74 23.85 99.55 24C99.43 24.01 99.31 23.99 99.22 23.94C99.12 23.9 99.01 23.88 98.89 23.89C97.89 23.96 96.88 24.03 95.88 24.1C95.63 24.12 95.63 24.12 95.37 24.04C95.32 24.02 95.26 23.99 95.22 24C95.13 24 95.05 24.04 94.99 24.1C94.93 24.16 94.83 24.17 94.69 24.19C94.55 24.2 94.45 24.19 94.34 24.15C94.2 24.1 94.07 24.06 93.84 24.07C90.96 24.28 88.08 24.48 85.2 24.69C84.97 24.7 84.86 24.63 84.7 24.6C84.65 24.59 84.6 24.57 84.54 24.57C84.48 24.56 84.41 24.57 84.35 24.58C79.65 24.91 74.96 25.24 70.26 25.57C69.97 25.59 69.98 25.59 69.67 25.74C69.63 25.75 69.58 25.78 69.53 25.78C68.09 25.88 66.65 25.99 65.21 26.09C64.58 26.13 63.95 26.17 63.33 26.22C63.1 26.23 63.1 26.23 62.57 26.41C62.52 26.42 62.47 26.44 62.42 26.44C59.91 26.62 57.41 26.8 54.9 26.97C54.7 26.98 54.54 27.01 54.45 27.09C54.38 27.15 54.3 27.18 54.18 27.19C52.42 27.31 50.67 27.44 48.91 27.56C48.7 27.57 48.58 27.62 48.47 27.68C48.44 27.71 48.41 27.73 48.36 27.75C48.31 27.76 48.25 27.77 48.19 27.77C46.69 27.88 45.18 27.99 43.68 28.09C43.45 28.1 43.36 28.16 43.25 28.23C43.21 28.25 43.19 28.28 43.14 28.29C43.09 28.3 43.02 28.3 42.95 28.31C41.7 28.39 40.45 28.48 39.2 28.57C38.95 28.56 38.9 28.66 38.78 28.71C38.74 28.73 38.71 28.76 38.66 28.77C38.61 28.79 38.54 28.78 38.48 28.79C37.47 28.86 36.47 28.93 35.46 29C35.23 29.01 35.19 29.09 35.06 29.15C35.02 29.17 34.98 29.2 34.93 29.2C34.3 29.25 33.68 29.29 33.05 29.33C32.84 29.35 32.84 29.35 32.47 29.51C32.43 29.52 32.38 29.54 32.33 29.55C31.39 29.62 30.45 29.68 29.51 29.75C29.39 29.76 29.3 29.8 29.24 29.85C29.18 29.91 29.1 29.94 28.97 29.95C28.22 30 27.47 30.06 26.72 30.11C26.51 30.12 26.37 30.16 26.28 30.23C26.21 30.29 26.13 30.32 26 30.33C25.25 30.38 24.49 30.43 23.74 30.48C23.52 30.49 23.41 30.55 23.31 30.62C23.24 30.67 23.16 30.69 23.02 30.7C21.64 30.79 20.26 30.89 18.88 30.99C18.65 31.01 18.53 30.95 18.38 30.91C18.17 30.86 17.97 30.79 17.97 30.67C17.97 30.65 17.9 30.63 17.86 30.61C17.52 30.49 17.52 30.49 17.46 30.36C17.43 30.28 17.4 30.2 17.37 30.12C17.32 29.98 17.2 29.95 16.85 29.97C16.73 29.98 16.6 29.99 16.48 30C16.29 30.01 16.15 29.96 16.12 29.86C16.1 29.81 16.08 29.75 16.06 29.7C16.25 29.69 16.24 29.68 16.58 29.49C16.72 29.41 16.72 29.41 16.45 29.32C16.34 29.29 16.25 29.26 16.14 29.23C16.09 29.22 16.02 29.21 15.97 29.21C15.65 29.23 15.34 29.25 15.03 29.28C14.53 29.31 14.53 29.31 14.02 29.15C13.98 29.13 13.91 29.11 13.92 29.1C13.96 29.04 14.07 29.01 14.2 29C14.39 28.99 14.57 28.98 14.76 28.97C14.88 28.96 15.01 28.95 15.13 28.94C15.25 28.88 15.37 28.82 15.48 28.75C15.66 28.66 15.66 28.65 15.42 28.59C15.27 28.54 15.1 28.5 14.95 28.46C14.76 28.47 14.57 28.49 14.39 28.5C14.15 28.51 14.06 28.48 13.99 28.37C13.94 28.28 14.01 28.2 14.19 28.18C14.37 28.16 14.55 28.15 14.64 28.07C14.73 27.99 14.89 27.96 15.09 27.95C15.22 27.95 15.34 27.94 15.47 27.93C15.63 27.91 15.72 27.83 15.68 27.74C15.66 27.68 15.63 27.63 15.48 27.61C14.82 27.56 14.81 27.56 14.49 27.45C14.46 27.44 14.43 27.41 14.45 27.4C14.47 27.37 14.51 27.34 14.55 27.33C14.99 27.3 15.43 27.26 15.86 27.24C16.01 27.23 16.11 27.22 16.16 27.16C16.23 27.08 16.2 27 16.07 26.94C16.03 26.93 15.96 26.9 15.91 26.9C15.41 26.93 14.91 26.97 14.41 27C14.37 27 14.28 26.98 14.26 26.95C14.23 26.92 14.28 26.86 14.42 26.85C14.59 26.82 14.77 26.82 14.89 26.74C15.05 26.62 15.25 26.52 15.43 26.41C15.46 26.39 15.51 26.35 15.5 26.35C15.41 26.31 15.3 26.28 15.2 26.25C15.03 26.19 15.03 26.11 15.07 26.04C15.1 25.98 15.21 25.95 15.35 25.95C15.41 25.95 15.49 25.95 15.54 25.94C15.67 25.9 15.71 25.86 15.65 25.82C15.61 25.8 15.54 25.78 15.49 25.78C14.68 25.83 13.87 25.88 13.06 25.95C12.82 25.97 12.71 25.91 12.56 25.87C12.45 25.83 12.35 25.82 12.21 25.84C12.09 25.87 11.96 25.85 11.88 25.8C11.82 25.75 11.93 25.72 12.24 25.68C12.29 25.67 12.36 25.66 12.4 25.65C12.84 25.47 12.84 25.47 13.14 25.45C13.44 25.43 13.44 25.42 13.6 25.33C13.67 25.29 13.75 25.24 13.82 25.2C13.84 25.18 13.89 25.15 13.87 25.14C13.79 25.09 13.68 25.08 13.54 25.09C13.25 25.11 12.9 25.09 12.74 25.25C12.68 25.3 12.59 25.32 12.45 25.33C11.08 25.42 9.7 25.52 8.32 25.62C8.1 25.63 8 25.69 7.91 25.76C7.83 25.81 7.75 25.83 7.61 25.84C7.46 25.85 7.35 25.85 7.26 25.8C7.22 25.77 7.26 25.72 7.37 25.68C7.53 25.61 7.5 25.53 7.45 25.45C7.41 25.4 7.29 25.37 7.17 25.37C6.98 25.38 6.81 25.39 6.65 25.33C6.56 25.29 6.44 25.27 6.34 25.23C6.14 25.17 5.95 25.1 5.67 25.14C5.48 25.13 5.35 25.07 5.2 25.02C4.94 24.95 4.92 24.94 5.1 24.86C5.31 24.77 5.15 24.65 5.26 24.56C5.38 24.47 5.55 24.39 5.7 24.3C5.73 24.28 5.77 24.26 5.81 24.23C5.72 24.2 5.64 24.16 5.54 24.14C5.4 24.11 5.34 24.07 5.34 23.97C5.32 23.96 5.33 24 5.36 24.01C5.39 24.02 5.48 24.01 5.52 24C5.62 23.96 5.68 23.92 5.65 23.89C5.64 23.87 5.56 23.85 5.52 23.85C5.43 23.85 5.36 23.89 5.34 23.97C4.91 24.04 4.47 24.07 4.03 24.1C3.99 24.1 3.93 24.07 3.88 24.05C3.7 24 3.7 24 3.19 23.98C3.14 23.98 3.07 23.96 3.04 23.94C2.93 23.84 2.93 23.73 2.88 23.62C2.98 23.55 3.08 23.49 3.18 23.42C3.38 23.29 3.65 23.17 3.81 23.02C3.78 22.94 3.73 22.86 3.9 22.8C4.37 22.72 4.37 22.72 4.5 22.64C4.87 22.42 5.23 22.2 5.61 21.98C5.72 21.92 5.72 21.89 5.53 21.87C5.48 21.86 5.42 21.86 5.35 21.86C5.16 21.87 4.98 21.9 4.79 21.9C4.6 21.89 4.47 21.82 4.31 21.78C4.16 21.73 4 21.68 3.85 21.64C3.67 21.64 3.49 21.69 3.31 21.61C3.18 21.56 3.01 21.52 2.85 21.47C2.97 21.35 3.19 21.25 3.36 21.14C3.51 21.04 3.52 21.05 3.94 20.97C4.13 20.93 4.2 20.75 4.03 20.7C3.83 20.63 3.62 20.57 3.42 20.51C3.24 20.52 3.05 20.56 2.88 20.49C2.75 20.43 2.6 20.39 2.38 20.42C2.01 20.45 1.63 20.47 1.25 20.5C1.12 20.51 0.98 20.5 0.93 20.45C0.89 20.41 1 20.35 1.12 20.34C1.31 20.33 1.48 20.31 1.58 20.23C1.67 20.14 1.84 20.12 2.03 20.11C2.09 20.11 2.15 20.09 2.17 20.07C2.31 19.97 2.46 19.89 2.75 19.9C2.88 19.86 2.94 19.82 2.9 19.78C2.88 19.76 2.8 19.73 2.75 19.74C2.44 19.75 2.12 19.77 1.82 19.8C1.67 19.81 1.56 19.82 1.47 19.77C1.41 19.73 1.44 19.69 1.56 19.64C1.67 19.6 1.7 19.56 1.69 19.5C1.67 19.37 1.56 19.34 1.19 19.34C0.93 19.35 0.87 19.33 0.81 19.22C0.8 19.19 0.76 19.16 0.78 19.14C0.95 19.03 1.05 18.89 1.36 18.84C1.48 18.82 1.61 18.82 1.69 18.78C1.76 18.74 1.83 18.69 1.91 18.65C2.01 18.6 2.08 18.55 2.03 18.52C1.96 18.47 1.84 18.46 1.7 18.48C1.57 18.5 1.45 18.5 1.32 18.51C1.1 18.53 0.91 18.49 0.89 18.42C0.81 18.23 0.74 18.04 0.67 17.85C0.67 17.83 0.69 17.8 0.72 17.78C0.82 17.71 0.94 17.65 1.05 17.58C1.18 17.51 1.38 17.52 1.56 17.51C1.8 17.48 1.8 17.49 2.13 17.33C2.26 17.27 2.49 17.29 2.62 17.24C2.66 17.22 2.72 17.19 2.71 17.17C2.7 17.15 2.62 17.14 2.56 17.13C2.51 17.12 2.45 17.11 2.39 17.12C1.7 17.16 1.01 17.22 0.32 17.26C0.2 17.27 0.07 17.23 0.03 17.18C-0.01 17.14 0 17.08 0 17.03C0.1 16.96 0.23 16.9 0.33 16.83C0.4 16.77 0.48 16.75 0.62 16.74C0.81 16.74 1 16.72 1.21 16.7C1.61 16.47 2 16.22 2.42 15.98C2.59 15.89 2.55 15.79 2.58 15.69C2.62 15.59 2.87 15.61 3.04 15.58C3.18 15.56 3.23 15.51 3.17 15.47C3.14 15.45 3.07 15.43 3.02 15.43C2.89 15.43 2.77 15.44 2.64 15.45C2.52 15.46 2.37 15.45 2.27 15.48C2.17 15.5 2.11 15.56 2.04 15.61C1.97 15.66 1.88 15.68 1.73 15.68C1.55 15.68 1.36 15.7 1.18 15.71C0.97 15.65 0.76 15.58 0.56 15.52C0.52 15.5 0.52 15.47 0.52 15.44C0.53 15.38 0.47 15.34 0.34 15.31C0.24 15.28 0.15 15.25 0.05 15.21C0.13 15.17 0.21 15.13 0.27 15.08C0.41 14.98 0.57 14.91 0.86 14.91C0.97 14.85 1.07 14.77 1.21 14.73C1.35 14.69 1.59 14.73 1.7 14.63C1.75 14.59 1.83 14.53 1.93 14.51C2.1 14.48 2.31 14.5 2.41 14.41C2.46 14.36 2.55 14.31 2.66 14.3C2.78 14.28 2.91 14.28 3 14.25C3.05 14.23 3.1 14.21 3.1 14.18C3.1 14.17 3.03 14.15 2.97 14.14C2.93 14.13 2.86 14.12 2.8 14.12C2.61 14.13 2.43 14.15 2.24 14.16C2.19 14.16 2.12 14.15 2.07 14.14C1.9 14.11 1.91 14.08 2.04 14.02C2.18 13.97 2.27 13.89 2.38 13.83C2.5 13.82 2.66 13.82 2.74 13.79C2.88 13.74 2.98 13.67 3.09 13.6C3.22 13.59 3.35 13.59 3.46 13.57C3.51 13.57 3.54 13.53 3.58 13.51C3.65 13.47 3.72 13.41 3.82 13.39C3.99 13.36 4.19 13.37 4.29 13.28C4.35 13.23 4.44 13.18 4.54 13.17C4.84 13.17 4.96 13.08 5.12 12.99C5.23 12.93 5.47 12.96 5.6 12.9C5.68 12.86 5.74 12.81 5.83 12.77C5.86 12.75 5.93 12.75 5.99 12.74C6.3 12.72 6.62 12.7 6.93 12.67C6.98 12.67 7.02 12.64 7.06 12.62C7.14 12.58 7.19 12.52 7.29 12.5C7.39 12.47 7.53 12.47 7.65 12.46C8.04 12.44 8.07 12.44 8.25 12.3C8.39 12.19 8.75 12.27 8.86 12.15C8.93 12.08 9.06 12.02 9.28 12.01C9.6 12 9.91 11.97 10.22 11.95C10.5 11.93 10.5 11.93 10.8 11.78C10.94 11.71 11.14 11.72 11.32 11.71C11.51 11.69 11.68 11.67 11.77 11.59C11.87 11.51 12.03 11.49 12.23 11.48C12.4 11.46 12.61 11.47 12.75 11.41C13.09 11.25 13.08 11.25 13.32 11.23C13.7 11.21 14.07 11.18 14.45 11.15C14.7 11.14 14.96 11.13 15.2 11.1C15.37 11.07 15.44 10.98 15.56 10.92C15.87 10.89 16.18 10.87 16.49 10.85C16.93 10.81 17.37 10.79 17.81 10.75C18 10.69 18.02 10.56 18.34 10.55C18.53 10.55 18.72 10.53 18.91 10.51C19.22 10.49 19.53 10.46 19.85 10.45C20.09 10.44 20.13 10.35 20.25 10.3C20.3 10.28 20.33 10.25 20.38 10.25C20.88 10.2 21.39 10.19 21.87 10.13C21.92 10.12 21.96 10.08 21.97 10.06C21.98 10.05 21.92 10.02 21.88 10.01C21.83 10 21.76 9.99 21.71 9.99C20.14 10.1 18.57 10.21 17 10.32C16.78 10.33 16.78 10.33 16.25 10.51C16.2 10.52 16.15 10.54 16.09 10.55C15.84 10.56 15.59 10.58 15.34 10.6C15.14 10.62 14.97 10.6 14.83 10.54C14.73 10.5 14.62 10.49 14.49 10.49C14.35 10.49 14.25 10.51 14.17 10.56C14.06 10.62 14 10.69 13.77 10.71C12.7 10.78 11.64 10.86 10.57 10.93C10.43 10.91 10.35 10.88 10.39 10.84C10.41 10.81 10.46 10.78 10.51 10.78C10.94 10.74 11.38 10.71 11.82 10.68C11.88 10.67 11.96 10.68 12 10.66C12.16 10.59 12.23 10.47 12.54 10.46C12.72 10.46 12.91 10.43 13.08 10.41C13.13 10.4 13.18 10.37 13.19 10.35C13.19 10.33 13.13 10.31 13.09 10.3C12.92 10.25 12.73 10.31 12.56 10.27C12.5 10.26 12.42 10.25 12.41 10.23C12.4 10.21 12.47 10.18 12.51 10.16C12.56 10.15 12.61 10.13 12.67 10.13C13.17 10.09 13.67 10.05 14.17 10.02C14.38 10.01 14.52 9.97 14.61 9.89C14.68 9.84 14.77 9.81 14.89 9.8C15.77 9.74 16.65 9.68 17.53 9.62C17.75 9.61 17.86 9.55 17.95 9.48C18.03 9.43 18.11 9.41 18.25 9.4C19.51 9.32 20.76 9.22 22.01 9.14C22.24 9.13 22.31 9.06 22.43 9C22.47 8.98 22.5 8.95 22.55 8.94C22.6 8.92 22.67 8.93 22.74 8.92C23.74 8.85 24.74 8.78 25.75 8.71C25.98 8.7 26.03 8.62 26.15 8.56C26.19 8.54 26.23 8.51 26.28 8.51C27.03 8.45 27.78 8.4 28.53 8.35C29.03 8.31 29.54 8.28 30.04 8.24C30.28 8.23 30.28 8.22 30.62 8.07C30.66 8.05 30.71 8.03 30.76 8.03C32.2 7.92 33.64 7.82 35.08 7.72C35.2 7.71 35.29 7.68 35.35 7.62C35.41 7.57 35.5 7.53 35.62 7.52C36.74 7.44 37.87 7.36 39 7.28C39.21 7.27 39.35 7.23 39.44 7.16C39.51 7.1 39.6 7.08 39.72 7.07C40.85 6.99 41.98 6.91 43.11 6.83C43.33 6.82 43.43 6.76 43.54 6.7C43.58 6.67 43.61 6.64 43.65 6.63C44.21 6.59 44.77 6.54 45.34 6.51C45.57 6.5 45.65 6.43 45.75 6.37C45.82 6.31 45.91 6.3 46.06 6.29C46.37 6.27 46.68 6.25 46.99 6.22C47.04 6.21 47.09 6.18 47.1 6.16C47.1 6.11 47.02 6.08 46.87 6.07C45.37 6.18 43.86 6.28 42.36 6.39C42.11 6.4 42.11 6.4 41.78 6.56C41.74 6.58 41.69 6.6 41.63 6.6C40.19 6.7 38.75 6.8 37.31 6.91C37.19 6.91 37.1 6.95 37.04 7.01C36.98 7.06 36.89 7.1 36.77 7.11C35.4 7.21 34.02 7.3 32.64 7.4C32.43 7.41 32.29 7.45 32.2 7.52C32.13 7.58 32.04 7.61 31.92 7.61C30.6 7.7 29.29 7.8 27.96 7.89C27.83 7.9 27.73 7.85 27.74 7.81C27.74 7.78 27.8 7.75 27.85 7.74C28.53 7.69 29.22 7.63 29.91 7.59C30.14 7.58 30.21 7.51 30.33 7.45C30.36 7.43 30.39 7.4 30.44 7.39C30.5 7.38 30.56 7.38 30.63 7.37C32.26 7.26 33.89 7.14 35.52 7.03C35.75 7.02 35.8 6.94 35.92 6.88C35.96 6.86 36 6.83 36.05 6.83C36.55 6.79 37.05 6.76 37.55 6.72C38.43 6.66 39.31 6.6 40.19 6.54C40.44 6.52 40.44 6.52 40.77 6.37C40.81 6.35 40.86 6.33 40.91 6.32C43.23 6.16 45.55 6 47.87 5.83C47.99 5.83 48.08 5.79 48.14 5.73C48.2 5.68 48.28 5.64 48.4 5.63C51.54 5.41 54.67 5.19 57.8 4.97C58.01 4.96 58.15 4.92 58.25 4.85C58.31 4.79 58.4 4.76 58.53 4.75C61.97 4.51 65.42 4.27 68.87 4.03C71.19 3.87 73.51 3.7 75.83 3.54C76.04 3.53 76.15 3.48 76.26 3.41C76.29 3.39 76.33 3.35 76.37 3.35C76.87 3.31 77.37 3.27 77.87 3.23C78.02 3.28 78.18 3.32 78.33 3.36C78.45 3.3 78.56 3.24 78.68 3.17C79.43 3.13 80.17 3.05 80.93 3.03C80.98 3.03 81.04 3.06 81.09 3.08C81.44 3.18 81.64 3.17 81.87 3.04C81.95 2.99 82.02 2.94 82.14 2.93C82.51 2.91 82.89 2.89 83.26 2.85C83.47 2.83 83.63 2.85 83.78 2.91C83.88 2.95 83.99 2.97 84.11 2.96C84.8 2.91 85.49 2.86 86.18 2.81C86.23 2.81 86.27 2.78 86.31 2.76C86.39 2.72 86.46 2.67 86.54 2.63C86.64 2.66 86.75 2.68 86.84 2.71C86.94 2.76 87.04 2.76 87.19 2.74C89.94 2.55 92.7 2.36 95.46 2.16C95.69 2.14 95.79 2.21 95.95 2.25C96.01 2.26 96.06 2.28 96.12 2.28C96.18 2.28 96.24 2.27 96.3 2.27C98.37 2.12 100.44 1.98 102.51 1.83C102.78 1.81 102.78 1.81 103.19 1.91C103.24 1.93 103.3 1.94 103.36 1.94C104.3 1.87 105.24 1.8 106.18 1.74C106.3 1.73 106.4 1.76 106.51 1.79C106.73 1.87 106.74 1.87 106.9 1.76C106.98 1.71 107.06 1.68 107.18 1.67C107.32 1.65 107.43 1.65 107.54 1.68C107.69 1.72 107.8 1.79 108.03 1.77C109.03 1.7 110.04 1.63 111.04 1.56C111.26 1.54 111.39 1.59 111.54 1.63C111.59 1.65 111.64 1.67 111.7 1.68C111.75 1.68 111.82 1.67 111.88 1.67C113.14 1.58 114.39 1.49 115.64 1.4C115.88 1.38 115.98 1.45 116.14 1.49C116.19 1.5 116.25 1.52 116.3 1.52C117.05 1.47 117.81 1.41 118.56 1.36C118.83 1.34 118.83 1.34 119.24 1.44C119.29 1.45 119.35 1.47 119.41 1.46C120.28 1.4 121.16 1.34 122.04 1.28C122.31 1.26 122.31 1.26 123.09 1.35C123.15 1.35 123.21 1.36 123.26 1.36C124.27 1.29 125.27 1.22 126.27 1.15C126.47 1.13 126.64 1.14 126.79 1.2C126.89 1.25 127 1.26 127.12 1.25C128.25 1.17 129.38 1.1 130.5 1.01C130.72 1 130.86 1.03 131.01 1.08C131.06 1.1 131.11 1.12 131.17 1.13C131.22 1.13 131.29 1.13 131.35 1.12C132.48 1.04 133.61 0.97 134.73 0.88C134.96 0.86 135.08 0.92 135.23 0.96C135.28 0.97 135.34 1 135.39 1C135.83 0.97 136.27 0.95 136.7 0.91C136.94 0.89 137.04 0.96 137.2 1C137.25 1.01 137.32 1.03 137.37 1.03C138.31 0.96 139.25 0.9 140.19 0.83C140.32 0.82 140.42 0.83 140.52 0.88C140.66 0.93 140.83 0.96 141.03 0.94C141.47 0.9 141.91 0.88 142.35 0.84C142.61 0.83 142.61 0.83 143.4 0.91C143.45 0.92 143.52 0.93 143.57 0.92C144.32 0.87 145.08 0.82 145.83 0.77C146.03 0.75 146.2 0.76 146.34 0.82C146.44 0.86 146.54 0.88 146.67 0.87C147.36 0.82 148.05 0.77 148.74 0.73C148.99 0.71 149.24 0.68 149.49 0.68C149.68 0.68 149.81 0.76 149.97 0.8C150.02 0.81 150.09 0.79 150.15 0.79C151.03 0.73 151.91 0.67 152.78 0.6C153.01 0.59 153.13 0.64 153.29 0.68C153.34 0.7 153.4 0.72 153.44 0.72C153.76 0.71 154.07 0.68 154.38 0.66C154.76 0.63 155.14 0.61 155.51 0.58C155.81 0.55 155.93 0.69 156.17 0.7C156.36 0.7 156.55 0.67 156.73 0.66C157.11 0.63 157.48 0.6 157.86 0.58C157.99 0.57 158.1 0.55 158.14 0.49C158.14 0.48 158.08 0.45 158.04 0.44C157.53 0.27 157.53 0.27 157.03 0.31C156.71 0.33 156.4 0.35 156.08 0.37C156.03 0.38 155.97 0.36 155.92 0.35C155.77 0.33 155.78 0.3 155.91 0.24C156.04 0.18 156.14 0.11 156.25 0.04C156.4 0.08 156.55 0.12 156.71 0.17C156.84 0.16 156.96 0.15 157.09 0.14C157.71 0.1 158.34 0.06 158.96 0.02C159.01 0.01 159.07 0.05 159.12 0.06C159.27 0.11 159.41 0.15 159.63 0.13C160.19 0.08 160.76 0.05 161.32 0.01C161.57 -0.01 161.57 -0.01 162 0.09C162.05 0.1 162.11 0.12 162.16 0.11C162.73 0.08 163.29 0.04 163.86 0C163.98 -0.01 164.1 0.01 164.18 0.06C164.22 0.08 164.21 0.11 164.36 0.37C164.8 0.59 165.11 0.57 165.42 0.55C165.55 0.54 165.67 0.53 165.76 0.5C165.81 0.48 165.86 0.46 165.86 0.43C165.86 0.42 165.78 0.39 165.73 0.39C165.35 0.36 164.99 0.42 164.62 0.44C164.45 0.45 164.31 0.39 164.28 0.3C164.27 0.27 164.26 0.24 164.25 0.22C164.23 0.19 164.23 0.16 164.21 0.14C164.07 0.13 163.98 0.16 163.91 0.21C163.86 0.26 163.79 0.31 163.68 0.34C163.58 0.36 163.44 0.36 163.32 0.36C163.19 0.37 163.06 0.39 162.95 0.38C162.83 0.37 162.74 0.32 162.64 0.29C162.59 0.28 162.53 0.26 162.48 0.26C162.04 0.29 161.61 0.32 161.17 0.35C160.95 0.37 160.83 0.3 160.69 0.26C160.57 0.23 160.46 0.24 160.44 0.31C160.39 0.49 160.57 0.56 160.95 0.53C161.27 0.5 161.56 0.5 161.81 0.61C161.85 0.62 161.92 0.63 161.97 0.62C162.29 0.6 162.59 0.58 162.91 0.56C162.96 0.56 163.02 0.56 163.08 0.57C163.85 0.66 163.85 0.66 164.11 0.64C164.24 0.63 164.36 0.62 164.35 0.38C164.59 0.11 164.97 0.09 165.33 0.06C165.57 0.03 165.68 0.1 165.83 0.14C165.89 0.15 165.94 0.18 165.99 0.18C166.81 0.12 167.62 0.06 168.43 0C168.57 0 168.67 0 168.77 0.05C168.91 0.1 169.06 0.13 169.28 0.11C169.71 0.08 170.15 0.05 170.59 0.02C170.82 0 170.82 0 171.27 0.1C171.32 0.11 171.38 0.13 171.43 0.12C171.87 0.1 172.31 0.06 172.75 0.03C172.87 0.03 172.98 0.05 173.07 0.09C173.17 0.14 173.28 0.16 173.4 0.15C173.84 0.12 174.28 0.09 174.71 0.06C174.77 0.06 174.83 0.07 174.88 0.08C175.34 0.18 175.34 0.18 175.56 0.16C175.87 0.14 176.19 0.13 176.5 0.1C176.79 0.06 176.95 0.16 177.16 0.21C177.72 0.17 178.28 0.14 178.84 0.1C179.07 0.08 179.19 0.13 179.34 0.17C179.39 0.19 179.45 0.22 179.5 0.22C179.69 0.21 179.87 0.19 180.06 0.18C180.25 0.17 180.43 0.15 180.62 0.14C180.83 0.19 180.97 0.3 181.28 0.26C181.46 0.24 181.65 0.23 181.84 0.22C182.03 0.21 182.22 0.19 182.4 0.18C182.53 0.17 182.66 0.17 182.78 0.15C183 0.13 183.11 0.21 183.27 0.24C183.32 0.25 183.38 0.27 183.43 0.27C183.81 0.25 184.19 0.23 184.56 0.19C184.84 0.16 185.04 0.21 185.24 0.28C185.28 0.29 185.35 0.3 185.4 0.3C185.84 0.27 186.28 0.24 186.72 0.21C186.84 0.2 186.95 0.23 187.04 0.27C187.14 0.31 187.25 0.33 187.37 0.32C187.81 0.3 188.25 0.26 188.69 0.23C188.74 0.23 188.81 0.24 188.85 0.26C189.28 0.36 189.28 0.36 189.53 0.34C189.59 0.33 189.66 0.33 189.72 0.33C190.03 0.3 190.35 0.3 190.65 0.26C191 0.21 191.26 0.27 191.5 0.36C191.82 0.34 192.13 0.33 192.44 0.3C192.67 0.27 192.79 0.33 192.94 0.37C192.99 0.39 193.05 0.42 193.09 0.42C193.54 0.39 193.98 0.36 194.41 0.32C194.64 0.3 194.75 0.37 194.91 0.41C194.96 0.42 195.02 0.45 195.06 0.44C195.32 0.43 195.57 0.41 195.82 0.39C196.11 0.37 196.11 0.37 196.5 0.47C196.68 0.52 196.86 0.48 197.04 0.47C197.23 0.46 197.41 0.45 197.56 0.51C197.65 0.56 197.77 0.58 197.89 0.58C198.14 0.56 198.39 0.55 198.64 0.52C198.83 0.5 199.01 0.52 199.15 0.58C199.25 0.62 199.36 0.64 199.48 0.63C200.05 0.59 200.61 0.55 201.17 0.51C201.22 0.51 201.29 0.52 201.34 0.54C201.44 0.57 201.54 0.6 201.65 0.63C201.89 0.62 202.15 0.61 202.39 0.59C202.65 0.57 202.88 0.56 203.09 0.65C203.13 0.67 203.19 0.69 203.24 0.69C203.43 0.69 203.61 0.67 203.8 0.66C203.99 0.64 204.18 0.63 204.36 0.62C204.58 0.66 204.71 0.77 205.02 0.74C205.2 0.71 205.39 0.71 205.58 0.7C205.77 0.68 205.96 0.67 206.14 0.66C206.2 0.65 206.27 0.65 206.32 0.65C206.38 0.66 206.43 0.68 206.48 0.7C206.63 0.75 206.77 0.79 206.99 0.77C207.17 0.74 207.36 0.74 207.55 0.72C207.8 0.71 207.8 0.71 208.23 0.81C208.4 0.85 208.59 0.79 208.75 0.83C208.86 0.85 208.96 0.89 209.06 0.92C209.11 0.93 209.18 0.94 209.24 0.94C209.49 0.92 209.74 0.91 209.99 0.88C210.19 0.86 210.36 0.88 210.5 0.94C210.6 0.98 210.7 1 210.83 0.99C211.46 0.95 212.08 0.91 212.7 0.86C212.92 0.84 213.09 0.87 213.21 0.92C213.41 1.02 213.69 0.91 213.9 0.99C214.03 1.04 214.16 1.1 214.39 1.07C214.83 1.03 215.27 1.01 215.7 0.98C215.86 1.02 216.02 1.07 216.17 1.11C216.43 1.09 216.68 1.07 216.93 1.06C217.11 1.04 217.3 1.03 217.49 1.02C217.55 1.01 217.61 1.01 217.67 1.02C217.73 1.02 217.77 1.05 217.83 1.06C218.09 1.14 218.09 1.14 218.52 1.11C218.71 1.1 218.89 1.09 219.04 1.15C219.18 1.21 219.36 1.22 219.55 1.2C219.93 1.17 220.3 1.15 220.68 1.13C220.8 1.12 220.91 1.14 221.01 1.19C221.16 1.25 221.34 1.25 221.52 1.23C221.77 1.21 222.01 1.18 222.22 1.27C222.26 1.29 222.33 1.32 222.37 1.32C222.68 1.31 223 1.3 223.3 1.27C223.61 1.24 223.76 1.34 223.96 1.38C224.28 1.36 224.59 1.34 224.9 1.32C224.96 1.32 225.03 1.3 225.09 1.31C225.31 1.34 225.44 1.47 225.75 1.43C225.93 1.41 226.12 1.4 226.31 1.4C226.36 1.39 226.42 1.42 226.45 1.44C226.47 1.45 226.45 1.49 226.43 1.5C226.36 1.55 226.28 1.59 226.22 1.64C226.21 1.64 226.28 1.67 226.33 1.68C226.43 1.71 226.55 1.71 226.68 1.7C226.8 1.68 226.92 1.71 227 1.76C227.04 1.78 227.03 1.81 226.96 1.91C226.96 1.99 227.04 1.96 227.06 1.91C227.1 1.83 227.02 1.81 226.87 1.85C226.77 1.88 226.71 1.92 226.74 1.95C226.75 1.97 226.83 1.99 226.96 1.91C227.29 1.82 227.54 1.8 227.79 1.78C227.85 1.78 227.93 1.76 227.98 1.77C228.14 1.81 228.29 1.86 228.45 1.9C228.63 1.89 228.8 1.87 228.98 1.93C229.23 2.02 229.24 2.01 229.49 1.99C229.61 1.98 229.74 1.97 229.86 1.97C229.99 1.96 230.09 1.98 230.2 2.02C230.42 2.1 230.44 2.1 230.59 1.99C230.68 1.93 230.74 1.91 230.85 1.94C231.21 2.04 231.21 2.04 231.53 2.01C231.78 1.99 232.03 1.98 232.22 2.08C232.35 2.14 232.39 2.13 232.49 2.06C232.76 1.88 232.89 1.88 233.4 2.01C233.64 2.07 233.89 2.01 234.13 2C234.33 1.99 234.48 2.03 234.49 2.13C234.51 2.2 234.54 2.24 234.68 2.26C234.73 2.27 234.79 2.28 234.85 2.28C235.16 2.26 235.47 2.24 235.79 2.21C235.95 2.2 236.04 2.13 236 2.03C235.97 1.92 236.03 1.88 236.26 1.85C236.4 1.83 236.51 1.83 236.62 1.86C236.74 1.9 236.7 1.92 236.6 1.98C236.34 2.13 236.37 2.21 236.7 2.31C236.81 2.35 236.9 2.38 236.93 2.43C236.95 2.45 236.93 2.49 236.97 2.51C237.15 2.62 237.41 2.68 237.7 2.74C237.97 2.69 238.16 2.77 238.38 2.82C238.54 2.87 238.74 2.83 238.92 2.81C239.12 2.8 239.29 2.81 239.43 2.87C239.54 2.91 239.64 2.93 239.77 2.92C240.02 2.91 240.27 2.89 240.52 2.87C240.73 2.85 240.89 2.88 241.02 2.93C241.19 3 241.38 2.96 241.55 2.97C241.79 2.98 241.9 3.12 242.21 3.08C242.39 3.06 242.58 3.05 242.77 3.04C242.82 3.04 242.88 3.07 242.93 3.09C243.13 3.18 243.36 3.17 243.62 3.15C243.8 3.13 243.97 3.11 244.15 3.18C244.44 3.28 244.75 3.37 245.06 3.47C245.1 3.54 245.07 3.63 245.29 3.67C245.4 3.69 245.51 3.73 245.59 3.77C245.7 3.81 245.8 3.82 245.94 3.81C246.18 3.79 246.44 3.78 246.68 3.75C246.91 3.73 247.05 3.78 247.18 3.83C247.29 3.87 247.4 3.89 247.53 3.86C247.67 3.83 247.77 3.85 247.87 3.9C248.03 3.96 248.04 3.95 248.56 3.97C248.61 3.97 248.68 3.99 248.71 4.01C248.72 4.03 248.69 4.06 248.66 4.07C248.63 4.09 248.57 4.12 248.52 4.12C247.96 4.16 247.4 4.2 246.83 4.24C246.78 4.25 246.72 4.26 246.68 4.28C246.63 4.29 246.57 4.32 246.57 4.34C246.57 4.36 246.65 4.38 246.7 4.39C246.87 4.42 247.07 4.37 247.23 4.41C247.34 4.44 247.43 4.48 247.54 4.5C247.59 4.51 247.66 4.51 247.72 4.51C247.91 4.5 248.09 4.48 248.28 4.47C248.33 4.47 248.39 4.49 248.44 4.5C248.81 4.6 248.81 4.6 249.12 4.58C249.25 4.57 249.38 4.54 249.5 4.55C249.61 4.56 249.71 4.61 249.81 4.63C250.03 4.69 250.23 4.75 250.24 4.88C250.25 4.92 250.38 4.97 250.5 4.97C250.62 4.97 250.75 4.95 250.88 4.94C251.17 4.93 251.17 4.93 251.56 5.02C251.66 5.05 251.78 5.06 251.91 5.04C251.97 5.03 252.03 5.04 252.09 5.05C252.27 5.07 252.27 5.1 252.15 5.16C251.98 5.25 252 5.25 252.48 5.33C252.66 5.36 252.8 5.41 252.95 5.45C253.2 5.53 253.19 5.53 253.03 5.62C252.99 5.64 252.96 5.66 252.92 5.69C252.81 5.75 252.72 5.82 252.5 5.83C252.24 5.83 251.99 5.86 251.74 5.88C251.5 5.89 251.44 5.93 251.46 6.04C251.49 6.18 251.53 6.19 251.97 6.19C252.1 6.19 252.21 6.2 252.3 6.25C252.26 6.3 252.17 6.34 252.05 6.35C251.74 6.37 251.42 6.39 251.11 6.41C250.86 6.43 250.61 6.45 250.36 6.47C250.21 6.48 250.11 6.56 250.15 6.66C250.17 6.71 250.19 6.76 250.21 6.82C250.25 6.92 250.33 6.95 250.59 6.95C250.65 6.95 250.71 6.93 250.77 6.94C251.02 6.95 251.14 7.08 251.43 7.05C251.68 7.03 251.94 7.03 252.18 7C252.4 6.97 252.53 7.03 252.68 7.07C252.74 7.09 252.79 7.12 252.84 7.12C253.16 7.1 253.47 7.08 253.78 7.05C253.92 7.04 254.01 7.05 254.12 7.09C254.4 7.18 254.4 7.18 254.81 7.15C255.11 7.12 255.11 7.13 255.49 7.23C255.6 7.25 255.71 7.25 255.85 7.24C256.03 7.22 256.21 7.2 256.4 7.22C256.45 7.23 256.53 7.25 256.54 7.27C256.56 7.28 256.5 7.32 256.46 7.33C256.12 7.42 255.73 7.4 255.37 7.44C255.25 7.45 255.14 7.41 255.05 7.37C254.95 7.33 254.84 7.31 254.71 7.32C254.46 7.33 254.21 7.35 253.96 7.37C253.75 7.39 253.6 7.36 253.45 7.31C253.4 7.29 253.35 7.26 253.3 7.26C252.73 7.29 252.17 7.33 251.61 7.37C251.39 7.39 251.26 7.34 251.11 7.3C251.05 7.28 251 7.25 250.95 7.25C250.76 7.26 250.57 7.28 250.38 7.29C249.69 7.34 249.01 7.39 248.32 7.43C248.27 7.44 248.21 7.4 248.16 7.39C248.06 7.36 247.95 7.33 247.84 7.3C247.65 7.32 247.47 7.33 247.28 7.34C247.14 7.35 247.02 7.37 247 7.43C246.99 7.47 247.12 7.51 247.25 7.51C247.38 7.5 247.51 7.48 247.61 7.51C248.14 7.61 248.14 7.61 248.47 7.59C248.76 7.57 248.73 7.55 248.98 7.64C249.09 7.68 249.19 7.7 249.32 7.69C249.63 7.67 249.94 7.65 250.26 7.63C250.31 7.63 250.37 7.64 250.42 7.66C250.79 7.75 250.79 7.76 251.1 7.73C251.5 7.7 251.52 7.69 251.79 7.79C251.97 7.86 252.15 7.81 252.32 7.81C252.53 7.87 252.75 7.93 252.94 8C253.16 8.09 253.39 8.07 253.64 8.05C253.83 8.03 254.01 8.02 254.16 8.09C254.31 8.15 254.48 8.16 254.68 8.14C254.86 8.13 255.04 8.1 255.22 8.13C255.27 8.14 255.35 8.17 255.35 8.18C255.34 8.2 255.29 8.24 255.24 8.25C254.89 8.31 254.51 8.31 254.14 8.34C254.09 8.35 254.03 8.33 253.98 8.32C253.87 8.29 253.77 8.25 253.67 8.22C253.48 8.23 253.29 8.23 253.11 8.25C252.97 8.27 252.86 8.27 252.76 8.23C252.67 8.19 252.56 8.15 252.45 8.14C252.34 8.13 252.2 8.15 252.08 8.16C251.95 8.17 251.81 8.16 251.71 8.19C251.61 8.22 251.55 8.27 251.49 8.32C251.41 8.37 251.31 8.39 251.17 8.39C251.04 8.4 250.93 8.39 250.83 8.34C250.79 8.32 250.73 8.31 250.68 8.3C250.62 8.28 250.56 8.27 250.51 8.27C249.95 8.31 249.39 8.35 248.82 8.39C248.54 8.41 248.54 8.41 247.96 8.31C247.91 8.3 247.84 8.29 247.79 8.29C247.47 8.31 247.16 8.34 246.85 8.36C246.53 8.38 246.53 8.38 245.99 8.28C245.89 8.26 245.75 8.28 245.63 8.28C245.38 8.27 245.26 8.14 244.97 8.16C244.72 8.18 244.47 8.19 244.22 8.22C244 8.24 243.87 8.19 243.71 8.14C243.66 8.13 243.6 8.1 243.56 8.1C242.99 8.14 242.43 8.18 241.68 8.18C241.49 8.18 241.58 8.22 241.7 8.23C241.87 8.24 241.93 8.21 241.84 8.15C241.77 8.1 241.67 8.08 241.59 8.09C241.55 8.1 241.49 8.13 241.68 8.18C241.88 8.24 241.87 8.28 241.9 8.3C241.98 8.34 242.1 8.36 242.22 8.36C242.41 8.34 242.6 8.33 242.79 8.32C242.84 8.32 242.91 8.33 242.96 8.34C243.37 8.44 243.38 8.45 243.82 8.41C243.96 8.4 244.06 8.4 244.17 8.43C244.33 8.47 244.44 8.54 244.67 8.52C244.97 8.49 245.29 8.47 245.6 8.45C245.65 8.45 245.71 8.48 245.76 8.49C245.92 8.53 246.03 8.6 246.27 8.57C246.44 8.55 246.64 8.54 246.83 8.54C246.88 8.53 246.95 8.56 246.98 8.58C247.02 8.62 246.96 8.66 246.83 8.69C246.78 8.71 246.71 8.7 246.65 8.71C246.4 8.73 246.15 8.75 245.9 8.76C245.76 8.77 245.64 8.79 245.62 8.85C245.61 8.89 245.75 8.93 245.88 8.93C246.07 8.92 246.26 8.91 246.44 8.89C246.76 8.85 247.04 8.86 247.31 8.96C247.49 9.03 247.48 9.01 247.68 9.22C247.73 9.27 247.88 9.28 248 9.27C248.32 9.27 248.46 9.29 248.43 9.34C248.4 9.4 248.29 9.42 248.15 9.43C247.9 9.44 247.65 9.46 247.4 9.48C247.34 9.49 247.27 9.5 247.21 9.49C247.15 9.49 247.1 9.47 247.05 9.46C246.95 9.42 246.85 9.38 246.74 9.37C246.63 9.35 246.49 9.38 246.37 9.39C246.24 9.4 246.11 9.42 246 9.41C245.88 9.4 245.79 9.35 245.68 9.32C245.64 9.31 245.57 9.28 245.53 9.29C245.27 9.3 245.02 9.32 244.77 9.34C244.47 9.36 244.47 9.36 244.09 9.26C243.99 9.23 243.88 9.23 243.74 9.24C243.43 9.27 243.43 9.26 242.88 9.17C242.82 9.16 242.76 9.15 242.7 9.15C242.14 9.19 241.58 9.23 241.02 9.27C240.53 9.3 240.53 9.3 240.27 9.47C240.07 9.59 240.07 9.59 240.26 9.64C240.42 9.69 240.56 9.75 240.73 9.78C240.89 9.8 241.08 9.73 241.26 9.8C241.35 9.84 241.46 9.88 241.57 9.89C241.74 9.89 241.93 9.85 242.1 9.92C242.18 9.95 242.31 9.99 242.41 9.99C242.6 10 242.79 9.97 242.97 9.96C243.03 9.95 243.1 9.95 243.15 9.96C243.21 9.97 243.26 9.99 243.3 10.01C243.46 10.06 243.62 10.09 243.82 10.06C244.14 10.02 244.43 10.04 244.68 10.14C244.71 10.16 244.8 10.16 244.85 10.15C244.99 10.14 245.1 10.13 245.21 10.17C245.25 10.18 245.31 10.2 245.3 10.22C245.29 10.24 245.24 10.27 245.2 10.28C244.84 10.34 244.45 10.34 244.09 10.37C244.04 10.37 243.98 10.35 243.93 10.34C243.82 10.31 243.73 10.26 243.62 10.25C243.5 10.24 243.37 10.26 243.24 10.27C243.12 10.28 242.99 10.3 242.87 10.29C242.76 10.28 242.65 10.24 242.56 10.2C242.45 10.16 242.35 10.16 242.21 10.17C242.03 10.19 241.84 10.2 241.65 10.21C241.55 10.18 241.45 10.14 241.34 10.12C241.29 10.1 241.23 10.08 241.18 10.08C240.93 10.1 240.68 10.12 240.43 10.13C240.18 10.15 240.18 10.15 239.75 10.05C239.7 10.04 239.64 10.03 239.58 10.03C239.27 10.05 238.96 10.07 238.64 10.09C238.52 10.1 238.41 10.08 238.31 10.04C238.22 9.99 238.1 9.97 237.99 9.98C237.49 10.01 236.98 10.04 236.48 10.08C236.28 10.1 236.11 10.08 235.97 10.03C235.82 9.96 235.64 9.98 235.45 9.99C235.03 10.02 235.03 10.02 234.76 9.94C234.7 9.92 234.65 9.89 234.6 9.89C234.16 9.92 233.72 9.94 233.29 9.98C233.06 10 232.94 9.94 232.79 9.9C232.74 9.89 232.68 9.85 232.63 9.86C232.32 9.88 232 9.89 231.7 9.92C231.39 9.96 231.27 9.81 231.04 9.81C230.72 9.81 230.41 9.85 230.1 9.87C229.85 9.89 229.6 9.9 229.35 9.92C229.1 9.94 228.85 9.95 228.6 9.98C228.47 9.99 228.37 9.97 228.26 9.93C228.12 9.88 227.95 9.84 227.8 9.79C227.57 9.72 227.57 9.72 227.29 9.74C227.22 9.74 227.16 9.75 227.1 9.75C226.64 9.79 226.64 9.78 226.06 9.68C226.03 9.68 225.96 9.69 225.93 9.71C225.85 9.75 225.78 9.79 225.71 9.84C225.61 9.81 225.48 9.8 225.41 9.76C225.22 9.65 224.92 9.8 224.72 9.7C224.65 9.66 224.52 9.62 224.41 9.61C224.29 9.6 224.16 9.63 224.04 9.64C223.72 9.66 223.72 9.66 223.45 9.8C223.31 9.87 223.12 9.86 222.94 9.88C222.75 9.89 222.57 9.9 222.42 9.84C222.28 9.78 222.11 9.76 221.91 9.78C221.66 9.81 221.41 9.82 221.16 9.84C221.1 9.84 221.04 9.83 220.98 9.82C220.4 9.73 220.4 9.72 220.12 9.75C220 9.76 219.87 9.76 219.75 9.77C219.54 9.8 219.39 9.77 219.24 9.71C219.19 9.7 219.13 9.67 219.08 9.67C218.83 9.68 218.58 9.69 218.34 9.71C218.15 9.72 217.96 9.72 217.78 9.75C217.47 9.78 217.32 9.68 217.12 9.63C216.8 9.65 216.49 9.66 216.18 9.69C216.03 9.71 215.94 9.7 215.83 9.66C215.69 9.61 215.56 9.56 215.33 9.58C215.03 9.62 214.71 9.63 214.4 9.65C214.19 9.6 214.04 9.49 213.74 9.53C213.56 9.55 213.36 9.56 213.18 9.57C212.93 9.59 212.67 9.61 212.42 9.63C212.15 9.65 212.16 9.64 211.74 9.54C211.51 9.49 211.26 9.55 211.02 9.56C210.83 9.57 210.73 9.64 210.78 9.74C210.82 9.83 210.72 9.91 210.55 9.92C210.11 9.95 209.67 9.99 209.23 10.01C209.18 10.02 209.11 10.01 209.06 9.99C208.6 9.89 208.6 9.89 208.39 9.91C208.08 9.93 207.76 9.95 207.45 9.98C207.24 10 207.08 9.96 206.95 9.91C206.84 9.87 206.74 9.86 206.6 9.87C205.1 9.97 203.6 10.07 202.1 10.19C201.87 10.2 201.75 10.16 201.59 10.11C201.54 10.1 201.49 10.07 201.44 10.07C201.31 10.07 201.19 10.08 201.06 10.09C200.5 10.13 199.94 10.18 199.37 10.21C199.13 10.22 199.07 10.29 198.97 10.36C198.89 10.4 198.8 10.42 198.66 10.43C198.52 10.43 198.42 10.43 198.31 10.38C198.18 10.33 198.02 10.3 197.81 10.32C197.56 10.34 197.31 10.36 197.06 10.37C196.93 10.38 196.83 10.41 196.79 10.47C196.78 10.48 196.86 10.5 196.91 10.52C197.06 10.57 197.2 10.62 197.37 10.66C197.55 10.69 197.74 10.65 197.92 10.64C197.98 10.64 198.04 10.63 198.11 10.63C198.16 10.63 198.23 10.64 198.27 10.66C198.47 10.73 198.68 10.78 198.95 10.73C199.19 10.76 199.31 10.89 199.61 10.85C199.79 10.83 199.98 10.82 200.17 10.82C200.22 10.81 200.27 10.84 200.33 10.86C200.48 10.9 200.6 10.96 200.83 10.94C201.07 10.91 201.33 10.9 201.58 10.88C201.71 10.87 201.81 10.88 201.92 10.92C202.05 10.97 202.21 11.01 202.42 10.99C202.6 10.97 202.8 10.96 202.98 10.95C203.23 10.93 203.23 10.93 203.66 11.03C203.71 11.04 203.77 11.05 203.83 11.05C204.14 11.03 204.45 11.01 204.77 10.99C204.89 10.98 205.01 11 205.09 11.05C205.12 11.07 205.11 11.1 205.12 11.13C204.5 11.17 203.87 11.21 203.25 11.26C203.01 11.28 202.91 11.22 202.75 11.18C202.7 11.17 202.64 11.14 202.59 11.14C202.15 11.17 201.72 11.2 201.28 11.23C201.14 11.25 201.04 11.24 200.94 11.19C200.68 11.07 200.36 11.14 200.06 11.15C199.83 11.17 199.76 11.22 199.79 11.32C199.82 11.45 199.96 11.49 200.31 11.47C200.43 11.46 200.56 11.45 200.68 11.44C200.8 11.43 200.91 11.45 201.01 11.5C201.11 11.54 201.22 11.56 201.34 11.56C201.59 11.54 201.84 11.53 202.09 11.5C202.29 11.49 202.46 11.5 202.6 11.56C202.75 11.63 202.93 11.61 203.12 11.6C203.54 11.57 203.55 11.57 203.81 11.65C203.86 11.67 203.92 11.7 203.97 11.69C204.4 11.67 204.84 11.65 205.27 11.61C205.5 11.59 205.63 11.64 205.77 11.68C205.83 11.7 205.88 11.73 205.93 11.73C206.24 11.71 206.56 11.69 206.87 11.66C207.01 11.65 207.1 11.66 207.22 11.7C207.5 11.79 207.5 11.79 207.9 11.76C208.02 11.75 208.16 11.73 208.27 11.74C208.39 11.76 208.48 11.8 208.58 11.83C208.63 11.85 208.69 11.86 208.75 11.86C209 11.85 209.25 11.83 209.5 11.81C209.73 11.79 209.73 11.79 210.17 11.89C210.35 11.94 210.54 11.9 210.72 11.89C210.91 11.87 211.08 11.87 211.23 11.94C211.38 12 211.56 12 211.75 11.98C211.93 11.97 212.11 11.93 212.29 11.98C212.71 12.08 212.71 12.08 212.97 12.06C213.34 12.03 213.71 12.01 214.09 11.98C214.14 11.98 214.21 12 214.26 12.01C214.36 12.04 214.45 12.09 214.57 12.1C214.68 12.11 214.82 12.1 214.94 12.09C215.33 12.05 215.35 12.04 215.62 12.15C215.84 12.24 216.11 12.11 216.32 12.21C216.43 12.27 216.59 12.31 216.81 12.29C216.99 12.26 217.18 12.26 217.37 12.24C217.67 12.22 217.67 12.22 218.05 12.32C218.1 12.34 218.17 12.35 218.22 12.35C218.47 12.34 218.72 12.32 218.96 12.29C219.25 12.26 219.43 12.32 219.64 12.38C219.81 12.43 220.01 12.39 220.19 12.37C220.38 12.36 220.56 12.36 220.7 12.43C220.85 12.49 221.03 12.48 221.22 12.47C221.4 12.46 221.58 12.42 221.76 12.47C222.15 12.57 222.15 12.57 222.44 12.55C222.69 12.53 222.94 12.51 223.19 12.5C223.24 12.49 223.3 12.52 223.35 12.53C223.46 12.56 223.55 12.61 223.66 12.62C223.77 12.63 223.91 12.61 224.03 12.6C224.16 12.59 224.29 12.57 224.4 12.58C224.52 12.59 224.62 12.63 224.72 12.66C224.82 12.71 224.92 12.71 225.06 12.7C225.25 12.67 225.44 12.67 225.62 12.66C225.73 12.69 225.83 12.72 225.93 12.75C226.03 12.79 226.14 12.79 226.28 12.77C226.75 12.74 226.75 12.74 227.14 12.84C227.32 12.89 227.51 12.85 227.69 12.84C227.88 12.82 228.06 12.82 228.2 12.88C228.35 12.94 228.53 12.95 228.72 12.93C228.84 12.92 228.97 12.91 229.09 12.91C229.15 12.91 229.22 12.91 229.26 12.93C229.46 12.99 229.66 13.05 229.93 13.01C230.18 13.02 230.3 13.16 230.59 13.13C230.84 13.11 231.1 13.1 231.34 13.07C231.56 13.05 231.72 13.09 231.84 13.15C232.04 13.25 232.33 13.11 232.54 13.21C232.65 13.27 232.81 13.32 233.03 13.29C233.28 13.27 233.36 13.3 233.43 13.4C233.48 13.46 233.47 13.51 233.39 13.55C233.32 13.6 233.23 13.59 233.11 13.54C232.97 13.48 232.81 13.47 232.6 13.48C232.41 13.49 232.29 13.41 232.12 13.38C231.96 13.34 231.77 13.4 231.59 13.35C231.19 13.25 231.19 13.25 230.92 13.27C230.73 13.29 230.54 13.29 230.36 13.31C230.14 13.34 230 13.29 229.85 13.25C229.8 13.23 229.75 13.2 229.7 13.2C229.26 13.23 228.82 13.25 228.39 13.29C228.16 13.31 228.04 13.25 227.89 13.21C227.84 13.2 227.78 13.17 227.73 13.17C227.36 13.19 226.99 13.22 226.61 13.25C226.54 13.29 226.46 13.34 226.39 13.38C226.32 13.43 226.22 13.45 226.07 13.45C225.84 13.45 225.6 13.52 225.36 13.43C225.11 13.35 225.1 13.35 224.86 13.37C224.55 13.4 224.23 13.39 223.95 13.46C223.9 13.47 223.84 13.5 223.84 13.52C223.84 13.53 223.92 13.56 223.97 13.57C224.13 13.61 224.33 13.55 224.5 13.59C224.61 13.62 224.7 13.66 224.81 13.68C224.85 13.7 224.92 13.69 224.98 13.69C225.05 13.69 225.11 13.68 225.17 13.68C225.22 13.68 225.29 13.69 225.33 13.71C225.54 13.77 225.76 13.83 225.95 13.9C226.13 13.97 226.3 13.92 226.48 13.92C227.21 14.03 227.21 14.03 227.7 14C227.82 13.99 227.95 13.98 228.07 13.98C228.12 13.98 228.17 14.01 228.23 14.03C228.38 14.07 228.52 14.12 228.74 14.09C228.92 14.07 229.11 14.06 229.3 14.05C229.55 14.03 229.55 14.03 229.97 14.13C230.08 14.16 230.19 14.16 230.33 14.14C230.45 14.13 230.57 14.16 230.65 14.2C230.69 14.22 230.68 14.26 230.69 14.28C230.31 14.31 229.93 14.33 229.57 14.37C229.33 14.39 229.23 14.32 229.07 14.28C229.02 14.27 228.96 14.24 228.91 14.25C228.54 14.27 228.17 14.3 227.79 14.33C227.75 14.33 227.69 14.37 227.69 14.39C227.68 14.44 227.78 14.48 227.91 14.48C228.09 14.47 228.27 14.45 228.44 14.51C228.57 14.57 228.74 14.6 228.94 14.57C229.07 14.56 229.2 14.56 229.32 14.54C229.64 14.5 229.93 14.51 230.17 14.62C230.36 14.65 230.54 14.62 230.72 14.61C230.85 14.6 230.98 14.59 231.08 14.62C231.28 14.68 231.48 14.75 231.75 14.7C232.05 14.75 232.28 14.84 232.53 14.92C232.65 14.96 232.74 14.98 232.88 14.96C232.93 14.95 233 14.95 233.06 14.94C233.19 14.93 233.32 14.91 233.43 14.92C233.55 14.93 233.64 14.98 233.75 15.01C233.8 15.02 233.85 15.05 233.9 15.04C234.09 15.04 234.28 15.02 234.46 15.01C234.65 15 234.84 14.98 235.02 14.97C235.18 15.02 235.34 15.06 235.49 15.1C235.74 15.08 235.99 15.06 236.24 15.05C236.52 15.03 236.52 15.03 236.92 15.13C237.09 15.18 237.28 15.15 237.45 15.13C237.74 15.09 237.93 15.15 238.13 15.22C238.17 15.23 238.25 15.24 238.3 15.23C238.5 15.21 238.67 15.23 238.81 15.29C238.91 15.33 239.02 15.35 239.14 15.34C239.58 15.31 240.01 15.28 240.45 15.25C240.5 15.25 240.56 15.26 240.61 15.27C241 15.37 241 15.38 241.29 15.35C241.54 15.33 241.78 15.32 241.98 15.41C242.02 15.43 242.09 15.46 242.13 15.45C242.44 15.44 242.76 15.42 243.07 15.39C243.21 15.38 243.3 15.38 243.41 15.42C243.56 15.47 243.68 15.53 243.91 15.5C244.55 15.44 244.56 15.45 245.32 15.57C245.37 15.57 245.44 15.56 245.5 15.55C245.63 15.54 245.73 15.56 245.84 15.6C246.09 15.68 246.1 15.68 246.35 15.66C246.53 15.65 246.72 15.64 246.91 15.62C247.19 15.58 247.37 15.65 247.58 15.71C247.75 15.75 247.94 15.71 248.12 15.7C248.32 15.68 248.49 15.69 248.63 15.75C248.73 15.79 248.84 15.81 248.96 15.81C249.4 15.78 249.84 15.74 250.27 15.72C250.33 15.71 250.39 15.73 250.44 15.74C250.87 15.84 250.87 15.84 251.3 15.8C251.44 15.79 251.55 15.79 251.66 15.82C251.75 15.86 251.86 15.89 251.96 15.92C252.15 15.91 252.34 15.9 252.52 15.88C252.66 15.87 252.76 15.88 252.87 15.91C253.02 15.95 253.14 16.03 253.36 15.99C253.48 15.97 253.62 15.98 253.74 15.96C253.88 15.94 253.97 15.96 254.08 16C254.22 16.05 254.36 16.1 254.58 16.07C254.82 16.04 255.08 16.04 255.33 16.02C255.46 16 255.56 16.02 255.67 16.06C255.81 16.11 255.96 16.15 256.17 16.13C256.6 16.09 256.61 16.09 257.03 16.2C257.14 16.22 257.25 16.22 257.39 16.21C257.51 16.19 257.63 16.22 257.71 16.27C257.79 16.32 257.78 16.35 257.79 16.38ZM223.96 1.75C223.84 1.76 223.71 1.77 223.53 1.63C223.52 1.61 223.53 1.58 223.5 1.56C223.44 1.51 223.35 1.48 223.23 1.48C223.03 1.47 222.78 1.53 222.78 1.57C222.79 1.6 222.85 1.63 222.98 1.66C223.03 1.67 223.07 1.69 223.12 1.71C223.27 1.74 223.38 1.82 223.59 1.78C223.57 1.84 223.63 1.89 223.76 1.9C223.8 1.91 223.86 1.91 223.89 1.9C224.01 1.86 224.02 1.81 223.94 1.68C223.92 1.7 223.93 1.74 223.97 1.75C224 1.76 224.09 1.75 224.13 1.74C224.23 1.71 224.29 1.67 224.26 1.64C224.25 1.62 224.17 1.6 224.13 1.6C224.05 1.6 223.98 1.63 223.96 1.75ZM254.66 20.56C254.38 20.59 254.06 20.58 253.79 20.64C253.74 20.65 253.69 20.68 253.68 20.7C253.68 20.72 253.76 20.74 253.8 20.75C253.9 20.78 254.02 20.77 254.15 20.76C254.35 20.75 254.47 20.82 254.62 20.86C254.67 20.87 254.74 20.88 254.79 20.88C255.1 20.86 255.4 20.84 255.71 20.81C255.76 20.81 255.82 20.8 255.87 20.78C256.02 20.74 256 20.7 255.85 20.67C255.69 20.63 255.56 20.56 255.39 20.53C255.16 20.49 254.91 20.55 254.66 20.56ZM233.1 21.74C232.91 21.75 232.73 21.77 232.55 21.78C232.49 21.78 232.42 21.79 232.36 21.79C232.25 21.8 232.16 21.84 232.1 21.89C232.19 21.93 232.3 21.96 232.41 21.95C232.6 21.94 232.78 21.92 232.97 21.92C233.17 21.91 233.29 21.98 233.44 22.02C233.49 22.03 233.55 22.03 233.61 22.04C233.89 22.04 234.06 21.96 234.01 21.84C233.97 21.75 233.83 21.69 233.65 21.7C233.47 21.71 233.28 21.73 233.1 21.74ZM255.96 18.16C256 18.13 256.05 18.11 256.07 18.09C256.14 18.01 256.12 17.94 255.99 17.88C255.84 17.8 255.65 17.85 255.48 17.86C255.44 17.86 255.39 17.9 255.37 17.92C255.36 17.93 255.36 17.96 255.38 17.97C255.57 18.04 255.76 18.1 255.96 18.16ZM223.03 13.37C222.84 13.38 222.66 13.39 222.48 13.41C222.43 13.42 222.39 13.45 222.36 13.47C222.31 13.51 222.37 13.56 222.52 13.57C222.7 13.57 222.89 13.54 223.07 13.53C223.31 13.52 223.45 13.46 223.36 13.4C223.28 13.35 223.16 13.34 223.03 13.37ZM23.21 9.91C23.33 9.9 23.45 9.89 23.58 9.88C23.69 9.87 23.78 9.83 23.83 9.78C23.74 9.74 23.63 9.71 23.52 9.72C23.33 9.73 23.15 9.74 22.96 9.76C22.85 9.77 22.74 9.8 22.71 9.86C22.69 9.9 22.94 9.93 23.21 9.91ZM206.97 9.66C207.02 9.67 207.07 9.7 207.12 9.7C207.24 9.7 207.37 9.69 207.48 9.67C207.53 9.67 207.57 9.64 207.59 9.62C207.61 9.6 207.6 9.58 207.58 9.56C207.47 9.48 207.03 9.51 206.96 9.6C206.95 9.62 206.97 9.64 206.97 9.66ZM195 0.78C195.01 0.8 195.01 0.83 195.03 0.86C195.06 0.9 195.14 0.94 195.26 0.96C195.36 0.92 195.41 0.88 195.4 0.83C195.4 0.8 195.39 0.78 195.37 0.75C195.34 0.7 195.26 0.67 195.14 0.64C195.04 0.68 195 0.73 195 0.78ZM264.73 22.02C264.7 22.04 264.66 22.06 264.62 22.08C264.73 22.13 264.82 22.15 264.89 22.12C264.94 22.1 264.96 22.08 265 22.06C264.9 22.01 264.81 22 264.73 22.02ZM262.37 22.24C262.42 22.26 262.46 22.28 262.52 22.29C262.6 22.3 262.68 22.28 262.74 22.22C262.69 22.2 262.65 22.18 262.6 22.17C262.51 22.16 262.43 22.18 262.37 22.24ZM263.86 21.95C263.84 21.99 263.89 22.02 264.03 22.05C264.07 22.02 264.11 22 264.13 21.98C264.17 21.94 264.11 21.91 263.97 21.88C263.93 21.9 263.9 21.93 263.86 21.95ZM255.85 20.2C255.82 20.24 255.88 20.27 256.02 20.3C256.05 20.28 256.1 20.26 256.12 20.23C256.16 20.2 256.09 20.16 255.96 20.14C255.92 20.16 255.88 20.18 255.85 20.2ZM244.93 8.73C244.9 8.75 244.86 8.77 244.83 8.79C244.93 8.83 245.02 8.85 245.1 8.82C245.14 8.81 245.17 8.78 245.2 8.76C245.1 8.71 245.01 8.7 244.93 8.73ZM234.47 2.64C234.57 2.65 234.64 2.63 234.71 2.57C234.66 2.55 234.61 2.53 234.56 2.52C234.47 2.51 234.39 2.54 234.33 2.59C234.38 2.61 234.43 2.62 234.47 2.64ZM228.92 2.26C228.89 2.28 228.85 2.3 228.82 2.32C228.92 2.37 229.01 2.38 229.08 2.36C229.13 2.34 229.16 2.32 229.19 2.29C229.09 2.25 229 2.24 228.92 2.26ZM191.26 0.78C191.23 0.8 191.19 0.82 191.16 0.84C191.26 0.89 191.35 0.9 191.42 0.87C191.47 0.86 191.5 0.83 191.53 0.81C191.43 0.77 191.34 0.75 191.26 0.78ZM3.74 13.97C3.69 13.95 3.64 13.94 3.6 13.92C3.49 13.97 3.45 14.01 3.51 14.04C3.55 14.06 3.61 14.07 3.66 14.08C3.77 14.04 3.8 14 3.74 13.97Z" fill="#4F9CF9" fill-opacity="1.000000" fill-rule="nonzero"/>
	<path id="Vector" d="M51.48 30.72C51.13 30.75 50.77 30.79 50.41 30.81C50.22 30.82 50.16 30.89 50.08 30.95C50.02 31 49.95 31.02 49.83 31.03C48.86 31.11 47.89 31.19 46.93 31.28C46.81 31.26 46.75 31.22 46.78 31.18C46.79 31.16 46.83 31.12 46.87 31.12C47.53 31.06 48.19 31 48.85 30.95C49.04 30.94 49.09 30.87 49.19 30.81C49.22 30.79 49.25 30.76 49.29 30.75C49.33 30.73 49.39 30.74 49.44 30.73C50.51 30.64 51.58 30.55 52.65 30.46C52.77 30.48 52.83 30.51 52.8 30.55C52.78 30.58 52.75 30.61 52.71 30.61C52.3 30.65 51.89 30.68 51.48 30.72Z" fill="#4F9CF9" fill-opacity="1.000000" fill-rule="nonzero"/>
	<path id="Vector" d="M247.16 39.38C247 39.4 246.79 39.43 246.62 39.34C246.54 39.29 246.46 39.28 246.35 39.29C246.2 39.3 246.04 39.32 245.89 39.33C245.85 39.33 245.8 39.31 245.75 39.29C245.67 39.26 245.59 39.22 245.5 39.2C245.41 39.19 245.29 39.23 245.2 39.22C245.07 39.21 245.02 39.16 245.05 39.12C245.07 39.1 245.11 39.07 245.15 39.06C245.72 39 245.73 39 245.89 39.06C246.01 39.11 246.13 39.16 246.31 39.13C246.45 39.11 246.61 39.1 246.77 39.09C246.98 39.07 246.98 39.07 247.32 39.17C247.41 39.2 247.5 39.19 247.61 39.18C247.71 39.17 247.8 39.19 247.88 39.24C247.83 39.29 247.76 39.33 247.66 39.34C247.5 39.36 247.35 39.37 247.16 39.38Z" fill="#4F9CF9" fill-opacity="1.000000" fill-rule="nonzero"/>
	<path id="Vector" d="M241.44 38.88C241.83 38.85 242.22 38.82 242.62 38.78C242.78 38.76 242.91 38.78 243.02 38.84C243.14 38.9 243.28 38.89 243.42 38.88C243.52 38.87 243.61 38.9 243.67 38.95C243.7 38.96 243.69 39 243.7 39.02C243.36 39.05 243.01 39.08 242.67 39.11C242.63 39.11 242.58 39.1 242.54 39.08C242.45 39.06 242.38 39.01 242.29 39C242.1 38.97 241.91 39.02 241.71 39.03C241.62 39.03 241.53 39 241.47 38.96C241.44 38.94 241.45 38.91 241.44 38.88Z" fill="#4F9CF9" fill-opacity="1.000000" fill-rule="nonzero"/>
	<path id="Vector" d="M99.93 24.89C100.34 24.85 100.75 24.82 101.15 24.78C101.28 24.81 101.33 24.84 101.31 24.88C101.29 24.9 101.25 24.94 101.22 24.94C100.4 25.02 99.59 25.09 98.78 25.16C98.66 25.13 98.6 25.1 98.62 25.06C98.64 25.04 98.68 25 98.71 25C99.12 24.96 99.53 24.93 99.93 24.89Z" fill="#4F9CF9" fill-opacity="1.000000" fill-rule="nonzero"/>
	<path id="Vector" d="M37.2 33.93C37.02 33.94 36.83 34 36.62 33.95C36.58 33.94 36.53 33.92 36.53 33.9C36.53 33.88 36.57 33.85 36.61 33.84C36.79 33.8 37.01 33.79 37.1 33.68C37.14 33.62 37.22 33.6 37.33 33.59C37.45 33.58 37.53 33.58 37.62 33.61C37.74 33.66 37.84 33.74 38.02 33.7C38.03 33.72 38.05 33.75 38.04 33.78C38.04 33.8 38 33.82 37.96 33.84C37.92 33.86 37.88 33.87 37.83 33.88C37.63 33.9 37.42 33.91 37.2 33.93Z" fill="#4F9CF9" fill-opacity="1.000000" fill-rule="nonzero"/>
	<path id="Vector" d="M198.83 33.61C198.98 33.59 199.14 33.59 199.29 33.56C199.4 33.55 199.48 33.56 199.57 33.6C199.73 33.66 199.74 33.66 200.13 33.67C200.17 33.67 200.22 33.69 200.25 33.72C200.27 33.73 200.24 33.76 200.22 33.77C200.2 33.79 200.16 33.82 200.12 33.82C199.87 33.83 199.63 33.92 199.39 33.81C199.27 33.76 199.13 33.73 198.97 33.76C198.87 33.77 198.76 33.78 198.66 33.78C198.56 33.79 198.46 33.77 198.39 33.72C198.3 33.65 198.36 33.62 198.52 33.63C198.62 33.63 198.72 33.61 198.83 33.61Z" fill="#4F9CF9" fill-opacity="1.000000" fill-rule="nonzero"/>
	<path id="Vector" d="M255.14 44.82C255.34 44.81 255.54 44.79 255.73 44.77C255.77 44.77 255.82 44.79 255.86 44.8C256.01 44.85 255.99 44.93 255.99 45.01C256 45.08 255.65 45.14 255.51 45.09C255.35 45.03 255.2 44.97 254.98 45C254.89 45.02 254.79 44.99 254.73 44.94C254.65 44.87 254.69 44.84 254.85 44.85C254.94 44.85 255.04 44.83 255.14 44.82Z" fill="#4F9CF9" fill-opacity="1.000000" fill-rule="nonzero"/>
	<path id="Vector" d="M156.49 22.67C156.69 22.66 156.89 22.63 157.09 22.63C157.21 22.63 157.27 22.68 157.24 22.72C157.22 22.74 157.19 22.78 157.15 22.78C156.75 22.82 156.34 22.85 155.94 22.89C155.82 22.86 155.76 22.83 155.79 22.79C155.81 22.77 155.84 22.73 155.88 22.73C156.08 22.71 156.28 22.69 156.49 22.67Z" fill="#4F9CF9" fill-opacity="1.000000" fill-rule="nonzero"/>
	<path id="Vector" d="M251.26 39.53C251.46 39.51 251.66 39.49 251.86 39.48C251.96 39.48 252.04 39.51 252.05 39.56C252.06 39.57 252.01 39.61 251.97 39.62C251.69 39.67 251.39 39.68 251.09 39.71C251 39.71 250.9 39.69 250.85 39.64C250.76 39.57 250.81 39.55 250.97 39.55C251.07 39.55 251.17 39.54 251.26 39.53Z" fill="#4F9CF9" fill-opacity="1.000000" fill-rule="nonzero"/>
	<path id="Vector" d="M203.95 33.83C204.05 33.82 204.16 33.8 204.25 33.8C204.35 33.81 204.42 33.86 204.45 33.91C204.49 33.96 204.48 34.01 204.45 34.06C204.4 34.13 204.35 34.13 204.24 34.08C204.06 34 204.05 34.01 203.7 34.01C203.66 34.01 203.61 33.99 203.57 33.96C203.53 33.93 203.55 33.88 203.66 33.85C203.74 33.83 203.85 33.83 203.95 33.83Z" fill="#4F9CF9" fill-opacity="1.000000" fill-rule="nonzero"/>
	<path id="Vector" d="M243.99 38.99C244.14 38.98 244.28 38.96 244.43 38.96C244.53 38.96 244.61 38.99 244.62 39.04C244.63 39.05 244.58 39.09 244.54 39.1C244.36 39.14 244.17 39.14 243.97 39.16C243.88 39.17 243.78 39.14 243.73 39.09C243.64 39.03 243.69 38.99 243.85 39C243.89 39.01 243.94 39 243.99 38.99Z" fill="#4F9CF9" fill-opacity="1.000000" fill-rule="nonzero"/>
	<path id="Vector" d="M221 37C220.78 37.02 220.58 36.99 220.59 36.95C220.61 36.89 220.7 36.86 220.8 36.85C220.95 36.83 221.1 36.82 221.25 36.81C221.34 36.8 221.43 36.83 221.51 36.87C221.46 36.92 221.39 36.96 221.3 36.97C221.2 36.98 221.1 36.99 221 37Z" fill="#4F9CF9" fill-opacity="1.000000" fill-rule="nonzero"/>
	<path id="Vector" d="M219.57 36.79C219.72 36.78 219.87 36.75 220.01 36.75C220.11 36.75 220.2 36.79 220.2 36.83C220.21 36.85 220.16 36.88 220.12 36.89C219.95 36.94 219.75 36.94 219.56 36.95C219.46 36.96 219.37 36.93 219.31 36.89C219.23 36.82 219.28 36.79 219.43 36.8C219.47 36.8 219.52 36.79 219.57 36.79Z" fill="#4F9CF9" fill-opacity="1.000000" fill-rule="nonzero"/>
	<path id="Vector" d="M202.19 33.81C202.34 33.8 202.48 33.78 202.63 33.78C202.73 33.78 202.81 33.81 202.82 33.85C202.83 33.87 202.78 33.9 202.74 33.92C202.57 33.96 202.37 33.96 202.17 33.98C202.08 33.98 201.98 33.96 201.93 33.91C201.84 33.84 201.89 33.81 202.05 33.82C202.09 33.83 202.14 33.82 202.19 33.81Z" fill="#4F9CF9" fill-opacity="1.000000" fill-rule="nonzero"/>
	<path id="Vector" d="M201.38 33.72C201.53 33.7 201.58 33.7 201.63 33.7C201.72 33.7 201.82 33.72 201.88 33.76C201.96 33.83 201.91 33.85 201.76 33.85C201.56 33.86 201.37 33.89 201.17 33.9C201.07 33.9 200.99 33.86 200.98 33.82C200.98 33.8 201.03 33.77 201.06 33.76C201.2 33.74 201.34 33.72 201.38 33.72Z" fill="#4F9CF9" fill-opacity="1.000000" fill-rule="nonzero"/>
	<path id="Vector" d="M218.31 24.14C218.21 24.15 218.1 24.17 218.01 24.17C217.89 24.15 217.84 24.11 217.87 24.07C217.89 24.05 217.92 24.01 217.96 24.01C218.16 23.99 218.36 23.97 218.56 23.96C218.68 23.98 218.73 24.01 218.7 24.05C218.68 24.08 218.64 24.11 218.61 24.11C218.51 24.13 218.41 24.13 218.31 24.14Z" fill="#4F9CF9" fill-opacity="1.000000" fill-rule="nonzero"/>
	<path id="Vector" d="M97.7 25.08C97.8 25.08 97.89 25.1 97.96 25.14C97.92 25.19 97.85 25.23 97.75 25.24C97.71 25.25 97.65 25.25 97.6 25.26C97.51 25.26 97.42 25.24 97.35 25.2C97.39 25.14 97.46 25.11 97.55 25.09C97.6 25.09 97.65 25.09 97.7 25.08Z" fill="#4F9CF9" fill-opacity="1.000000" fill-rule="nonzero"/>
	<path id="Vector" d="M250.2 39.52C250.2 39.47 250.39 39.42 250.56 39.42C250.65 39.42 250.74 39.45 250.8 39.49C250.88 39.56 250.83 39.58 250.68 39.58C250.58 39.57 250.49 39.6 250.39 39.6C250.29 39.59 250.22 39.56 250.2 39.52Z" fill="#4F9CF9" fill-opacity="1.000000" fill-rule="nonzero"/>
	<path id="Vector" d="M204.86 34.02C204.86 34.01 204.84 33.98 204.85 33.97C204.91 33.88 205.27 33.85 205.36 33.93C205.38 33.94 205.38 33.97 205.37 33.98C205.35 34.01 205.32 34.04 205.28 34.04C205.18 34.06 205.08 34.07 204.98 34.07C204.94 34.07 204.9 34.04 204.86 34.02Z" fill="#4F9CF9" fill-opacity="1.000000" fill-rule="nonzero"/>
	<path id="Vector" d="M38.31 33.67C37.94 33.71 37.94 33.7 38 33.62C38.06 33.55 38.17 33.51 38.33 33.51C38.37 33.51 38.42 33.5 38.46 33.51C38.51 33.52 38.57 33.53 38.58 33.55C38.6 33.59 38.55 33.63 38.45 33.66C38.41 33.67 38.36 33.67 38.31 33.67Z" fill="#4F9CF9" fill-opacity="1.000000" fill-rule="nonzero"/>
	<path id="Vector" d="M102.29 24.85C102.19 24.88 102.09 24.87 102.02 24.82C101.96 24.77 102.06 24.7 102.25 24.69C102.3 24.69 102.36 24.67 102.4 24.68C102.45 24.69 102.5 24.7 102.52 24.72C102.57 24.76 102.54 24.8 102.44 24.84C102.4 24.85 102.34 24.85 102.29 24.85Z" fill="#4F9CF9" fill-opacity="1.000000" fill-rule="nonzero"/>
	<path id="Vector" d="M249.56 39.4C249.59 39.38 249.61 39.36 249.65 39.34C249.76 39.36 249.81 39.4 249.78 39.43C249.76 39.46 249.72 39.48 249.7 39.5C249.58 39.47 249.53 39.44 249.56 39.4Z" fill="#4F9CF9" fill-opacity="1.000000" fill-rule="nonzero"/>
	<path id="Vector" d="M43.23 52.2C43.23 52.18 43.27 52.15 43.3 52.14C43.37 52.13 43.45 52.15 43.51 52.2C43.58 52.26 43.54 52.3 43.39 52.28C43.29 52.27 43.23 52.23 43.23 52.2Z" fill="#4F9CF9" fill-opacity="1.000000" fill-rule="nonzero"/>
	<path id="Vector" d="M206.12 32.51C206.16 32.52 206.2 32.54 206.24 32.55C206.18 32.61 206.12 32.64 206.05 32.62C206.01 32.61 205.97 32.59 205.93 32.58C205.98 32.52 206.04 32.5 206.12 32.51Z" fill="#4F9CF9" fill-opacity="1.000000" fill-rule="nonzero"/>
	<path id="Vector" d="M205.05 32.43C205.11 32.41 205.18 32.42 205.27 32.47C205.24 32.49 205.22 32.52 205.18 32.53C205.13 32.56 205.05 32.54 204.96 32.5C204.99 32.48 205.02 32.46 205.05 32.43Z" fill="#4F9CF9" fill-opacity="1.000000" fill-rule="nonzero"/>
	<path id="Vector" d="M204.22 32.51C204.26 32.52 204.3 32.54 204.34 32.55C204.29 32.61 204.23 32.64 204.15 32.62C204.11 32.61 204.07 32.59 204.03 32.58C204.09 32.52 204.15 32.49 204.22 32.51Z" fill="#4F9CF9" fill-opacity="1.000000" fill-rule="nonzero"/>
	<path id="Vector" d="M203.62 32.42C203.66 32.45 203.64 32.49 203.55 32.54C203.51 32.52 203.46 32.51 203.43 32.49C203.38 32.46 203.41 32.42 203.5 32.37C203.54 32.39 203.58 32.41 203.62 32.42Z" fill="#4F9CF9" fill-opacity="1.000000" fill-rule="nonzero"/>
</svg>
