<svg width="169.545410" height="25.432373" viewBox="0 0 169.545 25.4324" fill="none" xmlns="http://www.w3.org/2000/svg" xmlns:xlink="http://www.w3.org/1999/xlink">
	<desc>
			Created with Pixso.
	</desc>
	<defs/>
	<path id="Vector" d="M138.01 10.78C137.81 10.8 137.61 10.81 137.41 10.84C137.28 10.85 137.23 10.81 137.14 10.78C137.11 10.77 137.08 10.76 137.06 10.76C136.86 10.77 136.66 10.79 136.46 10.81C136.4 10.85 136.36 10.91 136.27 10.93C136.17 10.95 136.07 10.95 135.97 10.96C135.83 10.97 135.7 10.98 135.56 10.99C135.5 11 135.44 11.02 135.42 11.06C135.42 11.06 135.46 11.08 135.48 11.09C135.57 11.12 135.64 11.16 135.73 11.18C135.82 11.21 135.93 11.17 136.02 11.2C136.22 11.26 136.22 11.26 136.38 11.25C136.52 11.24 136.65 11.23 136.78 11.22C136.81 11.22 136.84 11.23 136.87 11.24C136.95 11.26 137.01 11.32 137.14 11.3C137.23 11.28 137.34 11.28 137.44 11.27C137.52 11.3 137.6 11.34 137.69 11.36C137.77 11.38 137.79 11.4 137.75 11.43C137.71 11.46 137.65 11.47 137.58 11.48C137.51 11.48 137.44 11.49 137.37 11.49C137.34 11.49 137.31 11.5 137.28 11.5C137.15 11.51 137.15 11.51 136.91 11.44C136.82 11.42 136.72 11.45 136.63 11.43C136.57 11.41 136.52 11.39 136.46 11.37C136.44 11.36 136.4 11.36 136.37 11.36C136.27 11.37 136.17 11.37 136.07 11.39C136 11.4 135.96 11.43 135.97 11.46C135.97 11.47 136.02 11.49 136.05 11.49C136.11 11.49 136.18 11.47 136.25 11.48C136.31 11.49 136.37 11.51 136.41 11.53C136.5 11.58 136.61 11.54 136.7 11.55C136.79 11.57 136.86 11.61 136.95 11.63C136.97 11.64 137.02 11.63 137.05 11.63C137.15 11.62 137.25 11.61 137.35 11.61C137.43 11.64 137.52 11.66 137.6 11.7C137.73 11.76 137.88 11.79 138.06 11.76C138.16 11.74 138.25 11.75 138.33 11.79C138.41 11.83 138.51 11.83 138.61 11.82C138.71 11.81 138.8 11.79 138.9 11.82C139.11 11.88 139.11 11.89 139.36 11.86C139.44 11.85 139.5 11.85 139.55 11.87C139.61 11.9 139.66 11.92 139.72 11.94C139.82 11.93 139.92 11.92 140.02 11.91C140.15 11.9 140.22 11.92 140.25 11.98C140.27 12.01 140.27 12.05 140.32 12.07C140.37 12.1 140.43 12.1 140.51 12.09C140.58 12.08 140.63 12.07 140.66 12.03C140.67 12.02 140.7 12 140.72 11.99C140.74 11.98 140.77 11.97 140.78 11.97C140.82 11.97 140.86 11.98 140.87 12C140.97 12.13 140.97 12.13 141.07 12.16C141.18 12.21 141.3 12.24 141.4 12.29C141.49 12.33 141.58 12.31 141.68 12.31C141.75 12.31 141.8 12.34 141.8 12.37C141.79 12.39 141.76 12.41 141.74 12.41C141.54 12.43 141.34 12.45 141.14 12.47C141.11 12.47 141.08 12.45 141.06 12.44C141 12.42 140.95 12.39 140.89 12.38C140.83 12.38 140.75 12.39 140.69 12.4C140.62 12.4 140.55 12.42 140.49 12.41C140.43 12.4 140.38 12.37 140.32 12.35C140.3 12.34 140.26 12.33 140.24 12.33C140.09 12.35 139.98 12.32 139.87 12.27C139.85 12.26 139.81 12.26 139.78 12.26C139.55 12.28 139.31 12.3 139.08 12.32C138.98 12.33 138.91 12.29 138.89 12.23C138.87 12.19 138.85 12.16 138.85 12.12C138.85 12.06 138.74 12.02 138.66 12.03C138.53 12.04 138.39 12.05 138.26 12.06C138.15 12.08 138.06 12.06 137.99 12.03C137.9 11.98 137.8 11.99 137.71 12C137.63 12.01 137.61 12.05 137.62 12.13C137.62 12.21 137.59 12.23 137.45 12.24C137.29 12.26 137.12 12.27 136.95 12.28C136.92 12.28 136.89 12.27 136.87 12.26C136.81 12.24 136.76 12.21 136.7 12.2C136.64 12.19 136.57 12.21 136.5 12.22C136.43 12.22 136.36 12.24 136.3 12.23C136.24 12.22 136.19 12.19 136.13 12.17C136.11 12.16 136.07 12.14 136.05 12.15C135.91 12.16 135.78 12.17 135.64 12.18C135.5 12.19 135.5 12.19 135.28 12.13C135.18 12.1 135.09 12.12 134.99 12.13C134.89 12.14 134.79 12.14 134.71 12.1C134.66 12.07 134.6 12.05 134.54 12.06C134.37 12.07 134.2 12.09 134.04 12.1C134.01 12.1 133.97 12.1 133.95 12.09C133.84 12.04 133.73 12.01 133.58 12.03C133.45 12.05 133.31 12.05 133.18 12.07C133.11 12.08 133.08 12.11 133.09 12.14C133.1 12.15 133.14 12.17 133.17 12.17C133.24 12.17 133.31 12.15 133.37 12.16C133.5 12.17 133.56 12.26 133.72 12.24C133.82 12.22 133.92 12.22 134.02 12.21C134.05 12.21 134.08 12.23 134.11 12.24C134.19 12.27 134.26 12.31 134.38 12.29C134.47 12.28 134.58 12.27 134.68 12.26C134.84 12.25 134.84 12.25 135.04 12.32C135.14 12.35 135.24 12.32 135.33 12.31C135.4 12.31 135.47 12.3 135.53 12.31C135.62 12.34 135.68 12.39 135.78 12.38C135.89 12.38 135.99 12.37 136.09 12.36C136.15 12.36 136.21 12.37 136.26 12.4C136.31 12.43 136.37 12.44 136.44 12.44C136.54 12.43 136.64 12.42 136.74 12.41C136.77 12.41 136.8 12.42 136.83 12.43C136.89 12.45 136.94 12.47 137 12.49C137.1 12.49 137.2 12.48 137.3 12.47C137.37 12.46 137.42 12.47 137.48 12.49C137.56 12.52 137.62 12.57 137.75 12.54C137.81 12.53 137.89 12.53 137.95 12.52C138.03 12.51 138.08 12.52 138.14 12.55C138.24 12.61 138.37 12.61 138.5 12.59C138.65 12.56 138.76 12.59 138.87 12.64C138.98 12.69 138.98 12.68 139.07 12.8C139.1 12.84 139.17 12.85 139.24 12.85C139.34 12.84 139.44 12.84 139.51 12.88C139.59 12.93 139.69 12.92 139.79 12.91C139.92 12.89 140.06 12.88 140.16 12.94C140.22 12.97 140.27 12.98 140.34 12.97C140.55 12.95 140.75 12.94 140.95 12.92C141.07 12.9 141.13 12.94 141.22 12.96C141.33 13 141.45 13.04 141.45 13.12C141.45 13.14 141.47 13.15 141.5 13.16C141.55 13.19 141.61 13.21 141.66 13.23C141.74 13.26 141.82 13.29 141.94 13.27C142.03 13.26 142.14 13.25 142.24 13.24C142.34 13.23 142.43 13.23 142.52 13.27C142.62 13.31 142.73 13.36 142.85 13.39C142.93 13.42 143.04 13.37 143.13 13.41C143.19 13.43 143.24 13.45 143.3 13.47C143.32 13.48 143.36 13.47 143.39 13.47C143.46 13.46 143.53 13.46 143.59 13.45C143.67 13.44 143.73 13.44 143.78 13.46C143.84 13.49 143.89 13.52 143.95 13.52C144.04 13.53 144.14 13.49 144.23 13.54C144.28 13.56 144.34 13.59 144.4 13.6C144.46 13.6 144.53 13.59 144.6 13.59C144.63 13.59 144.66 13.61 144.68 13.62C144.69 13.63 144.67 13.65 144.66 13.66C144.64 13.67 144.61 13.69 144.59 13.69C144.39 13.71 144.18 13.72 143.98 13.74C143.86 13.75 143.86 13.75 143.62 13.69C143.57 13.67 143.5 13.67 143.43 13.68C143.34 13.69 143.24 13.71 143.14 13.69C143.01 13.62 142.85 13.61 142.68 13.64C142.61 13.65 142.54 13.65 142.49 13.63C142.38 13.59 142.26 13.55 142.16 13.5C142.08 13.47 142.05 13.46 142.01 13.51C142 13.53 141.99 13.55 141.99 13.56C142.01 13.62 142.03 13.67 142.04 13.72C142.05 13.74 142.03 13.75 142.02 13.77C141.99 13.81 141.94 13.81 141.87 13.77C141.8 13.74 141.72 13.71 141.6 13.73C141.5 13.74 141.4 13.74 141.3 13.76C141.15 13.78 141.05 13.75 140.94 13.7C140.92 13.69 140.88 13.69 140.85 13.69C140.55 13.71 140.24 13.74 139.94 13.77C139.88 13.77 139.82 13.75 139.77 13.73C139.71 13.7 139.66 13.68 139.59 13.69C139.32 13.71 139.05 13.73 138.78 13.76C138.67 13.77 138.59 13.76 138.51 13.72C138.46 13.69 138.4 13.68 138.33 13.69C138.25 13.69 138.2 13.7 138.16 13.73C138.12 13.76 138.15 13.78 138.23 13.8C138.32 13.83 138.4 13.86 138.48 13.89C138.55 13.89 138.62 13.88 138.68 13.88C138.71 13.88 138.74 13.9 138.77 13.91C138.85 13.94 138.92 13.97 139.04 13.95C139.14 13.94 139.24 13.93 139.34 13.93C139.48 13.91 139.48 13.91 139.7 13.98C139.76 14 139.82 14 139.89 13.99C139.96 13.98 140.02 13.99 140.07 14.03C140.08 14.04 140.08 14.06 140.04 14.13C140.04 14.18 140.08 14.16 140.1 14.13C140.12 14.08 140.08 14.06 139.99 14.09C139.94 14.11 139.91 14.13 139.92 14.16C139.93 14.17 139.97 14.18 140.04 14.13C140.22 14.07 140.35 14.06 140.48 14.04C140.56 14.03 140.61 14.04 140.67 14.07C140.74 14.1 140.82 14.13 140.94 14.12C141.07 14.1 141.21 14.1 141.34 14.08C141.46 14.06 141.52 14.11 141.6 14.14C141.69 14.17 141.8 14.13 141.88 14.15C141.97 14.17 142.03 14.22 142.14 14.23C142.29 14.2 142.38 14.25 142.5 14.29C142.59 14.32 142.69 14.29 142.79 14.28C142.9 14.27 142.99 14.28 143.06 14.32C143.15 14.36 143.24 14.35 143.34 14.34C143.57 14.32 143.58 14.32 143.71 14.38C143.8 14.42 143.89 14.4 143.99 14.39C144.07 14.42 144.15 14.45 144.24 14.48C144.26 14.49 144.31 14.48 144.34 14.47C144.44 14.46 144.54 14.46 144.64 14.45C144.71 14.44 144.78 14.43 144.84 14.43C144.9 14.44 144.95 14.47 145.01 14.49C145.06 14.51 145.12 14.53 145.17 14.55C145.25 14.58 145.33 14.61 145.45 14.59C145.54 14.58 145.64 14.58 145.75 14.57C145.87 14.56 145.87 14.56 146.11 14.62C146.24 14.66 146.37 14.62 146.5 14.61C146.56 14.61 146.63 14.62 146.67 14.65C146.69 14.66 146.68 14.69 146.69 14.7C146.35 14.73 146.02 14.76 145.68 14.79C145.56 14.81 145.49 14.77 145.42 14.74C145.31 14.68 145.16 14.76 145.05 14.69C144.98 14.65 144.89 14.63 144.78 14.65C144.71 14.66 144.64 14.66 144.58 14.67C144.41 14.69 144.25 14.69 144.11 14.62C144.07 14.59 144 14.58 143.95 14.56C143.89 14.53 143.84 14.51 143.77 14.52C143.47 14.55 143.17 14.57 142.87 14.6C142.84 14.6 142.82 14.62 142.79 14.63C142.74 14.66 142.75 14.68 142.85 14.7C142.88 14.71 142.9 14.72 142.93 14.73C142.98 14.75 143.03 14.78 143.1 14.79C143.16 14.8 143.23 14.78 143.3 14.78C143.36 14.77 143.43 14.76 143.49 14.76C143.56 14.77 143.61 14.8 143.66 14.82C143.69 14.83 143.72 14.85 143.75 14.85C143.88 14.84 144.01 14.83 144.15 14.82C144.23 14.85 144.3 14.89 144.4 14.9C144.47 14.91 144.53 14.89 144.6 14.9C144.63 14.9 144.66 14.91 144.68 14.93C144.68 14.94 144.66 14.96 144.64 14.97C144.56 15.01 144.46 15 144.36 15.01C144.26 15.03 144.16 15.02 144.08 14.98C144.03 14.95 143.97 14.94 143.91 14.94C143.74 14.96 143.57 14.97 143.4 14.99C143.37 14.99 143.34 14.98 143.31 14.97C143.1 14.91 143.1 14.9 142.95 14.92C142.73 14.94 142.73 14.94 142.58 14.88C142.55 14.87 142.52 14.85 142.5 14.85C142.26 14.87 142.03 14.89 141.79 14.91C141.72 14.92 141.66 14.92 141.61 14.89C141.56 14.87 141.5 14.84 141.44 14.83C141.38 14.83 141.31 14.84 141.24 14.85C141.17 14.85 141.1 14.87 141.04 14.86C140.98 14.85 140.93 14.82 140.88 14.8C140.82 14.78 140.76 14.78 140.69 14.79C140.46 14.81 140.45 14.81 140.22 14.74C140.2 14.73 140.16 14.73 140.13 14.73C139.97 14.74 139.8 14.76 139.63 14.77C139.57 14.77 139.5 14.76 139.46 14.73C139.44 14.72 139.45 14.7 139.43 14.65C139.42 14.64 139.44 14.66 139.44 14.68C139.47 14.67 139.51 14.68 139.53 14.67C139.59 14.65 139.61 14.62 139.6 14.6C139.59 14.59 139.55 14.57 139.53 14.57C139.48 14.57 139.45 14.6 139.43 14.65C139.31 14.69 139.17 14.7 139.04 14.71C138.96 14.72 138.91 14.72 138.85 14.69C138.78 14.66 138.7 14.62 138.58 14.64C138.45 14.66 138.31 14.66 138.18 14.68C138.03 14.7 137.96 14.6 137.83 14.6C137.69 14.6 137.56 14.62 137.42 14.63C137.31 14.64 137.31 14.64 137.06 14.58C136.97 14.55 136.87 14.59 136.78 14.56C136.72 14.54 136.67 14.52 136.61 14.5C136.59 14.49 136.55 14.49 136.52 14.49C136.35 14.51 136.18 14.52 136.02 14.54C135.83 14.57 135.69 14.54 135.56 14.47C135.39 14.49 135.23 14.49 135.06 14.51C134.94 14.53 134.87 14.49 134.79 14.46C134.76 14.45 134.74 14.44 134.71 14.43C134.68 14.43 134.64 14.44 134.61 14.44C134.47 14.45 134.34 14.46 134.21 14.48C134.05 14.5 133.99 14.41 133.86 14.4C133.78 14.46 133.73 14.53 133.57 14.53C133.43 14.54 133.3 14.55 133.17 14.57C133.1 14.57 133.03 14.58 132.96 14.58C132.86 14.59 132.81 14.63 132.83 14.7C132.84 14.73 132.85 14.77 132.86 14.8C132.88 14.87 132.83 14.92 132.75 14.93C132.51 14.95 132.28 14.97 132.04 14.99C131.98 14.99 131.92 14.98 131.87 14.95C131.81 14.92 131.75 14.9 131.69 14.91C131.45 14.93 131.22 14.95 130.98 14.97C130.96 14.97 130.92 14.96 130.89 14.95C130.84 14.93 130.78 14.91 130.73 14.89C130.6 14.9 130.46 14.91 130.33 14.92C130.12 14.94 130.12 14.94 129.96 14.88C129.93 14.87 129.9 14.85 129.88 14.85C129.78 14.86 129.68 14.87 129.58 14.88C129.28 14.9 129.28 14.9 129.19 14.87C129.11 14.84 129.04 14.81 128.92 14.82C128.79 14.84 128.65 14.85 128.52 14.86C128.42 14.87 128.32 14.87 128.22 14.88C128.19 14.88 128.16 14.86 128.13 14.85C128.05 14.81 127.97 14.79 127.86 14.81C127.8 14.82 127.73 14.82 127.66 14.82C127.49 14.84 127.49 14.84 127.2 14.77C127.17 14.77 127.14 14.76 127.11 14.76C126.87 14.78 126.64 14.8 126.4 14.82C126.37 14.82 126.34 14.82 126.31 14.81C125.99 14.75 125.99 14.75 125.65 14.78C125.52 14.79 125.51 14.8 125.38 14.74C125.32 14.71 125.27 14.7 125.2 14.71C124.93 14.74 124.66 14.75 124.39 14.78C124.27 14.8 124.2 14.76 124.12 14.73C124.09 14.73 124.06 14.7 124.04 14.7C123.77 14.73 123.5 14.75 123.23 14.77C123.21 14.77 123.18 14.75 123.15 14.74C123.09 14.72 123.04 14.69 122.98 14.69C122.92 14.68 122.85 14.7 122.78 14.7C122.61 14.72 122.61 14.71 122.41 14.65C122.39 14.64 122.35 14.63 122.33 14.63C122.06 14.65 121.79 14.67 121.52 14.7C121.37 14.72 121.27 14.69 121.16 14.64C121.14 14.64 121.1 14.63 121.07 14.63C120.77 14.66 120.47 14.69 120.16 14.71C120.1 14.72 120.04 14.7 119.99 14.67C119.91 14.63 119.81 14.63 119.71 14.64C119.48 14.66 119.47 14.66 119.34 14.61C119.31 14.6 119.28 14.59 119.25 14.58C119.22 14.58 119.19 14.58 119.16 14.58C119.02 14.59 118.89 14.6 118.76 14.62C118.62 14.63 118.48 14.63 118.35 14.65C118.19 14.67 118.11 14.6 118 14.57C117.83 14.59 117.66 14.59 117.5 14.62C117.37 14.63 117.31 14.59 117.23 14.56C117.2 14.55 117.17 14.54 117.14 14.54C116.84 14.56 116.54 14.59 116.24 14.62C116.16 14.62 116.12 14.61 116.05 14.59C115.92 14.53 115.91 14.53 115.68 14.55C115.58 14.56 115.49 14.57 115.4 14.53C115.33 14.49 115.24 14.48 115.13 14.49C115 14.51 114.86 14.52 114.73 14.53C114.59 14.54 114.46 14.56 114.32 14.56C114.22 14.57 114.15 14.52 114.07 14.49C114.04 14.48 114 14.48 113.97 14.48C113.84 14.49 113.7 14.5 113.57 14.52C113.41 14.54 113.32 14.48 113.21 14.45C113.19 14.44 113.15 14.45 113.12 14.45C112.88 14.47 112.65 14.49 112.41 14.51C112.33 14.48 112.24 14.45 112.16 14.42C112.03 14.43 111.89 14.45 111.76 14.46C111.66 14.47 111.55 14.47 111.46 14.48C111.33 14.51 111.27 14.46 111.19 14.43C111.16 14.42 111.13 14.4 111.1 14.41C110.93 14.42 110.77 14.43 110.6 14.45C110.44 14.47 110.38 14.37 110.25 14.37C110.11 14.37 109.98 14.39 109.85 14.41C109.7 14.43 109.59 14.4 109.48 14.35C109.46 14.34 109.42 14.33 109.39 14.34C109.22 14.35 109.06 14.37 108.89 14.38C108.86 14.38 108.83 14.37 108.8 14.37C108.48 14.31 108.48 14.3 108.34 14.32C108.24 14.33 108.13 14.34 108.03 14.34C108 14.34 107.97 14.33 107.94 14.33C107.73 14.26 107.73 14.26 107.58 14.27C107.45 14.28 107.31 14.3 107.18 14.31C107.09 14.28 107.01 14.25 106.93 14.22C106.76 14.24 106.59 14.25 106.42 14.27C106.35 14.27 106.29 14.27 106.24 14.24C106.16 14.21 106.09 14.18 105.97 14.19C105.84 14.21 105.7 14.21 105.57 14.23C105.41 14.25 105.34 14.15 105.22 14.15C105.08 14.15 104.94 14.17 104.81 14.19C104.66 14.21 104.56 14.18 104.45 14.13C104.43 14.12 104.39 14.12 104.36 14.12C103.99 14.15 103.62 14.18 103.25 14.21C103.02 14.23 103.02 14.23 102.59 14.18C102.56 14.17 102.53 14.17 102.5 14.17C102.36 14.18 102.23 14.19 102.1 14.2C101.94 14.23 101.85 14.17 101.74 14.13C101.71 14.13 101.68 14.13 101.64 14.13C101.54 14.14 101.44 14.15 101.34 14.16C101.21 14.17 101.07 14.18 100.94 14.19C100.85 14.17 100.77 14.14 100.69 14.11C100.52 14.12 100.35 14.13 100.18 14.15C100.06 14.17 100 14.13 99.91 14.1C99.89 14.09 99.86 14.07 99.83 14.07C99.53 14.1 99.22 14.12 98.92 14.15C98.8 14.16 98.74 14.12 98.66 14.09C98.63 14.08 98.6 14.07 98.57 14.07C98.37 14.09 98.17 14.11 97.97 14.12C97.85 14.13 97.85 14.13 97.61 14.07C97.58 14.06 97.55 14.05 97.52 14.06C96.88 14.11 96.24 14.17 95.6 14.22C95.54 14.22 95.48 14.21 95.43 14.18C95.38 14.15 95.32 14.14 95.25 14.14C94.98 14.16 94.71 14.18 94.45 14.21C94.34 14.22 94.25 14.21 94.18 14.17C94.12 14.14 94.07 14.13 94 14.14C93.86 14.15 93.73 14.16 93.59 14.18C93.46 14.19 93.32 14.2 93.19 14.21C93.06 14.22 92.92 14.23 92.79 14.25C92.63 14.27 92.55 14.2 92.43 14.17C92.23 14.19 92.03 14.2 91.83 14.22C91.56 14.24 91.3 14.27 91.03 14.29C91 14.29 90.97 14.27 90.94 14.26C90.86 14.23 90.8 14.2 90.68 14.21C90.07 14.27 89.47 14.31 88.87 14.37C88.74 14.38 88.68 14.33 88.6 14.31C88.57 14.3 88.54 14.29 88.51 14.29C88.18 14.32 87.84 14.35 87.51 14.37C87.37 14.39 87.37 14.39 87.14 14.32C87.12 14.31 87.08 14.3 87.05 14.31C86.62 14.34 86.18 14.38 85.74 14.42C85.68 14.42 85.62 14.41 85.57 14.38C85.52 14.35 85.46 14.33 85.39 14.34C84.99 14.37 84.59 14.41 84.18 14.44C84.08 14.46 83.99 14.45 83.91 14.41C83.86 14.38 83.8 14.37 83.73 14.37C83.13 14.43 82.52 14.48 81.92 14.53C81.81 14.54 81.72 14.52 81.65 14.49C81.59 14.46 81.54 14.45 81.47 14.46C81.39 14.46 81.34 14.48 81.3 14.51C81.25 14.55 81.21 14.6 81.08 14.6C80.95 14.61 80.81 14.62 80.68 14.64C80.55 14.66 80.49 14.61 80.41 14.58C80.36 14.56 80.3 14.56 80.23 14.57C80.16 14.57 80.11 14.59 80.07 14.63C79.98 14.7 79.98 14.7 79.87 14.65C79.81 14.63 79.75 14.61 79.69 14.61C79.42 14.64 79.15 14.66 78.88 14.68C78.73 14.7 78.73 14.7 78.61 14.65C78.56 14.62 78.5 14.61 78.43 14.61C77.7 14.68 76.96 14.74 76.22 14.81C76.11 14.82 76.03 14.79 75.95 14.76C75.92 14.75 75.9 14.74 75.86 14.73C75.83 14.73 75.8 14.73 75.77 14.73C75.23 14.78 74.69 14.82 74.16 14.88C74.04 14.89 73.97 14.85 73.89 14.83C73.86 14.82 73.83 14.8 73.8 14.8C73.77 14.79 73.74 14.8 73.7 14.8C73.17 14.85 72.63 14.89 72.1 14.95C71.97 14.96 71.91 14.91 71.83 14.89C71.8 14.88 71.77 14.86 71.74 14.87C71.57 14.88 71.41 14.89 71.24 14.91C70.84 14.94 70.43 14.98 70.03 15.01C69.88 15.03 69.81 14.93 69.68 14.94C69.51 14.94 69.35 14.96 69.18 14.98C69.04 14.99 68.91 15 68.77 15.01C68.64 15.02 68.64 15.02 68.31 14.96C68.28 14.96 68.25 14.95 68.22 14.95C67.75 14.99 67.28 15.03 66.81 15.07C66.71 15.08 66.62 15.08 66.54 15.04C66.48 15.01 66.43 15 66.36 15C65.65 15.06 64.95 15.12 64.25 15.18C64.22 15.19 64.19 15.18 64.16 15.17C64.1 15.15 64.05 15.13 63.99 15.11C63.95 15.13 63.9 15.15 63.87 15.18C63.84 15.22 63.79 15.23 63.71 15.23C63.63 15.24 63.58 15.24 63.52 15.21C63.45 15.18 63.37 15.15 63.25 15.16C62.52 15.23 61.78 15.29 61.04 15.35C60.92 15.37 60.86 15.32 60.78 15.29C60.75 15.29 60.72 15.27 60.69 15.28C60.39 15.3 60.09 15.33 59.78 15.35C58.94 15.43 58.1 15.5 57.27 15.57C57.11 15.59 57.01 15.56 56.9 15.51C56.88 15.5 56.84 15.5 56.81 15.5C55.64 15.6 54.46 15.7 53.29 15.8C53.23 15.81 53.17 15.79 53.12 15.77C53.06 15.74 53.01 15.72 52.94 15.73C52.4 15.77 51.87 15.82 51.33 15.87C51.2 15.88 51.19 15.88 51.06 15.83C51.03 15.82 51 15.8 50.98 15.8C50.93 15.8 50.88 15.83 50.85 15.87C50.82 15.91 50.77 15.92 50.69 15.92C50.62 15.93 50.56 15.93 50.51 15.9C50.43 15.87 50.36 15.84 50.24 15.85C48.7 15.99 47.15 16.12 45.61 16.25C45.49 16.26 45.43 16.22 45.35 16.2C45.32 16.19 45.29 16.18 45.26 16.17C45.23 16.17 45.19 16.18 45.16 16.18C42.64 16.4 40.13 16.62 37.61 16.83C37.46 16.85 37.46 16.85 37.3 16.94C37.28 16.96 37.25 16.97 37.22 16.97C36.45 17.04 35.68 17.11 34.91 17.18C34.57 17.2 34.24 17.23 33.9 17.26C33.78 17.27 33.78 17.27 33.5 17.39C33.47 17.4 33.44 17.41 33.41 17.41C32.07 17.53 30.73 17.64 29.39 17.76C29.28 17.77 29.2 17.79 29.15 17.84C29.11 17.87 29.07 17.89 29 17.9C28.06 17.98 27.12 18.06 26.18 18.14C26.07 18.15 26 18.18 25.95 18.23C25.93 18.24 25.91 18.26 25.89 18.27C25.86 18.28 25.83 18.28 25.8 18.29C24.99 18.36 24.19 18.43 23.38 18.49C23.26 18.5 23.21 18.54 23.15 18.58C23.13 18.6 23.12 18.62 23.09 18.63C23.07 18.64 23.03 18.64 22.99 18.64C22.32 18.7 21.65 18.75 20.98 18.81C20.85 18.81 20.82 18.87 20.76 18.91C20.74 18.92 20.72 18.94 20.7 18.94C20.67 18.95 20.63 18.95 20.6 18.95C20.06 19 19.52 19.05 18.98 19.09C18.86 19.1 18.84 19.16 18.77 19.19C18.75 19.2 18.72 19.22 18.7 19.23C18.36 19.26 18.03 19.29 17.69 19.31C17.58 19.32 17.58 19.32 17.38 19.43C17.36 19.44 17.33 19.45 17.31 19.46C16.8 19.5 16.3 19.54 15.8 19.59C15.73 19.59 15.69 19.62 15.65 19.65C15.62 19.69 15.57 19.71 15.51 19.72C15.11 19.75 14.71 19.79 14.3 19.82C14.19 19.83 14.12 19.86 14.07 19.91C14.03 19.94 13.99 19.96 13.92 19.97C13.51 20 13.11 20.04 12.71 20.07C12.59 20.08 12.53 20.11 12.48 20.16C12.44 20.19 12.4 20.21 12.32 20.21C11.58 20.28 10.84 20.34 10.11 20.41C9.98 20.42 9.92 20.38 9.84 20.35C9.72 20.32 9.62 20.28 9.62 20.19C9.62 20.18 9.58 20.16 9.56 20.15C9.38 20.07 9.38 20.07 9.35 19.99C9.33 19.94 9.31 19.88 9.3 19.83C9.27 19.74 9.21 19.72 9.02 19.74C8.95 19.74 8.89 19.75 8.82 19.75C8.72 19.76 8.64 19.72 8.63 19.66C8.62 19.63 8.6 19.59 8.59 19.56C8.7 19.55 8.69 19.55 8.87 19.42C8.95 19.36 8.95 19.36 8.8 19.31C8.75 19.29 8.7 19.26 8.64 19.25C8.61 19.24 8.58 19.23 8.55 19.23C8.38 19.25 8.21 19.26 8.04 19.28C7.78 19.3 7.78 19.3 7.5 19.19C7.48 19.18 7.45 19.17 7.45 19.16C7.47 19.12 7.53 19.1 7.6 19.1C7.7 19.09 7.8 19.08 7.9 19.07C7.97 19.07 8.03 19.06 8.1 19.05C8.16 19.01 8.23 18.97 8.29 18.93C8.38 18.87 8.38 18.87 8.25 18.82C8.17 18.79 8.08 18.77 8 18.74C7.9 18.75 7.8 18.76 7.7 18.76C7.57 18.77 7.52 18.75 7.49 18.68C7.46 18.62 7.5 18.57 7.59 18.56C7.69 18.54 7.79 18.54 7.84 18.48C7.89 18.43 7.97 18.41 8.08 18.4C8.14 18.4 8.21 18.39 8.28 18.39C8.37 18.38 8.41 18.32 8.39 18.26C8.38 18.22 8.36 18.19 8.28 18.18C7.93 18.14 7.93 18.15 7.75 18.07C7.74 18.07 7.73 18.05 7.73 18.04C7.74 18.02 7.76 18 7.79 18C8.02 17.97 8.26 17.95 8.49 17.93C8.57 17.93 8.62 17.92 8.65 17.88C8.69 17.83 8.67 17.78 8.6 17.74C8.58 17.73 8.54 17.71 8.52 17.71C8.25 17.73 7.98 17.76 7.71 17.78C7.69 17.78 7.64 17.76 7.63 17.75C7.61 17.72 7.64 17.69 7.72 17.68C7.81 17.66 7.9 17.66 7.97 17.61C8.06 17.53 8.16 17.46 8.26 17.39C8.28 17.37 8.3 17.35 8.3 17.35C8.25 17.32 8.19 17.31 8.13 17.28C8.04 17.25 8.04 17.19 8.07 17.14C8.08 17.1 8.14 17.09 8.22 17.09C8.25 17.09 8.29 17.09 8.32 17.08C8.39 17.05 8.41 17.02 8.37 17C8.35 16.99 8.32 16.97 8.29 16.97C7.86 17.01 7.42 17.04 6.99 17.09C6.86 17.1 6.8 17.06 6.72 17.03C6.66 17.01 6.61 17 6.54 17.02C6.47 17.03 6.4 17.02 6.36 16.99C6.32 16.96 6.38 16.93 6.55 16.91C6.58 16.9 6.61 16.9 6.64 16.89C6.87 16.77 6.87 16.77 7.04 16.75C7.19 16.74 7.19 16.74 7.28 16.68C7.32 16.65 7.36 16.62 7.39 16.59C7.41 16.58 7.43 16.56 7.43 16.55C7.38 16.52 7.32 16.51 7.25 16.52C7.09 16.54 6.9 16.52 6.82 16.62C6.79 16.66 6.74 16.67 6.66 16.68C5.93 16.74 5.19 16.81 4.45 16.87C4.33 16.88 4.28 16.91 4.23 16.96C4.19 16.99 4.15 17.01 4.07 17.01C3.99 17.02 3.93 17.02 3.89 16.99C3.86 16.96 3.88 16.93 3.94 16.91C4.03 16.86 4.02 16.81 3.99 16.76C3.97 16.73 3.9 16.7 3.84 16.7C3.74 16.71 3.64 16.72 3.56 16.68C3.51 16.65 3.45 16.64 3.39 16.61C3.29 16.57 3.18 16.53 3.03 16.56C2.93 16.54 2.86 16.51 2.78 16.48C2.64 16.43 2.63 16.42 2.73 16.37C2.84 16.31 2.75 16.23 2.81 16.17C2.88 16.11 2.97 16.06 3.05 16C3.07 15.98 3.09 15.97 3.11 15.96C3.06 15.93 3.02 15.91 2.96 15.89C2.89 15.87 2.85 15.85 2.86 15.78C2.84 15.77 2.85 15.8 2.87 15.81C2.89 15.81 2.93 15.81 2.95 15.8C3.01 15.78 3.04 15.75 3.02 15.73C3.02 15.72 2.98 15.7 2.95 15.7C2.91 15.7 2.87 15.73 2.86 15.78C2.63 15.83 2.39 15.85 2.16 15.87C2.13 15.87 2.1 15.85 2.07 15.84C1.98 15.8 1.98 15.8 1.71 15.79C1.68 15.79 1.64 15.77 1.62 15.76C1.57 15.69 1.57 15.62 1.54 15.55C1.59 15.51 1.65 15.47 1.7 15.42C1.81 15.33 1.95 15.25 2.04 15.16C2.02 15.11 2 15.05 2.08 15.01C2.34 14.96 2.34 14.96 2.41 14.91C2.6 14.76 2.8 14.61 3 14.47C3.06 14.43 3.06 14.41 2.96 14.4C2.93 14.39 2.9 14.39 2.86 14.39C2.76 14.4 2.66 14.42 2.56 14.42C2.46 14.41 2.39 14.37 2.31 14.34C2.22 14.31 2.14 14.28 2.06 14.25C1.96 14.25 1.87 14.28 1.77 14.23C1.7 14.19 1.61 14.17 1.52 14.14C1.59 14.05 1.7 13.99 1.8 13.92C1.88 13.86 1.88 13.86 2.1 13.81C2.21 13.78 2.25 13.66 2.16 13.63C2.05 13.58 1.94 13.55 1.83 13.5C1.73 13.51 1.63 13.54 1.54 13.49C1.47 13.45 1.39 13.43 1.27 13.44C1.07 13.47 0.87 13.48 0.67 13.5C0.6 13.5 0.52 13.5 0.49 13.46C0.47 13.44 0.53 13.4 0.6 13.39C0.7 13.38 0.79 13.37 0.84 13.32C0.89 13.26 0.98 13.25 1.09 13.24C1.11 13.24 1.15 13.23 1.16 13.21C1.23 13.15 1.32 13.1 1.47 13.1C1.54 13.08 1.57 13.05 1.55 13.03C1.54 13.01 1.5 12.99 1.47 13C1.3 13.01 1.14 13.02 0.97 13.04C0.89 13.04 0.83 13.05 0.79 13.01C0.75 12.99 0.77 12.96 0.83 12.93C0.89 12.91 0.91 12.88 0.9 12.84C0.89 12.76 0.83 12.73 0.64 12.74C0.5 12.74 0.46 12.73 0.43 12.65C0.42 12.64 0.4 12.61 0.42 12.6C0.51 12.53 0.56 12.44 0.73 12.41C0.79 12.39 0.86 12.39 0.9 12.36C0.94 12.34 0.98 12.3 1.02 12.28C1.07 12.25 1.11 12.22 1.09 12.2C1.05 12.16 0.98 12.16 0.91 12.17C0.84 12.18 0.77 12.18 0.7 12.19C0.58 12.2 0.49 12.17 0.47 12.12C0.43 12 0.39 11.88 0.36 11.75C0.35 11.74 0.36 11.72 0.38 11.71C0.44 11.66 0.5 11.62 0.56 11.58C0.63 11.53 0.74 11.54 0.83 11.53C0.96 11.51 0.96 11.51 1.14 11.41C1.21 11.37 1.33 11.39 1.4 11.35C1.42 11.34 1.46 11.32 1.45 11.31C1.44 11.29 1.4 11.28 1.37 11.28C1.34 11.27 1.31 11.27 1.28 11.27C0.91 11.3 0.54 11.33 0.17 11.36C0.11 11.37 0.04 11.35 0.02 11.31C-0.01 11.28 0 11.24 0 11.21C0.05 11.17 0.12 11.13 0.17 11.08C0.21 11.04 0.26 11.03 0.33 11.02C0.43 11.02 0.53 11.01 0.65 11C0.86 10.84 1.07 10.68 1.29 10.52C1.39 10.46 1.36 10.4 1.38 10.33C1.4 10.27 1.54 10.28 1.63 10.26C1.7 10.24 1.72 10.21 1.7 10.19C1.68 10.17 1.64 10.16 1.61 10.16C1.55 10.16 1.48 10.17 1.41 10.17C1.35 10.18 1.27 10.17 1.21 10.19C1.16 10.21 1.13 10.24 1.09 10.28C1.05 10.31 1 10.32 0.93 10.32C0.83 10.33 0.73 10.34 0.63 10.34C0.52 10.3 0.4 10.26 0.3 10.22C0.28 10.21 0.27 10.18 0.28 10.17C0.28 10.13 0.25 10.1 0.18 10.08C0.12 10.06 0.08 10.04 0.03 10.02C0.07 9.99 0.11 9.96 0.14 9.93C0.21 9.86 0.3 9.82 0.46 9.82C0.52 9.78 0.57 9.73 0.65 9.7C0.72 9.67 0.85 9.7 0.91 9.63C0.94 9.6 0.98 9.57 1.03 9.56C1.12 9.54 1.23 9.55 1.29 9.49C1.32 9.45 1.36 9.42 1.42 9.41C1.49 9.4 1.56 9.4 1.6 9.38C1.63 9.37 1.66 9.35 1.66 9.34C1.66 9.33 1.62 9.31 1.59 9.31C1.56 9.3 1.53 9.29 1.5 9.3C1.4 9.3 1.3 9.31 1.2 9.32C1.17 9.32 1.14 9.32 1.1 9.31C1.02 9.29 1.02 9.27 1.09 9.23C1.16 9.19 1.21 9.15 1.27 9.1C1.34 9.1 1.42 9.1 1.46 9.08C1.54 9.05 1.59 9 1.65 8.96C1.72 8.95 1.79 8.95 1.85 8.94C1.88 8.93 1.89 8.91 1.91 8.89C1.95 8.87 1.99 8.83 2.04 8.82C2.13 8.8 2.24 8.8 2.3 8.75C2.33 8.71 2.37 8.67 2.43 8.67C2.59 8.67 2.66 8.61 2.74 8.55C2.8 8.51 2.93 8.53 2.99 8.49C3.04 8.47 3.07 8.43 3.12 8.41C3.14 8.4 3.17 8.39 3.2 8.39C3.37 8.37 3.54 8.36 3.71 8.34C3.73 8.34 3.76 8.32 3.78 8.31C3.82 8.28 3.85 8.24 3.9 8.23C3.95 8.21 4.03 8.21 4.09 8.2C4.3 8.19 4.32 8.19 4.41 8.1C4.49 8.03 4.68 8.08 4.74 8C4.78 7.95 4.85 7.91 4.97 7.91C5.13 7.9 5.3 7.88 5.47 7.87C5.62 7.85 5.62 7.85 5.78 7.75C5.85 7.71 5.96 7.71 6.06 7.71C6.16 7.7 6.25 7.69 6.3 7.63C6.35 7.58 6.44 7.56 6.54 7.55C6.64 7.55 6.75 7.55 6.82 7.51C7 7.41 7 7.41 7.13 7.4C7.33 7.38 7.53 7.36 7.73 7.34C7.87 7.33 8.01 7.33 8.13 7.31C8.23 7.29 8.27 7.23 8.33 7.19C8.49 7.17 8.66 7.16 8.83 7.14C9.06 7.12 9.29 7.1 9.53 7.08C9.63 7.04 9.65 6.95 9.82 6.95C9.92 6.94 10.02 6.93 10.12 6.92C10.29 6.91 10.46 6.89 10.62 6.88C10.75 6.87 10.77 6.82 10.84 6.78C10.86 6.77 10.88 6.75 10.91 6.75C11.17 6.72 11.45 6.71 11.71 6.67C11.73 6.66 11.76 6.64 11.76 6.62C11.77 6.61 11.73 6.6 11.71 6.59C11.68 6.58 11.65 6.57 11.62 6.58C10.78 6.65 9.94 6.72 9.1 6.79C8.98 6.8 8.98 6.8 8.7 6.92C8.67 6.93 8.64 6.94 8.61 6.94C8.48 6.95 8.34 6.96 8.21 6.98C8.1 6.99 8.01 6.98 7.94 6.94C7.88 6.91 7.83 6.9 7.76 6.91C7.68 6.91 7.63 6.92 7.58 6.95C7.52 6.99 7.49 7.04 7.37 7.05C6.8 7.1 6.23 7.15 5.66 7.2C5.58 7.18 5.54 7.16 5.56 7.13C5.57 7.12 5.6 7.1 5.62 7.09C5.86 7.07 6.09 7.05 6.33 7.03C6.36 7.03 6.4 7.03 6.42 7.02C6.51 6.97 6.54 6.89 6.71 6.89C6.81 6.88 6.91 6.87 7 6.85C7.03 6.85 7.05 6.83 7.06 6.81C7.06 6.8 7.03 6.79 7 6.78C6.91 6.75 6.81 6.79 6.72 6.76C6.69 6.76 6.65 6.75 6.64 6.73C6.64 6.72 6.67 6.7 6.7 6.69C6.72 6.68 6.75 6.67 6.78 6.67C7.05 6.64 7.32 6.62 7.59 6.6C7.7 6.59 7.77 6.56 7.82 6.51C7.86 6.48 7.9 6.46 7.97 6.45C8.44 6.41 8.91 6.37 9.38 6.33C9.5 6.33 9.56 6.29 9.61 6.24C9.65 6.21 9.69 6.19 9.77 6.19C10.44 6.13 11.11 6.07 11.78 6.02C11.91 6.01 11.94 5.96 12.01 5.92C12.03 5.91 12.04 5.89 12.07 5.88C12.1 5.87 12.14 5.88 12.17 5.87C12.71 5.83 13.24 5.78 13.78 5.74C13.91 5.73 13.93 5.67 14 5.64C14.02 5.62 14.04 5.6 14.07 5.6C14.47 5.56 14.87 5.53 15.27 5.5C15.54 5.47 15.81 5.45 16.08 5.43C16.21 5.42 16.21 5.41 16.39 5.31C16.41 5.3 16.44 5.29 16.46 5.28C17.24 5.22 18.01 5.15 18.78 5.08C18.84 5.08 18.89 5.05 18.92 5.02C18.96 4.98 19 4.96 19.07 4.95C19.67 4.9 20.27 4.85 20.88 4.8C20.99 4.79 21.07 4.76 21.11 4.71C21.15 4.68 21.2 4.66 21.27 4.65C21.87 4.6 22.47 4.55 23.08 4.5C23.19 4.49 23.25 4.45 23.31 4.41C23.33 4.39 23.34 4.37 23.37 4.37C23.67 4.34 23.97 4.31 24.27 4.29C24.4 4.28 24.44 4.23 24.49 4.19C24.53 4.16 24.58 4.14 24.66 4.14C24.82 4.13 24.99 4.11 25.15 4.09C25.18 4.09 25.21 4.07 25.21 4.05C25.22 4.02 25.17 4.01 25.09 4C24.29 4.06 23.48 4.13 22.68 4.2C22.54 4.22 22.54 4.22 22.36 4.32C22.34 4.33 22.32 4.34 22.29 4.35C21.52 4.41 20.75 4.48 19.97 4.55C19.91 4.55 19.86 4.58 19.83 4.61C19.8 4.65 19.75 4.67 19.69 4.68C18.95 4.74 18.21 4.81 17.47 4.87C17.36 4.88 17.28 4.9 17.24 4.95C17.2 4.99 17.15 5.01 17.08 5.01C16.38 5.07 15.68 5.13 14.97 5.19C14.9 5.2 14.85 5.17 14.85 5.14C14.85 5.12 14.88 5.1 14.91 5.1C15.27 5.06 15.64 5.02 16.01 5C16.13 4.99 16.17 4.94 16.23 4.9C16.25 4.89 16.27 4.87 16.3 4.86C16.32 4.85 16.36 4.86 16.4 4.85C17.27 4.78 18.14 4.7 19.01 4.63C19.14 4.62 19.16 4.57 19.23 4.53C19.25 4.52 19.27 4.5 19.3 4.5C19.57 4.47 19.83 4.45 20.1 4.42C20.57 4.38 21.04 4.34 21.51 4.3C21.65 4.29 21.65 4.29 21.82 4.19C21.84 4.18 21.87 4.16 21.9 4.16C23.14 4.05 24.38 3.95 25.62 3.84C25.69 3.83 25.74 3.81 25.77 3.77C25.8 3.74 25.85 3.71 25.91 3.71C27.59 3.56 29.27 3.42 30.94 3.27C31.05 3.26 31.13 3.24 31.18 3.19C31.22 3.15 31.26 3.13 31.33 3.13C33.18 2.97 35.02 2.81 36.87 2.65C38.11 2.54 39.35 2.43 40.59 2.33C40.71 2.32 40.77 2.29 40.83 2.24C40.84 2.23 40.86 2.2 40.89 2.2C41.15 2.18 41.42 2.15 41.69 2.13C41.77 2.15 41.85 2.18 41.94 2.21C42 2.17 42.06 2.13 42.12 2.09C42.52 2.06 42.92 2.01 43.33 1.99C43.35 1.99 43.38 2.01 43.41 2.02C43.6 2.09 43.71 2.09 43.83 2C43.87 1.96 43.91 1.94 43.97 1.93C44.17 1.91 44.38 1.9 44.58 1.88C44.68 1.86 44.77 1.88 44.85 1.91C44.9 1.94 44.96 1.95 45.03 1.95C45.4 1.91 45.77 1.88 46.14 1.85C46.16 1.85 46.19 1.83 46.21 1.82C46.25 1.79 46.29 1.76 46.33 1.73C46.38 1.75 46.44 1.76 46.49 1.79C46.54 1.81 46.6 1.81 46.67 1.81C48.15 1.68 49.63 1.55 51.1 1.42C51.23 1.41 51.28 1.45 51.37 1.48C51.4 1.49 51.43 1.5 51.46 1.5C51.49 1.5 51.52 1.5 51.56 1.49C52.66 1.4 53.77 1.3 54.88 1.2C55.03 1.19 55.03 1.19 55.24 1.26C55.27 1.27 55.3 1.28 55.33 1.27C55.84 1.23 56.34 1.19 56.84 1.14C56.91 1.14 56.96 1.16 57.02 1.18C57.14 1.23 57.15 1.23 57.23 1.16C57.27 1.12 57.31 1.1 57.38 1.09C57.45 1.08 57.51 1.09 57.57 1.11C57.65 1.13 57.71 1.18 57.83 1.17C58.37 1.12 58.91 1.07 59.44 1.02C59.57 1.01 59.63 1.05 59.71 1.07C59.74 1.08 59.77 1.1 59.8 1.1C59.83 1.11 59.86 1.1 59.9 1.09C60.57 1.04 61.24 0.98 61.91 0.92C62.04 0.91 62.09 0.95 62.18 0.98C62.2 0.98 62.24 1 62.26 1C62.66 0.96 63.07 0.93 63.47 0.89C63.62 0.88 63.62 0.88 63.84 0.95C63.86 0.96 63.9 0.96 63.93 0.96C64.39 0.92 64.87 0.88 65.34 0.84C65.48 0.83 65.48 0.83 65.9 0.88C65.93 0.89 65.96 0.9 65.99 0.89C66.53 0.85 67.06 0.8 67.6 0.75C67.71 0.74 67.8 0.75 67.88 0.79C67.93 0.82 67.99 0.83 68.05 0.82C68.66 0.77 69.26 0.72 69.87 0.67C69.98 0.65 70.06 0.68 70.14 0.71C70.16 0.72 70.19 0.73 70.22 0.74C70.25 0.74 70.29 0.74 70.32 0.74C70.92 0.68 71.53 0.63 72.13 0.58C72.25 0.57 72.32 0.6 72.4 0.63C72.43 0.64 72.46 0.66 72.48 0.66C72.72 0.64 72.95 0.62 73.19 0.6C73.31 0.58 73.37 0.63 73.45 0.65C73.48 0.66 73.51 0.68 73.54 0.68C74.04 0.63 74.55 0.59 75.05 0.54C75.12 0.54 75.17 0.55 75.23 0.58C75.31 0.61 75.39 0.63 75.5 0.62C75.74 0.59 75.97 0.57 76.21 0.55C76.35 0.54 76.35 0.54 76.77 0.6C76.8 0.6 76.83 0.61 76.86 0.61C77.26 0.57 77.67 0.54 78.07 0.5C78.18 0.49 78.27 0.5 78.34 0.54C78.4 0.57 78.45 0.58 78.52 0.57C78.89 0.54 79.26 0.51 79.63 0.48C79.76 0.46 79.9 0.44 80.03 0.44C80.13 0.45 80.2 0.5 80.29 0.52C80.31 0.53 80.35 0.52 80.39 0.52C80.86 0.48 81.33 0.44 81.8 0.4C81.92 0.38 81.98 0.42 82.06 0.45C82.09 0.46 82.12 0.48 82.15 0.47C82.32 0.46 82.48 0.45 82.65 0.43C82.85 0.42 83.06 0.4 83.25 0.38C83.42 0.36 83.48 0.45 83.61 0.46C83.71 0.46 83.81 0.44 83.91 0.43C84.11 0.42 84.31 0.4 84.51 0.38C84.58 0.38 84.64 0.36 84.66 0.32C84.66 0.31 84.63 0.3 84.61 0.29C84.34 0.18 84.34 0.18 84.07 0.2C83.9 0.22 83.73 0.23 83.56 0.24C83.53 0.25 83.5 0.24 83.47 0.23C83.39 0.21 83.4 0.19 83.47 0.15C83.54 0.12 83.59 0.07 83.65 0.03C83.73 0.05 83.81 0.08 83.9 0.11C83.96 0.1 84.03 0.1 84.1 0.09C84.43 0.06 84.77 0.03 85.1 0.01C85.13 0.01 85.16 0.03 85.19 0.04C85.27 0.07 85.34 0.1 85.46 0.08C85.76 0.05 86.06 0.03 86.36 0C86.5 -0.01 86.5 -0.01 86.73 0.06C86.75 0.07 86.79 0.08 86.82 0.07C87.12 0.05 87.42 0.02 87.72 0C87.79 -0.01 87.85 0 87.9 0.04C87.92 0.05 87.91 0.07 87.99 0.24C88.23 0.39 88.39 0.37 88.56 0.36C88.63 0.35 88.69 0.35 88.74 0.33C88.77 0.32 88.8 0.3 88.8 0.28C88.8 0.27 88.75 0.26 88.72 0.25C88.52 0.23 88.33 0.28 88.13 0.29C88.04 0.29 87.96 0.25 87.95 0.19C87.94 0.18 87.94 0.16 87.93 0.14C87.92 0.12 87.92 0.11 87.91 0.09C87.84 0.08 87.79 0.1 87.75 0.14C87.73 0.17 87.68 0.2 87.63 0.22C87.58 0.24 87.5 0.23 87.43 0.24C87.37 0.24 87.3 0.26 87.24 0.25C87.17 0.24 87.13 0.21 87.07 0.19C87.04 0.18 87.01 0.17 86.98 0.17C86.75 0.19 86.52 0.21 86.29 0.23C86.16 0.24 86.1 0.2 86.03 0.17C85.97 0.15 85.9 0.15 85.89 0.2C85.87 0.32 85.96 0.37 86.17 0.35C86.34 0.33 86.49 0.32 86.63 0.4C86.65 0.41 86.69 0.41 86.72 0.41C86.88 0.4 87.05 0.38 87.21 0.37C87.24 0.37 87.28 0.37 87.3 0.37C87.72 0.43 87.72 0.43 87.86 0.42C87.93 0.41 87.99 0.41 87.99 0.25C88.11 0.07 88.32 0.06 88.51 0.03C88.64 0.02 88.7 0.07 88.78 0.09C88.81 0.1 88.84 0.12 88.87 0.11C89.3 0.08 89.74 0.04 90.17 0C90.25 0 90.3 0 90.36 0.03C90.43 0.06 90.51 0.09 90.63 0.07C90.86 0.05 91.09 0.03 91.33 0.01C91.45 0 91.45 0 91.69 0.07C91.72 0.07 91.75 0.08 91.78 0.08C92.02 0.06 92.25 0.04 92.48 0.02C92.55 0.02 92.61 0.03 92.66 0.06C92.71 0.09 92.77 0.1 92.83 0.1C93.07 0.08 93.3 0.06 93.54 0.04C93.56 0.04 93.6 0.04 93.62 0.05C93.87 0.12 93.87 0.12 93.99 0.11C94.15 0.09 94.32 0.08 94.49 0.06C94.65 0.04 94.73 0.1 94.84 0.14C95.14 0.11 95.45 0.09 95.75 0.06C95.87 0.05 95.93 0.08 96.01 0.11C96.04 0.12 96.07 0.14 96.1 0.14C96.2 0.14 96.3 0.12 96.4 0.12C96.5 0.11 96.6 0.1 96.7 0.09C96.81 0.12 96.89 0.19 97.05 0.17C97.15 0.15 97.25 0.15 97.35 0.14C97.45 0.13 97.55 0.13 97.65 0.12C97.72 0.11 97.79 0.11 97.85 0.1C97.97 0.08 98.03 0.13 98.12 0.16C98.14 0.17 98.18 0.18 98.2 0.18C98.41 0.16 98.61 0.15 98.81 0.12C98.96 0.11 99.06 0.14 99.17 0.18C99.19 0.19 99.23 0.2 99.26 0.19C99.49 0.18 99.73 0.15 99.96 0.13C100.03 0.13 100.09 0.15 100.14 0.17C100.19 0.2 100.25 0.22 100.31 0.21C100.55 0.19 100.78 0.17 101.02 0.15C101.05 0.15 101.08 0.16 101.11 0.17C101.33 0.23 101.33 0.23 101.47 0.22C101.5 0.22 101.54 0.22 101.57 0.21C101.73 0.2 101.91 0.19 102.07 0.17C102.26 0.14 102.39 0.17 102.53 0.24C102.69 0.22 102.86 0.21 103.02 0.19C103.15 0.18 103.21 0.22 103.29 0.24C103.32 0.25 103.35 0.27 103.38 0.27C103.61 0.25 103.85 0.24 104.08 0.21C104.21 0.2 104.26 0.24 104.35 0.27C104.37 0.28 104.4 0.29 104.43 0.29C104.57 0.28 104.7 0.27 104.83 0.26C104.99 0.24 104.99 0.24 105.2 0.31C105.3 0.34 105.39 0.32 105.49 0.31C105.59 0.3 105.69 0.29 105.77 0.34C105.82 0.36 105.88 0.38 105.94 0.38C106.08 0.37 106.21 0.36 106.34 0.34C106.45 0.33 106.54 0.34 106.62 0.38C106.67 0.4 106.73 0.42 106.8 0.41C107.1 0.39 107.4 0.36 107.7 0.34C107.73 0.33 107.76 0.34 107.79 0.35C107.85 0.37 107.9 0.39 107.96 0.41C108.09 0.4 108.22 0.4 108.35 0.39C108.49 0.37 108.62 0.37 108.73 0.42C108.75 0.44 108.78 0.46 108.81 0.45C108.91 0.45 109.01 0.44 109.11 0.43C109.21 0.42 109.31 0.41 109.41 0.4C109.52 0.43 109.6 0.51 109.76 0.48C109.86 0.47 109.96 0.47 110.06 0.46C110.16 0.45 110.26 0.44 110.36 0.43C110.39 0.43 110.43 0.42 110.46 0.43C110.49 0.43 110.52 0.45 110.54 0.46C110.62 0.49 110.7 0.52 110.81 0.5C110.91 0.49 111.02 0.48 111.12 0.47C111.25 0.46 111.25 0.46 111.48 0.53C111.57 0.56 111.67 0.52 111.76 0.54C111.82 0.56 111.87 0.59 111.93 0.61C111.95 0.61 111.99 0.62 112.02 0.61C112.15 0.6 112.29 0.6 112.42 0.58C112.53 0.57 112.62 0.58 112.69 0.62C112.75 0.65 112.8 0.66 112.87 0.65C113.21 0.62 113.54 0.6 113.88 0.56C113.99 0.55 114.08 0.57 114.14 0.61C114.25 0.67 114.4 0.6 114.52 0.65C114.58 0.68 114.65 0.72 114.78 0.7C115.01 0.68 115.25 0.66 115.48 0.64C115.56 0.67 115.65 0.7 115.73 0.73C115.87 0.72 116 0.7 116.14 0.69C116.23 0.69 116.34 0.68 116.44 0.67C116.47 0.67 116.5 0.66 116.53 0.67C116.56 0.67 116.59 0.69 116.62 0.7C116.76 0.75 116.76 0.75 116.99 0.73C117.09 0.72 117.18 0.71 117.27 0.76C117.34 0.8 117.44 0.8 117.54 0.79C117.74 0.77 117.94 0.75 118.15 0.74C118.21 0.73 118.27 0.75 118.32 0.78C118.4 0.82 118.5 0.82 118.6 0.81C118.73 0.79 118.86 0.78 118.97 0.84C118.99 0.85 119.03 0.87 119.05 0.87C119.22 0.86 119.39 0.85 119.55 0.83C119.71 0.81 119.79 0.88 119.9 0.91C120.07 0.9 120.24 0.88 120.41 0.87C120.44 0.87 120.48 0.86 120.5 0.86C120.62 0.88 120.69 0.96 120.86 0.94C120.95 0.92 121.06 0.92 121.16 0.92C121.18 0.92 121.22 0.93 121.24 0.95C121.25 0.96 121.24 0.98 121.22 0.99C121.19 1.02 121.14 1.04 121.11 1.08C121.11 1.08 121.14 1.1 121.17 1.11C121.22 1.13 121.29 1.12 121.36 1.11C121.42 1.11 121.49 1.12 121.53 1.15C121.55 1.17 121.54 1.19 121.5 1.26C121.5 1.31 121.55 1.29 121.56 1.25C121.58 1.2 121.54 1.19 121.46 1.22C121.4 1.23 121.37 1.26 121.39 1.28C121.4 1.3 121.44 1.31 121.5 1.26C121.68 1.19 121.82 1.18 121.95 1.17C121.99 1.17 122.03 1.16 122.05 1.16C122.14 1.19 122.22 1.22 122.31 1.25C122.4 1.24 122.49 1.23 122.59 1.27C122.72 1.33 122.73 1.32 122.86 1.31C122.93 1.3 122.99 1.3 123.06 1.29C123.13 1.29 123.18 1.3 123.24 1.33C123.36 1.38 123.37 1.38 123.45 1.31C123.5 1.27 123.53 1.25 123.59 1.27C123.78 1.34 123.79 1.34 123.95 1.32C124.09 1.31 124.22 1.3 124.32 1.36C124.39 1.41 124.41 1.4 124.47 1.35C124.61 1.23 124.68 1.24 124.96 1.32C125.08 1.36 125.22 1.32 125.35 1.31C125.46 1.31 125.53 1.33 125.54 1.4C125.55 1.44 125.57 1.47 125.64 1.49C125.67 1.49 125.7 1.5 125.73 1.5C125.9 1.49 126.07 1.47 126.23 1.46C126.32 1.45 126.37 1.4 126.35 1.33C126.33 1.26 126.36 1.24 126.49 1.22C126.56 1.2 126.62 1.21 126.68 1.22C126.74 1.25 126.72 1.27 126.67 1.3C126.53 1.4 126.55 1.46 126.72 1.52C126.78 1.54 126.83 1.56 126.85 1.6C126.85 1.61 126.85 1.64 126.86 1.65C126.96 1.72 127.1 1.77 127.26 1.8C127.4 1.77 127.51 1.82 127.62 1.86C127.71 1.89 127.81 1.86 127.91 1.85C128.02 1.84 128.11 1.85 128.18 1.89C128.24 1.92 128.3 1.93 128.36 1.92C128.5 1.91 128.63 1.9 128.77 1.89C128.88 1.87 128.97 1.89 129.04 1.93C129.13 1.98 129.23 1.94 129.32 1.95C129.44 1.96 129.51 2.05 129.67 2.03C129.77 2.01 129.87 2.01 129.97 2C130 2 130.03 2.02 130.05 2.03C130.16 2.09 130.29 2.09 130.43 2.07C130.52 2.06 130.62 2.05 130.71 2.09C130.86 2.16 131.03 2.22 131.2 2.28C131.22 2.33 131.2 2.39 131.32 2.42C131.38 2.43 131.44 2.45 131.48 2.48C131.54 2.51 131.59 2.51 131.67 2.51C131.8 2.49 131.94 2.49 132.07 2.47C132.19 2.45 132.26 2.49 132.33 2.52C132.39 2.55 132.45 2.56 132.52 2.54C132.59 2.52 132.64 2.54 132.7 2.56C132.79 2.6 132.79 2.6 133.07 2.61C133.1 2.61 133.13 2.63 133.15 2.64C133.16 2.65 133.14 2.67 133.13 2.68C133.11 2.69 133.08 2.71 133.05 2.71C132.75 2.74 132.45 2.76 132.15 2.79C132.12 2.8 132.08 2.8 132.06 2.81C132.04 2.83 132.01 2.84 132.01 2.86C132.01 2.87 132.05 2.88 132.08 2.89C132.17 2.91 132.27 2.87 132.36 2.9C132.42 2.92 132.47 2.95 132.53 2.96C132.55 2.97 132.59 2.97 132.62 2.97C132.72 2.96 132.82 2.95 132.92 2.94C132.95 2.94 132.98 2.95 133.01 2.96C133.2 3.03 133.2 3.03 133.37 3.01C133.44 3.01 133.51 2.99 133.57 3C133.64 3 133.69 3.03 133.74 3.05C133.86 3.09 133.96 3.13 133.97 3.21C133.98 3.24 134.04 3.27 134.11 3.27C134.18 3.27 134.25 3.26 134.31 3.25C134.47 3.24 134.47 3.24 134.68 3.31C134.73 3.33 134.79 3.33 134.87 3.32C134.89 3.31 134.93 3.32 134.96 3.32C135.06 3.34 135.06 3.36 135 3.4C134.9 3.45 134.91 3.46 135.17 3.51C135.27 3.52 135.34 3.56 135.42 3.59C135.55 3.64 135.55 3.64 135.46 3.7C135.44 3.71 135.43 3.73 135.41 3.74C135.35 3.79 135.3 3.83 135.18 3.83C135.04 3.84 134.91 3.86 134.78 3.87C134.64 3.88 134.61 3.9 134.62 3.98C134.64 4.06 134.66 4.07 134.9 4.07C134.96 4.07 135.02 4.08 135.07 4.11C135.05 4.14 135 4.17 134.94 4.18C134.77 4.19 134.6 4.21 134.44 4.22C134.3 4.23 134.17 4.25 134.04 4.26C133.95 4.26 133.9 4.32 133.92 4.38C133.93 4.42 133.94 4.45 133.95 4.49C133.98 4.56 134.02 4.58 134.16 4.57C134.19 4.57 134.22 4.56 134.25 4.57C134.39 4.57 134.45 4.66 134.61 4.64C134.74 4.63 134.88 4.63 135.01 4.61C135.13 4.59 135.2 4.63 135.28 4.66C135.31 4.67 135.34 4.69 135.36 4.69C135.53 4.67 135.7 4.66 135.87 4.64C135.94 4.63 135.99 4.64 136.05 4.66C136.2 4.73 136.2 4.72 136.42 4.7C136.58 4.69 136.58 4.69 136.78 4.76C136.84 4.77 136.9 4.77 136.97 4.77C137.07 4.76 137.17 4.74 137.27 4.75C137.3 4.76 137.34 4.77 137.35 4.79C137.35 4.8 137.32 4.82 137.3 4.83C137.12 4.88 136.91 4.87 136.72 4.89C136.66 4.9 136.59 4.88 136.54 4.85C136.49 4.82 136.43 4.81 136.37 4.82C136.23 4.83 136.09 4.84 135.96 4.85C135.85 4.87 135.77 4.84 135.69 4.81C135.66 4.8 135.63 4.78 135.61 4.78C135.31 4.8 135 4.82 134.7 4.85C134.58 4.87 134.52 4.83 134.43 4.8C134.41 4.79 134.38 4.77 134.35 4.77C134.25 4.78 134.15 4.79 134.05 4.8C133.68 4.83 133.31 4.86 132.94 4.89C132.92 4.89 132.89 4.87 132.86 4.86C132.8 4.84 132.75 4.83 132.69 4.81C132.59 4.82 132.49 4.83 132.39 4.83C132.31 4.84 132.25 4.85 132.24 4.89C132.23 4.92 132.3 4.94 132.37 4.94C132.44 4.94 132.51 4.93 132.56 4.94C132.85 5.01 132.85 5.01 133.02 5C133.18 4.98 133.16 4.97 133.3 5.03C133.36 5.06 133.41 5.07 133.48 5.07C133.64 5.05 133.81 5.04 133.98 5.02C134.01 5.02 134.04 5.03 134.07 5.04C134.27 5.1 134.27 5.11 134.43 5.09C134.65 5.07 134.66 5.07 134.8 5.13C134.9 5.18 134.99 5.14 135.09 5.14C135.2 5.18 135.32 5.22 135.42 5.27C135.53 5.32 135.66 5.31 135.79 5.3C135.89 5.29 135.99 5.28 136.07 5.33C136.15 5.37 136.24 5.37 136.35 5.36C136.44 5.35 136.54 5.33 136.64 5.35C136.67 5.36 136.71 5.38 136.7 5.39C136.7 5.4 136.67 5.42 136.65 5.43C136.46 5.47 136.26 5.47 136.06 5.49C136.03 5.49 136 5.48 135.97 5.47C135.92 5.45 135.86 5.43 135.81 5.41C135.71 5.42 135.6 5.42 135.51 5.43C135.43 5.44 135.38 5.44 135.32 5.42C135.27 5.39 135.21 5.36 135.15 5.36C135.09 5.35 135.02 5.37 134.95 5.37C134.89 5.38 134.81 5.37 134.76 5.39C134.7 5.41 134.67 5.45 134.64 5.48C134.6 5.51 134.55 5.52 134.47 5.52C134.4 5.53 134.34 5.52 134.29 5.49C134.27 5.48 134.24 5.47 134.2 5.46C134.18 5.45 134.14 5.44 134.12 5.44C133.81 5.47 133.51 5.5 133.21 5.52C133.06 5.53 133.06 5.53 132.75 5.47C132.72 5.47 132.69 5.46 132.66 5.46C132.49 5.47 132.32 5.49 132.15 5.5C131.98 5.52 131.99 5.52 131.69 5.45C131.64 5.44 131.56 5.45 131.5 5.45C131.37 5.45 131.3 5.36 131.15 5.37C131.02 5.39 130.88 5.39 130.75 5.41C130.63 5.43 130.56 5.39 130.48 5.36C130.45 5.35 130.42 5.33 130.39 5.33C130.09 5.36 129.79 5.38 129.39 5.39C129.29 5.39 129.33 5.41 129.4 5.42C129.49 5.43 129.52 5.4 129.47 5.36C129.43 5.33 129.38 5.32 129.34 5.32C129.32 5.33 129.29 5.35 129.39 5.39C129.49 5.43 129.49 5.45 129.5 5.46C129.55 5.49 129.61 5.51 129.68 5.5C129.78 5.49 129.88 5.48 129.98 5.48C130.01 5.47 130.04 5.48 130.07 5.49C130.29 5.56 130.3 5.56 130.53 5.54C130.61 5.53 130.66 5.53 130.72 5.55C130.8 5.58 130.86 5.62 130.99 5.61C131.15 5.59 131.32 5.58 131.49 5.56C131.52 5.56 131.54 5.58 131.57 5.59C131.66 5.62 131.72 5.66 131.84 5.64C131.94 5.63 132.04 5.62 132.14 5.62C132.17 5.62 132.21 5.64 132.22 5.65C132.25 5.67 132.22 5.7 132.15 5.72C132.12 5.73 132.08 5.73 132.05 5.73C131.91 5.74 131.78 5.76 131.64 5.77C131.57 5.77 131.51 5.79 131.5 5.83C131.49 5.85 131.57 5.88 131.64 5.88C131.74 5.87 131.84 5.86 131.94 5.85C132.11 5.83 132.26 5.83 132.4 5.9C132.5 5.95 132.49 5.93 132.6 6.07C132.63 6.1 132.7 6.11 132.77 6.11C132.94 6.1 133.02 6.12 133 6.15C132.99 6.19 132.93 6.2 132.85 6.21C132.72 6.22 132.58 6.23 132.45 6.24C132.42 6.25 132.38 6.25 132.35 6.25C132.32 6.25 132.29 6.23 132.26 6.22C132.21 6.2 132.16 6.17 132.1 6.17C132.04 6.16 131.97 6.17 131.9 6.18C131.83 6.19 131.76 6.2 131.7 6.19C131.64 6.19 131.59 6.16 131.53 6.14C131.5 6.13 131.47 6.11 131.45 6.11C131.31 6.12 131.18 6.13 131.04 6.15C130.88 6.16 130.88 6.16 130.68 6.09C130.62 6.07 130.56 6.08 130.49 6.08C130.33 6.1 130.33 6.1 130.03 6.04C130 6.03 129.97 6.02 129.94 6.03C129.63 6.05 129.33 6.08 129.03 6.1C128.77 6.12 128.77 6.12 128.63 6.23C128.53 6.31 128.52 6.31 128.63 6.35C128.71 6.38 128.79 6.42 128.88 6.44C128.96 6.45 129.07 6.4 129.16 6.45C129.21 6.48 129.27 6.5 129.33 6.51C129.42 6.51 129.52 6.48 129.61 6.53C129.66 6.55 129.72 6.58 129.78 6.58C129.88 6.58 129.98 6.56 130.08 6.56C130.11 6.55 130.14 6.55 130.17 6.56C130.2 6.57 130.23 6.58 130.26 6.59C130.34 6.62 130.43 6.64 130.53 6.62C130.7 6.59 130.86 6.61 130.99 6.68C131.01 6.69 131.06 6.69 131.08 6.68C131.16 6.67 131.22 6.67 131.28 6.69C131.3 6.7 131.33 6.72 131.33 6.73C131.32 6.74 131.3 6.76 131.27 6.77C131.08 6.8 130.87 6.81 130.68 6.83C130.65 6.83 130.62 6.82 130.59 6.81C130.53 6.79 130.49 6.76 130.42 6.75C130.36 6.74 130.29 6.75 130.23 6.76C130.16 6.76 130.09 6.78 130.03 6.77C129.97 6.77 129.91 6.74 129.86 6.72C129.8 6.69 129.75 6.69 129.67 6.7C129.58 6.71 129.47 6.71 129.37 6.72C129.32 6.7 129.26 6.68 129.21 6.66C129.18 6.65 129.15 6.64 129.12 6.64C128.99 6.65 128.85 6.66 128.72 6.67C128.58 6.68 128.58 6.68 128.36 6.62C128.33 6.61 128.29 6.6 128.27 6.6C128.1 6.62 127.93 6.63 127.76 6.65C127.7 6.65 127.64 6.64 127.59 6.61C127.53 6.58 127.47 6.56 127.41 6.57C127.14 6.59 126.87 6.61 126.61 6.64C126.5 6.65 126.41 6.64 126.33 6.6C126.25 6.56 126.15 6.57 126.05 6.58C125.83 6.6 125.83 6.6 125.68 6.54C125.65 6.53 125.62 6.51 125.6 6.51C125.36 6.53 125.13 6.54 124.9 6.57C124.77 6.58 124.71 6.54 124.63 6.52C124.6 6.51 124.57 6.49 124.55 6.49C124.38 6.5 124.21 6.51 124.04 6.53C123.88 6.55 123.82 6.46 123.69 6.46C123.52 6.46 123.36 6.48 123.19 6.5C123.06 6.51 122.92 6.52 122.79 6.53C122.65 6.54 122.52 6.55 122.38 6.57C122.31 6.57 122.26 6.57 122.2 6.54C122.13 6.5 122.04 6.48 121.96 6.44C121.83 6.4 121.83 6.4 121.68 6.41C121.65 6.41 121.61 6.42 121.58 6.42C121.34 6.44 121.34 6.44 121.02 6.37C121.01 6.37 120.97 6.38 120.96 6.39C120.92 6.42 120.88 6.45 120.84 6.48C120.78 6.46 120.72 6.45 120.68 6.43C120.58 6.36 120.41 6.45 120.31 6.38C120.27 6.36 120.2 6.33 120.14 6.33C120.08 6.32 120.01 6.34 119.94 6.34C119.77 6.36 119.77 6.36 119.63 6.45C119.56 6.5 119.45 6.49 119.35 6.5C119.25 6.51 119.16 6.52 119.08 6.48C119 6.44 118.91 6.43 118.8 6.44C118.67 6.46 118.53 6.47 118.4 6.48C118.37 6.48 118.34 6.47 118.31 6.47C118 6.4 118 6.4 117.85 6.42C117.78 6.42 117.71 6.42 117.65 6.43C117.54 6.45 117.45 6.43 117.37 6.39C117.35 6.38 117.32 6.36 117.29 6.36C117.16 6.37 117.02 6.38 116.89 6.39C116.79 6.4 116.69 6.4 116.59 6.42C116.43 6.44 116.35 6.37 116.24 6.34C116.07 6.35 115.9 6.36 115.74 6.38C115.66 6.39 115.61 6.39 115.55 6.36C115.47 6.33 115.4 6.29 115.28 6.31C115.12 6.33 114.95 6.34 114.78 6.35C114.67 6.32 114.59 6.25 114.43 6.27C114.33 6.29 114.23 6.29 114.13 6.3C113.99 6.31 113.86 6.32 113.72 6.34C113.58 6.35 113.58 6.35 113.36 6.28C113.23 6.25 113.1 6.29 112.97 6.29C112.87 6.3 112.82 6.35 112.84 6.41C112.87 6.47 112.81 6.52 112.72 6.53C112.49 6.55 112.25 6.57 112.02 6.59C111.99 6.59 111.95 6.59 111.93 6.58C111.68 6.51 111.68 6.51 111.56 6.52C111.4 6.54 111.23 6.55 111.06 6.57C110.95 6.58 110.87 6.56 110.79 6.52C110.74 6.49 110.68 6.49 110.61 6.49C109.8 6.57 109 6.63 108.2 6.71C108.08 6.72 108.01 6.69 107.93 6.66C107.9 6.65 107.87 6.63 107.84 6.63C107.78 6.63 107.71 6.64 107.64 6.64C107.34 6.67 107.04 6.7 106.74 6.72C106.61 6.73 106.58 6.78 106.52 6.82C106.48 6.85 106.43 6.86 106.35 6.87C106.28 6.87 106.23 6.86 106.17 6.84C106.1 6.8 106.01 6.78 105.9 6.79C105.77 6.81 105.63 6.82 105.5 6.83C105.43 6.83 105.38 6.85 105.35 6.89C105.35 6.9 105.39 6.91 105.42 6.92C105.5 6.96 105.58 6.99 105.67 7.02C105.76 7.04 105.86 7.01 105.96 7.01C105.99 7 106.03 7 106.06 7C106.09 7 106.13 7.01 106.15 7.01C106.25 7.06 106.37 7.1 106.51 7.07C106.64 7.08 106.7 7.17 106.86 7.15C106.96 7.13 107.06 7.13 107.16 7.12C107.19 7.12 107.22 7.14 107.25 7.15C107.33 7.17 107.39 7.22 107.52 7.2C107.65 7.18 107.78 7.18 107.92 7.16C107.99 7.15 108.04 7.16 108.1 7.19C108.17 7.22 108.26 7.25 108.37 7.23C108.47 7.22 108.57 7.22 108.67 7.21C108.8 7.19 108.8 7.2 109.03 7.26C109.06 7.27 109.09 7.28 109.12 7.28C109.29 7.26 109.46 7.25 109.63 7.23C109.69 7.23 109.75 7.24 109.8 7.27C109.82 7.29 109.81 7.31 109.82 7.33C109.48 7.35 109.15 7.38 108.81 7.41C108.69 7.43 108.63 7.38 108.55 7.36C108.52 7.35 108.49 7.33 108.46 7.34C108.23 7.35 107.99 7.37 107.76 7.4C107.68 7.4 107.63 7.4 107.58 7.37C107.43 7.29 107.26 7.33 107.11 7.34C106.98 7.35 106.95 7.38 106.96 7.45C106.98 7.54 107.05 7.56 107.24 7.55C107.31 7.54 107.37 7.54 107.44 7.53C107.5 7.53 107.56 7.54 107.62 7.57C107.67 7.6 107.73 7.61 107.79 7.61C107.92 7.6 108.06 7.59 108.19 7.57C108.3 7.56 108.39 7.57 108.46 7.61C108.55 7.66 108.64 7.65 108.74 7.64C108.97 7.61 108.97 7.62 109.11 7.67C109.14 7.68 109.17 7.7 109.2 7.7C109.43 7.68 109.67 7.67 109.9 7.64C110.02 7.63 110.09 7.66 110.16 7.69C110.19 7.7 110.22 7.72 110.25 7.72C110.42 7.71 110.59 7.7 110.75 7.68C110.83 7.67 110.87 7.67 110.94 7.7C111.09 7.76 111.09 7.76 111.3 7.74C111.37 7.73 111.44 7.72 111.5 7.73C111.56 7.74 111.61 7.77 111.67 7.79C111.69 7.8 111.73 7.81 111.76 7.81C111.89 7.8 112.02 7.79 112.16 7.77C112.28 7.76 112.28 7.76 112.52 7.83C112.62 7.86 112.72 7.83 112.81 7.83C112.91 7.82 113.01 7.82 113.09 7.86C113.17 7.9 113.26 7.9 113.36 7.89C113.46 7.88 113.56 7.86 113.65 7.89C113.88 7.95 113.88 7.95 114.02 7.94C114.22 7.92 114.42 7.91 114.62 7.89C114.65 7.89 114.68 7.9 114.71 7.91C114.76 7.93 114.81 7.96 114.87 7.97C114.93 7.98 115.01 7.96 115.07 7.96C115.28 7.94 115.29 7.93 115.43 8C115.55 8.06 115.7 7.97 115.81 8.04C115.87 8.08 115.96 8.11 116.07 8.09C116.17 8.07 116.27 8.07 116.38 8.06C116.54 8.05 116.54 8.05 116.74 8.11C116.77 8.12 116.8 8.13 116.83 8.13C116.96 8.12 117.1 8.11 117.23 8.09C117.38 8.07 117.48 8.11 117.59 8.15C117.68 8.18 117.79 8.16 117.88 8.15C117.98 8.14 118.08 8.14 118.16 8.18C118.24 8.22 118.33 8.22 118.43 8.21C118.53 8.2 118.63 8.18 118.72 8.21C118.93 8.27 118.93 8.27 119.09 8.26C119.22 8.25 119.35 8.24 119.49 8.23C119.52 8.23 119.55 8.24 119.57 8.25C119.63 8.27 119.68 8.3 119.74 8.31C119.8 8.32 119.87 8.3 119.94 8.3C120.01 8.29 120.08 8.27 120.14 8.28C120.2 8.29 120.26 8.31 120.31 8.34C120.36 8.37 120.42 8.37 120.49 8.36C120.59 8.34 120.69 8.34 120.79 8.33C120.85 8.35 120.9 8.37 120.96 8.4C121.01 8.42 121.07 8.42 121.14 8.41C121.39 8.38 121.4 8.39 121.61 8.45C121.7 8.48 121.8 8.46 121.9 8.45C122 8.44 122.09 8.44 122.17 8.48C122.25 8.52 122.35 8.53 122.45 8.51C122.51 8.51 122.58 8.5 122.65 8.5C122.68 8.5 122.72 8.5 122.74 8.51C122.85 8.55 122.95 8.59 123.1 8.57C123.23 8.57 123.3 8.66 123.45 8.64C123.58 8.63 123.72 8.63 123.85 8.61C123.97 8.59 124.06 8.62 124.12 8.66C124.23 8.72 124.38 8.63 124.49 8.7C124.56 8.74 124.64 8.77 124.76 8.75C124.89 8.73 124.94 8.76 124.97 8.82C125 8.86 124.99 8.89 124.95 8.92C124.91 8.95 124.87 8.95 124.8 8.91C124.73 8.87 124.64 8.87 124.53 8.87C124.42 8.88 124.36 8.83 124.27 8.81C124.18 8.78 124.08 8.82 123.99 8.79C123.77 8.72 123.77 8.72 123.63 8.74C123.53 8.75 123.42 8.75 123.33 8.77C123.21 8.78 123.13 8.75 123.06 8.72C123.03 8.71 123 8.69 122.97 8.69C122.74 8.71 122.5 8.72 122.27 8.75C122.15 8.76 122.09 8.72 122 8.7C121.98 8.69 121.95 8.67 121.92 8.67C121.72 8.69 121.52 8.7 121.32 8.72C121.28 8.75 121.24 8.78 121.2 8.81C121.16 8.84 121.11 8.86 121.03 8.86C120.91 8.86 120.78 8.9 120.65 8.84C120.52 8.79 120.51 8.79 120.38 8.8C120.22 8.82 120.05 8.82 119.89 8.86C119.87 8.87 119.84 8.89 119.84 8.9C119.84 8.91 119.88 8.92 119.91 8.93C119.99 8.96 120.1 8.92 120.19 8.95C120.25 8.97 120.3 8.99 120.35 9.01C120.38 9.02 120.42 9.02 120.45 9.01C120.48 9.01 120.52 9.01 120.55 9.01C120.58 9.01 120.61 9.01 120.64 9.02C120.75 9.06 120.86 9.1 120.96 9.15C121.06 9.2 121.15 9.16 121.25 9.16C121.64 9.24 121.64 9.24 121.9 9.21C121.97 9.21 122.04 9.2 122.1 9.2C122.13 9.2 122.16 9.22 122.19 9.23C122.27 9.27 122.34 9.3 122.46 9.28C122.56 9.26 122.66 9.26 122.76 9.25C122.89 9.24 122.89 9.24 123.12 9.31C123.18 9.32 123.24 9.32 123.31 9.31C123.37 9.3 123.44 9.32 123.48 9.35C123.5 9.36 123.5 9.39 123.5 9.4C123.3 9.42 123.1 9.43 122.9 9.46C122.78 9.47 122.72 9.43 122.64 9.4C122.61 9.4 122.58 9.38 122.55 9.38C122.35 9.4 122.15 9.41 121.95 9.43C121.93 9.44 121.9 9.46 121.9 9.48C121.89 9.5 121.94 9.53 122.02 9.53C122.11 9.53 122.21 9.51 122.3 9.55C122.37 9.59 122.46 9.61 122.57 9.59C122.63 9.58 122.7 9.58 122.77 9.57C122.94 9.55 123.1 9.55 123.23 9.63C123.33 9.65 123.43 9.63 123.52 9.62C123.59 9.61 123.66 9.6 123.71 9.62C123.82 9.67 123.93 9.71 124.07 9.68C124.23 9.71 124.36 9.77 124.49 9.82C124.55 9.85 124.6 9.86 124.68 9.85C124.71 9.84 124.74 9.84 124.77 9.84C124.84 9.83 124.91 9.82 124.97 9.82C125.04 9.83 125.09 9.86 125.14 9.88C125.17 9.89 125.2 9.91 125.22 9.9C125.33 9.9 125.43 9.89 125.52 9.88C125.62 9.87 125.72 9.87 125.82 9.86C125.91 9.89 125.99 9.91 126.08 9.94C126.21 9.93 126.34 9.92 126.48 9.91C126.62 9.89 126.62 9.9 126.84 9.96C126.93 9.99 127.03 9.97 127.13 9.96C127.28 9.94 127.38 9.98 127.49 10.02C127.51 10.03 127.55 10.03 127.58 10.03C127.68 10.01 127.77 10.03 127.85 10.06C127.91 10.09 127.96 10.11 128.03 10.1C128.26 10.08 128.5 10.06 128.73 10.04C128.76 10.04 128.79 10.05 128.82 10.06C129.02 10.12 129.03 10.12 129.18 10.11C129.31 10.09 129.44 10.09 129.55 10.14C129.57 10.16 129.61 10.18 129.63 10.17C129.8 10.16 129.97 10.15 130.13 10.13C130.2 10.13 130.26 10.13 130.32 10.15C130.39 10.18 130.46 10.22 130.58 10.21C130.93 10.17 130.93 10.17 131.33 10.25C131.36 10.25 131.4 10.25 131.43 10.24C131.5 10.23 131.55 10.25 131.62 10.27C131.75 10.33 131.75 10.32 131.89 10.31C131.99 10.3 132.09 10.3 132.19 10.28C132.34 10.26 132.44 10.3 132.55 10.34C132.64 10.37 132.74 10.35 132.84 10.34C132.94 10.33 133.03 10.33 133.11 10.37C133.16 10.4 133.22 10.41 133.29 10.41C133.52 10.39 133.75 10.37 133.99 10.35C134.02 10.34 134.05 10.35 134.08 10.36C134.31 10.43 134.31 10.43 134.54 10.41C134.61 10.4 134.67 10.4 134.73 10.42C134.78 10.44 134.84 10.46 134.89 10.48C134.99 10.47 135.09 10.47 135.19 10.46C135.27 10.45 135.32 10.45 135.38 10.47C135.46 10.5 135.52 10.55 135.64 10.53C135.71 10.52 135.78 10.52 135.84 10.51C135.92 10.5 135.97 10.5 136.03 10.53C136.1 10.57 136.17 10.6 136.29 10.58C136.42 10.56 136.56 10.56 136.69 10.55C136.77 10.54 136.82 10.55 136.88 10.57C136.95 10.61 137.03 10.63 137.15 10.62C137.38 10.59 137.38 10.6 137.61 10.66C137.66 10.68 137.72 10.68 137.8 10.67C137.86 10.66 137.92 10.68 137.97 10.71C138.01 10.74 138.01 10.76 138.01 10.78ZM119.9 1.15C119.84 1.16 119.77 1.17 119.67 1.07C119.67 1.06 119.67 1.04 119.66 1.02C119.62 0.99 119.57 0.97 119.51 0.97C119.4 0.97 119.27 1 119.27 1.03C119.27 1.05 119.31 1.07 119.37 1.09C119.4 1.1 119.43 1.11 119.45 1.12C119.53 1.15 119.59 1.19 119.7 1.17C119.69 1.21 119.72 1.24 119.8 1.25C119.82 1.25 119.85 1.25 119.86 1.25C119.93 1.22 119.94 1.19 119.89 1.11C119.88 1.12 119.89 1.14 119.91 1.15C119.92 1.16 119.97 1.15 119.99 1.14C120.05 1.12 120.08 1.1 120.06 1.08C120.05 1.06 120.02 1.05 119.99 1.05C119.95 1.05 119.91 1.07 119.9 1.15ZM136.34 13.53C136.19 13.56 136.02 13.55 135.87 13.59C135.84 13.6 135.82 13.62 135.81 13.63C135.81 13.64 135.85 13.65 135.88 13.66C135.93 13.68 135.99 13.67 136.06 13.67C136.17 13.66 136.23 13.71 136.32 13.73C136.34 13.74 136.38 13.75 136.41 13.75C136.57 13.73 136.73 13.72 136.9 13.7C136.93 13.7 136.96 13.69 136.98 13.68C137.06 13.65 137.06 13.63 136.98 13.61C136.89 13.58 136.82 13.54 136.73 13.52C136.6 13.49 136.47 13.53 136.34 13.53ZM124.79 14.31C124.7 14.32 124.6 14.33 124.5 14.34C124.47 14.34 124.43 14.34 124.4 14.35C124.34 14.36 124.29 14.38 124.26 14.41C124.31 14.44 124.36 14.46 124.43 14.45C124.53 14.45 124.62 14.43 124.72 14.43C124.83 14.43 124.89 14.47 124.98 14.5C125 14.51 125.04 14.51 125.07 14.51C125.22 14.51 125.31 14.46 125.28 14.38C125.26 14.32 125.18 14.28 125.09 14.29C124.99 14.3 124.89 14.31 124.79 14.31ZM137.03 11.96C137.06 11.94 137.08 11.93 137.09 11.91C137.13 11.86 137.12 11.81 137.05 11.77C136.97 11.72 136.87 11.76 136.78 11.76C136.75 11.76 136.73 11.78 136.72 11.8C136.71 11.81 136.71 11.83 136.72 11.83C136.82 11.88 136.93 11.92 137.03 11.96ZM119.4 8.8C119.3 8.81 119.2 8.82 119.11 8.83C119.08 8.83 119.06 8.85 119.05 8.87C119.02 8.89 119.05 8.93 119.13 8.93C119.23 8.94 119.33 8.92 119.43 8.91C119.55 8.9 119.63 8.86 119.58 8.82C119.54 8.79 119.47 8.78 119.4 8.8ZM12.42 6.52C12.49 6.52 12.55 6.51 12.62 6.5C12.68 6.5 12.73 6.47 12.76 6.44C12.71 6.41 12.65 6.4 12.59 6.4C12.49 6.41 12.39 6.41 12.29 6.42C12.23 6.43 12.17 6.45 12.16 6.49C12.14 6.52 12.28 6.53 12.42 6.52ZM110.81 6.36C110.83 6.37 110.86 6.39 110.89 6.39C110.95 6.39 111.02 6.38 111.08 6.37C111.11 6.36 111.13 6.35 111.14 6.33C111.15 6.32 111.14 6.3 111.13 6.3C111.07 6.24 110.84 6.26 110.8 6.32C110.79 6.33 110.8 6.35 110.81 6.36ZM104.39 0.51C104.4 0.53 104.4 0.54 104.41 0.56C104.43 0.59 104.47 0.62 104.54 0.63C104.59 0.61 104.61 0.58 104.61 0.54C104.61 0.53 104.6 0.51 104.6 0.49C104.58 0.46 104.54 0.44 104.47 0.42C104.42 0.45 104.39 0.48 104.39 0.51ZM141.73 14.5C141.71 14.51 141.69 14.53 141.67 14.54C141.73 14.57 141.78 14.58 141.82 14.56C141.84 14.55 141.85 14.54 141.87 14.52C141.82 14.49 141.77 14.48 141.73 14.5ZM140.46 14.64C140.49 14.65 140.52 14.67 140.54 14.67C140.59 14.68 140.63 14.67 140.67 14.63C140.64 14.62 140.61 14.61 140.59 14.6C140.54 14.59 140.5 14.61 140.46 14.64ZM141.26 14.45C141.25 14.48 141.28 14.5 141.35 14.51C141.37 14.5 141.4 14.49 141.41 14.47C141.43 14.45 141.39 14.43 141.32 14.41C141.3 14.42 141.28 14.44 141.26 14.45ZM136.97 13.3C136.96 13.32 136.99 13.35 137.06 13.36C137.08 13.35 137.11 13.34 137.12 13.32C137.14 13.3 137.1 13.28 137.03 13.26C137.01 13.27 136.99 13.28 136.97 13.3ZM131.13 5.74C131.11 5.76 131.09 5.77 131.07 5.78C131.13 5.82 131.18 5.83 131.22 5.81C131.24 5.8 131.25 5.78 131.27 5.77C131.22 5.74 131.17 5.73 131.13 5.74ZM125.53 1.74C125.58 1.74 125.62 1.73 125.65 1.69C125.63 1.68 125.6 1.67 125.58 1.66C125.53 1.65 125.49 1.67 125.45 1.71C125.48 1.72 125.51 1.73 125.53 1.74ZM122.56 1.49C122.54 1.5 122.52 1.51 122.5 1.53C122.56 1.56 122.61 1.57 122.64 1.55C122.67 1.54 122.68 1.52 122.7 1.51C122.65 1.48 122.6 1.47 122.56 1.49ZM102.39 0.51C102.38 0.52 102.36 0.54 102.34 0.55C102.39 0.58 102.44 0.59 102.48 0.57C102.51 0.56 102.52 0.55 102.54 0.53C102.48 0.5 102.44 0.49 102.39 0.51ZM2 9.2C1.97 9.19 1.95 9.18 1.92 9.17C1.86 9.19 1.85 9.22 1.88 9.24C1.9 9.25 1.93 9.26 1.96 9.27C2.02 9.24 2.03 9.22 2 9.2Z" fill="#FFE492" fill-opacity="1.000000" fill-rule="nonzero"/>
	<path id="Vector" d="M36.02 11.28C35.78 11.3 35.55 11.32 35.32 11.34C35.19 11.34 35.15 11.39 35.1 11.43C35.06 11.47 35.01 11.48 34.94 11.48C34.3 11.54 33.67 11.59 33.04 11.65C32.96 11.63 32.92 11.61 32.94 11.58C32.95 11.57 32.97 11.54 33 11.54C33.43 11.5 33.86 11.46 34.3 11.43C34.42 11.42 34.46 11.38 34.52 11.34C34.54 11.32 34.55 11.3 34.58 11.3C34.61 11.29 34.65 11.29 34.68 11.29C35.38 11.23 36.08 11.17 36.78 11.11C36.86 11.12 36.9 11.14 36.88 11.17C36.87 11.19 36.84 11.21 36.82 11.21C36.55 11.23 36.28 11.25 36.02 11.28Z" fill="#FFE492" fill-opacity="1.000000" fill-rule="nonzero"/>
	<path id="Vector" d="M163.64 16.96C163.53 16.98 163.4 16.99 163.29 16.93C163.24 16.9 163.18 16.89 163.11 16.9C163.01 16.91 162.91 16.92 162.81 16.92C162.78 16.93 162.75 16.91 162.72 16.9C162.66 16.89 162.61 16.85 162.55 16.84C162.49 16.84 162.42 16.86 162.36 16.85C162.27 16.85 162.24 16.82 162.26 16.79C162.27 16.78 162.3 16.76 162.32 16.75C162.7 16.71 162.7 16.71 162.81 16.75C162.89 16.78 162.96 16.81 163.08 16.8C163.18 16.78 163.28 16.78 163.38 16.77C163.52 16.76 163.52 16.76 163.74 16.82C163.8 16.84 163.86 16.84 163.93 16.83C164 16.82 164.06 16.84 164.11 16.87C164.07 16.9 164.03 16.93 163.97 16.93C163.86 16.95 163.76 16.95 163.64 16.96Z" fill="#FFE492" fill-opacity="1.000000" fill-rule="nonzero"/>
	<path id="Vector" d="M160.32 16.63C160.58 16.61 160.84 16.59 161.09 16.57C161.2 16.56 161.28 16.57 161.36 16.6C161.44 16.64 161.52 16.64 161.62 16.63C161.68 16.63 161.74 16.65 161.78 16.68C161.8 16.69 161.79 16.71 161.8 16.73C161.58 16.75 161.35 16.77 161.13 16.78C161.1 16.78 161.07 16.77 161.04 16.77C160.99 16.75 160.94 16.72 160.88 16.71C160.76 16.69 160.63 16.72 160.5 16.73C160.44 16.73 160.38 16.71 160.34 16.69C160.33 16.67 160.33 16.65 160.32 16.63Z" fill="#FFE492" fill-opacity="1.000000" fill-rule="nonzero"/>
	<path id="Vector" d="M67.25 7.45C67.52 7.43 67.78 7.41 68.05 7.39C68.13 7.4 68.17 7.42 68.15 7.45C68.14 7.46 68.11 7.49 68.09 7.49C67.56 7.54 67.03 7.58 66.5 7.63C66.42 7.61 66.38 7.59 66.4 7.57C66.41 7.55 66.43 7.53 66.45 7.53C66.72 7.5 66.98 7.48 67.25 7.45Z" fill="#FFE492" fill-opacity="1.000000" fill-rule="nonzero"/>
	<path id="Vector" d="M26.3 13.39C26.18 13.39 26.05 13.43 25.92 13.4C25.89 13.39 25.85 13.38 25.85 13.37C25.86 13.35 25.88 13.33 25.91 13.32C26.03 13.3 26.17 13.29 26.23 13.22C26.26 13.18 26.31 13.17 26.38 13.16C26.46 13.15 26.51 13.16 26.57 13.18C26.64 13.21 26.71 13.26 26.83 13.23C26.84 13.25 26.85 13.27 26.85 13.28C26.84 13.3 26.81 13.32 26.79 13.33C26.77 13.34 26.74 13.35 26.71 13.35C26.57 13.36 26.44 13.37 26.3 13.39Z" fill="#FFE492" fill-opacity="1.000000" fill-rule="nonzero"/>
	<path id="Vector" d="M132.32 13.17C132.42 13.16 132.53 13.16 132.62 13.15C132.7 13.13 132.75 13.14 132.81 13.17C132.92 13.21 132.92 13.21 133.17 13.21C133.2 13.21 133.24 13.23 133.25 13.24C133.27 13.25 133.25 13.27 133.24 13.28C133.22 13.3 133.19 13.32 133.17 13.32C133.01 13.32 132.85 13.38 132.69 13.31C132.61 13.27 132.52 13.26 132.42 13.27C132.35 13.28 132.28 13.29 132.21 13.29C132.15 13.29 132.08 13.28 132.04 13.25C131.98 13.2 132.02 13.18 132.12 13.19C132.19 13.19 132.26 13.18 132.32 13.17Z" fill="#FFE492" fill-opacity="1.000000" fill-rule="nonzero"/>
	<path id="Vector" d="M168.98 20.53C169.11 20.52 169.24 20.51 169.37 20.5C169.4 20.5 169.43 20.51 169.45 20.52C169.55 20.55 169.54 20.6 169.54 20.65C169.54 20.7 169.32 20.74 169.22 20.71C169.12 20.67 169.02 20.63 168.87 20.65C168.82 20.66 168.75 20.64 168.71 20.61C168.66 20.56 168.69 20.55 168.79 20.55C168.85 20.55 168.92 20.54 168.98 20.53Z" fill="#FFE492" fill-opacity="1.000000" fill-rule="nonzero"/>
	<path id="Vector" d="M104.17 6C104.3 5.99 104.43 5.97 104.56 5.97C104.64 5.97 104.68 6 104.66 6.03C104.65 6.05 104.63 6.07 104.6 6.07C104.34 6.1 104.07 6.12 103.81 6.14C103.73 6.13 103.69 6.1 103.71 6.08C103.72 6.06 103.75 6.04 103.77 6.04C103.9 6.02 104.03 6.01 104.17 6Z" fill="#FFE492" fill-opacity="1.000000" fill-rule="nonzero"/>
	<path id="Vector" d="M166.41 17.06C166.54 17.05 166.67 17.03 166.8 17.03C166.87 17.02 166.92 17.05 166.93 17.08C166.93 17.09 166.9 17.11 166.87 17.12C166.69 17.15 166.49 17.16 166.3 17.17C166.24 17.18 166.18 17.16 166.14 17.13C166.08 17.09 166.12 17.07 166.22 17.07C166.28 17.07 166.35 17.06 166.41 17.06Z" fill="#FFE492" fill-opacity="1.000000" fill-rule="nonzero"/>
	<path id="Vector" d="M135.49 13.32C135.56 13.31 135.62 13.3 135.69 13.3C135.75 13.31 135.8 13.34 135.82 13.37C135.84 13.4 135.84 13.44 135.82 13.47C135.78 13.52 135.75 13.52 135.68 13.48C135.56 13.43 135.55 13.44 135.32 13.44C135.3 13.44 135.27 13.42 135.24 13.41C135.21 13.39 135.23 13.35 135.3 13.33C135.35 13.32 135.43 13.32 135.49 13.32Z" fill="#FFE492" fill-opacity="1.000000" fill-rule="nonzero"/>
	<path id="Vector" d="M161.81 16.71C161.91 16.7 162 16.68 162.1 16.68C162.16 16.68 162.22 16.71 162.22 16.73C162.22 16.75 162.19 16.77 162.17 16.78C162.05 16.8 161.92 16.81 161.8 16.82C161.74 16.82 161.67 16.8 161.64 16.77C161.58 16.73 161.62 16.71 161.71 16.71C161.75 16.72 161.78 16.71 161.81 16.71Z" fill="#FFE492" fill-opacity="1.000000" fill-rule="nonzero"/>
	<path id="Vector" d="M146.44 15.4C146.29 15.41 146.16 15.39 146.17 15.37C146.18 15.33 146.24 15.31 146.3 15.3C146.4 15.29 146.5 15.28 146.6 15.27C146.66 15.27 146.72 15.29 146.77 15.31C146.74 15.35 146.69 15.37 146.63 15.38C146.57 15.39 146.5 15.39 146.44 15.4Z" fill="#FFE492" fill-opacity="1.000000" fill-rule="nonzero"/>
	<path id="Vector" d="M145.73 15.26C145.82 15.25 145.92 15.24 146.01 15.24C146.08 15.24 146.13 15.26 146.14 15.29C146.14 15.3 146.11 15.32 146.09 15.33C145.97 15.36 145.84 15.36 145.71 15.37C145.65 15.37 145.59 15.36 145.55 15.33C145.5 15.28 145.53 15.26 145.63 15.27C145.66 15.27 145.69 15.26 145.73 15.26Z" fill="#FFE492" fill-opacity="1.000000" fill-rule="nonzero"/>
	<path id="Vector" d="M134.14 13.31C134.24 13.3 134.33 13.29 134.43 13.29C134.5 13.28 134.55 13.31 134.55 13.34C134.56 13.35 134.53 13.37 134.5 13.38C134.39 13.4 134.25 13.41 134.13 13.42C134.07 13.42 134 13.4 133.97 13.37C133.91 13.33 133.95 13.31 134.05 13.32C134.08 13.32 134.11 13.31 134.14 13.31Z" fill="#FFE492" fill-opacity="1.000000" fill-rule="nonzero"/>
	<path id="Vector" d="M133.56 13.25C133.66 13.24 133.69 13.23 133.72 13.23C133.78 13.23 133.85 13.24 133.88 13.28C133.94 13.32 133.91 13.33 133.81 13.34C133.68 13.34 133.55 13.36 133.42 13.36C133.36 13.37 133.3 13.34 133.3 13.31C133.3 13.3 133.33 13.28 133.35 13.27C133.44 13.26 133.53 13.25 133.56 13.25Z" fill="#FFE492" fill-opacity="1.000000" fill-rule="nonzero"/>
	<path id="Vector" d="M145.18 6.96C145.11 6.97 145.04 6.98 144.98 6.98C144.9 6.97 144.87 6.94 144.89 6.92C144.9 6.9 144.92 6.88 144.95 6.88C145.08 6.86 145.21 6.85 145.34 6.84C145.42 6.86 145.45 6.88 145.43 6.91C145.42 6.92 145.4 6.94 145.37 6.95C145.31 6.96 145.24 6.96 145.18 6.96Z" fill="#FFE492" fill-opacity="1.000000" fill-rule="nonzero"/>
	<path id="Vector" d="M65.98 7.58C66.04 7.58 66.1 7.59 66.15 7.62C66.12 7.65 66.07 7.68 66.01 7.69C65.98 7.69 65.94 7.69 65.91 7.7C65.85 7.7 65.79 7.68 65.74 7.66C65.77 7.62 65.82 7.6 65.88 7.59C65.91 7.59 65.94 7.58 65.98 7.58Z" fill="#FFE492" fill-opacity="1.000000" fill-rule="nonzero"/>
	<path id="Vector" d="M165.47 17.05C165.47 17.02 165.59 16.99 165.7 16.99C165.76 16.99 165.82 17 165.86 17.03C165.91 17.08 165.88 17.09 165.78 17.09C165.72 17.09 165.66 17.11 165.59 17.1C165.52 17.1 165.48 17.08 165.47 17.05Z" fill="#FFE492" fill-opacity="1.000000" fill-rule="nonzero"/>
	<path id="Vector" d="M135.88 13.45C135.88 13.43 135.87 13.42 135.88 13.41C135.91 13.35 136.15 13.33 136.21 13.38C136.22 13.39 136.22 13.41 136.22 13.42C136.2 13.43 136.18 13.45 136.16 13.46C136.09 13.47 136.03 13.47 135.96 13.48C135.94 13.48 135.91 13.46 135.88 13.45Z" fill="#FFE492" fill-opacity="1.000000" fill-rule="nonzero"/>
	<path id="Vector" d="M27.36 13.22C27.12 13.24 27.12 13.24 27.16 13.18C27.2 13.14 27.27 13.11 27.38 13.11C27.41 13.11 27.44 13.1 27.47 13.11C27.49 13.11 27.53 13.13 27.54 13.14C27.55 13.16 27.52 13.19 27.46 13.21C27.43 13.22 27.4 13.21 27.36 13.22Z" fill="#FFE492" fill-opacity="1.000000" fill-rule="nonzero"/>
	<path id="Vector" d="M69.15 7.43C69.08 7.45 69.02 7.44 68.97 7.41C68.93 7.37 69 7.33 69.12 7.32C69.16 7.32 69.19 7.31 69.22 7.32C69.25 7.32 69.28 7.33 69.3 7.35C69.33 7.37 69.31 7.4 69.25 7.42C69.22 7.43 69.18 7.43 69.15 7.43Z" fill="#FFE492" fill-opacity="1.000000" fill-rule="nonzero"/>
	<path id="Vector" d="M165.47 16.97C165.49 16.96 165.51 16.95 165.53 16.93C165.61 16.95 165.64 16.97 165.62 17C165.61 17.01 165.58 17.02 165.57 17.04C165.49 17.02 165.46 17 165.47 16.97Z" fill="#FFE492" fill-opacity="1.000000" fill-rule="nonzero"/>
	<path id="Vector" d="M30.36 25.37C30.36 25.36 30.39 25.34 30.41 25.33C30.45 25.33 30.51 25.34 30.54 25.37C30.59 25.41 30.56 25.44 30.47 25.42C30.41 25.42 30.36 25.39 30.36 25.37Z" fill="#FFE492" fill-opacity="1.000000" fill-rule="nonzero"/>
	<path id="Vector" d="M136.64 12.45C136.67 12.46 136.69 12.47 136.72 12.48C136.68 12.52 136.64 12.54 136.6 12.53C136.57 12.52 136.54 12.51 136.52 12.5C136.55 12.46 136.59 12.45 136.64 12.45Z" fill="#FFE492" fill-opacity="1.000000" fill-rule="nonzero"/>
	<path id="Vector" d="M135.93 12.4C135.97 12.39 136.02 12.4 136.08 12.43C136.06 12.44 136.04 12.46 136.02 12.47C135.98 12.49 135.93 12.48 135.87 12.45C135.89 12.43 135.91 12.42 135.93 12.4Z" fill="#FFE492" fill-opacity="1.000000" fill-rule="nonzero"/>
	<path id="Vector" d="M135.35 12.45C135.38 12.46 135.41 12.47 135.43 12.48C135.4 12.52 135.36 12.54 135.31 12.53C135.28 12.52 135.26 12.51 135.23 12.5C135.26 12.46 135.31 12.44 135.35 12.45Z" fill="#FFE492" fill-opacity="1.000000" fill-rule="nonzero"/>
	<path id="Vector" d="M135.37 12.39C135.4 12.42 135.39 12.44 135.33 12.47C135.3 12.46 135.27 12.45 135.25 12.44C135.21 12.42 135.23 12.39 135.29 12.37C135.32 12.38 135.34 12.39 135.37 12.39Z" fill="#FFE492" fill-opacity="1.000000" fill-rule="nonzero"/>
</svg>
