<svg width="326.150208" height="36.559204" viewBox="0 0 326.15 36.5592" fill="none" xmlns="http://www.w3.org/2000/svg" xmlns:xlink="http://www.w3.org/1999/xlink">
	<desc>
			Created with Pixso.
	</desc>
	<defs/>
	<path id="Vector" d="M306.86 19.31C306.41 19.35 305.96 19.37 305.52 19.41C305.23 19.44 305.11 19.36 304.92 19.31C304.86 19.3 304.79 19.27 304.73 19.27C304.29 19.3 303.85 19.34 303.4 19.37C303.27 19.44 303.18 19.54 302.97 19.58C302.77 19.61 302.53 19.61 302.31 19.63C302.01 19.65 301.71 19.67 301.41 19.69C301.26 19.7 301.14 19.74 301.09 19.81C301.08 19.82 301.18 19.85 301.24 19.87C301.42 19.92 301.59 19.99 301.79 20.03C301.98 20.07 302.22 20.01 302.42 20.06C302.88 20.18 302.88 20.18 303.23 20.15C303.53 20.13 303.82 20.11 304.12 20.09C304.18 20.09 304.25 20.12 304.31 20.14C304.5 20.18 304.62 20.27 304.9 20.24C305.12 20.21 305.35 20.2 305.57 20.19C305.76 20.24 305.93 20.31 306.13 20.35C306.31 20.39 306.37 20.42 306.27 20.48C306.18 20.53 306.05 20.55 305.88 20.56C305.74 20.56 305.59 20.57 305.44 20.58C305.36 20.59 305.29 20.59 305.22 20.6C304.93 20.62 304.93 20.62 304.41 20.5C304.21 20.45 303.98 20.52 303.78 20.47C303.65 20.44 303.54 20.4 303.41 20.36C303.36 20.35 303.27 20.35 303.21 20.35C302.98 20.36 302.75 20.37 302.54 20.4C302.38 20.42 302.29 20.47 302.31 20.52C302.32 20.54 302.42 20.57 302.49 20.58C302.63 20.58 302.78 20.55 302.93 20.57C303.06 20.58 303.2 20.62 303.3 20.66C303.5 20.75 303.73 20.67 303.93 20.69C304.13 20.72 304.3 20.79 304.49 20.84C304.54 20.85 304.64 20.83 304.71 20.83C304.94 20.81 305.16 20.8 305.38 20.79C305.56 20.84 305.76 20.89 305.93 20.96C306.23 21.07 306.56 21.12 306.95 21.06C307.17 21.03 307.39 21.04 307.57 21.12C307.75 21.19 307.95 21.18 308.18 21.17C308.4 21.15 308.61 21.11 308.83 21.17C309.3 21.28 309.31 21.29 309.86 21.24C310.03 21.23 310.15 21.23 310.28 21.27C310.4 21.31 310.53 21.35 310.65 21.38C310.87 21.37 311.09 21.36 311.32 21.34C311.6 21.32 311.76 21.35 311.83 21.45C311.87 21.52 311.89 21.58 311.98 21.62C312.1 21.68 312.23 21.67 312.4 21.66C312.56 21.65 312.68 21.62 312.75 21.56C312.78 21.53 312.83 21.5 312.88 21.48C312.92 21.46 312.98 21.43 313.02 21.44C313.09 21.44 313.18 21.47 313.2 21.49C313.42 21.72 313.42 21.72 313.65 21.79C313.9 21.87 314.15 21.93 314.38 22.02C314.58 22.09 314.79 22.06 315.01 22.06C315.17 22.06 315.28 22.11 315.27 22.16C315.26 22.19 315.2 22.23 315.14 22.23C314.7 22.27 314.25 22.3 313.81 22.33C313.75 22.33 313.68 22.3 313.62 22.28C313.49 22.25 313.38 22.19 313.25 22.18C313.11 22.17 312.95 22.2 312.8 22.21C312.65 22.22 312.5 22.24 312.36 22.23C312.22 22.21 312.12 22.16 311.99 22.12C311.93 22.1 311.85 22.08 311.8 22.09C311.47 22.13 311.23 22.07 310.99 21.98C310.94 21.97 310.85 21.96 310.79 21.96C310.27 21.99 309.75 22.03 309.22 22.07C309.01 22.08 308.84 22.01 308.79 21.9C308.77 21.84 308.73 21.78 308.73 21.71C308.73 21.6 308.48 21.53 308.3 21.55C308 21.57 307.7 21.58 307.4 21.61C307.16 21.63 306.96 21.61 306.8 21.54C306.61 21.46 306.39 21.48 306.17 21.5C306.01 21.52 305.97 21.58 305.98 21.74C305.98 21.87 305.91 21.91 305.61 21.93C305.24 21.95 304.87 21.98 304.49 22C304.43 22.01 304.37 21.97 304.31 21.96C304.18 21.92 304.07 21.87 303.93 21.85C303.8 21.84 303.64 21.87 303.49 21.88C303.34 21.89 303.18 21.92 303.05 21.9C302.91 21.89 302.8 21.83 302.68 21.8C302.62 21.78 302.54 21.75 302.49 21.76C302.19 21.77 301.89 21.8 301.59 21.82C301.26 21.84 301.26 21.84 300.78 21.72C300.57 21.67 300.35 21.71 300.14 21.73C299.91 21.74 299.7 21.75 299.52 21.67C299.41 21.62 299.27 21.59 299.13 21.6C298.76 21.62 298.39 21.65 298.01 21.68C297.95 21.68 297.86 21.67 297.81 21.65C297.57 21.57 297.34 21.51 297.01 21.55C296.72 21.58 296.4 21.59 296.12 21.62C295.96 21.64 295.89 21.7 295.92 21.75C295.93 21.77 296.03 21.8 296.09 21.8C296.24 21.8 296.4 21.77 296.53 21.78C296.81 21.81 296.95 21.97 297.32 21.92C297.53 21.9 297.76 21.89 297.99 21.88C298.04 21.88 298.11 21.91 298.17 21.93C298.35 21.98 298.51 22.05 298.77 22.02C298.99 21.99 299.22 21.98 299.44 21.97C299.79 21.94 299.79 21.94 300.25 22.06C300.47 22.12 300.68 22.07 300.9 22.06C301.05 22.05 301.2 22.03 301.33 22.06C301.52 22.1 301.66 22.19 301.9 22.18C302.13 22.18 302.35 22.15 302.58 22.14C302.72 22.14 302.85 22.17 302.96 22.22C303.08 22.27 303.21 22.29 303.36 22.28C303.58 22.27 303.81 22.25 304.03 22.24C304.1 22.23 304.17 22.25 304.23 22.27C304.35 22.3 304.47 22.34 304.6 22.38C304.82 22.37 305.04 22.36 305.26 22.34C305.43 22.32 305.54 22.33 305.68 22.37C305.85 22.42 305.99 22.51 306.27 22.47C306.41 22.45 306.58 22.45 306.72 22.43C306.89 22.41 307.01 22.42 307.13 22.48C307.36 22.58 307.65 22.59 307.95 22.54C308.27 22.5 308.51 22.55 308.76 22.64C309.02 22.72 309.02 22.72 309.21 22.93C309.27 23 309.44 23.02 309.58 23.01C309.82 22.99 310.02 23 310.19 23.08C310.37 23.15 310.59 23.14 310.81 23.12C311.1 23.09 311.4 23.07 311.64 23.18C311.75 23.23 311.88 23.25 312.04 23.23C312.49 23.2 312.94 23.18 313.38 23.14C313.64 23.11 313.8 23.17 313.98 23.22C314.22 23.29 314.49 23.36 314.49 23.51C314.49 23.53 314.55 23.56 314.6 23.58C314.72 23.62 314.85 23.66 314.97 23.69C315.15 23.75 315.33 23.8 315.58 23.77C315.79 23.74 316.02 23.74 316.25 23.72C316.47 23.7 316.67 23.69 316.87 23.76C317.1 23.85 317.34 23.92 317.6 23.99C317.79 24.03 318.03 23.96 318.23 24.01C318.35 24.05 318.47 24.09 318.6 24.12C318.66 24.14 318.74 24.13 318.82 24.12C318.97 24.12 319.12 24.11 319.26 24.09C319.43 24.07 319.56 24.07 319.68 24.12C319.8 24.16 319.92 24.21 320.05 24.22C320.26 24.24 320.48 24.17 320.69 24.25C320.79 24.3 320.92 24.34 321.06 24.35C321.19 24.37 321.35 24.34 321.5 24.34C321.56 24.34 321.64 24.37 321.67 24.4C321.69 24.41 321.66 24.44 321.63 24.46C321.59 24.49 321.53 24.52 321.47 24.52C321.03 24.56 320.58 24.58 320.13 24.62C319.86 24.64 319.86 24.64 319.33 24.52C319.2 24.49 319.06 24.49 318.9 24.51C318.69 24.52 318.47 24.56 318.25 24.52C317.96 24.39 317.6 24.38 317.23 24.43C317.07 24.45 316.92 24.45 316.81 24.41C316.56 24.34 316.29 24.27 316.07 24.19C315.9 24.12 315.82 24.12 315.75 24.21C315.73 24.24 315.7 24.27 315.71 24.29C315.74 24.39 315.78 24.48 315.81 24.58C315.82 24.61 315.78 24.64 315.76 24.66C315.69 24.75 315.6 24.74 315.44 24.67C315.28 24.61 315.09 24.56 314.84 24.59C314.62 24.62 314.38 24.62 314.17 24.64C313.83 24.69 313.6 24.62 313.36 24.54C313.31 24.53 313.22 24.52 313.16 24.52C312.49 24.56 311.82 24.61 311.14 24.66C311 24.67 310.87 24.64 310.76 24.59C310.64 24.53 310.51 24.51 310.36 24.52C309.77 24.56 309.17 24.59 308.57 24.64C308.33 24.66 308.13 24.64 307.97 24.57C307.84 24.52 307.72 24.51 307.57 24.51C307.39 24.52 307.27 24.54 307.19 24.59C307.1 24.65 307.16 24.68 307.34 24.72C307.54 24.77 307.72 24.83 307.9 24.88C308.05 24.87 308.2 24.86 308.35 24.86C308.41 24.86 308.47 24.89 308.53 24.91C308.71 24.97 308.88 25.02 309.14 24.99C309.35 24.97 309.59 24.96 309.81 24.94C310.11 24.92 310.11 24.92 310.61 25.04C310.74 25.07 310.87 25.07 311.04 25.05C311.18 25.04 311.32 25.07 311.42 25.13C311.46 25.15 311.45 25.19 311.36 25.31C311.36 25.41 311.46 25.36 311.49 25.3C311.54 25.22 311.44 25.19 311.26 25.23C311.14 25.27 311.07 25.32 311.1 25.36C311.12 25.38 311.21 25.41 311.36 25.31C311.76 25.2 312.06 25.18 312.35 25.15C312.52 25.14 312.63 25.14 312.77 25.19C312.93 25.25 313.09 25.32 313.36 25.29C313.65 25.25 313.95 25.25 314.25 25.22C314.52 25.19 314.66 25.28 314.83 25.33C315.04 25.39 315.27 25.32 315.46 25.35C315.66 25.39 315.8 25.47 316.03 25.49C316.36 25.44 316.57 25.53 316.83 25.59C317.03 25.64 317.26 25.6 317.47 25.58C317.71 25.56 317.91 25.58 318.08 25.65C318.27 25.72 318.48 25.71 318.7 25.69C319.21 25.65 319.22 25.65 319.52 25.75C319.73 25.83 319.93 25.79 320.15 25.78C320.33 25.83 320.51 25.89 320.71 25.94C320.76 25.95 320.85 25.93 320.93 25.92C321.15 25.91 321.37 25.89 321.6 25.88C321.74 25.87 321.9 25.84 322.04 25.85C322.17 25.86 322.29 25.92 322.41 25.96C322.53 25.99 322.66 26.03 322.77 26.07C322.96 26.12 323.13 26.17 323.38 26.14C323.6 26.12 323.82 26.11 324.05 26.09C324.33 26.07 324.32 26.08 324.85 26.19C325.14 26.26 325.43 26.18 325.72 26.17C325.87 26.17 326.01 26.19 326.1 26.24C326.15 26.27 326.13 26.31 326.15 26.34C325.4 26.39 324.65 26.43 323.91 26.5C323.63 26.52 323.48 26.45 323.33 26.4C323.07 26.3 322.74 26.44 322.5 26.32C322.35 26.25 322.15 26.21 321.9 26.24C321.75 26.26 321.6 26.26 321.45 26.28C321.07 26.32 320.72 26.32 320.42 26.19C320.32 26.14 320.17 26.12 320.06 26.07C319.93 26.03 319.81 26 319.66 26.01C318.99 26.05 318.32 26.1 317.65 26.15C317.59 26.15 317.53 26.18 317.48 26.2C317.36 26.26 317.4 26.3 317.6 26.33C317.67 26.35 317.72 26.37 317.79 26.39C317.91 26.43 318.02 26.48 318.16 26.5C318.29 26.51 318.45 26.48 318.6 26.47C318.75 26.46 318.91 26.44 319.04 26.45C319.18 26.46 319.29 26.52 319.42 26.55C319.48 26.57 319.55 26.6 319.61 26.59C319.91 26.58 320.2 26.56 320.5 26.54C320.68 26.6 320.84 26.67 321.06 26.69C321.2 26.7 321.35 26.68 321.5 26.68C321.56 26.68 321.64 26.71 321.67 26.74C321.69 26.75 321.63 26.79 321.59 26.81C321.41 26.88 321.18 26.87 320.97 26.89C320.74 26.92 320.53 26.91 320.35 26.83C320.24 26.79 320.1 26.76 319.96 26.77C319.58 26.79 319.21 26.82 318.84 26.84C318.78 26.85 318.7 26.83 318.64 26.82C318.17 26.7 318.17 26.7 317.83 26.72C317.34 26.76 317.34 26.76 317.01 26.66C316.95 26.64 316.88 26.6 316.82 26.6C316.3 26.63 315.78 26.66 315.26 26.71C315.09 26.72 314.97 26.72 314.84 26.67C314.74 26.63 314.61 26.58 314.47 26.57C314.33 26.56 314.18 26.59 314.03 26.6C313.88 26.61 313.72 26.63 313.59 26.62C313.46 26.6 313.34 26.55 313.22 26.51C313.1 26.47 312.97 26.47 312.8 26.49C312.29 26.53 312.28 26.52 311.77 26.4C311.71 26.39 311.64 26.38 311.57 26.38C311.2 26.4 310.83 26.43 310.45 26.45C310.31 26.46 310.17 26.44 310.07 26.38C310.03 26.36 310.04 26.32 310.01 26.25C309.98 26.23 310.02 26.26 310.03 26.29C310.1 26.29 310.18 26.29 310.23 26.27C310.35 26.24 310.42 26.19 310.39 26.15C310.37 26.13 310.28 26.1 310.23 26.1C310.13 26.1 310.04 26.14 310.01 26.25C309.73 26.31 309.43 26.32 309.13 26.36C308.96 26.37 308.85 26.36 308.72 26.31C308.56 26.25 308.39 26.19 308.12 26.23C307.83 26.26 307.52 26.27 307.23 26.29C306.88 26.32 306.73 26.15 306.44 26.15C306.15 26.16 305.85 26.19 305.55 26.21C305.29 26.23 305.29 26.23 304.75 26.11C304.55 26.06 304.31 26.13 304.12 26.08C303.99 26.05 303.87 26.01 303.75 25.97C303.69 25.96 303.61 25.96 303.54 25.96C303.16 25.99 302.79 26 302.42 26.04C302.01 26.09 301.7 26.04 301.41 25.93C301.04 25.95 300.66 25.96 300.29 26C300.03 26.02 299.88 25.96 299.69 25.91C299.63 25.89 299.58 25.86 299.51 25.85C299.44 25.85 299.36 25.86 299.29 25.87C298.99 25.89 298.68 25.9 298.39 25.93C298.04 25.98 297.9 25.82 297.62 25.8C297.44 25.89 297.34 26.02 296.97 26.03C296.68 26.04 296.38 26.07 296.08 26.09C295.93 26.1 295.78 26.11 295.63 26.12C295.39 26.14 295.28 26.21 295.33 26.33C295.36 26.39 295.38 26.45 295.4 26.52C295.45 26.63 295.33 26.73 295.14 26.74C294.62 26.78 294.1 26.81 293.58 26.85C293.44 26.86 293.3 26.82 293.19 26.77C293.07 26.72 292.94 26.7 292.79 26.71C292.27 26.74 291.75 26.78 291.23 26.81C291.17 26.82 291.09 26.8 291.03 26.78C290.91 26.75 290.78 26.71 290.66 26.67C290.36 26.69 290.07 26.7 289.78 26.72C289.3 26.76 289.3 26.76 288.95 26.66C288.89 26.64 288.83 26.6 288.77 26.6C288.54 26.61 288.32 26.63 288.1 26.65C287.43 26.7 287.43 26.7 287.24 26.64C287.06 26.58 286.9 26.52 286.64 26.55C286.35 26.58 286.04 26.6 285.74 26.62C285.52 26.63 285.3 26.64 285.08 26.65C285.02 26.65 284.96 26.61 284.89 26.59C284.71 26.53 284.53 26.49 284.29 26.52C284.14 26.54 283.99 26.54 283.84 26.55C283.45 26.58 283.45 26.58 282.81 26.46C282.75 26.45 282.67 26.44 282.61 26.44C282.09 26.48 281.57 26.52 281.04 26.55C280.98 26.55 280.9 26.54 280.84 26.53C280.12 26.42 280.12 26.42 279.37 26.48C279.08 26.49 279.07 26.5 278.76 26.4C278.63 26.36 278.52 26.34 278.36 26.35C277.76 26.4 277.16 26.43 276.57 26.48C276.3 26.5 276.15 26.44 275.97 26.39C275.9 26.38 275.84 26.34 275.78 26.34C275.19 26.38 274.59 26.42 273.99 26.46C273.94 26.46 273.87 26.42 273.81 26.4C273.69 26.37 273.57 26.32 273.43 26.31C273.29 26.3 273.14 26.32 272.99 26.33C272.61 26.36 272.61 26.36 272.18 26.24C272.12 26.23 272.04 26.21 271.98 26.21C271.39 26.25 270.78 26.28 270.19 26.34C269.85 26.37 269.62 26.31 269.38 26.23C269.33 26.22 269.25 26.21 269.19 26.21C268.51 26.26 267.84 26.31 267.17 26.35C267.03 26.36 266.89 26.33 266.78 26.28C266.6 26.2 266.39 26.21 266.16 26.23C265.64 26.27 265.64 26.26 265.33 26.17C265.27 26.15 265.21 26.13 265.15 26.12C265.08 26.11 265 26.11 264.93 26.12C264.64 26.14 264.34 26.16 264.04 26.18C263.74 26.2 263.44 26.21 263.14 26.24C262.78 26.28 262.61 26.16 262.36 26.1C261.99 26.13 261.61 26.14 261.24 26.18C260.96 26.21 260.83 26.13 260.65 26.09C260.58 26.07 260.51 26.04 260.46 26.04C259.78 26.08 259.11 26.13 258.44 26.18C258.28 26.19 258.17 26.18 258.03 26.13C257.73 26.03 257.72 26.03 257.21 26.07C256.99 26.09 256.78 26.1 256.59 26.02C256.42 25.95 256.22 25.94 255.98 25.96C255.68 25.99 255.38 26 255.08 26.02C254.78 26.04 254.49 26.07 254.19 26.08C253.95 26.09 253.8 26 253.61 25.96C253.56 25.94 253.47 25.94 253.41 25.94C253.11 25.96 252.8 25.97 252.51 26.01C252.16 26.05 251.97 25.94 251.72 25.88C251.66 25.87 251.57 25.88 251.5 25.88C250.98 25.92 250.46 25.95 249.94 25.99C249.75 25.94 249.56 25.89 249.38 25.84C249.08 25.86 248.78 25.88 248.48 25.9C248.26 25.91 248.03 25.92 247.81 25.95C247.54 25.98 247.4 25.89 247.22 25.85C247.15 25.83 247.09 25.8 247.03 25.81C246.65 25.83 246.28 25.85 245.91 25.88C245.55 25.92 245.41 25.74 245.12 25.75C244.83 25.75 244.52 25.77 244.23 25.81C243.9 25.85 243.66 25.79 243.42 25.7C243.37 25.69 243.29 25.68 243.22 25.68C242.85 25.7 242.48 25.73 242.1 25.75C242.04 25.76 241.96 25.75 241.9 25.74C241.18 25.62 241.18 25.62 240.87 25.65C240.65 25.66 240.43 25.68 240.2 25.69C240.14 25.69 240.06 25.68 240 25.66C239.53 25.54 239.53 25.54 239.19 25.57C238.89 25.59 238.6 25.61 238.3 25.63C238.11 25.58 237.92 25.53 237.74 25.48C237.37 25.5 236.99 25.52 236.62 25.55C236.45 25.57 236.34 25.56 236.2 25.52C236.04 25.46 235.88 25.39 235.61 25.42C235.32 25.46 235.01 25.46 234.72 25.49C234.37 25.53 234.22 25.35 233.94 25.35C233.64 25.36 233.33 25.38 233.04 25.41C232.71 25.45 232.47 25.39 232.23 25.31C232.18 25.29 232.1 25.28 232.03 25.29C231.21 25.34 230.39 25.4 229.57 25.46C229.07 25.49 229.07 25.5 228.1 25.39C228.04 25.38 227.96 25.38 227.9 25.38C227.6 25.4 227.29 25.41 227 25.44C226.65 25.48 226.45 25.38 226.21 25.32C226.15 25.3 226.07 25.31 225.99 25.31C225.77 25.33 225.55 25.35 225.32 25.36C225.02 25.38 224.72 25.4 224.43 25.42C224.24 25.37 224.05 25.32 223.86 25.27C223.49 25.3 223.11 25.31 222.75 25.35C222.47 25.38 222.34 25.3 222.15 25.26C222.09 25.24 222.02 25.21 221.96 25.21C221.29 25.25 220.62 25.3 219.95 25.35C219.67 25.37 219.55 25.29 219.36 25.24C219.3 25.23 219.22 25.2 219.17 25.21C218.72 25.23 218.27 25.27 217.82 25.3C217.57 25.32 217.57 25.32 217.02 25.2C216.96 25.19 216.88 25.17 216.82 25.18C215.4 25.27 213.99 25.37 212.57 25.47C212.42 25.48 212.29 25.45 212.18 25.4C212.06 25.35 211.93 25.32 211.79 25.33C211.19 25.37 210.59 25.41 210 25.46C209.75 25.48 209.56 25.45 209.39 25.39C209.27 25.34 209.15 25.32 208.99 25.33C208.69 25.35 208.39 25.37 208.1 25.39C207.8 25.41 207.5 25.43 207.2 25.45C206.9 25.48 206.6 25.49 206.31 25.52C205.94 25.56 205.77 25.44 205.52 25.38C205.07 25.41 204.62 25.44 204.18 25.47C203.59 25.51 202.99 25.55 202.39 25.59C202.34 25.6 202.27 25.56 202.21 25.54C202.02 25.5 201.89 25.43 201.61 25.45C200.27 25.55 198.93 25.64 197.59 25.74C197.31 25.76 197.18 25.68 196.99 25.63C196.93 25.62 196.86 25.59 196.8 25.6C196.05 25.64 195.31 25.7 194.56 25.75C194.26 25.77 194.26 25.77 193.75 25.65C193.69 25.64 193.62 25.62 193.55 25.62C192.58 25.69 191.62 25.76 190.64 25.83C190.5 25.83 190.37 25.81 190.25 25.76C190.14 25.7 190 25.68 189.86 25.69C188.97 25.75 188.07 25.81 187.18 25.87C186.94 25.89 186.74 25.88 186.57 25.81C186.45 25.76 186.33 25.74 186.17 25.75C184.83 25.84 183.49 25.93 182.15 26.03C181.89 26.05 181.71 26.01 181.54 25.95C181.41 25.9 181.3 25.89 181.14 25.9C180.97 25.91 180.86 25.93 180.77 25.99C180.65 26.06 180.57 26.15 180.28 26.16C179.98 26.17 179.68 26.19 179.38 26.22C179.1 26.25 178.97 26.17 178.8 26.12C178.67 26.08 178.54 26.07 178.38 26.09C178.22 26.11 178.13 26.14 178.04 26.2C177.84 26.33 177.82 26.33 177.58 26.25C177.45 26.2 177.33 26.17 177.18 26.18C176.59 26.22 175.99 26.26 175.39 26.3C175.05 26.33 175.05 26.33 174.79 26.23C174.66 26.19 174.54 26.16 174.39 26.18C172.75 26.29 171.11 26.4 169.47 26.52C169.22 26.54 169.05 26.5 168.87 26.44C168.81 26.42 168.75 26.4 168.68 26.39C168.61 26.38 168.54 26.39 168.46 26.39C167.27 26.48 166.07 26.55 164.88 26.65C164.61 26.67 164.47 26.61 164.28 26.56C164.22 26.54 164.17 26.51 164.1 26.5C164.03 26.5 163.95 26.51 163.88 26.52C162.68 26.6 161.49 26.68 160.3 26.77C160.01 26.79 159.89 26.71 159.71 26.67C159.64 26.65 159.58 26.62 159.52 26.63C159.14 26.65 158.77 26.68 158.4 26.7C157.5 26.77 156.61 26.83 155.71 26.89C155.37 26.92 155.22 26.75 154.93 26.75C154.56 26.76 154.18 26.8 153.81 26.83C153.51 26.85 153.21 26.87 152.92 26.89C152.62 26.91 152.62 26.91 151.89 26.8C151.83 26.79 151.75 26.78 151.69 26.78C150.64 26.85 149.59 26.92 148.55 27C148.32 27.02 148.12 27.01 147.94 26.94C147.82 26.89 147.7 26.86 147.55 26.87C145.98 26.98 144.42 27.09 142.85 27.2C142.79 27.2 142.71 27.18 142.65 27.17C142.53 27.13 142.41 27.09 142.28 27.06C142.19 27.1 142.08 27.14 142.02 27.19C141.94 27.26 141.83 27.28 141.66 27.29C141.48 27.3 141.38 27.3 141.24 27.25C141.08 27.18 140.91 27.14 140.64 27.16C139 27.28 137.36 27.39 135.72 27.5C135.45 27.52 135.32 27.44 135.13 27.4C135.07 27.38 135 27.36 134.94 27.36C134.27 27.41 133.6 27.46 132.92 27.5C131.06 27.63 129.19 27.76 127.33 27.89C126.99 27.92 126.76 27.87 126.52 27.79C126.47 27.77 126.39 27.76 126.32 27.77C123.71 27.95 121.1 28.13 118.49 28.31C118.35 28.32 118.22 28.29 118.1 28.24C117.99 28.19 117.86 28.16 117.71 28.17C116.52 28.25 115.33 28.34 114.13 28.42C113.83 28.44 113.83 28.44 113.52 28.35C113.46 28.33 113.39 28.3 113.34 28.3C113.24 28.31 113.14 28.36 113.07 28.42C112.99 28.49 112.88 28.51 112.71 28.52C112.54 28.54 112.43 28.53 112.3 28.49C112.13 28.43 111.98 28.37 111.71 28.39C108.28 28.64 104.85 28.87 101.42 29.11C101.14 29.13 101.02 29.05 100.83 29.01C100.76 29 100.7 28.98 100.63 28.97C100.56 28.97 100.48 28.98 100.41 28.99C94.82 29.37 89.22 29.76 83.63 30.15C83.29 30.18 83.3 30.18 82.93 30.35C82.89 30.37 82.83 30.4 82.76 30.4C81.05 30.53 79.34 30.65 77.62 30.76C76.87 30.82 76.13 30.87 75.38 30.92C75.12 30.94 75.12 30.94 74.48 31.14C74.42 31.16 74.36 31.18 74.3 31.19C71.32 31.4 68.33 31.6 65.35 31.81C65.11 31.82 64.92 31.86 64.81 31.95C64.74 32.01 64.64 32.05 64.49 32.06C62.4 32.21 60.31 32.36 58.22 32.5C57.97 32.52 57.82 32.57 57.7 32.65C57.66 32.68 57.62 32.71 57.57 32.73C57.51 32.74 57.43 32.75 57.36 32.75C55.57 32.88 53.78 33.01 51.99 33.13C51.72 33.14 51.61 33.21 51.48 33.29C51.44 33.31 51.41 33.35 51.35 33.36C51.29 33.38 51.2 33.38 51.13 33.38C49.64 33.49 48.15 33.59 46.66 33.7C46.37 33.69 46.31 33.8 46.17 33.86C46.12 33.89 46.08 33.92 46.02 33.93C45.96 33.95 45.88 33.95 45.8 33.95C44.61 34.03 43.41 34.12 42.22 34.2C41.94 34.21 41.89 34.31 41.74 34.38C41.69 34.4 41.64 34.43 41.58 34.44C40.83 34.49 40.09 34.54 39.34 34.59C39.09 34.61 39.09 34.61 38.66 34.8C38.61 34.82 38.55 34.84 38.48 34.85C37.37 34.93 36.25 35.01 35.13 35.08C34.98 35.09 34.88 35.14 34.81 35.2C34.74 35.27 34.63 35.31 34.49 35.32C33.59 35.38 32.7 35.45 31.81 35.51C31.56 35.52 31.39 35.57 31.29 35.66C31.2 35.72 31.1 35.75 30.95 35.76C30.05 35.83 29.16 35.89 28.26 35.95C28 35.96 27.86 36.03 27.75 36.11C27.67 36.17 27.57 36.19 27.4 36.21C25.76 36.32 24.11 36.43 22.48 36.55C22.2 36.57 22.06 36.5 21.88 36.46C21.63 36.39 21.39 36.32 21.39 36.17C21.39 36.14 21.31 36.12 21.25 36.1C20.85 35.96 20.85 35.96 20.79 35.8C20.75 35.71 20.71 35.61 20.68 35.52C20.62 35.36 20.48 35.32 20.06 35.35C19.91 35.36 19.76 35.37 19.61 35.38C19.39 35.39 19.23 35.33 19.19 35.22C19.16 35.15 19.14 35.09 19.11 35.03C19.34 35.01 19.33 35.01 19.73 34.78C19.9 34.68 19.9 34.68 19.58 34.58C19.46 34.55 19.34 34.51 19.21 34.47C19.15 34.46 19.07 34.45 19.01 34.45C18.63 34.47 18.26 34.5 17.89 34.53C17.3 34.57 17.3 34.57 16.69 34.37C16.64 34.36 16.56 34.33 16.57 34.31C16.62 34.24 16.75 34.21 16.9 34.21C17.12 34.19 17.35 34.18 17.57 34.16C17.72 34.15 17.87 34.14 18.01 34.13C18.15 34.06 18.3 33.99 18.43 33.91C18.64 33.8 18.64 33.79 18.35 33.71C18.17 33.66 17.98 33.61 17.79 33.56C17.57 33.58 17.35 33.59 17.12 33.61C16.84 33.62 16.73 33.59 16.66 33.46C16.6 33.36 16.67 33.26 16.89 33.24C17.11 33.22 17.32 33.2 17.43 33.1C17.54 33.01 17.73 32.97 17.97 32.97C18.11 32.96 18.26 32.95 18.41 32.93C18.61 32.92 18.71 32.82 18.67 32.71C18.65 32.64 18.6 32.58 18.43 32.57C17.64 32.5 17.64 32.5 17.25 32.37C17.21 32.36 17.18 32.33 17.2 32.31C17.22 32.28 17.27 32.24 17.32 32.23C17.84 32.19 18.36 32.15 18.88 32.12C19.05 32.11 19.18 32.1 19.24 32.03C19.32 31.93 19.28 31.84 19.13 31.78C19.08 31.75 19 31.73 18.94 31.73C18.34 31.76 17.75 31.81 17.16 31.84C17.1 31.85 17 31.81 16.98 31.79C16.93 31.74 17 31.68 17.16 31.66C17.37 31.63 17.58 31.63 17.72 31.53C17.92 31.4 18.15 31.27 18.37 31.14C18.41 31.12 18.47 31.08 18.45 31.07C18.34 31.03 18.21 31 18.09 30.96C17.89 30.89 17.89 30.8 17.94 30.71C17.97 30.64 18.11 30.61 18.28 30.61C18.35 30.61 18.44 30.61 18.5 30.59C18.65 30.55 18.7 30.49 18.62 30.45C18.58 30.43 18.5 30.4 18.44 30.4C17.48 30.47 16.51 30.53 15.54 30.61C15.26 30.63 15.13 30.56 14.96 30.5C14.82 30.46 14.7 30.45 14.54 30.48C14.39 30.5 14.24 30.49 14.14 30.43C14.07 30.37 14.2 30.33 14.57 30.28C14.64 30.27 14.71 30.27 14.76 30.25C15.29 30.04 15.29 30.04 15.65 30.01C16 29.99 16 29.98 16.18 29.87C16.27 29.82 16.37 29.77 16.45 29.72C16.48 29.7 16.53 29.66 16.51 29.65C16.42 29.59 16.28 29.57 16.12 29.59C15.77 29.62 15.35 29.59 15.17 29.77C15.1 29.84 14.98 29.86 14.82 29.87C13.18 29.98 11.55 30.1 9.91 30.21C9.64 30.23 9.52 30.3 9.42 30.38C9.33 30.44 9.23 30.46 9.05 30.47C8.88 30.48 8.75 30.49 8.65 30.43C8.59 30.39 8.64 30.33 8.77 30.28C8.97 30.2 8.93 30.11 8.87 30.02C8.82 29.96 8.68 29.92 8.53 29.92C8.31 29.93 8.1 29.95 7.92 29.87C7.81 29.83 7.67 29.8 7.55 29.76C7.31 29.68 7.08 29.6 6.75 29.65C6.52 29.63 6.37 29.57 6.19 29.51C5.88 29.42 5.86 29.41 6.07 29.32C6.32 29.21 6.13 29.07 6.26 28.97C6.41 28.86 6.61 28.76 6.78 28.66C6.83 28.63 6.87 28.61 6.91 28.58C6.81 28.54 6.71 28.49 6.59 28.47C6.43 28.43 6.35 28.39 6.36 28.27C6.33 28.26 6.34 28.3 6.38 28.31C6.42 28.32 6.52 28.31 6.57 28.3C6.7 28.26 6.76 28.22 6.73 28.18C6.71 28.15 6.62 28.13 6.57 28.13C6.47 28.13 6.38 28.17 6.36 28.27C5.85 28.35 5.33 28.39 4.8 28.42C4.75 28.42 4.68 28.39 4.62 28.37C4.41 28.3 4.41 28.3 3.8 28.28C3.74 28.28 3.65 28.26 3.62 28.23C3.49 28.11 3.49 27.98 3.43 27.86C3.55 27.78 3.66 27.7 3.79 27.62C4.03 27.46 4.35 27.32 4.54 27.15C4.5 27.06 4.44 26.96 4.64 26.89C5.2 26.79 5.2 26.79 5.35 26.7C5.79 26.44 6.23 26.18 6.68 25.92C6.8 25.85 6.8 25.82 6.59 25.79C6.52 25.78 6.45 25.78 6.38 25.78C6.15 25.8 5.92 25.83 5.7 25.82C5.48 25.82 5.32 25.73 5.14 25.68C4.95 25.63 4.77 25.57 4.58 25.52C4.37 25.52 4.16 25.58 3.94 25.49C3.78 25.42 3.58 25.38 3.39 25.32C3.53 25.18 3.8 25.06 4 24.94C4.18 24.82 4.19 24.82 4.69 24.73C4.92 24.69 5 24.47 4.8 24.41C4.56 24.33 4.31 24.26 4.07 24.19C3.85 24.2 3.64 24.25 3.43 24.16C3.28 24.1 3.09 24.05 2.83 24.08C2.39 24.12 1.94 24.14 1.49 24.18C1.34 24.19 1.17 24.18 1.1 24.11C1.06 24.07 1.19 24.01 1.34 23.99C1.56 23.97 1.77 23.95 1.88 23.85C1.99 23.76 2.19 23.73 2.42 23.72C2.48 23.71 2.56 23.69 2.59 23.67C2.75 23.56 2.93 23.46 3.28 23.46C3.42 23.43 3.5 23.38 3.46 23.33C3.43 23.31 3.33 23.27 3.28 23.28C2.9 23.3 2.53 23.32 2.16 23.35C1.99 23.37 1.86 23.37 1.75 23.31C1.68 23.27 1.72 23.22 1.86 23.17C1.99 23.12 2.02 23.06 2.01 23C1.99 22.85 1.86 22.8 1.42 22.81C1.11 22.82 1.03 22.8 0.97 22.67C0.95 22.64 0.9 22.59 0.93 22.57C1.13 22.44 1.26 22.28 1.62 22.22C1.77 22.2 1.92 22.2 2.01 22.15C2.1 22.1 2.18 22.04 2.28 21.99C2.39 21.94 2.48 21.88 2.42 21.85C2.33 21.78 2.19 21.78 2.02 21.8C1.87 21.82 1.72 21.82 1.57 21.83C1.31 21.85 1.09 21.8 1.06 21.72C0.97 21.5 0.88 21.28 0.8 21.05C0.79 21.03 0.82 20.99 0.85 20.97C0.98 20.89 1.12 20.81 1.25 20.74C1.4 20.65 1.64 20.66 1.85 20.65C2.15 20.62 2.15 20.62 2.54 20.44C2.69 20.37 2.96 20.4 3.12 20.33C3.17 20.31 3.24 20.27 3.23 20.26C3.21 20.23 3.12 20.21 3.05 20.2C2.99 20.19 2.91 20.18 2.85 20.19C2.02 20.24 1.21 20.3 0.38 20.36C0.24 20.37 0.09 20.32 0.04 20.27C-0.01 20.21 0 20.14 0 20.08C0.13 20 0.28 19.93 0.39 19.84C0.47 19.78 0.57 19.75 0.75 19.75C0.97 19.74 1.19 19.72 1.45 19.7C1.92 19.42 2.38 19.13 2.88 18.85C3.09 18.74 3.04 18.62 3.08 18.5C3.12 18.39 3.42 18.41 3.62 18.38C3.79 18.35 3.84 18.29 3.78 18.25C3.74 18.22 3.66 18.19 3.6 18.19C3.45 18.19 3.3 18.21 3.15 18.22C3 18.23 2.83 18.22 2.71 18.26C2.59 18.29 2.51 18.35 2.43 18.41C2.35 18.47 2.24 18.49 2.06 18.49C1.84 18.5 1.62 18.51 1.4 18.53C1.16 18.45 0.9 18.38 0.67 18.3C0.62 18.29 0.61 18.24 0.62 18.21C0.63 18.14 0.56 18.09 0.41 18.06C0.28 18.03 0.18 17.98 0.06 17.94C0.15 17.89 0.25 17.84 0.32 17.79C0.48 17.67 0.68 17.59 1.03 17.59C1.16 17.52 1.27 17.42 1.45 17.37C1.61 17.32 1.9 17.37 2.02 17.26C2.09 17.2 2.18 17.14 2.3 17.12C2.5 17.08 2.75 17.1 2.86 16.99C2.93 16.93 3.03 16.88 3.16 16.86C3.31 16.84 3.47 16.84 3.57 16.8C3.63 16.79 3.7 16.75 3.7 16.73C3.7 16.71 3.61 16.68 3.54 16.67C3.48 16.66 3.41 16.65 3.34 16.65C3.11 16.66 2.89 16.69 2.67 16.7C2.6 16.7 2.53 16.69 2.46 16.68C2.26 16.65 2.28 16.61 2.43 16.54C2.59 16.47 2.71 16.39 2.84 16.31C2.98 16.29 3.16 16.3 3.26 16.26C3.43 16.2 3.55 16.12 3.68 16.04C3.83 16.03 3.98 16.03 4.12 16.01C4.18 16 4.21 15.96 4.26 15.93C4.35 15.88 4.43 15.82 4.55 15.79C4.75 15.76 4.99 15.77 5.11 15.67C5.18 15.61 5.28 15.54 5.41 15.54C5.76 15.53 5.91 15.42 6.09 15.32C6.23 15.25 6.52 15.29 6.66 15.21C6.76 15.17 6.84 15.11 6.94 15.06C6.98 15.04 7.06 15.03 7.13 15.03C7.5 15 7.88 14.98 8.25 14.95C8.3 14.94 8.36 14.91 8.4 14.89C8.5 14.84 8.56 14.77 8.68 14.74C8.79 14.7 8.96 14.7 9.1 14.7C9.57 14.67 9.61 14.67 9.82 14.51C9.99 14.38 10.41 14.47 10.55 14.33C10.63 14.24 10.78 14.18 11.05 14.17C11.42 14.15 11.79 14.12 12.17 14.09C12.5 14.07 12.5 14.07 12.86 13.89C13.02 13.81 13.26 13.82 13.47 13.81C13.7 13.79 13.91 13.77 14.02 13.67C14.12 13.58 14.32 13.55 14.55 13.53C14.77 13.52 15.01 13.53 15.17 13.45C15.58 13.27 15.57 13.27 15.86 13.25C16.31 13.22 16.75 13.19 17.2 13.16C17.5 13.13 17.81 13.13 18.09 13.09C18.29 13.06 18.39 12.95 18.52 12.88C18.89 12.85 19.26 12.82 19.63 12.79C20.15 12.75 20.67 12.72 21.2 12.68C21.42 12.61 21.45 12.45 21.83 12.44C22.06 12.44 22.28 12.41 22.51 12.4C22.88 12.37 23.25 12.34 23.63 12.32C23.91 12.31 23.96 12.21 24.11 12.15C24.16 12.12 24.21 12.09 24.26 12.09C24.85 12.03 25.46 12.02 26.03 11.94C26.09 11.93 26.14 11.89 26.16 11.87C26.17 11.85 26.09 11.82 26.04 11.81C25.98 11.79 25.9 11.78 25.84 11.78C23.97 11.91 22.11 12.04 20.24 12.17C19.98 12.19 19.98 12.18 19.34 12.39C19.29 12.41 19.23 12.43 19.16 12.44C18.86 12.46 18.56 12.47 18.26 12.5C18.02 12.52 17.83 12.5 17.65 12.43C17.53 12.38 17.4 12.37 17.25 12.37C17.08 12.38 16.97 12.4 16.87 12.45C16.74 12.52 16.67 12.61 16.39 12.63C15.12 12.71 13.85 12.81 12.59 12.89C12.41 12.87 12.33 12.83 12.37 12.78C12.4 12.75 12.45 12.71 12.51 12.71C13.03 12.67 13.55 12.63 14.07 12.6C14.14 12.59 14.24 12.59 14.28 12.57C14.48 12.49 14.55 12.35 14.93 12.34C15.15 12.33 15.37 12.31 15.57 12.28C15.63 12.27 15.69 12.23 15.7 12.2C15.71 12.19 15.63 12.16 15.58 12.14C15.38 12.09 15.15 12.16 14.95 12.12C14.88 12.1 14.79 12.09 14.78 12.06C14.77 12.04 14.84 12.01 14.9 11.99C14.95 11.97 15.01 11.95 15.08 11.94C15.68 11.9 16.28 11.85 16.87 11.82C17.12 11.81 17.29 11.76 17.4 11.67C17.48 11.61 17.58 11.57 17.73 11.56C18.77 11.49 19.82 11.41 20.87 11.35C21.13 11.33 21.26 11.27 21.37 11.19C21.46 11.12 21.56 11.1 21.72 11.09C23.22 10.99 24.71 10.88 26.2 10.78C26.48 10.76 26.56 10.68 26.7 10.61C26.75 10.59 26.78 10.56 26.84 10.54C26.91 10.52 26.99 10.53 27.07 10.52C28.26 10.44 29.45 10.35 30.65 10.28C30.93 10.26 30.98 10.16 31.13 10.1C31.18 10.08 31.22 10.04 31.28 10.04C32.18 9.97 33.07 9.91 33.97 9.85C34.56 9.8 35.16 9.76 35.75 9.72C36.05 9.7 36.05 9.7 36.45 9.52C36.49 9.5 36.55 9.47 36.61 9.47C38.33 9.35 40.04 9.23 41.76 9.11C41.9 9.1 42.01 9.05 42.08 8.99C42.15 8.92 42.26 8.88 42.4 8.87C43.74 8.78 45.08 8.68 46.43 8.59C46.67 8.58 46.84 8.53 46.95 8.44C47.03 8.38 47.13 8.35 47.29 8.34C48.63 8.24 49.97 8.15 51.32 8.06C51.57 8.04 51.7 7.98 51.83 7.9C51.87 7.87 51.91 7.83 51.96 7.83C52.63 7.77 53.3 7.72 53.97 7.68C54.25 7.66 54.34 7.58 54.46 7.51C54.55 7.45 54.65 7.43 54.82 7.42C55.2 7.4 55.57 7.37 55.93 7.34C55.99 7.33 56.06 7.29 56.06 7.26C56.07 7.21 55.97 7.18 55.79 7.16C54 7.28 52.21 7.41 50.42 7.53C50.13 7.55 50.13 7.55 49.73 7.74C49.69 7.76 49.62 7.78 49.56 7.79C47.84 7.91 46.13 8.03 44.41 8.15C44.27 8.16 44.16 8.2 44.09 8.26C44.02 8.33 43.91 8.37 43.77 8.38C42.13 8.5 40.49 8.61 38.85 8.72C38.61 8.74 38.43 8.78 38.33 8.87C38.24 8.94 38.14 8.97 37.99 8.98C36.42 9.09 34.86 9.2 33.29 9.3C33.13 9.31 33.01 9.26 33.02 9.21C33.03 9.18 33.09 9.13 33.15 9.13C33.97 9.07 34.78 9 35.6 8.96C35.88 8.94 35.96 8.86 36.1 8.78C36.14 8.76 36.18 8.73 36.24 8.71C36.3 8.7 36.38 8.7 36.46 8.7C38.4 8.56 40.34 8.42 42.28 8.3C42.56 8.28 42.61 8.18 42.76 8.12C42.81 8.09 42.85 8.06 42.91 8.05C43.51 8.01 44.1 7.97 44.7 7.93C45.74 7.86 46.79 7.78 47.84 7.71C48.14 7.69 48.14 7.69 48.53 7.51C48.57 7.49 48.64 7.46 48.7 7.46C51.46 7.26 54.22 7.07 56.98 6.88C57.12 6.87 57.23 6.83 57.3 6.76C57.37 6.7 57.47 6.65 57.62 6.64C61.35 6.38 65.08 6.12 68.81 5.87C69.05 5.85 69.22 5.81 69.33 5.72C69.41 5.65 69.51 5.62 69.67 5.61C73.77 5.32 77.87 5.04 81.98 4.75C84.74 4.56 87.5 4.36 90.26 4.18C90.51 4.16 90.65 4.1 90.78 4.02C90.82 4 90.86 3.95 90.91 3.95C91.5 3.9 92.1 3.86 92.69 3.81C92.87 3.86 93.06 3.91 93.24 3.96C93.38 3.89 93.52 3.82 93.66 3.74C94.55 3.69 95.43 3.6 96.34 3.58C96.4 3.57 96.46 3.61 96.52 3.63C96.94 3.75 97.18 3.74 97.45 3.58C97.55 3.52 97.63 3.47 97.77 3.46C98.22 3.43 98.67 3.4 99.11 3.36C99.35 3.34 99.55 3.36 99.72 3.43C99.84 3.48 99.97 3.5 100.12 3.49C100.94 3.43 101.76 3.38 102.58 3.32C102.64 3.31 102.7 3.28 102.74 3.26C102.84 3.21 102.92 3.15 103.01 3.1C103.13 3.13 103.27 3.16 103.37 3.2C103.49 3.25 103.61 3.25 103.78 3.24C107.06 3.01 110.35 2.78 113.63 2.55C113.91 2.53 114.03 2.61 114.22 2.65C114.28 2.67 114.35 2.69 114.41 2.69C114.49 2.69 114.56 2.68 114.63 2.68C117.1 2.5 119.56 2.33 122.02 2.16C122.35 2.14 122.35 2.14 122.83 2.26C122.89 2.27 122.97 2.29 123.03 2.28C124.15 2.21 125.27 2.13 126.39 2.05C126.53 2.04 126.65 2.07 126.78 2.12C127.04 2.2 127.06 2.2 127.25 2.08C127.34 2.02 127.44 1.98 127.58 1.96C127.75 1.95 127.88 1.95 128 1.99C128.19 2.03 128.32 2.11 128.59 2.09C129.78 2 130.98 1.93 132.17 1.84C132.44 1.82 132.59 1.88 132.77 1.93C132.83 1.95 132.89 1.97 132.96 1.98C133.02 1.98 133.11 1.97 133.18 1.96C134.67 1.86 136.17 1.76 137.65 1.65C137.93 1.63 138.05 1.71 138.24 1.75C138.31 1.77 138.38 1.79 138.44 1.79C139.33 1.73 140.23 1.67 141.13 1.6C141.45 1.58 141.45 1.58 141.94 1.7C141.99 1.72 142.07 1.73 142.13 1.73C143.18 1.66 144.23 1.58 145.27 1.51C145.59 1.49 145.59 1.49 146.52 1.59C146.58 1.6 146.66 1.61 146.72 1.6C147.92 1.52 149.12 1.44 150.31 1.35C150.55 1.34 150.75 1.35 150.92 1.42C151.04 1.47 151.17 1.49 151.32 1.48C152.66 1.39 154 1.3 155.34 1.2C155.6 1.18 155.77 1.22 155.95 1.27C156 1.29 156.06 1.32 156.13 1.33C156.2 1.34 156.28 1.33 156.35 1.32C157.69 1.23 159.04 1.14 160.38 1.04C160.65 1.02 160.79 1.08 160.97 1.13C161.03 1.15 161.1 1.18 161.16 1.18C161.68 1.15 162.21 1.12 162.72 1.07C163 1.04 163.13 1.13 163.32 1.17C163.38 1.19 163.45 1.22 163.51 1.21C164.63 1.14 165.75 1.06 166.87 0.98C167.03 0.97 167.14 0.99 167.27 1.04C167.44 1.1 167.63 1.13 167.88 1.11C168.4 1.06 168.92 1.03 169.44 1C169.75 0.98 169.75 0.98 170.69 1.08C170.76 1.08 170.83 1.09 170.9 1.09C171.79 1.03 172.69 0.97 173.58 0.9C173.82 0.88 174.02 0.9 174.19 0.97C174.31 1.02 174.44 1.04 174.59 1.03C175.41 0.97 176.23 0.91 177.05 0.86C177.35 0.84 177.65 0.8 177.95 0.8C178.16 0.8 178.32 0.89 178.52 0.94C178.57 0.95 178.66 0.94 178.73 0.93C179.78 0.86 180.83 0.79 181.87 0.71C182.14 0.69 182.28 0.76 182.46 0.8C182.53 0.82 182.59 0.86 182.65 0.85C183.02 0.83 183.39 0.8 183.77 0.78C184.21 0.75 184.67 0.73 185.11 0.68C185.47 0.65 185.61 0.82 185.9 0.82C186.12 0.83 186.34 0.79 186.56 0.78C187.01 0.75 187.46 0.71 187.91 0.69C188.06 0.68 188.19 0.65 188.24 0.58C188.25 0.56 188.17 0.54 188.12 0.52C187.52 0.32 187.52 0.32 186.91 0.37C186.54 0.39 186.17 0.42 185.79 0.44C185.73 0.45 185.66 0.43 185.59 0.42C185.41 0.39 185.43 0.35 185.58 0.28C185.74 0.21 185.86 0.13 185.99 0.05C186.17 0.1 186.35 0.15 186.54 0.2C186.69 0.19 186.84 0.18 186.98 0.17C187.73 0.12 188.48 0.07 189.22 0.02C189.28 0.02 189.34 0.05 189.41 0.07C189.59 0.13 189.75 0.18 190.01 0.16C190.68 0.1 191.35 0.06 192.02 0.01C192.32 -0.01 192.32 -0.01 192.83 0.11C192.89 0.12 192.97 0.14 193.03 0.13C193.7 0.09 194.37 0.04 195.05 0C195.19 -0.01 195.33 0.01 195.43 0.07C195.48 0.09 195.47 0.13 195.64 0.44C196.17 0.7 196.54 0.67 196.91 0.65C197.07 0.64 197.21 0.63 197.31 0.59C197.36 0.57 197.43 0.54 197.43 0.51C197.43 0.49 197.33 0.46 197.27 0.46C196.82 0.42 196.4 0.5 195.96 0.52C195.76 0.53 195.58 0.46 195.54 0.35C195.53 0.32 195.52 0.29 195.51 0.26C195.49 0.23 195.48 0.19 195.47 0.16C195.29 0.15 195.19 0.19 195.11 0.25C195.05 0.31 194.96 0.37 194.84 0.4C194.72 0.43 194.55 0.42 194.4 0.43C194.26 0.44 194.1 0.47 193.96 0.45C193.83 0.44 193.72 0.38 193.59 0.35C193.53 0.33 193.46 0.3 193.4 0.31C192.88 0.34 192.37 0.37 191.85 0.42C191.58 0.44 191.44 0.36 191.27 0.31C191.14 0.27 191 0.28 190.98 0.37C190.92 0.58 191.13 0.67 191.59 0.63C191.97 0.59 192.31 0.59 192.61 0.72C192.65 0.73 192.75 0.74 192.8 0.74C193.18 0.71 193.54 0.69 193.91 0.66C193.98 0.66 194.05 0.67 194.12 0.67C195.04 0.78 195.04 0.78 195.35 0.76C195.5 0.74 195.64 0.74 195.63 0.44C195.91 0.13 196.37 0.11 196.8 0.07C197.09 0.04 197.21 0.12 197.4 0.17C197.46 0.18 197.53 0.21 197.59 0.21C198.56 0.14 199.52 0.08 200.49 0.01C200.65 0 200.77 0.01 200.9 0.06C201.06 0.12 201.24 0.16 201.5 0.14C202.01 0.09 202.54 0.06 203.06 0.02C203.33 0 203.33 0 203.87 0.12C203.92 0.14 204 0.15 204.06 0.15C204.59 0.12 205.11 0.08 205.63 0.04C205.77 0.03 205.9 0.06 206.02 0.11C206.13 0.16 206.27 0.19 206.41 0.18C206.93 0.14 207.45 0.11 207.97 0.07C208.03 0.07 208.11 0.08 208.17 0.09C208.72 0.21 208.72 0.21 208.97 0.19C209.34 0.17 209.72 0.15 210.09 0.11C210.44 0.08 210.63 0.19 210.87 0.25C211.54 0.2 212.22 0.17 212.88 0.11C213.15 0.09 213.3 0.15 213.48 0.2C213.54 0.22 213.6 0.26 213.66 0.26C213.89 0.25 214.11 0.23 214.33 0.21C214.55 0.2 214.78 0.18 215 0.17C215.25 0.22 215.42 0.35 215.78 0.31C216 0.28 216.23 0.27 216.45 0.26C216.67 0.24 216.9 0.23 217.12 0.21C217.27 0.2 217.42 0.2 217.57 0.18C217.83 0.15 217.96 0.25 218.15 0.29C218.22 0.3 218.29 0.32 218.35 0.32C218.8 0.29 219.25 0.27 219.69 0.23C220.02 0.19 220.25 0.25 220.49 0.33C220.54 0.35 220.63 0.36 220.69 0.35C221.22 0.32 221.74 0.28 222.26 0.25C222.4 0.24 222.53 0.27 222.64 0.32C222.76 0.37 222.89 0.39 223.04 0.38C223.56 0.35 224.08 0.31 224.6 0.28C224.66 0.27 224.74 0.29 224.8 0.3C225.31 0.42 225.31 0.42 225.6 0.4C225.68 0.39 225.75 0.39 225.83 0.39C226.2 0.36 226.58 0.35 226.94 0.3C227.36 0.25 227.66 0.32 227.95 0.43C228.32 0.4 228.7 0.39 229.07 0.35C229.34 0.32 229.48 0.39 229.66 0.44C229.73 0.46 229.79 0.49 229.85 0.49C230.37 0.46 230.9 0.43 231.41 0.38C231.69 0.35 231.81 0.44 232 0.48C232.07 0.5 232.13 0.53 232.19 0.52C232.49 0.51 232.79 0.48 233.09 0.46C233.44 0.44 233.43 0.44 233.9 0.56C234.11 0.61 234.33 0.57 234.54 0.56C234.77 0.54 234.98 0.53 235.16 0.61C235.27 0.66 235.41 0.69 235.55 0.68C235.85 0.66 236.15 0.65 236.44 0.62C236.68 0.59 236.88 0.61 237.05 0.68C237.18 0.73 237.3 0.75 237.45 0.74C238.12 0.7 238.79 0.65 239.46 0.6C239.52 0.6 239.6 0.62 239.66 0.64C239.78 0.67 239.91 0.71 240.03 0.75C240.32 0.73 240.62 0.72 240.91 0.69C241.22 0.67 241.5 0.66 241.74 0.76C241.79 0.79 241.86 0.82 241.92 0.82C242.15 0.81 242.37 0.79 242.59 0.78C242.81 0.76 243.04 0.74 243.26 0.73C243.52 0.78 243.68 0.91 244.04 0.87C244.26 0.84 244.49 0.84 244.71 0.82C244.93 0.81 245.16 0.79 245.38 0.78C245.45 0.77 245.53 0.76 245.59 0.77C245.66 0.78 245.72 0.81 245.78 0.82C245.96 0.88 246.13 0.94 246.39 0.9C246.6 0.88 246.83 0.87 247.05 0.85C247.36 0.83 247.36 0.83 247.86 0.95C248.06 1 248.29 0.94 248.49 0.98C248.62 1.01 248.73 1.06 248.86 1.09C248.91 1.1 249 1.11 249.06 1.1C249.36 1.09 249.66 1.07 249.95 1.04C250.19 1.02 250.39 1.04 250.56 1.11C250.68 1.16 250.8 1.18 250.96 1.17C251.7 1.12 252.45 1.07 253.19 1.01C253.44 0.99 253.65 1.02 253.79 1.09C254.03 1.21 254.36 1.07 254.61 1.17C254.77 1.22 254.92 1.29 255.2 1.26C255.72 1.21 256.24 1.19 256.76 1.15C256.94 1.21 257.13 1.26 257.32 1.31C257.62 1.29 257.92 1.27 258.21 1.25C258.44 1.23 258.66 1.21 258.88 1.2C258.96 1.2 259.03 1.19 259.1 1.2C259.17 1.21 259.22 1.23 259.29 1.25C259.6 1.35 259.6 1.35 260.11 1.31C260.33 1.29 260.55 1.28 260.73 1.36C260.9 1.43 261.11 1.44 261.34 1.42C261.78 1.38 262.23 1.35 262.68 1.33C262.82 1.32 262.95 1.35 263.07 1.4C263.25 1.48 263.47 1.47 263.69 1.45C263.98 1.42 264.27 1.4 264.52 1.5C264.57 1.53 264.64 1.56 264.7 1.56C265.07 1.54 265.44 1.53 265.81 1.49C266.17 1.46 266.34 1.58 266.59 1.63C266.96 1.61 267.34 1.58 267.71 1.56C267.78 1.55 267.87 1.54 267.93 1.55C268.2 1.59 268.35 1.73 268.72 1.69C268.93 1.66 269.16 1.65 269.38 1.65C269.44 1.65 269.51 1.68 269.56 1.7C269.58 1.72 269.56 1.75 269.53 1.77C269.45 1.82 269.35 1.87 269.28 1.93C269.27 1.94 269.35 1.97 269.4 1.99C269.52 2.02 269.66 2.02 269.83 2C269.97 1.99 270.11 2.01 270.21 2.07C270.25 2.09 270.24 2.13 270.15 2.26C270.15 2.35 270.25 2.31 270.28 2.25C270.33 2.16 270.23 2.13 270.05 2.18C269.93 2.21 269.86 2.26 269.89 2.3C269.91 2.33 270 2.35 270.15 2.26C270.55 2.14 270.85 2.12 271.15 2.1C271.22 2.1 271.31 2.08 271.37 2.09C271.56 2.13 271.74 2.19 271.93 2.24C272.15 2.23 272.35 2.2 272.57 2.28C272.86 2.38 272.88 2.37 273.17 2.35C273.32 2.34 273.46 2.33 273.61 2.32C273.76 2.31 273.88 2.34 274.01 2.38C274.28 2.47 274.3 2.47 274.48 2.35C274.58 2.28 274.65 2.25 274.78 2.29C275.22 2.4 275.22 2.41 275.59 2.38C275.9 2.35 276.19 2.34 276.42 2.45C276.57 2.52 276.62 2.51 276.74 2.43C277.07 2.21 277.21 2.22 277.82 2.37C278.11 2.44 278.4 2.37 278.69 2.36C278.94 2.35 279.11 2.39 279.13 2.52C279.14 2.59 279.18 2.64 279.34 2.67C279.41 2.68 279.48 2.69 279.55 2.69C279.92 2.66 280.29 2.64 280.67 2.61C280.86 2.6 280.96 2.51 280.92 2.39C280.88 2.26 280.96 2.22 281.23 2.18C281.39 2.16 281.52 2.16 281.65 2.2C281.8 2.24 281.76 2.27 281.63 2.34C281.33 2.51 281.36 2.61 281.75 2.73C281.89 2.77 282 2.8 282.03 2.86C282.04 2.89 282.03 2.93 282.07 2.96C282.29 3.08 282.6 3.17 282.94 3.23C283.27 3.18 283.5 3.26 283.75 3.33C283.95 3.39 284.18 3.34 284.39 3.32C284.63 3.3 284.83 3.31 285 3.39C285.13 3.43 285.25 3.46 285.4 3.45C285.7 3.43 286 3.41 286.3 3.38C286.55 3.36 286.74 3.39 286.9 3.46C287.1 3.54 287.32 3.49 287.53 3.5C287.81 3.51 287.95 3.68 288.31 3.64C288.53 3.61 288.76 3.6 288.98 3.59C289.04 3.59 289.11 3.62 289.16 3.65C289.4 3.75 289.68 3.74 289.99 3.71C290.2 3.69 290.41 3.67 290.62 3.75C290.96 3.87 291.34 3.98 291.7 4.09C291.75 4.18 291.71 4.28 291.97 4.33C292.11 4.36 292.23 4.4 292.34 4.44C292.46 4.49 292.58 4.51 292.74 4.49C293.04 4.47 293.35 4.46 293.64 4.43C293.9 4.4 294.07 4.46 294.23 4.52C294.36 4.57 294.48 4.59 294.64 4.56C294.81 4.52 294.92 4.54 295.05 4.6C295.24 4.67 295.25 4.66 295.87 4.68C295.93 4.68 296.01 4.71 296.04 4.74C296.06 4.75 296.02 4.79 295.99 4.81C295.95 4.83 295.89 4.86 295.83 4.86C295.16 4.91 294.48 4.95 293.82 5C293.75 5.01 293.68 5.02 293.63 5.04C293.57 5.06 293.5 5.09 293.5 5.12C293.5 5.14 293.59 5.16 293.66 5.17C293.86 5.22 294.09 5.15 294.29 5.2C294.42 5.23 294.53 5.28 294.66 5.31C294.71 5.32 294.8 5.32 294.86 5.32C295.09 5.3 295.31 5.29 295.54 5.27C295.6 5.27 295.67 5.29 295.73 5.31C296.17 5.42 296.17 5.42 296.54 5.4C296.69 5.39 296.85 5.36 296.99 5.37C297.12 5.38 297.24 5.43 297.36 5.47C297.62 5.53 297.85 5.6 297.87 5.75C297.88 5.81 298.03 5.86 298.18 5.86C298.32 5.87 298.48 5.84 298.63 5.83C298.98 5.81 298.98 5.81 299.44 5.93C299.56 5.96 299.7 5.96 299.86 5.94C299.92 5.94 300 5.94 300.07 5.95C300.29 5.98 300.29 6.02 300.15 6.09C299.94 6.19 299.96 6.2 300.53 6.28C300.75 6.32 300.91 6.38 301.1 6.43C301.39 6.52 301.38 6.52 301.19 6.63C301.14 6.65 301.1 6.68 301.06 6.71C300.93 6.78 300.82 6.86 300.55 6.87C300.25 6.88 299.96 6.91 299.66 6.93C299.37 6.95 299.29 7 299.32 7.13C299.35 7.28 299.41 7.3 299.93 7.3C300.08 7.3 300.21 7.31 300.32 7.37C300.27 7.43 300.17 7.48 300.02 7.49C299.65 7.52 299.28 7.54 298.91 7.56C298.61 7.59 298.31 7.61 298.01 7.63C297.83 7.64 297.71 7.74 297.76 7.85C297.79 7.91 297.81 7.98 297.83 8.04C297.88 8.17 297.98 8.2 298.28 8.19C298.36 8.19 298.43 8.18 298.5 8.18C298.79 8.19 298.94 8.35 299.29 8.32C299.58 8.29 299.89 8.29 300.18 8.25C300.44 8.22 300.59 8.29 300.78 8.34C300.84 8.36 300.91 8.4 300.96 8.39C301.34 8.37 301.71 8.35 302.08 8.32C302.25 8.3 302.35 8.31 302.49 8.36C302.82 8.47 302.82 8.46 303.31 8.43C303.66 8.4 303.67 8.41 304.12 8.52C304.24 8.56 304.38 8.56 304.54 8.54C304.76 8.52 304.98 8.49 305.2 8.52C305.26 8.53 305.35 8.55 305.37 8.57C305.39 8.59 305.32 8.63 305.27 8.65C304.87 8.75 304.41 8.73 303.97 8.77C303.84 8.78 303.7 8.74 303.59 8.69C303.47 8.64 303.35 8.62 303.19 8.63C302.89 8.65 302.59 8.66 302.3 8.7C302.04 8.72 301.87 8.68 301.69 8.62C301.63 8.6 301.57 8.56 301.51 8.56C300.84 8.6 300.16 8.64 299.5 8.7C299.23 8.72 299.08 8.66 298.9 8.61C298.84 8.59 298.77 8.55 298.71 8.55C298.49 8.56 298.27 8.58 298.04 8.6C297.22 8.65 296.4 8.71 295.58 8.77C295.52 8.77 295.46 8.73 295.39 8.71C295.27 8.68 295.14 8.65 295.02 8.61C294.79 8.63 294.57 8.65 294.34 8.66C294.18 8.67 294.04 8.69 294.01 8.77C294 8.81 294.15 8.86 294.31 8.85C294.46 8.85 294.62 8.83 294.74 8.85C295.37 8.97 295.37 8.98 295.76 8.95C296.11 8.93 296.07 8.91 296.37 9.01C296.5 9.06 296.62 9.09 296.77 9.08C297.14 9.05 297.52 9.02 297.89 9C297.95 9 298.03 9.01 298.09 9.03C298.53 9.14 298.53 9.15 298.89 9.12C299.37 9.09 299.39 9.08 299.71 9.19C299.93 9.27 300.14 9.22 300.35 9.21C300.59 9.29 300.86 9.35 301.08 9.44C301.34 9.54 301.62 9.52 301.92 9.49C302.14 9.47 302.35 9.46 302.54 9.54C302.71 9.61 302.92 9.62 303.15 9.6C303.36 9.59 303.58 9.55 303.8 9.59C303.86 9.6 303.95 9.63 303.95 9.65C303.94 9.68 303.88 9.71 303.82 9.73C303.41 9.8 302.95 9.8 302.51 9.84C302.46 9.84 302.38 9.82 302.32 9.81C302.19 9.77 302.07 9.73 301.95 9.7C301.73 9.71 301.5 9.71 301.28 9.74C301.12 9.75 300.99 9.75 300.87 9.7C300.76 9.66 300.63 9.61 300.5 9.6C300.36 9.58 300.2 9.61 300.06 9.62C299.91 9.64 299.74 9.63 299.62 9.66C299.5 9.69 299.43 9.76 299.35 9.81C299.26 9.87 299.15 9.89 298.98 9.9C298.82 9.9 298.69 9.89 298.57 9.84C298.52 9.82 298.46 9.8 298.39 9.78C298.32 9.77 298.25 9.75 298.19 9.75C297.52 9.8 296.85 9.85 296.18 9.89C295.84 9.91 295.85 9.91 295.15 9.8C295.09 9.79 295.01 9.78 294.95 9.78C294.57 9.81 294.2 9.83 293.83 9.86C293.45 9.89 293.45 9.88 292.81 9.76C292.69 9.74 292.52 9.77 292.38 9.77C292.09 9.76 291.94 9.6 291.6 9.63C291.3 9.65 291 9.66 290.7 9.69C290.44 9.72 290.28 9.66 290.1 9.61C290.04 9.59 289.97 9.55 289.92 9.55C289.24 9.6 288.57 9.64 287.68 9.65C287.46 9.65 287.56 9.69 287.7 9.7C287.91 9.72 287.98 9.68 287.86 9.61C287.78 9.55 287.67 9.53 287.57 9.54C287.52 9.55 287.46 9.58 287.68 9.65C287.91 9.72 287.9 9.76 287.94 9.78C288.04 9.84 288.18 9.86 288.32 9.86C288.55 9.84 288.77 9.82 289 9.81C289.06 9.81 289.14 9.82 289.2 9.84C289.69 9.96 289.7 9.96 290.23 9.92C290.4 9.9 290.52 9.9 290.65 9.94C290.83 9.99 290.96 10.07 291.24 10.05C291.6 10.01 291.98 9.99 292.35 9.97C292.41 9.96 292.47 10 292.54 10.01C292.73 10.06 292.86 10.15 293.14 10.11C293.35 10.08 293.58 10.07 293.81 10.07C293.87 10.07 293.96 10.1 293.98 10.12C294.04 10.17 293.97 10.22 293.82 10.25C293.75 10.27 293.67 10.26 293.59 10.27C293.3 10.29 293 10.31 292.7 10.33C292.54 10.34 292.39 10.37 292.37 10.44C292.36 10.49 292.52 10.53 292.68 10.53C292.9 10.52 293.13 10.51 293.35 10.48C293.73 10.44 294.06 10.45 294.38 10.57C294.6 10.65 294.58 10.62 294.82 10.87C294.88 10.94 295.05 10.94 295.21 10.94C295.58 10.93 295.75 10.96 295.72 11.02C295.68 11.09 295.55 11.11 295.38 11.12C295.08 11.14 294.78 11.16 294.48 11.18C294.41 11.19 294.33 11.2 294.26 11.2C294.2 11.19 294.13 11.17 294.07 11.15C293.95 11.12 293.84 11.06 293.7 11.05C293.57 11.03 293.41 11.06 293.26 11.07C293.11 11.08 292.95 11.11 292.82 11.1C292.68 11.09 292.57 11.03 292.45 10.99C292.39 10.98 292.32 10.95 292.26 10.95C291.96 10.97 291.66 10.99 291.36 11.01C291 11.04 291 11.04 290.55 10.92C290.43 10.88 290.29 10.88 290.13 10.9C289.77 10.93 289.76 10.92 289.1 10.81C289.04 10.8 288.96 10.79 288.9 10.79C288.23 10.84 287.56 10.89 286.89 10.93C286.32 10.97 286.32 10.97 286 11.16C285.76 11.31 285.76 11.31 285.99 11.37C286.17 11.42 286.34 11.5 286.54 11.53C286.74 11.56 286.97 11.47 287.18 11.56C287.28 11.6 287.42 11.65 287.55 11.66C287.76 11.67 287.98 11.61 288.18 11.7C288.28 11.74 288.43 11.78 288.55 11.78C288.77 11.79 289 11.76 289.22 11.74C289.29 11.74 289.37 11.74 289.43 11.75C289.5 11.76 289.55 11.78 289.61 11.8C289.79 11.87 289.99 11.9 290.22 11.87C290.61 11.81 290.95 11.84 291.25 11.96C291.29 11.98 291.39 11.98 291.45 11.97C291.62 11.96 291.76 11.95 291.88 11.99C291.93 12 292 12.03 291.99 12.05C291.98 12.08 291.92 12.12 291.86 12.13C291.44 12.19 290.98 12.2 290.54 12.23C290.49 12.24 290.41 12.21 290.35 12.19C290.23 12.16 290.12 12.1 289.98 12.09C289.85 12.08 289.69 12.1 289.54 12.11C289.39 12.12 289.23 12.15 289.1 12.14C288.96 12.12 288.84 12.08 288.73 12.03C288.6 11.99 288.48 11.98 288.31 12C288.1 12.02 287.87 12.03 287.65 12.04C287.53 12 287.4 11.96 287.28 11.93C287.22 11.91 287.15 11.89 287.08 11.89C286.79 11.91 286.49 11.93 286.19 11.95C285.89 11.97 285.89 11.97 285.38 11.86C285.32 11.84 285.25 11.83 285.19 11.83C284.81 11.85 284.44 11.88 284.06 11.91C283.92 11.91 283.79 11.89 283.67 11.84C283.56 11.78 283.42 11.76 283.28 11.77C282.69 11.81 282.09 11.84 281.49 11.89C281.25 11.91 281.05 11.89 280.89 11.83C280.7 11.75 280.49 11.77 280.26 11.78C279.76 11.82 279.76 11.82 279.44 11.72C279.37 11.7 279.31 11.66 279.25 11.67C278.73 11.7 278.21 11.72 277.69 11.77C277.42 11.79 277.28 11.73 277.1 11.68C277.03 11.66 276.97 11.62 276.91 11.63C276.54 11.65 276.16 11.67 275.79 11.7C275.43 11.74 275.29 11.57 275.01 11.57C274.64 11.57 274.27 11.61 273.9 11.64C273.6 11.66 273.3 11.68 273 11.7C272.71 11.72 272.41 11.74 272.11 11.77C271.95 11.78 271.83 11.76 271.7 11.71C271.54 11.65 271.34 11.6 271.16 11.54C270.88 11.46 270.88 11.46 270.54 11.48C270.47 11.49 270.4 11.49 270.32 11.5C269.78 11.54 269.78 11.54 269.08 11.42C269.05 11.41 268.97 11.43 268.94 11.45C268.84 11.5 268.76 11.55 268.67 11.6C268.55 11.57 268.4 11.56 268.32 11.51C268.09 11.39 267.73 11.56 267.49 11.44C267.41 11.39 267.26 11.35 267.12 11.34C266.98 11.33 266.82 11.35 266.68 11.36C266.3 11.39 266.3 11.39 265.98 11.56C265.82 11.65 265.58 11.63 265.37 11.65C265.15 11.67 264.94 11.68 264.75 11.6C264.59 11.53 264.38 11.52 264.14 11.54C263.85 11.57 263.55 11.58 263.25 11.6C263.18 11.61 263.11 11.6 263.04 11.58C262.35 11.47 262.35 11.47 262.02 11.49C261.87 11.51 261.72 11.51 261.57 11.53C261.33 11.56 261.14 11.52 260.97 11.46C260.91 11.44 260.84 11.4 260.78 11.4C260.48 11.41 260.19 11.43 259.9 11.45C259.67 11.46 259.44 11.47 259.23 11.49C258.87 11.54 258.69 11.41 258.44 11.36C258.07 11.38 257.69 11.4 257.32 11.43C257.15 11.45 257.04 11.44 256.91 11.4C256.74 11.34 256.59 11.27 256.32 11.3C255.96 11.34 255.58 11.35 255.21 11.38C254.96 11.32 254.78 11.2 254.42 11.24C254.2 11.27 253.97 11.27 253.75 11.29C253.45 11.31 253.15 11.33 252.86 11.35C252.53 11.38 252.54 11.37 252.05 11.26C251.76 11.19 251.47 11.26 251.18 11.28C250.95 11.29 250.84 11.37 250.89 11.49C250.95 11.6 250.83 11.69 250.62 11.7C250.1 11.74 249.58 11.78 249.06 11.81C248.99 11.81 248.92 11.8 248.86 11.79C248.3 11.67 248.3 11.67 248.05 11.69C247.68 11.71 247.3 11.73 246.94 11.77C246.68 11.79 246.5 11.75 246.34 11.69C246.21 11.64 246.09 11.62 245.93 11.64C244.14 11.76 242.35 11.88 240.57 12.01C240.3 12.03 240.15 11.98 239.96 11.93C239.9 11.91 239.84 11.87 239.78 11.87C239.63 11.87 239.48 11.89 239.33 11.9C238.66 11.95 237.99 12 237.32 12.04C237.04 12.05 236.96 12.14 236.84 12.21C236.74 12.27 236.63 12.29 236.47 12.3C236.3 12.31 236.19 12.3 236.06 12.25C235.9 12.18 235.71 12.14 235.46 12.17C235.17 12.2 234.87 12.21 234.56 12.23C234.41 12.24 234.29 12.28 234.24 12.35C234.23 12.36 234.33 12.39 234.38 12.4C234.56 12.46 234.74 12.53 234.94 12.57C235.15 12.61 235.37 12.56 235.59 12.55C235.67 12.55 235.74 12.54 235.81 12.54C235.88 12.54 235.96 12.55 236.01 12.57C236.25 12.65 236.49 12.71 236.82 12.66C237.1 12.69 237.24 12.84 237.6 12.8C237.82 12.78 238.04 12.77 238.27 12.76C238.33 12.75 238.39 12.79 238.46 12.81C238.64 12.85 238.78 12.93 239.05 12.9C239.34 12.86 239.65 12.86 239.94 12.83C240.1 12.82 240.22 12.83 240.35 12.88C240.51 12.94 240.7 12.99 240.95 12.96C241.17 12.93 241.4 12.93 241.62 12.91C241.91 12.89 241.91 12.89 242.42 13.01C242.48 13.02 242.56 13.04 242.62 13.03C243 13.01 243.37 12.98 243.74 12.96C243.89 12.95 244.03 12.97 244.13 13.03C244.17 13.05 244.15 13.09 244.17 13.12C243.42 13.18 242.68 13.22 241.93 13.28C241.65 13.31 241.53 13.23 241.34 13.18C241.28 13.17 241.21 13.14 241.15 13.14C240.63 13.17 240.11 13.21 239.59 13.25C239.43 13.26 239.3 13.26 239.18 13.2C238.87 13.05 238.49 13.13 238.14 13.15C237.87 13.17 237.78 13.23 237.81 13.35C237.85 13.5 238.02 13.55 238.43 13.52C238.58 13.51 238.73 13.5 238.88 13.49C239.02 13.48 239.16 13.51 239.27 13.56C239.39 13.61 239.52 13.64 239.66 13.63C239.96 13.61 240.26 13.6 240.55 13.57C240.79 13.55 240.99 13.57 241.16 13.64C241.34 13.71 241.56 13.7 241.78 13.68C242.28 13.64 242.29 13.64 242.6 13.74C242.67 13.76 242.73 13.79 242.79 13.79C243.31 13.76 243.83 13.74 244.34 13.69C244.61 13.67 244.76 13.73 244.94 13.78C245 13.8 245.07 13.84 245.12 13.83C245.5 13.81 245.87 13.79 246.24 13.75C246.41 13.74 246.52 13.75 246.66 13.79C246.99 13.91 247 13.9 247.47 13.87C247.62 13.86 247.78 13.83 247.91 13.85C248.05 13.87 248.16 13.92 248.28 13.96C248.34 13.97 248.41 13.99 248.48 13.99C248.78 13.97 249.07 13.95 249.37 13.93C249.65 13.91 249.65 13.91 250.18 14.03C250.39 14.08 250.61 14.04 250.82 14.02C251.05 14 251.26 14 251.44 14.08C251.61 14.15 251.83 14.15 252.05 14.13C252.26 14.12 252.48 14.08 252.7 14.13C253.19 14.25 253.19 14.25 253.5 14.22C253.95 14.19 254.39 14.16 254.84 14.13C254.9 14.13 254.98 14.15 255.04 14.17C255.16 14.2 255.27 14.26 255.41 14.27C255.54 14.29 255.7 14.26 255.85 14.25C256.31 14.22 256.34 14.2 256.66 14.33C256.92 14.43 257.24 14.28 257.49 14.4C257.63 14.47 257.82 14.52 258.08 14.49C258.29 14.46 258.52 14.46 258.75 14.44C259.1 14.42 259.1 14.42 259.56 14.53C259.62 14.55 259.69 14.57 259.75 14.56C260.05 14.55 260.35 14.53 260.64 14.5C260.98 14.46 261.2 14.53 261.45 14.6C261.65 14.66 261.88 14.61 262.1 14.59C262.33 14.57 262.53 14.58 262.71 14.65C262.89 14.73 263.1 14.72 263.32 14.71C263.54 14.69 263.75 14.65 263.97 14.7C264.44 14.82 264.44 14.82 264.78 14.8C265.07 14.78 265.37 14.75 265.67 14.74C265.73 14.74 265.8 14.76 265.86 14.78C265.99 14.81 266.09 14.87 266.23 14.88C266.37 14.9 266.52 14.87 266.67 14.86C266.82 14.85 266.98 14.82 267.12 14.83C267.25 14.85 267.38 14.89 267.49 14.94C267.61 14.99 267.73 14.99 267.9 14.97C268.12 14.95 268.34 14.94 268.57 14.93C268.69 14.96 268.81 15 268.93 15.04C269.05 15.08 269.19 15.08 269.35 15.07C269.91 15.02 269.91 15.03 270.38 15.14C270.59 15.2 270.81 15.15 271.02 15.14C271.25 15.13 271.46 15.12 271.64 15.19C271.81 15.27 272.02 15.28 272.25 15.25C272.39 15.24 272.55 15.23 272.7 15.22C272.76 15.22 272.85 15.23 272.9 15.24C273.13 15.32 273.37 15.4 273.7 15.35C273.99 15.36 274.13 15.52 274.48 15.49C274.77 15.46 275.08 15.45 275.37 15.42C275.64 15.39 275.83 15.44 275.96 15.51C276.21 15.63 276.55 15.47 276.79 15.58C276.93 15.65 277.12 15.7 277.39 15.68C277.68 15.65 277.78 15.69 277.87 15.81C277.92 15.87 277.91 15.93 277.82 15.98C277.73 16.04 277.63 16.03 277.48 15.97C277.31 15.9 277.12 15.88 276.88 15.9C276.64 15.91 276.5 15.81 276.3 15.78C276.11 15.74 275.88 15.8 275.67 15.75C275.2 15.63 275.2 15.63 274.87 15.65C274.65 15.67 274.42 15.68 274.2 15.7C273.94 15.74 273.78 15.68 273.6 15.62C273.54 15.6 273.47 15.57 273.42 15.57C272.9 15.6 272.38 15.62 271.86 15.67C271.59 15.7 271.44 15.63 271.26 15.58C271.2 15.56 271.13 15.53 271.08 15.53C270.63 15.56 270.19 15.59 269.74 15.63C269.66 15.68 269.56 15.73 269.48 15.78C269.39 15.84 269.28 15.87 269.1 15.86C268.82 15.86 268.54 15.94 268.25 15.84C267.96 15.74 267.94 15.74 267.65 15.77C267.29 15.8 266.91 15.79 266.57 15.87C266.51 15.88 266.45 15.92 266.45 15.95C266.44 15.96 266.54 15.99 266.6 16C266.79 16.05 267.03 15.98 267.22 16.03C267.35 16.06 267.46 16.11 267.59 16.14C267.65 16.15 267.73 16.15 267.8 16.15C267.88 16.15 267.95 16.13 268.02 16.13C268.09 16.14 268.16 16.15 268.22 16.17C268.47 16.24 268.73 16.31 268.95 16.39C269.17 16.48 269.37 16.42 269.59 16.41C270.46 16.55 270.46 16.55 271.04 16.51C271.18 16.5 271.33 16.49 271.48 16.49C271.54 16.49 271.6 16.52 271.67 16.54C271.85 16.6 272.02 16.65 272.27 16.62C272.49 16.59 272.72 16.59 272.94 16.57C273.24 16.55 273.24 16.55 273.74 16.67C273.87 16.7 274.01 16.7 274.17 16.68C274.31 16.67 274.45 16.7 274.55 16.75C274.59 16.78 274.58 16.81 274.59 16.85C274.15 16.88 273.69 16.9 273.26 16.94C272.98 16.97 272.85 16.89 272.67 16.85C272.6 16.83 272.54 16.8 272.48 16.8C272.04 16.83 271.59 16.86 271.15 16.9C271.1 16.91 271.03 16.95 271.02 16.98C271.01 17.03 271.13 17.07 271.29 17.07C271.51 17.07 271.72 17.04 271.91 17.12C272.08 17.18 272.28 17.22 272.52 17.18C272.66 17.17 272.82 17.17 272.96 17.15C273.35 17.11 273.69 17.12 273.98 17.25C274.21 17.28 274.42 17.25 274.63 17.23C274.79 17.22 274.95 17.2 275.06 17.24C275.3 17.32 275.53 17.39 275.86 17.34C276.22 17.4 276.49 17.51 276.79 17.6C276.93 17.64 277.04 17.67 277.2 17.64C277.27 17.63 277.35 17.63 277.42 17.62C277.57 17.61 277.73 17.58 277.87 17.6C278 17.61 278.11 17.66 278.24 17.7C278.29 17.72 278.36 17.74 278.42 17.74C278.65 17.73 278.87 17.71 279.09 17.7C279.31 17.69 279.53 17.67 279.75 17.66C279.94 17.71 280.13 17.76 280.31 17.81C280.61 17.79 280.91 17.77 281.2 17.75C281.53 17.72 281.53 17.73 282.01 17.84C282.22 17.9 282.45 17.86 282.65 17.84C282.99 17.8 283.22 17.87 283.45 17.95C283.5 17.96 283.59 17.97 283.65 17.96C283.89 17.94 284.09 17.96 284.26 18.03C284.39 18.08 284.51 18.1 284.66 18.09C285.18 18.06 285.7 18.02 286.22 17.99C286.28 17.98 286.35 18 286.41 18.01C286.87 18.13 286.88 18.14 287.21 18.11C287.52 18.08 287.8 18.07 288.04 18.17C288.09 18.2 288.16 18.23 288.22 18.23C288.59 18.21 288.96 18.19 289.33 18.15C289.5 18.14 289.61 18.14 289.74 18.19C289.91 18.24 290.06 18.31 290.34 18.29C291.1 18.22 291.1 18.23 292.01 18.36C292.07 18.37 292.16 18.35 292.23 18.35C292.38 18.33 292.5 18.35 292.63 18.4C292.93 18.5 292.94 18.49 293.23 18.47C293.45 18.45 293.68 18.45 293.9 18.42C294.24 18.38 294.46 18.45 294.71 18.52C294.9 18.58 295.14 18.53 295.35 18.52C295.58 18.5 295.79 18.5 295.96 18.57C296.07 18.62 296.2 18.65 296.35 18.64C296.87 18.61 297.39 18.57 297.91 18.53C297.97 18.53 298.05 18.55 298.11 18.56C298.62 18.68 298.62 18.68 299.13 18.64C299.3 18.63 299.43 18.62 299.55 18.66C299.67 18.7 299.8 18.74 299.92 18.77C300.14 18.76 300.37 18.76 300.58 18.73C300.75 18.72 300.87 18.72 301 18.76C301.17 18.82 301.32 18.91 301.59 18.86C301.73 18.84 301.89 18.85 302.03 18.83C302.2 18.8 302.31 18.82 302.44 18.87C302.6 18.93 302.77 18.99 303.03 18.96C303.32 18.92 303.63 18.92 303.92 18.89C304.09 18.87 304.2 18.89 304.33 18.94C304.49 19 304.68 19.04 304.93 19.02C305.45 18.97 305.45 18.98 305.95 19.1C306.08 19.13 306.21 19.13 306.38 19.11C306.52 19.1 306.66 19.13 306.76 19.18C306.86 19.24 306.85 19.28 306.86 19.31ZM266.59 2.07C266.44 2.08 266.29 2.09 266.08 1.92C266.06 1.9 266.07 1.86 266.04 1.84C265.97 1.78 265.85 1.75 265.72 1.74C265.48 1.74 265.18 1.8 265.19 1.85C265.19 1.89 265.27 1.93 265.42 1.96C265.48 1.98 265.53 2 265.59 2.01C265.76 2.06 265.9 2.14 266.14 2.1C266.12 2.17 266.19 2.22 266.35 2.25C266.4 2.25 266.47 2.25 266.5 2.24C266.64 2.19 266.66 2.14 266.56 1.99C266.54 2.01 266.56 2.05 266.6 2.07C266.64 2.08 266.74 2.07 266.79 2.05C266.91 2.02 266.98 1.97 266.94 1.93C266.93 1.91 266.84 1.88 266.79 1.88C266.69 1.88 266.6 1.92 266.59 2.07ZM303.13 24.24C302.8 24.28 302.42 24.27 302.09 24.34C302.03 24.36 301.97 24.39 301.97 24.42C301.96 24.43 302.05 24.46 302.11 24.47C302.23 24.5 302.36 24.49 302.52 24.48C302.76 24.47 302.9 24.56 303.09 24.6C303.15 24.62 303.22 24.62 303.29 24.62C303.65 24.6 304.01 24.57 304.38 24.55C304.44 24.54 304.51 24.53 304.57 24.51C304.75 24.45 304.73 24.42 304.55 24.38C304.36 24.33 304.2 24.25 304.01 24.22C303.72 24.17 303.43 24.23 303.13 24.24ZM277.47 25.64C277.25 25.66 277.03 25.67 276.81 25.69C276.74 25.69 276.66 25.69 276.59 25.7C276.45 25.71 276.35 25.75 276.28 25.82C276.38 25.87 276.51 25.9 276.65 25.89C276.87 25.88 277.09 25.85 277.31 25.85C277.55 25.84 277.69 25.93 277.87 25.97C277.93 25.98 278.01 25.99 278.07 25.99C278.41 26 278.61 25.9 278.55 25.76C278.5 25.65 278.33 25.58 278.12 25.6C277.91 25.61 277.68 25.62 277.47 25.64ZM304.67 21.42C304.73 21.39 304.79 21.36 304.81 21.33C304.9 21.24 304.86 21.16 304.71 21.09C304.53 20.99 304.31 21.06 304.11 21.07C304.06 21.07 304.01 21.11 303.98 21.13C303.96 21.15 303.96 21.19 303.99 21.2C304.21 21.27 304.44 21.34 304.67 21.42ZM265.48 15.77C265.26 15.79 265.04 15.8 264.82 15.82C264.77 15.82 264.72 15.86 264.69 15.88C264.63 15.93 264.69 15.99 264.87 16C265.09 16.01 265.31 15.97 265.53 15.96C265.81 15.94 265.98 15.87 265.87 15.81C265.77 15.75 265.64 15.74 265.48 15.77ZM27.63 11.68C27.77 11.67 27.92 11.67 28.06 11.65C28.2 11.64 28.3 11.6 28.37 11.53C28.26 11.48 28.13 11.46 27.99 11.46C27.77 11.48 27.55 11.49 27.34 11.51C27.2 11.52 27.07 11.56 27.04 11.63C27.01 11.68 27.31 11.71 27.63 11.68ZM246.37 11.39C246.43 11.41 246.48 11.44 246.54 11.44C246.69 11.44 246.84 11.43 246.97 11.41C247.03 11.4 247.08 11.37 247.1 11.34C247.12 11.32 247.12 11.29 247.09 11.28C246.96 11.19 246.43 11.22 246.35 11.32C246.34 11.34 246.36 11.37 246.37 11.39ZM232.11 0.92C232.12 0.95 232.13 0.98 232.15 1.01C232.18 1.07 232.28 1.11 232.43 1.14C232.54 1.09 232.6 1.04 232.59 0.98C232.59 0.95 232.58 0.92 232.56 0.89C232.52 0.83 232.42 0.79 232.28 0.76C232.17 0.81 232.11 0.86 232.11 0.92ZM315.12 25.97C315.07 26 315.03 26.02 314.99 26.05C315.11 26.1 315.22 26.12 315.31 26.09C315.36 26.07 315.4 26.04 315.44 26.01C315.31 25.96 315.21 25.94 315.12 25.97ZM312.31 26.23C312.36 26.25 312.42 26.27 312.48 26.28C312.59 26.3 312.68 26.27 312.75 26.2C312.69 26.18 312.64 26.16 312.58 26.15C312.47 26.13 312.38 26.16 312.31 26.23ZM314.09 25.88C314.05 25.93 314.12 25.97 314.28 26C314.32 25.97 314.38 25.95 314.41 25.92C314.45 25.88 314.37 25.84 314.21 25.81C314.17 25.83 314.13 25.86 314.09 25.88ZM304.55 23.82C304.51 23.87 304.58 23.91 304.75 23.94C304.79 23.91 304.84 23.89 304.87 23.86C304.91 23.82 304.84 23.78 304.67 23.75C304.63 23.77 304.59 23.8 304.55 23.82ZM291.55 10.29C291.51 10.32 291.47 10.34 291.43 10.36C291.55 10.42 291.66 10.44 291.75 10.41C291.8 10.39 291.83 10.36 291.87 10.33C291.75 10.28 291.64 10.26 291.55 10.29ZM279.1 3.11C279.21 3.13 279.3 3.1 279.38 3.03C279.32 3.01 279.27 2.99 279.2 2.98C279.1 2.96 279 2.99 278.93 3.06C278.99 3.08 279.05 3.1 279.1 3.11ZM272.49 2.66C272.45 2.69 272.41 2.71 272.37 2.74C272.49 2.79 272.6 2.81 272.69 2.78C272.74 2.76 272.77 2.73 272.81 2.71C272.69 2.65 272.58 2.64 272.49 2.66ZM227.66 0.92C227.62 0.94 227.58 0.97 227.54 0.99C227.66 1.04 227.77 1.06 227.86 1.03C227.91 1.01 227.95 0.98 227.99 0.96C227.86 0.9 227.76 0.89 227.66 0.92ZM4.45 16.47C4.4 16.46 4.34 16.44 4.28 16.42C4.15 16.47 4.11 16.52 4.18 16.56C4.23 16.58 4.3 16.59 4.36 16.61C4.49 16.56 4.52 16.51 4.45 16.47Z" fill="#FFE492" fill-opacity="1.000000" fill-rule="nonzero"/>
</svg>
