<svg width="256.491791" height="47.668213" viewBox="0 0 256.492 47.6682" fill="none" xmlns="http://www.w3.org/2000/svg" xmlns:xlink="http://www.w3.org/1999/xlink">
	<desc>
			Created with Pixso.
	</desc>
	<defs/>
	<path id="Vector" d="M241.32 25.19C240.97 25.23 240.61 25.25 240.27 25.31C240.04 25.35 239.95 25.24 239.8 25.18C239.75 25.16 239.69 25.12 239.65 25.13C239.3 25.17 238.95 25.21 238.6 25.26C238.5 25.35 238.43 25.48 238.27 25.53C238.11 25.58 237.92 25.58 237.74 25.6C237.5 25.63 237.27 25.65 237.04 25.68C236.92 25.69 236.82 25.74 236.78 25.83C236.78 25.84 236.85 25.88 236.9 25.9C237.04 25.98 237.18 26.06 237.33 26.12C237.48 26.18 237.67 26.09 237.83 26.16C238.19 26.31 238.19 26.31 238.46 26.28C238.7 26.25 238.93 26.22 239.17 26.2C239.21 26.2 239.27 26.24 239.32 26.25C239.47 26.31 239.56 26.43 239.78 26.39C239.95 26.35 240.13 26.34 240.31 26.32C240.45 26.39 240.59 26.48 240.75 26.53C240.89 26.59 240.93 26.63 240.86 26.7C240.78 26.77 240.69 26.8 240.55 26.8C240.44 26.81 240.32 26.83 240.2 26.84C240.14 26.85 240.08 26.85 240.03 26.86C239.8 26.89 239.8 26.89 239.4 26.73C239.24 26.67 239.05 26.75 238.9 26.69C238.8 26.65 238.71 26.59 238.61 26.55C238.57 26.53 238.5 26.53 238.45 26.54C238.27 26.55 238.09 26.57 237.92 26.6C237.8 26.62 237.73 26.69 237.74 26.76C237.75 26.79 237.83 26.83 237.88 26.83C238 26.84 238.12 26.8 238.23 26.82C238.33 26.84 238.44 26.89 238.52 26.94C238.68 27.06 238.86 26.95 239.01 26.98C239.17 27.02 239.31 27.11 239.46 27.17C239.5 27.19 239.57 27.16 239.63 27.16C239.81 27.14 239.98 27.12 240.16 27.11C240.3 27.18 240.46 27.24 240.59 27.33C240.83 27.48 241.08 27.53 241.39 27.46C241.57 27.42 241.74 27.44 241.88 27.53C242.02 27.63 242.18 27.62 242.36 27.6C242.53 27.58 242.7 27.53 242.87 27.6C243.24 27.75 243.24 27.76 243.68 27.7C243.81 27.68 243.91 27.68 244.01 27.74C244.1 27.79 244.2 27.83 244.3 27.88C244.47 27.87 244.65 27.85 244.82 27.83C245.05 27.8 245.17 27.84 245.23 27.98C245.26 28.06 245.27 28.14 245.35 28.19C245.44 28.26 245.54 28.26 245.68 28.24C245.81 28.22 245.9 28.2 245.95 28.11C245.97 28.07 246.02 28.04 246.05 28.01C246.09 27.98 246.14 27.95 246.16 27.95C246.22 27.96 246.29 27.99 246.31 28.02C246.48 28.32 246.48 28.33 246.66 28.41C246.85 28.51 247.06 28.6 247.23 28.71C247.39 28.81 247.55 28.76 247.73 28.76C247.86 28.76 247.94 28.83 247.93 28.89C247.93 28.93 247.88 28.98 247.83 28.99C247.49 29.04 247.13 29.08 246.78 29.12C246.74 29.12 246.69 29.08 246.64 29.05C246.54 29.01 246.45 28.94 246.34 28.92C246.24 28.91 246.11 28.95 245.99 28.96C245.88 28.97 245.75 29 245.65 28.98C245.54 28.97 245.45 28.89 245.35 28.85C245.31 28.82 245.24 28.79 245.21 28.8C244.95 28.86 244.75 28.78 244.57 28.67C244.53 28.64 244.46 28.63 244.41 28.63C244 28.68 243.59 28.73 243.18 28.77C243.01 28.79 242.88 28.71 242.84 28.56C242.82 28.48 242.79 28.39 242.79 28.31C242.79 28.16 242.59 28.08 242.45 28.1C242.22 28.12 241.98 28.14 241.75 28.18C241.56 28.21 241.4 28.18 241.27 28.09C241.12 27.99 240.95 28.01 240.78 28.04C240.65 28.05 240.62 28.14 240.62 28.34C240.63 28.51 240.57 28.56 240.34 28.59C240.05 28.63 239.75 28.66 239.46 28.69C239.41 28.69 239.36 28.65 239.31 28.63C239.21 28.58 239.13 28.51 239.02 28.5C238.91 28.48 238.79 28.52 238.67 28.53C238.55 28.54 238.43 28.58 238.32 28.56C238.22 28.54 238.13 28.47 238.03 28.42C237.98 28.4 237.93 28.37 237.88 28.37C237.65 28.39 237.41 28.42 237.18 28.45C236.91 28.48 236.91 28.48 236.54 28.32C236.37 28.25 236.2 28.31 236.03 28.33C235.86 28.35 235.69 28.36 235.55 28.26C235.46 28.19 235.35 28.15 235.24 28.17C234.95 28.2 234.66 28.23 234.36 28.26C234.31 28.27 234.25 28.26 234.21 28.23C234.02 28.13 233.83 28.05 233.57 28.1C233.34 28.14 233.1 28.15 232.87 28.19C232.75 28.21 232.69 28.29 232.71 28.35C232.73 28.39 232.8 28.42 232.85 28.42C232.97 28.43 233.09 28.39 233.2 28.4C233.42 28.43 233.53 28.64 233.82 28.59C233.99 28.55 234.16 28.54 234.34 28.53C234.39 28.53 234.44 28.57 234.49 28.6C234.63 28.67 234.75 28.75 234.96 28.71C235.13 28.67 235.31 28.66 235.49 28.64C235.76 28.61 235.76 28.61 236.12 28.77C236.29 28.84 236.46 28.78 236.63 28.76C236.75 28.75 236.87 28.73 236.97 28.76C237.12 28.81 237.23 28.93 237.42 28.92C237.6 28.92 237.77 28.88 237.95 28.87C238.06 28.86 238.17 28.9 238.25 28.97C238.35 29.04 238.45 29.07 238.57 29.05C238.74 29.03 238.92 29.01 239.1 28.99C239.15 28.99 239.2 29.01 239.25 29.03C239.35 29.08 239.44 29.13 239.54 29.18C239.71 29.16 239.89 29.16 240.06 29.13C240.19 29.11 240.29 29.12 240.39 29.17C240.53 29.23 240.64 29.35 240.86 29.3C240.97 29.27 241.1 29.28 241.21 29.25C241.34 29.22 241.43 29.23 241.53 29.31C241.71 29.45 241.94 29.45 242.17 29.4C242.43 29.34 242.62 29.41 242.81 29.52C243.02 29.63 243.02 29.63 243.17 29.9C243.22 29.98 243.35 30.02 243.46 30.01C243.65 29.98 243.81 29.99 243.94 30.09C244.08 30.19 244.25 30.18 244.43 30.15C244.66 30.11 244.89 30.08 245.08 30.23C245.17 30.3 245.27 30.31 245.39 30.3C245.75 30.25 246.1 30.22 246.45 30.17C246.65 30.13 246.78 30.21 246.92 30.28C247.11 30.37 247.32 30.46 247.32 30.65C247.32 30.69 247.37 30.72 247.41 30.75C247.5 30.8 247.6 30.84 247.7 30.89C247.84 30.97 247.98 31.03 248.18 30.99C248.35 30.96 248.53 30.95 248.7 30.93C248.88 30.9 249.04 30.89 249.19 30.99C249.37 31.09 249.57 31.2 249.77 31.28C249.92 31.33 250.11 31.24 250.27 31.31C250.36 31.36 250.45 31.42 250.56 31.46C250.6 31.47 250.67 31.46 250.72 31.46C250.84 31.45 250.96 31.44 251.08 31.41C251.21 31.39 251.31 31.39 251.41 31.45C251.5 31.5 251.59 31.57 251.7 31.59C251.86 31.61 252.03 31.51 252.19 31.62C252.28 31.68 252.38 31.74 252.49 31.75C252.59 31.77 252.72 31.73 252.83 31.74C252.88 31.74 252.94 31.78 252.97 31.81C252.99 31.83 252.96 31.87 252.94 31.9C252.91 31.93 252.86 31.97 252.81 31.97C252.46 32.02 252.11 32.06 251.76 32.1C251.55 32.12 251.55 32.12 251.13 31.97C251.03 31.93 250.92 31.94 250.79 31.95C250.62 31.98 250.45 32.02 250.28 31.97C250.05 31.8 249.77 31.79 249.47 31.85C249.35 31.88 249.23 31.88 249.14 31.83C248.95 31.74 248.74 31.65 248.57 31.54C248.43 31.45 248.37 31.45 248.31 31.57C248.29 31.6 248.28 31.64 248.28 31.68C248.3 31.8 248.34 31.92 248.36 32.05C248.37 32.08 248.34 32.12 248.32 32.16C248.26 32.27 248.19 32.26 248.07 32.17C247.94 32.08 247.79 32.03 247.59 32.07C247.42 32.1 247.24 32.1 247.07 32.13C246.8 32.19 246.62 32.11 246.43 32C246.39 31.98 246.32 31.97 246.27 31.97C245.75 32.03 245.22 32.09 244.69 32.15C244.58 32.16 244.47 32.13 244.38 32.06C244.29 31.99 244.19 31.96 244.08 31.97C243.61 32.02 243.14 32.07 242.67 32.13C242.48 32.16 242.32 32.13 242.19 32.04C242.09 31.98 242 31.96 241.88 31.96C241.74 31.97 241.64 32 241.58 32.07C241.51 32.14 241.56 32.18 241.7 32.24C241.85 32.3 242 32.37 242.14 32.44C242.26 32.43 242.38 32.41 242.49 32.42C242.54 32.42 242.59 32.46 242.64 32.49C242.78 32.56 242.91 32.63 243.11 32.59C243.28 32.55 243.46 32.55 243.64 32.53C243.88 32.5 243.88 32.5 244.27 32.65C244.37 32.69 244.48 32.69 244.6 32.67C244.71 32.65 244.83 32.69 244.91 32.76C244.94 32.79 244.93 32.84 244.86 33.01C244.86 33.13 244.93 33.07 244.96 32.99C245 32.88 244.92 32.84 244.78 32.9C244.68 32.95 244.63 33.01 244.66 33.07C244.67 33.09 244.74 33.13 244.86 33.01C245.17 32.86 245.41 32.84 245.64 32.8C245.77 32.78 245.86 32.79 245.97 32.85C246.09 32.93 246.22 33.01 246.43 32.97C246.66 32.93 246.9 32.92 247.13 32.88C247.34 32.85 247.45 32.96 247.59 33.02C247.75 33.1 247.93 33.01 248.08 33.06C248.24 33.1 248.35 33.21 248.53 33.23C248.79 33.17 248.96 33.29 249.16 33.37C249.32 33.43 249.5 33.38 249.67 33.35C249.86 33.32 250.01 33.35 250.14 33.44C250.29 33.54 250.46 33.52 250.63 33.5C251.03 33.45 251.04 33.44 251.27 33.58C251.44 33.68 251.6 33.63 251.77 33.62C251.91 33.69 252.06 33.76 252.21 33.82C252.25 33.83 252.32 33.81 252.38 33.8C252.56 33.78 252.73 33.76 252.91 33.74C253.03 33.73 253.15 33.69 253.26 33.71C253.36 33.72 253.45 33.8 253.55 33.84C253.64 33.89 253.74 33.94 253.84 33.99C253.98 34.06 254.11 34.13 254.31 34.09C254.48 34.06 254.66 34.05 254.84 34.02C255.06 34 255.06 34 255.47 34.15C255.69 34.24 255.93 34.14 256.15 34.13C256.27 34.12 256.38 34.15 256.46 34.22C256.49 34.25 256.48 34.3 256.49 34.34C255.9 34.41 255.31 34.47 254.73 34.55C254.51 34.58 254.39 34.49 254.27 34.42C254.07 34.3 253.81 34.47 253.62 34.32C253.51 34.23 253.34 34.17 253.15 34.22C253.03 34.24 252.91 34.24 252.8 34.26C252.5 34.32 252.22 34.32 251.99 34.15C251.9 34.09 251.79 34.06 251.7 34C251.6 33.94 251.51 33.9 251.39 33.91C250.86 33.97 250.33 34.03 249.81 34.1C249.76 34.1 249.71 34.14 249.68 34.17C249.58 34.24 249.61 34.29 249.77 34.34C249.82 34.35 249.86 34.38 249.91 34.41C250.01 34.46 250.1 34.53 250.2 34.55C250.31 34.57 250.44 34.53 250.55 34.52C250.67 34.51 250.79 34.47 250.9 34.48C251.01 34.5 251.1 34.57 251.2 34.62C251.24 34.64 251.3 34.68 251.35 34.68C251.58 34.66 251.81 34.63 252.05 34.61C252.19 34.68 252.32 34.78 252.49 34.8C252.6 34.81 252.72 34.79 252.83 34.79C252.88 34.79 252.94 34.83 252.97 34.86C252.98 34.88 252.94 34.93 252.9 34.96C252.77 35.05 252.58 35.04 252.42 35.07C252.23 35.1 252.07 35.09 251.93 34.99C251.84 34.93 251.74 34.89 251.62 34.9C251.33 34.94 251.04 34.97 250.74 35C250.69 35.01 250.63 34.98 250.58 34.97C250.21 34.81 250.21 34.81 249.95 34.84C249.56 34.89 249.56 34.89 249.3 34.76C249.25 34.73 249.2 34.68 249.16 34.69C248.74 34.73 248.34 34.77 247.93 34.82C247.79 34.84 247.7 34.84 247.6 34.78C247.51 34.72 247.42 34.66 247.31 34.64C247.2 34.63 247.08 34.67 246.96 34.68C246.84 34.69 246.72 34.72 246.62 34.7C246.51 34.68 246.42 34.61 246.32 34.56C246.23 34.51 246.13 34.51 245.99 34.53C245.59 34.59 245.59 34.58 245.18 34.43C245.14 34.41 245.08 34.39 245.03 34.4C244.73 34.43 244.44 34.46 244.15 34.49C244.03 34.51 243.92 34.47 243.84 34.4C243.81 34.37 243.82 34.32 243.8 34.23C243.78 34.2 243.8 34.24 243.81 34.28C243.87 34.28 243.93 34.28 243.97 34.26C244.07 34.21 244.12 34.15 244.09 34.1C244.08 34.07 244.01 34.04 243.97 34.04C243.89 34.04 243.82 34.09 243.8 34.23C243.58 34.31 243.34 34.33 243.11 34.36C242.97 34.39 242.89 34.38 242.78 34.31C242.65 34.23 242.52 34.16 242.31 34.2C242.09 34.24 241.84 34.25 241.61 34.28C241.34 34.32 241.22 34.1 240.99 34.1C240.76 34.11 240.53 34.15 240.29 34.18C240.08 34.21 240.08 34.21 239.66 34.04C239.5 33.98 239.32 34.07 239.16 34.01C239.06 33.97 238.97 33.91 238.87 33.87C238.83 33.85 238.76 33.85 238.71 33.85C238.41 33.88 238.12 33.9 237.83 33.96C237.51 34.02 237.26 33.95 237.03 33.81C236.74 33.83 236.45 33.85 236.16 33.9C235.95 33.93 235.83 33.85 235.69 33.78C235.64 33.76 235.59 33.72 235.54 33.71C235.49 33.7 235.42 33.72 235.37 33.73C235.13 33.76 234.89 33.77 234.66 33.81C234.38 33.87 234.27 33.67 234.06 33.64C233.91 33.76 233.83 33.93 233.55 33.94C233.31 33.95 233.08 33.99 232.84 34.02C232.73 34.03 232.61 34.05 232.49 34.06C232.3 34.08 232.21 34.18 232.25 34.33C232.27 34.41 232.29 34.49 232.31 34.58C232.35 34.72 232.26 34.85 232.11 34.87C231.69 34.91 231.29 34.96 230.87 35.01C230.76 35.02 230.66 34.98 230.57 34.91C230.48 34.84 230.37 34.81 230.26 34.82C229.85 34.87 229.44 34.92 229.03 34.96C228.98 34.97 228.92 34.94 228.87 34.92C228.77 34.88 228.68 34.83 228.58 34.78C228.35 34.8 228.12 34.82 227.89 34.85C227.51 34.89 227.51 34.89 227.24 34.76C227.19 34.73 227.14 34.68 227.09 34.69C226.92 34.7 226.74 34.72 226.56 34.74C226.04 34.81 226.04 34.81 225.89 34.73C225.75 34.66 225.63 34.58 225.42 34.62C225.19 34.66 224.95 34.68 224.71 34.7C224.54 34.72 224.36 34.74 224.19 34.75C224.14 34.75 224.09 34.7 224.04 34.68C223.9 34.6 223.76 34.54 223.57 34.58C223.45 34.6 223.33 34.61 223.22 34.62C222.91 34.66 222.91 34.66 222.41 34.51C222.36 34.49 222.3 34.47 222.25 34.48C221.84 34.53 221.43 34.58 221.02 34.62C220.97 34.62 220.91 34.61 220.86 34.6C220.3 34.45 220.3 34.45 219.7 34.52C219.47 34.55 219.46 34.56 219.23 34.42C219.12 34.37 219.03 34.34 218.91 34.36C218.44 34.42 217.96 34.46 217.5 34.53C217.29 34.56 217.17 34.48 217.03 34.41C216.98 34.39 216.92 34.34 216.88 34.34C216.41 34.39 215.94 34.45 215.47 34.5C215.43 34.5 215.38 34.45 215.33 34.43C215.23 34.38 215.14 34.32 215.03 34.3C214.92 34.29 214.8 34.33 214.68 34.34C214.39 34.37 214.39 34.37 214.04 34.22C214 34.2 213.94 34.17 213.89 34.18C213.42 34.23 212.95 34.27 212.48 34.34C212.22 34.38 212.04 34.31 211.85 34.21C211.81 34.18 211.74 34.17 211.69 34.18C211.16 34.24 210.64 34.3 210.11 34.36C210 34.37 209.89 34.33 209.8 34.26C209.66 34.16 209.49 34.17 209.32 34.2C208.91 34.25 208.9 34.25 208.66 34.13C208.61 34.1 208.57 34.07 208.52 34.06C208.47 34.04 208.4 34.05 208.35 34.06C208.11 34.08 207.88 34.11 207.65 34.14C207.41 34.16 207.17 34.18 206.94 34.22C206.66 34.27 206.52 34.11 206.32 34.04C206.03 34.07 205.73 34.09 205.45 34.14C205.23 34.18 205.12 34.07 204.98 34.01C204.93 33.99 204.87 33.95 204.83 33.96C204.3 34.01 203.77 34.07 203.24 34.14C203.11 34.15 203.03 34.13 202.92 34.07C202.68 33.94 202.67 33.94 202.28 33.99C202.1 34.02 201.93 34.04 201.79 33.93C201.65 33.84 201.49 33.82 201.31 33.85C201.07 33.89 200.84 33.91 200.6 33.93C200.37 33.96 200.13 34 199.9 34.01C199.71 34.02 199.6 33.9 199.45 33.84C199.4 33.83 199.34 33.82 199.28 33.83C199.05 33.85 198.81 33.87 198.58 33.91C198.3 33.96 198.15 33.83 197.95 33.75C197.91 33.73 197.84 33.74 197.79 33.75C197.38 33.79 196.97 33.84 196.55 33.89C196.41 33.82 196.26 33.76 196.11 33.69C195.88 33.71 195.65 33.74 195.41 33.77C195.23 33.79 195.05 33.79 194.88 33.83C194.67 33.88 194.56 33.76 194.42 33.71C194.37 33.69 194.31 33.64 194.27 33.65C193.97 33.68 193.68 33.71 193.39 33.75C193.11 33.79 193 33.57 192.77 33.57C192.54 33.57 192.29 33.6 192.07 33.65C191.8 33.7 191.62 33.62 191.43 33.51C191.39 33.49 191.32 33.48 191.27 33.48C190.98 33.51 190.69 33.55 190.39 33.58C190.34 33.59 190.28 33.57 190.23 33.56C189.67 33.41 189.67 33.41 189.43 33.44C189.25 33.46 189.07 33.48 188.9 33.5C188.85 33.5 188.79 33.48 188.74 33.46C188.37 33.31 188.37 33.31 188.1 33.34C187.87 33.36 187.64 33.39 187.4 33.42C187.26 33.35 187.11 33.29 186.96 33.22C186.67 33.25 186.37 33.28 186.08 33.32C185.95 33.34 185.86 33.33 185.76 33.27C185.63 33.2 185.5 33.11 185.29 33.15C185.06 33.2 184.82 33.2 184.59 33.24C184.31 33.28 184.2 33.06 183.97 33.06C183.74 33.06 183.5 33.09 183.27 33.14C183.01 33.19 182.82 33.11 182.63 33C182.59 32.98 182.53 32.97 182.48 32.97C181.83 33.05 181.19 33.12 180.54 33.2C180.14 33.24 180.14 33.25 179.38 33.11C179.33 33.1 179.27 33.09 179.22 33.09C178.99 33.12 178.74 33.13 178.52 33.18C178.24 33.23 178.09 33.09 177.89 33.01C177.85 32.99 177.78 33 177.72 33.01C177.55 33.03 177.37 33.05 177.2 33.07C176.96 33.1 176.73 33.12 176.49 33.15C176.35 33.09 176.2 33.02 176.05 32.95C175.76 32.99 175.46 33 175.17 33.06C174.95 33.1 174.85 32.99 174.7 32.93C174.65 32.91 174.6 32.87 174.56 32.87C174.03 32.93 173.5 32.98 172.97 33.05C172.75 33.08 172.65 32.97 172.51 32.91C172.46 32.9 172.4 32.86 172.36 32.87C172 32.9 171.65 32.95 171.3 32.99C171.1 33.01 171.1 33.01 170.67 32.86C170.62 32.84 170.56 32.82 170.51 32.83C169.4 32.95 168.28 33.09 167.17 33.21C167.05 33.22 166.95 33.19 166.86 33.12C166.77 33.05 166.67 33.02 166.55 33.03C166.08 33.08 165.61 33.13 165.15 33.19C164.95 33.22 164.8 33.19 164.67 33.1C164.57 33.04 164.48 33.01 164.35 33.03C164.12 33.06 163.88 33.08 163.65 33.11C163.42 33.14 163.18 33.16 162.95 33.19C162.71 33.22 162.47 33.23 162.24 33.28C161.96 33.33 161.82 33.17 161.62 33.1C161.27 33.13 160.92 33.17 160.57 33.21C160.1 33.26 159.63 33.32 159.17 33.37C159.12 33.38 159.07 33.33 159.02 33.31C158.87 33.25 158.77 33.16 158.55 33.19C157.5 33.32 156.44 33.43 155.38 33.56C155.16 33.59 155.07 33.48 154.92 33.42C154.87 33.41 154.81 33.37 154.77 33.38C154.18 33.44 153.59 33.51 153.01 33.57C152.77 33.6 152.77 33.6 152.37 33.45C152.32 33.43 152.26 33.41 152.21 33.41C151.45 33.5 150.69 33.59 149.93 33.67C149.81 33.69 149.71 33.65 149.62 33.58C149.53 33.52 149.42 33.48 149.31 33.49C148.61 33.57 147.9 33.65 147.2 33.74C147.01 33.76 146.86 33.74 146.72 33.65C146.63 33.58 146.53 33.56 146.41 33.57C145.35 33.69 144.3 33.81 143.24 33.94C143.04 33.97 142.9 33.92 142.77 33.84C142.67 33.77 142.58 33.76 142.45 33.77C142.31 33.78 142.23 33.81 142.16 33.88C142.06 33.98 142 34.1 141.77 34.11C141.54 34.12 141.3 34.15 141.07 34.19C140.85 34.23 140.75 34.12 140.61 34.05C140.51 34.01 140.41 34 140.28 34.02C140.16 34.04 140.08 34.08 140.01 34.16C139.86 34.33 139.84 34.33 139.65 34.23C139.55 34.17 139.45 34.12 139.34 34.13C138.87 34.18 138.4 34.24 137.93 34.3C137.66 34.33 137.66 34.33 137.46 34.21C137.36 34.15 137.26 34.12 137.14 34.13C135.85 34.28 134.56 34.42 133.27 34.58C133.08 34.61 132.94 34.55 132.8 34.48C132.75 34.45 132.71 34.42 132.65 34.41C132.6 34.4 132.54 34.41 132.48 34.41C131.54 34.52 130.6 34.62 129.67 34.74C129.45 34.77 129.34 34.69 129.2 34.63C129.14 34.6 129.1 34.57 129.05 34.56C129 34.55 128.93 34.57 128.88 34.58C127.94 34.68 127 34.79 126.06 34.91C125.84 34.93 125.74 34.83 125.6 34.77C125.55 34.75 125.49 34.72 125.45 34.72C125.15 34.75 124.86 34.79 124.57 34.82C123.86 34.9 123.16 34.98 122.45 35.06C122.18 35.1 122.07 34.87 121.84 34.88C121.54 34.9 121.25 34.95 120.96 34.98C120.72 35.01 120.49 35.03 120.25 35.06C120.02 35.09 120.02 35.09 119.45 34.95C119.4 34.93 119.34 34.92 119.29 34.92C118.47 35.01 117.64 35.11 116.83 35.21C116.64 35.23 116.48 35.22 116.35 35.12C116.25 35.06 116.15 35.03 116.03 35.04C114.8 35.18 113.57 35.32 112.34 35.46C112.29 35.47 112.23 35.44 112.19 35.42C112.09 35.38 111.99 35.33 111.89 35.28C111.82 35.34 111.73 35.39 111.68 35.45C111.62 35.54 111.53 35.57 111.4 35.58C111.26 35.6 111.18 35.59 111.07 35.53C110.94 35.45 110.81 35.38 110.6 35.41C109.31 35.57 108.02 35.71 106.73 35.86C106.52 35.89 106.42 35.78 106.27 35.72C106.22 35.7 106.17 35.68 106.12 35.68C105.59 35.74 105.06 35.8 104.53 35.86C103.07 36.03 101.6 36.19 100.14 36.37C99.87 36.4 99.69 36.34 99.5 36.23C99.46 36.21 99.39 36.2 99.34 36.2C97.29 36.44 95.23 36.68 93.18 36.91C93.07 36.93 92.97 36.89 92.88 36.82C92.79 36.75 92.68 36.72 92.57 36.73C91.63 36.84 90.69 36.95 89.76 37.06C89.52 37.08 89.52 37.09 89.28 36.97C89.23 36.94 89.17 36.9 89.13 36.9C89.05 36.91 88.97 36.98 88.92 37.06C88.86 37.15 88.77 37.17 88.64 37.19C88.5 37.21 88.42 37.2 88.31 37.14C88.18 37.07 88.06 37 87.85 37.02C85.15 37.34 82.45 37.65 79.76 37.96C79.54 37.99 79.44 37.88 79.29 37.83C79.24 37.81 79.19 37.78 79.14 37.78C79.08 37.77 79.02 37.79 78.96 37.8C74.56 38.3 70.17 38.81 65.77 39.32C65.5 39.35 65.51 39.35 65.22 39.58C65.18 39.6 65.14 39.64 65.09 39.65C63.74 39.8 62.39 39.96 61.04 40.11C60.45 40.18 59.87 40.25 59.28 40.32C59.07 40.34 59.07 40.34 58.57 40.61C58.53 40.63 58.48 40.66 58.43 40.66C56.08 40.94 53.74 41.21 51.39 41.48C51.2 41.5 51.05 41.54 50.97 41.66C50.91 41.74 50.83 41.79 50.71 41.81C49.07 42 47.43 42.19 45.78 42.38C45.59 42.4 45.47 42.47 45.38 42.57C45.34 42.61 45.32 42.65 45.27 42.67C45.23 42.69 45.16 42.7 45.11 42.71C43.7 42.87 42.3 43.04 40.88 43.19C40.67 43.22 40.59 43.31 40.49 43.4C40.45 43.44 40.43 43.48 40.38 43.5C40.33 43.52 40.27 43.52 40.21 43.53C39.04 43.66 37.86 43.8 36.69 43.94C36.46 43.92 36.41 44.07 36.3 44.16C36.27 44.19 36.24 44.23 36.19 44.25C36.14 44.27 36.08 44.26 36.02 44.27C35.08 44.37 34.14 44.49 33.2 44.59C32.98 44.61 32.94 44.74 32.82 44.83C32.78 44.85 32.74 44.9 32.7 44.9C32.11 44.98 31.52 45.04 30.94 45.11C30.74 45.13 30.74 45.13 30.4 45.37C30.36 45.4 30.31 45.43 30.26 45.44C29.39 45.54 28.5 45.64 27.62 45.75C27.51 45.76 27.43 45.82 27.37 45.9C27.32 45.99 27.24 46.04 27.12 46.06C26.42 46.14 25.71 46.22 25.01 46.3C24.82 46.32 24.69 46.38 24.6 46.49C24.54 46.58 24.46 46.62 24.34 46.63C23.63 46.71 22.93 46.8 22.22 46.87C22.02 46.89 21.91 46.98 21.82 47.08C21.76 47.16 21.68 47.19 21.55 47.21C20.26 47.35 18.96 47.5 17.68 47.66C17.46 47.69 17.35 47.6 17.21 47.54C17.01 47.45 16.82 47.35 16.82 47.16C16.82 47.13 16.76 47.09 16.71 47.07C16.4 46.88 16.4 46.88 16.35 46.68C16.32 46.56 16.29 46.44 16.26 46.31C16.22 46.11 16.1 46.06 15.78 46.09C15.66 46.1 15.54 46.12 15.42 46.13C15.25 46.15 15.12 46.07 15.09 45.92C15.07 45.84 15.05 45.75 15.03 45.67C15.21 45.65 15.2 45.65 15.52 45.35C15.65 45.22 15.65 45.22 15.4 45.09C15.3 45.05 15.21 44.99 15.1 44.95C15.06 44.93 15 44.92 14.95 44.92C14.65 44.95 14.36 44.99 14.07 45.02C13.6 45.08 13.6 45.08 13.13 44.82C13.09 44.8 13.03 44.76 13.03 44.74C13.07 44.65 13.17 44.61 13.29 44.6C13.47 44.59 13.64 44.56 13.81 44.54C13.93 44.53 14.05 44.51 14.17 44.5C14.28 44.41 14.39 44.31 14.49 44.22C14.66 44.07 14.66 44.06 14.43 43.96C14.29 43.89 14.14 43.83 13.99 43.76C13.82 43.78 13.64 43.8 13.47 43.82C13.25 43.84 13.16 43.8 13.1 43.63C13.05 43.49 13.11 43.37 13.28 43.34C13.46 43.31 13.62 43.29 13.71 43.16C13.79 43.04 13.94 42.99 14.13 42.98C14.24 42.98 14.36 42.96 14.48 42.94C14.63 42.92 14.71 42.8 14.68 42.65C14.66 42.56 14.63 42.49 14.49 42.47C13.87 42.38 13.87 42.38 13.56 42.21C13.53 42.2 13.51 42.15 13.52 42.13C13.54 42.09 13.58 42.04 13.62 42.03C14.03 41.97 14.44 41.92 14.85 41.89C14.98 41.87 15.08 41.86 15.13 41.76C15.19 41.64 15.16 41.52 15.04 41.43C15 41.41 14.94 41.37 14.89 41.37C14.43 41.42 13.96 41.48 13.49 41.52C13.45 41.53 13.37 41.48 13.35 41.45C13.32 41.39 13.37 41.31 13.49 41.28C13.66 41.25 13.83 41.24 13.94 41.12C14.09 40.94 14.28 40.78 14.45 40.61C14.48 40.58 14.52 40.52 14.51 40.52C14.42 40.46 14.32 40.42 14.23 40.37C14.07 40.28 14.07 40.16 14.11 40.04C14.13 39.95 14.24 39.91 14.37 39.91C14.43 39.91 14.5 39.91 14.55 39.89C14.67 39.83 14.71 39.76 14.65 39.71C14.61 39.68 14.55 39.64 14.5 39.64C13.74 39.73 12.98 39.8 12.22 39.91C12 39.94 11.9 39.84 11.76 39.77C11.66 39.72 11.56 39.7 11.43 39.74C11.31 39.77 11.2 39.75 11.12 39.67C11.06 39.61 11.17 39.55 11.45 39.48C11.51 39.47 11.57 39.46 11.61 39.44C12.02 39.17 12.02 39.17 12.3 39.13C12.58 39.1 12.58 39.1 12.73 38.95C12.79 38.88 12.87 38.82 12.93 38.75C12.96 38.72 13 38.67 12.99 38.66C12.91 38.58 12.8 38.56 12.68 38.58C12.4 38.62 12.07 38.59 11.93 38.82C11.87 38.91 11.78 38.94 11.65 38.95C10.37 39.1 9.08 39.25 7.79 39.39C7.58 39.41 7.49 39.51 7.4 39.61C7.33 39.69 7.25 39.72 7.12 39.73C6.98 39.75 6.88 39.75 6.8 39.67C6.75 39.62 6.79 39.55 6.9 39.48C7.05 39.38 7.02 39.26 6.97 39.14C6.94 39.06 6.83 39.01 6.71 39.01C6.54 39.02 6.37 39.05 6.22 38.95C6.14 38.89 6.03 38.85 5.94 38.81C5.75 38.7 5.57 38.6 5.31 38.67C5.13 38.64 5.01 38.55 4.86 38.48C4.63 38.37 4.6 38.35 4.77 38.23C4.97 38.09 4.82 37.91 4.92 37.78C5.04 37.63 5.19 37.5 5.33 37.37C5.37 37.33 5.4 37.3 5.44 37.27C5.35 37.22 5.28 37.15 5.18 37.12C5.06 37.07 4.99 37.02 5 36.87C4.98 36.84 4.99 36.9 5.02 36.92C5.05 36.93 5.13 36.92 5.17 36.9C5.26 36.85 5.31 36.79 5.29 36.74C5.28 36.71 5.21 36.68 5.17 36.68C5.09 36.68 5.02 36.73 5 36.87C4.6 36.97 4.19 37.02 3.78 37.06C3.73 37.06 3.68 37.01 3.63 36.99C3.47 36.9 3.47 36.91 2.99 36.88C2.94 36.88 2.87 36.84 2.84 36.81C2.74 36.66 2.75 36.49 2.7 36.33C2.79 36.22 2.88 36.12 2.98 36.02C3.17 35.81 3.42 35.63 3.57 35.4C3.53 35.28 3.49 35.16 3.65 35.06C4.09 34.93 4.09 34.93 4.21 34.81C4.55 34.47 4.9 34.13 5.25 33.8C5.35 33.71 5.35 33.66 5.18 33.63C5.13 33.62 5.07 33.61 5.01 33.62C4.83 33.64 4.66 33.68 4.48 33.67C4.31 33.66 4.18 33.55 4.04 33.49C3.89 33.42 3.75 33.35 3.6 33.27C3.43 33.28 3.27 33.35 3.1 33.24C2.97 33.15 2.81 33.09 2.67 33.02C2.78 32.83 2.98 32.68 3.14 32.52C3.29 32.36 3.29 32.37 3.68 32.25C3.87 32.19 3.93 31.91 3.78 31.83C3.59 31.73 3.39 31.64 3.2 31.54C3.03 31.55 2.86 31.62 2.7 31.51C2.57 31.42 2.43 31.36 2.23 31.4C1.88 31.45 1.52 31.48 1.17 31.52C1.05 31.54 0.92 31.53 0.87 31.44C0.83 31.38 0.93 31.3 1.05 31.28C1.23 31.26 1.39 31.23 1.48 31.1C1.56 30.98 1.72 30.94 1.9 30.92C1.95 30.92 2.01 30.89 2.03 30.86C2.16 30.72 2.3 30.59 2.58 30.6C2.69 30.55 2.75 30.48 2.72 30.42C2.7 30.39 2.62 30.35 2.58 30.35C2.28 30.38 1.99 30.4 1.7 30.45C1.57 30.47 1.46 30.47 1.38 30.4C1.32 30.35 1.35 30.28 1.46 30.21C1.56 30.15 1.59 30.07 1.58 29.99C1.57 29.79 1.46 29.74 1.12 29.75C0.87 29.76 0.81 29.73 0.76 29.56C0.74 29.52 0.71 29.46 0.73 29.43C0.89 29.26 0.99 29.05 1.27 28.97C1.39 28.95 1.51 28.95 1.58 28.88C1.65 28.82 1.71 28.74 1.79 28.68C1.88 28.6 1.95 28.53 1.9 28.49C1.83 28.4 1.72 28.39 1.59 28.42C1.47 28.45 1.35 28.45 1.24 28.47C1.03 28.49 0.85 28.43 0.83 28.32C0.76 28.03 0.69 27.74 0.63 27.45C0.62 27.42 0.64 27.37 0.67 27.34C0.77 27.24 0.88 27.14 0.98 27.04C1.1 26.92 1.29 26.94 1.46 26.92C1.69 26.89 1.69 26.89 2 26.65C2.12 26.56 2.33 26.59 2.45 26.51C2.49 26.48 2.55 26.44 2.54 26.41C2.53 26.38 2.45 26.35 2.4 26.34C2.35 26.32 2.29 26.32 2.24 26.32C1.59 26.4 0.95 26.47 0.3 26.54C0.19 26.56 0.07 26.5 0.03 26.42C-0.01 26.35 0 26.26 0 26.18C0.1 26.08 0.22 25.99 0.3 25.88C0.37 25.79 0.45 25.75 0.58 25.75C0.76 25.74 0.94 25.71 1.14 25.69C1.51 25.32 1.87 24.94 2.27 24.58C2.43 24.43 2.39 24.28 2.42 24.13C2.45 23.98 2.69 24 2.85 23.96C2.98 23.93 3.02 23.85 2.97 23.79C2.94 23.76 2.88 23.72 2.83 23.72C2.71 23.72 2.59 23.74 2.48 23.76C2.36 23.77 2.22 23.76 2.13 23.8C2.03 23.84 1.97 23.93 1.91 24C1.85 24.08 1.76 24.11 1.62 24.11C1.45 24.12 1.27 24.14 1.1 24.16C0.91 24.06 0.71 23.97 0.52 23.86C0.49 23.84 0.48 23.79 0.49 23.75C0.49 23.65 0.44 23.59 0.32 23.54C0.22 23.51 0.14 23.45 0.05 23.4C0.12 23.33 0.2 23.27 0.25 23.19C0.38 23.04 0.54 22.93 0.81 22.94C0.91 22.84 1 22.72 1.14 22.65C1.27 22.59 1.49 22.65 1.59 22.51C1.64 22.43 1.71 22.35 1.81 22.32C1.96 22.27 2.16 22.3 2.25 22.16C2.3 22.08 2.38 22.01 2.49 21.99C2.6 21.96 2.72 21.96 2.81 21.91C2.86 21.89 2.91 21.85 2.91 21.81C2.91 21.79 2.83 21.75 2.78 21.74C2.74 21.72 2.68 21.71 2.62 21.72C2.45 21.73 2.27 21.76 2.1 21.77C2.05 21.78 1.99 21.76 1.94 21.74C1.78 21.71 1.79 21.66 1.91 21.57C2.04 21.48 2.13 21.37 2.23 21.26C2.34 21.25 2.49 21.25 2.56 21.21C2.7 21.13 2.79 21.02 2.89 20.92C3.01 20.9 3.13 20.9 3.24 20.87C3.29 20.86 3.31 20.81 3.35 20.78C3.42 20.71 3.48 20.62 3.58 20.59C3.73 20.55 3.93 20.57 4.02 20.43C4.07 20.35 4.15 20.26 4.25 20.26C4.53 20.25 4.65 20.11 4.79 19.98C4.9 19.88 5.12 19.93 5.24 19.84C5.32 19.78 5.37 19.7 5.45 19.64C5.49 19.61 5.55 19.6 5.61 19.59C5.9 19.56 6.19 19.53 6.48 19.49C6.53 19.48 6.57 19.44 6.61 19.41C6.68 19.35 6.73 19.26 6.82 19.22C6.91 19.17 7.05 19.17 7.16 19.16C7.52 19.12 7.55 19.13 7.72 18.92C7.86 18.75 8.19 18.87 8.3 18.68C8.36 18.57 8.48 18.48 8.69 18.47C8.98 18.45 9.27 18.41 9.57 18.37C9.83 18.34 9.83 18.34 10.11 18.11C10.24 18.01 10.43 18.02 10.6 18C10.77 17.98 10.94 17.95 11.02 17.83C11.11 17.71 11.26 17.67 11.44 17.65C11.61 17.63 11.8 17.64 11.93 17.54C12.25 17.3 12.25 17.3 12.47 17.28C12.82 17.24 13.17 17.2 13.53 17.16C13.76 17.13 14.01 17.12 14.23 17.07C14.39 17.03 14.46 16.89 14.56 16.79C14.85 16.75 15.14 16.72 15.43 16.68C15.84 16.63 16.26 16.59 16.67 16.54C16.85 16.44 16.87 16.24 17.17 16.23C17.35 16.22 17.52 16.19 17.7 16.17C17.99 16.13 18.28 16.09 18.58 16.07C18.8 16.06 18.84 15.92 18.96 15.84C19 15.81 19.03 15.77 19.08 15.76C19.54 15.69 20.02 15.67 20.47 15.57C20.52 15.56 20.56 15.51 20.57 15.47C20.58 15.45 20.52 15.41 20.48 15.4C20.43 15.38 20.37 15.36 20.32 15.36C18.85 15.53 17.39 15.7 15.92 15.87C15.71 15.89 15.71 15.89 15.21 16.16C15.17 16.19 15.12 16.21 15.07 16.22C14.83 16.25 14.59 16.27 14.36 16.3C14.17 16.33 14.02 16.3 13.88 16.21C13.79 16.15 13.69 16.13 13.57 16.13C13.43 16.14 13.34 16.17 13.26 16.24C13.16 16.33 13.11 16.45 12.89 16.47C11.89 16.58 10.89 16.7 9.9 16.81C9.76 16.78 9.69 16.73 9.73 16.66C9.75 16.63 9.79 16.58 9.83 16.57C10.24 16.52 10.66 16.47 11.06 16.42C11.12 16.42 11.2 16.42 11.23 16.4C11.39 16.29 11.44 16.1 11.74 16.09C11.91 16.08 12.08 16.05 12.25 16.01C12.29 16 12.34 15.95 12.35 15.91C12.35 15.89 12.29 15.85 12.25 15.84C12.09 15.76 11.91 15.85 11.76 15.8C11.7 15.78 11.63 15.76 11.62 15.73C11.61 15.7 11.67 15.66 11.71 15.63C11.75 15.6 11.81 15.58 11.86 15.57C12.33 15.52 12.8 15.46 13.27 15.41C13.46 15.39 13.59 15.33 13.68 15.22C13.74 15.13 13.82 15.09 13.94 15.08C14.76 14.98 15.58 14.88 16.41 14.8C16.61 14.78 16.72 14.69 16.81 14.59C16.87 14.5 16.95 14.47 17.08 14.46C18.26 14.33 19.43 14.18 20.61 14.06C20.82 14.04 20.89 13.93 21 13.84C21.04 13.8 21.06 13.76 21.11 13.74C21.16 13.72 21.22 13.73 21.28 13.72C22.22 13.61 23.16 13.5 24.1 13.4C24.32 13.38 24.36 13.25 24.48 13.17C24.52 13.14 24.55 13.09 24.6 13.09C25.3 13 26.01 12.92 26.71 12.84C27.18 12.78 27.65 12.73 28.12 12.68C28.35 12.65 28.35 12.65 28.66 12.41C28.7 12.39 28.75 12.35 28.79 12.35C30.14 12.19 31.49 12.03 32.84 11.88C32.95 11.86 33.04 11.81 33.09 11.72C33.15 11.64 33.23 11.58 33.34 11.57C34.4 11.44 35.45 11.32 36.51 11.2C36.7 11.18 36.84 11.12 36.92 11.01C36.99 10.93 37.06 10.88 37.19 10.87C38.24 10.75 39.3 10.62 40.36 10.51C40.56 10.49 40.66 10.4 40.76 10.3C40.79 10.27 40.82 10.21 40.86 10.2C41.39 10.13 41.91 10.06 42.44 10.01C42.66 10 42.74 9.89 42.82 9.79C42.9 9.71 42.98 9.68 43.11 9.67C43.41 9.65 43.7 9.61 43.99 9.57C44.03 9.56 44.08 9.5 44.09 9.47C44.09 9.4 44.01 9.36 43.88 9.34C42.47 9.5 41.06 9.66 39.65 9.82C39.42 9.85 39.42 9.85 39.11 10.09C39.07 10.11 39.02 10.15 38.97 10.15C37.62 10.31 36.28 10.47 34.93 10.62C34.81 10.64 34.73 10.69 34.67 10.78C34.62 10.86 34.53 10.92 34.42 10.93C33.13 11.08 31.84 11.23 30.55 11.38C30.36 11.4 30.22 11.45 30.14 11.57C30.08 11.65 30 11.7 29.88 11.71C28.64 11.85 27.41 12 26.18 12.13C26.05 12.14 25.96 12.07 25.97 12C25.97 11.97 26.02 11.91 26.07 11.91C26.71 11.82 27.35 11.74 28 11.68C28.21 11.66 28.28 11.55 28.39 11.46C28.42 11.42 28.45 11.38 28.5 11.36C28.55 11.34 28.61 11.35 28.67 11.34C30.2 11.16 31.72 10.98 33.25 10.82C33.47 10.79 33.51 10.67 33.62 10.58C33.66 10.55 33.7 10.51 33.75 10.5C34.21 10.44 34.68 10.39 35.15 10.34C35.97 10.24 36.79 10.15 37.62 10.05C37.86 10.03 37.86 10.03 38.16 9.79C38.2 9.77 38.25 9.73 38.29 9.73C40.47 9.47 42.64 9.22 44.81 8.97C44.92 8.96 45 8.9 45.06 8.82C45.12 8.74 45.2 8.68 45.31 8.66C48.24 8.32 51.18 7.98 54.11 7.65C54.3 7.63 54.44 7.57 54.52 7.46C54.58 7.37 54.66 7.33 54.79 7.31C58.01 6.94 61.24 6.57 64.47 6.2C66.64 5.95 68.81 5.69 70.98 5.45C71.18 5.43 71.29 5.35 71.39 5.25C71.42 5.21 71.45 5.15 71.49 5.15C71.96 5.09 72.43 5.03 72.89 4.97C73.04 5.04 73.18 5.1 73.33 5.17C73.44 5.08 73.54 4.98 73.65 4.88C74.36 4.81 75.05 4.7 75.76 4.66C75.81 4.66 75.86 4.71 75.91 4.73C76.24 4.89 76.43 4.88 76.64 4.67C76.71 4.59 76.77 4.53 76.89 4.52C77.24 4.47 77.6 4.44 77.94 4.39C78.13 4.36 78.29 4.39 78.42 4.48C78.52 4.54 78.62 4.57 78.74 4.55C79.38 4.48 80.03 4.41 80.67 4.33C80.72 4.32 80.76 4.28 80.8 4.25C80.87 4.18 80.94 4.11 81.01 4.05C81.1 4.09 81.21 4.12 81.29 4.18C81.39 4.24 81.48 4.24 81.61 4.22C84.19 3.92 86.78 3.63 89.36 3.32C89.58 3.3 89.67 3.4 89.82 3.46C89.87 3.48 89.92 3.5 89.98 3.51C90.03 3.51 90.09 3.5 90.15 3.49C92.09 3.27 94.02 3.04 95.96 2.82C96.22 2.79 96.22 2.79 96.6 2.94C96.64 2.96 96.7 2.99 96.75 2.98C97.63 2.88 98.51 2.78 99.39 2.68C99.51 2.67 99.6 2.71 99.7 2.76C99.91 2.87 99.92 2.87 100.07 2.71C100.14 2.63 100.22 2.59 100.33 2.56C100.46 2.54 100.57 2.55 100.66 2.59C100.81 2.65 100.91 2.76 101.13 2.73C102.06 2.61 103.01 2.52 103.94 2.4C104.15 2.37 104.27 2.45 104.41 2.52C104.46 2.54 104.51 2.57 104.56 2.58C104.61 2.59 104.68 2.57 104.73 2.56C105.91 2.43 107.08 2.3 108.25 2.15C108.47 2.12 108.57 2.23 108.72 2.29C108.77 2.31 108.82 2.34 108.87 2.34C109.57 2.26 110.28 2.18 110.98 2.09C111.24 2.06 111.24 2.07 111.62 2.22C111.67 2.24 111.73 2.26 111.78 2.25C112.6 2.16 113.42 2.07 114.24 1.97C114.49 1.94 114.49 1.94 115.22 2.07C115.28 2.08 115.33 2.1 115.39 2.09C116.32 1.98 117.27 1.88 118.2 1.77C118.39 1.74 118.55 1.76 118.68 1.85C118.78 1.92 118.88 1.94 119 1.93C120.05 1.81 121.11 1.69 122.16 1.56C122.37 1.54 122.5 1.59 122.64 1.66C122.69 1.69 122.73 1.72 122.79 1.73C122.84 1.74 122.9 1.73 122.96 1.73C124.01 1.6 125.07 1.49 126.12 1.36C126.33 1.33 126.45 1.41 126.59 1.48C126.64 1.5 126.69 1.54 126.74 1.54C127.15 1.5 127.56 1.46 127.97 1.4C128.19 1.36 128.28 1.48 128.44 1.53C128.48 1.55 128.54 1.59 128.59 1.58C129.47 1.49 130.35 1.38 131.23 1.28C131.35 1.26 131.44 1.29 131.54 1.35C131.67 1.44 131.83 1.47 132.02 1.45C132.43 1.39 132.84 1.35 133.25 1.3C133.5 1.27 133.5 1.27 134.23 1.4C134.29 1.41 134.34 1.43 134.4 1.42C135.1 1.34 135.81 1.27 136.51 1.18C136.7 1.15 136.85 1.18 136.99 1.27C137.08 1.33 137.18 1.36 137.3 1.34C137.95 1.27 138.59 1.19 139.24 1.12C139.47 1.09 139.71 1.04 139.94 1.04C140.11 1.05 140.24 1.17 140.39 1.23C140.43 1.24 140.5 1.22 140.56 1.22C141.38 1.12 142.2 1.04 143.02 0.93C143.24 0.9 143.35 0.99 143.49 1.05C143.54 1.07 143.59 1.12 143.64 1.11C143.93 1.09 144.22 1.05 144.52 1.02C144.87 0.98 145.23 0.95 145.57 0.89C145.86 0.85 145.96 1.06 146.19 1.07C146.37 1.08 146.54 1.04 146.72 1.02C147.07 0.98 147.42 0.93 147.77 0.9C147.9 0.89 147.99 0.85 148.03 0.76C148.04 0.74 147.98 0.7 147.94 0.68C147.47 0.42 147.47 0.42 146.99 0.48C146.7 0.51 146.4 0.55 146.11 0.58C146.06 0.58 146 0.56 145.95 0.55C145.81 0.51 145.83 0.46 145.95 0.37C146.07 0.28 146.16 0.17 146.26 0.06C146.41 0.13 146.55 0.19 146.7 0.26C146.81 0.25 146.93 0.23 147.05 0.22C147.63 0.15 148.22 0.09 148.81 0.03C148.85 0.02 148.9 0.07 148.95 0.1C149.09 0.17 149.22 0.23 149.43 0.2C149.95 0.13 150.48 0.08 151.01 0.02C151.24 -0.01 151.24 -0.01 151.65 0.14C151.69 0.16 151.75 0.18 151.8 0.18C152.33 0.12 152.86 0.06 153.39 0C153.5 -0.01 153.61 0.02 153.69 0.09C153.72 0.12 153.72 0.17 153.85 0.58C154.27 0.91 154.56 0.88 154.85 0.85C154.98 0.83 155.09 0.82 155.17 0.77C155.21 0.74 155.26 0.7 155.26 0.67C155.26 0.65 155.19 0.61 155.14 0.6C154.78 0.55 154.45 0.66 154.11 0.68C153.95 0.69 153.81 0.6 153.78 0.46C153.77 0.42 153.76 0.38 153.75 0.34C153.74 0.3 153.73 0.25 153.72 0.21C153.58 0.2 153.5 0.25 153.44 0.33C153.39 0.4 153.32 0.48 153.22 0.52C153.13 0.56 153 0.55 152.88 0.56C152.77 0.58 152.64 0.61 152.53 0.59C152.43 0.57 152.34 0.5 152.24 0.45C152.2 0.43 152.14 0.4 152.09 0.4C151.69 0.45 151.28 0.49 150.88 0.54C150.66 0.57 150.56 0.47 150.42 0.4C150.31 0.35 150.21 0.37 150.19 0.48C150.14 0.76 150.31 0.87 150.67 0.82C150.97 0.77 151.24 0.77 151.47 0.93C151.5 0.96 151.58 0.97 151.62 0.96C151.92 0.93 152.2 0.9 152.5 0.87C152.55 0.86 152.61 0.87 152.66 0.88C153.38 1.01 153.38 1.02 153.63 0.99C153.74 0.97 153.86 0.96 153.85 0.58C154.07 0.17 154.42 0.15 154.77 0.09C154.99 0.05 155.09 0.16 155.24 0.22C155.28 0.24 155.34 0.28 155.38 0.27C156.15 0.19 156.91 0.1 157.67 0.01C157.8 0 157.89 0.01 157.99 0.07C158.12 0.16 158.26 0.21 158.46 0.18C158.87 0.12 159.28 0.08 159.69 0.03C159.9 0.01 159.9 0.01 160.32 0.16C160.37 0.18 160.43 0.2 160.48 0.19C160.89 0.15 161.3 0.1 161.71 0.06C161.82 0.04 161.93 0.08 162.02 0.14C162.1 0.21 162.21 0.25 162.32 0.23C162.73 0.19 163.14 0.14 163.55 0.09C163.6 0.09 163.66 0.11 163.71 0.12C164.14 0.28 164.14 0.28 164.34 0.25C164.63 0.22 164.93 0.2 165.22 0.15C165.5 0.1 165.64 0.24 165.84 0.32C166.36 0.27 166.89 0.22 167.41 0.15C167.63 0.12 167.74 0.2 167.88 0.27C167.93 0.29 167.98 0.34 168.03 0.33C168.21 0.32 168.38 0.3 168.55 0.28C168.73 0.26 168.91 0.24 169.08 0.22C169.28 0.29 169.41 0.46 169.69 0.4C169.86 0.37 170.05 0.36 170.22 0.34C170.39 0.32 170.57 0.3 170.75 0.28C170.86 0.27 170.98 0.26 171.1 0.24C171.31 0.2 171.41 0.32 171.56 0.38C171.61 0.39 171.67 0.42 171.71 0.42C172.06 0.38 172.42 0.35 172.76 0.3C173.03 0.25 173.21 0.33 173.4 0.43C173.44 0.45 173.51 0.47 173.56 0.46C173.97 0.42 174.38 0.37 174.79 0.32C174.9 0.31 175 0.35 175.09 0.41C175.18 0.48 175.29 0.51 175.4 0.5C175.81 0.46 176.22 0.41 176.63 0.36C176.68 0.36 176.74 0.38 176.79 0.4C177.18 0.55 177.18 0.55 177.42 0.52C177.48 0.52 177.54 0.51 177.59 0.5C177.88 0.47 178.19 0.46 178.47 0.4C178.8 0.33 179.04 0.41 179.27 0.56C179.56 0.53 179.86 0.51 180.14 0.46C180.35 0.42 180.47 0.52 180.61 0.58C180.66 0.6 180.71 0.65 180.76 0.64C181.17 0.6 181.58 0.56 181.99 0.5C182.21 0.46 182.3 0.58 182.45 0.63C182.5 0.65 182.55 0.69 182.6 0.68C182.83 0.66 183.07 0.63 183.3 0.61C183.58 0.57 183.58 0.58 183.94 0.73C184.11 0.8 184.28 0.74 184.45 0.73C184.63 0.71 184.79 0.69 184.93 0.79C185.02 0.86 185.13 0.9 185.24 0.89C185.48 0.87 185.71 0.84 185.94 0.81C186.13 0.78 186.29 0.8 186.42 0.89C186.52 0.95 186.62 0.98 186.74 0.97C187.26 0.91 187.79 0.85 188.32 0.79C188.36 0.79 188.43 0.81 188.47 0.83C188.57 0.88 188.67 0.92 188.76 0.97C188.99 0.95 189.23 0.94 189.46 0.91C189.7 0.87 189.92 0.86 190.11 1C190.15 1.03 190.2 1.07 190.25 1.07C190.43 1.06 190.6 1.03 190.78 1.01C190.95 0.99 191.13 0.97 191.3 0.95C191.51 1.01 191.63 1.19 191.92 1.14C192.09 1.1 192.27 1.09 192.44 1.07C192.62 1.05 192.8 1.03 192.97 1.01C193.03 1.01 193.09 1 193.14 1.01C193.19 1.02 193.24 1.05 193.29 1.08C193.43 1.15 193.56 1.22 193.76 1.18C193.93 1.14 194.11 1.14 194.29 1.11C194.53 1.09 194.53 1.09 194.92 1.24C195.08 1.31 195.26 1.22 195.41 1.28C195.52 1.32 195.61 1.38 195.71 1.42C195.75 1.44 195.82 1.45 195.87 1.44C196.1 1.42 196.34 1.4 196.57 1.36C196.76 1.33 196.91 1.36 197.05 1.45C197.14 1.51 197.24 1.54 197.36 1.53C197.94 1.46 198.53 1.4 199.11 1.32C199.31 1.29 199.47 1.33 199.58 1.42C199.77 1.58 200.04 1.4 200.23 1.52C200.35 1.6 200.47 1.69 200.69 1.65C201.1 1.59 201.51 1.55 201.92 1.51C202.07 1.57 202.21 1.64 202.36 1.71C202.6 1.68 202.83 1.65 203.06 1.63C203.24 1.61 203.42 1.59 203.59 1.57C203.65 1.56 203.71 1.55 203.76 1.57C203.81 1.58 203.86 1.61 203.91 1.64C204.15 1.76 204.15 1.76 204.56 1.71C204.73 1.69 204.9 1.67 205.04 1.77C205.18 1.86 205.34 1.88 205.52 1.85C205.87 1.81 206.22 1.77 206.58 1.73C206.69 1.72 206.79 1.76 206.88 1.83C207.02 1.93 207.19 1.92 207.37 1.89C207.6 1.86 207.83 1.82 208.02 1.96C208.06 1.99 208.12 2.03 208.16 2.03C208.46 2.01 208.75 2 209.03 1.95C209.32 1.9 209.46 2.06 209.65 2.13C209.94 2.1 210.24 2.07 210.53 2.03C210.59 2.03 210.65 2 210.7 2.02C210.91 2.07 211.04 2.26 211.32 2.2C211.49 2.17 211.67 2.16 211.85 2.15C211.89 2.15 211.95 2.19 211.98 2.22C212 2.24 211.98 2.29 211.96 2.31C211.9 2.38 211.82 2.45 211.76 2.52C211.76 2.53 211.82 2.57 211.86 2.59C211.96 2.64 212.07 2.63 212.2 2.61C212.31 2.59 212.42 2.63 212.5 2.7C212.53 2.73 212.52 2.78 212.45 2.95C212.45 3.07 212.53 3.01 212.55 2.93C212.59 2.82 212.52 2.78 212.37 2.84C212.28 2.89 212.23 2.95 212.25 3.01C212.26 3.03 212.33 3.07 212.45 2.95C212.77 2.8 213 2.77 213.23 2.74C213.3 2.73 213.37 2.71 213.41 2.72C213.56 2.78 213.7 2.86 213.85 2.92C214.02 2.91 214.18 2.87 214.35 2.97C214.58 3.11 214.6 3.09 214.82 3.07C214.94 3.05 215.06 3.04 215.17 3.03C215.29 3.01 215.38 3.05 215.49 3.11C215.7 3.23 215.71 3.23 215.85 3.07C215.94 2.97 215.99 2.94 216.1 2.98C216.44 3.13 216.44 3.14 216.73 3.1C216.97 3.06 217.2 3.05 217.38 3.19C217.5 3.29 217.54 3.27 217.63 3.17C217.89 2.89 218.01 2.89 218.49 3.09C218.71 3.19 218.94 3.09 219.17 3.07C219.36 3.06 219.5 3.12 219.51 3.28C219.52 3.38 219.55 3.45 219.68 3.48C219.73 3.49 219.79 3.51 219.84 3.51C220.14 3.48 220.43 3.44 220.72 3.41C220.87 3.39 220.95 3.27 220.92 3.12C220.89 2.95 220.95 2.89 221.16 2.84C221.29 2.82 221.39 2.82 221.5 2.87C221.61 2.92 221.58 2.96 221.48 3.05C221.24 3.27 221.27 3.41 221.57 3.56C221.68 3.61 221.77 3.66 221.79 3.73C221.81 3.77 221.79 3.83 221.82 3.86C222 4.02 222.24 4.13 222.51 4.21C222.77 4.14 222.95 4.26 223.15 4.35C223.3 4.42 223.49 4.36 223.65 4.33C223.84 4.3 224 4.32 224.13 4.42C224.23 4.48 224.33 4.51 224.45 4.5C224.68 4.47 224.92 4.45 225.15 4.41C225.35 4.38 225.5 4.43 225.62 4.51C225.78 4.62 225.95 4.55 226.12 4.56C226.34 4.58 226.45 4.8 226.73 4.74C226.9 4.71 227.08 4.69 227.26 4.68C227.31 4.68 227.36 4.72 227.4 4.75C227.59 4.89 227.81 4.88 228.05 4.84C228.22 4.82 228.38 4.79 228.55 4.89C228.82 5.05 229.12 5.19 229.4 5.33C229.44 5.45 229.41 5.58 229.61 5.65C229.72 5.68 229.82 5.74 229.9 5.79C230 5.86 230.09 5.88 230.22 5.86C230.45 5.83 230.69 5.82 230.92 5.77C231.13 5.73 231.26 5.82 231.39 5.89C231.49 5.96 231.59 5.99 231.71 5.94C231.84 5.9 231.93 5.93 232.04 5.99C232.18 6.09 232.19 6.08 232.68 6.1C232.73 6.11 232.79 6.14 232.81 6.18C232.83 6.19 232.8 6.24 232.77 6.27C232.74 6.3 232.69 6.33 232.64 6.34C232.12 6.4 231.59 6.46 231.06 6.53C231.01 6.53 230.95 6.55 230.91 6.58C230.87 6.6 230.82 6.64 230.82 6.68C230.82 6.7 230.89 6.73 230.94 6.75C231.09 6.81 231.28 6.72 231.43 6.78C231.53 6.83 231.62 6.89 231.72 6.93C231.77 6.94 231.83 6.94 231.89 6.94C232.06 6.92 232.24 6.89 232.42 6.88C232.47 6.88 232.52 6.9 232.57 6.92C232.91 7.07 232.91 7.07 233.21 7.04C233.32 7.03 233.45 6.99 233.56 7C233.66 7.02 233.76 7.09 233.85 7.13C234.05 7.22 234.24 7.3 234.25 7.5C234.26 7.57 234.38 7.64 234.49 7.64C234.61 7.65 234.73 7.62 234.85 7.61C235.12 7.58 235.12 7.58 235.48 7.73C235.58 7.77 235.69 7.78 235.82 7.75C235.87 7.74 235.93 7.75 235.98 7.76C236.15 7.8 236.15 7.85 236.04 7.94C235.88 8.07 235.89 8.08 236.34 8.19C236.51 8.24 236.64 8.32 236.79 8.39C237.02 8.5 237.01 8.5 236.86 8.65C236.83 8.68 236.79 8.71 236.76 8.75C236.66 8.85 236.57 8.95 236.36 8.96C236.13 8.97 235.89 9.01 235.66 9.04C235.43 9.07 235.37 9.12 235.39 9.29C235.42 9.5 235.46 9.52 235.87 9.52C235.99 9.52 236.09 9.54 236.18 9.61C236.14 9.69 236.06 9.75 235.94 9.76C235.65 9.8 235.36 9.83 235.07 9.87C234.83 9.89 234.6 9.92 234.36 9.95C234.22 9.96 234.13 10.09 234.16 10.24C234.19 10.32 234.2 10.4 234.22 10.49C234.26 10.65 234.34 10.69 234.57 10.69C234.63 10.68 234.69 10.66 234.75 10.67C234.98 10.69 235.09 10.89 235.37 10.85C235.6 10.82 235.84 10.81 236.07 10.76C236.28 10.72 236.39 10.81 236.54 10.88C236.59 10.9 236.64 10.95 236.68 10.95C236.98 10.92 237.27 10.89 237.56 10.85C237.7 10.83 237.78 10.84 237.88 10.9C238.14 11.04 238.15 11.04 238.53 10.99C238.81 10.96 238.81 10.96 239.16 11.11C239.26 11.16 239.37 11.16 239.5 11.14C239.67 11.11 239.84 11.07 240.01 11.11C240.07 11.12 240.13 11.15 240.15 11.18C240.16 11.2 240.11 11.26 240.07 11.28C239.76 11.41 239.39 11.38 239.05 11.44C238.94 11.45 238.84 11.4 238.75 11.34C238.66 11.27 238.56 11.24 238.44 11.25C238.2 11.28 237.96 11.3 237.73 11.34C237.53 11.37 237.39 11.32 237.26 11.24C237.21 11.21 237.16 11.17 237.11 11.17C236.58 11.22 236.05 11.27 235.53 11.34C235.32 11.37 235.2 11.29 235.06 11.22C235.01 11.2 234.96 11.15 234.91 11.15C234.74 11.16 234.56 11.19 234.38 11.21C233.74 11.29 233.09 11.36 232.45 11.43C232.41 11.44 232.35 11.38 232.3 11.36C232.21 11.32 232.11 11.27 232.01 11.23C231.83 11.25 231.66 11.28 231.48 11.29C231.35 11.3 231.24 11.34 231.22 11.43C231.21 11.49 231.33 11.55 231.45 11.55C231.57 11.54 231.69 11.51 231.79 11.54C232.28 11.7 232.28 11.71 232.59 11.67C232.86 11.64 232.84 11.62 233.07 11.76C233.18 11.81 233.27 11.85 233.39 11.83C233.68 11.8 233.97 11.77 234.27 11.74C234.31 11.73 234.37 11.76 234.42 11.78C234.77 11.92 234.77 11.93 235.06 11.89C235.43 11.85 235.45 11.83 235.7 11.99C235.87 12.09 236.03 12.02 236.2 12.01C236.39 12.11 236.6 12.2 236.78 12.31C236.98 12.44 237.2 12.42 237.43 12.38C237.61 12.35 237.78 12.34 237.92 12.44C238.06 12.54 238.22 12.55 238.4 12.52C238.57 12.5 238.74 12.45 238.92 12.51C238.96 12.52 239.03 12.56 239.03 12.58C239.03 12.62 238.98 12.67 238.93 12.68C238.61 12.78 238.25 12.78 237.9 12.83C237.86 12.84 237.8 12.81 237.75 12.79C237.65 12.74 237.55 12.69 237.46 12.65C237.28 12.66 237.11 12.66 236.94 12.7C236.8 12.72 236.71 12.72 236.61 12.66C236.52 12.6 236.42 12.53 236.32 12.52C236.21 12.5 236.09 12.54 235.97 12.55C235.85 12.57 235.72 12.56 235.62 12.6C235.53 12.64 235.48 12.72 235.42 12.79C235.35 12.87 235.26 12.9 235.12 12.9C235 12.91 234.9 12.9 234.8 12.83C234.77 12.8 234.71 12.78 234.66 12.76C234.61 12.74 234.55 12.72 234.51 12.72C233.98 12.78 233.45 12.84 232.92 12.9C232.66 12.93 232.66 12.93 232.11 12.78C232.06 12.77 232 12.75 231.95 12.76C231.66 12.79 231.37 12.82 231.07 12.86C230.77 12.89 230.78 12.89 230.27 12.73C230.18 12.7 230.04 12.74 229.93 12.73C229.7 12.72 229.59 12.51 229.32 12.55C229.09 12.59 228.84 12.6 228.61 12.64C228.4 12.68 228.28 12.59 228.14 12.53C228.09 12.5 228.04 12.45 228 12.46C227.47 12.51 226.94 12.58 226.24 12.58C226.06 12.58 226.14 12.64 226.25 12.65C226.42 12.68 226.47 12.63 226.38 12.53C226.32 12.46 226.23 12.42 226.15 12.44C226.11 12.45 226.06 12.5 226.24 12.58C226.42 12.68 226.41 12.73 226.44 12.76C226.52 12.83 226.63 12.86 226.74 12.85C226.92 12.83 227.1 12.81 227.27 12.79C227.32 12.79 227.38 12.81 227.43 12.83C227.82 12.98 227.83 12.99 228.24 12.93C228.37 12.91 228.47 12.91 228.57 12.96C228.71 13.03 228.82 13.14 229.03 13.1C229.32 13.05 229.62 13.03 229.91 13C229.96 12.99 230.01 13.04 230.06 13.06C230.21 13.12 230.31 13.23 230.53 13.18C230.7 13.15 230.88 13.14 231.06 13.13C231.1 13.13 231.17 13.17 231.19 13.2C231.24 13.26 231.18 13.32 231.06 13.37C231.01 13.39 230.95 13.39 230.89 13.39C230.65 13.42 230.42 13.45 230.18 13.47C230.06 13.49 229.94 13.52 229.93 13.61C229.92 13.68 230.05 13.73 230.17 13.73C230.34 13.72 230.52 13.7 230.69 13.67C230.99 13.61 231.26 13.63 231.5 13.78C231.68 13.89 231.67 13.85 231.85 14.18C231.9 14.26 232.04 14.27 232.16 14.26C232.45 14.25 232.58 14.29 232.56 14.37C232.53 14.46 232.42 14.49 232.29 14.5C232.06 14.52 231.82 14.55 231.59 14.58C231.53 14.59 231.47 14.6 231.41 14.6C231.36 14.59 231.31 14.56 231.26 14.54C231.17 14.5 231.08 14.42 230.97 14.41C230.87 14.39 230.74 14.43 230.63 14.44C230.51 14.45 230.38 14.49 230.28 14.47C230.17 14.46 230.08 14.38 229.99 14.34C229.94 14.31 229.88 14.28 229.84 14.28C229.6 14.3 229.37 14.33 229.13 14.36C228.84 14.39 228.84 14.39 228.5 14.24C228.4 14.19 228.29 14.19 228.16 14.21C227.88 14.25 227.87 14.25 227.36 14.1C227.31 14.09 227.25 14.07 227.2 14.08C226.67 14.13 226.14 14.2 225.61 14.26C225.16 14.31 225.16 14.31 224.91 14.56C224.73 14.74 224.73 14.74 224.91 14.83C225.05 14.9 225.18 15 225.34 15.04C225.49 15.07 225.68 14.96 225.84 15.07C225.92 15.13 226.03 15.19 226.13 15.2C226.3 15.22 226.47 15.14 226.63 15.25C226.71 15.31 226.82 15.37 226.92 15.37C227.1 15.37 227.27 15.33 227.45 15.32C227.5 15.31 227.56 15.31 227.61 15.32C227.67 15.34 227.71 15.37 227.76 15.39C227.9 15.48 228.05 15.52 228.24 15.47C228.54 15.4 228.81 15.44 229.04 15.6C229.08 15.62 229.15 15.62 229.2 15.61C229.33 15.59 229.44 15.59 229.54 15.63C229.58 15.65 229.63 15.69 229.63 15.71C229.62 15.75 229.57 15.8 229.53 15.81C229.19 15.9 228.83 15.91 228.49 15.95C228.44 15.96 228.39 15.92 228.34 15.9C228.24 15.86 228.16 15.78 228.05 15.76C227.94 15.75 227.82 15.78 227.7 15.79C227.58 15.8 227.46 15.84 227.35 15.83C227.25 15.81 227.15 15.75 227.06 15.69C226.96 15.63 226.87 15.62 226.73 15.65C226.56 15.68 226.39 15.68 226.21 15.7C226.12 15.65 226.02 15.6 225.92 15.56C225.87 15.53 225.82 15.51 225.77 15.51C225.53 15.53 225.3 15.56 225.06 15.59C224.83 15.61 224.83 15.61 224.43 15.46C224.39 15.44 224.32 15.42 224.28 15.43C223.98 15.46 223.69 15.49 223.39 15.52C223.28 15.54 223.18 15.5 223.08 15.43C223 15.37 222.89 15.33 222.78 15.34C222.31 15.39 221.84 15.44 221.37 15.51C221.18 15.53 221.02 15.51 220.9 15.42C220.75 15.32 220.58 15.34 220.41 15.36C220.01 15.41 220.01 15.41 219.76 15.28C219.71 15.26 219.66 15.21 219.61 15.21C219.2 15.25 218.79 15.29 218.38 15.35C218.17 15.38 218.06 15.29 217.91 15.23C217.86 15.2 217.81 15.16 217.77 15.16C217.47 15.19 217.18 15.21 216.89 15.26C216.6 15.31 216.49 15.08 216.28 15.08C215.98 15.09 215.69 15.14 215.4 15.18C215.16 15.21 214.93 15.23 214.7 15.26C214.46 15.29 214.23 15.31 213.99 15.34C213.87 15.36 213.77 15.34 213.67 15.28C213.54 15.19 213.38 15.13 213.24 15.05C213.03 14.95 213.02 14.95 212.76 14.98C212.71 14.98 212.64 14.99 212.59 15C212.16 15.05 212.16 15.05 211.61 14.89C211.59 14.88 211.52 14.91 211.5 14.93C211.42 14.99 211.35 15.06 211.29 15.13C211.19 15.09 211.07 15.07 211.01 15.01C210.83 14.85 210.54 15.07 210.36 14.91C210.29 14.85 210.18 14.8 210.07 14.78C209.96 14.77 209.83 14.8 209.72 14.82C209.43 14.86 209.43 14.85 209.17 15.08C209.05 15.19 208.86 15.17 208.69 15.19C208.52 15.22 208.35 15.23 208.21 15.13C208.08 15.04 207.92 15.02 207.73 15.05C207.5 15.08 207.26 15.11 207.02 15.13C206.97 15.13 206.91 15.12 206.86 15.11C206.32 14.96 206.32 14.96 206.06 14.99C205.94 15 205.82 15.01 205.7 15.03C205.51 15.07 205.37 15.02 205.23 14.94C205.18 14.91 205.13 14.87 205.08 14.87C204.85 14.88 204.62 14.9 204.39 14.93C204.21 14.94 204.03 14.95 203.86 14.99C203.58 15.05 203.44 14.88 203.24 14.81C202.95 14.84 202.66 14.86 202.36 14.91C202.23 14.93 202.14 14.92 202.04 14.86C201.91 14.79 201.79 14.7 201.57 14.74C201.29 14.79 200.99 14.81 200.7 14.84C200.5 14.76 200.36 14.6 200.08 14.66C199.91 14.69 199.73 14.7 199.55 14.72C199.32 14.75 199.08 14.77 198.85 14.8C198.6 14.83 198.6 14.83 198.21 14.68C197.99 14.59 197.76 14.69 197.53 14.7C197.35 14.72 197.27 14.83 197.31 14.98C197.35 15.13 197.25 15.24 197.09 15.26C196.68 15.31 196.27 15.36 195.86 15.4C195.81 15.4 195.75 15.39 195.71 15.37C195.27 15.21 195.27 15.22 195.07 15.24C194.78 15.28 194.48 15.3 194.2 15.34C194 15.37 193.85 15.32 193.72 15.24C193.62 15.17 193.53 15.16 193.4 15.17C192 15.34 190.59 15.49 189.18 15.67C188.98 15.69 188.85 15.62 188.71 15.55C188.66 15.53 188.62 15.48 188.57 15.48C188.45 15.48 188.33 15.5 188.21 15.52C187.69 15.58 187.16 15.65 186.63 15.7C186.41 15.72 186.35 15.83 186.25 15.93C186.18 16 186.09 16.03 185.96 16.04C185.83 16.05 185.74 16.04 185.64 15.97C185.51 15.89 185.37 15.83 185.17 15.87C184.94 15.91 184.7 15.93 184.47 15.95C184.35 15.97 184.25 16.01 184.21 16.1C184.21 16.12 184.28 16.15 184.32 16.18C184.47 16.25 184.6 16.34 184.76 16.39C184.92 16.44 185.1 16.38 185.27 16.37C185.33 16.36 185.39 16.35 185.45 16.35C185.5 16.35 185.56 16.36 185.6 16.39C185.79 16.5 185.98 16.58 186.24 16.51C186.46 16.54 186.57 16.75 186.85 16.69C187.02 16.66 187.2 16.65 187.38 16.63C187.43 16.63 187.48 16.68 187.53 16.7C187.67 16.76 187.78 16.86 187.99 16.82C188.22 16.77 188.46 16.77 188.69 16.73C188.82 16.71 188.91 16.73 189.01 16.79C189.14 16.88 189.29 16.94 189.49 16.9C189.66 16.86 189.84 16.86 190.01 16.83C190.24 16.81 190.24 16.81 190.65 16.96C190.69 16.98 190.75 17 190.8 17C191.1 16.97 191.39 16.93 191.68 16.9C191.8 16.89 191.91 16.92 191.99 16.99C192.02 17.02 192.01 17.07 192.02 17.11C191.43 17.18 190.84 17.24 190.26 17.32C190.04 17.35 189.94 17.25 189.8 17.19C189.75 17.17 189.69 17.13 189.65 17.14C189.23 17.18 188.83 17.22 188.42 17.28C188.29 17.29 188.19 17.28 188.1 17.21C187.85 17.02 187.55 17.13 187.28 17.15C187.06 17.17 187 17.25 187.02 17.41C187.05 17.61 187.18 17.67 187.51 17.63C187.62 17.62 187.74 17.6 187.86 17.59C187.97 17.58 188.08 17.62 188.17 17.68C188.26 17.75 188.36 17.79 188.47 17.78C188.71 17.75 188.95 17.73 189.17 17.69C189.36 17.66 189.52 17.69 189.65 17.78C189.8 17.88 189.97 17.86 190.14 17.84C190.54 17.79 190.54 17.79 190.79 17.92C190.84 17.94 190.89 17.99 190.93 17.99C191.34 17.95 191.75 17.92 192.16 17.86C192.37 17.83 192.49 17.91 192.62 17.97C192.67 17.99 192.72 18.04 192.77 18.04C193.07 18.01 193.36 17.98 193.65 17.94C193.78 17.91 193.86 17.93 193.97 17.99C194.24 18.13 194.24 18.13 194.62 18.08C194.73 18.07 194.86 18.04 194.96 18.06C195.07 18.08 195.15 18.15 195.25 18.2C195.3 18.22 195.36 18.24 195.41 18.24C195.64 18.22 195.88 18.19 196.11 18.16C196.33 18.13 196.33 18.14 196.74 18.29C196.91 18.36 197.08 18.3 197.25 18.28C197.43 18.26 197.6 18.26 197.73 18.36C197.87 18.45 198.04 18.45 198.22 18.43C198.38 18.41 198.56 18.35 198.73 18.42C199.12 18.58 199.12 18.58 199.36 18.55C199.71 18.51 200.06 18.47 200.41 18.43C200.46 18.42 200.52 18.45 200.57 18.47C200.67 18.52 200.75 18.59 200.86 18.61C200.96 18.63 201.09 18.6 201.2 18.59C201.57 18.54 201.59 18.52 201.84 18.69C202.04 18.82 202.3 18.63 202.49 18.78C202.6 18.87 202.75 18.94 202.96 18.9C203.13 18.86 203.31 18.85 203.48 18.83C203.76 18.8 203.76 18.8 204.12 18.95C204.17 18.97 204.23 19 204.27 18.99C204.51 18.97 204.75 18.95 204.97 18.91C205.24 18.86 205.41 18.95 205.61 19.04C205.77 19.11 205.95 19.05 206.12 19.03C206.3 19.01 206.46 19.01 206.6 19.11C206.74 19.21 206.91 19.2 207.08 19.18C207.25 19.16 207.42 19.1 207.59 19.17C207.96 19.33 207.96 19.33 208.22 19.3C208.46 19.27 208.69 19.24 208.93 19.22C208.97 19.21 209.03 19.25 209.08 19.27C209.18 19.31 209.26 19.39 209.37 19.41C209.48 19.42 209.6 19.39 209.72 19.38C209.83 19.37 209.96 19.33 210.06 19.34C210.17 19.36 210.27 19.42 210.36 19.48C210.46 19.54 210.55 19.55 210.68 19.52C210.85 19.49 211.03 19.48 211.21 19.47C211.3 19.51 211.4 19.56 211.49 19.61C211.59 19.67 211.69 19.66 211.82 19.65C212.26 19.59 212.26 19.59 212.63 19.75C212.8 19.82 212.97 19.76 213.14 19.74C213.32 19.72 213.48 19.71 213.62 19.81C213.76 19.91 213.92 19.92 214.1 19.89C214.22 19.87 214.34 19.86 214.45 19.85C214.51 19.85 214.57 19.86 214.61 19.88C214.8 19.98 214.98 20.08 215.24 20.01C215.47 20.03 215.58 20.23 215.86 20.19C216.09 20.16 216.33 20.15 216.56 20.11C216.77 20.07 216.92 20.14 217.02 20.22C217.21 20.38 217.48 20.17 217.68 20.32C217.79 20.41 217.93 20.48 218.14 20.44C218.38 20.4 218.45 20.45 218.52 20.61C218.56 20.7 218.55 20.77 218.48 20.84C218.41 20.91 218.33 20.9 218.22 20.82C218.09 20.73 217.93 20.71 217.74 20.73C217.56 20.75 217.44 20.62 217.29 20.57C217.14 20.52 216.96 20.61 216.8 20.54C216.42 20.38 216.42 20.38 216.16 20.41C215.99 20.43 215.81 20.44 215.64 20.48C215.43 20.52 215.3 20.44 215.16 20.37C215.11 20.35 215.06 20.3 215.02 20.3C214.61 20.34 214.2 20.37 213.8 20.44C213.58 20.47 213.47 20.38 213.33 20.32C213.28 20.29 213.22 20.25 213.18 20.25C212.83 20.29 212.48 20.33 212.13 20.38C212.06 20.44 211.99 20.51 211.92 20.58C211.86 20.66 211.76 20.69 211.63 20.69C211.4 20.69 211.18 20.79 210.96 20.66C210.73 20.52 210.71 20.53 210.49 20.56C210.2 20.61 209.9 20.6 209.63 20.69C209.59 20.71 209.54 20.76 209.54 20.79C209.54 20.81 209.61 20.85 209.66 20.87C209.81 20.93 209.99 20.84 210.15 20.9C210.25 20.94 210.34 21 210.44 21.04C210.48 21.06 210.55 21.06 210.61 21.06C210.67 21.05 210.72 21.04 210.78 21.04C210.83 21.04 210.89 21.06 210.93 21.08C211.13 21.17 211.33 21.26 211.51 21.37C211.68 21.48 211.84 21.41 212.01 21.4C212.69 21.58 212.69 21.58 213.15 21.53C213.26 21.51 213.38 21.5 213.5 21.5C213.55 21.5 213.59 21.55 213.64 21.57C213.79 21.65 213.92 21.71 214.12 21.67C214.29 21.64 214.47 21.63 214.65 21.61C214.88 21.58 214.88 21.58 215.28 21.74C215.38 21.78 215.48 21.77 215.61 21.75C215.72 21.74 215.84 21.77 215.91 21.84C215.95 21.87 215.94 21.92 215.95 21.97C215.59 22.01 215.24 22.03 214.9 22.09C214.68 22.13 214.58 22.02 214.43 21.97C214.38 21.95 214.33 21.9 214.28 21.91C213.93 21.95 213.59 21.99 213.24 22.04C213.2 22.04 213.14 22.1 213.14 22.14C213.13 22.2 213.22 22.26 213.35 22.26C213.52 22.26 213.69 22.22 213.84 22.32C213.97 22.41 214.13 22.45 214.31 22.41C214.43 22.39 214.55 22.39 214.66 22.37C214.97 22.31 215.24 22.32 215.47 22.49C215.64 22.53 215.81 22.49 215.98 22.47C216.1 22.45 216.22 22.43 216.31 22.48C216.5 22.58 216.69 22.68 216.94 22.61C217.23 22.68 217.44 22.83 217.67 22.95C217.78 23.01 217.87 23.04 218 23C218.05 22.99 218.11 22.99 218.17 22.98C218.29 22.97 218.41 22.93 218.52 22.94C218.63 22.96 218.71 23.03 218.81 23.08C218.86 23.1 218.91 23.14 218.96 23.14C219.13 23.12 219.31 23.1 219.48 23.08C219.66 23.06 219.83 23.04 220 23.03C220.15 23.09 220.3 23.16 220.44 23.22C220.68 23.19 220.91 23.17 221.14 23.14C221.4 23.11 221.4 23.11 221.78 23.27C221.94 23.34 222.12 23.29 222.28 23.26C222.55 23.21 222.73 23.3 222.91 23.4C222.95 23.42 223.02 23.44 223.07 23.43C223.26 23.39 223.42 23.42 223.55 23.51C223.65 23.57 223.74 23.6 223.86 23.59C224.27 23.54 224.68 23.5 225.09 23.45C225.14 23.45 225.19 23.47 225.24 23.49C225.6 23.64 225.6 23.65 225.87 23.61C226.11 23.57 226.33 23.56 226.52 23.7C226.56 23.73 226.62 23.77 226.66 23.77C226.95 23.74 227.25 23.71 227.53 23.67C227.67 23.65 227.76 23.66 227.86 23.72C227.99 23.79 228.11 23.88 228.33 23.84C228.93 23.75 228.93 23.77 229.64 23.94C229.69 23.95 229.76 23.93 229.82 23.92C229.94 23.9 230.02 23.93 230.13 23.99C230.37 24.12 230.38 24.11 230.6 24.08C230.78 24.06 230.96 24.06 231.13 24.02C231.39 23.96 231.57 24.06 231.76 24.15C231.92 24.23 232.1 24.17 232.27 24.14C232.45 24.12 232.61 24.13 232.75 24.22C232.84 24.29 232.94 24.32 233.06 24.31C233.46 24.26 233.87 24.21 234.28 24.17C234.33 24.16 234.39 24.18 234.44 24.2C234.84 24.36 234.84 24.36 235.24 24.31C235.37 24.29 235.48 24.28 235.58 24.34C235.67 24.39 235.77 24.43 235.86 24.48C236.04 24.46 236.21 24.46 236.39 24.43C236.52 24.4 236.61 24.41 236.71 24.47C236.85 24.53 236.96 24.65 237.17 24.59C237.28 24.57 237.41 24.57 237.52 24.55C237.65 24.52 237.74 24.54 237.85 24.6C237.97 24.68 238.11 24.76 238.31 24.72C238.54 24.67 238.78 24.67 239.01 24.63C239.14 24.61 239.23 24.63 239.33 24.7C239.46 24.78 239.6 24.83 239.8 24.8C240.21 24.74 240.21 24.75 240.61 24.91C240.71 24.95 240.81 24.94 240.94 24.92C241.05 24.9 241.16 24.94 241.24 25.01C241.32 25.09 241.31 25.14 241.32 25.19ZM209.65 2.7C209.54 2.71 209.42 2.73 209.25 2.51C209.24 2.47 209.24 2.43 209.22 2.4C209.16 2.33 209.07 2.28 208.97 2.27C208.78 2.26 208.54 2.35 208.55 2.41C208.55 2.47 208.61 2.52 208.73 2.56C208.78 2.58 208.82 2.61 208.86 2.63C209 2.69 209.11 2.8 209.3 2.74C209.28 2.83 209.34 2.9 209.46 2.93C209.5 2.94 209.55 2.93 209.58 2.92C209.69 2.86 209.71 2.79 209.63 2.59C209.61 2.62 209.62 2.68 209.66 2.7C209.69 2.71 209.77 2.7 209.81 2.68C209.91 2.63 209.95 2.57 209.93 2.52C209.92 2.49 209.85 2.46 209.81 2.46C209.73 2.46 209.66 2.51 209.65 2.7ZM238.39 31.61C238.13 31.66 237.83 31.64 237.57 31.74C237.52 31.76 237.48 31.8 237.47 31.84C237.47 31.86 237.54 31.89 237.58 31.91C237.68 31.95 237.79 31.94 237.91 31.92C238.1 31.91 238.21 32.02 238.35 32.08C238.4 32.1 238.46 32.11 238.51 32.1C238.8 32.07 239.08 32.04 239.37 32.01C239.42 32 239.47 31.98 239.52 31.96C239.66 31.89 239.64 31.84 239.51 31.78C239.35 31.72 239.23 31.62 239.08 31.58C238.85 31.51 238.62 31.6 238.39 31.61ZM218.21 33.43C218.03 33.45 217.86 33.47 217.69 33.49C217.63 33.5 217.57 33.5 217.52 33.51C217.41 33.53 217.32 33.58 217.27 33.66C217.35 33.73 217.45 33.77 217.56 33.76C217.74 33.74 217.91 33.71 218.08 33.7C218.27 33.69 218.38 33.81 218.53 33.86C218.57 33.88 218.63 33.88 218.68 33.89C218.95 33.9 219.1 33.77 219.06 33.58C219.02 33.44 218.88 33.36 218.72 33.38C218.55 33.39 218.38 33.41 218.21 33.43ZM239.6 27.93C239.64 27.89 239.69 27.86 239.71 27.82C239.78 27.69 239.75 27.6 239.63 27.5C239.49 27.37 239.32 27.46 239.16 27.47C239.12 27.47 239.08 27.52 239.05 27.56C239.04 27.58 239.04 27.63 239.06 27.64C239.24 27.74 239.42 27.83 239.6 27.93ZM208.78 20.56C208.6 20.58 208.43 20.6 208.26 20.63C208.22 20.63 208.18 20.68 208.15 20.71C208.11 20.77 208.16 20.85 208.3 20.86C208.47 20.87 208.64 20.83 208.82 20.81C209.04 20.79 209.17 20.69 209.09 20.61C209.01 20.54 208.9 20.52 208.78 20.56ZM21.72 15.24C21.84 15.22 21.96 15.21 22.07 15.2C22.18 15.18 22.26 15.12 22.31 15.04C22.22 14.98 22.12 14.94 22.01 14.95C21.84 14.96 21.67 14.98 21.5 15.01C21.39 15.02 21.29 15.08 21.26 15.16C21.24 15.23 21.48 15.27 21.72 15.24ZM193.75 14.85C193.79 14.87 193.84 14.92 193.89 14.92C194 14.92 194.12 14.9 194.22 14.88C194.27 14.87 194.31 14.82 194.33 14.79C194.34 14.77 194.34 14.73 194.32 14.71C194.21 14.59 193.8 14.63 193.73 14.77C193.73 14.79 193.74 14.82 193.75 14.85ZM182.54 1.2C182.55 1.24 182.55 1.28 182.56 1.32C182.59 1.39 182.67 1.45 182.79 1.49C182.87 1.42 182.92 1.35 182.92 1.28C182.91 1.24 182.9 1.2 182.89 1.16C182.86 1.08 182.78 1.03 182.67 0.99C182.58 1.05 182.54 1.12 182.54 1.2ZM247.81 33.87C247.78 33.9 247.75 33.93 247.71 33.96C247.81 34.03 247.9 34.06 247.97 34.02C248.01 33.99 248.03 33.95 248.07 33.92C247.97 33.85 247.88 33.83 247.81 33.87ZM245.6 34.21C245.65 34.23 245.69 34.26 245.74 34.27C245.82 34.3 245.9 34.26 245.95 34.17C245.91 34.14 245.87 34.11 245.82 34.1C245.73 34.07 245.66 34.12 245.6 34.21ZM247 33.75C246.98 33.81 247.03 33.86 247.16 33.9C247.19 33.87 247.23 33.84 247.26 33.8C247.29 33.75 247.23 33.69 247.1 33.65C247.07 33.68 247.04 33.72 247 33.75ZM239.5 31.06C239.48 31.12 239.53 31.17 239.66 31.21C239.69 31.18 239.73 31.15 239.75 31.12C239.79 31.06 239.73 31.01 239.6 30.97C239.57 31 239.53 31.03 239.5 31.06ZM229.28 13.42C229.25 13.45 229.22 13.49 229.18 13.52C229.28 13.59 229.37 13.61 229.43 13.57C229.48 13.55 229.5 13.51 229.53 13.48C229.44 13.4 229.35 13.38 229.28 13.42ZM219.49 4.06C219.58 4.08 219.65 4.04 219.71 3.95C219.66 3.93 219.62 3.9 219.57 3.88C219.49 3.86 219.41 3.9 219.36 3.99C219.4 4.02 219.45 4.04 219.49 4.06ZM214.29 3.48C214.26 3.51 214.23 3.54 214.19 3.57C214.29 3.64 214.38 3.66 214.45 3.63C214.49 3.6 214.51 3.56 214.55 3.53C214.45 3.46 214.36 3.44 214.29 3.48ZM179.04 1.2C179.01 1.23 178.98 1.26 178.94 1.29C179.04 1.36 179.13 1.39 179.19 1.35C179.24 1.32 179.26 1.28 179.29 1.25C179.2 1.18 179.11 1.16 179.04 1.2ZM3.5 21.48C3.46 21.46 3.41 21.44 3.37 21.41C3.26 21.48 3.23 21.54 3.29 21.59C3.32 21.62 3.38 21.64 3.42 21.66C3.53 21.59 3.56 21.53 3.5 21.48Z" fill="#FFE492" fill-opacity="1.000000" fill-rule="nonzero"/>
</svg>
