<svg width="710.000000" height="661.000000" viewBox="0 0 710 661" fill="none" xmlns="http://www.w3.org/2000/svg" xmlns:xlink="http://www.w3.org/1999/xlink">
	<desc>
			Created with Pixso.
	</desc>
	<defs>
		<filter id="filter_107_53607_dd" x="277.000000" y="246.000000" width="178.000000" height="178.000000" filterUnits="userSpaceOnUse" color-interpolation-filters="sRGB">
			<feFlood flood-opacity="0" result="BackgroundImageFix"/>
			<feColorMatrix in="SourceAlpha" type="matrix" values="0 0 0 0 0 0 0 0 0 0 0 0 0 0 0 0 0 0 127 0" result="hardAlpha"/>
			<feMorphology radius="-11" in="" result="BackgroundImageFix"/>
			<feOffset dx="0" dy="4"/>
			<feGaussianBlur stdDeviation="16.6667"/>
			<feComposite in2="hardAlpha" operator="out" k2="-1" k3="1"/>
			<feColorMatrix type="matrix" values="0 0 0 0 0 0 0 0 0 0 0 0 0 0 0 0 0 0 0.25 0"/>
			<feBlend mode="normal" in2="BackgroundImageFix" result="effect_dropShadow_1"/>
			<feBlend mode="normal" in="SourceGraphic" in2="effect_dropShadow_1" result="shape"/>
		</filter>
		<clipPath id="clip107_53608">
			<rect id="Logo Icon" rx="-0.500000" width="56.000000" height="43.000000" transform="translate(338.500000 309.500000)" fill="white" fill-opacity="0"/>
		</clipPath>
	</defs>
	<circle id="Ellipse 5" cx="365.500000" cy="330.500000" r="329.500000" stroke="#A7CEFC" stroke-opacity="1.000000" stroke-width="2.000000" stroke-dasharray="15 15"/>
	<circle id="Ellipse 6" cx="365.500000" cy="330.500000" r="192.500000" stroke="#A7CEFC" stroke-opacity="1.000000" stroke-width="2.000000" stroke-dasharray="15 15"/>
	<circle id="Ellipse 2" cx="35.000000" cy="331.000000" r="35.000000" fill="#FF5758" fill-opacity="1.000000"/>
	<circle id="Ellipse 14" cx="559.000000" cy="331.000000" r="35.000000" fill="#37A3FF" fill-opacity="1.000000"/>
	<circle id="Ellipse 13" cx="366.000000" cy="524.000000" r="35.000000" fill="#FFBF60" fill-opacity="1.000000"/>
	<circle id="Ellipse 10" cx="172.000000" cy="331.000000" r="35.000000" fill="#37A3FF" fill-opacity="1.000000"/>
	<circle id="Ellipse 10" cx="172.000000" cy="603.000000" r="35.000000" fill="#37A3FF" fill-opacity="1.000000"/>
	<circle id="Ellipse 10" cx="599.000000" cy="106.000000" r="35.000000" fill="#37A3FF" fill-opacity="1.000000"/>
	<mask id="mask107_52981" mask-type="alpha" maskUnits="userSpaceOnUse" x="564.000000" y="71.000000" width="70.000000" height="70.000000">
		<circle id="Ellipse 5" cx="599.000000" cy="106.000000" r="35.000000" fill="#C4C4C4" fill-opacity="1.000000"/>
	</mask>
	<circle id="Ellipse 17" cx="675.000000" cy="436.000000" r="35.000000" fill="#00CA75" fill-opacity="1.000000"/>
	<mask id="mask107_53093" mask-type="alpha" maskUnits="userSpaceOnUse" x="640.000000" y="401.000000" width="70.000000" height="70.000000">
		<circle id="Ellipse 4" cx="675.000000" cy="436.000000" r="35.000000" fill="#C4C4C4" fill-opacity="1.000000"/>
	</mask>
	<circle id="Ellipse 17" cx="367.000000" cy="137.000000" r="35.000000" fill="#00CA75" fill-opacity="1.000000"/>
	<mask id="mask107_53237" mask-type="alpha" maskUnits="userSpaceOnUse" x="332.000000" y="102.000000" width="70.000000" height="70.000000">
		<circle id="Ellipse 4" cx="367.000000" cy="137.000000" r="35.000000" fill="#C4C4C4" fill-opacity="1.000000"/>
	</mask>
	<circle id="Ellipse 16" cx="175.000000" cy="58.000000" r="35.000000" fill="#FFDC4D" fill-opacity="1.000000"/>
	<g filter="url(#filter_107_53607_dd)">
		<rect id="Rectangle 366" x="316.000000" y="281.000000" rx="10.000000" width="100.000000" height="100.000000" fill="#FFFFFF" fill-opacity="1.000000"/>
	</g>
	<rect id="Logo Icon" rx="-0.500000" width="56.000000" height="43.000000" transform="translate(338.500000 309.500000)" fill="#FFFFFF" fill-opacity="0"/>
	<g clip-path="url(#clip107_53608)">
		<path id="Vector" d="M338 312.58L338 322.83C338 325.95 341.86 327.61 344.22 325.43L355.48 315.18C357.94 312.95 356.33 309 352.96 309L341.7 309C339.66 309 338 310.61 338 312.58Z" fill="#5986EF" fill-opacity="1.000000" fill-rule="nonzero"/>
		<path id="Vector" d="M391.3 309L380.04 309C376.71 309 375.05 312.95 377.51 315.18L388.78 325.43C391.13 327.56 395 325.95 395 322.83L395 312.58C395 310.61 393.33 309 391.3 309Z" fill="#5986EF" fill-opacity="1.000000" fill-rule="nonzero"/>
		<path id="Vector" d="M369.04 334.01L388.78 352.01C391.13 354.14 395 352.53 395 349.41L395 339.06C395 338.07 394.57 337.13 393.82 336.46L369.04 313.83C367.59 312.53 365.4 312.53 363.95 313.83L339.18 336.46C338.42 337.13 338 338.07 338 339.06L338 349.41C338 352.53 341.86 354.19 344.22 352.01L363.95 334.01C365.4 332.71 367.59 332.71 369.04 334.01Z" fill="#5986EF" fill-opacity="1.000000" fill-rule="nonzero"/>
	</g>
</svg>
