<svg width="165.943787" height="15.273438" viewBox="0 0 165.944 15.2734" fill="none" xmlns="http://www.w3.org/2000/svg" xmlns:xlink="http://www.w3.org/1999/xlink">
	<desc>
			Created with Pixso.
	</desc>
	<defs/>
	<path id="©2021 Whitepace LLC." d="M79.55 0.91C79.55 1.41 79.12 1.81 78.6 1.81C78.07 1.81 77.64 1.41 77.64 0.91C77.64 0.41 78.07 0 78.6 0C79.12 0 79.55 0.41 79.55 0.91ZM12 6.18C12.01 9.49 9.32 12.18 6 12.18C2.69 12.18 -0.01 9.49 1.52e-5 6.18C0.01 2.87 2.69 0.18 6 0.18C9.32 0.18 11.99 2.87 12 6.18ZM21.54 12L14.2 12L14.2 10.97L18.04 6.77C19.39 5.3 20.02 4.5 20.02 3.43C20.02 2.2 19.05 1.43 17.79 1.43C16.44 1.43 15.58 2.31 15.58 3.63L14.25 3.63C14.25 1.58 15.8 0.2 17.83 0.2C19.88 0.2 21.33 1.63 21.33 3.43C21.33 4.72 20.75 5.72 18.75 7.86L16.13 10.66L16.13 10.75L21.54 10.75L21.54 12ZM31.4 6.18C31.4 9.98 29.92 12.16 27.36 12.16C24.79 12.16 23.31 9.98 23.31 6.18C23.31 2.41 24.81 0.2 27.36 0.2C29.9 0.2 31.4 2.41 31.4 6.18ZM40.58 12L33.24 12L33.24 10.97L37.08 6.77C38.43 5.3 39.06 4.5 39.06 3.43C39.06 2.2 38.1 1.43 36.83 1.43C35.49 1.43 34.63 2.31 34.63 3.63L33.29 3.63C33.29 1.58 34.84 0.2 36.88 0.2C38.92 0.2 40.38 1.63 40.38 3.43C40.38 4.72 39.79 5.72 37.79 7.86L35.17 10.66L35.17 10.75L40.58 10.75L40.58 12ZM157.49 0.2C159.83 0.2 161.74 1.61 162.17 4L160.76 4C160.42 2.38 159.03 1.52 157.49 1.52C155.37 1.52 153.71 3.16 153.71 6.18C153.71 9.2 155.37 10.83 157.49 10.83C159.03 10.83 160.42 9.97 160.76 8.36L162.17 8.36C161.74 10.75 159.83 12.16 157.49 12.16C154.51 12.16 152.35 9.86 152.35 6.18C152.35 2.5 154.51 0.2 157.49 0.2ZM45.29 0.36L46.7 0.36L46.7 12L45.29 12L45.29 1.83L45.22 1.83L42.38 3.72L42.38 2.29L45.29 0.36ZM57.67 12L56.21 12L53.03 0.36L54.46 0.36L56.89 9.83L57.01 9.83L59.49 0.36L61.08 0.36L63.55 9.83L63.67 9.83L66.1 0.36L67.53 0.36L64.35 12L62.89 12L60.33 2.72L60.24 2.72L57.67 12ZM72.42 4.36C71.09 4.36 70.12 5.22 70.12 6.75L70.12 12L68.78 12L68.78 0.36L70.12 0.36L70.12 4.63L70.24 4.63C70.64 3.73 71.43 3.16 72.8 3.16C74.59 3.16 75.78 4.21 75.78 6.45L75.78 12L74.44 12L74.44 6.54C74.44 5.16 73.68 4.36 72.42 4.36ZM142.72 12L135.9 12L135.9 0.36L137.31 0.36L137.31 10.75L142.72 10.75L142.72 12ZM151.4 12L144.58 12L144.58 0.36L145.99 0.36L145.99 10.75L151.4 10.75L151.4 12ZM83.32 3.27L85.19 3.27L85.19 4.41L83.32 4.41L83.32 9.5C83.32 10.63 83.89 10.81 84.48 10.81C84.78 10.81 84.96 10.77 85.07 10.75L85.35 11.95C85.16 12.02 84.85 12.11 84.35 12.11C83.21 12.11 81.98 11.38 81.98 9.86L81.98 4.41L80.66 4.41L80.66 3.27L81.98 3.27L81.98 1.18L83.32 1.18L83.32 3.27ZM24.67 6.18C24.67 9.21 25.67 10.91 27.36 10.91C29.05 10.91 30.04 9.21 30.04 6.18C30.04 3.16 29.04 1.43 27.36 1.43C25.67 1.43 24.67 3.16 24.67 6.18ZM1.32 6.18C1.3 8.75 3.41 10.86 6 10.86C8.59 10.86 10.69 8.76 10.68 6.18C10.67 3.58 8.58 1.5 6 1.5C3.42 1.5 1.33 3.6 1.32 6.18ZM6.05 9.55C4.19 9.55 2.68 8.04 2.68 6.18C2.68 4.31 4.19 2.8 6.05 2.8C7.67 2.8 9.02 3.94 9.24 5.45L7.86 5.45C7.71 4.67 6.93 4.12 6.05 4.12C4.92 4.12 4 5.04 4 6.18C4 7.31 4.92 8.23 6.05 8.23C6.93 8.23 7.59 7.68 7.75 6.91L9.12 6.91C8.91 8.42 7.67 9.55 6.05 9.55ZM93.93 9.97C93.52 11.29 92.23 12.18 90.46 12.18C87.93 12.18 86.39 10.38 86.39 7.7C86.39 5.02 87.96 3.16 90.32 3.16C92.14 3.16 94.07 4.27 94.07 7.52L94.07 8.08L87.73 8.08C87.8 9.96 88.88 10.97 90.46 10.97C91.51 10.97 92.3 10.52 92.64 9.61L93.93 9.97ZM97.13 15.27L95.79 15.27L95.79 3.27L97.09 3.27L97.09 4.66L97.25 4.66C97.54 4.2 98.07 3.16 99.77 3.16C101.98 3.16 103.5 4.91 103.5 7.66C103.5 10.43 101.98 12.18 99.79 12.18C98.11 12.18 97.54 11.13 97.25 10.66L97.13 10.66L97.13 15.27ZM110.38 10.81C110.11 11.38 109.31 12.2 107.8 12.2C106.13 12.2 104.81 11.22 104.81 9.52C104.81 7.52 106.58 7.16 108.2 6.95C109.8 6.75 110.45 6.8 110.45 6.16L110.45 6.11C110.45 4.99 109.85 4.33 108.61 4.33C107.33 4.33 106.63 5.02 106.34 5.66L105.06 5.2C105.75 3.61 107.25 3.16 108.56 3.16C109.68 3.16 111.8 3.47 111.8 6.25L111.8 12L110.45 12L110.45 10.81L110.38 10.81ZM120.9 9.45C120.68 11 119.4 12.18 117.47 12.18C115.02 12.18 113.52 10.29 113.52 7.68C113.52 5.02 115.09 3.16 117.45 3.16C119.29 3.16 120.68 4.25 120.9 5.88L119.56 5.88C119.36 5.08 118.65 4.36 117.47 4.36C115.9 4.36 114.86 5.66 114.86 7.63C114.86 9.66 115.88 10.97 117.47 10.97C118.52 10.97 119.31 10.41 119.56 9.45L120.9 9.45ZM129.68 9.97C129.27 11.29 127.97 12.18 126.2 12.18C123.68 12.18 122.13 10.38 122.13 7.7C122.13 5.02 123.7 3.16 126.06 3.16C127.88 3.16 129.81 4.27 129.81 7.52L129.81 8.08L123.48 8.08C123.54 9.96 124.63 10.97 126.2 10.97C127.25 10.97 128.04 10.52 128.38 9.61L129.68 9.97ZM79.25 12L77.91 12L77.91 3.27L79.25 3.27L79.25 12ZM90.32 4.36C88.78 4.36 87.82 5.57 87.73 6.93L92.71 6.93C92.71 5.45 91.77 4.36 90.32 4.36ZM99.61 4.36C97.98 4.36 97.11 5.68 97.11 7.63C97.11 9.61 98 10.97 99.61 10.97C101.29 10.97 102.16 9.5 102.16 7.63C102.16 5.79 101.32 4.36 99.61 4.36ZM126.06 4.36C124.53 4.36 123.57 5.57 123.48 6.93L128.45 6.93C128.45 5.45 127.52 4.36 126.06 4.36ZM106.16 9.58C106.16 10.52 106.93 11 108 11C109.59 11 110.45 9.93 110.45 8.83L110.45 7.61C110.22 7.88 108.7 8.04 108.13 8.11C107.09 8.25 106.16 8.56 106.16 9.58ZM165.94 11.06C165.94 11.62 165.48 12.08 164.92 12.08C164.35 12.08 163.9 11.62 163.9 11.06C163.9 10.5 164.35 10.04 164.92 10.04C165.48 10.04 165.94 10.5 165.94 11.06Z" fill="#FFFFFF" fill-opacity="1.000000" fill-rule="evenodd"/>
</svg>
