<svg width="287.000000" height="62.000000" viewBox="0 0 287 62" fill="none" xmlns="http://www.w3.org/2000/svg" xmlns:xlink="http://www.w3.org/1999/xlink">
	<desc>
			Created with Pixso.
	</desc>
	<defs>
		<clipPath id="clip9_2499">
			<rect id="microsoft 1" rx="0.000000" width="286.000000" height="61.000000" transform="translate(0.500000 0.500000)" fill="white" fill-opacity="0"/>
		</clipPath>
	</defs>
	<rect id="microsoft 1" rx="0.000000" width="286.000000" height="61.000000" transform="translate(0.500000 0.500000)" fill="#FFFFFF" fill-opacity="0"/>
	<g clip-path="url(#clip9_2499)">
		<path id="Vector" d="M287 28.04L287 22.94L280.73 22.94L280.73 15L280.52 15.07L274.63 16.89L274.51 16.93L274.51 22.94L265.22 22.94L265.22 19.59C265.22 18.03 265.57 16.84 266.25 16.04C266.92 15.25 267.89 14.85 269.12 14.85C270 14.85 270.92 15.07 271.84 15.48L272.07 15.59L272.07 10.21L271.96 10.17C271.1 9.86 269.93 9.7 268.48 9.7C266.65 9.7 264.99 10.1 263.54 10.9C262.09 11.7 260.95 12.84 260.16 14.29C259.36 15.73 258.96 17.41 258.96 19.26L258.96 22.94L254.59 22.94L254.59 28.04L258.96 28.04L258.96 49.55L265.22 49.55L265.22 28.04L274.51 28.04L274.51 41.71C274.51 47.34 277.14 50.19 282.32 50.19C283.17 50.19 284.06 50.09 284.98 49.89C285.91 49.69 286.54 49.49 286.91 49.27L287 49.22L287 44.07L286.74 44.24C286.4 44.47 285.98 44.66 285.48 44.8C284.98 44.94 284.57 45.01 284.24 45.01C283.03 45.01 282.13 44.68 281.58 44.03C281.01 43.37 280.73 42.22 280.73 40.61L280.73 28.04L287 28.04ZM240.6 45.01C238.33 45.01 236.53 44.25 235.27 42.75C234 41.24 233.35 39.08 233.35 36.35C233.35 33.53 234 31.32 235.27 29.78C236.53 28.26 238.31 27.48 240.55 27.48C242.72 27.48 244.45 28.22 245.69 29.68C246.93 31.15 247.57 33.34 247.57 36.19C247.57 39.08 246.97 41.3 245.8 42.79C244.64 44.26 242.89 45.01 240.6 45.01ZM240.88 22.3C236.54 22.3 233.09 23.58 230.64 26.12C228.18 28.66 226.94 32.17 226.94 36.55C226.94 40.72 228.15 44.07 230.55 46.51C232.95 48.95 236.21 50.19 240.24 50.19C244.45 50.19 247.83 48.89 250.28 46.32C252.74 43.75 253.98 40.27 253.98 35.99C253.98 31.76 252.82 28.38 250.51 25.95C248.21 23.53 244.97 22.3 240.88 22.3ZM216.83 22.3C213.88 22.3 211.44 23.06 209.58 24.57C207.7 26.08 206.75 28.07 206.75 30.47C206.75 31.72 206.96 32.83 207.36 33.77C207.77 34.72 208.4 35.55 209.23 36.24C210.06 36.94 211.34 37.66 213.04 38.4C214.47 38.99 215.53 39.5 216.21 39.89C216.87 40.28 217.34 40.67 217.6 41.05C217.86 41.42 217.99 41.93 217.99 42.56C217.99 44.35 216.67 45.22 213.94 45.22C212.93 45.22 211.78 45 210.52 44.58C209.26 44.17 208.08 43.56 207.01 42.78L206.75 42.59L206.75 48.69L206.84 48.74C207.73 49.15 208.85 49.5 210.17 49.78C211.48 50.05 212.68 50.19 213.71 50.19C216.92 50.19 219.49 49.42 221.38 47.91C223.27 46.39 224.23 44.35 224.23 41.87C224.23 40.07 223.71 38.53 222.7 37.29C221.68 36.06 219.93 34.93 217.48 33.94C215.53 33.14 214.28 32.49 213.76 31.98C213.27 31.49 213.01 30.8 213.01 29.93C213.01 29.16 213.33 28.54 213.97 28.04C214.61 27.53 215.51 27.27 216.63 27.27C217.68 27.27 218.74 27.44 219.81 27.77C220.87 28.1 221.8 28.53 222.58 29.07L222.83 29.25L222.83 23.46L222.74 23.42C222.02 23.1 221.07 22.84 219.92 22.62C218.78 22.41 217.74 22.3 216.83 22.3ZM190.42 45.01C188.14 45.01 186.35 44.25 185.09 42.75C183.81 41.24 183.17 39.08 183.17 36.35C183.17 33.53 183.82 31.32 185.09 29.78C186.35 28.26 188.13 27.48 190.37 27.48C192.54 27.48 194.27 28.22 195.51 29.68C196.75 31.15 197.38 33.34 197.38 36.19C197.38 39.08 196.79 41.3 195.62 42.79C194.45 44.26 192.7 45.01 190.42 45.01ZM190.7 22.3C186.36 22.3 182.91 23.58 180.45 26.12C178 28.66 176.75 32.17 176.75 36.55C176.75 40.72 177.97 44.07 180.37 46.51C182.76 48.95 186.03 50.19 190.06 50.19C194.27 50.19 197.64 48.89 200.1 46.32C202.56 43.75 203.8 40.27 203.8 35.99C203.8 31.76 202.63 28.38 200.33 25.95C198.02 23.53 194.78 22.3 190.7 22.3ZM167.24 27.55L167.24 22.94L161.05 22.94L161.05 49.55L167.24 49.55L167.24 35.94C167.24 33.62 167.76 31.72 168.79 30.28C169.8 28.87 171.14 28.15 172.79 28.15C173.35 28.15 173.97 28.24 174.65 28.42C175.32 28.61 175.81 28.8 176.09 29.01L176.35 29.2L176.35 22.89L176.25 22.85C175.68 22.6 174.86 22.48 173.83 22.48C172.27 22.48 170.88 22.98 169.69 23.98C168.64 24.85 167.89 26.05 167.31 27.55L167.24 27.55ZM149.97 22.3C147.13 22.3 144.6 22.91 142.44 24.13C140.28 25.34 138.62 27.08 137.48 29.29C136.35 31.49 135.78 34.07 135.78 36.94C135.78 39.45 136.33 41.76 137.43 43.79C138.53 45.83 140.09 47.42 142.06 48.53C144.03 49.63 146.31 50.19 148.83 50.19C151.77 50.19 154.28 49.6 156.3 48.42L156.38 48.38L156.38 42.64L156.12 42.83C155.2 43.51 154.19 44.04 153.09 44.43C152 44.81 151 45.01 150.12 45.01C147.69 45.01 145.75 44.24 144.33 42.73C142.91 41.21 142.19 39.08 142.19 36.4C142.19 33.7 142.94 31.52 144.42 29.9C145.89 28.3 147.85 27.48 150.23 27.48C152.26 27.48 154.24 28.18 156.12 29.55L156.38 29.74L156.38 23.7L156.29 23.65C155.59 23.25 154.62 22.92 153.43 22.67C152.24 22.42 151.08 22.3 149.97 22.3ZM131.51 22.94L125.32 22.94L125.32 49.55L131.51 49.55L131.51 22.94ZM128.48 11.6C127.46 11.6 126.57 11.95 125.84 12.65C125.11 13.35 124.74 14.22 124.74 15.26C124.74 16.28 125.11 17.14 125.83 17.82C126.55 18.5 127.45 18.84 128.48 18.84C129.52 18.84 130.41 18.5 131.14 17.82C131.88 17.14 132.25 16.28 132.25 15.26C132.25 14.26 131.89 13.39 131.17 12.68C130.46 11.97 129.55 11.6 128.48 11.6ZM113.04 20.98L113.04 49.55L119.36 49.55L119.36 12.42L110.61 12.42L99.5 40L88.72 12.42L79.62 12.42L79.62 49.55L85.56 49.55L85.56 20.97L85.76 20.97L97.15 49.55L101.63 49.55L112.84 20.98L113.04 20.98Z" fill="#706D6E" fill-opacity="1.000000" fill-rule="nonzero"/>
		<path id="Vector" d="M29.11 29.46L-3.06e-5 29.46L-3.06e-5 0.01L29.11 0.01L29.11 29.46Z" fill="#F1511B" fill-opacity="1.000000" fill-rule="nonzero"/>
		<path id="Vector" d="M61.26 29.46L32.14 29.46L32.14 0.01L61.26 0.01L61.26 29.46Z" fill="#80CC28" fill-opacity="1.000000" fill-rule="nonzero"/>
		<path id="Vector" d="M29.11 61.98L-3.06e-5 61.98L-3.06e-5 32.53L29.11 32.53L29.11 61.98Z" fill="#00ADEF" fill-opacity="1.000000" fill-rule="nonzero"/>
		<path id="Vector" d="M61.26 61.98L32.14 61.98L32.14 32.53L61.26 32.53L61.26 61.98Z" fill="#FBBC09" fill-opacity="1.000000" fill-rule="nonzero"/>
	</g>
</svg>
