<svg width="55.468872" height="68.000244" viewBox="0 0 55.4689 68.0002" fill="none" xmlns="http://www.w3.org/2000/svg" xmlns:xlink="http://www.w3.org/1999/xlink">
	<desc>
			Created with Pixso.
	</desc>
	<defs/>
	<path id="Vector" d="M46.36 38.11C44.49 28.7 53.43 23.18 53.43 23.18C53.43 23.18 49.95 18.14 44.1 16.84C38.25 15.55 35.32 17.17 32.4 18.38C29.48 19.6 28.02 19.6 28.02 19.6C23.8 19.6 20.71 15.14 12.67 17.17C7.13 18.57 1.3 24.96 0.25 32.59C-0.8 40.23 1.47 49.97 5.85 57.52C10.24 65.07 14.7 67.91 17.87 67.99C21.04 68.07 24.2 65.72 28.02 65.15C31.83 64.58 34.18 66.53 37.93 67.59C41.66 68.64 42.96 67.66 47.26 64.01C51.57 60.36 55.46 49.88 55.46 49.88C55.46 49.88 48.23 47.53 46.36 38.11Z" fill="#000000" fill-opacity="1.000000" fill-rule="nonzero"/>
	<path id="Vector" d="M38.08 10.75C42.22 6.53 40.82 0 40.82 0C40.82 0 35 1.02 31.1 5.07C27.21 9.13 27.85 15.54 27.85 15.54C27.85 15.54 33.94 14.97 38.08 10.75Z" fill="#000000" fill-opacity="1.000000" fill-rule="nonzero"/>
</svg>
