<svg width="280.000000" height="71.000000" viewBox="0 0 280 71" fill="none" xmlns="http://www.w3.org/2000/svg" xmlns:xlink="http://www.w3.org/1999/xlink">
	<desc>
			Created with Pixso.
	</desc>
	<defs>
		<clipPath id="clip9_2506">
			<rect id="Slack_Technologies_Logo 1" rx="0.000000" width="279.000000" height="70.000000" transform="translate(0.500000 0.500000)" fill="white" fill-opacity="0"/>
		</clipPath>
	</defs>
	<rect id="Slack_Technologies_Logo 1" rx="0.000000" width="279.000000" height="70.000000" transform="translate(0.500000 0.500000)" fill="#FFFFFF" fill-opacity="0"/>
	<g clip-path="url(#clip9_2506)">
		<path id="Vector" d="M89.67 55.62L93.16 47.57C96.93 50.37 101.93 51.82 106.88 51.82C110.53 51.82 112.84 50.42 112.84 48.3C112.78 42.37 90.97 47.01 90.8 32.14C90.74 24.59 97.49 18.78 107.05 18.78C112.73 18.78 118.41 20.18 122.45 23.36L119.19 31.58C115.48 29.23 110.87 27.56 106.49 27.56C103.51 27.56 101.54 28.95 101.54 30.74C101.59 36.56 123.58 33.37 123.8 47.57C123.8 55.29 117.23 60.71 107.78 60.71C100.86 60.71 94.51 59.09 89.67 55.62ZM223.43 44.66C221.69 47.68 218.43 49.75 214.66 49.75C209.1 49.75 204.6 45.28 204.6 39.74C204.6 34.21 209.1 29.74 214.66 29.74C218.43 29.74 221.69 31.81 223.43 34.82L233.05 29.51C229.45 23.14 222.53 18.78 214.66 18.78C203.02 18.78 193.58 28.17 193.58 39.74C193.58 51.32 203.02 60.71 214.66 60.71C222.59 60.71 229.45 56.4 233.05 49.97L223.43 44.66ZM128.64 1.39L140.67 1.39L140.67 59.93L128.64 59.93L128.64 1.39ZM237.77 1.39L237.77 59.93L249.8 59.93L249.8 42.37L264.08 59.93L279.49 59.93L261.33 39.07L278.14 19.62L263.41 19.62L249.8 35.77L249.8 1.39L237.77 1.39ZM176.43 44.78C174.69 47.63 171.09 49.75 167.04 49.75C161.47 49.75 156.98 45.28 156.98 39.74C156.98 34.21 161.47 29.74 167.04 29.74C171.09 29.74 174.69 31.97 176.43 34.88L176.43 44.78ZM176.43 19.62L176.43 24.37C174.46 21.07 169.57 18.78 164.45 18.78C153.88 18.78 145.56 28.06 145.56 39.69C145.56 51.32 153.88 60.71 164.45 60.71C169.57 60.71 174.46 58.42 176.43 55.12L176.43 59.87L188.46 59.87L188.46 19.62L176.43 19.62Z" fill="#000000" fill-opacity="1.000000" fill-rule="nonzero"/>
		<path id="Vector" d="M15.29 44.72C15.29 48.8 11.97 52.1 7.87 52.1C3.76 52.1 0.45 48.8 0.45 44.72C0.45 40.64 3.76 37.34 7.87 37.34L15.29 37.34L15.29 44.72ZM19 44.72C19 40.64 22.32 37.34 26.42 37.34C30.53 37.34 33.84 40.64 33.84 44.72L33.84 63.17C33.84 67.25 30.53 70.55 26.42 70.55C22.32 70.55 19 67.25 19 63.17L19 44.72Z" fill="#E01E5A" fill-opacity="1.000000" fill-rule="nonzero"/>
		<path id="Vector" d="M26.42 15.09C22.32 15.09 19 11.79 19 7.71C19 3.63 22.32 0.33 26.42 0.33C30.53 0.33 33.84 3.63 33.84 7.71L33.84 15.09L26.42 15.09ZM26.42 18.84C30.53 18.84 33.84 22.13 33.84 26.21C33.84 30.3 30.53 33.59 26.42 33.59L7.81 33.59C3.71 33.59 0.39 30.3 0.39 26.21C0.39 22.13 3.71 18.84 7.81 18.84L26.42 18.84Z" fill="#36C5F0" fill-opacity="1.000000" fill-rule="nonzero"/>
		<path id="Vector" d="M56.16 26.21C56.16 22.13 59.48 18.84 63.59 18.84C67.69 18.84 71.01 22.13 71.01 26.21C71.01 30.3 67.69 33.59 63.59 33.59L56.16 33.59L56.16 26.21ZM52.45 26.21C52.45 30.3 49.14 33.59 45.03 33.59C40.93 33.59 37.61 30.3 37.61 26.21L37.61 7.71C37.61 3.63 40.93 0.33 45.03 0.33C49.14 0.33 52.45 3.63 52.45 7.71L52.45 26.21Z" fill="#2EB67D" fill-opacity="1.000000" fill-rule="nonzero"/>
		<path id="Vector" d="M45.03 55.79C49.14 55.79 52.45 59.09 52.45 63.17C52.45 67.25 49.14 70.55 45.03 70.55C40.93 70.55 37.61 67.25 37.61 63.17L37.61 55.79L45.03 55.79ZM45.03 52.1C40.93 52.1 37.61 48.8 37.61 44.72C37.61 40.64 40.93 37.34 45.03 37.34L63.64 37.34C67.75 37.34 71.06 40.64 71.06 44.72C71.06 48.8 67.75 52.1 63.64 52.1L45.03 52.1Z" fill="#ECB22E" fill-opacity="1.000000" fill-rule="nonzero"/>
	</g>
</svg>
