<svg width="210.996338" height="69.813965" viewBox="0 0 210.996 69.814" fill="none" xmlns="http://www.w3.org/2000/svg" xmlns:xlink="http://www.w3.org/1999/xlink">
	<desc>
			Created with Pixso.
	</desc>
	<defs/>
	<path id="Vector" d="M90.29 36.73C90.29 46.78 82.47 54.18 72.88 54.18C63.28 54.18 55.47 46.78 55.47 36.73C55.47 26.62 63.28 19.29 72.88 19.29C82.47 19.29 90.29 26.62 90.29 36.73ZM82.67 36.73C82.67 30.46 78.14 26.16 72.88 26.16C67.62 26.16 63.09 30.46 63.09 36.73C63.09 42.95 67.62 47.31 72.88 47.31C78.14 47.31 82.67 42.94 82.67 36.73Z" fill="#EA4335" fill-opacity="1.000000" fill-rule="nonzero"/>
	<path id="Vector" d="M127.85 36.73C127.85 46.78 120.03 54.18 110.44 54.18C100.85 54.18 93.03 46.78 93.03 36.73C93.03 26.63 100.85 19.29 110.44 19.29C120.03 19.29 127.85 26.62 127.85 36.73ZM120.23 36.73C120.23 30.46 115.7 26.16 110.44 26.16C105.18 26.16 100.65 30.46 100.65 36.73C100.65 42.95 105.18 47.31 110.44 47.31C115.7 47.31 120.23 42.94 120.23 36.73Z" fill="#FBBC05" fill-opacity="1.000000" fill-rule="nonzero"/>
	<path id="Vector" d="M163.85 20.34L163.85 51.66C163.85 64.55 156.29 69.81 147.35 69.81C138.94 69.81 133.88 64.15 131.97 59.53L138.6 56.75C139.78 59.59 142.68 62.94 147.34 62.94C153.06 62.94 156.61 59.39 156.61 52.72L156.61 50.21L156.34 50.21C154.64 52.32 151.35 54.17 147.2 54.17C138.52 54.17 130.57 46.57 130.57 36.8C130.57 26.95 138.52 19.29 147.2 19.29C151.34 19.29 154.63 21.14 156.34 23.19L156.61 23.19L156.61 20.35L163.85 20.35L163.85 20.34ZM157.15 36.8C157.15 30.65 153.07 26.16 147.88 26.16C142.62 26.16 138.22 30.65 138.22 36.8C138.22 42.88 142.62 47.31 147.88 47.31C153.07 47.31 157.15 42.88 157.15 36.8Z" fill="#4285F4" fill-opacity="1.000000" fill-rule="nonzero"/>
	<path id="Vector" d="M175.78 1.98L175.78 53.11L168.35 53.11L168.35 1.98L175.78 1.98Z" fill="#34A853" fill-opacity="1.000000" fill-rule="nonzero"/>
	<path id="Vector" d="M204.75 42.48L210.66 46.44C208.75 49.28 204.15 54.17 196.2 54.17C186.34 54.17 178.98 46.51 178.98 36.73C178.98 26.35 186.41 19.28 195.35 19.28C204.36 19.28 208.76 26.49 210.2 30.38L210.99 32.36L187.79 42.02C189.57 45.52 192.33 47.31 196.2 47.31C200.08 47.31 202.78 45.39 204.75 42.48ZM186.54 36.2L202.05 29.73C201.19 27.55 198.63 26.03 195.61 26.03C191.73 26.03 186.34 29.47 186.54 36.2Z" fill="#EA4335" fill-opacity="1.000000" fill-rule="nonzero"/>
	<path id="Vector" d="M27.33 32.2L27.33 24.79L52.14 24.79C52.38 26.08 52.51 27.61 52.51 29.26C52.51 34.82 51 41.68 46.13 46.57C41.4 51.53 35.35 54.17 27.34 54.17C12.48 54.17 0 42.01 0 27.08C0 12.15 12.48 0 27.34 0C35.55 0 41.41 3.24 45.8 7.46L40.61 12.68C37.45 9.71 33.18 7.4 27.33 7.4C16.48 7.4 8 16.18 8 27.08C8 37.99 16.48 46.77 27.33 46.77C34.36 46.77 38.37 43.93 40.94 41.35C43.02 39.26 44.39 36.27 44.93 32.19L27.33 32.2Z" fill="#4285F4" fill-opacity="1.000000" fill-rule="nonzero"/>
</svg>
