<svg width="1485.000000" height="693.484619" viewBox="0 0 1485 693.485" fill="none" xmlns="http://www.w3.org/2000/svg" xmlns:xlink="http://www.w3.org/1999/xlink">
	<desc>
			Created with Pixso.
	</desc>
	<defs/>
	<g opacity="0.300000">
		<path id="Vector" d="M568.21 693.48C562.9 693.48 557.74 692.91 552.78 691.78C542.38 689.41 532.76 684.54 524.21 677.31C515.01 669.53 506.95 658.94 500.24 645.83C486.75 619.47 480 587.9 473.47 557.37C472.19 551.38 470.87 545.18 469.52 539.17C460.34 498.17 448.69 462.27 433.93 429.39C404.48 363.82 363.07 307.85 314.16 267.55C257.6 220.94 196.78 197.72 142.92 202.18C111.26 204.79 69.43 229.68 50.74 272.19C39.64 297.42 38.75 325.42 48.15 353.16L47.97 353.27C43.04 338.73 40.89 324.15 41.58 309.93C42.22 296.89 45.24 284.15 50.56 272.05C59.02 252.81 72.98 235.75 90.92 222.73C107.5 210.69 125.96 203.29 142.91 201.89C171.1 199.57 201.08 204.73 232.01 217.25C260.06 228.6 287.73 245.44 314.26 267.31C363.2 307.63 404.64 363.63 434.11 429.24C448.88 462.14 460.53 498.06 469.72 539.08C471.07 545.09 472.39 551.29 473.67 557.29C480.19 587.8 486.94 619.34 500.41 645.66C513.43 671.12 531.07 686.54 552.82 691.5C582.93 698.36 619.5 684.01 650.64 653.09C695.52 608.53 726.66 543.68 756.78 480.96C762.06 469.97 767.52 458.6 772.92 447.62C786.95 419.12 805.95 382.19 828.54 349.28C851.62 315.65 875.08 290.94 900.25 273.74C915.66 263.21 931.98 256.11 948.78 252.65C964.29 249.45 980.72 249.25 997.59 252.06C1026.53 256.86 1057.71 270.45 1092.92 293.58C1162.23 339.13 1231.46 394.41 1298.69 457.91C1362.61 518.25 1425.29 586.54 1485 660.86L1484.86 661.07C1361.09 507 1229.18 383.44 1092.81 293.83C1015.78 243.2 954.62 236.89 900.34 273.98C845.12 311.72 806.55 379.81 773.09 447.78C767.69 458.75 762.23 470.12 756.95 481.11C726.82 543.85 695.67 608.72 650.77 653.31C636.26 667.72 619.93 678.96 603.56 685.81C594.91 689.43 586.31 691.79 578 692.84C574.69 693.27 571.42 693.48 568.21 693.48Z" fill="#FFE492" fill-opacity="1.000000" fill-rule="nonzero"/>
		<path id="Vector" d="M573.39 677.85C559.87 677.85 547.34 674.35 536.14 667.43C523.66 659.73 512.88 647.78 504.12 631.93C503.34 630.53 502.57 629.08 501.83 627.62C488.48 601.37 481.44 570.21 474.62 540.08C473.24 533.99 471.82 527.69 470.38 521.58C461.77 485.19 451.41 453.11 438.7 423.53C437.14 419.88 435.51 416.23 433.88 412.68C404 347.67 362.24 292.41 313.13 252.88C256.16 207.07 195.18 184.81 141.41 190.21C109.99 193.4 68.35 218.7 49.57 260.89C38.33 286.15 37.06 314.2 45.89 342.02L45.7 342.13C41.07 327.55 39.17 312.94 40.05 298.71C40.86 285.64 44 272.87 49.4 260.74C57.95 241.53 71.86 224.46 89.63 211.37C106.06 199.27 124.44 191.65 141.39 189.94C169.55 187.11 199.56 191.78 230.6 203.82C258.71 214.73 286.51 231.15 313.24 252.64C362.37 292.19 404.15 347.48 434.05 412.53C435.69 416.09 437.31 419.74 438.88 423.39C451.59 452.99 461.96 485.08 470.57 521.5C472.01 527.61 473.44 533.91 474.82 540C481.63 570.11 488.67 601.25 502 627.46C502.74 628.91 503.51 630.37 504.28 631.77C522.4 664.52 547.28 677.85 573.46 677.85C573.6 677.85 573.74 677.85 573.89 677.85C573.72 677.85 573.56 677.85 573.39 677.85ZM578.98 677.65C603.31 675.95 628.42 663.24 649.96 644.32C696.42 603.34 729.82 540.05 762.11 478.84C763.44 476.32 764.77 473.8 766.1 471.28C769.02 465.76 772.48 459.22 776.02 452.62C791.87 423.05 811.05 388.64 833.14 357.66C856.65 324.71 880.13 300.25 904.93 282.89C920.17 272.24 936.28 264.74 952.8 260.59C968.11 256.75 984.29 255.66 1000.88 257.36C1029.55 260.3 1060.37 271.44 1095.12 291.42C1128.99 310.87 1156.82 329.18 1182.74 349.05C1219.43 377.21 1254.4 409.66 1283.76 437.69C1352.02 503.04 1418.99 577.25 1482.82 658.25L1482.68 658.46C1418.86 577.46 1351.9 503.26 1283.65 437.92C1254.29 409.9 1219.34 377.45 1182.64 349.29C1156.74 329.44 1128.9 311.13 1095.04 291.68C1019.35 248.15 958.97 245.44 905.03 283.14C849.04 322.32 809.16 391.25 776.18 452.79C772.65 459.38 769.19 465.92 766.27 471.45C764.94 473.97 763.61 476.49 762.28 479.01C729.97 540.24 696.57 603.55 650.07 644.56C638.54 654.68 626.27 662.73 613.6 668.46C601.81 673.79 590.19 676.88 578.98 677.65Z" fill="#FFE492" fill-opacity="1.000000" fill-rule="nonzero"/>
		<path id="Vector" d="M579.12 662.57C577.49 662.57 575.87 662.53 574.27 662.43C560.75 661.62 548.25 657.4 537.1 649.89C524.9 641.68 514.34 629.51 505.7 613.73C504.93 612.32 504.17 610.87 503.43 609.4C490.23 583.29 482.89 552.55 475.79 522.82C474.31 516.63 472.78 510.22 471.23 504C462.2 467.73 451.57 435.91 438.72 406.73C437.13 403.12 435.49 399.5 433.83 395.97C403.51 331.52 361.42 276.98 312.11 238.22C254.74 193.21 193.58 171.91 139.91 178.26C109.69 181.89 68.17 205.74 48.43 249.54C37.03 274.84 35.37 302.97 43.63 330.88L43.44 330.99C39.11 316.36 37.46 301.72 38.53 287.46C39.51 274.35 42.78 261.54 48.26 249.39C56.9 230.23 70.76 213.15 88.37 200C104.64 187.84 122.94 180.02 139.89 177.98C168.01 174.66 198.05 178.83 229.19 190.39C257.37 200.86 285.3 216.87 312.21 237.98C361.55 276.76 403.66 331.34 434 395.82C435.66 399.35 437.31 402.97 438.9 406.59C451.75 435.79 462.39 467.63 471.42 503.92C472.97 510.14 474.5 516.55 475.98 522.74C483.08 552.45 490.41 583.17 503.59 609.25C504.33 610.72 505.09 612.17 505.86 613.57C540.97 677.7 603.19 670.81 649.28 635.54C697.68 598.18 733.65 536.07 768.44 476.01L768.79 475.4C772.16 469.58 775.65 463.56 779.12 457.62C815.71 394.93 855.92 330.52 909.62 292.04C924.7 281.26 940.58 273.35 956.83 268.52C971.94 264.03 987.87 262.05 1004.18 262.66C1032.62 263.71 1063.09 272.41 1097.31 289.26C1133.31 306.9 1160.38 323.13 1185.12 341.85C1220.36 368.59 1254.5 402.38 1284.62 432.19C1351.69 498.93 1417.64 574.1 1480.65 655.62L1480.51 655.83C1417.51 574.31 1351.56 499.14 1284.5 432.42C1254.39 402.61 1220.25 368.83 1185.02 342.1C1160.29 323.37 1133.22 307.16 1097.25 289.52C1023.04 252.99 963.45 253.87 909.72 292.29C856.05 330.73 815.85 395.12 779.28 457.78C775.81 463.73 772.32 469.75 768.95 475.56L768.6 476.18C751.26 506.11 733.34 537.06 713.98 564.7C692.23 595.77 671.09 619.02 649.38 635.78C626.65 653.17 601.9 662.57 579.12 662.57Z" fill="#FFE492" fill-opacity="1.000000" fill-rule="nonzero"/>
		<path id="Vector" d="M1478.33 653.19C1416.15 571.15 1351.22 495.02 1285.36 426.91C1282.56 424.05 1279.77 421.17 1276.97 418.29C1248.43 388.92 1218.93 358.56 1187.4 334.9C1156.79 312.02 1125.78 298.02 1099.47 287.35C1026.86 257.72 968.05 262.2 914.41 301.43C859.33 341.82 816.66 408.89 782.37 462.78C780.31 466.02 778.26 469.26 776.2 472.5C774.68 474.89 773.16 477.29 771.64 479.68C752.12 510.4 734.36 537.86 714.74 562.92C692.32 591.54 670.71 612.51 648.68 627.01C628.03 640.61 605.97 647.8 585.45 647.8C581.71 647.8 578.03 647.57 574.41 647.08C561.2 645.32 548.96 640.37 538.05 632.37C526.14 623.65 515.79 611.25 507.27 595.53C506.51 594.12 505.75 592.66 505.01 591.2C491.97 565.21 484.35 534.91 476.97 505.6C475.38 499.28 473.74 492.75 472.08 486.42C462.62 450.26 451.71 418.7 438.74 389.92C437.12 386.34 435.45 382.75 433.77 379.25C403.02 315.37 360.59 261.53 311.08 223.56C253.3 179.34 191.97 159 138.39 166.29C101.77 171.37 64.31 200.91 47.31 238.13C35.73 263.49 33.68 291.7 41.37 319.73L41.17 319.83C37.15 305.16 35.74 290.47 37 276.18C38.16 263.02 41.57 250.17 47.14 237.98C55.87 218.87 69.69 201.79 87.11 188.59C103.23 176.38 121.43 168.36 138.37 166.01C166.46 162.19 196.54 165.87 227.77 176.95C256.02 186.97 284.08 202.57 311.19 223.31C360.72 261.31 403.17 315.18 433.94 379.1C435.63 382.6 437.3 386.19 438.91 389.77C451.9 418.56 462.81 450.15 472.27 486.32C473.94 492.66 475.58 499.19 477.17 505.5C484.54 534.8 492.16 565.08 505.18 591.03C505.92 592.5 506.67 593.95 507.43 595.36C544.09 662.99 606.38 654.54 648.59 626.76C698.95 593.61 737.48 532.99 771.49 479.5C773.01 477.1 774.52 474.71 776.05 472.32C778.1 469.07 780.16 465.83 782.22 462.6C801.79 431.84 821.12 401.94 842.37 374.4C866.8 342.72 890.33 318.77 914.31 301.18C929.23 290.27 944.89 281.95 960.85 276.44C975.77 271.29 991.46 268.44 1007.49 267.94C1035.74 267.08 1065.85 273.34 1099.53 287.09C1125.85 297.76 1156.88 311.76 1187.5 334.66C1219.06 358.32 1248.56 388.7 1277.1 418.07C1279.9 420.95 1282.69 423.83 1285.49 426.69C1351.35 494.81 1416.29 570.95 1478.48 653L1478.33 653.19Z" fill="#FFE492" fill-opacity="1.000000" fill-rule="nonzero"/>
		<path id="Vector" d="M1476.16 650.57C1413.62 566.43 1349.72 489.33 1286.22 421.41C1282.42 417.35 1278.53 413.16 1274.77 409.11C1247.85 380.11 1220.01 350.12 1189.78 327.71C1159.57 305.41 1128.31 293.7 1101.68 285.19C1030.85 262.31 972.83 270.38 919.1 310.57C867.85 349.05 827.7 406.91 788.88 462.86L784.61 469.01C781.25 473.86 777.76 478.88 774.33 483.8C735.46 539.43 696.56 591.57 647.99 618.24C636.2 624.71 624.1 629.2 612.02 631.58C599.04 634.13 586.43 634.17 574.54 631.68C561.63 628.98 549.68 623.32 539.01 614.83C527.4 605.61 517.25 592.98 508.85 577.32C508.09 575.9 507.34 574.44 506.61 572.98C493.73 547.15 485.83 517.29 478.19 488.41C476.48 481.97 474.72 475.3 472.94 468.83C463.04 432.79 451.86 401.48 438.76 373.11C437.12 369.57 435.43 366.01 433.72 362.54C402.53 299.23 359.78 246.1 310.06 208.89C251.87 165.47 190.37 146.09 136.89 154.33C100.6 160.03 63.31 189.78 46.22 226.68C34.45 252.1 31.99 280.42 39.11 308.6L38.91 308.69C35.19 293.95 34.03 279.2 35.49 264.87C36.83 251.66 40.38 238.76 46.05 226.53C54.87 207.49 68.64 190.42 85.88 177.18C101.84 164.93 119.94 156.72 136.86 154.05C164.92 149.73 195.03 152.92 226.35 163.52C254.67 173.1 282.87 188.28 310.16 208.65C359.9 245.87 402.68 299.04 433.89 362.38C435.6 365.86 437.29 369.42 438.93 372.96C452.04 401.34 463.22 432.67 473.13 468.73C474.91 475.21 476.67 481.87 478.38 488.32C486.01 517.18 493.91 547.03 506.78 572.82C507.5 574.28 508.26 575.74 509.01 577.15C544.78 643.85 604.21 641.98 647.91 617.98C696.44 591.34 735.33 539.21 774.18 483.61C777.61 478.69 781.09 473.67 784.46 468.82L788.72 462.67C807.78 435.21 827.49 406.81 848.89 380.39C873.13 350.46 896.06 327.55 919 310.33C933.76 299.28 949.2 290.54 964.87 284.37C979.61 278.56 995.06 274.81 1010.78 273.23C1038.91 270.41 1068.66 274.24 1101.74 284.92C1128.36 293.43 1159.66 305.15 1189.87 327.46C1220.12 349.88 1247.97 379.88 1274.9 408.89C1278.66 412.94 1282.54 417.12 1286.34 421.19C1349.85 489.12 1413.76 566.22 1476.3 650.36L1476.16 650.57Z" fill="#FFE492" fill-opacity="1.000000" fill-rule="nonzero"/>
		<path id="Vector" d="M1473.98 647.94C1411.98 562.87 1349.1 484.8 1287.06 415.91C1282.41 410.73 1277.63 405.35 1273.01 400.15C1247.54 371.46 1221.19 341.79 1192.15 320.52C1162.1 298.6 1130.68 289.27 1103.91 283.03C1035.03 266.73 977.79 278.39 923.78 319.72C876.65 355.94 837.96 407.28 800.53 456.92C796.6 462.15 792.52 467.55 788.56 472.78C783.9 478.93 780.34 483.59 777.01 487.91C759.22 511.04 738.04 537.67 715.81 559.82C692.25 583.28 669.84 599.53 647.29 609.47C635.43 614.7 623.38 618 611.47 619.27C598.68 620.64 586.3 619.64 574.67 616.28C562.07 612.65 550.39 606.27 539.96 597.3C528.64 587.58 518.71 574.73 510.42 559.11C509.68 557.7 508.93 556.24 508.2 554.77C495.49 529.12 487.32 499.71 479.42 471.28C477.59 464.69 475.7 457.87 473.79 451.25C463.44 415.3 451.99 384.25 438.78 356.3C437.12 352.79 435.39 349.27 433.66 345.82C402.04 283.08 358.95 230.66 309.04 194.22C250.44 151.6 188.77 133.19 135.38 142.36C105 147.7 65.32 172.28 45.16 215.16C33.17 240.66 30.29 269.12 36.84 297.45L36.65 297.54C33.22 282.72 32.33 267.91 33.99 253.52C35.52 240.24 39.22 227.29 44.98 215.01C53.9 196.05 67.62 179.01 84.67 165.74C100.47 153.45 118.47 145.05 135.35 142.09C163.37 137.27 193.51 139.96 224.94 150.08C253.32 159.22 281.65 173.99 309.13 193.98C359.07 230.43 402.19 282.88 433.83 345.66C435.56 349.11 437.29 352.64 438.95 356.15C452.17 384.11 463.63 415.18 473.98 451.14C475.89 457.77 477.78 464.59 479.62 471.18C487.51 499.6 495.67 528.99 508.37 554.61C509.09 556.08 509.84 557.53 510.59 558.95C540.35 615.03 591.43 633.81 647.23 609.2C697.76 586.91 738.98 536.96 776.87 487.71C780.19 483.39 783.75 478.72 788.41 472.57C792.38 467.34 796.45 461.94 800.39 456.72C818.81 432.28 837.86 407.01 858.18 383.34C881.16 356.58 902.59 335.69 923.69 319.47C938.31 308.28 953.52 299.14 968.9 292.29C983.46 285.81 998.66 281.18 1014.08 278.53C1042.14 273.7 1071.54 275.08 1103.93 282.75C1130.73 288.99 1162.17 298.33 1192.25 320.26C1221.31 341.55 1247.66 371.22 1273.14 399.92C1277.76 405.13 1282.54 410.51 1287.19 415.69C1349.23 484.59 1412.12 562.66 1474.13 647.73L1473.98 647.94Z" fill="#FFE492" fill-opacity="1.000000" fill-rule="nonzero"/>
		<path id="Vector" d="M1471.8 645.31C1410.34 559.3 1348.48 480.26 1287.92 410.41C1282.77 404.46 1277.48 398.23 1272.36 392.2C1247.99 363.47 1222.78 333.76 1194.52 313.32C1164.44 291.67 1132.96 284.76 1106.12 280.86C1040.37 271.05 982.25 286.75 928.47 328.86C885.65 362.55 848.94 407.61 813.44 451.19C806.27 460 798.85 469.1 791.64 477.78C787.24 483.09 783.33 487.75 779.7 492.03C762.81 511.92 740.34 537.42 716.34 558.26C692.21 579.2 669.4 593.08 646.59 600.7C621.71 609.02 596.88 609.08 574.79 600.89C562.5 596.33 551.1 589.22 540.9 579.76C529.89 569.55 520.16 556.48 511.99 540.92C511.25 539.5 510.51 538.03 509.79 536.56C497.26 511.11 488.84 482.19 480.7 454.22C478.73 447.46 476.69 440.46 474.64 433.67C463.84 397.82 452.12 367.02 438.79 339.51C437.11 336.02 435.36 332.53 433.6 329.12C401.55 266.94 358.12 215.22 308.01 179.57C249.01 137.75 187.16 120.29 133.87 130.41C97.75 137.41 61.68 166.83 44.12 203.6C31.91 229.19 28.61 257.79 34.58 286.32L34.38 286.39C31.26 271.49 30.62 256.6 32.49 242.15C34.21 228.79 38.07 215.77 43.95 203.45C52.96 184.57 66.63 167.57 83.48 154.3C99.11 141.98 117 133.39 133.84 130.13C161.83 124.82 192 127.01 223.52 136.65C251.97 145.35 280.43 159.7 308.1 179.32C358.25 214.99 401.7 266.74 433.77 328.96C435.53 332.37 437.27 335.86 438.96 339.35C452.29 366.88 464.02 397.69 474.83 433.56C476.88 440.36 478.91 447.35 480.88 454.12C489.02 482.07 497.44 510.97 509.95 536.4C510.68 537.87 511.42 539.33 512.16 540.75C541.4 596.47 591.64 618.78 646.54 600.43C696.59 583.71 740.05 538.35 779.56 491.82C783.19 487.54 787.1 482.88 791.51 477.57C798.71 468.89 806.13 459.79 813.3 450.99C848.81 407.4 885.52 362.33 928.37 328.63C942.86 317.28 957.85 307.72 972.92 300.23C987.33 293.06 1002.29 287.54 1017.37 283.83C1045.43 276.92 1074.46 275.86 1106.14 280.59C1133 284.49 1164.52 291.4 1194.62 313.08C1222.9 333.53 1248.11 363.25 1272.5 391.99C1277.61 398.02 1282.9 404.26 1288.06 410.2C1348.61 480.06 1410.49 559.1 1471.95 645.11L1471.8 645.31Z" fill="#FFE492" fill-opacity="1.000000" fill-rule="nonzero"/>
		<path id="Vector" d="M1469.63 642.68C1408.71 555.72 1347.87 475.72 1288.78 404.91C1283.35 398.4 1277.76 391.51 1272.36 384.84C1248.87 355.87 1224.59 325.91 1196.9 306.13C1166.69 284.67 1135.18 280.22 1108.34 278.7C1045.06 274.86 987.76 294.26 933.16 338.01C894.86 368.84 860.73 407.85 827.71 445.58C816.36 458.56 805.64 470.81 794.73 482.78C790.3 487.65 786.26 492.02 782.38 496.15C757.36 522.76 736.54 542 716.86 556.7C692.18 575.14 668.96 586.66 645.89 591.93C636.94 593.98 628.02 594.99 619.27 594.99C603.75 594.99 588.73 591.8 574.91 585.48C549.89 574.03 529.25 552.91 513.57 522.71C512.83 521.28 512.09 519.81 511.38 518.35C499.04 493.11 490.38 464.71 482.01 437.23C479.89 430.27 477.7 423.08 475.49 416.08C464.23 380.32 452.23 349.77 438.81 322.7C437.1 319.24 435.33 315.78 433.55 312.4C401.06 250.79 357.3 199.78 306.98 164.9C247.58 123.88 185.56 107.39 132.36 118.44C96.09 126.14 61.06 154.99 43.13 191.96C30.67 217.66 26.93 246.43 32.32 275.17L32.12 275.24C29.3 260.23 28.93 245.26 31.01 230.73C32.93 217.29 36.95 204.19 42.96 191.81C52.07 173.03 65.68 156.09 82.32 142.81C97.78 130.48 115.54 121.73 132.33 118.17C160.28 112.36 190.49 114.05 222.1 123.21C250.63 131.47 279.22 145.42 307.08 164.65C357.42 199.55 401.21 250.59 433.71 312.24C435.5 315.62 437.27 319.08 438.98 322.54C452.41 349.63 464.41 380.19 475.68 415.97C477.89 422.96 480.08 430.16 482.2 437.12C490.57 464.58 499.22 492.97 511.55 518.19C512.26 519.65 513 521.12 513.73 522.54C543.02 578.95 591.18 604.14 645.86 591.65C697.91 579.76 744.02 536.59 782.25 495.93C786.13 491.8 790.17 487.43 794.61 482.56C805.51 470.59 816.23 458.34 827.58 445.37C860.6 407.63 894.75 368.61 933.05 337.77C947.44 326.24 962.2 316.28 976.94 308.15C991.21 300.28 1005.93 293.88 1020.67 289.12C1048.78 280.04 1077.46 276.54 1108.35 278.42C1135.22 279.94 1166.76 284.39 1196.99 305.88C1224.71 325.67 1249 355.65 1272.49 384.63C1277.9 391.3 1283.48 398.19 1288.91 404.69C1348 475.52 1408.85 555.52 1469.77 642.48L1469.63 642.68Z" fill="#FFE492" fill-opacity="1.000000" fill-rule="nonzero"/>
		<path id="Vector" d="M1467.46 640.05C1406.24 550.9 1348.08 472.18 1289.64 399.4C1284.06 392.46 1278.56 385.37 1272.76 377.86C1250.04 348.51 1226.55 318.17 1199.28 298.94C1168.69 277.48 1135.81 275.7 1110.56 276.54C1050.17 278.29 993.68 301.39 937.85 347.16C904.36 374.75 873.44 407.89 843.53 439.93C827.81 456.78 812.97 472.68 797.83 487.78C793.34 492.26 789.16 496.35 785.07 500.27C759.71 524.54 738.2 541.97 717.39 555.13C692.14 571.11 668.52 580.28 645.2 583.16C633.22 584.64 621.32 584.36 609.83 582.33C597.67 580.18 585.96 576.05 575.03 570.07C550.81 556.8 530.67 534.74 515.15 504.51C514.42 503.07 513.69 501.6 512.98 500.14C500.85 475.16 491.97 447.3 483.39 420.35C481.1 413.16 478.73 405.73 476.35 398.5C464.62 362.82 452.35 332.52 438.84 305.9C437.1 302.47 435.3 299.04 433.5 295.69C400.58 234.65 356.48 184.35 305.97 150.24C259.34 118.89 211.26 102.53 167.17 102.53C154.7 102.53 142.56 103.84 130.86 106.48C95.02 114.73 60.22 143.69 42.18 180.27C29.45 206.08 25.26 235.05 30.06 264.04L29.86 264.1C27.35 248.97 27.25 233.89 29.55 219.28C31.68 205.74 35.87 192.56 42.01 180.11C51.21 161.45 64.76 144.58 81.19 131.32C96.7 118.79 113.86 110.11 130.82 106.21C158.75 99.9 188.98 101.11 220.69 109.78C249.29 117.6 278.01 131.13 306.06 149.99C356.6 184.11 400.73 234.44 433.67 295.52C435.47 298.87 437.27 302.31 439.01 305.73C452.52 332.37 464.8 362.68 476.54 398.38C478.92 405.61 481.29 413.05 483.58 420.24C492.16 447.17 501.03 475.02 513.15 499.98C513.86 501.44 514.59 502.91 515.32 504.34C544.34 560.88 591.67 589.5 645.18 582.88C699.33 576.18 748.32 535.09 784.96 500.04C789.05 496.11 793.22 492.03 797.71 487.55C812.85 472.46 827.69 456.55 843.41 439.71C873.32 407.66 904.25 374.51 937.75 346.91C966.49 323.35 994.69 306.18 1023.98 294.41C1052.21 283.06 1080.54 277.12 1110.56 276.25C1127.68 275.68 1141.67 276.68 1154.54 279.38C1171.17 282.87 1185.84 289.18 1199.38 298.69C1226.67 317.93 1250.17 348.29 1272.91 377.65C1278.72 385.16 1284.21 392.25 1289.78 399.19C1348.22 471.98 1406.39 550.7 1467.61 639.85L1467.46 640.05Z" fill="#FFE492" fill-opacity="1.000000" fill-rule="nonzero"/>
		<path id="Vector" d="M1465.28 637.42C1404.62 547.29 1347.45 467.64 1290.49 393.9C1284.85 386.6 1279.3 379.09 1273.41 371.13C1251.37 341.32 1228.57 310.49 1201.65 291.75C1170.81 270.39 1137.96 271.24 1112.78 274.37C1055.79 281.2 1000.1 308.01 942.54 356.3C914.18 380.21 887.17 407.57 861.06 434.03C840.42 454.95 820.92 474.71 800.92 492.77C796.4 496.85 791.97 500.76 787.75 504.38C762.34 526.16 739.49 542.24 717.91 553.55C692.08 567.09 668.06 573.91 644.5 574.38C632.51 574.62 620.65 573.15 609.27 570C597.34 566.69 585.86 561.53 575.15 554.64C551.76 539.6 532.1 516.61 516.72 486.29C516 484.86 515.27 483.39 514.56 481.92C502.66 457.25 493.59 429.97 484.82 403.59C482.34 396.13 479.77 388.41 477.19 380.91C464.98 345.29 452.44 315.25 438.85 289.08C437.09 285.69 435.27 282.29 433.44 278.97C400.09 218.49 355.65 168.9 304.94 135.57C244.73 96.16 182.37 81.58 129.34 94.51C93.97 103.29 59.4 132.33 41.26 168.48C28.25 194.43 23.59 223.62 27.79 252.89L27.59 252.94C25.4 237.69 25.57 222.49 28.09 207.78C30.44 194.12 34.81 180.85 41.09 168.32C50.38 149.8 63.86 133.01 80.07 119.78C95.4 107.26 112.43 98.43 129.31 94.24C157.2 87.43 187.47 88.14 219.27 96.33C247.94 103.72 276.79 116.83 305.02 135.31C355.77 168.66 400.23 218.28 433.6 278.8C435.43 282.12 437.25 285.52 439.02 288.92C452.62 315.1 465.16 345.15 477.38 380.78C479.96 388.29 482.53 396.01 485.01 403.47C493.77 429.84 502.84 457.1 514.73 481.76C515.44 483.23 516.17 484.7 516.89 486.13C546.21 543.92 591.53 575.17 644.49 574.1C687.47 573.23 732.95 551 787.64 504.13C791.85 500.52 796.28 496.61 800.8 492.53C820.8 474.47 840.3 454.72 860.93 433.8C887.05 407.33 914.06 379.97 942.43 356.05C971.45 331.7 999.2 313.27 1027.27 299.7C1055.69 285.95 1083.66 277.57 1112.76 274.08C1137.97 270.95 1170.87 270.1 1201.75 291.49C1228.71 310.25 1251.51 341.1 1273.56 370.92C1279.43 378.88 1285 386.39 1290.63 393.69C1347.59 467.43 1404.77 547.09 1465.43 637.22L1465.28 637.42Z" fill="#FFE492" fill-opacity="1.000000" fill-rule="nonzero"/>
		<path id="Vector" d="M1463.1 634.79C1403.01 543.68 1346.83 463.09 1291.34 388.4C1285.71 380.82 1280.15 372.94 1274.26 364.6C1252.85 334.25 1230.69 302.87 1204.03 284.55C1172.91 263.27 1140.1 266.78 1115 272.2C1061.38 283.58 1008.07 313.2 947.23 365.44C924.41 385.13 902.11 406.72 880.55 427.59C854.36 452.95 829.62 476.91 804.01 497.77C799.39 501.53 794.83 505.14 790.43 508.5C764.57 528.24 741.02 542.46 718.44 551.97C705.8 557.3 693.31 561.16 681.34 563.44C668.57 565.88 655.94 566.61 643.8 565.61C619.18 563.58 596.12 554.7 575.27 539.22C552.75 522.49 533.58 498.57 518.3 468.09C517.58 466.65 516.86 465.17 516.15 463.71C504.51 439.4 495.28 412.77 486.35 387.02C483.65 379.23 480.86 371.17 478.05 363.33C465.35 327.76 452.53 297.98 438.87 272.28C437.08 268.91 435.24 265.54 433.39 262.26C399.6 202.34 354.83 153.46 303.91 120.91C243.3 82.31 180.77 68.69 127.84 82.55C71.16 97.63 15.93 162.79 25.53 241.75L25.33 241.8C22.93 222.04 24.33 202.58 29.51 183.95C34.24 166.94 42 150.92 52.57 136.36C62.4 122.82 74.19 111.13 87.62 101.61C100.39 92.56 114.28 85.87 127.8 82.28C155.66 74.98 185.96 75.19 217.86 82.9C246.59 89.85 275.57 102.55 304 120.66C354.95 153.23 399.75 202.14 433.55 262.09C435.4 265.38 437.25 268.75 439.04 272.12C452.7 297.83 465.53 327.63 478.23 363.21C481.04 371.05 483.84 379.11 486.54 386.91C495.46 412.65 504.68 439.26 516.33 463.56C517.03 465.02 517.75 466.5 518.46 467.94C547.83 526.5 592.35 561.09 643.81 565.33C687.38 568.92 735.31 550.25 790.33 508.26C794.72 504.9 799.29 501.29 803.91 497.53C829.51 476.67 854.25 452.72 880.43 427.37C902 406.49 924.29 384.89 947.12 365.21C1007.98 312.95 1061.31 283.31 1114.96 271.93C1131.82 268.28 1145.8 267.11 1158.92 268.26C1175.69 269.73 1190.48 274.97 1204.12 284.3C1230.81 302.64 1252.98 334.04 1274.41 364.4C1280.29 372.74 1285.85 380.62 1291.49 388.2C1346.98 462.89 1403.16 543.49 1463.25 634.61L1463.1 634.79Z" fill="#FFE492" fill-opacity="1.000000" fill-rule="nonzero"/>
		<path id="Vector" d="M1460.93 632.16C1401.41 540.06 1346.22 458.53 1292.19 382.89C1286.61 375.07 1281.09 366.87 1275.24 358.19C1254.41 327.26 1232.86 295.28 1206.41 277.36C1174.61 255.9 1140.28 262.9 1117.22 270.04C1054.63 289.16 998.53 333.62 951.92 374.59C935.17 389.38 918.46 405.04 902.3 420.18C869.87 450.57 839.25 479.27 807.11 502.77C802.38 506.22 797.68 509.54 793.13 512.61C766.75 530.42 742.5 542.77 718.98 550.39C692.31 559.02 666.79 561.19 643.11 556.84C618.79 552.36 596.01 541.25 575.4 523.79C553.78 505.48 535.1 480.62 519.88 449.89C519.17 448.44 518.45 446.97 517.75 445.5C506.39 421.63 497.05 395.74 488.01 370.69C485.05 362.49 481.99 354 478.91 345.74C465.52 309.74 452.81 281.05 438.9 255.47C437.08 252.14 435.22 248.8 433.34 245.55C399.12 186.2 354.01 138.03 302.89 106.24C241.88 68.45 179.17 55.79 126.33 70.59C69.45 86.74 15.35 151 23.27 230.61L23.07 230.65C21.1 210.9 22.8 191.46 28.12 172.87C33 155.84 40.8 139.81 51.32 125.23C61.13 111.63 72.86 99.85 86.19 90.22C98.89 81.04 112.75 74.16 126.29 70.32C154.12 62.52 184.45 62.24 216.45 69.47C245.25 75.98 274.36 88.26 302.98 105.99C354.13 137.79 399.26 185.99 433.5 245.37C435.37 248.63 437.25 251.97 439.06 255.31C452.98 280.9 465.7 309.6 479.09 345.62C482.17 353.88 485.23 362.36 488.19 370.57C497.23 395.61 506.57 421.5 517.92 445.35C518.62 446.82 519.34 448.29 520.05 449.73C549.64 509.47 593.36 547.41 643.14 556.56C687.79 564.77 736.82 550.31 793.04 512.36C797.58 509.29 802.29 505.98 807.01 502.52C839.15 479.03 869.76 450.33 902.18 419.95C918.34 404.81 935.05 389.14 951.81 374.35C983.15 346.8 1009.23 326.45 1033.87 310.3C1062.87 291.29 1090.12 278.03 1117.17 269.76C1133.66 264.66 1148.04 262.35 1161.12 262.7C1177.96 263.15 1192.81 267.86 1206.5 277.11C1232.99 295.06 1254.54 327.06 1275.39 358C1281.24 366.68 1286.76 374.88 1292.35 382.7C1346.37 458.33 1401.56 539.87 1461.08 631.98L1460.93 632.16Z" fill="#FFE492" fill-opacity="1.000000" fill-rule="nonzero"/>
		<path id="Vector" d="M1458.75 629.53C1399.81 536.43 1345.61 453.96 1293.06 377.39C1287.54 369.36 1282.09 360.88 1276.31 351.9C1256.03 320.35 1235.05 287.73 1208.79 270.16C1176.64 248.76 1142.4 258.6 1119.43 267.87C1062.73 290.56 1012.14 333.77 956.61 383.73C946.59 392.78 936.46 402.11 926.67 411.14C888.99 445.87 850.02 481.78 810.2 507.76C805.36 510.92 800.52 513.94 795.81 516.73C769.26 532.45 743.58 543.24 719.5 548.8C692.22 555.1 666.28 554.85 642.41 548.06C618.43 541.25 595.92 527.89 575.51 508.36C554.86 488.59 536.67 462.8 521.44 431.69C520.74 430.24 520.03 428.76 519.33 427.29C508.32 403.99 498.91 378.93 489.82 354.71C486.54 345.98 483.16 336.95 479.75 328.17C465.84 292.2 452.86 263.76 438.9 238.68C437.07 235.38 435.18 232.07 433.27 228.84C398.63 170.05 353.19 122.59 301.86 91.58C240.45 54.6 177.57 42.9 124.82 58.63C69.74 75.24 14.64 137.25 21 219.47L20.8 219.5C19.27 199.75 21.27 180.33 26.73 161.78C31.75 144.73 39.6 128.69 50.06 114.09C69.36 87.17 96.59 66.85 124.77 58.36C152.57 50.07 182.93 49.29 215.02 56.03C243.9 62.11 273.14 73.98 301.94 91.32C353.3 122.35 398.76 169.84 433.43 228.66C435.34 231.89 437.23 235.2 439.07 238.5C453.03 263.6 466.02 292.04 479.93 328.03C483.34 336.82 486.73 345.84 490 354.57C499.1 378.79 508.5 403.84 519.51 427.14C520.2 428.6 520.91 430.08 521.61 431.53C552.07 493.77 593.86 533.97 642.45 547.79C687.44 560.58 739.01 550.05 795.72 516.47C800.43 513.68 805.27 510.67 810.1 507.51C849.92 481.54 888.87 445.64 926.54 410.91C936.34 401.88 946.47 392.55 956.49 383.5C980.8 361.63 1009.09 336.54 1037.16 315.6C1066.52 293.69 1093.41 277.99 1119.37 267.6C1135.71 261.01 1150.07 257.59 1163.31 257.15C1179.98 256.59 1195.31 260.89 1208.87 269.92C1220.64 277.78 1232.48 289.52 1245.07 305.81C1256.19 320.19 1266.5 336.22 1276.47 351.71C1282.24 360.69 1287.68 369.17 1293.19 377.2C1345.75 453.77 1399.96 536.25 1458.9 629.35L1458.75 629.53Z" fill="#FFE492" fill-opacity="1.000000" fill-rule="nonzero"/>
		<path id="Vector" d="M1456.58 626.9C1398.21 532.8 1345 449.38 1293.91 371.89C1288.5 363.68 1283.14 354.94 1277.47 345.7C1257.71 313.49 1237.28 280.19 1211.17 262.97C1186.76 246.94 1157.48 247.83 1121.65 265.7C1071.56 290.56 1026.79 332.13 979.38 376.14C973.48 381.62 967.37 387.29 961.3 392.88C958.92 395.08 956.54 397.28 954.16 399.48C908.99 441.26 862.29 484.46 813.29 512.76C808.34 515.63 803.36 518.35 798.5 520.85C771.36 534.78 744.97 543.65 720.04 547.21C692.13 551.19 665.78 548.52 641.72 539.29C618.11 530.23 595.88 514.63 575.65 492.92C556.04 471.88 538.33 445.16 523.03 413.48C522.33 412.03 521.63 410.55 520.94 409.08C510.34 386.51 500.97 362.46 491.9 339.21C488.23 329.8 484.43 320.06 480.62 310.58C466.17 274.63 452.92 246.44 438.93 221.87C437.08 218.6 435.16 215.33 433.23 212.13C398.14 153.91 352.37 107.15 300.84 76.92C239.03 40.75 175.98 30 123.31 46.67C69.25 63.92 14.23 126.44 18.75 208.34L18.54 208.36C17.45 188.6 19.74 169.21 25.34 150.71C30.51 133.64 38.4 117.57 48.81 102.96C68.02 75.98 95.16 55.37 123.27 46.4C151.03 37.61 181.43 36.33 213.61 42.6C242.56 48.23 271.93 59.69 300.92 76.66C352.48 106.91 398.28 153.69 433.38 211.94C435.31 215.15 437.23 218.43 439.09 221.69C453.09 246.28 466.34 274.48 480.79 310.44C484.61 319.92 488.41 329.66 492.08 339.08C501.14 362.32 510.51 386.36 521.11 408.93C521.8 410.4 522.5 411.88 523.2 413.32C554.32 477.73 595.32 521.19 641.77 539.02C687.63 556.61 740.33 550.41 798.42 520.58C803.28 518.08 808.26 515.36 813.21 512.5C862.19 484.21 908.89 441.01 954.05 399.24C956.43 397.04 958.8 394.84 961.18 392.65C967.26 387.05 973.36 381.39 979.26 375.91C1026.68 331.88 1071.47 290.3 1121.57 265.44C1137.77 257.36 1152.14 252.83 1165.51 251.59C1182.25 250.03 1197.64 253.77 1211.25 262.72C1222.94 270.43 1234.65 282.23 1247.01 298.78C1257.92 313.38 1267.93 329.72 1277.63 345.51C1283.3 354.76 1288.66 363.5 1294.06 371.7C1345.16 449.2 1398.37 532.62 1456.74 626.72L1456.58 626.9Z" fill="#FFE492" fill-opacity="1.000000" fill-rule="nonzero"/>
		<path id="Vector" d="M1454.4 624.27C1401.13 536.58 1347.42 449.82 1294.76 366.38C1289.4 357.94 1284.09 348.87 1278.47 339.26C1260.17 308.02 1239.43 272.61 1213.54 255.78C1188.85 239.77 1159.51 242.31 1123.87 263.54C1081.48 288.69 1043.97 325.68 1004.26 364.84C991.81 377.11 978.95 389.79 965.98 402.03C943.34 423.43 918.85 446.08 893.17 466.7C865.68 488.8 840.56 505.49 816.37 517.76C811.29 520.33 806.18 522.76 801.17 524.96C773.46 537.14 746.35 544.07 720.58 545.56C692.05 547.2 665.28 542.15 641.02 530.51C596.2 508.77 557.03 463.27 524.59 395.28C523.9 393.83 523.21 392.34 522.52 390.87C512.46 369.29 503.25 346.53 494.35 324.51C490.15 314.15 485.82 303.43 481.46 293C466.46 257.06 452.95 229.12 438.95 205.07C437.06 201.83 435.12 198.58 433.17 195.42C397.65 137.76 351.54 91.71 299.81 62.25C237.6 26.89 174.38 17.11 121.8 34.71C67.41 53.01 13.76 114.71 16.48 197.2L16.27 197.21C15.62 177.45 18.2 158.07 23.94 139.62C29.26 122.53 37.2 106.45 47.55 91.83C57.29 78.06 68.85 66.01 81.88 56.03C94.54 46.35 107.95 39.08 121.75 34.43C149.48 25.15 179.91 23.38 212.19 29.16C241.2 34.36 270.71 45.41 299.89 61.99C351.65 91.47 397.79 137.54 433.32 195.23C435.27 198.4 437.22 201.65 439.11 204.89C453.12 228.95 466.63 256.91 481.64 292.86C486 303.29 490.33 314.01 494.52 324.37C503.43 346.38 512.64 369.15 522.69 390.72C523.38 392.19 524.08 393.67 524.77 395.12C557.17 463.06 596.31 508.53 641.08 530.25C687.2 552.35 742.54 550.43 801.11 524.69C806.11 522.49 811.23 520.07 816.3 517.5C870.37 490.08 919.83 445.31 965.86 401.79C978.84 389.56 991.69 376.88 1004.13 364.61C1043.86 325.45 1081.37 288.45 1123.78 263.28C1159.49 242.02 1188.87 239.48 1213.62 255.53C1225.23 263.07 1236.74 274.88 1248.84 291.65C1259.51 306.43 1269.22 323.03 1278.63 339.09C1284.25 348.69 1289.56 357.76 1294.92 366.2C1347.58 449.64 1401.29 536.4 1454.56 624.09L1454.4 624.27Z" fill="#FFE492" fill-opacity="1.000000" fill-rule="nonzero"/>
		<path id="Vector" d="M1452.23 621.64C1399.77 533.47 1347.08 445.74 1295.62 360.88C1290.43 352.34 1285.28 343.11 1279.81 333.34C1261.98 301.37 1241.75 265.13 1215.92 248.59C1190.93 232.6 1161.54 236.78 1126.07 261.36C1088.93 287.08 1054.8 323.39 1021.79 358.5C1005.23 376.11 988.11 394.32 970.67 411.17C943.14 437.79 919.98 458.09 897.78 475.07C870.4 496.01 844.79 511.61 819.47 522.75C814.27 525.04 809.02 527.17 803.86 529.07C776.97 539 750.57 544.02 725.31 544.02C723.91 544.02 722.51 544.01 721.11 543.98C691.91 543.33 664.73 535.84 640.32 521.73C628.54 514.89 617 506.19 606.03 495.89C595.72 486.22 585.58 474.81 575.91 462.01C558.5 438.97 542.23 411.19 526.17 377.07C525.48 375.6 524.79 374.13 524.11 372.66C514.79 352.52 505.97 331.48 497.45 311.13C492.53 299.38 487.44 287.24 482.31 275.41C466.53 238.98 453.16 212.1 438.96 188.26C437.05 185.05 435.09 181.83 433.11 178.7C397.17 121.61 350.72 76.27 298.79 47.59C236.18 13.04 172.79 4.22 120.29 22.74C66.92 41.63 13.35 103.79 14.22 186.05L14.01 186.06C13.61 147.74 24.77 111.31 46.3 80.69C56.03 66.86 67.52 54.73 80.45 44.63C93.04 34.82 106.43 27.36 120.24 22.47C147.94 12.69 178.41 10.42 210.78 15.73C239.86 20.49 269.5 31.12 298.87 47.33C350.83 76.03 397.3 121.39 433.27 178.52C435.24 181.65 437.22 184.87 439.13 188.08C453.33 211.94 466.71 238.83 482.49 275.27C487.62 287.1 492.71 299.25 497.63 310.99C506.15 331.34 514.97 352.38 524.28 372.51C524.97 373.98 525.65 375.45 526.34 376.92C560.47 449.42 597.78 496.71 640.4 521.48C699.43 555.6 761.84 544.3 803.8 528.8C808.96 526.9 814.21 524.77 819.4 522.49C877.63 496.86 930.77 449.41 970.55 410.94C987.99 394.1 1005.11 375.89 1021.66 358.29C1054.68 323.16 1088.81 286.84 1125.99 261.12C1141.86 250.12 1156.22 243.36 1169.89 240.47C1186.75 236.91 1202.27 239.55 1216 248.34C1227.56 255.75 1238.98 267.66 1250.88 284.75C1261.36 299.81 1270.82 316.77 1279.98 333.17C1285.43 342.94 1290.59 352.17 1295.78 360.7C1347.24 445.56 1399.93 533.29 1452.39 621.47L1452.23 621.64Z" fill="#FFE492" fill-opacity="1.000000" fill-rule="nonzero"/>
		<path id="Vector" d="M1450.05 619.01L1296.48 355.38C1291.46 346.77 1286.48 337.4 1281.21 327.49C1263.81 294.76 1244.07 257.67 1218.3 241.4C1193.36 225.66 1163.07 231.65 1128.3 259.2C1094.87 285.68 1064.38 320.9 1034.89 354.96C1015.67 377.16 995.79 400.11 975.37 420.32C913.98 481.04 860.34 516.9 806.55 533.19C784.23 539.94 762.22 543.34 740.87 543.34C734.4 543.34 727.99 543.03 721.65 542.4C691.76 539.46 664.16 529.55 639.63 512.96C616.89 497.58 596.09 475.88 576.04 446.6C560.03 423.21 544.69 395.34 527.75 358.87C518.81 339.63 510.15 319.63 501.78 300.29C482.84 256.53 463.25 211.28 438.99 171.45C401.79 110.37 352.95 62.47 297.77 32.92C234.76 -0.81 171.2 -8.67 118.79 10.78C68.05 29.62 12.97 89.01 11.96 174.91L11.75 174.91C12.21 136.51 23.72 100.08 45.05 69.56C64.33 41.96 90.5 20.99 118.73 10.51C146.41 0.24 176.9 -2.53 209.37 2.29C238.52 6.62 268.29 16.84 297.84 32.66C325.15 47.28 351.08 66.53 374.93 89.86C398.97 113.39 420.58 140.78 439.15 171.27C463.41 211.11 483.01 256.37 501.96 300.14C510.33 319.48 518.99 339.47 527.93 358.71C552.64 411.93 587.68 477.51 639.72 512.71C699.41 553.06 763.36 545.97 806.5 532.91C860.27 516.64 913.89 480.79 975.24 420.09C995.66 399.89 1015.54 376.94 1034.76 354.74C1064.25 320.68 1094.75 285.45 1128.19 258.95C1163.04 231.36 1193.38 225.36 1218.38 241.14C1229.93 248.43 1241.23 260.44 1252.93 277.87C1263.24 293.22 1272.46 310.56 1281.38 327.32C1286.65 337.23 1291.63 346.6 1296.64 355.2L1450.22 618.84L1450.05 619.01Z" fill="#FFE492" fill-opacity="1.000000" fill-rule="nonzero"/>
		<path id="Vector" d="M1448.82 598.75C1409.71 525.34 1376.16 465.78 1343.22 411.3C1327.24 384.83 1310.91 358.78 1294.69 333.87C1289.79 326.34 1284.93 318.32 1279.79 309.83C1266.86 288.5 1253.5 266.45 1238.11 250.08C1229.85 241.27 1221.9 234.97 1213.81 230.8C1188.94 217.9 1159.79 226.43 1127.14 256.17C1110.24 271.54 1094.85 289.03 1082.02 304.11C1068.44 320.08 1055.05 337.69 1042.1 354.72C1023.48 379.19 1004.23 404.5 983.53 426.23C970.94 439.5 958.18 451.35 945.59 461.47C920.42 481.7 893.39 498.37 865.28 511.02C847.9 518.75 830.45 524.59 813.39 528.38C798.7 531.63 783.97 533.51 769.63 533.96C748.16 534.64 727.24 532.06 707.46 526.3C686.42 520.17 666.52 510.39 648.29 497.22C632.04 485.48 616.69 470.7 601.37 452.02C572.81 417.25 550.03 377.05 533.38 345.91C525.2 330.54 517.21 314.87 509.48 299.71C487.24 256.06 466.23 214.83 439.94 178.11C418.49 148.35 394.03 122.67 367.21 101.78C346.61 85.72 324.19 72.59 300.6 62.75C294.98 60.41 289.25 58.22 283.58 56.27C259.17 47.86 231.7 42.38 201.91 39.99C171.89 37.52 145.91 39.66 122.5 46.52C109.26 50.38 96.44 56.42 84.38 64.48C41.81 92.95 14.47 140.74 11.26 192.32L11 192.29C11.86 178.54 14.38 164.99 18.48 152.02C22.38 139.71 27.74 127.83 34.4 116.72C47 95.73 64.24 77.56 84.27 64.17C96.35 56.09 109.19 50.04 122.45 46.18C145.88 39.31 171.88 37.17 201.93 39.64C231.73 42.03 259.22 47.52 283.65 55.93C289.32 57.89 295.05 60.07 300.67 62.42C324.29 72.26 346.72 85.41 367.34 101.48C394.18 122.38 418.66 148.08 440.12 177.86C466.42 214.61 487.44 255.85 509.69 299.51C517.41 314.67 525.4 330.34 533.58 345.7C550.23 376.83 572.99 417.01 601.53 451.76C616.84 470.41 632.18 485.18 648.41 496.91C684.08 522.68 724.86 535.03 769.62 533.61C783.95 533.16 798.67 531.28 813.35 528.03C830.39 524.24 847.84 518.41 865.19 510.69C893.3 498.05 920.3 481.38 945.46 461.16C958.04 451.06 970.79 439.21 983.38 425.96C1004.06 404.23 1023.31 378.93 1041.92 354.46C1054.88 337.43 1068.27 319.82 1081.85 303.85C1094.68 288.76 1110.07 271.26 1126.99 255.88C1141.53 242.64 1155.61 233.49 1168.84 228.69C1185.09 222.79 1200.25 223.39 1213.9 230.48C1222.02 234.66 1229.99 240.98 1238.27 249.8C1253.68 266.2 1267.05 288.26 1279.99 309.61C1285.13 318.09 1289.99 326.11 1294.89 333.64C1311.11 358.55 1327.44 384.61 1343.42 411.08C1376.36 465.56 1409.91 525.13 1449.02 598.54L1448.82 598.75Z" fill="#FFE492" fill-opacity="1.000000" fill-rule="nonzero"/>
		<path id="Vector" d="M1447.58 578.47C1411.32 503.83 1377.29 441.36 1343.54 387.51C1327.08 361.21 1310.05 335.92 1292.92 312.36C1288.37 306.11 1283.88 299.61 1279.13 292.74C1264.9 272.14 1250.18 250.85 1233.69 236.12C1225.38 228.64 1217.4 223.44 1209.31 220.21C1178.35 207.83 1146.9 231.28 1125.97 253.14C1111.14 268.58 1097.59 286.04 1083.87 304.06C1071.86 319.83 1060.56 336.8 1048.6 354.76C1030.84 381.42 1012.48 408.99 991.7 432.14C979.37 445.96 966.51 457.9 953.46 467.64C929.15 485.79 902.54 499.88 872.09 510.72C855.06 516.79 837.61 521.11 820.23 523.57C805.57 525.61 790.94 526.34 776.73 525.73C755.6 524.83 734.95 520.79 715.34 513.72C694.75 506.3 675.1 495.44 656.95 481.47C641.04 469.23 625.68 454.04 609.99 435.04C581.49 400.58 557.08 362.38 539 332.95C532.31 322.05 525.72 311.09 519.35 300.49C493.98 258.26 470.01 218.36 440.88 184.76C419.11 159.64 394.67 138.4 368.23 121.63C348.24 108.94 327.04 99.44 303.43 92.57C297.99 90.99 292.44 89.56 286.96 88.33C262.89 82.95 237.2 80.92 206.12 78.81C183.71 77.22 154.38 76.17 126.2 82.26C112.86 85.09 99.96 90.01 87.86 96.86C45.26 121.01 16.36 163.2 10.55 209.72L10.25 209.65C11.79 197.31 14.9 185.21 19.51 173.68C23.9 162.7 29.67 152.17 36.66 142.37C49.94 123.76 67.6 107.89 87.74 96.47C99.86 89.6 112.78 84.68 126.15 81.85C154.36 75.75 183.71 76.8 206.13 78.39C237.22 80.5 262.92 82.53 287.01 87.91C292.5 89.15 298.04 90.57 303.5 92.15C327.12 99.03 348.34 108.55 368.36 121.25C394.82 138.03 419.29 159.29 441.08 184.43C470.23 218.06 494.21 257.96 519.59 300.21C525.96 310.82 532.54 321.78 539.24 332.67C557.31 362.09 581.71 400.28 610.19 434.72C625.86 453.7 641.21 468.87 657.1 481.1C692.8 508.58 733.06 523.45 776.75 525.31C790.94 525.91 805.56 525.19 820.2 523.14C837.56 520.69 854.99 516.37 872.02 510.31C902.44 499.47 929.03 485.39 953.31 467.27C966.34 457.54 979.19 445.61 991.51 431.81C1012.27 408.68 1030.62 381.12 1048.37 354.47C1060.34 336.5 1071.64 319.53 1083.66 303.75C1097.38 285.72 1110.93 268.26 1125.78 252.8C1139.36 238.63 1152.74 228.44 1165.56 222.5C1181.13 215.3 1195.88 214.39 1209.41 219.8C1217.52 223.05 1225.52 228.26 1233.87 235.76C1250.38 250.52 1265.11 271.83 1279.35 292.44C1284.1 299.32 1288.59 305.81 1293.14 312.06C1310.28 335.63 1327.31 360.93 1343.78 387.24C1377.53 441.1 1411.57 503.58 1447.83 578.24L1447.58 578.47Z" fill="#FFE492" fill-opacity="1.000000" fill-rule="nonzero"/>
		<path id="Vector" d="M1446.34 558.2C1412.41 481.3 1378.89 417.69 1343.87 363.73C1326.93 337.59 1309.18 313.07 1291.14 290.85C1287.28 286.1 1283.31 281.07 1279.47 276.19C1263.61 256.06 1247.21 235.24 1229.3 222.16C1220.89 215.97 1212.89 211.87 1204.84 209.62C1173.93 200.97 1144.27 226.86 1124.81 250.1C1111.62 265.79 1099.56 283.58 1087.91 300.78L1085.73 304C1075.14 319.6 1065.21 336.72 1054.69 354.84C1037.96 383.69 1020.65 413.53 999.88 438.06C987.79 452.44 974.82 464.47 961.33 473.82C937.79 490.12 911.61 501.75 878.91 510.42C862.01 514.91 844.57 517.71 827.07 518.75C812.45 519.58 797.91 519.16 783.84 517.5C741.27 512.48 701.49 495.06 665.6 465.72C650.09 453.04 634.72 437.45 618.62 418.06C591.36 385.32 567.12 351.66 544.63 319.99C541.61 315.75 538.63 311.53 535.67 307.35C504.95 263.95 475.94 222.96 441.84 191.41C419.58 170.82 395.16 154.02 369.27 141.49C350.25 132.29 329.65 126.05 306.28 122.4C301.01 121.58 295.65 120.91 290.35 120.4C277.02 119.14 262.88 118.94 247.91 118.72C235.88 118.55 223.45 118.37 210.33 117.64C184.98 116.12 156.26 114.39 129.91 118.01C116.31 119.87 103.33 123.66 91.33 129.26C48.75 149.13 18.29 185.72 9.85 227.14L9.5 227.01C11.73 216.09 15.44 205.43 20.55 195.34C25.43 185.7 31.61 176.5 38.92 168.02C52.89 151.8 70.97 138.24 91.21 128.79C103.24 123.18 116.24 119.39 129.87 117.52C156.25 113.9 184.99 115.63 210.34 117.16C223.45 117.88 235.89 118.06 247.91 118.24C262.89 118.45 277.03 118.65 290.38 119.91C295.68 120.42 301.04 121.1 306.31 121.91C329.71 125.57 350.34 131.82 369.38 141.03C395.31 153.58 419.76 170.39 442.04 191.01C476.17 222.59 505.2 263.6 535.93 307.01C538.89 311.2 541.87 315.41 544.89 319.66C567.37 351.32 591.61 384.97 618.85 417.7C634.94 437.07 650.29 452.64 665.79 465.31C701.62 494.61 741.35 512 783.87 517.02C797.92 518.68 812.45 519.1 827.06 518.27C844.53 517.23 861.96 514.43 878.84 509.95C911.5 501.28 937.66 489.67 961.16 473.39C974.63 464.06 987.58 452.05 999.64 437.69C1020.38 413.19 1037.68 383.38 1054.41 354.54C1064.93 336.41 1074.87 319.29 1085.46 303.67L1087.64 300.45C1099.31 283.24 1111.37 265.45 1124.56 249.74C1144.09 226.42 1173.87 200.45 1204.91 209.14C1213 211.41 1221.03 215.52 1229.46 221.73C1247.41 234.85 1263.82 255.69 1279.71 275.84C1283.55 280.71 1287.52 285.75 1291.38 290.5C1309.43 312.73 1327.19 337.26 1344.13 363.42C1379.17 417.4 1412.7 481.03 1446.64 557.96L1446.34 558.2Z" fill="#FFE492" fill-opacity="1.000000" fill-rule="nonzero"/>
		<path id="Vector" d="M1445.1 537.93C1413.94 459.86 1379.99 393.25 1344.18 339.95C1326.77 313.98 1308.32 290.22 1289.36 269.35C1286.62 266.34 1283.81 263.21 1281.1 260.19C1263.18 240.2 1244.64 219.53 1224.89 208.2C1216.42 203.29 1208.4 200.29 1200.36 199.02C1169.55 194.19 1141.64 222.48 1123.65 247.07C1112.47 262.25 1102.39 279.14 1092.64 295.48C1090.94 298.31 1089.26 301.13 1087.56 303.94C1078.3 319.38 1069.63 336.62 1060.43 354.88C1044.82 385.92 1028.68 418.02 1008.05 443.97C995.92 459.21 983.21 471 969.19 480C939.85 498.83 910.53 505.8 885.72 510.13C868.94 513.07 851.51 514.35 833.9 513.94C819.33 513.56 804.87 511.99 790.94 509.28C749.65 501.23 710.39 481.29 674.25 449.98C659.22 436.96 643.84 420.97 627.24 401.09C610.46 381.07 594.83 361.8 579.71 343.16C569.44 330.49 559.74 318.53 550.26 307.05C514.43 263.65 481.62 225.5 442.8 198.08C420.06 182.02 395.67 169.66 370.29 161.35C352.11 155.4 332.67 152.5 309.12 152.22C304.04 152.17 298.86 152.25 293.74 152.46C285.96 152.81 277.91 153.53 269.39 154.29C253.03 155.75 234.49 157.4 214.52 156.47C206.92 156.12 199.16 155.62 191.66 155.14C172.36 153.89 152.4 152.6 133.6 153.75C119.8 154.6 106.74 157.26 94.79 161.65C52.28 177.29 20.26 208.29 9.13 244.57L8.75 244.35C11.66 234.85 15.98 225.65 21.58 216.99C26.96 208.68 33.55 200.83 41.17 193.66C55.84 179.85 74.35 168.59 94.68 161.11C106.66 156.71 119.74 154.04 133.58 153.19C152.4 152.04 172.37 153.33 191.68 154.58C199.18 155.06 206.93 155.56 214.54 155.92C234.49 156.84 253.01 155.19 269.36 153.73C277.88 152.97 285.93 152.25 293.73 151.91C298.85 151.7 304.03 151.62 309.12 151.67C332.7 151.94 352.17 154.85 370.39 160.81C395.79 169.13 420.22 181.5 442.99 197.59C460.52 209.97 478.29 225.67 497.31 245.56C514.33 263.37 530.9 282.85 550.53 306.63C560.01 318.11 569.71 330.08 579.99 342.75C595.1 361.38 610.73 380.65 627.5 400.67C644.09 420.53 659.45 436.5 674.47 449.51C710.55 480.78 749.76 500.7 791 508.73C804.91 511.44 819.35 513.01 833.91 513.39C851.49 513.79 868.91 512.51 885.66 509.58C910.44 505.25 939.72 498.29 969.01 479.5C983 470.52 995.67 458.77 1007.77 443.56C1028.37 417.65 1044.5 385.58 1060.1 354.57C1069.29 336.3 1077.97 319.04 1087.25 303.59C1088.93 300.78 1090.63 297.96 1092.31 295.13C1102.06 278.79 1112.16 261.89 1123.35 246.68C1135.05 230.68 1147.06 218.38 1159.04 210.11C1173.23 200.31 1187.15 196.4 1200.4 198.48C1208.47 199.74 1216.54 202.76 1225.05 207.69C1244.84 219.05 1263.41 239.75 1281.35 259.76C1284.06 262.78 1286.87 265.91 1289.61 268.92C1308.59 289.81 1327.05 313.59 1344.47 339.58C1363.49 367.89 1382.11 400.13 1399.81 435.42C1415.47 466.62 1430.82 501.02 1445.45 537.66L1445.1 537.93Z" fill="#FFE492" fill-opacity="1.000000" fill-rule="nonzero"/>
		<path id="Vector" d="M1443.86 517.65C1415.02 437.34 1381.6 369.56 1344.51 316.17C1326.62 290.36 1307.47 267.38 1287.59 247.85C1286.65 246.92 1285.69 245.99 1284.75 245.06C1264.07 224.73 1242.71 203.71 1220.51 194.25C1211.9 190.58 1203.85 188.68 1195.9 188.43C1165.21 187.49 1139.04 218.15 1122.5 244.02C1112.76 259.17 1104.11 275.76 1095.75 291.81C1093.68 295.78 1091.55 299.88 1089.43 303.87C1081.4 319.1 1073.93 336.4 1066.02 354.73C1051.64 388.06 1036.76 422.52 1016.23 449.88C1004.35 465.71 991.53 477.59 977.06 486.18C948.54 503.11 919.58 507.56 892.54 509.84C875.86 511.25 858.44 511.01 840.74 509.13C826.21 507.54 811.85 504.82 798.05 501.05C758.16 490.16 719.42 467.68 682.92 434.24C668.3 420.84 653.35 404.92 635.87 384.12C602.66 344.7 577.99 316.94 555.9 294.1C511.97 248.68 478.43 221.96 443.78 204.75C420.58 193.23 396.21 185.31 371.35 181.21C354.09 178.37 335.78 178.63 311.98 182.05C307.1 182.75 302.12 183.59 297.15 184.53C292.46 185.43 287.7 186.46 282.65 187.55C264.02 191.59 242.91 196.16 218.74 195.3C206 194.86 192.99 193.62 180.41 192.44C166.11 191.09 151.32 189.69 137.31 189.5C123.25 189.31 110.11 190.84 98.27 194.05C55.9 205.52 22.31 230.93 8.42 262.02L8.02 261.69C11.63 253.61 16.55 245.86 22.64 238.64C28.51 231.67 35.51 225.16 43.43 219.3C58.83 207.91 77.76 198.96 98.18 193.43C110.06 190.21 123.22 188.68 137.31 188.87C151.34 189.06 166.13 190.46 180.44 191.81C193.02 193 206.02 194.23 218.75 194.68C242.87 195.53 263.97 190.97 282.57 186.94C287.62 185.84 292.39 184.81 297.08 183.91C302.05 182.97 307.05 182.13 311.93 181.42C335.77 178 354.11 177.75 371.4 180.59C396.3 184.7 420.7 192.63 443.93 204.16C478.64 221.39 512.2 248.14 556.18 293.6C578.28 316.45 602.95 344.22 636.17 383.65C653.63 404.43 668.57 420.34 683.17 433.72C719.62 467.12 758.31 489.57 798.14 500.43C811.92 504.2 826.27 506.92 840.78 508.51C858.45 510.38 875.85 510.62 892.51 509.22C919.51 506.94 948.42 502.51 976.87 485.61C991.29 477.05 1004.06 465.22 1015.9 449.44C1036.39 422.14 1051.25 387.71 1065.62 354.42C1073.54 336.08 1081.01 318.76 1089.06 303.52C1091.17 299.52 1093.31 295.42 1095.37 291.45C1103.74 275.39 1112.39 258.79 1122.14 243.62C1132.93 226.73 1144.26 213.37 1155.79 203.91C1169.3 192.83 1182.8 187.42 1195.91 187.81C1203.91 188.06 1212 189.97 1220.64 193.66C1242.92 203.15 1264.31 224.2 1285.02 244.56C1285.97 245.49 1286.92 246.42 1287.86 247.35C1307.77 266.9 1326.94 289.91 1344.84 315.75C1381.96 369.19 1415.42 437.02 1444.27 517.38L1443.86 517.65Z" fill="#FFE492" fill-opacity="1.000000" fill-rule="nonzero"/>
		<path id="Vector" d="M902.75 509.55C901.6 509.55 900.46 509.55 899.35 509.54C882.76 509.45 865.34 507.69 847.58 504.31C833.1 501.51 818.83 497.64 805.15 492.81C785.62 485.93 766.02 476.04 746.88 463.41C728.41 451.22 709.8 436.11 691.57 418.48C673.72 401.22 657.04 381.98 644.5 367.14C615.17 332.53 587.26 303.6 561.55 281.15C519.91 244.8 482.8 222.64 444.77 211.41C421.82 204.64 397.2 201.07 373.5 201.07C373.13 201.07 372.77 201.07 372.4 201.07C352.04 201.16 332.7 206.31 314.85 211.86C310.2 213.31 305.39 214.9 300.56 216.58C297.91 217.52 295.26 218.47 292.45 219.49C272.65 226.67 250.21 234.8 222.95 234.13C206.35 233.72 189.39 231.38 172.99 229.12C162.4 227.66 151.45 226.15 141 225.23C126.65 223.98 113.44 224.38 101.73 226.43C59.59 233.81 24.43 253.64 7.69 279.47L7.31 279.01C15.89 265.76 28.81 254.29 45.7 244.92C61.82 235.96 81.18 229.33 101.67 225.75C113.4 223.69 126.65 223.28 141.04 224.54C151.49 225.45 162.45 226.97 173.04 228.43C189.43 230.69 206.38 233.03 222.96 233.44C250.15 234.1 272.55 225.99 292.32 218.82C295.13 217.81 297.78 216.85 300.43 215.91C305.27 214.23 310.08 212.64 314.73 211.19C332.62 205.63 351.99 200.47 372.4 200.38C396.48 200.26 421.54 203.85 444.87 210.74C464.5 216.53 483.54 225.06 503.05 236.82C521.84 248.14 541.07 262.45 561.82 280.57C587.55 303.04 615.48 331.99 644.83 366.62C657.36 381.45 674.03 400.68 691.87 417.92C728.85 453.69 767.01 478.66 805.28 492.14C818.93 496.96 833.19 500.83 847.65 503.63C865.39 507 882.78 508.76 899.35 508.85C925.27 509 955.37 507.81 984.73 491.72C999.59 483.58 1012.45 471.67 1024.03 455.32C1044.38 426.6 1057.87 389.74 1070.92 354.09C1077.63 335.76 1083.97 318.44 1090.86 303.44C1093.06 298.64 1095.3 293.69 1097.44 288.91C1104.73 272.73 1112.26 256.02 1120.93 240.56C1130.84 222.79 1141.47 208.37 1152.54 197.71C1165.36 185.34 1178.43 178.43 1191.4 177.15C1199.4 176.36 1207.52 177.17 1216.22 179.62C1239.49 186.17 1262.56 205.19 1286.1 225.78C1306.63 243.73 1327.07 266.6 1345.2 291.92C1365.33 319.96 1384.25 352.87 1401.43 389.71C1416.73 422.53 1430.75 458.66 1443.09 497.1L1442.62 497.38C1416.11 414.83 1383.21 345.87 1344.83 292.41C1326.73 267.12 1306.32 244.28 1285.82 226.36C1262.31 205.81 1239.3 186.83 1216.12 180.3C1207.46 177.87 1199.39 177.06 1191.43 177.85C1167.62 180.2 1142.72 202.62 1121.34 240.99C1112.68 256.41 1105.16 273.12 1097.89 289.27C1095.73 294.06 1093.5 299.01 1091.3 303.81C1084.42 318.78 1078.07 336.08 1071.38 354.4C1064.98 371.89 1058.36 389.98 1050.76 407.37C1042.15 427.08 1033.53 442.92 1024.41 455.8C1012.77 472.22 999.85 484.19 984.92 492.37C971.76 499.59 957.6 504.36 941.66 506.96C928.16 509.15 914.59 509.55 902.75 509.55Z" fill="#FFE492" fill-opacity="1.000000" fill-rule="nonzero"/>
		<path id="Vector" d="M935.65 510.95C925.19 510.95 915.14 510.1 906.15 509.24C889.62 507.66 872.2 504.38 854.4 499.49C839.98 495.48 825.8 490.46 812.25 484.57C775.13 468.49 738.49 441.72 700.22 402.73C683.53 385.73 667.8 367.44 653.12 350.17C624.14 316.16 595.23 288.59 567.19 268.21C525.95 238.24 487.36 222.3 445.75 218.07C422.05 215.65 397.05 216.64 373.45 220.91C353.71 224.49 335.09 233.13 317.71 241.66C313.36 243.81 308.74 246.15 303.97 248.63C302.78 249.25 301.57 249.88 300.35 250.52C280.34 261.05 257.69 272.96 228.63 272.96C228.13 272.96 227.65 272.96 227.15 272.95C207.49 272.68 187.41 268.86 167.99 265.17C160.29 263.7 152.33 262.19 144.69 260.96C129.77 258.57 116.85 257.87 105.18 258.81C62.76 262.24 26.95 276.13 6.94 296.92L6.59 296.31C16.49 286.03 30.79 277.11 47.95 270.51C64.84 264.01 84.61 259.7 105.15 258.04C116.85 257.1 129.8 257.8 144.76 260.2C152.4 261.42 160.37 262.94 168.07 264.4C187.47 268.09 207.53 271.91 227.15 272.18C256.82 272.59 279.84 260.48 300.15 249.8C301.37 249.16 302.57 248.53 303.76 247.9C308.54 245.42 313.16 243.08 317.51 240.93C334.92 232.38 353.57 223.74 373.37 220.15C397 215.86 422.04 214.88 445.79 217.29C466.41 219.39 486.07 224.35 505.89 232.44C526.3 240.78 546.44 252.25 567.45 267.52C595.53 287.93 624.48 315.54 653.49 349.58C668.16 366.85 683.88 385.13 700.55 402.11C738.77 441.04 775.36 467.78 812.41 483.83C825.95 489.71 840.11 494.72 854.51 498.73C872.29 503.62 889.67 506.89 906.18 508.47C933.96 511.12 963.51 512.48 992.58 497.81C1007.88 490.09 1020.83 478.1 1032.16 461.17C1052.34 431.01 1064.91 389.87 1075.99 353.57C1081.56 335.31 1086.84 318.06 1092.65 303.35C1094.75 298.05 1096.86 292.56 1098.9 287.26C1105.29 270.67 1111.89 253.51 1119.69 237.49C1128.75 218.83 1138.68 203.35 1149.27 191.48C1161.42 177.85 1174.06 169.43 1186.88 166.47C1194.88 164.61 1203.03 164.32 1211.79 165.55C1236.26 169.02 1261.11 186.16 1284.32 204.17C1305.77 220.8 1326.94 242.89 1345.54 268.06C1366.24 295.98 1385.31 329.21 1402.22 366.82C1417.34 400.47 1430.69 437.46 1441.9 476.79L1441.37 477.07C1417.55 393.47 1384.28 321.38 1345.15 268.6C1326.58 243.48 1305.44 221.43 1284.06 204.84C1260.89 186.87 1236.1 169.77 1211.73 166.32C1203.03 165.08 1194.93 165.38 1186.97 167.22C1163.32 172.7 1139.61 197.8 1120.18 237.91C1112.38 253.9 1105.78 271.04 1099.4 287.61C1097.36 292.92 1095.25 298.4 1093.15 303.71C1087.35 318.38 1082.09 335.62 1076.52 353.86C1065.41 390.21 1052.82 431.42 1032.57 461.68C1021.18 478.71 1008.16 490.76 992.78 498.53C979.43 505.26 965.03 509.16 948.75 510.44C944.35 510.81 939.97 510.95 935.65 510.95Z" fill="#FFE492" fill-opacity="1.000000" fill-rule="nonzero"/>
		<path id="Vector" d="M956.31 513.97C956.16 513.97 956.01 513.97 955.86 513.97C941.07 513.92 926.56 511.46 912.95 508.94C896.45 505.89 879.05 501.09 861.23 494.67C846.88 489.45 832.79 483.28 819.35 476.34C783.71 457.95 748.61 429.56 708.88 386.98C694.57 371.65 680.49 355.15 666.87 339.18C665.17 337.19 663.46 335.19 661.76 333.2C632.62 299.2 602.71 272.98 572.85 255.27C531.95 231.02 490.71 221.03 446.76 224.72C422.66 226.75 397.68 232.3 374.53 240.76C356.26 247.44 339.98 258.15 320.59 271.46C316.66 274.17 312.47 277.1 307.39 280.67L307.1 280.87C297.31 287.81 286.21 295.67 273.76 301.65C259.46 308.51 245.59 311.82 231.36 311.78C209.18 311.71 186.54 306.09 164.65 300.66C159.29 299.32 153.74 297.95 148.39 296.7C133.03 293.14 120.03 291.34 108.64 291.2C66.72 290.7 29.37 299.15 6.18 314.38L5.91 313.63C17.27 306.17 32.6 300.11 50.23 296.12C67.89 292.11 88.09 290.12 108.65 290.37C120.07 290.51 133.1 292.31 148.49 295.88C153.85 297.13 159.4 298.5 164.76 299.83C186.63 305.26 209.24 310.87 231.37 310.94C231.46 310.94 231.57 310.94 231.66 310.94C263.32 310.94 287.43 293.86 306.82 280.13L307.11 279.93C312.19 276.35 316.38 273.43 320.31 270.72C339.73 257.38 356.04 246.65 374.37 239.95C397.56 231.47 422.58 225.92 446.72 223.89C468.23 222.08 488.51 223.46 508.74 228.11C530.54 233.12 551.59 241.75 573.09 254.5C603.02 272.25 632.98 298.51 662.16 332.56C663.86 334.56 665.57 336.56 667.27 338.55C680.88 354.51 694.96 371.01 709.26 386.33C748.94 428.86 783.99 457.21 819.56 475.56C832.99 482.5 847.06 488.66 861.39 493.87C879.18 500.28 896.56 505.07 913.04 508.12C942.56 513.58 971.46 517.37 1000.45 503.93C1016.19 496.64 1029.22 484.58 1040.29 467.06C1060.3 435.42 1071.23 391.58 1080.87 352.9C1085.39 334.79 1089.65 317.68 1094.46 303.31C1096.31 297.77 1098.17 292.05 1099.96 286.52C1105.57 269.21 1111.38 251.33 1118.5 234.46C1126.68 214.9 1135.94 198.35 1146.02 185.29C1157.49 170.39 1169.72 160.48 1182.37 155.83C1190.21 152.94 1198.21 151.53 1206.8 151.53C1206.99 151.53 1207.18 151.53 1207.37 151.53C1234.09 151.73 1261.6 168.24 1282.57 182.61C1304.92 197.92 1326.82 219.23 1345.91 244.24C1367.17 272.03 1386.39 305.58 1403.03 343.98C1417.97 378.44 1430.65 416.3 1440.72 456.53L1440.14 456.8C1425.15 396.95 1396.56 311.6 1345.48 244.85C1326.44 219.89 1304.59 198.63 1282.3 183.36C1261.38 169.03 1233.96 152.56 1207.36 152.37C1198.6 152.3 1190.49 153.7 1182.53 156.63C1159.1 165.26 1136.55 193.05 1119.03 234.87C1111.93 251.7 1106.13 269.57 1100.52 286.86C1098.73 292.39 1096.87 298.12 1095.02 303.65C1090.22 317.99 1085.96 335.08 1081.44 353.17C1071.79 391.92 1060.85 435.85 1040.76 467.61C1029.61 485.24 1016.49 497.38 1000.65 504.72C987.22 510.94 972.71 513.97 956.31 513.97Z" fill="#FFE492" fill-opacity="1.000000" fill-rule="nonzero"/>
		<path id="Vector" d="M972.73 517.9C969.54 517.9 966.29 517.76 962.95 517.48C948.37 516.26 934.2 512.6 919.75 508.64C903.01 504.05 886.1 497.9 868.05 489.85C853.77 483.43 839.77 476.11 826.44 468.1C792.61 447.8 759.02 417.93 717.53 371.23C707.23 359.64 696.93 347.47 686.97 335.71C681.54 329.31 675.94 322.68 670.38 316.22C640.9 281.99 609.99 257.13 578.5 242.32C536.89 222.76 494.13 219.17 447.76 231.37C423.26 237.81 398.31 247.92 375.6 260.59C357.35 270.77 341.46 285.07 324.63 300.21L323.47 301.25C320.84 303.63 318.18 306.03 315.49 308.47C313.94 309.87 312.38 311.28 310.81 312.7C301 321.63 290.4 330.93 278.25 338.1C264.14 346.42 250.18 350.51 235.57 350.61C211.26 350.77 186.46 343.08 162.48 335.64C159.05 334.58 155.51 333.48 152.08 332.44C135.96 327.56 123.26 324.75 112.09 323.59C70.89 319.33 32 322.33 5.4 331.83L5.23 330.96C31.9 321.43 70.87 318.42 112.15 322.69C123.34 323.85 136.08 326.66 152.22 331.56C155.66 332.6 159.2 333.7 162.63 334.76C186.32 342.11 210.8 349.7 234.79 349.7C235.05 349.7 235.31 349.7 235.57 349.7C266.6 349.49 288.69 331.72 310.44 311.95C312.01 310.53 313.57 309.12 315.12 307.71C317.81 305.28 320.47 302.87 323.1 300.5L324.26 299.45C341.12 284.29 357.04 269.97 375.34 259.75C398.1 247.05 423.09 236.93 447.63 230.47C494.12 218.25 537 221.84 578.72 241.46C610.29 256.31 641.27 281.23 670.82 315.53C676.37 322 681.98 328.62 687.4 335.02C697.36 346.78 707.66 358.94 717.96 370.53C759.4 417.17 792.94 447.01 826.71 467.27C840.02 475.27 854 482.58 868.26 488.99C886.28 497.03 903.16 503.17 919.88 507.75C945.27 514.71 976.85 523.38 1008.32 510.03C1024.49 503.17 1037.61 491.03 1048.42 472.93C1068.24 439.78 1077.42 393.15 1085.53 352.01C1089.05 334.13 1092.38 317.25 1096.26 303.24C1097.77 297.78 1099.29 292.14 1100.75 286.67C1105.67 268.36 1110.75 249.42 1117.28 231.41C1124.65 210.94 1133.22 193.33 1142.75 179.07C1153.56 162.92 1165.37 151.51 1177.85 145.17C1185.85 141.1 1194.06 138.59 1202.93 137.5C1214.81 136.03 1227.46 137.6 1241.6 142.26C1253.56 146.22 1266.39 152.35 1280.81 161.02C1304.06 175.01 1326.7 195.54 1346.26 220.4C1368.09 248.05 1387.46 281.94 1403.83 321.12C1418.58 356.4 1430.59 395.13 1439.54 436.24L1438.9 436.5C1420.01 349.7 1386.95 273.19 1345.8 221.06C1326.29 196.27 1303.73 175.8 1280.54 161.85C1249.47 143.17 1224.82 135.72 1202.99 138.4C1194.18 139.48 1186.03 141.98 1178.07 146.02C1148.4 161.11 1128.96 201 1117.88 231.81C1111.37 249.77 1106.29 268.69 1101.38 286.98C1099.91 292.45 1098.39 298.1 1096.88 303.56C1093.01 317.53 1089.68 334.39 1086.17 352.24C1078.05 393.47 1068.84 440.2 1048.93 473.51C1038.04 491.75 1024.81 503.98 1008.51 510.9C997.46 515.59 985.68 517.9 972.73 517.9Z" fill="#FFE492" fill-opacity="1.000000" fill-rule="nonzero"/>
		<path id="Vector" d="M986.95 522.41C965.25 522.41 944.39 514.82 926.55 508.34C909.76 502.24 892.85 494.61 874.87 485.03C860.67 477.41 846.76 468.95 833.53 459.86C793.86 432.66 758.49 393.62 726.18 355.48C719.58 347.69 712.92 339.67 706.48 331.91C697.53 321.13 688.28 309.98 679.01 299.24C649.09 264.68 617.18 241.17 584.16 229.38C541.45 214.12 497.16 216.94 448.76 238.01C423.85 248.85 398.92 263.52 376.67 280.42C359.51 293.45 344.99 309.91 329.62 327.33C328.53 328.56 327.44 329.8 326.34 331.04L325.75 331.71C322.01 335.95 318.15 340.33 314.23 344.73C304.84 355.32 294.51 366.27 282.55 374.63C268.68 384.34 254.69 389.18 239.78 389.43C213.62 389.88 186.95 379.87 161.16 370.2C159.35 369.52 157.55 368.84 155.76 368.18C138.76 361.83 126.35 358.07 115.54 355.97C75.37 348.2 34.94 345.75 4.62 349.27L4.56 348.29C34.93 344.77 75.42 347.22 115.64 355.01C126.48 357.1 138.91 360.88 155.95 367.23C157.74 367.9 159.54 368.58 161.35 369.26C187.09 378.91 213.71 388.89 239.77 388.46C272.14 387.91 294.94 365.21 313.77 343.98C317.69 339.58 321.55 335.2 325.29 330.96L325.88 330.29C326.98 329.05 328.07 327.81 329.16 326.57C344.56 309.12 359.1 292.64 376.32 279.56C398.61 262.63 423.58 247.94 448.54 237.08C471.49 227.09 493.04 221.32 514.43 219.45C538.28 217.36 561.8 220.38 584.34 228.43C617.46 240.27 649.47 263.84 679.47 298.5C688.75 309.24 698 320.39 706.95 331.17C713.39 338.93 720.05 346.96 726.65 354.74C758.92 392.84 794.25 431.84 833.85 458.99C847.07 468.06 860.95 476.51 875.13 484.12C893.09 493.69 909.96 501.3 926.73 507.39C952.47 516.75 984.51 528.39 1016.17 516.14C1032.78 509.71 1045.99 497.5 1056.54 478.81C1076.15 444.1 1083.49 394.6 1089.96 350.92C1092.56 333.37 1095.02 316.8 1098.05 303.19C1099.17 298.15 1100.29 292.95 1101.38 287.92C1105.64 268.24 1110.04 247.88 1116.06 228.37C1122.6 206.97 1130.48 188.29 1139.48 172.86C1149.63 155.45 1161.01 142.55 1173.31 134.52C1181.3 129.31 1189.54 125.69 1198.49 123.47C1210.54 120.47 1223.92 120.57 1238.25 123.77C1250.8 126.56 1264.52 131.84 1279.03 139.44C1303.18 152.1 1326.56 171.85 1346.6 196.56C1369 224.08 1388.52 258.3 1404.62 298.26C1419.18 334.36 1430.52 373.96 1438.35 415.96L1437.65 416.2C1421.07 327.2 1388.57 249.46 1346.12 197.28C1326.14 172.66 1302.85 152.97 1278.77 140.35C1247.56 124 1221.34 118.79 1198.62 124.43C1189.73 126.64 1181.56 130.23 1173.62 135.4C1144.35 154.5 1126.52 196.7 1116.72 228.74C1110.71 248.21 1106.31 268.53 1102.06 288.19C1100.98 293.22 1099.86 298.43 1098.74 303.47C1095.72 317.03 1093.26 333.59 1090.67 351.11C1087.55 372.12 1084.02 395.94 1078.9 418.27C1073.03 443.85 1065.9 463.85 1057.11 479.41C1052.03 488.41 1046.18 496.06 1039.75 502.17C1032.82 508.74 1024.96 513.76 1016.37 517.08C1006.53 520.89 996.65 522.41 986.95 522.41Z" fill="#FFE492" fill-opacity="1.000000" fill-rule="nonzero"/>
		<path id="Vector" d="M999.78 527.35C992.61 527.35 985.09 526.4 977.15 524.51C961.52 520.77 946.55 514 933.35 508.03C916.7 500.51 899.32 491.14 881.7 480.21C867.59 471.4 853.77 461.79 840.63 451.62C802.9 422.46 770.4 383.69 734.84 339.73C731.68 335.82 728.47 331.83 725.37 327.98C713.15 312.8 700.51 297.1 687.64 282.27C657.23 247.3 624.32 225.15 589.83 216.43C546.32 205.43 499.2 214.92 449.77 244.64C424.41 259.89 399.51 279.11 377.75 300.24C361.36 316.14 347.88 334.89 333.6 354.75C332.15 356.76 330.69 358.79 329.22 360.82C325.58 365.88 321.65 371.32 317.66 376.76C309.28 388.2 299.07 401.24 286.87 411.16C273.22 422.26 259.19 427.86 244 428.26C216.19 429.01 187.88 416.48 160.5 404.37L159.46 403.91C146.05 397.98 131.87 391.99 119 388.35C79.76 377.27 38.87 369.58 3.85 366.69L3.9 365.64C38.95 368.54 79.88 376.24 119.16 387.33C132.07 390.98 146.27 396.97 159.7 402.91L160.74 403.37C188.06 415.46 216.31 427.95 243.98 427.21C275.95 426.36 298.02 402.1 317.11 376.01C321.11 370.57 325.03 365.14 328.68 360.08C330.14 358.05 331.6 356.02 333.05 354.01C347.35 334.12 360.86 315.34 377.3 299.38C399.1 278.21 424.06 258.95 449.46 243.68C472.65 229.74 495.47 220.13 517.28 215.13C542.2 209.42 566.66 209.51 589.97 215.4C624.59 224.15 657.62 246.38 688.14 281.47C701.02 296.31 713.66 312.01 725.89 327.2C728.99 331.05 732.2 335.04 735.36 338.95C770.88 382.87 803.35 421.6 841.01 450.7C854.14 460.86 867.93 470.46 882.02 479.25C899.62 490.17 916.97 499.52 933.59 507.04C959.65 518.82 992.07 533.48 1024.04 522.25C1041.1 516.26 1054.39 503.97 1064.68 484.69C1084.06 448.37 1089.68 393.62 1094.19 349.63C1095.94 332.5 1097.61 316.31 1099.86 303.14C1100.56 298.99 1101.28 294.71 1101.97 290.57C1105.56 269.07 1109.28 246.83 1114.85 225.33C1123.46 191.87 1139.8 147.11 1168.8 123.88C1176.81 117.47 1185.06 112.75 1194.06 109.45C1217.56 100.7 1245.56 103.53 1277.27 117.86C1302.34 129.2 1326.44 148.17 1346.97 172.72C1369.93 200.12 1389.6 234.66 1405.44 275.41C1412.7 294.1 1419.12 314.06 1424.52 334.73C1429.68 354.48 1433.94 374.99 1437.17 395.69L1436.42 395.91C1422.17 304.7 1390.22 225.72 1346.46 173.51C1326.01 149.05 1302 130.15 1277.03 118.86C1245.47 104.58 1217.63 101.76 1194.26 110.46C1185.34 113.73 1177.14 118.42 1169.18 124.78C1140.39 147.85 1124.14 192.38 1115.57 225.68C1110.02 247.12 1106.31 269.32 1102.72 290.8C1102.03 294.94 1101.31 299.22 1100.61 303.37C1098.37 316.5 1096.71 332.66 1094.96 349.77C1092.68 371.91 1090.12 397 1085.72 420.68C1080.67 447.89 1073.99 469.03 1065.3 485.31C1060.35 494.59 1054.55 502.42 1048.06 508.58C1041.1 515.21 1033.07 520.15 1024.24 523.26C1016.48 525.99 1008.38 527.35 999.78 527.35Z" fill="#FFE492" fill-opacity="1.000000" fill-rule="nonzero"/>
		<path id="Vector" d="M1011.6 532.57C1003 532.57 993.93 531.05 984.25 528.01C968.56 523.09 953.46 514.93 940.14 507.72C923.37 498.65 906 487.77 888.51 475.38C874.5 465.4 860.77 454.63 847.71 443.37C811.78 412.41 780.96 372.5 748.33 330.25C746.72 328.16 745.1 326.07 743.49 323.97C728.31 304.35 712.62 284.05 696.27 265.3C665.33 229.88 631.42 209.09 595.49 203.48C550.36 196.44 501.67 212.52 450.78 251.26C425.32 270.64 399.76 295.07 378.82 320.05C363 338.91 350.32 360.12 336.89 382.59C335.3 385.25 333.7 387.92 332.1 390.59C328.89 395.94 325.07 402.29 321.07 408.77C313.67 420.82 303.58 436.13 291.18 447.65C277.74 460.13 263.68 466.49 248.21 467.09C235.48 467.52 221.45 464.85 205.29 458.92C191.41 453.83 177.99 447.18 163.14 439.64C149.58 432.68 135.27 425.49 122.44 420.74C84.41 406.66 44.25 394.34 3.07 384.11L3.22 383.01C44.42 393.25 84.61 405.58 122.65 419.66C135.52 424.42 149.85 431.63 163.42 438.6C188.32 451.23 219.3 466.96 248.18 465.97C281.21 464.69 302.43 437.38 320.44 408.05C324.44 401.57 328.25 395.23 331.46 389.88C333.07 387.21 334.66 384.54 336.25 381.88C349.7 359.38 362.41 338.13 378.27 319.21C399.26 294.18 424.87 269.71 450.38 250.29C501.43 211.43 550.28 195.31 595.59 202.37C612.95 205.08 630.02 211.38 646.29 221.08C663.75 231.49 680.75 246.08 696.8 264.45C713.17 283.22 728.87 303.53 744.05 323.17C745.67 325.26 747.29 327.35 748.9 329.44C781.5 371.65 812.29 411.52 848.15 442.43C861.19 453.67 874.9 464.43 888.89 474.39C906.36 486.76 923.7 497.63 940.44 506.69C966.76 520.92 999.51 538.63 1031.9 528.36C1049.44 522.8 1062.82 510.44 1072.8 490.58C1092.02 452.66 1095.44 394.73 1098.19 348.19C1099.18 331.54 1100.11 315.81 1101.65 303.1C1101.97 300.48 1102.29 297.84 1102.61 295.19C1105.48 271.24 1108.46 246.47 1113.63 222.3C1121.01 187.54 1135.79 140.4 1164.27 113.25C1172.22 105.68 1180.5 99.85 1189.62 95.44C1202.28 89.24 1216.39 86.33 1231.55 86.78C1245.4 87.19 1260.18 90.39 1275.49 96.29C1301.46 106.3 1326.3 124.49 1347.31 148.89C1370.84 176.15 1390.66 211.03 1406.23 252.55C1413.38 271.61 1419.56 291.98 1424.62 313.1C1429.46 333.33 1433.29 354.3 1435.98 375.43L1435.17 375.62C1423.42 283.54 1391.2 201.21 1346.78 149.74C1325.86 125.44 1301.13 107.33 1275.27 97.36C1243.38 85.06 1213.86 84.76 1189.89 96.48C1180.85 100.87 1172.62 106.65 1164.74 114.16C1136.46 141.13 1121.76 188.02 1114.42 222.61C1109.26 246.72 1106.29 271.45 1103.42 295.36C1103.1 298.01 1102.78 300.65 1102.46 303.28C1100.92 315.95 1100 331.65 1099.01 348.27C1096.25 394.95 1092.81 453.05 1073.48 491.21C1068.67 500.78 1062.92 508.79 1056.39 515.01C1049.36 521.71 1041.18 526.56 1032.09 529.45C1025.52 531.52 1018.73 532.57 1011.6 532.57Z" fill="#FFE492" fill-opacity="1.000000" fill-rule="nonzero"/>
		<path id="Vector" d="M1022.71 538C1012.91 538 1002.53 535.85 991.34 531.52C975.52 525.4 960.33 515.84 946.93 507.41C929.99 496.76 912.63 484.35 895.33 470.55C881.41 459.41 867.78 447.49 854.8 435.13C822.84 404.68 795.52 367.39 766.6 327.9C761.87 321.45 756.98 314.78 752.13 308.22C735.08 285.16 720.52 266.15 704.89 248.32C673.4 212.44 638.5 193 601.15 190.53C554.23 187.43 503.97 210.09 451.77 257.88C425.84 281.63 400.31 310.74 379.88 339.85C364.49 361.79 352.46 385.66 339.72 410.94C338.14 414.07 336.56 417.21 334.96 420.36C332.12 425.97 328.36 433.37 324.48 440.78C308.16 472.06 286.82 504.26 252.41 505.91C251.34 505.96 250.26 505.98 249.18 505.98C222.31 505.98 194.88 491.52 166.82 475.36L165.06 474.35C151.16 466.28 138.03 458.66 125.88 453.11C80.07 432.2 35.77 414.55 2.29 401.51L2.53 400.37C36.01 413.41 80.33 431.07 126.15 451.98C138.34 457.55 151.49 465.18 165.41 473.26L167.16 474.27C196.25 491.02 224.66 505.95 252.38 504.73C286.41 503.1 307.56 471.14 323.77 440.1C327.65 432.69 331.4 425.3 334.24 419.69C335.84 416.54 337.42 413.4 339 410.27C351.76 384.95 363.81 361.04 379.25 339.03C399.72 309.86 425.3 280.69 451.29 256.9C475.4 234.82 499.52 217.86 522.99 206.5C549.9 193.47 576.22 187.69 601.2 189.34C638.73 191.82 673.81 211.36 705.45 247.41C721.1 265.27 735.68 284.3 752.74 307.37C757.6 313.93 762.49 320.61 767.22 327.06C796.11 366.51 823.4 403.77 855.3 434.15C868.26 446.5 881.87 458.4 895.77 469.52C913.04 483.3 930.38 495.69 947.29 506.33C973.84 523.03 1006.88 543.82 1039.76 534.46C1057.74 529.34 1071.19 516.92 1080.92 496.46C1099.9 456.81 1101.04 395.62 1101.96 346.46C1102.26 330.41 1102.54 315.26 1103.44 303.05L1103.47 302.77C1105.5 275.43 1107.6 247.16 1112.41 219.26C1116.56 194.93 1122.38 173.06 1129.66 154.24C1137.86 133.03 1147.98 115.66 1159.74 102.61C1167.6 93.88 1175.92 86.94 1185.17 81.41C1210.15 66.37 1240.77 64.05 1273.71 74.7C1286.97 78.99 1300.04 85.48 1312.58 94C1325.19 102.57 1336.99 113.01 1347.66 125.04C1371.76 152.17 1391.73 187.38 1407.03 229.69C1420.78 267.73 1430.38 311.11 1434.79 355.15L1433.93 355.31C1424.49 261.05 1392.84 177.45 1347.1 125.96C1325.71 101.84 1300.26 84.51 1273.51 75.86C1240.76 65.27 1210.32 67.57 1185.52 82.5C1176.34 88 1168.09 94.88 1160.29 103.54C1138.35 127.9 1122.07 168.01 1113.26 219.54C1108.46 247.36 1106.36 275.59 1104.34 302.9L1104.31 303.17C1103.41 315.34 1103.13 330.47 1102.82 346.49C1101.91 395.81 1100.76 457.18 1081.65 497.11C1076.97 506.97 1071.26 515.16 1064.68 521.43C1057.6 528.2 1049.28 532.97 1039.93 535.63C1034.38 537.21 1028.65 538 1022.71 538Z" fill="#FFE492" fill-opacity="1.000000" fill-rule="nonzero"/>
		<path id="Vector" d="M253.05 544.84C241.03 544.84 227.95 541.65 213.18 535.15C198.51 528.69 184 519.77 170.5 511.09C168.06 509.52 165.63 507.94 163.22 506.37C151.23 498.58 139.91 491.22 129.32 485.48C87.11 462.62 46.88 442.07 7.97 422.21L1.52 418.92L1.85 417.74L8.3 421.03C47.21 440.9 87.45 461.45 129.66 484.32C140.28 490.07 151.62 497.44 163.62 505.24C166.03 506.81 168.45 508.38 170.9 509.96C198.6 527.77 228.04 545.02 256.59 543.49C291.68 541.5 312.71 504.31 327.11 472.14C330.8 463.92 334.36 455.72 337.04 449.49C338.52 446.06 339.99 442.64 341.46 439.22C353.63 410.88 365.12 384.11 380.23 358.86C400.18 325.55 425.74 291.69 452.21 263.51C476.76 237.38 501.54 216.72 525.85 202.13C553.74 185.4 580.98 176.71 606.81 176.32C645.69 175.53 681.8 193.72 714.12 230.38C732.03 250.72 748.1 272.73 761.45 291.58C768.72 301.84 775.98 312.35 783.01 322.52C807.88 358.51 833.61 395.73 862.45 425.87C875.34 439.34 888.86 452.39 902.65 464.65C919.71 479.8 937.04 493.7 954.15 505.98C980.9 525.16 1014.19 549.04 1047.63 540.57C1066.04 535.9 1079.59 523.4 1089.05 502.34C1107.78 460.9 1106.51 396.35 1105.5 344.49C1105.19 329.16 1104.91 314.67 1105.25 303.01C1106.02 276.72 1107.18 246.16 1111.19 216.23C1114.57 190.87 1119.68 167.93 1126.38 148.04C1133.96 125.54 1143.66 106.68 1155.22 91.98C1162.88 82.24 1171.46 73.97 1180.73 67.4C1193.94 57.99 1208.8 52.08 1224.84 49.82C1239.87 47.71 1255.72 48.82 1271.93 53.12C1285.61 56.75 1299.1 62.72 1312.01 70.86C1325 79.05 1337.12 89.26 1348.01 101.2C1360.57 114.95 1372.12 131.18 1382.34 149.46C1392.02 166.77 1400.6 186.07 1407.84 206.84C1421.39 245.68 1430.3 289.96 1433.61 334.88L1432.7 335.01C1425.57 238.55 1394.5 153.69 1347.43 102.18C1325.88 78.57 1299 61.58 1271.76 54.35C1238.06 45.42 1206.74 50.32 1181.16 68.51C1171.96 75.03 1163.44 83.23 1155.85 92.9C1134.06 120.6 1119.35 162.17 1112.1 216.46C1108.1 246.3 1106.93 276.81 1106.17 303.06C1105.82 314.68 1106.12 329.15 1106.42 344.46C1106.92 370.05 1107.49 399.04 1105.57 427.08C1103.37 459.61 1098.22 484.44 1089.84 503C1085.28 513.15 1079.61 521.51 1073 527.84C1065.86 534.68 1057.38 539.37 1047.8 541.8C1042.97 543.03 1038.14 543.58 1033.34 543.58C1004.6 543.58 976.75 523.6 953.72 507.09C936.58 494.79 919.23 480.87 902.15 465.7C888.34 453.42 874.8 440.35 861.89 426.86C832.99 396.66 807.24 359.4 782.34 323.37C775.31 313.21 768.05 302.7 760.79 292.45C747.45 273.62 731.41 251.65 713.53 231.34C681.38 194.88 645.49 176.79 606.83 177.57C546.12 178.49 489.55 225.35 452.78 264.5C426.37 292.62 400.86 326.41 380.95 359.65C365.88 384.82 354.41 411.55 342.26 439.84C340.79 443.26 339.32 446.69 337.84 450.12C335.15 456.35 331.59 464.55 327.9 472.79C321.86 486.29 312.37 505.95 299.8 520.69C293.7 527.84 287.2 533.47 280.49 537.4C273.01 541.79 264.98 544.26 256.63 544.73C255.44 544.8 254.25 544.84 253.05 544.84Z" fill="#FFE492" fill-opacity="1.000000" fill-rule="nonzero"/>
		<path id="Vector" d="M256.91 583.69C244.88 583.69 231.82 580.26 217.13 573.26C201.92 566.02 186.88 555.83 174.18 546.82C170.28 544.04 166.39 541.23 162.62 538.51C152.09 530.9 142.14 523.72 132.76 517.85C99.08 496.78 65.62 476.21 33.26 456.31C22.55 449.73 11.49 442.93 0.76 436.32L1.16 435.11C11.89 441.72 22.96 448.52 33.66 455.11C66.02 475 99.49 495.58 133.17 516.65C142.57 522.53 152.53 529.72 163.08 537.34C166.84 540.06 170.74 542.87 174.63 545.65C200.98 564.33 231.53 584.1 260.79 582.24C296.71 579.9 316.88 539.3 330.45 504.19C333.93 495.19 337.29 486.16 339.83 479.3C341.14 475.78 342.43 472.26 343.73 468.75C355.37 437.17 366.36 407.34 381.22 378.7C400.54 341.45 426.08 302.89 453.13 270.14C490.79 224.72 549 169.31 612.43 163.3C652.77 159.38 689.9 176.22 722.78 213.36C737.55 230.05 752.16 249.31 770.15 275.8C779.24 289.19 788.26 303.07 796.99 316.48C819.69 351.39 843.16 387.48 869.6 417.61C882.41 432.21 895.85 446.41 909.53 459.81C926.1 476.02 943.42 491.44 961 505.65C988.02 527.34 1021.65 554.33 1055.49 546.69C1074.05 542.59 1088.06 529.65 1097.17 508.25C1115.64 464.92 1111.68 394.05 1108.78 342.3C1107.97 327.77 1107.19 314.06 1107.05 302.99C1106.72 278.4 1106.75 245.97 1109.98 213.22C1115.56 156.47 1129.26 112.1 1150.68 81.37C1158.19 70.54 1166.81 61.13 1176.29 53.4C1189.76 42.4 1204.97 34.99 1221.49 31.4C1237.04 28.02 1253.42 28.07 1270.16 31.56C1284.28 34.57 1298.17 40.02 1311.43 47.76C1324.83 55.58 1337.25 65.55 1348.36 77.38C1361.2 91.05 1372.94 107.34 1383.23 125.8C1392.99 143.29 1401.54 162.88 1408.64 184C1421.98 223.67 1430.2 268.84 1432.43 314.64L1431.46 314.72C1426.66 216.06 1396.16 129.93 1347.76 78.42C1325.82 55.06 1298.21 38.88 1270.01 32.87C1235.25 25.63 1203.02 33.12 1176.79 54.54C1167.4 62.21 1158.85 71.54 1151.4 82.28C1130.12 112.81 1116.51 156.92 1110.94 213.4C1107.72 246.06 1107.69 278.42 1108.03 302.97C1108.18 313.99 1108.94 327.69 1109.76 342.2C1111.25 368.95 1112.94 399.27 1111.98 428.87C1110.85 463.34 1106.29 489.53 1098.02 508.91C1093.56 519.37 1087.94 527.91 1081.31 534.3C1074.1 541.22 1065.47 545.83 1055.66 548C1040.43 551.44 1024.05 548.35 1005.56 538.56C989.49 530.05 974.09 517.7 960.51 506.8C942.9 492.57 925.55 477.13 908.96 460.89C895.26 447.47 881.81 433.25 868.98 418.63C842.48 388.45 818.98 352.31 796.26 317.37C787.54 303.96 778.52 290.09 769.44 276.71C751.48 250.27 736.89 231.05 722.15 214.39C689.47 177.46 652.58 160.72 612.49 164.62C549.34 170.61 491.32 225.84 453.77 271.13C426.78 303.82 401.3 342.29 382.01 379.47C367.19 408.03 356.22 437.81 344.6 469.34C343.3 472.86 342.01 476.37 340.7 479.9C338.16 486.77 334.79 495.8 331.31 504.81C317.63 540.23 297.25 581.2 260.83 583.57C259.54 583.65 258.22 583.69 256.91 583.69Z" fill="#FFE492" fill-opacity="1.000000" fill-rule="nonzero"/>
		<path id="Vector" d="M260.84 622.55C227.97 622.55 193.48 595.09 162.91 570.74C153.51 563.26 144.64 556.2 136.2 550.22L0 453.72L0.47 452.49L136.68 548.99C145.13 554.98 154.02 562.05 163.42 569.54C195.18 594.83 231.18 623.49 264.99 621C301.7 618.31 321.04 574.28 333.79 536.24C337.96 523.79 341.99 511.13 345.88 498.89C356.53 465.39 367.54 430.76 382.2 398.53C393.84 372.94 408.3 346.1 424.01 320.92C441.25 293.29 459.7 267.94 478.86 245.58C499.98 220.93 521.46 200.54 542.7 184.98C566.19 167.76 589.32 156.52 611.48 151.57C655.85 141.65 696.21 156.7 731.43 196.33C760.7 229.25 785.58 269.96 809.64 309.34C830.58 343.61 852.23 379.04 876.75 409.34C905.07 444.32 935.72 476.61 967.86 505.3C994.93 529.47 1028.63 559.55 1063.36 552.79C1092.68 547.08 1109.65 520.39 1115.19 471.19C1119.92 429.33 1115.43 379.69 1111.81 339.8C1110.59 326.2 1109.43 313.36 1108.86 302.95C1105.71 245.55 1107.71 198.16 1114.99 158.09C1119.53 133.09 1126.22 110.8 1134.89 91.84C1144.57 70.67 1157.01 53.02 1171.84 39.39C1184.68 27.59 1199.14 19.02 1214.84 13.92C1229.78 9.06 1245.5 7.44 1261.59 9.08C1293.22 12.32 1324.16 28.11 1348.7 53.53C1361.83 67.12 1373.74 83.47 1384.12 102.12C1393.95 119.8 1402.47 139.65 1409.44 161.14C1422.56 201.62 1430.1 247.69 1431.24 294.36L1430.21 294.41C1427.79 195.02 1397.09 105.39 1348.08 54.64C1296.04 0.75 1222.16 -5.18 1172.41 40.55C1123.14 85.84 1102.68 171.64 1109.88 302.85C1110.43 313.23 1111.61 326.05 1112.82 339.63C1116.44 379.6 1120.96 429.36 1116.21 471.4C1113.62 494.3 1108.43 512.7 1100.77 526.1C1096.46 533.63 1091.27 539.79 1085.32 544.39C1079.01 549.29 1071.67 552.58 1063.5 554.17C1060.16 554.83 1056.77 555.15 1053.31 555.15C1040.73 555.15 1027.32 550.82 1012.64 542.05C996.09 532.17 980.12 517.92 967.29 506.47C935.11 477.74 904.42 445.41 876.06 410.37C851.48 380.01 829.8 344.54 808.84 310.23C784.81 270.91 759.97 230.24 730.77 197.4C695.79 158.05 655.71 143.09 611.64 152.95C522.49 172.88 430.66 294.6 383.07 399.27C368.45 431.41 357.45 466 346.81 499.44C342.92 511.69 338.89 524.36 334.72 536.82C326.25 562.08 317.89 580.17 308.41 593.74C302.49 602.2 296.07 608.88 289.32 613.58C281.82 618.8 273.65 621.77 265.04 622.4C263.65 622.5 262.24 622.55 260.84 622.55Z" fill="#FFE492" fill-opacity="1.000000" fill-rule="nonzero"/>
	</g>
</svg>
