<svg width="1229.521484" height="888.461914" viewBox="0 0 1229.52 888.462" fill="none" xmlns="http://www.w3.org/2000/svg" xmlns:xlink="http://www.w3.org/1999/xlink">
	<desc>
			Created with Pixso.
	</desc>
	<defs/>
	<g opacity="0.300000">
		<path id="Vector" d="M374.71 699.46C371.21 698.37 368.01 696.83 365.15 694.85C359.14 690.72 354.56 684.65 351.53 676.81C348.27 668.39 346.77 657.83 347.08 645.43C347.7 620.52 354.64 592.62 361.35 565.64C362.66 560.34 364.03 554.86 365.31 549.53C374.04 513.22 379.32 480.67 381.45 450.02C385.69 388.89 378.57 333.35 360.86 289.43C340.37 238.63 308.65 206.6 271.52 199.23C249.7 194.9 213.13 207.18 185.47 239.03C169.05 257.92 158.36 281.25 154.55 306.48L154.38 306.54C156.38 293.31 160.23 280.62 165.81 268.83C170.94 258.01 177.53 247.93 185.4 238.87C197.93 224.45 213.28 213.01 229.81 205.77C245.09 199.08 259.93 196.68 271.61 198.99C291.04 202.85 308.95 213.37 324.83 230.26C339.23 245.57 351.41 265.42 361.02 289.25C378.74 333.2 385.86 388.76 381.62 449.93C379.49 480.6 374.21 513.17 365.47 549.5C364.19 554.83 362.83 560.31 361.51 565.61C354.8 592.57 347.86 620.45 347.25 645.33C346.66 669.39 352.72 685.98 365.27 694.62C382.66 706.6 411.96 702.08 443.65 682.53C489.32 654.37 533.25 606.33 575.75 559.88C583.19 551.74 590.89 543.32 598.42 535.21C617.96 514.17 643.81 487.07 670.58 464.1C697.94 440.62 722.32 424.7 745.13 415.45C759.09 409.78 772.42 407.19 784.74 407.75C796.13 408.26 807.03 411.48 817.14 417.31C834.49 427.31 850.15 445.15 865.02 471.83C894.29 524.36 920.01 585.06 941.44 652.24C961.81 716.09 978.5 786.35 991.06 861.07L990.9 861.21C964.87 706.32 922.46 575.38 864.87 472.02C832.33 413.62 794.28 395.72 745.1 415.67C695.07 435.98 645.06 485.2 598.48 535.38C590.95 543.48 583.25 551.9 575.81 560.04C533.3 606.51 489.35 654.56 443.65 682.75C428.88 691.85 414.06 697.93 400.79 700.31C393.78 701.56 387.26 701.78 381.4 700.94C379.06 700.62 376.83 700.12 374.71 699.46Z" fill="#FFE492" fill-opacity="1.000000" fill-rule="nonzero"/>
		<path id="Vector" d="M383.77 687.4C374.85 684.61 367.85 679.09 362.96 670.98C357.51 661.93 354.71 649.68 354.65 634.57C354.65 633.23 354.66 631.85 354.7 630.47C355.37 605.68 361.96 578.06 368.34 551.36C369.63 545.96 370.96 540.38 372.22 534.95C379.67 502.61 384.42 473.54 386.71 446.08C386.99 442.7 387.24 439.3 387.44 435.98C391.19 375.22 383.6 320.22 365.47 276.9C344.43 226.69 312.25 195.43 274.84 188.88C252.97 185.08 216.38 197.74 188.78 229.29C172.25 248.18 161.29 271.48 157.08 296.66L156.91 296.71C159.12 283.51 163.14 270.85 168.85 259.09C174.1 248.28 180.78 238.2 188.71 229.13C201.28 214.76 216.62 203.29 233.06 195.96C248.26 189.19 263.13 186.59 274.93 188.64C294.52 192.07 312.62 202.18 328.75 218.69C343.35 233.64 355.76 253.17 365.63 276.72C383.76 320.06 391.36 375.1 387.61 435.89C387.4 439.21 387.16 442.61 386.87 446C384.58 473.48 379.84 502.56 372.37 534.91C371.12 540.34 369.79 545.93 368.5 551.33C362.13 578.02 355.54 605.61 354.87 630.37C354.83 631.75 354.82 633.12 354.82 634.46C354.95 665.7 366.55 682.02 383.81 687.42C383.91 687.45 384 687.47 384.09 687.5C383.99 687.47 383.88 687.44 383.77 687.4ZM387.52 688.39C404.18 691.98 425.33 686.48 446.36 675.03C491.79 650.2 536.64 603.94 580.03 559.2C581.81 557.35 583.6 555.52 585.38 553.68C589.3 549.64 593.95 544.86 598.66 540.05C619.78 518.48 644.85 493.54 670.59 472.09C697.98 449.26 722.29 433.56 744.91 424.1C758.81 418.3 772.13 415.32 784.53 415.24C796.01 415.17 807.07 417.59 817.4 422.44C835.24 430.82 851.55 446.53 867.25 470.47C882.57 493.79 894.32 514.9 904.24 536.92C918.29 568.14 929.63 602.6 938.88 632.19C960.31 701.13 977.7 777.25 990.57 858.43L990.4 858.57C977.54 777.4 960.15 701.29 938.72 632.35C929.47 602.77 918.13 568.32 904.09 537.11C894.17 515.09 882.42 493.98 867.1 470.67C832.9 418.52 794.07 403.79 744.88 424.33C693.82 445.69 642.66 495.35 598.71 540.22C594 545.03 589.35 549.81 585.43 553.85C583.65 555.69 581.86 557.53 580.08 559.37C536.68 604.13 491.81 650.4 446.35 675.25C435.09 681.38 424.1 685.6 413.67 687.81C403.97 689.86 395.19 690.05 387.52 688.39Z" fill="#FFE492" fill-opacity="1.000000" fill-rule="nonzero"/>
		<path id="Vector" d="M393.06 675.76C391.98 675.42 390.93 675.05 389.91 674.64C381.29 671.17 374.57 665.05 369.93 656.44C364.85 647.03 362.27 634.64 362.27 619.61C362.27 618.27 362.29 616.89 362.33 615.51C363.05 590.86 369.3 563.53 375.35 537.11C376.61 531.6 377.91 525.9 379.13 520.36C386.26 488.04 390.73 459.13 392.79 431.98C393.04 428.62 393.26 425.24 393.44 421.94C396.7 361.57 388.63 307.09 370.09 264.38C348.5 214.76 315.85 184.26 278.17 178.53C256.93 175.35 220.94 186.82 192.12 219.53C175.47 238.42 164.23 261.7 159.61 286.84L159.44 286.89C161.87 273.72 166.06 261.08 171.91 249.33C177.29 238.52 184.07 228.44 192.06 219.37C204.67 205.06 219.98 193.57 236.33 186.16C251.45 179.3 266.34 176.51 278.25 178.29C298 181.3 316.31 191 332.66 207.12C347.47 221.72 360.12 240.92 370.25 264.2C388.79 306.94 396.87 361.45 393.61 421.85C393.43 425.15 393.21 428.53 392.95 431.9C390.89 459.07 386.42 488 379.28 520.33C378.06 525.87 376.76 531.57 375.5 537.08C369.46 563.49 363.21 590.79 362.49 615.42C362.45 616.8 362.43 618.17 362.43 619.51C362.44 680.59 405.96 687.64 449.08 667.52C494.48 646.13 540.61 601.39 585.22 558.13L585.68 557.69C590 553.49 594.47 549.16 598.9 544.88C645.65 499.79 695.41 453.99 744.71 432.75C758.54 426.81 771.87 423.44 784.32 422.73C795.91 422.07 807.13 423.7 817.67 427.57C836.04 434.31 852.99 447.9 869.49 469.11C886.85 491.35 898.86 510.55 908.41 531.37C922.01 561.09 932.33 596.5 941.43 627.75C961.58 697.61 977.95 774.33 990.09 855.77L989.92 855.91C977.79 774.48 961.42 697.76 941.27 627.91C932.17 596.67 921.85 561.27 908.26 531.56C898.71 510.74 886.71 491.54 869.35 469.31C833.59 423.34 793.98 411.8 744.68 432.98C695.42 454.2 645.68 499.98 598.95 545.06C594.52 549.33 590.05 553.67 585.72 557.86L585.27 558.3C563.03 579.86 540.05 602.15 517.31 621.38C491.75 642.98 469.43 658.14 449.06 667.74C427.8 677.66 408.08 680.45 393.06 675.76Z" fill="#FFE492" fill-opacity="1.000000" fill-rule="nonzero"/>
		<path id="Vector" d="M989.43 853.26C978.03 771.55 962.68 694.23 943.82 623.46C943.01 620.48 942.21 617.49 941.4 614.49C933.18 583.95 924.68 552.37 912.42 526.01C900.49 500.48 885.09 482.34 871.59 467.95C834.4 428.1 794.01 419.74 744.47 441.62C693.58 464.19 641.24 511.71 599.18 549.89C596.65 552.18 594.13 554.48 591.6 556.78C589.74 558.48 587.87 560.17 586.01 561.87C562.05 583.64 540.43 603.04 518.45 620.03C493.34 639.45 471.52 652.6 451.76 660.24C433.24 667.39 416.09 668.89 402.56 664.66C400.1 663.89 397.75 662.93 395.54 661.78C387.46 657.58 381.18 650.9 376.87 641.93C372.17 632.15 369.81 619.6 369.86 604.64C369.87 603.3 369.9 601.92 369.94 600.54C370.72 576.04 376.62 549.02 382.33 522.88C383.56 517.26 384.84 511.43 386.03 505.77C392.84 473.46 397.03 444.7 398.86 417.86C399.09 414.52 399.28 411.17 399.43 407.88C402.2 347.9 393.65 293.95 374.7 251.85C352.55 202.81 319.45 173.09 281.49 168.16C255.5 164.88 220.14 181.97 195.5 209.71C178.71 228.62 167.17 251.89 162.13 277.01L161.97 277.06C164.61 263.9 168.98 251.28 174.97 239.54C180.48 228.73 187.37 218.64 195.44 209.55C208.09 195.31 223.37 183.82 239.62 176.32C254.65 169.39 269.55 166.41 281.57 167.93C301.47 170.51 319.98 179.8 336.58 195.54C351.59 209.78 364.47 228.67 374.86 251.67C393.82 293.79 402.37 347.78 399.6 407.79C399.45 411.08 399.26 414.44 399.03 417.78C397.2 444.63 393 473.4 386.19 505.73C385 511.39 383.73 517.21 382.5 522.84C376.79 548.96 370.89 575.97 370.11 600.44C370.07 601.82 370.04 603.2 370.04 604.54C369.8 668.88 413.93 674.63 451.79 660.01C496.96 642.55 544.25 599.59 585.97 561.68C587.84 559.99 589.7 558.29 591.57 556.59C594.09 554.29 596.62 552 599.14 549.7C623.15 527.91 646.68 506.79 670.64 488.04C698.18 466.48 722.34 451.22 744.5 441.4C758.27 435.31 771.6 431.55 784.12 430.21C795.81 428.97 807.19 429.8 817.93 432.69C836.88 437.79 854.47 449.26 871.73 467.74C885.23 482.13 900.64 500.28 912.57 525.82C924.84 552.2 933.34 583.79 941.56 614.33C942.37 617.33 943.18 620.33 943.98 623.31C962.84 694.08 978.19 771.4 989.6 853.12L989.43 853.26Z" fill="#FFE492" fill-opacity="1.000000" fill-rule="nonzero"/>
		<path id="Vector" d="M988.95 850.6C978.06 767.06 963.74 689.14 946.37 619.02C945.33 614.82 944.28 610.51 943.26 606.33C935.97 576.43 928.44 545.5 916.58 520.45C904.72 495.51 888.32 479.23 873.84 466.59C835.37 432.78 794.2 427.59 744.27 450.27C696.59 472.01 649.24 512.32 603.44 551.3L598.41 555.58C594.44 558.96 590.34 562.45 586.3 565.88C540.59 604.58 496.12 640.34 454.47 652.73C444.36 655.73 434.76 657 425.93 656.51C416.45 655.98 408.13 653.41 401.18 648.87C393.64 643.95 387.81 636.72 383.83 627.4C379.5 617.26 377.36 604.56 377.48 589.68C377.49 588.33 377.52 586.95 377.57 585.58C378.39 561.23 383.95 534.53 389.34 508.7C390.54 502.94 391.78 496.98 392.94 491.18C399.42 458.87 403.34 430.28 404.94 403.76C405.14 400.44 405.3 397.1 405.43 393.84C407.71 334.25 398.68 280.82 379.32 239.33C356.61 190.87 323.05 161.92 284.81 157.81C258.81 155.12 223.49 172.42 198.91 199.87C181.97 218.79 170.13 242.07 164.66 267.19L164.5 267.23C167.36 254.08 171.92 241.47 178.05 229.73C183.71 218.91 190.7 208.81 198.85 199.71C211.54 185.54 226.78 174.05 242.92 166.49C257.87 159.49 272.77 156.32 284.89 157.58C304.95 159.73 323.65 168.61 340.49 183.97C355.71 197.86 368.82 216.42 379.47 239.14C398.84 280.66 407.88 334.12 405.59 393.75C405.47 397.01 405.3 400.35 405.11 403.67C403.51 430.2 399.58 458.81 393.1 491.14C391.94 496.94 390.7 502.9 389.5 508.66C384.12 534.47 378.56 561.17 377.73 585.48C377.68 586.85 377.66 588.23 377.64 589.58C377.17 652.95 417.04 663.63 454.51 652.49C496.13 640.12 540.58 604.37 586.27 565.69C590.3 562.26 594.41 558.77 598.38 555.39L603.41 551.11C625.89 531.98 649.13 512.19 672.78 494.42C699.56 474.29 722.95 459.77 744.29 450.04C758.01 443.81 771.34 439.65 783.91 437.7C795.73 435.86 807.26 435.89 818.2 437.81C837.77 441.24 856.01 450.59 873.97 466.37C888.45 479.01 904.86 495.3 916.73 520.27C928.6 545.33 936.13 576.26 943.43 606.17C944.44 610.34 945.5 614.66 946.53 618.86C963.9 688.99 978.23 766.91 989.11 850.46L988.95 850.6Z" fill="#FFE492" fill-opacity="1.000000" fill-rule="nonzero"/>
		<path id="Vector" d="M988.46 847.94C978.27 763.73 964.97 685.21 948.92 614.58C947.71 609.27 946.5 603.76 945.34 598.44C938.89 569.1 932.23 538.76 920.74 514.91C908.83 490.31 891.48 475.99 876.08 465.23C836.54 437.35 794.59 435.34 744.06 458.91C699.91 479.61 655.87 514.74 613.27 548.71C608.79 552.29 604.16 555.98 599.65 559.56C594.36 563.76 590.33 566.95 586.58 569.89C566.5 585.64 542.93 603.63 520.28 617.65C496.27 632.5 475.63 641.52 457.17 645.22C447.47 647.17 438.33 647.45 430.01 646.07C421.09 644.58 413.28 641.18 406.82 635.97C399.82 630.32 394.43 622.55 390.78 612.87C386.83 602.37 384.91 589.54 385.08 574.72C385.1 573.38 385.13 571.99 385.19 570.61C386.06 546.45 391.28 520.08 396.33 494.57C397.5 488.66 398.72 482.54 399.85 476.59C405.99 444.27 409.65 415.84 411.02 389.65C411.19 386.35 411.32 383.04 411.42 379.79C413.21 320.58 403.71 267.68 383.94 226.8C360.67 178.93 326.65 150.75 288.13 147.45C266.17 145.67 231.13 158.13 202.36 189.98C185.26 208.92 173.09 232.23 167.19 257.37L167.03 257.4C170.12 244.25 174.87 231.63 181.16 219.89C186.96 209.05 194.07 198.94 202.3 189.82C215.03 175.73 230.22 164.26 246.26 156.63C261.11 149.57 276.01 146.22 288.21 147.21C308.43 148.95 327.34 157.42 344.41 172.39C359.83 185.92 373.18 204.16 384.09 226.61C403.87 267.52 413.38 320.45 411.59 379.69C411.49 382.94 411.35 386.26 411.18 389.55C409.81 415.76 406.16 444.21 400.01 476.54C398.88 482.5 397.67 488.61 396.5 494.53C391.45 520.02 386.23 546.38 385.35 570.51C385.3 571.89 385.27 573.27 385.25 574.61C384.64 627.84 411.55 654.14 457.23 644.98C498.59 636.68 543.8 603.23 586.56 569.69C590.31 566.74 594.34 563.56 599.63 559.36C604.14 555.78 608.77 552.09 613.25 548.51C634.22 531.79 655.9 514.49 677.84 498.81C702.65 481.08 724.32 467.95 744.08 458.68C757.76 452.3 771.09 447.76 783.7 445.18C795.65 442.74 807.34 441.99 818.47 442.93C838.71 444.66 857.6 451.88 876.2 465.01C891.61 475.77 908.98 490.1 920.9 514.71C932.39 538.58 939.05 568.93 945.5 598.28C946.67 603.6 947.88 609.11 949.09 614.41C965.13 685.06 978.44 763.58 988.63 847.8L988.46 847.94Z" fill="#FFE492" fill-opacity="1.000000" fill-rule="nonzero"/>
		<path id="Vector" d="M987.97 845.29C978.47 760.39 966.19 681.27 951.47 610.13C950.21 604.08 948.97 597.75 947.78 591.63C942.07 562.48 936.16 532.34 924.9 509.35C912.88 484.97 894.61 472.68 878.32 463.87C838.5 442.08 794.51 443.28 743.85 467.56C703.45 487.01 662.98 517.29 623.85 546.57C615.94 552.48 607.77 558.59 599.88 564.39C595.06 567.94 590.8 571.06 586.86 573.9C568.55 587.12 544.53 603.9 521.18 616.45C497.72 629.06 477.66 636.02 459.87 637.71C440.46 639.57 424.07 634.5 412.45 623.06C406 616.7 401.04 608.39 397.73 598.34C394.15 587.5 392.46 574.52 392.68 559.76C392.71 558.42 392.74 557.03 392.8 555.65C393.72 531.69 398.6 505.67 403.32 480.51C404.47 474.43 405.65 468.13 406.75 462C412.56 429.68 415.94 401.39 417.08 375.54C417.23 372.27 417.34 368.98 417.41 365.75C418.71 306.93 408.73 254.55 388.54 214.28C364.73 167 330.24 139.6 291.44 137.1C265.09 135.54 230.7 152.8 205.85 180.06C188.56 199.03 176.06 222.37 169.71 247.55L169.55 247.58C172.87 234.42 177.82 221.79 184.27 210.04C190.22 199.17 197.47 189.03 205.79 179.9C218.55 165.9 233.69 154.45 249.6 146.77C264.35 139.65 279.24 136.13 291.52 136.86C311.9 138.17 331.01 146.23 348.31 160.82C363.94 174 377.53 191.92 388.7 214.09C408.89 254.39 418.88 306.79 417.58 365.65C417.51 368.88 417.4 372.17 417.25 375.45C416.11 401.31 412.73 429.61 406.91 461.95C405.81 468.08 404.63 474.38 403.49 480.46C398.77 505.61 393.89 531.62 392.97 555.55C392.91 556.93 392.87 558.31 392.85 559.66C392.04 612.47 417.11 641.56 459.94 637.48C498.98 633.75 544 604.62 586.85 573.7C590.78 570.85 595.04 567.74 599.87 564.19C607.75 558.39 615.92 552.28 623.83 546.37C662.97 517.08 703.45 486.8 743.86 467.34C757.52 460.79 770.85 455.86 783.49 452.67C795.58 449.63 807.43 448.08 818.72 448.07C839.71 448.05 859.24 453.15 878.43 463.65C894.73 472.46 913.02 484.76 925.05 509.17C936.32 532.17 942.23 562.33 947.94 591.49C949.14 597.6 950.37 603.93 951.63 609.98C966.36 681.13 978.64 760.26 988.14 845.15L987.97 845.29Z" fill="#FFE492" fill-opacity="1.000000" fill-rule="nonzero"/>
		<path id="Vector" d="M987.49 842.63C978.69 757.05 967.43 677.34 954.02 605.69C952.78 599.1 951.58 592.17 950.43 585.46C945.39 556.29 940.19 526.12 929.06 503.81C916.9 479.55 897.72 469.32 880.56 462.51C840.22 446.25 795.43 450.72 743.64 476.2C707.26 494.19 670.67 519.92 635.29 544.8C623.12 553.35 611.63 561.43 600.12 569.23C595.44 572.4 591.19 575.25 587.15 577.91C561.04 595.1 540.37 606.96 522.09 615.25C499.16 625.64 479.69 630.53 462.58 630.2C455.94 630.07 449.69 629.09 443.92 627.29C433.68 624.09 424.93 618.31 418.1 610.15C405.72 595.38 399.74 573.39 400.29 544.8C400.32 543.44 400.36 542.06 400.42 540.68C401.39 516.95 405.93 491.31 410.32 466.52C411.44 460.23 412.59 453.74 413.65 447.41C419.13 415.06 422.24 386.93 423.16 361.43C423.28 358.18 423.36 354.91 423.41 351.7C424.22 293.27 413.76 241.42 393.16 201.75C368.79 155.07 333.85 128.43 294.77 126.74C268.07 125.73 234.56 142.74 209.4 170.08C191.91 189.09 179.06 212.48 172.24 237.73L172.09 237.75C175.65 224.56 180.8 211.91 187.42 200.14C193.54 189.25 200.91 179.08 209.34 169.92C222.12 156.03 237.21 144.61 252.98 136.89C267.62 129.72 282.49 126.03 294.85 126.5C315.38 127.39 334.69 135.04 352.23 149.25C368.06 162.07 381.88 179.67 393.31 201.56C413.92 241.25 424.39 293.13 423.58 351.6C423.53 354.81 423.45 358.08 423.33 361.33C422.41 386.85 419.3 414.99 413.82 447.35C412.75 453.68 411.6 460.18 410.49 466.46C406.1 491.24 401.56 516.87 400.59 540.59C400.54 541.96 400.49 543.34 400.46 544.69C399.42 598.1 422.09 629.18 462.66 629.96C501.27 630.71 547.25 603.96 587.14 577.7C591.19 575.03 595.43 572.19 600.11 569.02C611.62 561.22 623.11 553.14 635.28 544.59C670.67 519.7 707.27 493.98 743.66 475.98C757.3 469.26 770.64 463.94 783.29 460.16C795.54 456.49 807.55 454.14 818.99 453.19C840.8 451.36 860.98 454.34 880.67 462.28C897.84 469.09 917.03 479.33 929.22 503.61C940.35 525.95 945.56 556.12 950.59 585.31C951.75 592.02 952.95 598.95 954.18 605.53C967.6 677.19 978.86 756.91 987.65 842.5L987.49 842.63Z" fill="#FFE492" fill-opacity="1.000000" fill-rule="nonzero"/>
		<path id="Vector" d="M987.01 839.98C978.8 752.49 968.85 674.41 956.57 601.24C955.4 594.26 954.34 587.18 953.21 579.67C948.82 550.35 944.28 520.02 933.23 498.26C920.81 473.93 899.76 465.65 882.81 461.16C842.35 450.18 796.76 457.93 743.44 484.85C711.39 501.12 679.04 522.57 647.76 543.31C631.32 554.22 615.79 564.51 600.36 574.07C595.78 576.91 591.55 579.48 587.44 581.93C561.95 597.08 541.48 607.28 523.01 614.04C500.59 622.25 481.71 625.08 465.29 622.7C456.85 621.47 449.1 618.78 442.26 614.71C435.02 610.39 428.79 604.51 423.74 597.23C412.56 581.1 407.23 558.42 407.9 529.84C407.94 528.48 407.99 527.1 408.05 525.72C409.06 502.25 413.26 477.02 417.32 452.63C418.41 446.12 419.53 439.39 420.57 432.83C425.71 400.44 428.55 372.48 429.24 347.33C429.33 344.1 429.39 340.85 429.4 337.66C429.72 279.62 418.79 228.29 397.78 189.24C378.35 153.3 352.54 129.65 323.46 120.56C315.24 117.99 306.77 116.59 298.1 116.39C271.49 115.93 238.09 133.08 213 160.07C195.29 179.12 182.07 202.58 174.77 227.91L174.62 227.92C178.43 214.7 183.8 202.02 190.58 190.23C196.88 179.29 204.4 169.09 212.94 159.9C225.74 146.13 240.76 134.76 256.38 127.01C271.13 119.69 285.58 115.94 298.17 116.16C318.86 116.62 338.37 123.86 356.15 137.68C372.18 150.14 386.24 167.42 397.93 189.04C418.95 228.12 429.9 279.47 429.58 337.55C429.56 340.74 429.5 343.99 429.41 347.23C428.72 372.39 425.88 400.36 420.73 432.76C419.7 439.33 418.58 446.06 417.49 452.57C413.43 476.95 409.23 502.17 408.22 525.63C408.16 527 408.11 528.38 408.08 529.74C406.81 583.19 427.7 616.98 465.38 622.46C503.51 627.99 550.64 603.59 587.45 581.71C591.56 579.26 595.78 576.69 600.37 573.85C615.79 564.3 631.32 554 647.76 543.1C679.05 522.35 711.4 500.9 743.46 484.63C770.91 470.76 795.71 462.16 819.26 458.31C841.98 454.61 862.8 455.46 882.91 460.92C894.41 463.97 903.27 467.68 910.79 472.61C920.5 478.96 927.89 487.29 933.39 498.06C944.44 519.85 948.99 550.19 953.38 579.53C954.51 587.03 955.57 594.12 956.74 601.1C969.02 674.26 978.97 752.36 987.18 839.84L987.01 839.98Z" fill="#FFE492" fill-opacity="1.000000" fill-rule="nonzero"/>
		<path id="Vector" d="M986.51 837.32C979.03 749.13 970.07 670.46 959.11 596.8C958.03 589.51 957.08 582.05 956.07 574.16C952.29 544.58 948.39 513.99 937.39 492.7C924.77 468.41 902.79 462.36 885.05 459.79C845 453.78 798.61 464.81 743.23 493.49C715.9 507.72 688.22 525.13 661.45 541.97C640.29 555.28 620.3 567.85 600.59 578.89C596.14 581.39 591.81 583.76 587.72 585.93C563.1 598.98 542.23 607.77 523.92 612.82C502 618.86 483.7 619.64 467.99 615.18C460 612.91 452.71 609.23 446.35 604.23C439.67 599 433.96 592.29 429.38 584.3C419.38 566.86 414.71 543.5 415.51 514.87C415.55 513.52 415.6 512.13 415.67 510.75C416.72 487.58 420.58 462.8 424.31 438.85C425.37 432.07 426.46 425.06 427.47 418.23C432.27 385.8 434.84 357.99 435.32 333.21C435.38 330 435.41 326.77 435.4 323.61C435.23 265.95 423.82 215.15 402.4 176.7C376.91 131.2 341.05 106.1 301.41 106.03C274.92 106.11 241.64 123.36 216.64 149.98C198.69 169.09 185.09 192.64 177.3 218.08L177.15 218.09C181.21 204.82 186.8 192.1 193.77 180.27C200.25 169.28 207.92 159.03 216.58 149.81C229.39 136.17 244.34 124.86 259.81 117.08C274.43 109.73 288.85 105.83 301.49 105.79C322.34 105.83 342.04 112.66 360.06 126.09C376.3 138.2 390.59 155.16 402.55 176.5C423.98 214.97 435.4 265.8 435.57 323.5C435.58 326.66 435.55 329.9 435.49 333.11C435.01 357.9 432.44 385.72 427.64 418.16C426.63 424.99 425.54 432.01 424.48 438.79C420.75 462.73 416.89 487.49 415.83 510.65C415.77 512.03 415.72 513.41 415.68 514.76C414.17 569.34 432.78 604.92 468.09 614.94C496.75 623.07 534.76 613.78 587.73 585.7C591.82 583.53 596.15 581.17 600.6 578.67C620.3 567.63 640.29 555.06 661.45 541.75C688.22 524.91 715.91 507.5 743.24 493.26C771.17 478.8 796.12 469.04 819.52 463.43C843.23 457.75 864.69 456.48 885.14 459.55C902.9 462.11 924.9 468.18 937.55 492.51C948.55 513.82 952.46 544.42 956.24 574.01C957.25 581.91 958.2 589.36 959.28 596.65C970.24 670.31 979.2 748.99 986.68 837.18L986.51 837.32Z" fill="#FFE492" fill-opacity="1.000000" fill-rule="nonzero"/>
		<path id="Vector" d="M986.03 834.66C979.28 745.77 971.31 666.51 961.67 592.35C960.69 584.83 959.86 577.06 958.99 568.84C955.82 538.95 952.53 508.04 941.56 487.16C928.71 462.87 905.81 459.05 887.3 458.43C847.83 456.93 801.99 470.82 743.02 502.14C720.87 513.96 698.38 527.49 676.63 540.58C650.2 556.48 625.25 571.49 600.83 583.73C596.43 585.94 592.11 588.03 588.01 589.94C563.83 601.18 543.16 608.27 524.84 611.6C514.58 613.47 504.96 614.14 496.24 613.59C486.93 613 478.34 611.01 470.7 607.67C455.2 600.89 443.19 588.68 435.03 571.38C426.21 552.69 422.2 528.65 423.12 499.91C423.17 498.55 423.23 497.16 423.29 495.79C424.38 472.97 427.9 448.71 431.31 425.25C432.34 418.15 433.4 410.8 434.38 403.64C438.84 371.16 441.13 343.51 441.4 319.11C441.43 315.91 441.43 312.7 441.39 309.56C440.74 252.29 428.85 202.01 407.02 164.18C380.97 119.27 344.65 94.94 304.74 95.68C261.92 96.65 201.99 139.98 179.83 208.27L179.68 208.26C185.22 191.18 193.17 175.13 203.31 160.55C212.57 147.24 223.46 135.39 235.69 125.34C247.06 116 259.05 108.61 271.34 103.39C283.03 98.42 294.6 95.67 304.81 95.43C325.82 95.05 345.72 101.47 363.98 114.53C380.42 126.28 394.95 142.92 407.16 163.99C429.01 201.84 440.9 252.15 441.56 309.46C441.6 312.6 441.6 315.81 441.56 319.01C441.3 343.42 439 371.08 434.55 403.58C433.57 410.74 432.5 418.08 431.47 425.19C428.07 448.64 424.55 472.89 423.46 495.7C423.39 497.07 423.33 498.45 423.29 499.81C421.52 555.05 438.4 593.27 470.81 607.44C498.25 619.43 536.59 613.64 588.03 589.71C592.13 587.8 596.45 585.71 600.85 583.51C625.26 571.27 650.21 556.26 676.63 540.37C698.38 527.28 720.88 513.74 743.03 501.92C802.03 470.58 847.89 456.69 887.38 458.19C899.82 458.61 909.45 460.51 917.69 464.17C928.22 468.86 936.08 476.32 941.71 486.96C952.7 507.87 955.98 538.8 959.16 568.71C960.03 576.93 960.86 584.69 961.83 592.21C971.48 666.38 979.44 745.64 986.2 834.54L986.03 834.66Z" fill="#FFE492" fill-opacity="1.000000" fill-rule="nonzero"/>
		<path id="Vector" d="M985.55 832.01C979.53 742.4 972.55 662.55 964.22 587.91C963.36 580.19 962.67 572.17 961.95 563.67C959.37 533.4 956.7 502.11 945.72 481.6C932.5 457.03 907.33 455.83 889.55 457.07C841.37 460.22 788.34 485.99 742.82 510.79C726.43 519.75 709.76 529.46 693.64 538.84C661.3 557.67 630.75 575.46 601.07 588.56C596.71 590.49 592.41 592.31 588.3 593.95C564.48 603.46 544.03 608.84 525.77 610.38C505.07 612.14 487.45 608.7 473.41 600.16C458.99 591.39 447.97 577.36 440.68 558.45C433.03 538.62 429.69 513.89 430.73 484.95C430.79 483.59 430.85 482.2 430.91 480.83C432.04 458.44 435.22 434.77 438.29 411.88C439.3 404.38 440.34 396.62 441.29 389.05C445.46 356.06 447.42 329.35 447.48 305C447.48 301.83 447.46 298.64 447.39 295.52C446.24 238.63 433.88 188.88 411.63 151.66C385.03 107.34 348.25 83.78 308.06 85.32C264.72 87.15 205.86 129.97 182.36 198.45L182.21 198.44C188.04 181.45 196.18 165.47 206.39 150.96C215.75 137.66 226.68 125.81 238.88 115.73C250.26 106.34 262.24 98.87 274.51 93.52C286.19 88.43 297.82 85.52 308.13 85.08C329.3 84.27 349.4 90.29 367.89 102.95C384.54 114.36 399.31 130.68 411.78 151.46C434.04 188.71 446.41 238.49 447.56 295.41C447.62 298.53 447.65 301.72 447.64 304.9C447.59 329.25 445.62 355.97 441.46 388.98C440.51 396.55 439.47 404.31 438.46 411.81C435.38 434.7 432.2 458.36 431.08 480.73C431.01 482.11 430.95 483.5 430.9 484.85C428.86 541.12 444 581.98 473.53 599.93C500.01 616.03 537.56 614 588.33 593.72C592.44 592.08 596.73 590.27 601.09 588.34C630.76 575.23 661.31 557.45 693.65 538.62C709.77 529.24 726.44 519.53 742.83 510.56C773.44 493.89 797.98 482.18 820.05 473.69C846.04 463.71 868.79 458.19 889.61 456.83C902.33 455.94 912.64 456.97 921.14 459.96C932.09 463.81 940.18 470.83 945.87 481.41C956.86 501.94 959.53 533.26 962.12 563.54C962.84 572.03 963.53 580.06 964.39 587.77C972.72 662.42 979.7 742.27 985.72 831.88L985.55 832.01Z" fill="#FFE492" fill-opacity="1.000000" fill-rule="nonzero"/>
		<path id="Vector" d="M985.06 829.35C979.78 739.02 973.79 658.59 966.77 583.46C966.03 575.58 965.49 567.34 964.93 558.61C962.93 527.93 960.87 496.22 949.88 476.05C936.41 451.45 910.28 452.66 891.79 455.7C846.2 463.07 797.26 488.92 742.61 519.43C732.74 524.96 722.69 530.71 712.97 536.28C675.59 557.67 636.94 579.79 601.3 593.4C596.97 595.05 592.69 596.59 588.58 597.96C565.4 605.68 544.57 609.45 526.69 609.16C506.42 608.82 489.41 603.27 476.11 592.65C462.76 581.98 452.73 566.12 446.32 545.51C439.84 524.66 437.15 499.25 438.33 469.99C438.39 468.63 438.45 467.24 438.53 465.86C439.67 444.02 442.51 421.05 445.25 398.83C446.24 390.82 447.27 382.54 448.19 374.47C451.99 341.39 453.69 314.84 453.54 290.9C453.52 287.76 453.47 284.59 453.38 281.48C451.74 224.97 438.9 175.75 416.24 139.13C389.09 95.42 351.85 72.63 311.38 74.96C269.06 77.55 210.35 118.27 184.88 188.62L184.74 188.61C190.85 171.71 199.18 155.81 209.47 141.36C218.93 128.08 229.9 116.22 242.06 106.12C264.51 87.49 289.79 76.05 311.45 74.72C332.77 73.49 353.07 79.1 371.8 91.38C388.65 102.43 403.65 118.43 416.39 138.93C439.06 175.57 451.91 224.82 453.55 281.36C453.64 284.47 453.69 287.64 453.71 290.79C453.87 314.74 452.16 341.3 448.36 374.39C447.43 382.47 446.41 390.75 445.42 398.75C442.68 420.97 439.84 443.94 438.7 465.77C438.62 467.14 438.56 468.53 438.5 469.89C436.13 528.43 449.18 570.8 476.24 592.42C501.29 612.44 539.1 614.23 588.61 597.73C592.72 596.35 597 594.82 601.33 593.17C636.96 579.57 675.6 557.45 712.97 536.06C722.69 530.49 732.74 524.74 742.61 519.21C766.53 505.86 794.24 490.62 820.31 478.82C847.58 466.48 870.98 458.84 891.84 455.47C905 453.3 915.71 453.39 924.59 455.74C935.79 458.71 944.34 465.48 950.03 475.86C954.95 484.89 958.52 497.19 960.95 513.47C963.1 527.84 964.11 543.42 965.09 558.48C965.66 567.21 966.19 575.46 966.93 583.33C973.96 658.47 979.94 738.9 985.22 829.23L985.06 829.35Z" fill="#FFE492" fill-opacity="1.000000" fill-rule="nonzero"/>
		<path id="Vector" d="M984.58 826.69C980.04 735.64 975.05 654.63 969.32 579.02C968.71 571.02 968.33 562.57 967.93 553.64C966.52 522.52 965.06 490.35 954.05 470.51C943.74 452.01 924.11 446.72 894.04 454.35C852.04 464.89 807.51 490.56 760.37 517.75C754.49 521.14 748.43 524.64 742.4 528.08C740.04 529.44 737.68 530.8 735.32 532.15C690.45 557.92 644.07 584.57 601.54 598.23C597.24 599.62 592.98 600.88 588.87 601.97C565.95 608.08 545.34 610.09 527.62 607.93C507.78 605.52 491.36 597.85 478.83 585.14C466.53 572.66 457.5 554.98 451.98 532.58C446.64 510.87 444.61 484.78 445.95 455.03C446.01 453.67 446.08 452.28 446.16 450.9C447.31 429.76 449.81 407.64 452.22 386.25C453.19 377.58 454.2 368.62 455.11 359.88C458.55 326.72 459.99 300.31 459.63 276.79C459.58 273.67 459.5 270.52 459.38 267.44C457.25 211.31 443.93 162.62 420.86 126.61C393.15 83.49 355.45 61.47 314.7 64.61C272.82 67.95 213.98 109.11 187.41 178.81L187.27 178.78C193.68 161.97 202.18 146.15 212.55 131.77C222.12 118.5 233.13 106.64 245.26 96.52C267.67 77.83 293 66.11 314.77 64.37C336.25 62.72 356.76 67.91 375.72 79.81C392.77 90.51 408.01 106.19 421.01 126.41C444.09 162.44 457.42 211.17 459.55 267.32C459.66 270.4 459.75 273.55 459.8 276.68C460.15 300.21 458.72 326.62 455.27 359.8C454.37 368.54 453.36 377.5 452.38 386.17C449.97 407.56 447.48 429.67 446.32 450.81C446.25 452.18 446.18 453.57 446.12 454.93C443.4 515.43 454.76 560.37 478.96 584.92C502.85 609.15 539.84 614.81 588.92 601.73C593.02 600.63 597.28 599.38 601.58 598C644.09 584.34 690.47 557.69 735.32 531.93C737.69 530.57 740.05 529.21 742.41 527.86C748.43 524.41 754.5 520.91 760.37 517.53C807.53 490.34 852.06 464.66 894.08 454.11C907.67 450.66 918.78 449.82 928.05 451.53C939.65 453.67 948.45 459.99 954.2 470.31C959.13 479.2 962.59 491.51 964.77 507.96C966.69 522.47 967.4 538.26 968.1 553.52C968.5 562.45 968.88 570.89 969.49 578.89C975.22 654.5 980.21 735.52 984.75 826.57L984.58 826.69Z" fill="#FFE492" fill-opacity="1.000000" fill-rule="nonzero"/>
		<path id="Vector" d="M984.08 824.03C980.59 739.42 976.48 655.49 971.86 574.57C971.37 566.38 971.14 557.66 970.9 548.44C970.11 518.44 969.21 484.43 958.2 464.96C947.7 446.42 927.44 442.5 896.27 452.98C859.24 465.37 821.16 488.69 780.84 513.39C768.21 521.12 755.16 529.12 742.19 536.72C719.53 550.03 695.21 564 670.83 576.02C644.73 588.91 622.14 597.75 601.77 603.06C597.49 604.18 593.24 605.16 589.14 605.98C566.48 610.49 546.1 610.72 528.56 606.66C509.16 602.16 493.33 592.39 481.52 577.62C459.81 550.12 450.4 503.84 453.54 440.06C453.61 438.7 453.69 437.31 453.77 435.94C454.92 415.74 457.06 394.73 459.13 374.4C460.1 364.84 461.11 354.95 462 345.29C465.08 312.02 466.25 285.77 465.69 262.69C465.62 259.58 465.51 256.45 465.36 253.39C462.75 197.65 448.95 149.48 425.47 114.08C397.2 71.56 359.04 50.32 318.02 54.25C275.54 58.41 217.91 99.16 189.93 168.98L189.79 168.95C196.49 152.23 205.19 136.49 215.63 122.18C225.31 108.92 236.34 97.05 248.44 86.91C259.84 77.35 271.8 69.62 284 63.93C295.84 58.41 307.31 55.07 318.08 54.01C339.72 51.94 360.43 56.72 379.63 68.23C396.88 78.58 412.36 93.94 425.62 113.88C449.11 149.3 462.92 197.5 465.53 253.27C465.68 256.33 465.79 259.46 465.86 262.57C466.42 285.67 465.25 311.92 462.17 345.2C461.28 354.86 460.27 364.76 459.3 374.32C457.23 394.64 455.09 415.66 453.93 435.84C453.85 437.22 453.78 438.61 453.71 439.97C450.57 503.7 459.98 549.94 481.66 577.42C504.1 605.48 541.29 615.28 589.2 605.74C593.29 604.92 597.54 603.94 601.82 602.83C647.36 590.95 696.14 563.55 742.19 536.51C755.16 528.9 768.22 520.91 780.84 513.17C821.17 488.47 859.26 465.14 896.31 452.75C927.53 442.25 947.82 446.18 958.35 464.76C963.28 473.48 966.62 485.78 968.54 502.35C970.24 516.96 970.66 532.91 971.07 548.32C971.31 557.55 971.54 566.26 972.03 574.45C976.65 655.37 980.76 739.3 984.25 823.92L984.08 824.03Z" fill="#FFE492" fill-opacity="1.000000" fill-rule="nonzero"/>
		<path id="Vector" d="M983.6 821.38C980.83 736.52 977.73 651.99 974.42 570.13C974.07 561.89 974.01 553.08 973.94 543.74C973.7 513.22 973.44 478.62 962.37 459.4C951.66 440.83 930.78 438.28 898.52 451.61C864.74 465.55 829.13 489 794.69 511.68C777.42 523.05 759.57 534.81 741.99 545.37C714.23 562.04 691.63 574.32 670.86 584C645.25 595.94 622.73 603.76 602.01 607.89C597.76 608.74 593.53 609.45 589.43 609.98C568.12 612.78 548.9 611.55 532.24 606.35C531.31 606.06 530.4 605.76 529.49 605.44C510.47 598.88 495.24 586.99 484.24 570.11C478.94 561.93 474.47 552.25 470.95 541.34C467.64 531.09 465.07 519.43 463.31 506.68C460.14 483.75 459.44 457.06 461.16 425.1C461.23 423.73 461.31 422.35 461.39 420.97C462.51 402.14 464.29 382.66 466.01 363.81C467 352.93 468.03 341.68 468.91 330.7C471.65 296.85 472.54 271.52 471.77 248.57C471.67 245.49 471.53 242.38 471.36 239.34C468.26 183.99 453.99 136.35 430.09 101.56C401.27 59.64 362.65 39.16 321.34 43.9C279.33 48.75 221.57 89.91 192.47 159.16L192.33 159.12C205.89 126.86 226.4 98.57 251.64 77.3C263.05 67.69 275 59.87 287.17 54.07C299.01 48.42 310.53 44.91 321.41 43.66C343.21 41.16 364.11 45.53 383.55 56.66C401.01 66.66 416.72 81.69 430.24 101.35C454.15 136.17 468.43 183.84 471.53 239.22C471.7 242.26 471.84 245.37 471.95 248.46C472.71 271.42 471.82 296.76 469.08 330.62C468.2 341.6 467.17 352.85 466.18 363.73C464.46 382.58 462.68 402.06 461.56 420.88C461.48 422.26 461.4 423.64 461.32 425.01C457.67 492.93 465.21 540.32 484.38 569.91C511 610.74 556.23 614.11 589.5 609.75C593.58 609.21 597.81 608.51 602.06 607.66C649.71 598.14 701.87 569.26 741.99 545.15C759.57 534.6 777.42 522.84 794.69 511.47C829.14 488.79 864.75 465.33 898.55 451.39C912.98 445.42 924.89 442.71 934.95 443.1C947.36 443.58 956.63 449 962.52 459.21C967.48 467.82 970.7 480.17 972.38 496.98C973.86 511.78 973.98 527.98 974.1 543.64C974.17 552.97 974.24 561.78 974.58 570.02C977.9 651.88 980.99 736.41 983.77 821.27L983.6 821.38Z" fill="#FFE492" fill-opacity="1.000000" fill-rule="nonzero"/>
		<path id="Vector" d="M983.12 818.72L976.97 565.69C976.77 557.42 976.86 548.53 976.96 539.12C977.29 508.05 977.67 472.84 966.54 453.86C955.77 435.5 933.64 434.29 900.77 450.25C869.16 465.6 836.35 488.89 804.61 511.41C783.92 526.09 762.53 541.26 741.78 554.02C679.39 592.35 631.07 611.41 589.72 614C572.57 615.07 556.82 613.38 542.75 608.98C538.48 607.65 534.37 606.07 530.41 604.23C511.76 595.6 497.14 581.59 486.94 562.6C477.5 545 471.61 522.48 468.96 493.76C466.84 470.83 466.78 444.26 468.76 410.15C469.81 392.14 471.32 373.57 472.78 355.6C476.07 314.95 479.48 272.91 477.85 234.47C475.36 175.51 460.44 125.22 434.71 89.03C405.33 47.72 366.25 28.01 324.67 33.54C284.41 38.9 226.66 77.42 194.99 149.34L194.86 149.3C209.01 117.15 229.75 88.93 254.83 67.7C277.5 48.5 302.33 36.28 324.73 33.3C346.68 30.38 367.79 34.35 387.46 45.09C405.13 54.73 421.07 69.45 434.85 88.83C447.58 106.74 457.74 128.24 465.05 152.75C472.41 177.46 476.78 204.92 478.02 234.35C479.65 272.8 476.24 314.85 472.95 355.51C471.49 373.48 469.98 392.05 468.94 410.05C466.03 459.83 465.48 522.12 487.1 562.4C511.9 608.6 556.63 615.83 589.79 613.75C631.12 611.17 679.42 592.12 741.78 553.8C762.53 541.05 783.92 525.87 804.6 511.2C836.34 488.67 869.17 465.38 900.79 450.03C933.72 434.04 955.89 435.26 966.68 453.66C971.67 462.16 974.79 474.58 976.22 491.63C977.48 506.64 977.3 523.1 977.13 539.01C977.03 548.42 976.94 557.31 977.14 565.57L983.29 818.61L983.12 818.72Z" fill="#FFE492" fill-opacity="1.000000" fill-rule="nonzero"/>
		<path id="Vector" d="M989.61 801.45C990.31 731.75 989.68 674.81 987.62 622.28C986.62 596.76 985.25 571.52 983.55 547.26C983.04 539.92 982.72 532.19 982.39 524C981.57 503.42 980.71 482.15 976.47 465.23C974.2 456.14 971.23 449.2 967.4 444.04C955.66 428.08 933.35 429.23 901.09 447.47C884.4 456.89 867.94 468.41 854.04 478.43C839.32 489.04 824.14 501.06 809.45 512.69C788.34 529.4 766.52 546.69 745.03 560.67C731.94 569.21 719.24 576.53 707.3 582.43C683.39 594.23 659.56 602.66 636.45 607.49C622.2 610.4 608.58 611.7 595.97 611.37C585.1 611.07 574.72 609.61 565.09 607.03C550.69 603.17 537.83 596.7 526.86 587.78C515.2 578.3 505.6 565.98 498.34 551.17C491.86 537.96 487.07 522.38 483.7 503.54C477.41 468.46 476.9 430 477.15 400.42C477.3 385.83 477.69 371.02 478.06 356.7C479.14 315.46 480.16 276.51 476.08 240.25C472.67 210.84 465.8 184.24 455.66 161.17C447.86 143.44 437.82 127.79 425.81 114.66C422.95 111.53 419.96 108.52 416.93 105.71C403.87 93.62 387.72 83.35 368.94 75.21C350.03 66.94 332.13 63.38 314.22 64.32C304.1 64.83 293.46 67.26 282.6 71.54C244.26 86.67 208.99 121.16 188.25 163.81L188.09 163.73C193.62 152.36 200.17 141.51 207.55 131.47C214.57 121.93 222.39 113.06 230.79 105.1C246.67 90.08 264.6 78.37 282.64 71.25C293.52 66.96 304.17 64.53 314.3 64.02C332.24 63.08 350.15 66.65 369.08 74.92C387.87 83.07 404.02 93.34 417.09 105.44C420.13 108.25 423.12 111.27 425.98 114.4C438 127.53 448.05 143.19 455.85 160.94C466 184.03 472.88 210.66 476.28 240.08C480.37 276.36 479.35 315.32 478.27 356.58C477.9 370.9 477.51 385.7 477.36 400.29C477.1 429.86 477.62 468.29 483.9 503.35C487.27 522.17 492.05 537.74 498.52 550.93C512.75 579.92 535.19 598.7 565.21 606.74C574.83 609.32 585.21 610.77 596.07 611.07C608.67 611.4 622.28 610.09 636.52 607.19C659.61 602.37 683.43 593.95 707.32 582.15C719.26 576.26 731.95 568.94 745.02 560.4C766.5 546.43 788.32 529.15 809.43 512.44C824.11 500.81 839.3 488.78 854.02 478.17C867.93 468.14 884.39 456.63 901.1 447.2C915.46 439.07 928.05 434.29 938.51 432.99C951.35 431.38 961.13 435.02 967.57 443.78C971.42 448.96 974.4 455.92 976.67 465.03C980.92 481.97 981.78 503.26 982.61 523.85C982.94 532.04 983.25 539.77 983.76 547.1C985.47 571.37 986.84 596.61 987.83 622.13C989.89 674.68 990.52 731.62 989.82 801.32L989.61 801.45Z" fill="#FFE492" fill-opacity="1.000000" fill-rule="nonzero"/>
		<path id="Vector" d="M996.11 784.17C999.14 714.01 999.23 654.55 996.41 602.37C995.05 576.89 992.94 552.15 990.14 528.83C989.4 522.64 988.78 516.26 988.13 509.51C986.17 489.28 984.15 468.37 978.6 452.6C975.81 444.61 972.43 438.6 968.26 434.22C952.31 417.44 923.1 430.65 901.41 444.68C886.06 454.59 870.83 466.46 855.28 478.76C841.67 489.53 828.09 501.45 813.72 514.07C792.39 532.8 770.34 552.16 748.28 567.32C735.17 576.37 722.37 583.75 710.26 589.24C687.68 599.46 665.04 605.81 641.05 608.64C627.63 610.22 614.56 610.26 602.22 608.74C591.81 607.43 581.9 605.03 572.75 601.59C559.14 596.48 546.98 588.82 536.6 578.85C525.7 568.37 516.66 555.2 509.73 539.73C503.65 526.17 499 510.25 495.51 491.06C489.15 456.25 486.84 419.14 485.54 390.7C485.05 380.17 484.66 369.61 484.29 359.39C482.8 318.69 481.39 280.26 474.3 246.03C469.01 220.45 460.55 197.58 449.17 178.05C440.56 163.27 430.01 150.92 416.92 140.29C413.9 137.83 410.76 135.49 407.59 133.33C393.66 123.85 377.45 116.85 357.71 108.67C343.51 102.72 324.54 95.79 303.76 95.09C293.94 94.72 283.66 96.18 273.21 99.45C236.4 110.94 202.12 140.41 181.51 178.28L181.33 178.16C186.8 168.11 193.22 158.6 200.42 149.87C207.28 141.55 214.88 133.89 223.03 127.11C238.5 114.22 255.87 104.53 273.27 99.1C283.74 95.83 294.04 94.36 303.88 94.73C324.68 95.43 343.66 102.36 357.87 108.32C377.62 116.5 393.83 123.51 407.77 132.99C410.95 135.16 414.09 137.5 417.11 139.95C430.21 150.6 440.77 162.96 449.39 177.75C460.79 197.3 469.25 220.19 474.55 245.8C481.64 280.05 483.05 318.5 484.55 359.21C484.92 369.42 485.31 379.98 485.79 390.51C487.1 418.94 489.41 456.04 495.76 490.83C499.25 510 503.89 525.9 509.96 539.45C523.59 569.88 544.77 590.67 572.91 601.23C582.05 604.67 591.95 607.07 602.35 608.37C614.68 609.89 627.74 609.86 641.15 608.28C665.12 605.45 687.74 599.11 710.29 588.89C722.4 583.41 735.18 576.05 748.28 567C770.31 551.86 792.36 532.5 813.68 513.78C828.05 501.15 841.63 489.23 855.25 478.46C870.81 466.15 886.05 454.28 901.41 444.36C915.48 435.26 927.98 429.46 938.58 427.12C951.44 424.28 961.5 426.56 968.47 433.89C972.65 438.29 976.04 444.32 978.84 452.33C984.4 468.13 986.43 489.07 988.38 509.31C989.04 516.06 989.65 522.44 990.39 528.62C993.19 551.95 995.3 576.7 996.66 602.19C999.49 654.38 999.39 713.86 996.37 784.03L996.11 784.17Z" fill="#FFE492" fill-opacity="1.000000" fill-rule="nonzero"/>
		<path id="Vector" d="M1002.61 766.89C1007.98 695.32 1008.83 635 1005.2 582.47C1003.47 557.03 1000.62 532.78 996.73 510.41C995.9 505.62 995.09 500.57 994.32 495.69C991.12 475.51 987.82 454.65 980.73 439.97C977.42 433.04 973.62 427.95 969.13 424.4C951.87 410.76 922.96 426.39 901.74 441.9C887.38 452.35 873.02 464.8 859.12 476.84L856.52 479.09C843.91 490.01 831.19 502.34 817.72 515.39C796.26 536.16 774.08 557.65 751.54 573.97C738.38 583.55 725.49 590.98 713.21 596.05C691.81 604.88 670.34 609.25 645.65 609.8C632.89 610.08 620.38 608.84 608.46 606.1C598.52 603.79 589.08 600.44 580.41 596.14C554.14 583.15 534.19 560.32 521.12 528.29C515.46 514.44 510.95 498.18 507.33 478.58C501.17 445.47 497.33 412.21 493.92 380.98C493.46 376.79 493.02 372.63 492.57 368.51C487.97 325.74 483.63 285.34 472.53 251.82C465.28 229.94 455.24 210.8 442.68 194.94C433.46 183.29 422.13 173.8 408.03 165.92C404.85 164.15 401.56 162.48 398.25 160.96C389.91 157.15 380.66 154.07 370.87 150.8C363 148.17 354.86 145.46 346.47 142.14C330.31 135.64 311.99 128.27 293.31 125.87C283.67 124.64 273.74 125.14 263.81 127.37C228.56 135.27 195.27 159.72 174.76 192.76L174.58 192.58C179.98 183.87 186.28 175.69 193.29 168.27C199.99 161.17 207.38 154.73 215.26 149.11C230.32 138.37 247.14 130.71 263.9 126.95C273.85 124.72 283.8 124.22 293.46 125.45C312.16 127.85 330.49 135.23 346.66 141.74C355.04 145.05 363.18 147.77 371.04 150.39C380.84 153.66 390.1 156.75 398.44 160.55C401.76 162.08 405.05 163.75 408.23 165.52C422.34 173.41 433.69 182.92 442.92 194.58C455.5 210.46 465.55 229.61 472.81 251.52C483.92 285.07 488.26 325.49 492.86 368.28C493.31 372.41 493.76 376.56 494.21 380.75C497.62 411.97 501.45 445.22 507.61 478.33C511.23 497.91 515.74 514.15 521.39 527.98C534.45 559.97 554.37 582.77 580.6 595.74C589.26 600.03 598.7 603.38 608.63 605.69C620.53 608.42 633.03 609.66 645.78 609.38C670.45 608.84 691.89 604.48 713.26 595.65C725.51 590.59 738.38 583.18 751.51 573.61C774.03 557.32 796.2 535.84 817.64 515.08C831.11 502.02 843.84 489.69 856.46 478.76L859.06 476.51C872.97 464.47 887.34 452.01 901.71 441.54C923 425.99 952.01 410.32 969.34 424.01C973.86 427.58 977.67 432.69 980.99 439.65C988.1 454.36 991.41 475.24 994.61 495.44C995.38 500.32 996.18 505.38 997.01 510.16C1000.9 532.55 1003.76 556.8 1005.49 582.26C1009.12 634.81 1008.27 695.16 1002.9 766.75L1002.61 766.89Z" fill="#FFE492" fill-opacity="1.000000" fill-rule="nonzero"/>
		<path id="Vector" d="M1009.11 749.61C1016.73 677.64 1018.38 614.71 1014 562.57C1011.89 537.17 1008.3 513.42 1003.32 491.98C1002.6 488.89 1001.88 485.68 1001.18 482.58C996.56 462.11 991.8 440.93 982.86 427.34C979.05 421.47 974.84 417.3 970 414.58C951.42 404.17 922.81 422.17 902.07 439.11C889.22 449.56 876.48 461.66 864.15 473.37C862.02 475.39 859.89 477.41 857.76 479.43C846.08 490.48 834.13 503.17 821.49 516.61C800 539.46 777.77 563.08 754.79 580.62C741.3 590.92 728.67 598.19 716.17 602.86C690.03 612.62 668.18 612.43 650.25 610.96C638.13 609.96 626.17 607.45 614.71 603.47C605.23 600.15 596.26 595.85 588.06 590.7C563.73 575.43 545.03 550.59 532.5 516.85C527.29 502.82 522.92 486.22 519.14 466.11C515.3 445.83 511.95 426.43 508.7 407.66C506.5 394.91 504.41 382.86 502.31 371.27C494.34 327.45 486.46 288.65 470.76 257.62C461.56 239.44 449.93 224.04 436.19 211.83C426.35 203.08 414.58 196.64 399.15 191.55C395.82 190.46 392.37 189.46 388.92 188.58C383.66 187.27 378.09 186.21 372.2 185.09C360.89 182.95 348.07 180.51 335.23 175.62C330.34 173.75 325.41 171.74 320.64 169.78C308.36 164.75 295.66 159.56 282.85 156.65C273.44 154.52 263.87 154.06 254.41 155.28C220.73 159.65 188.43 179.08 168 207.25L167.82 206.99C173.17 199.61 179.34 192.78 186.16 186.66C192.7 180.79 199.88 175.56 207.49 171.11C222.15 162.53 238.42 156.9 254.53 154.81C264.01 153.58 273.6 154.04 283.04 156.18C295.86 159.09 308.56 164.29 320.85 169.32C325.62 171.27 330.56 173.29 335.44 175.15C348.26 180.04 361.08 182.48 372.38 184.62C378.28 185.74 383.85 186.8 389.11 188.11C392.57 188.99 396.01 189.99 399.35 191.08C414.8 196.17 426.59 202.63 436.45 211.39C450.2 223.62 461.85 239.04 471.06 257.24C478.15 271.25 484.21 288.1 489.57 308.72C494.37 327.18 498.27 346.96 502.63 370.98C504.74 382.57 506.82 394.62 509.03 407.37C512.27 426.14 515.63 445.54 519.46 465.81C523.24 485.9 527.61 502.49 532.81 516.5C545.33 550.19 563.99 575 588.29 590.25C596.49 595.4 605.44 599.69 614.91 603.01C626.36 606.98 638.3 609.49 650.41 610.48C668.32 611.96 690.14 612.15 716.23 602.4C728.69 597.75 741.29 590.49 754.75 580.22C777.69 562.71 799.9 539.11 821.38 516.28C834.03 502.83 845.98 490.13 857.68 479.07C859.8 477.06 861.93 475.03 864.06 473.01C876.4 461.29 889.15 449.18 902.02 438.72C915.51 427.7 927.87 419.85 938.75 415.37C951.64 410.07 962.23 409.65 970.22 414.13C975.09 416.86 979.31 421.05 983.15 426.95C992.1 440.57 996.88 461.77 1001.5 482.28C1002.2 485.38 1002.92 488.58 1003.64 491.67C1008.62 513.13 1012.21 536.9 1014.32 562.32C1016.65 590 1017.29 620.92 1016.23 654.2C1015.3 683.62 1013.01 715.68 1009.44 749.46L1009.11 749.61Z" fill="#FFE492" fill-opacity="1.000000" fill-rule="nonzero"/>
		<path id="Vector" d="M1015.61 732.33C1025.56 658.95 1027.99 595.14 1022.79 542.67C1020.31 517.31 1015.98 494.06 1009.91 473.56C1009.62 472.59 1009.33 471.61 1009.04 470.63C1002.75 449.3 996.23 427.24 985 414.72C980.66 409.87 976.03 406.61 970.88 404.77C950.98 397.65 922.66 417.99 902.41 436.31C890.52 447.02 878.84 459.17 867.53 470.92C864.74 473.83 861.85 476.84 859.02 479.76C848.22 490.88 837.05 503.87 825.23 517.63C803.71 542.65 781.47 568.53 758.05 587.27C744.51 598.11 731.77 605.44 719.13 609.67C694.21 618.01 673.51 615.78 654.85 612.12C643.35 609.86 631.94 606.07 620.95 600.84C611.94 596.51 603.45 591.27 595.71 585.25C573.34 567.89 555.9 541.03 543.9 505.42C539.09 491.16 534.97 474.7 530.95 453.64C523.27 413.69 517.03 385.29 510.7 361.56C498.11 314.36 485.64 285.01 469 263.42C457.86 248.96 444.64 237.29 429.72 228.72C419.37 222.78 407.2 219.22 390.28 217.18C386.8 216.77 383.21 216.44 379.6 216.21C376.18 216 372.66 215.88 368.94 215.76C355.2 215.31 339.63 214.79 324 209.09C315.76 206.09 307.63 202.37 299.76 198.78C290.82 194.7 281.57 190.48 272.39 187.43C263.19 184.37 253.98 182.95 245.01 183.2C212.93 184.1 181.61 198.51 161.23 221.75L161.09 221.4C166.38 215.36 172.42 209.86 179.04 205.05C185.43 200.41 192.39 196.39 199.74 193.1C214 186.71 229.71 183.1 245.17 182.66C254.16 182.41 263.4 183.84 272.62 186.9C281.81 189.95 291.06 194.18 300 198.26C307.87 201.86 316 205.57 324.23 208.57C339.83 214.26 355.39 214.77 369.12 215.23C372.84 215.35 376.36 215.47 379.78 215.68C383.39 215.91 386.99 216.24 390.46 216.65C407.42 218.69 419.61 222.25 429.98 228.21C444.92 236.79 458.15 248.48 469.31 262.96C485.98 284.58 498.46 313.96 511.06 361.2C517.39 384.94 523.64 413.35 531.32 453.3C535.34 474.35 539.45 490.79 544.25 505.04C556.24 540.6 573.65 567.42 595.99 584.76C603.72 590.76 612.2 596 621.2 600.33C632.18 605.55 643.57 609.34 655.06 611.59C673.69 615.24 694.35 617.48 719.21 609.16C731.81 604.94 744.5 597.64 758 586.83C781.36 568.13 803.58 542.28 825.07 517.29C836.91 503.52 848.09 490.52 858.89 479.38C861.73 476.46 864.62 473.46 867.41 470.55C878.72 458.79 890.42 446.63 902.32 435.9C915.54 423.95 927.83 415.06 938.84 409.49C951.75 402.97 962.6 401.21 971.1 404.25C976.29 406.1 980.94 409.38 985.31 414.25C996.57 426.82 1003.1 448.91 1009.4 470.27C1009.69 471.25 1009.98 472.23 1010.27 473.2C1016.34 493.72 1020.68 516.99 1023.16 542.38C1028.36 594.9 1025.94 658.76 1015.98 732.19L1015.61 732.33Z" fill="#FFE492" fill-opacity="1.000000" fill-rule="nonzero"/>
		<path id="Vector" d="M661.69 613.98C660.94 613.74 660.19 613.51 659.45 613.27C648.55 609.77 637.7 604.7 627.2 598.21C618.66 592.87 610.65 586.67 603.37 579.8C592.98 570 583.62 557.65 575.55 543.11C567.77 529.06 560.95 512.53 555.29 493.98C549.75 475.8 545.69 456.2 542.77 441.16C535.92 406.05 527.95 376 519.1 351.85C504.75 312.74 488.28 286.48 467.25 269.21C454.56 258.8 439.61 250.72 423.98 245.84C423.74 245.76 423.5 245.68 423.26 245.61C409.79 241.49 395.19 241.83 381.41 242.81C377.82 243.07 374.08 243.41 370.28 243.83C368.2 244.07 366.1 244.32 363.89 244.6C348.24 246.54 330.51 248.74 312.77 242.56C301.97 238.8 291.63 233.34 281.63 228.06C275.17 224.65 268.5 221.12 261.94 218.2C252.93 214.19 244.07 211.8 235.61 211.11C205.15 208.62 174.82 218.02 154.46 236.26L154.37 235.8C164.81 226.44 177.47 219.47 191.99 215.08C205.85 210.89 221.01 209.31 235.81 210.52C244.29 211.21 253.18 213.6 262.21 217.63C268.78 220.55 275.46 224.08 281.91 227.49C291.91 232.77 302.24 238.23 313.03 241.98C330.72 248.15 348.42 245.95 364.04 244.01C366.26 243.74 368.36 243.48 370.44 243.24C374.24 242.82 377.99 242.48 381.58 242.22C395.38 241.24 410.01 240.9 423.5 245.03C439.43 249.9 454.66 258.07 467.56 268.67C478.42 277.58 487.89 288.67 496.52 302.57C504.83 315.95 512.34 331.93 519.49 351.42C528.35 375.59 536.32 405.66 543.18 440.79C546.09 455.82 550.15 475.4 555.69 493.57C567.17 531.22 583.33 560.05 603.7 579.27C610.96 586.13 618.97 592.32 627.49 597.65C637.97 604.14 648.81 609.2 659.7 612.69C676.75 618.16 697.03 623.36 722.19 615.91C734.93 612.13 747.7 604.78 761.24 593.44C785.02 573.52 807.22 545.35 828.69 518.11C839.73 504.09 850.16 490.86 860.11 479.69C863.3 476.11 866.56 472.41 869.7 468.84C880.34 456.76 891.33 444.28 902.63 433.09C915.58 420.2 927.79 410.29 938.94 403.61C951.85 395.88 962.97 392.77 971.98 394.36C977.54 395.35 982.6 397.7 987.46 401.55C1000.45 411.85 1008.79 432.58 1016.89 454.72C1023.96 474.03 1029.18 497.44 1032 522.44C1035.16 550.14 1035.76 581.67 1033.8 616.15C1032.04 646.87 1028.25 680.09 1022.52 714.91L1022.11 715.05C1034.42 640.28 1037.6 575.58 1031.57 522.78C1028.77 497.81 1023.55 474.43 1016.5 455.16C1008.41 433.05 1000.08 412.36 987.14 402.11C982.31 398.28 977.28 395.94 971.75 394.96C955.2 392.02 930.69 405.72 902.74 433.53C891.47 444.7 880.49 457.17 869.86 469.24C866.71 472.81 863.45 476.51 860.27 480.09C850.33 491.24 839.91 504.46 828.88 518.46C818.34 531.83 807.45 545.65 796.17 558.69C783.38 573.46 771.98 584.99 761.31 593.92C747.71 605.32 734.88 612.7 722.08 616.49C710.8 619.84 699.74 620.93 688.29 619.82C678.59 618.88 669.5 616.42 661.69 613.98Z" fill="#FFE492" fill-opacity="1.000000" fill-rule="nonzero"/>
		<path id="Vector" d="M682.88 621.94C675.98 619.78 669.66 617 664.04 614.42C653.71 609.69 643.41 603.34 633.43 595.57C625.38 589.22 617.83 582.08 611.02 574.35C592.34 553.19 577.84 523.15 566.67 482.53C561.8 464.82 558.03 446.21 554.58 428.68C547.74 394.15 538.62 365.04 527.48 342.14C511.1 308.47 491.4 287.14 465.49 275.01C450.73 268.09 433.89 263.76 416.79 262.49C402.47 261.43 387.08 264.84 372.54 268.42C368.9 269.33 365 270.34 360.96 271.44C359.95 271.71 358.93 272 357.9 272.28C340.9 277 321.67 282.33 302.5 276.34C302.17 276.24 301.85 276.13 301.53 276.03C288.66 271.74 276.8 264.4 265.32 257.29C260.78 254.48 256.07 251.56 251.48 248.96C242.5 243.88 234.23 240.62 226.2 239.01C196.98 233.15 168.36 237.42 147.66 250.76L147.65 250.17C157.88 243.58 170.54 239.04 184.24 237.03C197.71 235.06 212.31 235.52 226.45 238.36C234.51 239.97 242.8 243.24 251.79 248.33C256.4 250.94 261.1 253.85 265.65 256.67C277.11 263.76 288.96 271.1 301.81 275.38C321.23 281.84 340.78 276.42 358.02 271.63C359.06 271.35 360.08 271.07 361.09 270.79C365.13 269.69 369.03 268.67 372.67 267.77C387.24 264.18 402.66 260.76 417.01 261.83C434.14 263.11 451.01 267.44 465.8 274.36C478.64 280.38 489.81 288.59 499.96 299.47C510.42 310.68 519.56 324.47 527.9 341.62C539.05 364.55 548.18 393.7 555.03 428.26C558.48 445.79 562.25 464.38 567.12 482.08C578.27 522.65 592.75 552.64 611.39 573.76C618.2 581.48 625.73 588.61 633.78 594.95C643.74 602.71 654.03 609.05 664.34 613.78C681.71 621.73 700.7 628.96 725.17 622.64C738.04 619.31 750.9 611.91 764.48 600.03C788.68 578.86 811.81 546.91 832.21 518.71C842.48 504.53 852.18 491.13 861.32 479.98C864.62 475.96 867.99 471.79 871.25 467.76C881.45 455.14 891.99 442.1 902.92 430.25C915.62 416.44 927.77 405.49 939.02 397.71C951.95 388.77 963.33 384.31 972.85 384.46C978.8 384.55 984.28 385.98 989.61 388.83C1004.49 396.79 1014.7 416.31 1023.52 436.21C1031.66 454.6 1037.64 477.51 1040.82 502.48C1044.41 530.19 1044.99 562.02 1042.56 597.1C1040.41 628.46 1035.86 662.28 1029.06 697.61L1028.61 697.74C1043.06 622.63 1047.14 555.24 1040.37 502.85C1037.18 477.93 1031.22 455.06 1023.09 436.71C1014.3 416.85 1004.12 397.38 989.29 389.46C984 386.63 978.55 385.21 972.64 385.11C955.07 384.84 930.37 401.03 903.09 430.7C892.17 442.52 881.64 455.55 871.45 468.15C868.19 472.19 864.82 476.36 861.52 480.39C852.4 491.51 842.71 504.9 832.45 519.07C812.01 547.3 788.85 579.31 764.57 600.55C750.92 612.49 737.98 619.93 725.04 623.28C713.8 626.18 702.9 626.49 691.7 624.21C688.67 623.61 685.73 622.83 682.88 621.94Z" fill="#FFE492" fill-opacity="1.000000" fill-rule="nonzero"/>
		<path id="Vector" d="M695.42 628.73C695.32 628.7 695.22 628.67 695.12 628.64C685.39 625.55 676.71 620.49 668.64 615.57C658.86 609.61 649.12 601.99 639.68 592.93C632.1 585.58 625.03 577.5 618.68 568.9C601.81 546.11 588.91 515.04 578.07 471.09C574.16 455.27 570.83 438.5 567.61 422.29C567.21 420.26 566.81 418.24 566.4 416.21C559.46 381.66 549.19 353.47 535.89 332.44C517.67 303.65 494.08 286.76 463.76 280.8C447.13 277.54 428.66 277.04 410.34 279.38C395.88 281.22 381.28 286.86 363.69 294.04C360.12 295.51 356.3 297.1 351.66 299.05L351.4 299.16C342.44 302.97 332.28 307.28 321.92 309.74C310.01 312.55 299.67 312.47 290.3 309.5C275.7 304.87 262.8 295.48 250.32 286.41C247.27 284.18 244.1 281.89 241.02 279.74C232.18 273.58 224.25 269.39 216.8 266.92C189.33 257.86 161.65 257.26 140.86 265.26L140.96 264.58C151.14 260.65 163.43 258.73 176.5 259.01C189.6 259.28 203.64 261.78 217.1 266.22C224.58 268.69 232.53 272.89 241.39 279.07C244.47 281.22 247.63 283.51 250.69 285.74C263.15 294.8 276.04 304.17 290.6 308.8C290.67 308.82 290.74 308.84 290.8 308.86C311.68 315.39 333.74 306.01 351.48 298.48L351.75 298.37C356.38 296.42 360.21 294.82 363.78 293.36C381.39 286.17 396.02 280.51 410.52 278.67C428.88 276.33 447.38 276.82 464.03 280.09C478.87 283.01 491.75 288.35 503.41 296.42C515.98 305.12 526.75 316.71 536.33 331.85C549.66 352.92 559.94 381.15 566.89 415.76C567.3 417.79 567.7 419.82 568.1 421.85C571.33 438.05 574.65 454.81 578.56 470.62C589.38 514.51 602.26 545.55 619.1 568.29C625.45 576.88 632.51 584.95 640.08 592.29C649.5 601.33 659.23 608.94 669 614.9C686.49 625.57 704.18 634.71 728.15 629.4C741.16 626.52 754.1 619.08 767.73 606.66C792.34 584.21 815.36 549.65 835.68 519.15C845.19 504.88 854.18 491.39 862.53 480.31C865.75 476.05 869.04 471.63 872.22 467.35C882.17 453.98 892.45 440.15 903.23 427.46C915.69 412.72 927.77 400.74 939.12 391.84C952.06 381.7 963.7 375.9 973.72 374.6C979.93 373.79 985.71 374.26 991.38 376.03C991.51 376.07 991.63 376.11 991.75 376.15C1009.31 381.82 1021.49 401.36 1030.14 417.74C1039.36 435.21 1046.11 457.61 1049.67 482.55C1053.67 510.27 1054.23 542.41 1051.35 578.08C1048.77 610.1 1043.47 644.51 1035.6 680.36L1035.12 680.46C1046.82 627.12 1058.77 549.56 1049.17 482.97C1045.62 458.09 1038.88 435.73 1029.68 418.32C1021.07 401.97 1008.93 382.49 991.45 376.85C985.7 374.99 979.84 374.49 973.53 375.31C954.97 377.72 930.08 396.41 903.43 427.92C892.68 440.58 882.4 454.39 872.47 467.75C869.29 472.03 866 476.45 862.78 480.72C854.44 491.77 845.47 505.24 835.97 519.5C815.61 550.05 792.54 584.68 767.84 607.21C754.13 619.72 741.09 627.21 728 630.11C716.9 632.56 706.24 632.12 695.42 628.73Z" fill="#FFE492" fill-opacity="1.000000" fill-rule="nonzero"/>
		<path id="Vector" d="M704.83 635.42C702.73 634.76 700.63 633.97 698.54 633.05C689.36 629.02 681.33 623.03 673.24 616.72C663.85 609.41 654.91 600.77 645.92 590.29C638.82 581.95 632.23 572.92 626.33 563.44C611.34 539.43 599.97 507.41 589.46 459.65C586.85 447.79 584.44 435.45 582.12 423.52C580.85 417.03 579.55 410.31 578.22 403.73C571.13 368.92 559.71 341.67 544.29 322.74C523.91 297.73 497 285.91 462.02 286.59C443.54 286.95 423.44 290.29 403.89 296.25C388.18 301.04 372.54 309.77 355.98 319.01L354.84 319.65C352.25 321.1 349.63 322.57 346.98 324.06C345.45 324.92 343.91 325.79 342.36 326.66C332.67 332.13 322.32 337.76 311.72 341.27C299.42 345.34 288.74 345.9 279.07 342.97C262.98 338.1 249.39 326.53 236.26 315.34C234.39 313.74 232.45 312.09 230.56 310.51C221.7 303.08 214.33 298.1 207.39 294.83C181.75 282.76 155.02 277.26 134.05 279.76L134.26 278.99C155.28 276.49 182.07 281.99 207.75 294.08C214.71 297.36 222.09 302.36 230.98 309.79C232.87 311.38 234.81 313.03 236.68 314.63C249.65 325.68 263.06 337.11 278.88 342.05C279.05 342.11 279.22 342.16 279.4 342.21C299.94 348.43 320.91 338.07 342.39 325.95C343.94 325.08 345.48 324.21 347.01 323.35C349.66 321.86 352.28 320.39 354.87 318.94L356.01 318.3C372.6 309.04 388.27 300.3 404.02 295.49C423.61 289.52 443.75 286.18 462.26 285.81C497.33 285.13 524.31 296.99 544.74 322.06C560.2 341.04 571.65 368.35 578.75 403.24C580.08 409.82 581.39 416.54 582.65 423.03C584.98 434.96 587.38 447.29 589.99 459.15C600.49 506.86 611.85 538.83 626.8 562.8C632.7 572.26 639.28 581.28 646.37 589.61C655.35 600.07 664.27 608.7 673.64 616C687.87 627.08 705.57 640.87 731.14 636.15C744.28 633.72 757.31 626.23 770.97 613.26C796 589.51 818.88 552.24 839.07 519.37C847.84 505.09 856.13 491.59 863.74 480.63C866.71 476.36 869.75 471.93 872.68 467.65C882.54 453.28 892.72 438.42 903.53 424.65C915.77 408.97 927.77 395.96 939.21 385.95C952.17 374.62 964.07 367.47 974.58 364.72C981.33 362.95 987.65 362.53 993.89 363.45C1002.26 364.67 1010.04 368.59 1017.68 375.42C1024.14 381.2 1030.39 389 1036.77 399.25C1047.06 415.79 1054.56 437.7 1058.51 462.6C1062.92 490.33 1063.47 522.78 1060.13 559.05C1057.13 591.71 1051.06 626.71 1042.14 663.08L1041.62 663.16C1060.48 586.39 1066.29 515.32 1057.97 463.07C1054.05 438.23 1046.55 416.38 1036.29 399.9C1022.54 377.8 1008.98 366.46 993.61 364.22C987.4 363.31 981.13 363.72 974.43 365.48C949.41 372.03 922.2 401.52 903.78 425.1C893 438.85 882.82 453.69 872.99 468.04C870.05 472.32 867.01 476.75 864.04 481.03C856.45 491.96 848.17 505.43 839.41 519.7C819.18 552.64 796.25 589.98 771.1 613.85C757.33 626.92 744.2 634.47 730.95 636.91C721.97 638.57 713.37 638.09 704.83 635.42Z" fill="#FFE492" fill-opacity="1.000000" fill-rule="nonzero"/>
		<path id="Vector" d="M712.58 642.13C698.27 637.66 687.25 626.99 677.82 617.87C668.95 609.28 660.56 599.39 652.15 587.64C645.54 578.32 639.42 568.34 633.97 557.98C617.62 526.96 608.39 486.89 600.84 448.2C599.3 440.31 597.8 432.19 596.36 424.35C594.34 413.45 592.26 402.19 590.03 391.26C582.77 356.07 570.21 329.75 552.69 313.03C530.03 291.42 499.8 284.66 460.29 292.37C439.94 296.34 418.21 303.51 397.44 313.12C381.42 320.53 365.91 331.35 349.48 342.81C348.32 343.62 347.15 344.44 345.98 345.25L345.35 345.7C341.35 348.49 337.22 351.37 333.05 354.25C323.04 361.21 312.28 368.27 301.38 372.83C288.72 378.12 277.75 379.3 267.83 376.44C250.42 371.42 236.44 357.52 222.92 344.08C221.98 343.14 221.03 342.2 220.09 341.27C211.17 332.44 204.35 326.72 197.97 322.73C174.29 307.92 148.51 297.54 127.24 294.24L127.55 293.4C148.85 296.71 174.67 307.11 198.39 321.94C204.78 325.94 211.62 331.67 220.56 340.52C221.5 341.45 222.44 342.39 223.39 343.33C236.88 356.75 250.83 370.61 268.18 375.62C289.72 381.83 312.95 367.47 333.02 353.53C337.19 350.64 341.32 347.76 345.31 344.97L345.95 344.53C347.12 343.71 348.29 342.9 349.45 342.09C365.9 330.61 381.44 319.76 397.51 312.33C418.32 302.71 440.09 295.52 460.48 291.54C479.21 287.89 495.5 287.49 510.28 290.32C526.77 293.49 541.19 300.87 553.15 312.28C570.72 329.04 583.32 355.44 590.6 390.73C592.84 401.66 594.92 412.93 596.93 423.83C598.38 431.67 599.88 439.78 601.42 447.68C608.96 486.32 618.18 526.35 634.5 557.32C639.94 567.66 646.05 577.62 652.65 586.93C661.04 598.67 669.42 608.54 678.28 617.11C691.88 630.27 708.81 646.65 734.11 642.89C747.38 640.92 760.5 633.39 774.2 619.87C799.66 594.76 822.36 554.71 842.38 519.37C850.43 505.17 858.03 491.76 864.94 480.95C867.5 476.95 870.11 472.82 872.65 468.82C882.56 453.17 892.8 436.98 903.81 421.84C915.85 405.22 927.79 391.16 939.29 380.06C952.26 367.53 964.42 359.04 975.43 354.84C982.58 352.11 989.32 350.77 996.02 350.75C1005.06 350.72 1013.84 353.56 1022.14 359.19C1029.4 364.13 1036.55 371.39 1043.38 380.76C1054.74 396.38 1063.03 417.78 1067.32 442.66C1072.17 470.39 1072.68 503.14 1068.9 540.02C1065.47 573.33 1058.66 608.92 1048.67 645.81L1048.12 645.86C1069.3 567.71 1075.92 495.73 1066.75 443.17C1062.46 418.37 1054.21 397.04 1042.88 381.48C1028.19 361.31 1012.79 351.53 995.76 351.58C989.1 351.6 982.42 352.93 975.32 355.64C949.12 365.65 922.14 397.41 904.11 422.29C893.13 437.4 882.9 453.56 873 469.19C870.47 473.19 867.85 477.33 865.29 481.33C858.41 492.1 850.82 505.49 842.78 519.67C833.14 536.68 822.22 555.95 810.79 573.64C797.69 593.91 785.77 609.23 774.36 620.49C767.76 627 761.15 632.22 754.7 636.02C747.77 640.11 740.77 642.7 733.9 643.72C726.04 644.89 718.98 644.13 712.58 642.13Z" fill="#FFE492" fill-opacity="1.000000" fill-rule="nonzero"/>
		<path id="Vector" d="M719.26 648.93C714.53 647.45 709.92 645.1 705.37 641.88C696.4 635.52 688.98 626.75 682.42 619.01C674.16 609.26 666.08 597.82 658.4 585C652.27 574.7 646.63 563.77 641.63 552.52C627.27 520.26 619.83 481.01 612.24 436.76C611.57 432.83 610.89 428.82 610.23 424.94C607.65 409.68 604.99 393.89 601.85 378.79C594.41 343.15 580.7 317.77 561.1 303.33C536.38 285.13 501.88 283.38 458.56 298.15C436.33 305.72 412.97 316.73 391 329.98C374.46 339.96 358.8 352.93 342.22 366.66C340.53 368.05 338.84 369.45 337.14 370.85C332.91 374.35 328.36 378.11 323.76 381.85C314.11 389.73 302.67 398.58 291.05 404.39C278.04 410.9 266.77 412.71 256.61 409.92C238 404.81 223.85 388.45 210.16 372.64L209.64 372.04C202.94 364.3 195.75 356.34 188.57 350.64C166.7 333.24 142.5 318.35 120.45 308.71L120.86 307.84C142.93 317.49 167.15 332.4 189.05 349.81C196.24 355.53 203.45 363.5 210.16 371.25L210.68 371.85C224.34 387.63 238.46 403.95 256.98 409.03C278.36 414.9 301.67 399.08 323.68 381.11C328.27 377.37 332.82 373.62 337.05 370.12C338.75 368.72 340.44 367.32 342.12 365.92C358.73 352.17 374.42 339.18 391.02 329.17C413.03 315.89 436.44 304.87 458.7 297.28C479.03 290.35 497.54 286.99 513.73 287.29C532.22 287.63 548.32 292.74 561.57 302.5C581.24 316.98 595 342.46 602.47 378.21C605.61 393.33 608.28 409.12 610.86 424.4C611.51 428.27 612.19 432.28 612.86 436.21C620.44 480.42 627.88 519.63 642.21 551.84C647.21 563.07 652.84 573.98 658.96 584.26C666.63 597.06 674.69 608.49 682.94 618.23C695.87 633.49 711.96 652.49 737.1 649.65C750.51 648.13 763.71 640.56 777.45 626.49C803.34 599.99 826.8 555.17 845.65 519.16C852.99 505.13 859.92 491.88 866.16 481.29C868.12 477.94 870.14 474.5 872.09 471.17C882.21 453.85 892.69 435.95 904.12 419.04C921.86 392.72 948.79 358.5 976.3 344.98C983.89 341.24 991.05 338.98 998.16 338.06C1016.83 335.56 1034.27 343.71 1050.01 362.28C1062.44 376.97 1071.5 397.87 1076.17 422.72C1081.43 450.46 1081.93 483.52 1077.68 521C1075.73 538.19 1072.76 556.27 1068.86 574.75C1065.14 592.4 1060.55 610.5 1055.21 628.54L1054.64 628.57C1078.15 549.04 1085.57 476.13 1075.56 423.27C1070.9 398.52 1061.88 377.7 1049.49 363.07C1033.82 344.58 1016.49 336.46 997.93 338.95C990.87 339.86 983.77 342.11 976.23 345.81C948.91 359.24 922.13 393.29 904.47 419.48C893.07 436.34 882.61 454.22 872.5 471.51C870.55 474.85 868.53 478.29 866.57 481.64C860.35 492.2 853.43 505.43 846.1 519.44C836.61 537.56 825.86 558.09 814.42 577.07C801.27 598.88 789.24 615.26 777.64 627.13C771.02 633.91 764.37 639.29 757.88 643.12C750.88 647.26 743.81 649.75 736.86 650.53C730.76 651.23 724.93 650.7 719.26 648.93Z" fill="#FFE492" fill-opacity="1.000000" fill-rule="nonzero"/>
		<path id="Vector" d="M725.16 655.75C719.49 653.97 714.06 650.83 708.77 646.28C700.2 638.92 693.19 628.95 687 620.15C679.22 609.08 671.69 596.36 664.63 582.35C658.99 571.08 653.82 559.21 649.27 547.06C636.75 513.65 630.83 473.79 624.55 431.58C624.24 429.5 623.93 427.4 623.62 425.31C620.7 405.71 617.67 385.43 613.65 366.31C606.03 330.19 591.17 305.74 569.5 293.63C542.28 278.41 504.37 281.88 456.83 303.92C433.04 314.94 407.38 330.19 384.55 346.84C367.32 359.42 351.3 374.62 334.33 390.71C332.33 392.62 330.31 394.53 328.29 396.45C324.24 400.28 319.43 404.82 314.46 409.44C305.23 418.03 293.05 428.81 280.71 435.92C267.35 443.63 255.79 446.07 245.36 443.39C236.82 441.13 228.52 435.99 220.01 427.68C212.69 420.55 206.24 412.19 199.17 402.8C192.74 394.16 185.9 385.17 179.15 378.54C159.15 358.88 137.11 340.26 113.65 323.17L114.14 322.28C137.62 339.37 159.67 358.01 179.68 377.68C186.45 384.33 193.3 393.33 199.74 401.98C211.59 417.72 226.35 437.32 245.75 442.45C267.99 448.18 291.84 429.62 314.3 408.71C319.27 404.09 324.08 399.55 328.12 395.72C330.15 393.81 332.16 391.89 334.17 389.99C351.16 373.87 367.21 358.64 384.5 346.02C407.37 329.34 433.08 314.06 456.91 303.02C504.6 280.91 542.64 277.44 569.96 292.72C580.44 298.57 589.42 307.37 596.65 318.88C604.41 331.21 610.35 346.97 614.31 365.7C618.33 384.84 621.36 405.13 624.29 424.75C624.6 426.85 624.91 428.94 625.22 431.02C631.49 473.19 637.41 513.02 649.9 546.36C654.45 558.49 659.6 570.35 665.24 581.59C672.29 595.59 679.8 608.29 687.58 619.34C699.8 636.72 715.01 658.35 740.07 656.4C753.65 655.34 766.93 647.72 780.67 633.11C807.03 605.23 830.19 557.29 848.8 518.77C855.46 504.99 861.74 491.98 867.35 481.62C868.5 479.49 869.66 477.34 870.83 475.18C881.37 455.66 892.27 435.48 904.4 416.25C921.81 388.58 948.56 352.04 977.14 335.12C985.11 330.39 992.68 327.21 1000.29 325.38C1010.87 322.79 1021.23 323.26 1031.06 326.76C1040.05 329.95 1048.65 335.69 1056.61 343.8C1070.13 357.56 1079.93 377.95 1084.99 402.77C1090.67 430.51 1091.16 463.89 1086.44 501.97C1084.28 519.44 1081.01 537.82 1076.73 556.6C1072.62 574.58 1067.57 592.98 1061.73 611.28L1061.13 611.27C1086.6 531.53 1095.06 455.76 1084.34 403.38C1079.31 378.66 1069.53 358.36 1056.07 344.65C1039.48 327.75 1020.12 321.41 1000.09 326.32C992.54 328.13 985.03 331.29 977.12 335.98C948.74 352.79 922.13 389.14 904.81 416.67C892.71 435.84 881.82 456 871.3 475.49C870.13 477.65 868.97 479.8 867.81 481.94C862.23 492.26 855.95 505.26 849.31 519.01C830.64 557.64 807.42 605.71 780.89 633.78C774.27 640.82 767.58 646.36 761.03 650.24C753.98 654.41 746.84 656.8 739.8 657.35C734.72 657.74 729.86 657.21 725.16 655.75Z" fill="#FFE492" fill-opacity="1.000000" fill-rule="nonzero"/>
		<path id="Vector" d="M730.53 662.6C724.07 660.58 718 656.63 712.19 650.69C703.96 642.29 697.39 631.13 691.6 621.29C684.27 608.85 677.3 594.85 670.87 579.7C665.71 567.48 661.02 554.66 656.92 541.6C646.83 509.45 642.27 472.5 637.45 433.38C636.66 426.99 635.84 420.37 635.01 413.86C632.09 390.99 629.34 372.03 625.47 353.83C617.65 317.21 601.65 293.69 577.91 283.92C548.09 271.64 506.77 280.31 455.1 309.68C429.43 324.27 402.09 343.45 378.11 363.69C360.05 378.93 343.5 396.5 325.98 415.1C323.81 417.41 321.63 419.72 319.44 422.03C315.54 426.16 310.4 431.59 305.16 437.02C283.11 459.92 257.42 482.56 234.13 476.85C233.41 476.67 232.69 476.47 231.98 476.25C214.26 470.71 201.39 452.9 188.71 433.56L187.92 432.34C181.66 422.7 175.75 413.59 169.74 406.43C147.08 379.43 124.23 355.47 106.86 337.62L107.43 336.71C124.8 354.57 147.66 378.53 170.33 405.54C176.36 412.72 182.27 421.84 188.54 431.5L189.33 432.71C202.47 452.77 215.82 471.16 234.54 475.85C257.57 481.5 283.05 459.03 304.94 436.3C310.17 430.88 315.31 425.45 319.21 421.32C321.4 419.01 323.57 416.69 325.74 414.39C343.29 395.76 359.87 378.17 377.99 362.87C402.02 342.59 429.41 323.38 455.13 308.75C479 295.18 501.03 285.92 520.6 281.22C543.05 275.82 562.49 276.4 578.37 282.93C602.22 292.75 618.31 316.39 626.17 353.18C630.05 371.41 632.79 390.39 635.72 413.28C636.55 419.79 637.37 426.4 638.16 432.8C642.98 471.88 647.53 508.79 657.61 540.88C661.7 553.92 666.38 566.72 671.53 578.92C677.95 594.06 684.91 608.03 692.23 620.46C703.71 639.95 718 664.22 743.06 663.14C756.76 662.55 770.12 654.89 783.91 639.72C810.73 610.33 833.56 559.19 851.91 518.09C857.89 504.68 863.55 492.02 868.55 481.95L868.66 481.72C879.87 459.18 891.45 435.87 904.69 413.44C916.22 393.87 927.94 376.7 939.53 362.4C952.6 346.28 965.54 333.78 977.99 325.24C986.33 319.53 994.32 315.43 1002.42 312.68C1024.31 305.21 1045.35 309.57 1063.23 325.3C1070.42 331.64 1076.69 339.79 1081.9 349.52C1087.12 359.32 1091.14 370.52 1093.82 382.82C1099.93 410.57 1100.4 444.25 1095.23 482.94C1090.56 517.71 1081.25 556.12 1068.27 594.01L1067.64 593.96C1095.43 512.86 1104.72 436.14 1093.13 383.47C1087.73 358.81 1077.19 339.02 1062.68 326.24C1044.9 310.59 1024.01 306.25 1002.26 313.68C994.22 316.4 986.3 320.47 978.03 326.14C954.77 342.07 929.57 372.4 905.15 413.85C891.95 436.22 880.38 459.5 869.19 482L869.08 482.23C864.09 492.26 858.45 504.91 852.47 518.3C834.07 559.52 811.17 610.82 784.16 640.41C777.51 647.73 770.79 653.42 764.19 657.34C757.08 661.56 749.87 663.85 742.75 664.16C738.52 664.34 734.45 663.82 730.53 662.6Z" fill="#FFE492" fill-opacity="1.000000" fill-rule="nonzero"/>
		<path id="Vector" d="M220.51 509.67C212.59 507.2 205.11 501.82 197.71 493.32C190.37 484.87 184.02 474.39 178.25 464.32C177.2 462.49 176.17 460.67 175.15 458.86C170.06 449.84 165.24 441.32 160.33 434.32C140.75 406.43 121.63 380.88 103.14 356.18L100.07 352.08L100.71 351.16L103.77 355.26C122.26 379.97 141.39 405.51 160.98 433.42C165.9 440.43 170.72 448.96 175.82 457.99C176.84 459.8 177.87 461.62 178.92 463.45C190.76 484.12 203.95 504.67 223.33 509.27C247.19 514.83 274.48 487.94 295.58 463.9C300.98 457.75 306.28 451.6 310.3 446.93C312.51 444.35 314.72 441.78 316.92 439.21C335.17 417.92 352.41 397.81 371.48 379.73C396.66 355.87 425.73 332.7 453.35 314.5C478.97 297.61 502.77 285.38 524.06 278.14C548.5 269.84 569.59 268.16 586.77 273.15C612.69 280.51 629.94 303.23 638.03 340.67C642.5 361.45 645.15 383.24 647.16 401.82C648.25 411.93 649.25 422.26 650.21 432.24C653.63 467.59 657.16 504.15 665.31 535.4C668.95 549.37 673.16 563.12 677.83 576.26C683.61 592.5 690.02 607.74 696.88 621.58C707.59 643.2 720.93 670.11 746.04 669.89C759.86 669.77 773.31 662.06 787.15 646.33C814.45 615.39 836.91 560.93 854.95 517.18C860.28 504.24 865.32 492.01 869.76 482.29C879.75 460.37 891.54 434.95 904.99 410.65C916.37 390.05 928.02 371.84 939.61 356.52C952.72 339.19 965.92 325.35 978.85 315.39C987.42 308.78 996.06 303.61 1004.55 300C1016.66 294.83 1028.57 292.93 1039.98 294.34C1050.65 295.67 1060.69 299.86 1069.85 306.82C1077.56 312.69 1084.3 320.48 1089.87 329.98C1095.48 339.54 1099.79 350.61 1102.67 362.88C1105.99 377.01 1107.75 393.02 1107.89 410.47C1108.03 427.01 1106.72 444.99 1104 463.91C1098.92 499.33 1088.81 538.35 1074.8 576.75L1074.15 576.66C1104.26 494.2 1114.38 416.53 1101.93 363.58C1096.24 339.31 1084.65 319.5 1069.28 307.82C1050.29 293.37 1027.86 291.02 1004.43 301.03C996.01 304.6 987.43 309.74 978.93 316.29C954.57 335.06 929.87 366.93 905.5 411.02C892.09 435.26 880.32 460.64 870.35 482.52C865.93 492.21 860.9 504.42 855.57 517.34C846.67 538.93 836.58 563.39 825.21 586.54C812.01 613.4 799.66 633.19 787.43 647.05C780.76 654.63 774.01 660.48 767.36 664.43C760.19 668.7 752.9 670.9 745.71 670.96C742.08 670.99 738.7 670.47 735.53 669.48C716.58 663.55 705.42 641.03 696.19 622.42C689.33 608.56 682.91 593.29 677.12 577.03C672.44 563.88 668.23 550.11 664.58 536.12C656.42 504.8 652.88 468.21 649.46 432.82C648.5 422.84 647.5 412.52 646.41 402.41C644.41 383.86 641.76 362.09 637.29 341.36C629.25 304.11 612.1 281.52 586.33 274.21C545.96 262.47 491.75 290.15 453.37 315.44C425.81 333.61 396.8 356.73 371.67 380.54C352.66 398.56 335.44 418.64 317.22 439.9C315.02 442.47 312.81 445.04 310.6 447.62C306.58 452.29 301.27 458.45 295.87 464.6C287.01 474.7 273.66 489.25 260.05 499.03C253.44 503.78 247.13 507.17 241.29 509.09C234.77 511.23 228.58 511.65 222.9 510.32C222.1 510.14 221.3 509.92 220.51 509.67Z" fill="#FFE492" fill-opacity="1.000000" fill-rule="nonzero"/>
		<path id="Vector" d="M209.03 543.09C201.1 540.61 193.73 535.04 186.57 526.13C179.15 516.92 172.91 505.26 167.79 495.08C166.21 491.94 164.66 488.78 163.16 485.72C158.96 477.16 154.99 469.07 150.92 462.21C136.31 437.58 121.67 413.41 107.51 390.03C102.82 382.29 97.98 374.3 93.29 366.54L93.99 365.61C98.68 373.37 103.52 381.36 108.21 389.1C122.37 412.47 137.02 436.65 151.63 461.29C155.7 468.17 159.68 476.26 163.88 484.83C165.38 487.89 166.94 491.05 168.51 494.19C179.14 515.3 192.15 538.21 212.12 542.68C236.65 548.12 264.6 518.18 286.22 491.5C291.76 484.66 297.24 477.77 301.39 472.53C303.52 469.84 305.64 467.15 307.76 464.47C326.83 440.35 344.84 417.58 364.98 396.59C391.16 369.29 421.92 342.18 451.57 320.25C492.8 289.87 551.17 255.35 595.17 263.38C623.19 268.4 641.6 290.2 649.88 328.16C653.6 345.23 656.29 364.41 658.59 390.36C659.75 403.48 660.7 416.99 661.61 430.06C663.99 464.05 666.44 499.19 673.01 529.94C676.19 544.84 679.93 559.53 684.11 573.61C689.19 590.64 695.05 607.16 701.52 622.71C711.51 646.49 723.94 676.09 749.02 676.65C762.74 677.03 776.65 669.06 790.38 652.96C818.19 620.39 841.15 560.06 857.91 516.01C862.62 503.64 867.06 491.97 870.95 482.64C879.6 461.92 891.32 434.7 905.28 407.87C929.44 361.36 954.47 326.93 979.7 305.54C988.55 298 997.63 291.87 1006.67 287.34C1019.53 280.87 1032.23 277.79 1044.42 278.18C1055.9 278.55 1066.68 281.97 1076.44 288.35C1084.68 293.78 1091.87 301.23 1097.82 310.46C1103.84 319.79 1108.43 330.72 1111.5 342.94C1115.03 357.07 1116.89 373.17 1117.02 390.79C1117.14 407.49 1115.71 425.7 1112.78 444.9C1107.26 480.96 1096.38 520.59 1081.32 559.5L1080.66 559.37C1113.09 475.54 1124.05 396.93 1110.72 343.7C1104.68 319.55 1092.31 300.27 1075.88 289.42C1055.56 276.17 1031.61 275.82 1006.59 288.4C997.62 292.9 988.62 298.97 979.84 306.46C954.78 327.71 929.89 361.94 905.85 408.22C891.94 434.98 880.24 462.15 871.61 482.83C867.73 492.12 863.29 503.78 858.59 516.13C849.92 538.9 840.1 564.71 828.78 589.37C815.6 618.08 803.14 639.12 790.69 653.7C783.99 661.56 777.2 667.57 770.51 671.57C763.26 675.9 755.91 677.99 748.65 677.79C737.37 677.53 727.68 671.56 719.02 659.53C711.5 649.08 705.8 635.53 700.78 623.57C694.3 608 688.43 591.45 683.35 574.4C679.16 560.31 675.41 545.59 672.23 530.67C665.64 499.86 663.19 464.68 660.81 430.65C659.9 417.59 658.95 404.09 657.79 390.98C655.49 365.07 652.81 345.93 649.1 328.9C640.87 291.15 622.58 269.49 594.74 264.5C550.93 256.51 492.74 290.93 451.64 321.21C422.04 343.1 391.36 370.15 365.22 397.39C345.15 418.32 327.16 441.07 308.12 465.15C306 467.83 303.88 470.52 301.74 473.21C297.59 478.45 292.11 485.35 286.56 492.19C264.76 519.12 236.54 549.32 211.67 543.8C210.78 543.6 209.9 543.36 209.03 543.09Z" fill="#FFE492" fill-opacity="1.000000" fill-rule="nonzero"/>
		<path id="Vector" d="M197.61 576.53C175.93 569.76 163.09 539.59 151.71 512.84C148.22 504.63 144.91 496.86 141.51 490.11L86.5 381L87.26 380.06L142.27 489.17C145.68 495.94 148.99 503.71 152.49 511.94C164.31 539.72 177.71 571.2 200.9 576.09C226.08 581.4 254.72 548.42 276.86 519.1C284.1 509.51 291.32 499.7 298.31 490.22C317.41 464.3 337.17 437.49 358.47 413.44C375.38 394.35 394.6 374.8 414.04 356.89C435.38 337.24 456.7 319.76 477.4 304.94C500.22 288.59 521.75 275.9 541.36 267.2C563.06 257.59 582.38 252.93 598.77 253.33C631.62 254.15 652.8 275.11 661.73 315.64C669.15 349.32 670.87 388.64 672.53 426.66C673.97 459.76 675.46 493.98 680.7 524.47C686.76 559.68 695.32 593.11 706.16 623.83C715.29 649.71 726.66 681.92 752 683.4C773.4 684.65 794.22 665.73 815.63 625.56C833.85 591.39 848.8 548.78 860.81 514.53C864.9 502.87 868.77 491.84 872.15 482.98C890.79 434.13 909.21 394.76 928.47 362.61C940.48 342.55 952.94 325.21 965.5 311.08C979.52 295.3 994.09 283.04 1008.79 274.65C1021.51 267.39 1034.14 263.18 1046.32 262.13C1057.93 261.13 1068.9 263.01 1078.91 267.71C1098.6 276.95 1113.31 296.58 1120.31 322.99C1124.07 337.1 1126.03 353.29 1126.15 371.09C1126.25 387.96 1124.69 406.39 1121.55 425.87C1115.6 462.57 1103.93 502.81 1087.85 542.23L1087.16 542.06C1121.42 458.1 1133.52 376.51 1119.51 323.79C1104.64 267.81 1058.06 247.6 1008.75 275.74C959.91 303.62 915.46 371.45 872.86 483.11C869.49 491.94 865.63 502.95 861.54 514.6C849.5 548.92 834.52 591.62 816.22 625.95C806.26 644.64 796.19 659.02 786.3 668.7C780.74 674.13 775.1 678.23 769.52 680.88C763.59 683.69 757.56 684.94 751.6 684.59C749.16 684.45 746.8 684.02 744.53 683.31C736.23 680.71 728.95 674.32 722.43 663.93C715.08 652.22 709.7 636.96 705.37 624.69C694.51 593.94 685.94 560.46 679.87 525.19C674.62 494.64 673.13 460.38 671.68 427.25C670.03 389.27 668.31 350.01 660.91 316.41C652.04 276.16 631 255.33 598.38 254.52C532.4 252.88 427.93 336.17 358.77 414.24C337.54 438.22 317.8 464.99 298.72 490.88C291.73 500.37 284.5 510.18 277.26 519.78C262.56 539.24 250.52 552.71 239.37 562.15C232.41 568.03 225.77 572.32 219.63 574.87C212.79 577.71 206.34 578.52 200.43 577.27C199.47 577.07 198.53 576.82 197.61 576.53Z" fill="#FFE492" fill-opacity="1.000000" fill-rule="nonzero"/>
	</g>
</svg>
